0, 0, Header, 0, 1, 10
1, 0, Start_track
1, 0, Tempo, 500000
1, 0, Program_c, 0, 0
1, 0, Note_on_c, 0, 64, 82
1, 2, Note_on_c, 0, 100, 39
1, 5, Note_on_c, 0, 61, 57
1, 6, Note_on_c, 0, 63, 76
1, 6, Note_off_c, 0, 100, 64
1, 9, Note_off_c, 0, 61, 64
1, 9, Note_on_c, 0, 87, 18
1, 10, Note_off_c, 0, 63, 64
1, 11, Note_on_c, 0, 83, 12
1, 12, Note_off_c, 0, 87, 64
1, 13, Note_on_c, 0, 87, 31
1, 14, Note_on_c, 0, 63, 84
1, 14, Note_off_c, 0, 64, 64
1, 14, Note_off_c, 0, 83, 64
1, 16, Note_on_c, 0, 59, 47
1, 17, Note_on_c, 0, 62, 45
1, 17, Note_off_c, 0, 87, 64
1, 18, Note_on_c, 0, 60, 41
1, 18, Note_off_c, 0, 63, 64
1, 18, Note_on_c, 0, 73, 39
1, 19, Note_off_c, 0, 59, 64
1, 20, Note_on_c, 0, 80, 47
1, 20, Note_on_c, 0, 89, 21
1, 21, Note_on_c, 0, 61, 43
1, 21, Note_off_c, 0, 62, 64
1, 22, Note_off_c, 0, 60, 64
1, 22, Note_on_c, 0, 74, 32
1, 23, Note_off_c, 0, 89, 64
1, 24, Note_off_c, 0, 61, 64
1, 24, Note_on_c, 0, 62, 64
1, 24, Note_off_c, 0, 73, 64
1, 24, Note_on_c, 0, 81, 49
1, 25, Note_off_c, 0, 80, 64
1, 33, Note_off_c, 0, 74, 64
1, 33, Note_off_c, 0, 81, 64
1, 34, Note_on_c, 0, 64, 40
1, 34, Note_on_c, 0, 76, 50
1, 34, Note_on_c, 0, 83, 51
1, 34, Note_on_c, 0, 88, 54
1, 35, Note_off_c, 0, 62, 64
1, 35, Note_on_c, 0, 75, 45
1, 35, Note_on_c, 0, 82, 54
1, 35, Note_on_c, 0, 87, 72
1, 35, Note_on_c, 0, 91, 51
1, 35, Note_on_c, 0, 92, 48
1, 37, Note_on_c, 0, 63, 63
1, 38, Note_off_c, 0, 64, 64
1, 38, Note_off_c, 0, 76, 64
1, 38, Note_off_c, 0, 83, 64
1, 38, Note_off_c, 0, 88, 64
1, 38, Note_off_c, 0, 92, 64
1, 39, Note_on_c, 0, 88, 47
1, 40, Note_on_c, 0, 62, 51
1, 40, Note_off_c, 0, 75, 64
1, 40, Note_off_c, 0, 82, 64
1, 40, Note_off_c, 0, 87, 64
1, 40, Note_off_c, 0, 91, 64
1, 41, Note_off_c, 0, 88, 64
1, 42, Note_on_c, 0, 64, 79
1, 43, Note_off_c, 0, 62, 64
1, 45, Note_off_c, 0, 63, 64
1, 48, Note_on_c, 0, 83, 15
1, 51, Note_on_c, 0, 63, 53
1, 51, Note_off_c, 0, 64, 64
1, 51, Note_off_c, 0, 83, 64
1, 53, Note_off_c, 0, 63, 64
1, 53, Note_on_c, 0, 64, 74
1, 53, Note_on_c, 0, 102, 26
1, 54, Note_on_c, 0, 100, 13
1, 60, Note_on_c, 0, 65, 30
1, 60, Note_off_c, 0, 100, 64
1, 61, Note_on_c, 0, 66, 54
1, 61, Note_on_c, 0, 68, 48
1, 61, Note_off_c, 0, 102, 64
1, 62, Note_off_c, 0, 64, 64
1, 62, Note_on_c, 0, 79, 48
1, 63, Note_off_c, 0, 65, 64
1, 63, Note_on_c, 0, 67, 60
1, 63, Note_on_c, 0, 86, 59
1, 64, Note_off_c, 0, 68, 64
1, 65, Note_off_c, 0, 66, 64
1, 68, Note_off_c, 0, 86, 64
1, 69, Note_off_c, 0, 67, 64
1, 69, Note_off_c, 0, 79, 64
1, 70, Note_on_c, 0, 60, 46
1, 72, Note_on_c, 0, 58, 45
1, 73, Note_on_c, 0, 59, 36
1, 74, Note_off_c, 0, 60, 64
1, 75, Note_off_c, 0, 58, 64
1, 76, Note_on_c, 0, 58, 34
1, 77, Note_off_c, 0, 59, 64
1, 82, Note_on_c, 0, 57, 27
1, 83, Note_off_c, 0, 58, 64
1, 83, Note_on_c, 0, 59, 39
1, 86, Note_on_c, 0, 58, 40
1, 86, Note_on_c, 0, 77, 44
1, 86, Note_on_c, 0, 78, 42
1, 86, Note_on_c, 0, 83, 49
1, 86, Note_on_c, 0, 87, 36
1, 87, Note_off_c, 0, 57, 64
1, 87, Note_on_c, 0, 82, 45
1, 87, Note_on_c, 0, 86, 44
1, 87, Note_on_c, 0, 92, 28
1, 90, Note_off_c, 0, 58, 64
1, 91, Note_on_c, 0, 58, 43
1, 91, Note_off_c, 0, 59, 64
1, 91, Note_off_c, 0, 83, 64
1, 92, Note_off_c, 0, 78, 64
1, 92, Note_off_c, 0, 87, 64
1, 95, Note_off_c, 0, 77, 64
1, 95, Note_off_c, 0, 82, 64
1, 95, Note_off_c, 0, 86, 64
1, 95, Note_off_c, 0, 92, 64
1, 96, Note_off_c, 0, 58, 64
1, 97, Note_on_c, 0, 63, 55
1, 97, Note_on_c, 0, 75, 68
1, 97, Note_on_c, 0, 82, 48
1, 98, Note_on_c, 0, 88, 36
1, 99, Note_on_c, 0, 83, 51
1, 100, Note_on_c, 0, 65, 56
1, 100, Note_on_c, 0, 76, 56
1, 101, Note_on_c, 0, 64, 72
1, 101, Note_on_c, 0, 66, 50
1, 101, Note_off_c, 0, 75, 64
1, 101, Note_off_c, 0, 82, 64
1, 101, Note_off_c, 0, 88, 64
1, 102, Note_off_c, 0, 76, 64
1, 102, Note_off_c, 0, 83, 64
1, 103, Note_off_c, 0, 63, 64
1, 104, Note_off_c, 0, 66, 64
1, 105, Note_off_c, 0, 65, 64
1, 107, Note_on_c, 0, 66, 40
1, 109, Note_off_c, 0, 66, 64
1, 115, Note_on_c, 0, 63, 48
1, 115, Note_off_c, 0, 64, 64
1, 116, Note_on_c, 0, 61, 33
1, 116, Note_on_c, 0, 73, 36
1, 116, Note_on_c, 0, 74, 34
1, 117, Note_off_c, 0, 63, 64
1, 119, Note_on_c, 0, 62, 26
1, 123, Note_off_c, 0, 62, 64
1, 124, Note_off_c, 0, 61, 64
1, 125, Note_on_c, 0, 61, 27
1, 125, Note_off_c, 0, 74, 64
1, 129, Note_off_c, 0, 73, 64
1, 130, Note_off_c, 0, 61, 64
1, 142, Note_on_c, 0, 65, 30
1, 142, Note_on_c, 0, 77, 67
1, 142, Note_on_c, 0, 84, 52
1, 143, Note_on_c, 0, 76, 59
1, 143, Note_on_c, 0, 82, 73
1, 143, Note_on_c, 0, 87, 52
1, 144, Note_on_c, 0, 63, 65
1, 144, Note_off_c, 0, 65, 64
1, 144, Note_on_c, 0, 75, 79
1, 144, Note_off_c, 0, 77, 64
1, 146, Note_off_c, 0, 84, 64
1, 148, Note_off_c, 0, 76, 64
1, 149, Note_on_c, 0, 64, 81
1, 149, Note_off_c, 0, 75, 64
1, 149, Note_off_c, 0, 87, 64
1, 151, Note_off_c, 0, 82, 64
1, 153, Note_off_c, 0, 63, 64
1, 159, Note_on_c, 0, 67, 56
1, 161, Note_off_c, 0, 64, 64
1, 162, Note_on_c, 0, 66, 56
1, 162, Note_on_c, 0, 102, 21
1, 163, Note_off_c, 0, 67, 64
1, 165, Note_off_c, 0, 66, 64
1, 165, Note_on_c, 0, 67, 50
1, 165, Note_off_c, 0, 102, 64
1, 166, Note_on_c, 0, 78, 70
1, 167, Note_on_c, 0, 66, 45
1, 167, Note_off_c, 0, 67, 64
1, 168, Note_on_c, 0, 85, 65
1, 168, Note_on_c, 0, 94, 49
1, 172, Note_off_c, 0, 66, 64
1, 172, Note_off_c, 0, 94, 64
1, 173, Note_off_c, 0, 78, 64
1, 173, Note_off_c, 0, 85, 64
1, 176, Note_on_c, 0, 64, 42
1, 177, Note_on_c, 0, 60, 54
1, 177, Note_on_c, 0, 62, 40
1, 178, Note_on_c, 0, 61, 43
1, 178, Note_on_c, 0, 63, 45
1, 178, Note_off_c, 0, 64, 64
1, 179, Note_off_c, 0, 62, 64
1, 180, Note_on_c, 0, 62, 45
1, 180, Note_off_c, 0, 63, 64
1, 181, Note_off_c, 0, 61, 64
1, 182, Note_on_c, 0, 61, 47
1, 183, Note_off_c, 0, 60, 64
1, 183, Note_on_c, 0, 73, 68
1, 184, Note_off_c, 0, 62, 64
1, 184, Note_on_c, 0, 74, 51
1, 185, Note_on_c, 0, 62, 45
1, 185, Note_on_c, 0, 80, 45
1, 186, Note_off_c, 0, 61, 64
1, 186, Note_off_c, 0, 74, 64
1, 186, Note_on_c, 0, 95, 26
1, 187, Note_on_c, 0, 61, 47
1, 187, Note_off_c, 0, 62, 64
1, 190, Note_off_c, 0, 61, 64
1, 190, Note_on_c, 0, 62, 46
1, 190, Note_off_c, 0, 73, 64
1, 190, Note_on_c, 0, 74, 61
1, 190, Note_off_c, 0, 80, 64
1, 190, Note_on_c, 0, 81, 42
1, 191, Note_off_c, 0, 95, 64
1, 193, Note_off_c, 0, 62, 64
1, 193, Note_on_c, 0, 67, 54
1, 193, Note_off_c, 0, 74, 64
1, 193, Note_on_c, 0, 79, 79
1, 193, Note_off_c, 0, 81, 64
1, 197, Note_on_c, 0, 65, 38
1, 197, Note_on_c, 0, 66, 41
1, 197, Note_on_c, 0, 78, 46
1, 198, Note_on_c, 0, 76, 36
1, 198, Note_on_c, 0, 77, 39
1, 200, Note_on_c, 0, 80, 56
1, 201, Note_off_c, 0, 65, 64
1, 201, Note_off_c, 0, 76, 64
1, 201, Note_off_c, 0, 77, 64
1, 202, Note_off_c, 0, 80, 64
1, 202, Note_on_c, 0, 86, 64
1, 203, Note_off_c, 0, 66, 64
1, 203, Note_off_c, 0, 78, 64
1, 203, Note_on_c, 0, 90, 56
1, 204, Note_on_c, 0, 66, 39
1, 204, Note_off_c, 0, 67, 64
1, 204, Note_on_c, 0, 78, 66
1, 204, Note_on_c, 0, 85, 77
1, 205, Note_off_c, 0, 79, 64
1, 205, Note_off_c, 0, 86, 64
1, 206, Note_on_c, 0, 94, 40
1, 206, Note_on_c, 0, 95, 34
1, 207, Note_on_c, 0, 67, 34
1, 207, Note_on_c, 0, 79, 66
1, 207, Note_on_c, 0, 86, 70
1, 208, Note_off_c, 0, 66, 64
1, 208, Note_off_c, 0, 78, 64
1, 208, Note_off_c, 0, 90, 64
1, 209, Note_off_c, 0, 79, 64
1, 210, Note_off_c, 0, 67, 64
1, 210, Note_off_c, 0, 85, 64
1, 210, Note_off_c, 0, 86, 64
1, 210, Note_off_c, 0, 94, 64
1, 210, Note_off_c, 0, 95, 64
1, 211, Note_on_c, 0, 66, 34
1, 212, Note_on_c, 0, 64, 54
1, 213, Note_on_c, 0, 63, 53
1, 213, Note_on_c, 0, 65, 44
1, 214, Note_off_c, 0, 66, 64
1, 215, Note_off_c, 0, 63, 64
1, 217, Note_on_c, 0, 63, 50
1, 217, Note_off_c, 0, 65, 64
1, 222, Note_off_c, 0, 63, 64
1, 223, Note_on_c, 0, 87, 22
1, 224, Note_on_c, 0, 63, 54
1, 224, Note_off_c, 0, 64, 64
1, 226, Note_off_c, 0, 87, 64
1, 227, Note_off_c, 0, 63, 64
1, 228, Note_on_c, 0, 63, 43
1, 229, Note_on_c, 0, 62, 31
1, 230, Note_on_c, 0, 60, 42
1, 232, Note_off_c, 0, 60, 64
1, 232, Note_on_c, 0, 61, 37
1, 232, Note_off_c, 0, 62, 64
1, 233, Note_on_c, 0, 62, 43
1, 234, Note_off_c, 0, 63, 64
1, 235, Note_off_c, 0, 61, 64
1, 238, Note_on_c, 0, 60, 31
1, 238, Note_off_c, 0, 62, 64
1, 240, Note_on_c, 0, 58, 40
1, 240, Note_off_c, 0, 60, 64
1, 244, Note_off_c, 0, 58, 64
1, 246, Note_on_c, 0, 63, 40
1, 247, Note_on_c, 0, 61, 40
1, 247, Note_on_c, 0, 62, 31
1, 249, Note_off_c, 0, 62, 64
1, 250, Note_on_c, 0, 62, 36
1, 251, Note_off_c, 0, 63, 64
1, 253, Note_off_c, 0, 62, 64
1, 254, Note_on_c, 0, 74, 37
1, 255, Note_off_c, 0, 61, 64
1, 255, Note_on_c, 0, 62, 36
1, 256, Note_on_c, 0, 61, 33
1, 256, Note_on_c, 0, 73, 36
1, 257, Note_off_c, 0, 62, 64
1, 260, Note_off_c, 0, 61, 64
1, 260, Note_on_c, 0, 62, 30
1, 266, Note_off_c, 0, 62, 64
1, 267, Note_off_c, 0, 73, 64
1, 268, Note_on_c, 0, 73, 19
1, 271, Note_off_c, 0, 73, 64
1, 272, Note_off_c, 0, 74, 64
1, 287, Note_on_c, 0, 64, 41
1, 288, Note_on_c, 0, 62, 50
1, 289, Note_on_c, 0, 61, 48
1, 289, Note_on_c, 0, 63, 40
1, 289, Note_off_c, 0, 64, 64
1, 290, Note_on_c, 0, 80, 36
1, 290, Note_on_c, 0, 81, 39
1, 291, Note_off_c, 0, 63, 64
1, 295, Note_off_c, 0, 61, 64
1, 296, Note_on_c, 0, 61, 53
1, 296, Note_off_c, 0, 62, 64
1, 297, Note_on_c, 0, 74, 41
1, 298, Note_off_c, 0, 61, 64
1, 298, Note_off_c, 0, 80, 64
1, 299, Note_on_c, 0, 61, 52
1, 299, Note_off_c, 0, 74, 64
1, 300, Note_off_c, 0, 81, 64
1, 301, Note_on_c, 0, 72, 41
1, 302, Note_on_c, 0, 58, 47
1, 302, Note_on_c, 0, 60, 48
1, 302, Note_off_c, 0, 61, 64
1, 303, Note_on_c, 0, 71, 21
1, 304, Note_off_c, 0, 60, 64
1, 304, Note_off_c, 0, 72, 64
1, 305, Note_on_c, 0, 59, 56
1, 306, Note_off_c, 0, 58, 64
1, 307, Note_off_c, 0, 71, 64
1, 311, Note_on_c, 0, 60, 24
1, 312, Note_on_c, 0, 62, 41
1, 313, Note_off_c, 0, 59, 64
1, 313, Note_on_c, 0, 61, 43
1, 314, Note_off_c, 0, 60, 64
1, 315, Note_off_c, 0, 62, 64
1, 316, Note_off_c, 0, 61, 64
1, 316, Note_on_c, 0, 62, 41
1, 317, Note_on_c, 0, 61, 38
1, 318, Note_off_c, 0, 62, 64
1, 319, Note_on_c, 0, 60, 38
1, 319, Note_on_c, 0, 62, 38
1, 320, Note_off_c, 0, 61, 64
1, 322, Note_on_c, 0, 61, 43
1, 323, Note_off_c, 0, 60, 64
1, 323, Note_off_c, 0, 62, 64
1, 324, Note_off_c, 0, 61, 64
1, 324, Note_on_c, 0, 62, 64
1, 325, Note_on_c, 0, 81, 30
1, 334, Note_off_c, 0, 81, 64
1, 335, Note_off_c, 0, 62, 64
1, 335, Note_on_c, 0, 86, 74
1, 335, Note_on_c, 0, 87, 35
1, 335, Note_on_c, 0, 88, 37
1, 336, Note_on_c, 0, 61, 30
1, 336, Note_on_c, 0, 62, 42
1, 336, Note_on_c, 0, 80, 39
1, 336, Note_on_c, 0, 81, 59
1, 336, Note_on_c, 0, 85, 49
1, 336, Note_on_c, 0, 89, 58
1, 336, Note_on_c, 0, 90, 46
1, 338, Note_off_c, 0, 87, 64
1, 338, Note_off_c, 0, 88, 64
1, 339, Note_off_c, 0, 61, 64
1, 339, Note_off_c, 0, 80, 64
1, 340, Note_off_c, 0, 85, 64
1, 341, Note_on_c, 0, 61, 59
1, 341, Note_off_c, 0, 90, 64
1, 342, Note_on_c, 0, 63, 36
1, 342, Note_off_c, 0, 89, 64
1, 343, Note_off_c, 0, 62, 64
1, 343, Note_on_c, 0, 64, 49
1, 343, Note_on_c, 0, 76, 50
1, 343, Note_on_c, 0, 83, 54
1, 344, Note_on_c, 0, 62, 44
1, 344, Note_off_c, 0, 81, 64
1, 344, Note_on_c, 0, 82, 29
1, 344, Note_on_c, 0, 87, 35
1, 345, Note_off_c, 0, 61, 64
1, 345, Note_on_c, 0, 81, 55
1, 345, Note_on_c, 0, 90, 46
1, 346, Note_on_c, 0, 89, 52
1, 347, Note_off_c, 0, 63, 64
1, 347, Note_off_c, 0, 64, 64
1, 347, Note_off_c, 0, 76, 64
1, 347, Note_off_c, 0, 82, 64
1, 347, Note_off_c, 0, 83, 64
1, 347, Note_off_c, 0, 87, 64
1, 349, Note_off_c, 0, 89, 64
1, 350, Note_off_c, 0, 81, 64
1, 350, Note_off_c, 0, 86, 64
1, 350, Note_off_c, 0, 90, 64
1, 351, Note_off_c, 0, 62, 64
1, 351, Note_on_c, 0, 64, 47
1, 352, Note_on_c, 0, 63, 37
1, 354, Note_off_c, 0, 64, 64
1, 355, Note_off_c, 0, 63, 64
1, 359, Note_on_c, 0, 58, 45
1, 359, Note_on_c, 0, 77, 45
1, 359, Note_on_c, 0, 82, 42
1, 359, Note_on_c, 0, 86, 27
1, 360, Note_on_c, 0, 92, 18
1, 363, Note_off_c, 0, 86, 64
1, 363, Note_off_c, 0, 92, 64
1, 364, Note_off_c, 0, 77, 64
1, 364, Note_off_c, 0, 82, 64
1, 366, Note_off_c, 0, 58, 64
1, 367, Note_on_c, 0, 58, 48
1, 368, Note_on_c, 0, 77, 54
1, 368, Note_on_c, 0, 86, 50
1, 373, Note_on_c, 0, 92, 11
1, 376, Note_off_c, 0, 86, 64
1, 376, Note_off_c, 0, 92, 64
1, 377, Note_off_c, 0, 58, 64
1, 377, Note_off_c, 0, 77, 64
1, 378, Note_on_c, 0, 60, 30
1, 378, Note_on_c, 0, 61, 48
1, 378, Note_on_c, 0, 62, 54
1, 380, Note_off_c, 0, 60, 64
1, 385, Note_off_c, 0, 61, 64
1, 391, Note_off_c, 0, 62, 64
1, 399, Note_on_c, 0, 78, 12
1, 400, Note_on_c, 0, 70, 47
1, 400, Note_on_c, 0, 77, 30
1, 401, Note_on_c, 0, 58, 57
1, 402, Note_off_c, 0, 78, 64
1, 404, Note_off_c, 0, 77, 64
1, 405, Note_on_c, 0, 60, 33
1, 405, Note_off_c, 0, 70, 64
1, 406, Note_on_c, 0, 57, 39
1, 408, Note_off_c, 0, 57, 64
1, 408, Note_off_c, 0, 60, 64
1, 408, Note_on_c, 0, 77, 17
1, 411, Note_off_c, 0, 58, 64
1, 411, Note_off_c, 0, 77, 64
1, 414, Note_on_c, 0, 60, 46
1, 416, Note_on_c, 0, 59, 52
1, 417, Note_off_c, 0, 60, 64
1, 422, Note_on_c, 0, 68, 37
1, 423, Note_on_c, 0, 56, 43
1, 423, Note_off_c, 0, 59, 64
1, 423, Note_on_c, 0, 69, 34
1, 425, Note_off_c, 0, 56, 64
1, 425, Note_on_c, 0, 57, 43
1, 426, Note_off_c, 0, 68, 64
1, 428, Note_off_c, 0, 69, 64
1, 429, Note_on_c, 0, 58, 30
1, 429, Note_on_c, 0, 59, 24
1, 429, Note_on_c, 0, 60, 30
1, 432, Note_off_c, 0, 60, 64
1, 435, Note_off_c, 0, 57, 64
1, 435, Note_off_c, 0, 59, 64
1, 436, Note_on_c, 0, 57, 33
1, 436, Note_off_c, 0, 58, 64
1, 438, Note_on_c, 0, 53, 29
1, 439, Note_off_c, 0, 57, 64
1, 440, Note_on_c, 0, 55, 24
1, 443, Note_off_c, 0, 55, 64
1, 444, Note_off_c, 0, 53, 64
1, 445, Note_on_c, 0, 54, 29
1, 448, Note_off_c, 0, 54, 64
1, 449, Note_on_c, 0, 52, 35
1, 450, Note_on_c, 0, 71, 11
1, 453, Note_off_c, 0, 71, 64
1, 454, Note_off_c, 0, 52, 64
1, 454, Note_on_c, 0, 58, 45
1, 457, Note_on_c, 0, 57, 46
1, 457, Note_off_c, 0, 58, 64
1, 458, Note_on_c, 0, 58, 33
1, 458, Note_on_c, 0, 60, 33
1, 459, Note_on_c, 0, 56, 49
1, 459, Note_off_c, 0, 57, 64
1, 459, Note_on_c, 0, 59, 42
1, 460, Note_off_c, 0, 58, 64
1, 460, Note_off_c, 0, 60, 64
1, 461, Note_off_c, 0, 59, 64
1, 463, Note_on_c, 0, 51, 30
1, 464, Note_off_c, 0, 56, 64
1, 469, Note_off_c, 0, 51, 64
1, 471, Note_on_c, 0, 57, 40
1, 471, Note_on_c, 0, 76, 34
1, 472, Note_on_c, 0, 81, 32
1, 472, Note_on_c, 0, 85, 21
1, 475, Note_on_c, 0, 56, 46
1, 475, Note_off_c, 0, 57, 64
1, 475, Note_off_c, 0, 85, 64
1, 476, Note_off_c, 0, 76, 64
1, 476, Note_off_c, 0, 81, 64
1, 479, Note_off_c, 0, 56, 64
1, 480, Note_on_c, 0, 63, 30
1, 482, Note_on_c, 0, 51, 30
1, 484, Note_off_c, 0, 63, 64
1, 485, Note_off_c, 0, 51, 64
1, 485, Note_on_c, 0, 63, 30
1, 488, Note_off_c, 0, 63, 64
1, 490, Note_on_c, 0, 53, 24
1, 493, Note_on_c, 0, 54, 22
1, 493, Note_on_c, 0, 55, 33
1, 494, Note_off_c, 0, 53, 64
1, 496, Note_off_c, 0, 54, 64
1, 510, Note_off_c, 0, 55, 64
1, 527, Note_on_c, 0, 63, 58
1, 528, Note_on_c, 0, 86, 34
1, 529, Note_on_c, 0, 62, 61
1, 529, Note_off_c, 0, 63, 64
1, 529, Note_on_c, 0, 81, 23
1, 533, Note_on_c, 0, 61, 53
1, 533, Note_off_c, 0, 62, 64
1, 534, Note_on_c, 0, 62, 33
1, 534, Note_off_c, 0, 81, 64
1, 534, Note_off_c, 0, 86, 64
1, 535, Note_on_c, 0, 60, 38
1, 535, Note_off_c, 0, 61, 64
1, 536, Note_on_c, 0, 61, 55
1, 537, Note_off_c, 0, 62, 64
1, 538, Note_on_c, 0, 62, 35
1, 539, Note_off_c, 0, 60, 64
1, 541, Note_off_c, 0, 62, 64
1, 541, Note_on_c, 0, 74, 19
1, 544, Note_off_c, 0, 74, 64
1, 544, Note_on_c, 0, 100, 21
1, 545, Note_off_c, 0, 61, 64
1, 545, Note_on_c, 0, 99, 14
1, 546, Note_on_c, 0, 61, 58
1, 547, Note_on_c, 0, 62, 53
1, 548, Note_off_c, 0, 61, 64
1, 548, Note_off_c, 0, 99, 64
1, 549, Note_off_c, 0, 62, 64
1, 549, Note_off_c, 0, 100, 64
1, 550, Note_on_c, 0, 68, 58
1, 550, Note_on_c, 0, 80, 66
1, 551, Note_on_c, 0, 79, 70
1, 552, Note_on_c, 0, 67, 61
1, 552, Note_off_c, 0, 68, 64
1, 553, Note_off_c, 0, 80, 64
1, 553, Note_on_c, 0, 86, 34
1, 554, Note_on_c, 0, 78, 58
1, 556, Note_on_c, 0, 66, 47
1, 556, Note_off_c, 0, 78, 64
1, 557, Note_off_c, 0, 79, 64
1, 557, Note_off_c, 0, 86, 64
1, 559, Note_on_c, 0, 64, 65
1, 559, Note_off_c, 0, 67, 64
1, 559, Note_on_c, 0, 99, 21
1, 560, Note_on_c, 0, 65, 50
1, 560, Note_off_c, 0, 66, 64
1, 562, Note_on_c, 0, 63, 55
1, 562, Note_off_c, 0, 65, 64
1, 562, Note_off_c, 0, 99, 64
1, 563, Note_off_c, 0, 64, 64
1, 564, Note_off_c, 0, 63, 64
1, 564, Note_on_c, 0, 64, 68
1, 564, Note_on_c, 0, 76, 82
1, 566, Note_on_c, 0, 95, 42
1, 567, Note_on_c, 0, 83, 41
1, 567, Note_on_c, 0, 92, 43
1, 569, Note_on_c, 0, 91, 49
1, 570, Note_on_c, 0, 75, 42
1, 571, Note_off_c, 0, 92, 64
1, 571, Note_off_c, 0, 95, 64
1, 572, Note_off_c, 0, 75, 64
1, 572, Note_off_c, 0, 91, 64
1, 573, Note_off_c, 0, 83, 64
1, 574, Note_off_c, 0, 64, 64
1, 574, Note_on_c, 0, 68, 46
1, 574, Note_off_c, 0, 76, 64
1, 574, Note_on_c, 0, 79, 74
1, 574, Note_on_c, 0, 80, 50
1, 575, Note_on_c, 0, 67, 35
1, 576, Note_on_c, 0, 66, 52
1, 576, Note_on_c, 0, 78, 70
1, 577, Note_off_c, 0, 67, 64
1, 577, Note_off_c, 0, 68, 64
1, 578, Note_off_c, 0, 66, 64
1, 578, Note_on_c, 0, 67, 50
1, 578, Note_off_c, 0, 78, 64
1, 578, Note_off_c, 0, 80, 64
1, 579, Note_on_c, 0, 78, 74
1, 581, Note_on_c, 0, 85, 64
1, 581, Note_on_c, 0, 86, 70
1, 582, Note_on_c, 0, 66, 36
1, 583, Note_off_c, 0, 67, 64
1, 583, Note_off_c, 0, 79, 64
1, 584, Note_off_c, 0, 66, 64
1, 584, Note_on_c, 0, 79, 70
1, 584, Note_on_c, 0, 94, 49
1, 585, Note_on_c, 0, 66, 45
1, 585, Note_off_c, 0, 79, 64
1, 586, Note_on_c, 0, 67, 50
1, 586, Note_off_c, 0, 86, 64
1, 587, Note_off_c, 0, 85, 64
1, 588, Note_off_c, 0, 78, 64
1, 588, Note_off_c, 0, 94, 64
1, 589, Note_off_c, 0, 66, 64
1, 589, Note_off_c, 0, 67, 64
1, 590, Note_on_c, 0, 79, 42
1, 590, Note_on_c, 0, 85, 47
1, 590, Note_on_c, 0, 86, 60
1, 591, Note_on_c, 0, 76, 30
1, 591, Note_on_c, 0, 77, 30
1, 591, Note_on_c, 0, 78, 53
1, 591, Note_on_c, 0, 82, 36
1, 591, Note_on_c, 0, 83, 35
1, 591, Note_on_c, 0, 84, 44
1, 591, Note_on_c, 0, 87, 43
1, 591, Note_on_c, 0, 88, 34
1, 593, Note_on_c, 0, 66, 31
1, 593, Note_off_c, 0, 79, 64
1, 594, Note_on_c, 0, 67, 47
1, 594, Note_off_c, 0, 86, 64
1, 595, Note_off_c, 0, 76, 64
1, 595, Note_off_c, 0, 77, 64
1, 595, Note_off_c, 0, 82, 64
1, 595, Note_off_c, 0, 83, 64
1, 595, Note_off_c, 0, 84, 64
1, 595, Note_on_c, 0, 86, 26
1, 595, Note_off_c, 0, 87, 64
1, 595, Note_off_c, 0, 88, 64
1, 597, Note_off_c, 0, 66, 64
1, 597, Note_off_c, 0, 78, 64
1, 598, Note_off_c, 0, 67, 64
1, 598, Note_off_c, 0, 86, 64
1, 599, Note_off_c, 0, 85, 64
1, 600, Note_on_c, 0, 64, 81
1, 601, Note_on_c, 0, 87, 27
1, 604, Note_off_c, 0, 87, 64
1, 605, Note_off_c, 0, 64, 64
1, 606, Note_on_c, 0, 67, 42
1, 607, Note_on_c, 0, 63, 60
1, 607, Note_on_c, 0, 64, 54
1, 607, Note_on_c, 0, 65, 37
1, 609, Note_off_c, 0, 67, 64
1, 610, Note_off_c, 0, 65, 64
1, 612, Note_off_c, 0, 64, 64
1, 614, Note_on_c, 0, 62, 37
1, 614, Note_on_c, 0, 74, 51
1, 614, Note_on_c, 0, 81, 37
1, 615, Note_on_c, 0, 73, 62
1, 615, Note_on_c, 0, 80, 52
1, 616, Note_on_c, 0, 61, 49
1, 616, Note_off_c, 0, 62, 64
1, 616, Note_off_c, 0, 63, 64
1, 617, Note_on_c, 0, 62, 58
1, 618, Note_off_c, 0, 61, 64
1, 619, Note_off_c, 0, 73, 64
1, 619, Note_off_c, 0, 80, 64
1, 621, Note_off_c, 0, 74, 64
1, 621, Note_off_c, 0, 81, 64
1, 622, Note_off_c, 0, 62, 64
1, 622, Note_on_c, 0, 64, 57
1, 622, Note_on_c, 0, 65, 52
1, 626, Note_off_c, 0, 65, 64
1, 630, Note_on_c, 0, 74, 46
1, 631, Note_on_c, 0, 61, 32
1, 631, Note_on_c, 0, 62, 32
1, 631, Note_off_c, 0, 64, 64
1, 631, Note_on_c, 0, 73, 39
1, 631, Note_on_c, 0, 80, 12
1, 635, Note_off_c, 0, 80, 64
1, 636, Note_off_c, 0, 61, 64
1, 636, Note_off_c, 0, 73, 64
1, 638, Note_on_c, 0, 73, 31
1, 640, Note_off_c, 0, 73, 64
1, 642, Note_off_c, 0, 62, 64
1, 643, Note_off_c, 0, 74, 64
1, 653, Note_on_c, 0, 61, 50
1, 655, Note_off_c, 0, 61, 64
1, 656, Note_on_c, 0, 59, 60
1, 662, Note_on_c, 0, 57, 31
1, 662, Note_off_c, 0, 59, 64
1, 664, Note_on_c, 0, 59, 52
1, 666, Note_on_c, 0, 71, 61
1, 667, Note_on_c, 0, 58, 41
1, 668, Note_off_c, 0, 57, 64
1, 669, Note_on_c, 0, 78, 26
1, 670, Note_off_c, 0, 58, 64
1, 671, Note_on_c, 0, 97, 12
1, 673, Note_on_c, 0, 58, 40
1, 674, Note_off_c, 0, 59, 64
1, 674, Note_off_c, 0, 78, 64
1, 674, Note_off_c, 0, 97, 64
1, 675, Note_off_c, 0, 71, 64
1, 676, Note_off_c, 0, 58, 64
1, 678, Note_on_c, 0, 62, 53
1, 678, Note_on_c, 0, 63, 42
1, 679, Note_on_c, 0, 61, 53
1, 680, Note_off_c, 0, 63, 64
1, 681, Note_off_c, 0, 61, 64
1, 683, Note_on_c, 0, 60, 31
1, 685, Note_off_c, 0, 62, 64
1, 685, Note_on_c, 0, 63, 68
1, 685, Note_on_c, 0, 76, 75
1, 686, Note_off_c, 0, 60, 64
1, 686, Note_on_c, 0, 83, 67
1, 686, Note_on_c, 0, 87, 49
1, 687, Note_on_c, 0, 75, 71
1, 687, Note_on_c, 0, 82, 71
1, 688, Note_off_c, 0, 83, 64
1, 689, Note_off_c, 0, 76, 64
1, 690, Note_on_c, 0, 83, 53
1, 691, Note_on_c, 0, 64, 74
1, 691, Note_off_c, 0, 87, 64
1, 692, Note_off_c, 0, 75, 64
1, 692, Note_off_c, 0, 82, 64
1, 693, Note_off_c, 0, 83, 64
1, 694, Note_off_c, 0, 63, 64
1, 700, Note_on_c, 0, 63, 61
1, 700, Note_off_c, 0, 64, 64
1, 701, Note_on_c, 0, 83, 51
1, 702, Note_on_c, 0, 82, 63
1, 702, Note_on_c, 0, 86, 40
1, 702, Note_on_c, 0, 87, 49
1, 703, Note_on_c, 0, 61, 29
1, 703, Note_on_c, 0, 72, 30
1, 703, Note_on_c, 0, 79, 42
1, 703, Note_on_c, 0, 80, 34
1, 703, Note_off_c, 0, 83, 64
1, 703, Note_on_c, 0, 85, 38
1, 704, Note_on_c, 0, 73, 29
1, 704, Note_on_c, 0, 74, 31
1, 704, Note_on_c, 0, 76, 73
1, 704, Note_on_c, 0, 81, 32
1, 705, Note_off_c, 0, 61, 64
1, 705, Note_on_c, 0, 64, 47
1, 705, Note_on_c, 0, 83, 66
1, 705, Note_off_c, 0, 87, 64
1, 706, Note_off_c, 0, 72, 64
1, 706, Note_off_c, 0, 73, 64
1, 706, Note_off_c, 0, 74, 64
1, 706, Note_off_c, 0, 79, 64
1, 706, Note_off_c, 0, 80, 64
1, 706, Note_off_c, 0, 81, 64
1, 706, Note_off_c, 0, 85, 64
1, 706, Note_off_c, 0, 86, 64
1, 708, Note_off_c, 0, 63, 64
1, 709, Note_off_c, 0, 82, 64
1, 712, Note_on_c, 0, 67, 36
1, 712, Note_on_c, 0, 79, 83
1, 712, Note_on_c, 0, 86, 73
1, 713, Note_off_c, 0, 64, 64
1, 713, Note_off_c, 0, 76, 64
1, 713, Note_off_c, 0, 83, 64
1, 715, Note_on_c, 0, 78, 57
1, 715, Note_on_c, 0, 85, 45
1, 716, Note_on_c, 0, 83, 52
1, 716, Note_on_c, 0, 84, 34
1, 717, Note_on_c, 0, 64, 39
1, 717, Note_off_c, 0, 67, 64
1, 717, Note_on_c, 0, 76, 70
1, 717, Note_on_c, 0, 77, 50
1, 717, Note_off_c, 0, 79, 64
1, 718, Note_off_c, 0, 78, 64
1, 718, Note_off_c, 0, 85, 64
1, 718, Note_off_c, 0, 86, 64
1, 719, Note_off_c, 0, 77, 64
1, 719, Note_off_c, 0, 84, 64
1, 721, Note_off_c, 0, 64, 64
1, 721, Note_on_c, 0, 75, 71
1, 721, Note_on_c, 0, 82, 58
1, 721, Note_off_c, 0, 83, 64
1, 722, Note_on_c, 0, 64, 45
1, 722, Note_off_c, 0, 76, 64
1, 722, Note_on_c, 0, 83, 57
1, 723, Note_on_c, 0, 65, 44
1, 723, Note_off_c, 0, 75, 64
1, 723, Note_on_c, 0, 76, 62
1, 723, Note_off_c, 0, 82, 64
1, 724, Note_off_c, 0, 64, 64
1, 724, Note_on_c, 0, 67, 63
1, 724, Note_on_c, 0, 68, 41
1, 724, Note_on_c, 0, 87, 13
1, 725, Note_off_c, 0, 76, 64
1, 725, Note_off_c, 0, 83, 64
1, 726, Note_off_c, 0, 65, 64
1, 727, Note_off_c, 0, 68, 64
1, 727, Note_on_c, 0, 86, 24
1, 727, Note_off_c, 0, 87, 64
1, 730, Note_on_c, 0, 65, 20
1, 731, Note_off_c, 0, 86, 64
1, 732, Note_on_c, 0, 78, 43
1, 732, Note_on_c, 0, 86, 40
1, 733, Note_off_c, 0, 67, 64
1, 733, Note_on_c, 0, 76, 44
1, 733, Note_on_c, 0, 77, 35
1, 733, Note_on_c, 0, 83, 50
1, 733, Note_on_c, 0, 84, 43
1, 733, Note_on_c, 0, 85, 37
1, 734, Note_on_c, 0, 64, 74
1, 735, Note_on_c, 0, 63, 35
1, 735, Note_on_c, 0, 75, 35
1, 735, Note_off_c, 0, 78, 64
1, 735, Note_off_c, 0, 86, 64
1, 736, Note_off_c, 0, 65, 64
1, 736, Note_off_c, 0, 77, 64
1, 736, Note_on_c, 0, 82, 33
1, 736, Note_off_c, 0, 84, 64
1, 736, Note_off_c, 0, 85, 64
1, 737, Note_off_c, 0, 63, 64
1, 738, Note_off_c, 0, 75, 64
1, 738, Note_off_c, 0, 82, 64
1, 738, Note_off_c, 0, 83, 64
1, 747, Note_off_c, 0, 64, 64
1, 747, Note_off_c, 0, 76, 64
1, 748, Note_on_c, 0, 65, 54
1, 749, Note_on_c, 0, 63, 55
1, 750, Note_on_c, 0, 64, 58
1, 751, Note_off_c, 0, 65, 64
1, 755, Note_off_c, 0, 63, 64
1, 756, Note_on_c, 0, 58, 58
1, 756, Note_on_c, 0, 62, 35
1, 756, Note_on_c, 0, 63, 38
1, 757, Note_off_c, 0, 64, 64
1, 757, Note_on_c, 0, 71, 28
1, 758, Note_off_c, 0, 62, 64
1, 758, Note_off_c, 0, 63, 64
1, 759, Note_off_c, 0, 58, 64
1, 759, Note_on_c, 0, 59, 58
1, 760, Note_on_c, 0, 87, 10
1, 763, Note_off_c, 0, 87, 64
1, 764, Note_on_c, 0, 61, 38
1, 765, Note_off_c, 0, 59, 64
1, 765, Note_on_c, 0, 62, 37
1, 765, Note_off_c, 0, 71, 64
1, 768, Note_off_c, 0, 62, 64
1, 768, Note_on_c, 0, 81, 34
1, 769, Note_off_c, 0, 61, 64
1, 769, Note_on_c, 0, 80, 15
1, 771, Note_on_c, 0, 62, 37
1, 771, Note_on_c, 0, 74, 40
1, 772, Note_off_c, 0, 80, 64
1, 773, Note_on_c, 0, 61, 34
1, 773, Note_off_c, 0, 62, 64
1, 773, Note_on_c, 0, 73, 47
1, 773, Note_off_c, 0, 74, 64
1, 773, Note_on_c, 0, 80, 29
1, 775, Note_off_c, 0, 61, 64
1, 775, Note_on_c, 0, 62, 33
1, 775, Note_on_c, 0, 74, 37
1, 775, Note_off_c, 0, 80, 64
1, 775, Note_on_c, 0, 90, 15
1, 776, Note_off_c, 0, 73, 64
1, 781, Note_off_c, 0, 90, 64
1, 784, Note_off_c, 0, 81, 64
1, 785, Note_off_c, 0, 62, 64
1, 786, Note_on_c, 0, 62, 23
1, 788, Note_off_c, 0, 74, 64
1, 789, Note_off_c, 0, 62, 64
1, 806, Note_on_c, 0, 76, 36
1, 806, Note_on_c, 0, 77, 37
1, 807, Note_on_c, 0, 63, 64
1, 808, Note_off_c, 0, 77, 64
1, 809, Note_off_c, 0, 76, 64
1, 810, Note_on_c, 0, 62, 59
1, 810, Note_on_c, 0, 81, 16
1, 811, Note_off_c, 0, 63, 64
1, 818, Note_on_c, 0, 61, 50
1, 818, Note_off_c, 0, 62, 64
1, 818, Note_on_c, 0, 80, 28
1, 818, Note_off_c, 0, 81, 64
1, 820, Note_on_c, 0, 57, 22
1, 820, Note_on_c, 0, 72, 35
1, 821, Note_off_c, 0, 61, 64
1, 821, Note_off_c, 0, 80, 64
1, 822, Note_on_c, 0, 58, 30
1, 822, Note_on_c, 0, 70, 51
1, 822, Note_off_c, 0, 72, 64
1, 823, Note_off_c, 0, 57, 64
1, 823, Note_on_c, 0, 59, 44
1, 824, Note_off_c, 0, 58, 64
1, 825, Note_off_c, 0, 59, 64
1, 826, Note_on_c, 0, 59, 48
1, 826, Note_on_c, 0, 78, 23
1, 827, Note_off_c, 0, 70, 64
1, 827, Note_on_c, 0, 71, 49
1, 830, Note_off_c, 0, 78, 64
1, 831, Note_off_c, 0, 59, 64
1, 831, Note_on_c, 0, 61, 38
1, 831, Note_on_c, 0, 62, 34
1, 832, Note_off_c, 0, 71, 64
1, 833, Note_off_c, 0, 62, 64
1, 833, Note_on_c, 0, 74, 15
1, 834, Note_on_c, 0, 62, 38
1, 836, Note_on_c, 0, 60, 39
1, 836, Note_off_c, 0, 61, 64
1, 836, Note_off_c, 0, 74, 64
1, 837, Note_on_c, 0, 63, 38
1, 838, Note_on_c, 0, 61, 39
1, 838, Note_off_c, 0, 62, 64
1, 838, Note_on_c, 0, 80, 27
1, 839, Note_off_c, 0, 60, 64
1, 839, Note_on_c, 0, 62, 71
1, 839, Note_on_c, 0, 81, 27
1, 840, Note_off_c, 0, 63, 64
1, 842, Note_off_c, 0, 61, 64
1, 843, Note_off_c, 0, 80, 64
1, 844, Note_off_c, 0, 81, 64
1, 848, Note_on_c, 0, 81, 20
1, 852, Note_off_c, 0, 81, 64
1, 853, Note_off_c, 0, 62, 64
1, 854, Note_on_c, 0, 64, 72
1, 856, Note_on_c, 0, 98, 16
1, 856, Note_on_c, 0, 100, 45
1, 859, Note_off_c, 0, 98, 64
1, 860, Note_on_c, 0, 63, 30
1, 860, Note_off_c, 0, 100, 64
1, 861, Note_on_c, 0, 62, 64
1, 861, Note_on_c, 0, 74, 65
1, 862, Note_off_c, 0, 64, 64
1, 862, Note_on_c, 0, 81, 52
1, 864, Note_off_c, 0, 63, 64
1, 867, Note_off_c, 0, 74, 64
1, 868, Note_off_c, 0, 81, 64
1, 871, Note_on_c, 0, 63, 37
1, 872, Note_off_c, 0, 62, 64
1, 872, Note_on_c, 0, 64, 56
1, 873, Note_off_c, 0, 63, 64
1, 876, Note_on_c, 0, 57, 36
1, 876, Note_on_c, 0, 81, 38
1, 876, Note_on_c, 0, 85, 46
1, 876, Note_on_c, 0, 88, 42
1, 877, Note_off_c, 0, 64, 64
1, 877, Note_on_c, 0, 77, 45
1, 877, Note_on_c, 0, 82, 52
1, 877, Note_on_c, 0, 91, 30
1, 878, Note_on_c, 0, 86, 51
1, 878, Note_on_c, 0, 89, 48
1, 879, Note_off_c, 0, 57, 64
1, 879, Note_on_c, 0, 58, 38
1, 879, Note_on_c, 0, 92, 28
1, 880, Note_off_c, 0, 81, 64
1, 880, Note_off_c, 0, 85, 64
1, 880, Note_off_c, 0, 88, 64
1, 880, Note_off_c, 0, 91, 64
1, 883, Note_off_c, 0, 86, 64
1, 883, Note_off_c, 0, 89, 64
1, 883, Note_off_c, 0, 92, 64
1, 884, Note_off_c, 0, 58, 64
1, 884, Note_off_c, 0, 77, 64
1, 884, Note_off_c, 0, 82, 64
1, 886, Note_on_c, 0, 62, 46
1, 897, Note_on_c, 0, 61, 33
1, 897, Note_off_c, 0, 62, 64
1, 898, Note_on_c, 0, 62, 30
1, 902, Note_off_c, 0, 62, 64
1, 903, Note_on_c, 0, 62, 39
1, 904, Note_off_c, 0, 61, 64
1, 906, Note_off_c, 0, 62, 64
1, 914, Note_on_c, 0, 63, 29
1, 915, Note_on_c, 0, 51, 29
1, 917, Note_off_c, 0, 51, 64
1, 918, Note_on_c, 0, 51, 29
1, 925, Note_on_c, 0, 53, 25
1, 926, Note_on_c, 0, 52, 17
1, 927, Note_off_c, 0, 51, 64
1, 927, Note_off_c, 0, 63, 64
1, 929, Note_off_c, 0, 52, 64
1, 929, Note_off_c, 0, 53, 64
1, 937, Note_on_c, 0, 55, 44
1, 937, Note_on_c, 0, 66, 26
1, 939, Note_on_c, 0, 56, 45
1, 940, Note_off_c, 0, 55, 64
1, 941, Note_off_c, 0, 56, 64
1, 942, Note_on_c, 0, 54, 43
1, 944, Note_off_c, 0, 54, 64
1, 944, Note_on_c, 0, 55, 31
1, 944, Note_off_c, 0, 66, 64
1, 944, Note_on_c, 0, 68, 32
1, 945, Note_on_c, 0, 57, 40
1, 945, Note_on_c, 0, 75, 47
1, 945, Note_on_c, 0, 76, 38
1, 945, Note_on_c, 0, 80, 37
1, 946, Note_off_c, 0, 55, 64
1, 947, Note_on_c, 0, 56, 44
1, 947, Note_off_c, 0, 57, 64
1, 947, Note_off_c, 0, 76, 64
1, 949, Note_on_c, 0, 57, 41
1, 949, Note_off_c, 0, 80, 64
1, 950, Note_off_c, 0, 56, 64
1, 950, Note_off_c, 0, 68, 64
1, 950, Note_off_c, 0, 75, 64
1, 952, Note_on_c, 0, 56, 42
1, 952, Note_off_c, 0, 57, 64
1, 952, Note_on_c, 0, 58, 39
1, 954, Note_off_c, 0, 58, 64
1, 955, Note_off_c, 0, 56, 64
1, 955, Note_on_c, 0, 68, 13
1, 956, Note_on_c, 0, 56, 46
1, 958, Note_off_c, 0, 56, 64
1, 958, Note_on_c, 0, 57, 35
1, 959, Note_off_c, 0, 68, 64
1, 960, Note_off_c, 0, 57, 64
1, 960, Note_on_c, 0, 63, 56
1, 963, Note_on_c, 0, 81, 30
1, 964, Note_on_c, 0, 62, 55
1, 964, Note_off_c, 0, 63, 64
1, 965, Note_on_c, 0, 80, 12
1, 966, Note_on_c, 0, 60, 40
1, 967, Note_on_c, 0, 61, 36
1, 967, Note_on_c, 0, 63, 39
1, 968, Note_off_c, 0, 60, 64
1, 969, Note_off_c, 0, 63, 64
1, 969, Note_off_c, 0, 81, 64
1, 970, Note_off_c, 0, 61, 64
1, 970, Note_off_c, 0, 80, 64
1, 972, Note_on_c, 0, 100, 14
1, 975, Note_off_c, 0, 100, 64
1, 976, Note_off_c, 0, 62, 64
1, 977, Note_on_c, 0, 64, 24
1, 977, Note_on_c, 0, 65, 36
1, 978, Note_on_c, 0, 62, 43
1, 978, Note_on_c, 0, 63, 41
1, 979, Note_on_c, 0, 60, 41
1, 980, Note_off_c, 0, 64, 64
1, 980, Note_off_c, 0, 65, 64
1, 981, Note_off_c, 0, 60, 64
1, 983, Note_off_c, 0, 63, 64
1, 984, Note_on_c, 0, 73, 44
1, 986, Note_off_c, 0, 62, 64
1, 986, Note_off_c, 0, 73, 64
1, 986, Note_on_c, 0, 78, 35
1, 988, Note_on_c, 0, 58, 50
1, 988, Note_on_c, 0, 70, 55
1, 988, Note_on_c, 0, 77, 48
1, 988, Note_off_c, 0, 78, 64
1, 988, Note_on_c, 0, 86, 28
1, 992, Note_off_c, 0, 58, 64
1, 992, Note_off_c, 0, 70, 64
1, 992, Note_off_c, 0, 77, 64
1, 992, Note_off_c, 0, 86, 64
1, 993, Note_on_c, 0, 59, 20
1, 994, Note_on_c, 0, 60, 34
1, 995, Note_on_c, 0, 57, 32
1, 996, Note_off_c, 0, 59, 64
1, 997, Note_off_c, 0, 60, 64
1, 998, Note_on_c, 0, 56, 31
1, 998, Note_off_c, 0, 57, 64
1, 1001, Note_on_c, 0, 63, 19
1, 1002, Note_on_c, 0, 51, 22
1, 1002, Note_off_c, 0, 56, 64
1, 1002, Note_on_c, 0, 64, 12
1, 1005, Note_off_c, 0, 64, 64
1, 1006, Note_off_c, 0, 51, 64
1, 1006, Note_off_c, 0, 63, 64
1, 1010, Note_on_c, 0, 57, 12
1, 1011, Note_on_c, 0, 58, 25
1, 1013, Note_off_c, 0, 57, 64
1, 1014, Note_off_c, 0, 58, 64
1, 1015, Note_on_c, 0, 57, 31
1, 1018, Note_on_c, 0, 54, 26
1, 1018, Note_off_c, 0, 57, 64
1, 1022, Note_off_c, 0, 54, 64
1, 1022, Note_on_c, 0, 55, 23
1, 1023, Note_on_c, 0, 54, 21
1, 1026, Note_off_c, 0, 54, 64
1, 1031, Note_off_c, 0, 55, 64
1, 1031, End_track
0, 0, End_of_file
