0, 0, Header, 0, 1, 43
1, 0, Start_track
1, 0, Tempo, 500000
1, 0, Program_c, 0, 0
1, 0, Note_on_c, 0, 64, 69
1, 2, Note_on_c, 0, 100, 46
1, 8, Note_on_c, 0, 95, 11
1, 12, Note_on_c, 0, 102, 19
1, 15, Note_off_c, 0, 95, 64
1, 17, Note_on_c, 0, 63, 65
1, 17, Note_off_c, 0, 64, 64
1, 17, Note_off_c, 0, 100, 64
1, 19, Note_off_c, 0, 63, 64
1, 19, Note_off_c, 0, 102, 64
1, 20, Note_on_c, 0, 61, 71
1, 24, Note_off_c, 0, 61, 64
1, 24, Note_on_c, 0, 62, 72
1, 25, Note_off_c, 0, 62, 64
1, 25, Note_on_c, 0, 63, 72
1, 26, Note_off_c, 0, 63, 64
1, 26, Note_on_c, 0, 64, 77
1, 29, Note_on_c, 0, 87, 30
1, 30, Note_on_c, 0, 63, 83
1, 30, Note_off_c, 0, 64, 64
1, 31, Note_on_c, 0, 82, 17
1, 35, Note_off_c, 0, 63, 64
1, 35, Note_on_c, 0, 64, 84
1, 35, Note_off_c, 0, 82, 64
1, 35, Note_on_c, 0, 83, 17
1, 35, Note_off_c, 0, 87, 64
1, 35, Note_on_c, 0, 88, 21
1, 40, Note_off_c, 0, 88, 64
1, 41, Note_on_c, 0, 63, 85
1, 41, Note_off_c, 0, 64, 64
1, 42, Note_off_c, 0, 63, 64
1, 42, Note_on_c, 0, 64, 85
1, 42, Note_on_c, 0, 88, 24
1, 47, Note_on_c, 0, 63, 85
1, 47, Note_off_c, 0, 64, 64
1, 47, Note_on_c, 0, 87, 34
1, 47, Note_off_c, 0, 88, 64
1, 48, Note_off_c, 0, 83, 64
1, 49, Note_on_c, 0, 82, 14
1, 57, Note_off_c, 0, 82, 64
1, 61, Note_on_c, 0, 62, 71
1, 61, Note_off_c, 0, 63, 64
1, 61, Note_off_c, 0, 87, 64
1, 62, Note_on_c, 0, 60, 68
1, 62, Note_off_c, 0, 62, 64
1, 63, Note_on_c, 0, 71, 27
1, 64, Note_on_c, 0, 59, 59
1, 64, Note_off_c, 0, 60, 64
1, 65, Note_on_c, 0, 101, 11
1, 66, Note_off_c, 0, 71, 64
1, 67, Note_off_c, 0, 59, 64
1, 68, Note_on_c, 0, 62, 55
1, 68, Note_off_c, 0, 101, 64
1, 69, Note_on_c, 0, 99, 21
1, 70, Note_off_c, 0, 62, 64
1, 70, Note_on_c, 0, 63, 54
1, 72, Note_off_c, 0, 63, 64
1, 72, Note_off_c, 0, 99, 64
1, 73, Note_on_c, 0, 61, 49
1, 73, Note_on_c, 0, 73, 59
1, 74, Note_on_c, 0, 79, 42
1, 74, Note_on_c, 0, 84, 26
1, 74, Note_on_c, 0, 88, 36
1, 75, Note_on_c, 0, 60, 51
1, 75, Note_off_c, 0, 61, 64
1, 76, Note_off_c, 0, 73, 64
1, 77, Note_on_c, 0, 73, 44
1, 77, Note_off_c, 0, 79, 64
1, 77, Note_on_c, 0, 80, 50
1, 77, Note_off_c, 0, 84, 64
1, 78, Note_off_c, 0, 60, 64
1, 78, Note_on_c, 0, 61, 45
1, 78, Note_off_c, 0, 88, 64
1, 78, Note_on_c, 0, 89, 47
1, 80, Note_off_c, 0, 61, 64
1, 80, Note_on_c, 0, 62, 41
1, 80, Note_off_c, 0, 73, 64
1, 80, Note_on_c, 0, 74, 46
1, 80, Note_off_c, 0, 80, 64
1, 80, Note_on_c, 0, 81, 54
1, 82, Note_on_c, 0, 61, 42
1, 82, Note_off_c, 0, 62, 64
1, 82, Note_on_c, 0, 73, 48
1, 82, Note_off_c, 0, 74, 64
1, 82, Note_on_c, 0, 80, 57
1, 82, Note_off_c, 0, 81, 64
1, 87, Note_off_c, 0, 89, 64
1, 89, Note_off_c, 0, 61, 64
1, 89, Note_on_c, 0, 62, 62
1, 89, Note_off_c, 0, 73, 64
1, 89, Note_off_c, 0, 80, 64
1, 89, Note_on_c, 0, 81, 58
1, 126, Note_on_c, 0, 61, 53
1, 126, Note_off_c, 0, 62, 64
1, 127, Note_off_c, 0, 81, 64
1, 129, Note_off_c, 0, 61, 64
1, 134, Note_on_c, 0, 83, 67
1, 134, Note_on_c, 0, 88, 75
1, 134, Note_on_c, 0, 91, 44
1, 135, Note_on_c, 0, 64, 47
1, 135, Note_on_c, 0, 76, 63
1, 135, Note_on_c, 0, 102, 41
1, 137, Note_off_c, 0, 91, 64
1, 137, Note_on_c, 0, 92, 67
1, 137, Note_on_c, 0, 97, 18
1, 141, Note_on_c, 0, 63, 52
1, 141, Note_off_c, 0, 64, 64
1, 141, Note_off_c, 0, 76, 64
1, 141, Note_on_c, 0, 82, 62
1, 141, Note_off_c, 0, 83, 64
1, 141, Note_on_c, 0, 87, 82
1, 141, Note_off_c, 0, 88, 64
1, 141, Note_on_c, 0, 91, 63
1, 141, Note_off_c, 0, 92, 64
1, 141, Note_on_c, 0, 101, 26
1, 141, Note_off_c, 0, 102, 64
1, 142, Note_off_c, 0, 97, 64
1, 148, Note_off_c, 0, 101, 64
1, 149, Note_on_c, 0, 76, 41
1, 149, Note_off_c, 0, 82, 64
1, 149, Note_on_c, 0, 83, 49
1, 149, Note_off_c, 0, 87, 64
1, 149, Note_on_c, 0, 88, 69
1, 150, Note_off_c, 0, 63, 64
1, 151, Note_on_c, 0, 63, 58
1, 151, Note_on_c, 0, 82, 33
1, 151, Note_off_c, 0, 83, 64
1, 152, Note_off_c, 0, 76, 64
1, 152, Note_off_c, 0, 91, 64
1, 154, Note_off_c, 0, 88, 64
1, 155, Note_on_c, 0, 81, 32
1, 155, Note_off_c, 0, 82, 64
1, 156, Note_on_c, 0, 62, 60
1, 156, Note_off_c, 0, 63, 64
1, 161, Note_off_c, 0, 62, 64
1, 161, Note_off_c, 0, 81, 64
1, 162, Note_on_c, 0, 64, 72
1, 165, Note_on_c, 0, 82, 26
1, 165, Note_on_c, 0, 87, 16
1, 166, Note_on_c, 0, 63, 74
1, 166, Note_off_c, 0, 64, 64
1, 168, Note_off_c, 0, 82, 64
1, 168, Note_off_c, 0, 87, 64
1, 170, Note_on_c, 0, 76, 30
1, 171, Note_off_c, 0, 63, 64
1, 171, Note_on_c, 0, 64, 79
1, 177, Note_on_c, 0, 75, 13
1, 177, Note_off_c, 0, 76, 64
1, 178, Note_on_c, 0, 63, 81
1, 178, Note_off_c, 0, 64, 64
1, 180, Note_off_c, 0, 75, 64
1, 180, Note_on_c, 0, 76, 37
1, 181, Note_off_c, 0, 63, 64
1, 181, Note_on_c, 0, 64, 81
1, 188, Note_on_c, 0, 83, 19
1, 197, Note_off_c, 0, 83, 64
1, 198, Note_off_c, 0, 76, 64
1, 199, Note_on_c, 0, 63, 48
1, 199, Note_off_c, 0, 64, 64
1, 202, Note_off_c, 0, 63, 64
1, 208, Note_on_c, 0, 63, 68
1, 209, Note_off_c, 0, 63, 64
1, 209, Note_on_c, 0, 64, 77
1, 209, Note_on_c, 0, 100, 33
1, 209, Note_on_c, 0, 102, 43
1, 211, Note_on_c, 0, 95, 11
1, 218, Note_off_c, 0, 95, 64
1, 237, Note_off_c, 0, 102, 64
1, 238, Note_off_c, 0, 100, 64
1, 239, Note_off_c, 0, 64, 64
1, 241, Note_on_c, 0, 80, 37
1, 242, Note_on_c, 0, 68, 68
1, 244, Note_on_c, 0, 67, 63
1, 244, Note_off_c, 0, 68, 64
1, 244, Note_off_c, 0, 80, 64
1, 245, Note_on_c, 0, 78, 47
1, 246, Note_on_c, 0, 66, 66
1, 246, Note_off_c, 0, 67, 64
1, 248, Note_on_c, 0, 85, 42
1, 250, Note_off_c, 0, 66, 64
1, 250, Note_on_c, 0, 67, 64
1, 250, Note_off_c, 0, 78, 64
1, 250, Note_off_c, 0, 85, 64
1, 250, Note_on_c, 0, 86, 72
1, 266, Note_on_c, 0, 66, 43
1, 266, Note_off_c, 0, 67, 64
1, 266, Note_on_c, 0, 85, 27
1, 266, Note_off_c, 0, 86, 64
1, 269, Note_off_c, 0, 66, 64
1, 269, Note_off_c, 0, 85, 64
1, 278, Note_on_c, 0, 60, 62
1, 283, Note_on_c, 0, 103, 9
1, 284, Note_on_c, 0, 102, 11
1, 285, Note_off_c, 0, 60, 64
1, 286, Note_on_c, 0, 58, 53
1, 286, Note_off_c, 0, 103, 64
1, 287, Note_off_c, 0, 102, 64
1, 288, Note_on_c, 0, 57, 51
1, 288, Note_off_c, 0, 58, 64
1, 290, Note_off_c, 0, 57, 64
1, 290, Note_on_c, 0, 58, 48
1, 292, Note_off_c, 0, 58, 64
1, 292, Note_on_c, 0, 59, 46
1, 294, Note_off_c, 0, 59, 64
1, 294, Note_on_c, 0, 60, 47
1, 296, Note_on_c, 0, 59, 43
1, 296, Note_off_c, 0, 60, 64
1, 298, Note_on_c, 0, 58, 39
1, 298, Note_off_c, 0, 59, 64
1, 322, Note_on_c, 0, 57, 27
1, 322, Note_off_c, 0, 58, 64
1, 323, Note_on_c, 0, 76, 15
1, 328, Note_off_c, 0, 57, 64
1, 328, Note_on_c, 0, 58, 29
1, 328, Note_off_c, 0, 76, 64
1, 329, Note_on_c, 0, 78, 17
1, 330, Note_off_c, 0, 58, 64
1, 332, Note_off_c, 0, 78, 64
1, 335, Note_on_c, 0, 80, 34
1, 335, Note_on_c, 0, 84, 41
1, 336, Note_on_c, 0, 56, 41
1, 338, Note_off_c, 0, 56, 64
1, 338, Note_off_c, 0, 80, 64
1, 338, Note_off_c, 0, 84, 64
1, 339, Note_on_c, 0, 58, 40
1, 340, Note_on_c, 0, 71, 20
1, 340, Note_on_c, 0, 78, 43
1, 340, Note_on_c, 0, 83, 55
1, 340, Note_on_c, 0, 87, 44
1, 341, Note_off_c, 0, 58, 64
1, 341, Note_on_c, 0, 59, 40
1, 341, Note_on_c, 0, 93, 20
1, 345, Note_on_c, 0, 92, 42
1, 345, Note_off_c, 0, 93, 64
1, 346, Note_on_c, 0, 58, 47
1, 346, Note_off_c, 0, 59, 64
1, 346, Note_off_c, 0, 71, 64
1, 346, Note_on_c, 0, 77, 50
1, 346, Note_off_c, 0, 78, 64
1, 346, Note_on_c, 0, 82, 53
1, 346, Note_off_c, 0, 83, 64
1, 346, Note_on_c, 0, 86, 60
1, 346, Note_off_c, 0, 87, 64
1, 351, Note_off_c, 0, 58, 64
1, 351, Note_on_c, 0, 59, 44
1, 351, Note_off_c, 0, 77, 64
1, 351, Note_on_c, 0, 78, 53
1, 351, Note_off_c, 0, 82, 64
1, 351, Note_on_c, 0, 83, 62
1, 351, Note_off_c, 0, 86, 64
1, 351, Note_on_c, 0, 87, 54
1, 351, Note_off_c, 0, 92, 64
1, 351, Note_on_c, 0, 93, 41
1, 356, Note_on_c, 0, 92, 41
1, 356, Note_off_c, 0, 93, 64
1, 357, Note_on_c, 0, 58, 45
1, 357, Note_off_c, 0, 59, 64
1, 357, Note_on_c, 0, 82, 55
1, 357, Note_off_c, 0, 83, 64
1, 357, Note_on_c, 0, 86, 56
1, 357, Note_off_c, 0, 87, 64
1, 358, Note_on_c, 0, 77, 53
1, 358, Note_off_c, 0, 78, 64
1, 364, Note_on_c, 0, 90, 36
1, 365, Note_off_c, 0, 58, 64
1, 365, Note_off_c, 0, 77, 64
1, 365, Note_off_c, 0, 82, 64
1, 366, Note_on_c, 0, 58, 43
1, 366, Note_on_c, 0, 77, 53
1, 366, Note_on_c, 0, 82, 54
1, 367, Note_off_c, 0, 90, 64
1, 373, Note_off_c, 0, 77, 64
1, 373, Note_off_c, 0, 82, 64
1, 373, Note_off_c, 0, 86, 64
1, 373, Note_off_c, 0, 92, 64
1, 374, Note_off_c, 0, 58, 64
1, 386, Note_on_c, 0, 64, 50
1, 386, Note_on_c, 0, 73, 25
1, 386, Note_on_c, 0, 76, 74
1, 386, Note_on_c, 0, 87, 81
1, 387, Note_on_c, 0, 82, 64
1, 388, Note_on_c, 0, 63, 56
1, 388, Note_off_c, 0, 64, 64
1, 389, Note_off_c, 0, 73, 64
1, 389, Note_on_c, 0, 75, 78
1, 389, Note_off_c, 0, 76, 64
1, 389, Note_on_c, 0, 91, 13
1, 393, Note_off_c, 0, 63, 64
1, 393, Note_on_c, 0, 64, 67
1, 393, Note_off_c, 0, 75, 64
1, 393, Note_on_c, 0, 76, 73
1, 393, Note_off_c, 0, 82, 64
1, 393, Note_on_c, 0, 83, 63
1, 393, Note_off_c, 0, 87, 64
1, 393, Note_off_c, 0, 91, 64
1, 398, Note_on_c, 0, 63, 67
1, 398, Note_off_c, 0, 64, 64
1, 398, Note_off_c, 0, 76, 64
1, 398, Note_on_c, 0, 82, 30
1, 398, Note_off_c, 0, 83, 64
1, 400, Note_off_c, 0, 82, 64
1, 402, Note_off_c, 0, 63, 64
1, 402, Note_on_c, 0, 65, 69
1, 403, Note_off_c, 0, 65, 64
1, 403, Note_on_c, 0, 66, 65
1, 405, Note_off_c, 0, 66, 64
1, 406, Note_on_c, 0, 66, 70
1, 407, Note_on_c, 0, 65, 79
1, 407, Note_off_c, 0, 66, 64
1, 408, Note_on_c, 0, 64, 83
1, 408, Note_off_c, 0, 65, 64
1, 410, Note_on_c, 0, 63, 83
1, 410, Note_off_c, 0, 64, 64
1, 410, Note_on_c, 0, 88, 16
1, 411, Note_off_c, 0, 63, 64
1, 411, Note_on_c, 0, 64, 83
1, 413, Note_off_c, 0, 88, 64
1, 416, Note_on_c, 0, 63, 42
1, 416, Note_off_c, 0, 64, 64
1, 420, Note_off_c, 0, 63, 64
1, 425, Note_on_c, 0, 66, 57
1, 429, Note_on_c, 0, 65, 62
1, 429, Note_off_c, 0, 66, 64
1, 430, Note_on_c, 0, 102, 24
1, 431, Note_on_c, 0, 64, 70
1, 431, Note_off_c, 0, 65, 64
1, 437, Note_off_c, 0, 102, 64
1, 438, Note_off_c, 0, 64, 64
1, 439, Note_on_c, 0, 64, 62
1, 442, Note_on_c, 0, 101, 14
1, 443, Note_on_c, 0, 63, 61
1, 443, Note_off_c, 0, 64, 64
1, 445, Note_off_c, 0, 63, 64
1, 445, Note_on_c, 0, 64, 62
1, 445, Note_off_c, 0, 101, 64
1, 454, Note_on_c, 0, 75, 42
1, 455, Note_on_c, 0, 63, 55
1, 455, Note_off_c, 0, 64, 64
1, 459, Note_on_c, 0, 74, 52
1, 459, Note_off_c, 0, 75, 64
1, 460, Note_off_c, 0, 63, 64
1, 461, Note_on_c, 0, 61, 45
1, 461, Note_on_c, 0, 73, 50
1, 461, Note_off_c, 0, 74, 64
1, 461, Note_on_c, 0, 80, 30
1, 462, Note_on_c, 0, 94, 33
1, 464, Note_off_c, 0, 94, 64
1, 465, Note_off_c, 0, 61, 64
1, 465, Note_on_c, 0, 62, 40
1, 465, Note_off_c, 0, 73, 64
1, 465, Note_on_c, 0, 74, 57
1, 465, Note_off_c, 0, 80, 64
1, 467, Note_off_c, 0, 62, 64
1, 467, Note_on_c, 0, 63, 43
1, 467, Note_off_c, 0, 74, 64
1, 467, Note_on_c, 0, 75, 56
1, 467, Note_on_c, 0, 82, 15
1, 470, Note_off_c, 0, 63, 64
1, 470, Note_off_c, 0, 75, 64
1, 470, Note_off_c, 0, 82, 64
1, 471, Note_on_c, 0, 61, 45
1, 471, Note_on_c, 0, 73, 49
1, 471, Note_on_c, 0, 80, 26
1, 475, Note_off_c, 0, 61, 64
1, 475, Note_on_c, 0, 62, 36
1, 476, Note_off_c, 0, 73, 64
1, 476, Note_on_c, 0, 74, 49
1, 476, Note_off_c, 0, 80, 64
1, 481, Note_on_c, 0, 61, 38
1, 481, Note_off_c, 0, 62, 64
1, 481, Note_off_c, 0, 74, 64
1, 481, Note_on_c, 0, 80, 14
1, 487, Note_off_c, 0, 61, 64
1, 487, Note_on_c, 0, 62, 31
1, 487, Note_on_c, 0, 74, 38
1, 487, Note_off_c, 0, 80, 64
1, 493, Note_on_c, 0, 61, 31
1, 493, Note_off_c, 0, 62, 64
1, 493, Note_on_c, 0, 73, 34
1, 493, Note_off_c, 0, 74, 64
1, 501, Note_off_c, 0, 61, 64
1, 501, Note_on_c, 0, 62, 28
1, 502, Note_off_c, 0, 73, 64
1, 502, Note_on_c, 0, 74, 29
1, 504, Note_on_c, 0, 61, 29
1, 504, Note_off_c, 0, 62, 64
1, 504, Note_on_c, 0, 73, 31
1, 504, Note_off_c, 0, 74, 64
1, 511, Note_off_c, 0, 73, 64
1, 512, Note_off_c, 0, 61, 64
1, 566, Note_on_c, 0, 66, 38
1, 567, Note_on_c, 0, 77, 87
1, 567, Note_on_c, 0, 84, 75
1, 568, Note_on_c, 0, 65, 47
1, 568, Note_off_c, 0, 66, 64
1, 571, Note_on_c, 0, 64, 53
1, 571, Note_off_c, 0, 65, 64
1, 571, Note_on_c, 0, 76, 85
1, 571, Note_off_c, 0, 77, 64
1, 571, Note_on_c, 0, 83, 73
1, 571, Note_off_c, 0, 84, 64
1, 573, Note_on_c, 0, 82, 79
1, 573, Note_off_c, 0, 83, 64
1, 573, Note_on_c, 0, 87, 63
1, 573, Note_on_c, 0, 91, 19
1, 574, Note_on_c, 0, 63, 54
1, 574, Note_off_c, 0, 64, 64
1, 574, Note_on_c, 0, 75, 84
1, 574, Note_off_c, 0, 76, 64
1, 580, Note_off_c, 0, 63, 64
1, 580, Note_on_c, 0, 64, 52
1, 581, Note_off_c, 0, 87, 64
1, 581, Note_off_c, 0, 91, 64
1, 582, Note_on_c, 0, 63, 69
1, 582, Note_off_c, 0, 64, 64
1, 585, Note_off_c, 0, 75, 64
1, 585, Note_on_c, 0, 87, 24
1, 588, Note_on_c, 0, 74, 20
1, 588, Note_off_c, 0, 87, 64
1, 589, Note_on_c, 0, 62, 69
1, 589, Note_off_c, 0, 63, 64
1, 589, Note_on_c, 0, 81, 29
1, 589, Note_off_c, 0, 82, 64
1, 591, Note_off_c, 0, 62, 64
1, 591, Note_on_c, 0, 63, 75
1, 591, Note_off_c, 0, 74, 64
1, 591, Note_off_c, 0, 81, 64
1, 592, Note_on_c, 0, 76, 28
1, 592, Note_on_c, 0, 83, 11
1, 593, Note_off_c, 0, 63, 64
1, 593, Note_on_c, 0, 64, 76
1, 596, Note_on_c, 0, 63, 75
1, 596, Note_off_c, 0, 64, 64
1, 596, Note_off_c, 0, 76, 64
1, 596, Note_on_c, 0, 82, 30
1, 596, Note_off_c, 0, 83, 64
1, 598, Note_on_c, 0, 74, 29
1, 598, Note_on_c, 0, 81, 36
1, 598, Note_off_c, 0, 82, 64
1, 599, Note_on_c, 0, 62, 75
1, 599, Note_off_c, 0, 63, 64
1, 600, Note_off_c, 0, 62, 64
1, 600, Note_on_c, 0, 63, 81
1, 600, Note_off_c, 0, 74, 64
1, 601, Note_off_c, 0, 81, 64
1, 602, Note_on_c, 0, 76, 37
1, 603, Note_off_c, 0, 63, 64
1, 603, Note_on_c, 0, 64, 82
1, 609, Note_on_c, 0, 63, 83
1, 609, Note_off_c, 0, 64, 64
1, 609, Note_off_c, 0, 76, 64
1, 609, Note_on_c, 0, 87, 29
1, 611, Note_on_c, 0, 76, 37
1, 611, Note_on_c, 0, 83, 12
1, 611, Note_off_c, 0, 87, 64
1, 612, Note_off_c, 0, 63, 64
1, 612, Note_on_c, 0, 64, 83
1, 623, Note_off_c, 0, 83, 64
1, 627, Note_off_c, 0, 76, 64
1, 628, Note_on_c, 0, 63, 67
1, 628, Note_off_c, 0, 64, 64
1, 629, Note_off_c, 0, 63, 64
1, 629, Note_on_c, 0, 64, 57
1, 633, Note_on_c, 0, 67, 68
1, 635, Note_on_c, 0, 101, 35
1, 636, Note_off_c, 0, 64, 64
1, 636, Note_on_c, 0, 98, 17
1, 637, Note_on_c, 0, 86, 12
1, 637, Note_on_c, 0, 103, 35
1, 641, Note_on_c, 0, 100, 17
1, 641, Note_off_c, 0, 101, 64
1, 642, Note_on_c, 0, 66, 57
1, 642, Note_off_c, 0, 67, 64
1, 642, Note_on_c, 0, 102, 31
1, 642, Note_off_c, 0, 103, 64
1, 643, Note_off_c, 0, 86, 64
1, 643, Note_off_c, 0, 98, 64
1, 646, Note_off_c, 0, 100, 64
1, 649, Note_off_c, 0, 66, 64
1, 649, Note_on_c, 0, 67, 53
1, 649, Note_off_c, 0, 102, 64
1, 649, Note_on_c, 0, 103, 20
1, 652, Note_on_c, 0, 66, 51
1, 652, Note_off_c, 0, 67, 64
1, 652, Note_off_c, 0, 103, 64
1, 655, Note_off_c, 0, 66, 64
1, 655, Note_on_c, 0, 67, 52
1, 663, Note_on_c, 0, 66, 47
1, 663, Note_off_c, 0, 67, 64
1, 663, Note_on_c, 0, 78, 77
1, 663, Note_on_c, 0, 100, 14
1, 664, Note_on_c, 0, 97, 29
1, 667, Note_on_c, 0, 94, 57
1, 668, Note_on_c, 0, 85, 76
1, 671, Note_off_c, 0, 100, 64
1, 675, Note_on_c, 0, 100, 21
1, 679, Note_off_c, 0, 97, 64
1, 680, Note_off_c, 0, 66, 64
1, 680, Note_off_c, 0, 78, 64
1, 680, Note_off_c, 0, 94, 64
1, 680, Note_off_c, 0, 100, 64
1, 681, Note_off_c, 0, 85, 64
1, 702, Note_on_c, 0, 66, 51
1, 704, Note_off_c, 0, 66, 64
1, 705, Note_on_c, 0, 64, 68
1, 705, Note_on_c, 0, 100, 17
1, 706, Note_on_c, 0, 62, 65
1, 706, Note_off_c, 0, 64, 64
1, 706, Note_on_c, 0, 101, 13
1, 707, Note_on_c, 0, 60, 69
1, 707, Note_off_c, 0, 62, 64
1, 708, Note_off_c, 0, 100, 64
1, 710, Note_off_c, 0, 101, 64
1, 712, Note_off_c, 0, 60, 64
1, 712, Note_on_c, 0, 62, 61
1, 714, Note_off_c, 0, 62, 64
1, 714, Note_on_c, 0, 63, 60
1, 717, Note_off_c, 0, 63, 64
1, 719, Note_on_c, 0, 60, 58
1, 722, Note_off_c, 0, 60, 64
1, 723, Note_on_c, 0, 62, 53
1, 730, Note_on_c, 0, 61, 51
1, 730, Note_off_c, 0, 62, 64
1, 730, Note_on_c, 0, 99, 19
1, 733, Note_off_c, 0, 99, 64
1, 734, Note_off_c, 0, 61, 64
1, 734, Note_on_c, 0, 62, 46
1, 734, Note_on_c, 0, 74, 66
1, 734, Note_on_c, 0, 81, 32
1, 738, Note_on_c, 0, 95, 34
1, 740, Note_on_c, 0, 61, 47
1, 740, Note_off_c, 0, 62, 64
1, 740, Note_on_c, 0, 80, 36
1, 740, Note_off_c, 0, 81, 64
1, 740, Note_on_c, 0, 85, 22
1, 741, Note_on_c, 0, 73, 69
1, 741, Note_off_c, 0, 74, 64
1, 746, Note_off_c, 0, 80, 64
1, 746, Note_on_c, 0, 81, 42
1, 747, Note_off_c, 0, 73, 64
1, 747, Note_on_c, 0, 74, 67
1, 747, Note_off_c, 0, 85, 64
1, 749, Note_on_c, 0, 85, 32
1, 749, Note_on_c, 0, 92, 40
1, 750, Note_on_c, 0, 73, 63
1, 750, Note_off_c, 0, 74, 64
1, 751, Note_on_c, 0, 80, 49
1, 751, Note_off_c, 0, 81, 64
1, 753, Note_on_c, 0, 89, 33
1, 756, Note_off_c, 0, 61, 64
1, 756, Note_on_c, 0, 62, 46
1, 756, Note_off_c, 0, 73, 64
1, 756, Note_on_c, 0, 74, 63
1, 756, Note_off_c, 0, 80, 64
1, 756, Note_on_c, 0, 81, 51
1, 756, Note_off_c, 0, 85, 64
1, 757, Note_off_c, 0, 92, 64
1, 757, Note_off_c, 0, 95, 64
1, 760, Note_off_c, 0, 89, 64
1, 761, Note_on_c, 0, 73, 54
1, 761, Note_off_c, 0, 74, 64
1, 762, Note_on_c, 0, 60, 33
1, 762, Note_off_c, 0, 62, 64
1, 762, Note_off_c, 0, 81, 64
1, 763, Note_off_c, 0, 73, 64
1, 764, Note_off_c, 0, 60, 64
1, 770, Note_on_c, 0, 68, 52
1, 771, Note_on_c, 0, 79, 86
1, 772, Note_on_c, 0, 67, 58
1, 772, Note_off_c, 0, 68, 64
1, 773, Note_on_c, 0, 86, 15
1, 776, Note_on_c, 0, 66, 57
1, 776, Note_off_c, 0, 67, 64
1, 777, Note_on_c, 0, 78, 81
1, 777, Note_off_c, 0, 79, 64
1, 777, Note_on_c, 0, 85, 12
1, 777, Note_off_c, 0, 86, 64
1, 780, Note_off_c, 0, 66, 64
1, 780, Note_on_c, 0, 67, 55
1, 780, Note_off_c, 0, 78, 64
1, 780, Note_on_c, 0, 79, 85
1, 780, Note_off_c, 0, 85, 64
1, 780, Note_on_c, 0, 86, 16
1, 786, Note_off_c, 0, 86, 64
1, 787, Note_on_c, 0, 66, 49
1, 787, Note_off_c, 0, 67, 64
1, 788, Note_on_c, 0, 78, 68
1, 788, Note_off_c, 0, 79, 64
1, 789, Note_on_c, 0, 65, 53
1, 789, Note_off_c, 0, 66, 64
1, 789, Note_off_c, 0, 78, 64
1, 790, Note_on_c, 0, 76, 54
1, 790, Note_on_c, 0, 83, 19
1, 791, Note_off_c, 0, 65, 64
1, 792, Note_off_c, 0, 76, 64
1, 793, Note_off_c, 0, 83, 64
1, 794, Note_on_c, 0, 67, 53
1, 794, Note_on_c, 0, 79, 68
1, 796, Note_off_c, 0, 67, 64
1, 796, Note_on_c, 0, 68, 57
1, 796, Note_off_c, 0, 79, 64
1, 796, Note_on_c, 0, 80, 74
1, 798, Note_off_c, 0, 68, 64
1, 798, Note_on_c, 0, 79, 66
1, 798, Note_off_c, 0, 80, 64
1, 799, Note_on_c, 0, 66, 53
1, 800, Note_on_c, 0, 78, 69
1, 800, Note_off_c, 0, 79, 64
1, 800, Note_on_c, 0, 85, 28
1, 804, Note_off_c, 0, 66, 64
1, 804, Note_on_c, 0, 67, 51
1, 804, Note_off_c, 0, 78, 64
1, 804, Note_on_c, 0, 79, 84
1, 804, Note_off_c, 0, 85, 64
1, 805, Note_on_c, 0, 86, 84
1, 810, Note_on_c, 0, 66, 40
1, 810, Note_off_c, 0, 67, 64
1, 810, Note_on_c, 0, 78, 77
1, 810, Note_off_c, 0, 79, 64
1, 811, Note_on_c, 0, 85, 84
1, 811, Note_off_c, 0, 86, 64
1, 815, Note_on_c, 0, 94, 33
1, 821, Note_on_c, 0, 98, 25
1, 822, Note_off_c, 0, 66, 64
1, 822, Note_on_c, 0, 67, 42
1, 822, Note_off_c, 0, 78, 64
1, 822, Note_on_c, 0, 79, 74
1, 822, Note_off_c, 0, 85, 64
1, 822, Note_on_c, 0, 86, 82
1, 823, Note_off_c, 0, 94, 64
1, 823, Note_on_c, 0, 95, 53
1, 825, Note_on_c, 0, 100, 9
1, 827, Note_on_c, 0, 78, 77
1, 827, Note_off_c, 0, 79, 64
1, 827, Note_on_c, 0, 94, 60
1, 827, Note_off_c, 0, 95, 64
1, 828, Note_off_c, 0, 100, 64
1, 829, Note_off_c, 0, 78, 64
1, 829, Note_on_c, 0, 79, 54
1, 829, Note_off_c, 0, 94, 64
1, 829, Note_on_c, 0, 95, 45
1, 829, Note_off_c, 0, 98, 64
1, 831, Note_off_c, 0, 67, 64
1, 831, Note_off_c, 0, 79, 64
1, 831, Note_off_c, 0, 95, 64
1, 832, Note_off_c, 0, 86, 64
1, 844, Note_on_c, 0, 100, 19
1, 847, Note_on_c, 0, 64, 67
1, 849, Note_on_c, 0, 63, 64
1, 849, Note_off_c, 0, 64, 64
1, 849, Note_off_c, 0, 100, 64
1, 852, Note_off_c, 0, 63, 64
1, 852, Note_on_c, 0, 64, 60
1, 854, Note_off_c, 0, 64, 64
1, 854, Note_on_c, 0, 65, 56
1, 857, Note_on_c, 0, 64, 63
1, 857, Note_off_c, 0, 65, 64
1, 859, Note_on_c, 0, 63, 62
1, 859, Note_off_c, 0, 64, 64
1, 862, Note_off_c, 0, 63, 64
1, 862, Note_on_c, 0, 64, 63
1, 869, Note_on_c, 0, 63, 58
1, 869, Note_off_c, 0, 64, 64
1, 873, Note_off_c, 0, 63, 64
1, 873, Note_on_c, 0, 64, 58
1, 876, Note_on_c, 0, 95, 16
1, 879, Note_on_c, 0, 91, 14
1, 880, Note_on_c, 0, 63, 54
1, 880, Note_off_c, 0, 64, 64
1, 880, Note_off_c, 0, 95, 64
1, 884, Note_on_c, 0, 76, 27
1, 884, Note_off_c, 0, 91, 64
1, 885, Note_off_c, 0, 63, 64
1, 885, Note_on_c, 0, 64, 55
1, 889, Note_on_c, 0, 87, 32
1, 890, Note_on_c, 0, 63, 55
1, 890, Note_off_c, 0, 64, 64
1, 890, Note_off_c, 0, 76, 64
1, 890, Note_on_c, 0, 82, 12
1, 894, Note_off_c, 0, 87, 64
1, 898, Note_off_c, 0, 82, 64
1, 901, Note_off_c, 0, 63, 64
1, 910, Note_on_c, 0, 64, 61
1, 913, Note_off_c, 0, 64, 64
1, 915, Note_on_c, 0, 60, 55
1, 919, Note_off_c, 0, 60, 64
1, 921, Note_on_c, 0, 63, 52
1, 924, Note_off_c, 0, 63, 64
1, 925, Note_on_c, 0, 61, 48
1, 930, Note_off_c, 0, 61, 64
1, 930, Note_on_c, 0, 62, 47
1, 937, Note_on_c, 0, 61, 46
1, 937, Note_off_c, 0, 62, 64
1, 940, Note_off_c, 0, 61, 64
1, 940, Note_on_c, 0, 62, 44
1, 941, Note_on_c, 0, 74, 51
1, 944, Note_on_c, 0, 95, 29
1, 946, Note_on_c, 0, 61, 45
1, 946, Note_off_c, 0, 62, 64
1, 946, Note_on_c, 0, 73, 60
1, 946, Note_off_c, 0, 74, 64
1, 946, Note_on_c, 0, 80, 29
1, 948, Note_on_c, 0, 94, 27
1, 948, Note_off_c, 0, 95, 64
1, 949, Note_on_c, 0, 60, 47
1, 949, Note_off_c, 0, 61, 64
1, 949, Note_on_c, 0, 79, 34
1, 949, Note_off_c, 0, 80, 64
1, 949, Note_on_c, 0, 84, 9
1, 950, Note_on_c, 0, 72, 50
1, 950, Note_off_c, 0, 73, 64
1, 951, Note_on_c, 0, 93, 15
1, 951, Note_off_c, 0, 94, 64
1, 952, Note_on_c, 0, 71, 46
1, 952, Note_off_c, 0, 72, 64
1, 952, Note_on_c, 0, 78, 37
1, 952, Note_off_c, 0, 79, 64
1, 952, Note_off_c, 0, 84, 64
1, 953, Note_on_c, 0, 59, 42
1, 953, Note_off_c, 0, 60, 64
1, 954, Note_off_c, 0, 93, 64
1, 955, Note_on_c, 0, 58, 43
1, 955, Note_off_c, 0, 59, 64
1, 955, Note_off_c, 0, 71, 64
1, 955, Note_on_c, 0, 77, 36
1, 955, Note_off_c, 0, 78, 64
1, 955, Note_on_c, 0, 86, 12
1, 956, Note_on_c, 0, 92, 24
1, 962, Note_off_c, 0, 86, 64
1, 963, Note_off_c, 0, 77, 64
1, 963, Note_off_c, 0, 92, 64
1, 964, Note_off_c, 0, 58, 64
1, 964, Note_on_c, 0, 59, 41
1, 966, Note_on_c, 0, 58, 41
1, 966, Note_off_c, 0, 59, 64
1, 968, Note_off_c, 0, 58, 64
1, 980, Note_on_c, 0, 64, 47
1, 982, Note_on_c, 0, 63, 57
1, 982, Note_off_c, 0, 64, 64
1, 984, Note_off_c, 0, 63, 64
1, 985, Note_on_c, 0, 61, 49
1, 987, Note_off_c, 0, 61, 64
1, 988, Note_on_c, 0, 61, 44
1, 990, Note_off_c, 0, 61, 64
1, 990, Note_on_c, 0, 62, 49
1, 992, Note_off_c, 0, 62, 64
1, 992, Note_on_c, 0, 63, 51
1, 995, Note_off_c, 0, 63, 64
1, 996, Note_on_c, 0, 61, 48
1, 1001, Note_off_c, 0, 61, 64
1, 1001, Note_on_c, 0, 62, 42
1, 1008, Note_on_c, 0, 61, 44
1, 1008, Note_off_c, 0, 62, 64
1, 1013, Note_off_c, 0, 61, 64
1, 1013, Note_on_c, 0, 62, 39
1, 1013, Note_on_c, 0, 74, 40
1, 1018, Note_on_c, 0, 61, 37
1, 1018, Note_off_c, 0, 62, 64
1, 1019, Note_on_c, 0, 73, 44
1, 1019, Note_off_c, 0, 74, 64
1, 1020, Note_on_c, 0, 80, 15
1, 1025, Note_off_c, 0, 61, 64
1, 1025, Note_on_c, 0, 62, 36
1, 1025, Note_off_c, 0, 73, 64
1, 1025, Note_on_c, 0, 74, 46
1, 1025, Note_off_c, 0, 80, 64
1, 1025, Note_on_c, 0, 81, 14
1, 1032, Note_on_c, 0, 61, 38
1, 1032, Note_off_c, 0, 62, 64
1, 1032, Note_on_c, 0, 73, 42
1, 1032, Note_off_c, 0, 74, 64
1, 1032, Note_on_c, 0, 80, 16
1, 1032, Note_off_c, 0, 81, 64
1, 1037, Note_off_c, 0, 61, 64
1, 1037, Note_on_c, 0, 62, 35
1, 1037, Note_off_c, 0, 73, 64
1, 1037, Note_on_c, 0, 74, 45
1, 1037, Note_off_c, 0, 80, 64
1, 1037, Note_on_c, 0, 81, 11
1, 1044, Note_on_c, 0, 61, 37
1, 1044, Note_off_c, 0, 62, 64
1, 1044, Note_on_c, 0, 73, 40
1, 1044, Note_off_c, 0, 74, 64
1, 1044, Note_on_c, 0, 80, 12
1, 1044, Note_off_c, 0, 81, 64
1, 1048, Note_off_c, 0, 61, 64
1, 1048, Note_on_c, 0, 62, 33
1, 1048, Note_off_c, 0, 73, 64
1, 1048, Note_on_c, 0, 74, 42
1, 1048, Note_off_c, 0, 80, 64
1, 1048, Note_on_c, 0, 81, 10
1, 1054, Note_off_c, 0, 81, 64
1, 1055, Note_on_c, 0, 61, 32
1, 1055, Note_off_c, 0, 62, 64
1, 1055, Note_on_c, 0, 73, 32
1, 1055, Note_off_c, 0, 74, 64
1, 1060, Note_off_c, 0, 61, 64
1, 1060, Note_on_c, 0, 62, 30
1, 1060, Note_off_c, 0, 73, 64
1, 1060, Note_on_c, 0, 74, 34
1, 1067, Note_on_c, 0, 61, 31
1, 1067, Note_off_c, 0, 62, 64
1, 1068, Note_off_c, 0, 74, 64
1, 1073, Note_off_c, 0, 61, 64
1, 1073, Note_on_c, 0, 62, 24
1, 1074, Note_on_c, 0, 74, 25
1, 1078, Note_on_c, 0, 61, 24
1, 1078, Note_off_c, 0, 62, 64
1, 1079, Note_off_c, 0, 74, 64
1, 1083, Note_off_c, 0, 61, 64
1, 1147, Note_on_c, 0, 65, 51
1, 1148, Note_on_c, 0, 88, 42
1, 1149, Note_on_c, 0, 64, 66
1, 1149, Note_off_c, 0, 65, 64
1, 1151, Note_off_c, 0, 64, 64
1, 1152, Note_off_c, 0, 88, 64
1, 1153, Note_on_c, 0, 61, 60
1, 1153, Note_on_c, 0, 80, 29
1, 1155, Note_on_c, 0, 60, 59
1, 1155, Note_off_c, 0, 61, 64
1, 1155, Note_on_c, 0, 79, 31
1, 1155, Note_off_c, 0, 80, 64
1, 1157, Note_off_c, 0, 60, 64
1, 1157, Note_on_c, 0, 61, 56
1, 1157, Note_off_c, 0, 79, 64
1, 1157, Note_on_c, 0, 80, 32
1, 1159, Note_off_c, 0, 61, 64
1, 1159, Note_on_c, 0, 62, 53
1, 1159, Note_off_c, 0, 80, 64
1, 1159, Note_on_c, 0, 81, 45
1, 1164, Note_on_c, 0, 61, 56
1, 1164, Note_off_c, 0, 62, 64
1, 1164, Note_on_c, 0, 80, 42
1, 1164, Note_off_c, 0, 81, 64
1, 1167, Note_off_c, 0, 61, 64
1, 1168, Note_on_c, 0, 61, 53
1, 1171, Note_off_c, 0, 61, 64
1, 1171, Note_on_c, 0, 62, 52
1, 1171, Note_off_c, 0, 80, 64
1, 1171, Note_on_c, 0, 81, 51
1, 1176, Note_on_c, 0, 61, 54
1, 1176, Note_off_c, 0, 62, 64
1, 1177, Note_on_c, 0, 80, 45
1, 1177, Note_off_c, 0, 81, 64
1, 1183, Note_off_c, 0, 61, 64
1, 1183, Note_on_c, 0, 62, 54
1, 1183, Note_off_c, 0, 80, 64
1, 1183, Note_on_c, 0, 81, 45
1, 1191, Note_on_c, 0, 61, 55
1, 1191, Note_off_c, 0, 62, 64
1, 1192, Note_on_c, 0, 80, 36
1, 1192, Note_off_c, 0, 81, 64
1, 1200, Note_on_c, 0, 60, 60
1, 1200, Note_off_c, 0, 61, 64
1, 1201, Note_on_c, 0, 79, 27
1, 1201, Note_off_c, 0, 80, 64
1, 1205, Note_off_c, 0, 60, 64
1, 1205, Note_on_c, 0, 71, 41
1, 1206, Note_off_c, 0, 79, 64
1, 1207, Note_on_c, 0, 56, 51
1, 1207, Note_off_c, 0, 71, 64
1, 1209, Note_on_c, 0, 69, 50
1, 1210, Note_off_c, 0, 56, 64
1, 1210, Note_on_c, 0, 57, 58
1, 1212, Note_off_c, 0, 57, 64
1, 1212, Note_on_c, 0, 58, 61
1, 1212, Note_off_c, 0, 69, 64
1, 1214, Note_off_c, 0, 58, 64
1, 1214, Note_on_c, 0, 59, 59
1, 1215, Note_on_c, 0, 101, 21
1, 1219, Note_off_c, 0, 101, 64
1, 1220, Note_on_c, 0, 58, 59
1, 1220, Note_off_c, 0, 59, 64
1, 1221, Note_on_c, 0, 101, 14
1, 1225, Note_off_c, 0, 58, 64
1, 1225, Note_on_c, 0, 59, 58
1, 1225, Note_off_c, 0, 101, 64
1, 1225, Note_on_c, 0, 102, 16
1, 1231, Note_on_c, 0, 58, 55
1, 1231, Note_off_c, 0, 59, 64
1, 1231, Note_on_c, 0, 101, 10
1, 1231, Note_off_c, 0, 102, 64
1, 1234, Note_off_c, 0, 58, 64
1, 1234, Note_on_c, 0, 59, 54
1, 1234, Note_off_c, 0, 101, 64
1, 1243, Note_off_c, 0, 59, 64
1, 1244, Note_on_c, 0, 61, 48
1, 1246, Note_off_c, 0, 61, 64
1, 1246, Note_on_c, 0, 62, 49
1, 1251, Note_on_c, 0, 61, 50
1, 1251, Note_off_c, 0, 62, 64
1, 1256, Note_off_c, 0, 61, 64
1, 1256, Note_on_c, 0, 62, 46
1, 1262, Note_on_c, 0, 61, 46
1, 1262, Note_off_c, 0, 62, 64
1, 1266, Note_on_c, 0, 60, 46
1, 1266, Note_off_c, 0, 61, 64
1, 1268, Note_off_c, 0, 60, 64
1, 1268, Note_on_c, 0, 61, 48
1, 1270, Note_off_c, 0, 61, 64
1, 1270, Note_on_c, 0, 62, 49
1, 1272, Note_off_c, 0, 62, 64
1, 1272, Note_on_c, 0, 63, 50
1, 1274, Note_on_c, 0, 62, 47
1, 1274, Note_off_c, 0, 63, 64
1, 1276, Note_off_c, 0, 62, 64
1, 1277, Note_on_c, 0, 60, 52
1, 1280, Note_off_c, 0, 60, 64
1, 1281, Note_on_c, 0, 62, 46
1, 1285, Note_on_c, 0, 61, 48
1, 1285, Note_off_c, 0, 62, 64
1, 1287, Note_on_c, 0, 60, 50
1, 1287, Note_off_c, 0, 61, 64
1, 1290, Note_off_c, 0, 60, 64
1, 1290, Note_on_c, 0, 61, 53
1, 1292, Note_off_c, 0, 61, 64
1, 1292, Note_on_c, 0, 62, 65
1, 1294, Note_on_c, 0, 81, 30
1, 1328, Note_off_c, 0, 62, 64
1, 1328, Note_off_c, 0, 81, 64
1, 1329, Note_on_c, 0, 60, 42
1, 1332, Note_off_c, 0, 60, 64
1, 1336, Note_on_c, 0, 88, 62
1, 1337, Note_on_c, 0, 64, 44
1, 1337, Note_on_c, 0, 83, 54
1, 1337, Note_on_c, 0, 92, 24
1, 1340, Note_on_c, 0, 75, 39
1, 1340, Note_off_c, 0, 83, 64
1, 1340, Note_off_c, 0, 88, 64
1, 1340, Note_off_c, 0, 92, 64
1, 1341, Note_off_c, 0, 64, 64
1, 1341, Note_on_c, 0, 81, 49
1, 1341, Note_on_c, 0, 86, 63
1, 1342, Note_off_c, 0, 75, 64
1, 1342, Note_on_c, 0, 89, 57
1, 1343, Note_on_c, 0, 61, 39
1, 1343, Note_on_c, 0, 80, 56
1, 1343, Note_off_c, 0, 81, 64
1, 1343, Note_on_c, 0, 85, 74
1, 1343, Note_off_c, 0, 86, 64
1, 1347, Note_on_c, 0, 74, 43
1, 1347, Note_off_c, 0, 80, 64
1, 1347, Note_on_c, 0, 81, 65
1, 1348, Note_off_c, 0, 61, 64
1, 1348, Note_on_c, 0, 62, 44
1, 1348, Note_off_c, 0, 85, 64
1, 1348, Note_on_c, 0, 86, 79
1, 1348, Note_off_c, 0, 89, 64
1, 1348, Note_on_c, 0, 90, 65
1, 1354, Note_on_c, 0, 89, 64
1, 1354, Note_off_c, 0, 90, 64
1, 1354, Note_on_c, 0, 95, 11
1, 1359, Note_off_c, 0, 89, 64
1, 1359, Note_on_c, 0, 90, 61
1, 1362, Note_off_c, 0, 95, 64
1, 1364, Note_on_c, 0, 61, 70
1, 1364, Note_off_c, 0, 62, 64
1, 1365, Note_off_c, 0, 74, 64
1, 1365, Note_off_c, 0, 86, 64
1, 1365, Note_off_c, 0, 90, 64
1, 1366, Note_off_c, 0, 81, 64
1, 1369, Note_on_c, 0, 81, 16
1, 1370, Note_off_c, 0, 61, 64
1, 1370, Note_on_c, 0, 76, 63
1, 1370, Note_on_c, 0, 83, 70
1, 1370, Note_on_c, 0, 86, 29
1, 1371, Note_on_c, 0, 64, 62
1, 1372, Note_off_c, 0, 81, 64
1, 1373, Note_off_c, 0, 86, 64
1, 1373, Note_on_c, 0, 92, 25
1, 1376, Note_on_c, 0, 82, 57
1, 1376, Note_off_c, 0, 83, 64
1, 1376, Note_on_c, 0, 87, 64
1, 1376, Note_on_c, 0, 91, 43
1, 1376, Note_off_c, 0, 92, 64
1, 1377, Note_on_c, 0, 63, 51
1, 1377, Note_off_c, 0, 64, 64
1, 1377, Note_off_c, 0, 76, 64
1, 1378, Note_on_c, 0, 81, 60
1, 1378, Note_off_c, 0, 82, 64
1, 1378, Note_on_c, 0, 86, 72
1, 1378, Note_off_c, 0, 87, 64
1, 1378, Note_on_c, 0, 90, 61
1, 1378, Note_off_c, 0, 91, 64
1, 1379, Note_on_c, 0, 62, 45
1, 1379, Note_off_c, 0, 63, 64
1, 1380, Note_on_c, 0, 95, 12
1, 1381, Note_on_c, 0, 89, 61
1, 1381, Note_off_c, 0, 90, 64
1, 1384, Note_off_c, 0, 89, 64
1, 1384, Note_on_c, 0, 90, 61
1, 1389, Note_off_c, 0, 95, 64
1, 1392, Note_off_c, 0, 62, 64
1, 1392, Note_off_c, 0, 90, 64
1, 1393, Note_off_c, 0, 81, 64
1, 1393, Note_off_c, 0, 86, 64
1, 1402, Note_on_c, 0, 64, 59
1, 1403, Note_on_c, 0, 100, 21
1, 1404, Note_on_c, 0, 98, 27
1, 1405, Note_off_c, 0, 64, 64
1, 1405, Note_on_c, 0, 76, 53
1, 1405, Note_on_c, 0, 95, 20
1, 1406, Note_on_c, 0, 64, 53
1, 1408, Note_on_c, 0, 82, 30
1, 1408, Note_on_c, 0, 87, 24
1, 1408, Note_on_c, 0, 97, 23
1, 1408, Note_off_c, 0, 98, 64
1, 1408, Note_off_c, 0, 100, 64
1, 1409, Note_on_c, 0, 63, 48
1, 1409, Note_off_c, 0, 64, 64
1, 1409, Note_on_c, 0, 75, 58
1, 1409, Note_off_c, 0, 76, 64
1, 1409, Note_on_c, 0, 94, 31
1, 1409, Note_off_c, 0, 95, 64
1, 1411, Note_off_c, 0, 97, 64
1, 1412, Note_off_c, 0, 82, 64
1, 1412, Note_off_c, 0, 87, 64
1, 1412, Note_off_c, 0, 94, 64
1, 1413, Note_off_c, 0, 63, 64
1, 1413, Note_off_c, 0, 75, 64
1, 1432, Note_on_c, 0, 58, 45
1, 1432, Note_on_c, 0, 77, 50
1, 1433, Note_on_c, 0, 82, 50
1, 1433, Note_on_c, 0, 86, 42
1, 1434, Note_on_c, 0, 92, 35
1, 1439, Note_off_c, 0, 77, 64
1, 1439, Note_on_c, 0, 78, 50
1, 1440, Note_off_c, 0, 58, 64
1, 1440, Note_off_c, 0, 82, 64
1, 1441, Note_on_c, 0, 58, 48
1, 1441, Note_on_c, 0, 77, 53
1, 1441, Note_off_c, 0, 78, 64
1, 1441, Note_on_c, 0, 82, 51
1, 1445, Note_off_c, 0, 92, 64
1, 1447, Note_off_c, 0, 77, 64
1, 1447, Note_off_c, 0, 86, 64
1, 1448, Note_on_c, 0, 77, 31
1, 1449, Note_off_c, 0, 82, 64
1, 1451, Note_off_c, 0, 77, 64
1, 1454, Note_on_c, 0, 57, 37
1, 1454, Note_off_c, 0, 58, 64
1, 1456, Note_off_c, 0, 57, 64
1, 1466, Note_on_c, 0, 58, 48
1, 1466, Note_on_c, 0, 70, 48
1, 1468, Note_on_c, 0, 77, 56
1, 1468, Note_on_c, 0, 82, 54
1, 1468, Note_on_c, 0, 86, 62
1, 1484, Note_on_c, 0, 92, 23
1, 1487, Note_off_c, 0, 92, 64
1, 1488, Note_on_c, 0, 92, 29
1, 1492, Note_off_c, 0, 58, 64
1, 1492, Note_on_c, 0, 59, 42
1, 1492, Note_off_c, 0, 70, 64
1, 1492, Note_on_c, 0, 90, 24
1, 1493, Note_off_c, 0, 77, 64
1, 1493, Note_on_c, 0, 78, 51
1, 1493, Note_off_c, 0, 82, 64
1, 1493, Note_on_c, 0, 83, 44
1, 1493, Note_off_c, 0, 86, 64
1, 1495, Note_on_c, 0, 70, 20
1, 1495, Note_on_c, 0, 86, 16
1, 1496, Note_on_c, 0, 58, 53
1, 1496, Note_off_c, 0, 59, 64
1, 1496, Note_on_c, 0, 77, 35
1, 1496, Note_off_c, 0, 78, 64
1, 1496, Note_off_c, 0, 83, 64
1, 1496, Note_off_c, 0, 90, 64
1, 1496, Note_off_c, 0, 92, 64
1, 1498, Note_off_c, 0, 86, 64
1, 1499, Note_off_c, 0, 77, 64
1, 1503, Note_off_c, 0, 58, 64
1, 1503, Note_on_c, 0, 59, 51
1, 1503, Note_off_c, 0, 70, 64
1, 1507, Note_off_c, 0, 59, 64
1, 1509, Note_on_c, 0, 62, 63
1, 1514, Note_on_c, 0, 61, 59
1, 1514, Note_off_c, 0, 62, 64
1, 1518, Note_off_c, 0, 61, 64
1, 1518, Note_on_c, 0, 62, 62
1, 1521, Note_off_c, 0, 62, 64
1, 1521, Note_on_c, 0, 63, 61
1, 1523, Note_on_c, 0, 62, 57
1, 1523, Note_off_c, 0, 63, 64
1, 1525, Note_on_c, 0, 61, 57
1, 1525, Note_off_c, 0, 62, 64
1, 1529, Note_off_c, 0, 61, 64
1, 1529, Note_on_c, 0, 62, 59
1, 1532, Note_off_c, 0, 62, 64
1, 1532, Note_on_c, 0, 63, 59
1, 1534, Note_on_c, 0, 62, 57
1, 1534, Note_off_c, 0, 63, 64
1, 1553, Note_off_c, 0, 62, 64
1, 1589, Note_on_c, 0, 61, 58
1, 1592, Note_on_c, 0, 60, 67
1, 1592, Note_off_c, 0, 61, 64
1, 1592, Note_on_c, 0, 79, 39
1, 1594, Note_on_c, 0, 71, 50
1, 1594, Note_on_c, 0, 78, 39
1, 1594, Note_off_c, 0, 79, 64
1, 1595, Note_on_c, 0, 59, 62
1, 1595, Note_off_c, 0, 60, 64
1, 1597, Note_on_c, 0, 58, 61
1, 1597, Note_off_c, 0, 59, 64
1, 1598, Note_off_c, 0, 71, 64
1, 1598, Note_on_c, 0, 77, 33
1, 1598, Note_off_c, 0, 78, 64
1, 1602, Note_off_c, 0, 77, 64
1, 1602, Note_on_c, 0, 78, 31
1, 1604, Note_on_c, 0, 77, 27
1, 1604, Note_off_c, 0, 78, 64
1, 1610, Note_off_c, 0, 58, 64
1, 1610, Note_off_c, 0, 77, 64
1, 1612, Note_on_c, 0, 66, 27
1, 1613, Note_on_c, 0, 54, 37
1, 1615, Note_off_c, 0, 54, 64
1, 1615, Note_off_c, 0, 66, 64
1, 1618, Note_on_c, 0, 60, 48
1, 1622, Note_off_c, 0, 60, 64
1, 1623, Note_on_c, 0, 57, 47
1, 1626, Note_on_c, 0, 77, 21
1, 1627, Note_off_c, 0, 57, 64
1, 1627, Note_on_c, 0, 58, 55
1, 1637, Note_on_c, 0, 71, 51
1, 1637, Note_off_c, 0, 77, 64
1, 1637, Note_on_c, 0, 78, 15
1, 1638, Note_off_c, 0, 58, 64
1, 1638, Note_on_c, 0, 59, 55
1, 1641, Note_off_c, 0, 59, 64
1, 1641, Note_on_c, 0, 70, 46
1, 1641, Note_off_c, 0, 71, 64
1, 1642, Note_on_c, 0, 57, 45
1, 1642, Note_off_c, 0, 78, 64
1, 1644, Note_off_c, 0, 57, 64
1, 1644, Note_off_c, 0, 70, 64
1, 1654, Note_on_c, 0, 60, 61
1, 1659, Note_on_c, 0, 71, 37
1, 1660, Note_on_c, 0, 59, 54
1, 1660, Note_off_c, 0, 60, 64
1, 1660, Note_on_c, 0, 100, 21
1, 1667, Note_off_c, 0, 100, 64
1, 1668, Note_on_c, 0, 101, 10
1, 1672, Note_off_c, 0, 101, 64
1, 1684, Note_off_c, 0, 59, 64
1, 1684, Note_off_c, 0, 71, 64
1, 1685, Note_on_c, 0, 57, 46
1, 1687, Note_on_c, 0, 56, 46
1, 1687, Note_off_c, 0, 57, 64
1, 1692, Note_off_c, 0, 56, 64
1, 1692, Note_on_c, 0, 57, 46
1, 1710, Note_on_c, 0, 56, 38
1, 1710, Note_off_c, 0, 57, 64
1, 1712, Note_off_c, 0, 56, 64
1, 1716, Note_on_c, 0, 61, 40
1, 1718, Note_off_c, 0, 61, 64
1, 1721, Note_on_c, 0, 56, 35
1, 1724, Note_off_c, 0, 56, 64
1, 1726, Note_on_c, 0, 60, 39
1, 1728, Note_off_c, 0, 60, 64
1, 1731, Note_on_c, 0, 56, 37
1, 1734, Note_off_c, 0, 56, 64
1, 1734, Note_on_c, 0, 57, 38
1, 1736, Note_off_c, 0, 57, 64
1, 1736, Note_on_c, 0, 58, 36
1, 1739, Note_on_c, 0, 57, 34
1, 1739, Note_off_c, 0, 58, 64
1, 1742, Note_on_c, 0, 56, 34
1, 1742, Note_off_c, 0, 57, 64
1, 1744, Note_off_c, 0, 56, 64
1, 1744, Note_on_c, 0, 57, 37
1, 1748, Note_off_c, 0, 57, 64
1, 1751, Note_on_c, 0, 52, 39
1, 1754, Note_off_c, 0, 52, 64
1, 1756, Note_on_c, 0, 67, 27
1, 1758, Note_on_c, 0, 55, 35
1, 1760, Note_off_c, 0, 55, 64
1, 1760, Note_off_c, 0, 67, 64
1, 1761, Note_on_c, 0, 53, 38
1, 1766, Note_off_c, 0, 53, 64
1, 1766, Note_on_c, 0, 54, 33
1, 1767, Note_on_c, 0, 67, 20
1, 1768, Note_off_c, 0, 54, 64
1, 1768, Note_on_c, 0, 55, 30
1, 1771, Note_on_c, 0, 54, 30
1, 1771, Note_off_c, 0, 55, 64
1, 1771, Note_off_c, 0, 67, 64
1, 1775, Note_off_c, 0, 54, 64
1, 1775, Note_on_c, 0, 55, 30
1, 1778, Note_on_c, 0, 54, 38
1, 1778, Note_off_c, 0, 55, 64
1, 1783, Note_on_c, 0, 67, 30
1, 1785, Note_off_c, 0, 67, 64
1, 1785, Note_on_c, 0, 73, 33
1, 1788, Note_on_c, 0, 53, 44
1, 1788, Note_off_c, 0, 54, 64
1, 1789, Note_on_c, 0, 72, 21
1, 1789, Note_off_c, 0, 73, 64
1, 1791, Note_on_c, 0, 86, 16
1, 1792, Note_on_c, 0, 64, 25
1, 1792, Note_on_c, 0, 71, 18
1, 1792, Note_off_c, 0, 72, 64
1, 1792, Note_on_c, 0, 80, 13
1, 1793, Note_on_c, 0, 52, 40
1, 1793, Note_off_c, 0, 53, 64
1, 1794, Note_on_c, 0, 85, 10
1, 1794, Note_off_c, 0, 86, 64
1, 1795, Note_on_c, 0, 79, 13
1, 1795, Note_off_c, 0, 80, 64
1, 1796, Note_off_c, 0, 52, 64
1, 1796, Note_off_c, 0, 64, 64
1, 1796, Note_off_c, 0, 71, 64
1, 1797, Note_on_c, 0, 52, 32
1, 1797, Note_on_c, 0, 71, 14
1, 1798, Note_off_c, 0, 85, 64
1, 1799, Note_off_c, 0, 79, 64
1, 1800, Note_on_c, 0, 79, 12
1, 1805, Note_off_c, 0, 79, 64
1, 1806, Note_off_c, 0, 52, 64
1, 1807, Note_on_c, 0, 63, 16
1, 1807, Note_off_c, 0, 71, 64
1, 1810, Note_off_c, 0, 63, 64
1, 1816, Note_on_c, 0, 58, 52
1, 1820, Note_on_c, 0, 57, 53
1, 1820, Note_off_c, 0, 58, 64
1, 1828, Note_off_c, 0, 57, 64
1, 1828, Note_on_c, 0, 58, 46
1, 1832, Note_off_c, 0, 58, 64
1, 1832, Note_on_c, 0, 59, 57
1, 1835, Note_off_c, 0, 59, 64
1, 1837, Note_on_c, 0, 56, 55
1, 1841, Note_off_c, 0, 56, 64
1, 1841, Note_on_c, 0, 57, 55
1, 1844, Note_on_c, 0, 56, 51
1, 1844, Note_off_c, 0, 57, 64
1, 1846, Note_off_c, 0, 56, 64
1, 1848, Note_on_c, 0, 52, 29
1, 1850, Note_off_c, 0, 52, 64
1, 1850, Note_on_c, 0, 63, 36
1, 1850, Note_on_c, 0, 69, 19
1, 1851, Note_on_c, 0, 50, 31
1, 1853, Note_off_c, 0, 50, 64
1, 1853, Note_on_c, 0, 51, 32
1, 1853, Note_off_c, 0, 69, 64
1, 1853, Note_on_c, 0, 70, 17
1, 1856, Note_off_c, 0, 51, 64
1, 1856, Note_on_c, 0, 52, 31
1, 1858, Note_on_c, 0, 51, 31
1, 1858, Note_off_c, 0, 52, 64
1, 1866, Note_off_c, 0, 51, 64
1, 1866, Note_on_c, 0, 52, 32
1, 1867, Note_off_c, 0, 70, 64
1, 1868, Note_off_c, 0, 63, 64
1, 1869, Note_on_c, 0, 51, 32
1, 1869, Note_off_c, 0, 52, 64
1, 1869, Note_on_c, 0, 70, 9
1, 1872, Note_off_c, 0, 70, 64
1, 1874, Note_off_c, 0, 51, 64
1, 1881, Note_on_c, 0, 58, 43
1, 1881, Note_on_c, 0, 70, 45
1, 1881, Note_on_c, 0, 77, 44
1, 1882, Note_on_c, 0, 85, 47
1, 1883, Note_on_c, 0, 57, 43
1, 1883, Note_off_c, 0, 58, 64
1, 1884, Note_off_c, 0, 70, 64
1, 1884, Note_on_c, 0, 76, 50
1, 1884, Note_off_c, 0, 77, 64
1, 1884, Note_on_c, 0, 81, 42
1, 1886, Note_on_c, 0, 56, 41
1, 1886, Note_off_c, 0, 57, 64
1, 1886, Note_on_c, 0, 84, 40
1, 1886, Note_off_c, 0, 85, 64
1, 1887, Note_on_c, 0, 75, 34
1, 1887, Note_off_c, 0, 76, 64
1, 1887, Note_on_c, 0, 80, 38
1, 1887, Note_off_c, 0, 81, 64
1, 1887, Note_on_c, 0, 87, 36
1, 1887, Note_on_c, 0, 90, 22
1, 1889, Note_off_c, 0, 56, 64
1, 1889, Note_on_c, 0, 57, 42
1, 1889, Note_off_c, 0, 75, 64
1, 1889, Note_on_c, 0, 76, 41
1, 1889, Note_off_c, 0, 80, 64
1, 1889, Note_on_c, 0, 81, 39
1, 1889, Note_off_c, 0, 87, 64
1, 1890, Note_off_c, 0, 84, 64
1, 1890, Note_on_c, 0, 85, 33
1, 1891, Note_off_c, 0, 90, 64
1, 1895, Note_off_c, 0, 85, 64
1, 1896, Note_on_c, 0, 56, 52
1, 1896, Note_off_c, 0, 57, 64
1, 1896, Note_off_c, 0, 76, 64
1, 1896, Note_off_c, 0, 81, 64
1, 1901, Note_on_c, 0, 69, 18
1, 1902, Note_off_c, 0, 56, 64
1, 1902, Note_on_c, 0, 57, 54
1, 1905, Note_off_c, 0, 69, 64
1, 1906, Note_off_c, 0, 57, 64
1, 1915, Note_on_c, 0, 50, 36
1, 1917, Note_on_c, 0, 63, 40
1, 1918, Note_off_c, 0, 50, 64
1, 1919, Note_on_c, 0, 52, 32
1, 1920, Note_off_c, 0, 63, 64
1, 1920, Note_on_c, 0, 64, 41
1, 1924, Note_on_c, 0, 51, 28
1, 1924, Note_off_c, 0, 52, 64
1, 1924, Note_on_c, 0, 63, 38
1, 1924, Note_off_c, 0, 64, 64
1, 1930, Note_off_c, 0, 51, 64
1, 1930, Note_on_c, 0, 52, 29
1, 1931, Note_off_c, 0, 63, 64
1, 1931, Note_on_c, 0, 64, 38
1, 1936, Note_on_c, 0, 51, 27
1, 1936, Note_off_c, 0, 52, 64
1, 1936, Note_on_c, 0, 63, 33
1, 1936, Note_off_c, 0, 64, 64
1, 1941, Note_on_c, 0, 70, 9
1, 1944, Note_off_c, 0, 51, 64
1, 1944, Note_on_c, 0, 52, 31
1, 1944, Note_off_c, 0, 63, 64
1, 1944, Note_off_c, 0, 70, 64
1, 1951, Note_off_c, 0, 52, 64
1, 1957, Note_on_c, 0, 56, 32
1, 1961, Note_off_c, 0, 56, 64
1, 1962, Note_on_c, 0, 65, 15
1, 1963, Note_on_c, 0, 53, 35
1, 1966, Note_off_c, 0, 53, 64
1, 1966, Note_off_c, 0, 65, 64
1, 1971, Note_on_c, 0, 55, 30
1, 1973, Note_off_c, 0, 55, 64
1, 1976, Note_on_c, 0, 54, 28
1, 1979, Note_off_c, 0, 54, 64
1, 1979, Note_on_c, 0, 55, 32
1, 1985, Note_on_c, 0, 54, 32
1, 1985, Note_off_c, 0, 55, 64
1, 1989, Note_off_c, 0, 54, 64
1, 1989, Note_on_c, 0, 55, 35
1, 2007, Note_off_c, 0, 55, 64
1, 2009, Note_on_c, 0, 55, 27
1, 2021, Note_on_c, 0, 54, 21
1, 2021, Note_off_c, 0, 55, 64
1, 2025, Note_off_c, 0, 54, 64
1, 2025, Note_on_c, 0, 55, 23
1, 2032, Note_off_c, 0, 55, 64
1, 2104, Note_on_c, 0, 64, 69
1, 2104, Note_on_c, 0, 88, 35
1, 2106, Note_on_c, 0, 75, 17
1, 2107, Note_on_c, 0, 63, 70
1, 2107, Note_off_c, 0, 64, 64
1, 2107, Note_on_c, 0, 87, 33
1, 2107, Note_off_c, 0, 88, 64
1, 2110, Note_on_c, 0, 74, 34
1, 2110, Note_off_c, 0, 75, 64
1, 2110, Note_on_c, 0, 81, 32
1, 2110, Note_on_c, 0, 86, 40
1, 2110, Note_off_c, 0, 87, 64
1, 2111, Note_on_c, 0, 62, 67
1, 2111, Note_off_c, 0, 63, 64
1, 2124, Note_on_c, 0, 61, 61
1, 2124, Note_off_c, 0, 62, 64
1, 2124, Note_off_c, 0, 74, 64
1, 2124, Note_on_c, 0, 85, 38
1, 2124, Note_off_c, 0, 86, 64
1, 2125, Note_on_c, 0, 74, 35
1, 2126, Note_off_c, 0, 61, 64
1, 2126, Note_on_c, 0, 62, 59
1, 2126, Note_off_c, 0, 85, 64
1, 2126, Note_on_c, 0, 86, 35
1, 2129, Note_on_c, 0, 61, 55
1, 2129, Note_off_c, 0, 62, 64
1, 2129, Note_off_c, 0, 74, 64
1, 2129, Note_on_c, 0, 80, 18
1, 2129, Note_off_c, 0, 81, 64
1, 2129, Note_off_c, 0, 86, 64
1, 2132, Note_on_c, 0, 60, 54
1, 2132, Note_off_c, 0, 61, 64
1, 2132, Note_on_c, 0, 79, 18
1, 2132, Note_off_c, 0, 80, 64
1, 2133, Note_on_c, 0, 84, 9
1, 2135, Note_off_c, 0, 79, 64
1, 2136, Note_off_c, 0, 60, 64
1, 2136, Note_on_c, 0, 81, 12
1, 2136, Note_off_c, 0, 84, 64
1, 2137, Note_on_c, 0, 62, 48
1, 2139, Note_off_c, 0, 62, 64
1, 2139, Note_on_c, 0, 63, 47
1, 2139, Note_off_c, 0, 81, 64
1, 2141, Note_off_c, 0, 63, 64
1, 2143, Note_on_c, 0, 60, 50
1, 2146, Note_off_c, 0, 60, 64
1, 2146, Note_on_c, 0, 61, 48
1, 2147, Note_on_c, 0, 74, 15
1, 2148, Note_off_c, 0, 61, 64
1, 2148, Note_on_c, 0, 62, 45
1, 2152, Note_on_c, 0, 73, 25
1, 2152, Note_off_c, 0, 74, 64
1, 2153, Note_on_c, 0, 61, 47
1, 2153, Note_off_c, 0, 62, 64
1, 2154, Note_on_c, 0, 80, 12
1, 2159, Note_off_c, 0, 61, 64
1, 2159, Note_on_c, 0, 62, 50
1, 2159, Note_off_c, 0, 73, 64
1, 2159, Note_off_c, 0, 80, 64
1, 2159, Note_on_c, 0, 81, 12
1, 2163, Note_on_c, 0, 73, 28
1, 2164, Note_on_c, 0, 61, 53
1, 2164, Note_off_c, 0, 62, 64
1, 2164, Note_off_c, 0, 81, 64
1, 2164, Note_on_c, 0, 95, 16
1, 2167, Note_off_c, 0, 95, 64
1, 2170, Note_on_c, 0, 100, 32
1, 2171, Note_off_c, 0, 61, 64
1, 2171, Note_on_c, 0, 62, 58
1, 2171, Note_off_c, 0, 73, 64
1, 2176, Note_on_c, 0, 73, 26
1, 2176, Note_on_c, 0, 103, 17
1, 2177, Note_on_c, 0, 61, 59
1, 2177, Note_off_c, 0, 62, 64
1, 2177, Note_on_c, 0, 99, 28
1, 2177, Note_off_c, 0, 100, 64
1, 2178, Note_on_c, 0, 101, 10
1, 2181, Note_off_c, 0, 99, 64
1, 2181, Note_on_c, 0, 100, 33
1, 2182, Note_off_c, 0, 61, 64
1, 2182, Note_on_c, 0, 62, 58
1, 2182, Note_off_c, 0, 73, 64
1, 2182, Note_off_c, 0, 103, 64
1, 2183, Note_off_c, 0, 101, 64
1, 2183, Note_on_c, 0, 102, 10
1, 2186, Note_off_c, 0, 102, 64
1, 2187, Note_off_c, 0, 62, 64
1, 2188, Note_off_c, 0, 100, 64
1, 2198, Note_on_c, 0, 69, 65
1, 2199, Note_on_c, 0, 80, 87
1, 2200, Note_on_c, 0, 68, 73
1, 2200, Note_off_c, 0, 69, 64
1, 2200, Note_on_c, 0, 87, 23
1, 2203, Note_on_c, 0, 67, 69
1, 2203, Note_off_c, 0, 68, 64
1, 2203, Note_on_c, 0, 79, 84
1, 2203, Note_off_c, 0, 80, 64
1, 2203, Note_on_c, 0, 86, 23
1, 2203, Note_off_c, 0, 87, 64
1, 2212, Note_on_c, 0, 66, 57
1, 2212, Note_off_c, 0, 67, 64
1, 2212, Note_on_c, 0, 78, 68
1, 2212, Note_off_c, 0, 79, 64
1, 2212, Note_on_c, 0, 85, 28
1, 2212, Note_off_c, 0, 86, 64
1, 2215, Note_off_c, 0, 85, 64
1, 2215, Note_on_c, 0, 86, 58
1, 2216, Note_off_c, 0, 66, 64
1, 2216, Note_on_c, 0, 67, 59
1, 2216, Note_off_c, 0, 78, 64
1, 2220, Note_off_c, 0, 67, 64
1, 2220, Note_off_c, 0, 86, 64
1, 2233, Note_on_c, 0, 66, 68
1, 2233, Note_on_c, 0, 77, 22
1, 2233, Note_on_c, 0, 99, 42
1, 2236, Note_on_c, 0, 65, 71
1, 2236, Note_off_c, 0, 66, 64
1, 2237, Note_on_c, 0, 76, 17
1, 2237, Note_off_c, 0, 77, 64
1, 2237, Note_off_c, 0, 99, 64
1, 2238, Note_on_c, 0, 64, 76
1, 2238, Note_off_c, 0, 65, 64
1, 2240, Note_on_c, 0, 63, 74
1, 2240, Note_off_c, 0, 64, 64
1, 2240, Note_off_c, 0, 76, 64
1, 2241, Note_off_c, 0, 63, 64
1, 2241, Note_on_c, 0, 64, 73
1, 2241, Note_on_c, 0, 100, 24
1, 2243, Note_on_c, 0, 102, 12
1, 2248, Note_off_c, 0, 102, 64
1, 2250, Note_on_c, 0, 63, 66
1, 2250, Note_off_c, 0, 64, 64
1, 2250, Note_on_c, 0, 99, 25
1, 2250, Note_off_c, 0, 100, 64
1, 2253, Note_off_c, 0, 63, 64
1, 2253, Note_on_c, 0, 64, 65
1, 2253, Note_on_c, 0, 76, 89
1, 2253, Note_off_c, 0, 99, 64
1, 2253, Note_on_c, 0, 100, 35
1, 2256, Note_on_c, 0, 95, 62
1, 2258, Note_on_c, 0, 97, 22
1, 2261, Note_on_c, 0, 83, 49
1, 2262, Note_on_c, 0, 92, 64
1, 2263, Note_off_c, 0, 97, 64
1, 2263, Note_off_c, 0, 100, 64
1, 2272, Note_on_c, 0, 91, 64
1, 2272, Note_off_c, 0, 92, 64
1, 2274, Note_on_c, 0, 63, 53
1, 2274, Note_off_c, 0, 64, 64
1, 2274, Note_on_c, 0, 75, 82
1, 2274, Note_off_c, 0, 76, 64
1, 2275, Note_off_c, 0, 75, 64
1, 2275, Note_on_c, 0, 76, 81
1, 2276, Note_off_c, 0, 63, 64
1, 2276, Note_on_c, 0, 64, 76
1, 2278, Note_off_c, 0, 91, 64
1, 2279, Note_off_c, 0, 95, 64
1, 2286, Note_off_c, 0, 83, 64
1, 2287, Note_on_c, 0, 63, 42
1, 2287, Note_off_c, 0, 64, 64
1, 2289, Note_off_c, 0, 63, 64
1, 2292, Note_off_c, 0, 76, 64
1, 2294, Note_on_c, 0, 69, 57
1, 2294, Note_on_c, 0, 80, 72
1, 2296, Note_on_c, 0, 68, 65
1, 2296, Note_off_c, 0, 69, 64
1, 2298, Note_on_c, 0, 67, 60
1, 2298, Note_off_c, 0, 68, 64
1, 2298, Note_on_c, 0, 79, 82
1, 2298, Note_off_c, 0, 80, 64
1, 2300, Note_on_c, 0, 66, 58
1, 2300, Note_off_c, 0, 67, 64
1, 2300, Note_on_c, 0, 78, 81
1, 2300, Note_off_c, 0, 79, 64
1, 2300, Note_on_c, 0, 85, 18
1, 2305, Note_off_c, 0, 66, 64
1, 2305, Note_on_c, 0, 67, 53
1, 2305, Note_off_c, 0, 85, 64
1, 2306, Note_off_c, 0, 78, 64
1, 2306, Note_on_c, 0, 79, 81
1, 2310, Note_on_c, 0, 66, 50
1, 2310, Note_off_c, 0, 67, 64
1, 2310, Note_on_c, 0, 78, 78
1, 2310, Note_off_c, 0, 79, 64
1, 2315, Note_off_c, 0, 66, 64
1, 2315, Note_on_c, 0, 67, 53
1, 2315, Note_off_c, 0, 78, 64
1, 2315, Note_on_c, 0, 79, 86
1, 2321, Note_on_c, 0, 86, 72
1, 2324, Note_on_c, 0, 66, 42
1, 2324, Note_off_c, 0, 67, 64
1, 2324, Note_on_c, 0, 90, 59
1, 2325, Note_on_c, 0, 78, 88
1, 2325, Note_off_c, 0, 79, 64
1, 2326, Note_on_c, 0, 85, 78
1, 2326, Note_off_c, 0, 86, 64
1, 2326, Note_on_c, 0, 94, 20
1, 2329, Note_off_c, 0, 78, 64
1, 2329, Note_on_c, 0, 79, 75
1, 2329, Note_off_c, 0, 85, 64
1, 2329, Note_on_c, 0, 86, 78
1, 2329, Note_off_c, 0, 90, 64
1, 2330, Note_off_c, 0, 66, 64
1, 2330, Note_on_c, 0, 67, 40
1, 2331, Note_on_c, 0, 100, 20
1, 2332, Note_off_c, 0, 94, 64
1, 2332, Note_on_c, 0, 95, 45
1, 2334, Note_on_c, 0, 94, 67
1, 2334, Note_off_c, 0, 95, 64
1, 2335, Note_on_c, 0, 66, 61
1, 2335, Note_off_c, 0, 67, 64
1, 2335, Note_on_c, 0, 78, 82
1, 2335, Note_off_c, 0, 79, 64
1, 2335, Note_on_c, 0, 102, 34
1, 2336, Note_on_c, 0, 85, 68
1, 2336, Note_off_c, 0, 86, 64
1, 2340, Note_off_c, 0, 100, 64
1, 2340, Note_off_c, 0, 102, 64
1, 2341, Note_on_c, 0, 79, 22
1, 2341, Note_off_c, 0, 85, 64
1, 2342, Note_off_c, 0, 78, 64
1, 2342, Note_off_c, 0, 94, 64
1, 2343, Note_off_c, 0, 66, 64
1, 2343, Note_on_c, 0, 67, 61
1, 2347, Note_off_c, 0, 67, 64
1, 2347, Note_off_c, 0, 79, 64
1, 2348, Note_on_c, 0, 65, 35
1, 2350, Note_off_c, 0, 65, 64
1, 2358, Note_on_c, 0, 86, 83
1, 2359, Note_on_c, 0, 67, 31
1, 2359, Note_on_c, 0, 79, 64
1, 2362, Note_off_c, 0, 67, 64
1, 2362, Note_off_c, 0, 79, 64
1, 2362, Note_on_c, 0, 85, 76
1, 2362, Note_off_c, 0, 86, 64
1, 2363, Note_on_c, 0, 65, 36
1, 2363, Note_on_c, 0, 77, 57
1, 2364, Note_on_c, 0, 84, 65
1, 2365, Note_off_c, 0, 65, 64
1, 2365, Note_on_c, 0, 76, 47
1, 2365, Note_off_c, 0, 77, 64
1, 2365, Note_on_c, 0, 82, 60
1, 2365, Note_off_c, 0, 84, 64
1, 2365, Note_on_c, 0, 87, 68
1, 2365, Note_on_c, 0, 91, 48
1, 2366, Note_on_c, 0, 63, 38
1, 2366, Note_on_c, 0, 75, 46
1, 2366, Note_off_c, 0, 85, 64
1, 2367, Note_off_c, 0, 76, 64
1, 2368, Note_off_c, 0, 63, 64
1, 2368, Note_off_c, 0, 75, 64
1, 2368, Note_off_c, 0, 82, 64
1, 2368, Note_off_c, 0, 87, 64
1, 2368, Note_on_c, 0, 88, 49
1, 2369, Note_off_c, 0, 91, 64
1, 2370, Note_on_c, 0, 66, 35
1, 2370, Note_on_c, 0, 78, 51
1, 2370, Note_on_c, 0, 85, 63
1, 2370, Note_off_c, 0, 88, 64
1, 2371, Note_on_c, 0, 79, 63
1, 2372, Note_off_c, 0, 78, 64
1, 2372, Note_off_c, 0, 85, 64
1, 2372, Note_on_c, 0, 86, 65
1, 2373, Note_on_c, 0, 78, 71
1, 2373, Note_off_c, 0, 79, 64
1, 2373, Note_on_c, 0, 85, 62
1, 2373, Note_off_c, 0, 86, 64
1, 2376, Note_off_c, 0, 66, 64
1, 2377, Note_on_c, 0, 66, 50
1, 2377, Note_off_c, 0, 85, 64
1, 2379, Note_off_c, 0, 66, 64
1, 2379, Note_on_c, 0, 67, 53
1, 2379, Note_off_c, 0, 78, 64
1, 2379, Note_on_c, 0, 86, 37
1, 2386, Note_on_c, 0, 66, 58
1, 2386, Note_off_c, 0, 67, 64
1, 2386, Note_on_c, 0, 85, 30
1, 2386, Note_off_c, 0, 86, 64
1, 2391, Note_on_c, 0, 65, 66
1, 2391, Note_off_c, 0, 66, 64
1, 2391, Note_on_c, 0, 84, 16
1, 2391, Note_off_c, 0, 85, 64
1, 2395, Note_on_c, 0, 64, 79
1, 2395, Note_off_c, 0, 65, 64
1, 2395, Note_on_c, 0, 83, 18
1, 2395, Note_off_c, 0, 84, 64
1, 2397, Note_on_c, 0, 88, 32
1, 2403, Note_on_c, 0, 63, 83
1, 2403, Note_off_c, 0, 64, 64
1, 2403, Note_on_c, 0, 87, 38
1, 2403, Note_off_c, 0, 88, 64
1, 2404, Note_off_c, 0, 83, 64
1, 2407, Note_off_c, 0, 63, 64
1, 2407, Note_on_c, 0, 64, 83
1, 2407, Note_off_c, 0, 87, 64
1, 2407, Note_on_c, 0, 88, 38
1, 2411, Note_off_c, 0, 88, 64
1, 2413, Note_on_c, 0, 63, 71
1, 2413, Note_off_c, 0, 64, 64
1, 2417, Note_off_c, 0, 63, 64
1, 2422, Note_on_c, 0, 67, 57
1, 2427, Note_off_c, 0, 67, 64
1, 2428, Note_on_c, 0, 64, 60
1, 2430, Note_on_c, 0, 63, 61
1, 2430, Note_off_c, 0, 64, 64
1, 2430, Note_on_c, 0, 101, 20
1, 2433, Note_off_c, 0, 63, 64
1, 2433, Note_on_c, 0, 64, 61
1, 2433, Note_off_c, 0, 101, 64
1, 2436, Note_off_c, 0, 64, 64
1, 2437, Note_on_c, 0, 64, 62
1, 2440, Note_on_c, 0, 63, 61
1, 2440, Note_off_c, 0, 64, 64
1, 2448, Note_off_c, 0, 63, 64
1, 2448, Note_on_c, 0, 64, 61
1, 2448, Note_on_c, 0, 99, 14
1, 2449, Note_on_c, 0, 75, 74
1, 2451, Note_on_c, 0, 63, 48
1, 2451, Note_off_c, 0, 64, 64
1, 2451, Note_off_c, 0, 99, 64
1, 2453, Note_on_c, 0, 62, 42
1, 2453, Note_off_c, 0, 63, 64
1, 2453, Note_on_c, 0, 81, 53
1, 2453, Note_on_c, 0, 86, 71
1, 2454, Note_on_c, 0, 74, 71
1, 2454, Note_off_c, 0, 75, 64
1, 2457, Note_on_c, 0, 61, 45
1, 2457, Note_off_c, 0, 62, 64
1, 2457, Note_on_c, 0, 73, 69
1, 2457, Note_off_c, 0, 74, 64
1, 2457, Note_on_c, 0, 80, 61
1, 2457, Note_off_c, 0, 81, 64
1, 2457, Note_on_c, 0, 85, 71
1, 2457, Note_off_c, 0, 86, 64
1, 2462, Note_off_c, 0, 61, 64
1, 2462, Note_on_c, 0, 62, 47
1, 2463, Note_off_c, 0, 73, 64
1, 2463, Note_off_c, 0, 80, 64
1, 2463, Note_off_c, 0, 85, 64
1, 2464, Note_on_c, 0, 61, 54
1, 2464, Note_off_c, 0, 62, 64
1, 2464, Note_on_c, 0, 80, 54
1, 2466, Note_off_c, 0, 61, 64
1, 2466, Note_on_c, 0, 62, 63
1, 2466, Note_on_c, 0, 81, 36
1, 2466, Note_on_c, 0, 86, 29
1, 2467, Note_off_c, 0, 80, 64
1, 2476, Note_off_c, 0, 62, 64
1, 2476, Note_off_c, 0, 86, 64
1, 2477, Note_off_c, 0, 81, 64
1, 2484, Note_on_c, 0, 66, 52
1, 2486, Note_on_c, 0, 65, 59
1, 2486, Note_off_c, 0, 66, 64
1, 2490, Note_on_c, 0, 64, 62
1, 2490, Note_off_c, 0, 65, 64
1, 2496, Note_off_c, 0, 64, 64
1, 2496, Note_on_c, 0, 65, 58
1, 2499, Note_on_c, 0, 64, 60
1, 2499, Note_off_c, 0, 65, 64
1, 2516, Note_on_c, 0, 75, 50
1, 2517, Note_on_c, 0, 63, 43
1, 2517, Note_off_c, 0, 64, 64
1, 2519, Note_off_c, 0, 63, 64
1, 2519, Note_off_c, 0, 75, 64
1, 2520, Note_on_c, 0, 61, 42
1, 2520, Note_on_c, 0, 73, 59
1, 2520, Note_on_c, 0, 80, 31
1, 2521, Note_on_c, 0, 97, 14
1, 2524, Note_off_c, 0, 97, 64
1, 2525, Note_off_c, 0, 61, 64
1, 2525, Note_on_c, 0, 62, 37
1, 2525, Note_off_c, 0, 73, 64
1, 2525, Note_on_c, 0, 74, 59
1, 2525, Note_off_c, 0, 80, 64
1, 2528, Note_off_c, 0, 62, 64
1, 2528, Note_off_c, 0, 74, 64
1, 2529, Note_on_c, 0, 62, 38
1, 2529, Note_on_c, 0, 74, 57
1, 2531, Note_on_c, 0, 61, 43
1, 2531, Note_off_c, 0, 62, 64
1, 2531, Note_on_c, 0, 73, 50
1, 2531, Note_off_c, 0, 74, 64
1, 2531, Note_on_c, 0, 80, 29
1, 2536, Note_off_c, 0, 61, 64
1, 2536, Note_on_c, 0, 62, 37
1, 2536, Note_off_c, 0, 73, 64
1, 2536, Note_on_c, 0, 74, 52
1, 2536, Note_off_c, 0, 80, 64
1, 2536, Note_on_c, 0, 81, 17
1, 2542, Note_on_c, 0, 61, 39
1, 2542, Note_off_c, 0, 62, 64
1, 2543, Note_on_c, 0, 73, 50
1, 2543, Note_off_c, 0, 74, 64
1, 2543, Note_off_c, 0, 81, 64
1, 2545, Note_off_c, 0, 61, 64
1, 2545, Note_on_c, 0, 62, 36
1, 2545, Note_off_c, 0, 73, 64
1, 2545, Note_on_c, 0, 74, 51
1, 2545, Note_on_c, 0, 81, 17
1, 2553, Note_off_c, 0, 81, 64
1, 2554, Note_on_c, 0, 61, 33
1, 2554, Note_off_c, 0, 62, 64
1, 2554, Note_on_c, 0, 73, 41
1, 2554, Note_off_c, 0, 74, 64
1, 2557, Note_off_c, 0, 61, 64
1, 2557, Note_on_c, 0, 62, 32
1, 2557, Note_off_c, 0, 73, 64
1, 2557, Note_on_c, 0, 74, 45
1, 2562, Note_on_c, 0, 61, 29
1, 2562, Note_off_c, 0, 62, 64
1, 2563, Note_on_c, 0, 73, 32
1, 2563, Note_off_c, 0, 74, 64
1, 2566, Note_off_c, 0, 61, 64
1, 2566, Note_off_c, 0, 73, 64
1, 2611, Note_on_c, 0, 61, 66
1, 2614, Note_on_c, 0, 100, 29
1, 2615, Note_on_c, 0, 60, 70
1, 2615, Note_off_c, 0, 61, 64
1, 2616, Note_off_c, 0, 100, 64
1, 2616, Note_on_c, 0, 101, 21
1, 2618, Note_on_c, 0, 71, 20
1, 2619, Note_on_c, 0, 59, 65
1, 2619, Note_off_c, 0, 60, 64
1, 2623, Note_off_c, 0, 101, 64
1, 2635, Note_off_c, 0, 71, 64
1, 2642, Note_on_c, 0, 58, 40
1, 2642, Note_off_c, 0, 59, 64
1, 2645, Note_on_c, 0, 57, 39
1, 2645, Note_off_c, 0, 58, 64
1, 2649, Note_off_c, 0, 57, 64
1, 2649, Note_on_c, 0, 58, 38
1, 2651, Note_off_c, 0, 58, 64
1, 2651, Note_on_c, 0, 59, 36
1, 2656, Note_off_c, 0, 59, 64
1, 2659, Note_on_c, 0, 69, 29
1, 2660, Note_on_c, 0, 58, 40
1, 2661, Note_off_c, 0, 69, 64
1, 2662, Note_off_c, 0, 58, 64
1, 2662, Note_on_c, 0, 59, 43
1, 2667, Note_on_c, 0, 58, 52
1, 2667, Note_off_c, 0, 59, 64
1, 2670, Note_on_c, 0, 70, 53
1, 2672, Note_off_c, 0, 70, 64
1, 2672, Note_on_c, 0, 71, 63
1, 2672, Note_on_c, 0, 78, 29
1, 2673, Note_off_c, 0, 58, 64
1, 2673, Note_on_c, 0, 59, 52
1, 2674, Note_on_c, 0, 95, 10
1, 2674, Note_on_c, 0, 97, 22
1, 2680, Note_on_c, 0, 98, 22
1, 2681, Note_on_c, 0, 58, 53
1, 2681, Note_off_c, 0, 59, 64
1, 2681, Note_on_c, 0, 70, 63
1, 2681, Note_off_c, 0, 71, 64
1, 2682, Note_off_c, 0, 78, 64
1, 2682, Note_off_c, 0, 95, 64
1, 2683, Note_off_c, 0, 58, 64
1, 2683, Note_on_c, 0, 59, 53
1, 2683, Note_on_c, 0, 78, 26
1, 2684, Note_off_c, 0, 70, 64
1, 2684, Note_on_c, 0, 71, 62
1, 2686, Note_on_c, 0, 95, 9
1, 2688, Note_off_c, 0, 98, 64
1, 2690, Note_on_c, 0, 70, 61
1, 2690, Note_off_c, 0, 71, 64
1, 2691, Note_on_c, 0, 58, 54
1, 2691, Note_off_c, 0, 59, 64
1, 2691, Note_off_c, 0, 78, 64
1, 2691, Note_off_c, 0, 95, 64
1, 2691, Note_off_c, 0, 97, 64
1, 2693, Note_on_c, 0, 57, 39
1, 2693, Note_off_c, 0, 58, 64
1, 2695, Note_off_c, 0, 57, 64
1, 2695, Note_off_c, 0, 70, 64
1, 2706, Note_on_c, 0, 65, 47
1, 2708, Note_on_c, 0, 64, 65
1, 2708, Note_off_c, 0, 65, 64
1, 2708, Note_on_c, 0, 99, 17
1, 2710, Note_on_c, 0, 63, 65
1, 2710, Note_off_c, 0, 64, 64
1, 2711, Note_off_c, 0, 63, 64
1, 2711, Note_off_c, 0, 99, 64
1, 2712, Note_on_c, 0, 61, 62
1, 2716, Note_off_c, 0, 61, 64
1, 2716, Note_on_c, 0, 62, 62
1, 2716, Note_on_c, 0, 100, 26
1, 2723, Note_on_c, 0, 61, 58
1, 2723, Note_off_c, 0, 62, 64
1, 2723, Note_off_c, 0, 100, 64
1, 2725, Note_off_c, 0, 61, 64
1, 2725, Note_on_c, 0, 62, 56
1, 2725, Note_on_c, 0, 100, 24
1, 2730, Note_off_c, 0, 62, 64
1, 2730, Note_on_c, 0, 63, 34
1, 2730, Note_off_c, 0, 100, 64
1, 2731, Note_on_c, 0, 60, 45
1, 2732, Note_off_c, 0, 63, 64
1, 2737, Note_off_c, 0, 60, 64
1, 2738, Note_on_c, 0, 64, 45
1, 2738, Note_on_c, 0, 76, 75
1, 2738, Note_on_c, 0, 82, 64
1, 2739, Note_on_c, 0, 87, 30
1, 2740, Note_on_c, 0, 63, 48
1, 2740, Note_off_c, 0, 64, 64
1, 2741, Note_on_c, 0, 75, 76
1, 2741, Note_off_c, 0, 76, 64
1, 2742, Note_off_c, 0, 75, 64
1, 2742, Note_on_c, 0, 76, 79
1, 2742, Note_off_c, 0, 82, 64
1, 2742, Note_on_c, 0, 83, 73
1, 2743, Note_off_c, 0, 87, 64
1, 2744, Note_on_c, 0, 87, 55
1, 2745, Note_on_c, 0, 75, 75
1, 2745, Note_off_c, 0, 76, 64
1, 2748, Note_on_c, 0, 82, 72
1, 2748, Note_off_c, 0, 83, 64
1, 2753, Note_off_c, 0, 63, 64
1, 2753, Note_on_c, 0, 64, 45
1, 2753, Note_off_c, 0, 75, 64
1, 2753, Note_on_c, 0, 76, 68
1, 2753, Note_off_c, 0, 82, 64
1, 2753, Note_on_c, 0, 83, 68
1, 2753, Note_off_c, 0, 87, 64
1, 2757, Note_on_c, 0, 63, 70
1, 2757, Note_off_c, 0, 64, 64
1, 2757, Note_off_c, 0, 76, 64
1, 2757, Note_on_c, 0, 82, 48
1, 2757, Note_off_c, 0, 83, 64
1, 2760, Note_off_c, 0, 82, 64
1, 2760, Note_on_c, 0, 83, 24
1, 2761, Note_on_c, 0, 76, 48
1, 2762, Note_off_c, 0, 63, 64
1, 2762, Note_on_c, 0, 64, 74
1, 2767, Note_on_c, 0, 82, 25
1, 2767, Note_off_c, 0, 83, 64
1, 2768, Note_on_c, 0, 63, 75
1, 2768, Note_off_c, 0, 64, 64
1, 2768, Note_off_c, 0, 76, 64
1, 2772, Note_on_c, 0, 76, 47
1, 2773, Note_off_c, 0, 63, 64
1, 2773, Note_on_c, 0, 64, 76
1, 2773, Note_off_c, 0, 82, 64
1, 2780, Note_on_c, 0, 83, 12
1, 2794, Note_off_c, 0, 83, 64
1, 2797, Note_on_c, 0, 63, 66
1, 2797, Note_off_c, 0, 64, 64
1, 2798, Note_off_c, 0, 76, 64
1, 2800, Note_on_c, 0, 76, 72
1, 2800, Note_on_c, 0, 83, 72
1, 2802, Note_off_c, 0, 63, 64
1, 2803, Note_on_c, 0, 63, 48
1, 2805, Note_on_c, 0, 87, 67
1, 2806, Note_on_c, 0, 75, 70
1, 2806, Note_off_c, 0, 76, 64
1, 2806, Note_on_c, 0, 82, 74
1, 2806, Note_off_c, 0, 83, 64
1, 2809, Note_off_c, 0, 63, 64
1, 2809, Note_off_c, 0, 75, 64
1, 2809, Note_off_c, 0, 82, 64
1, 2809, Note_on_c, 0, 86, 69
1, 2809, Note_off_c, 0, 87, 64
1, 2810, Note_on_c, 0, 73, 51
1, 2810, Note_on_c, 0, 85, 66
1, 2810, Note_off_c, 0, 86, 64
1, 2811, Note_on_c, 0, 60, 40
1, 2811, Note_on_c, 0, 79, 61
1, 2812, Note_off_c, 0, 73, 64
1, 2812, Note_off_c, 0, 85, 64
1, 2814, Note_off_c, 0, 60, 64
1, 2814, Note_off_c, 0, 79, 64
1, 2817, Note_on_c, 0, 64, 44
1, 2817, Note_on_c, 0, 76, 72
1, 2817, Note_on_c, 0, 83, 62
1, 2821, Note_on_c, 0, 63, 48
1, 2821, Note_off_c, 0, 64, 64
1, 2821, Note_on_c, 0, 75, 73
1, 2821, Note_off_c, 0, 76, 64
1, 2821, Note_on_c, 0, 82, 69
1, 2821, Note_off_c, 0, 83, 64
1, 2827, Note_off_c, 0, 63, 64
1, 2827, Note_on_c, 0, 64, 48
1, 2827, Note_off_c, 0, 75, 64
1, 2827, Note_on_c, 0, 76, 81
1, 2827, Note_off_c, 0, 82, 64
1, 2827, Note_on_c, 0, 83, 74
1, 2836, Note_on_c, 0, 63, 49
1, 2836, Note_off_c, 0, 64, 64
1, 2836, Note_on_c, 0, 75, 75
1, 2836, Note_off_c, 0, 76, 64
1, 2836, Note_on_c, 0, 82, 71
1, 2836, Note_off_c, 0, 83, 64
1, 2837, Note_off_c, 0, 82, 64
1, 2837, Note_on_c, 0, 83, 74
1, 2838, Note_off_c, 0, 63, 64
1, 2838, Note_on_c, 0, 64, 49
1, 2838, Note_off_c, 0, 75, 64
1, 2838, Note_on_c, 0, 76, 76
1, 2842, Note_on_c, 0, 82, 42
1, 2842, Note_off_c, 0, 83, 64
1, 2843, Note_off_c, 0, 64, 64
1, 2843, Note_off_c, 0, 76, 64
1, 2844, Note_off_c, 0, 82, 64
1, 2844, Note_on_c, 0, 86, 79
1, 2845, Note_on_c, 0, 79, 89
1, 2846, Note_on_c, 0, 67, 41
1, 2856, Note_on_c, 0, 95, 13
1, 2860, Note_on_c, 0, 66, 32
1, 2860, Note_off_c, 0, 67, 64
1, 2860, Note_on_c, 0, 78, 84
1, 2860, Note_off_c, 0, 79, 64
1, 2860, Note_off_c, 0, 95, 64
1, 2861, Note_on_c, 0, 85, 66
1, 2861, Note_off_c, 0, 86, 64
1, 2862, Note_on_c, 0, 77, 80
1, 2862, Note_off_c, 0, 78, 64
1, 2863, Note_on_c, 0, 65, 37
1, 2863, Note_off_c, 0, 66, 64
1, 2863, Note_on_c, 0, 84, 62
1, 2864, Note_off_c, 0, 85, 64
1, 2864, Note_on_c, 0, 88, 62
1, 2865, Note_on_c, 0, 64, 43
1, 2865, Note_off_c, 0, 65, 64
1, 2865, Note_on_c, 0, 76, 75
1, 2865, Note_off_c, 0, 77, 64
1, 2865, Note_on_c, 0, 83, 59
1, 2865, Note_off_c, 0, 84, 64
1, 2878, Note_on_c, 0, 63, 44
1, 2878, Note_off_c, 0, 64, 64
1, 2878, Note_on_c, 0, 75, 71
1, 2878, Note_off_c, 0, 76, 64
1, 2878, Note_off_c, 0, 88, 64
1, 2879, Note_on_c, 0, 82, 62
1, 2879, Note_off_c, 0, 83, 64
1, 2883, Note_off_c, 0, 63, 64
1, 2883, Note_on_c, 0, 64, 52
1, 2883, Note_off_c, 0, 75, 64
1, 2883, Note_on_c, 0, 76, 77
1, 2883, Note_off_c, 0, 82, 64
1, 2883, Note_on_c, 0, 83, 63
1, 2887, Note_on_c, 0, 75, 72
1, 2887, Note_off_c, 0, 76, 64
1, 2888, Note_on_c, 0, 88, 40
1, 2889, Note_off_c, 0, 75, 64
1, 2889, Note_on_c, 0, 76, 52
1, 2890, Note_on_c, 0, 63, 50
1, 2890, Note_off_c, 0, 64, 64
1, 2890, Note_off_c, 0, 88, 64
1, 2891, Note_off_c, 0, 76, 64
1, 2891, Note_off_c, 0, 83, 64
1, 2892, Note_off_c, 0, 63, 64
1, 2892, Note_on_c, 0, 65, 67
1, 2894, Note_off_c, 0, 65, 64
1, 2895, Note_on_c, 0, 68, 59
1, 2895, Note_on_c, 0, 87, 35
1, 2899, Note_on_c, 0, 67, 73
1, 2899, Note_off_c, 0, 68, 64
1, 2900, Note_on_c, 0, 86, 37
1, 2900, Note_off_c, 0, 87, 64
1, 2918, Note_off_c, 0, 67, 64
1, 2919, Note_on_c, 0, 65, 47
1, 2920, Note_off_c, 0, 86, 64
1, 2921, Note_off_c, 0, 65, 64
1, 2926, Note_on_c, 0, 67, 35
1, 2926, Note_on_c, 0, 79, 80
1, 2926, Note_on_c, 0, 86, 68
1, 2927, Note_on_c, 0, 94, 34
1, 2928, Note_off_c, 0, 67, 64
1, 2930, Note_on_c, 0, 78, 67
1, 2930, Note_off_c, 0, 79, 64
1, 2930, Note_on_c, 0, 85, 70
1, 2930, Note_off_c, 0, 86, 64
1, 2931, Note_on_c, 0, 65, 40
1, 2931, Note_off_c, 0, 78, 64
1, 2931, Note_on_c, 0, 84, 71
1, 2931, Note_off_c, 0, 85, 64
1, 2931, Note_on_c, 0, 92, 47
1, 2931, Note_off_c, 0, 94, 64
1, 2932, Note_on_c, 0, 76, 60
1, 2932, Note_on_c, 0, 83, 72
1, 2932, Note_off_c, 0, 84, 64
1, 2933, Note_on_c, 0, 64, 43
1, 2933, Note_off_c, 0, 65, 64
1, 2941, Note_on_c, 0, 75, 56
1, 2941, Note_off_c, 0, 76, 64
1, 2941, Note_on_c, 0, 82, 54
1, 2941, Note_off_c, 0, 83, 64
1, 2941, Note_off_c, 0, 92, 64
1, 2942, Note_on_c, 0, 63, 53
1, 2942, Note_off_c, 0, 64, 64
1, 2945, Note_off_c, 0, 63, 64
1, 2945, Note_on_c, 0, 64, 73
1, 2945, Note_off_c, 0, 75, 64
1, 2945, Note_off_c, 0, 82, 64
1, 2945, Note_on_c, 0, 83, 24
1, 2949, Note_off_c, 0, 64, 64
1, 2949, Note_on_c, 0, 65, 75
1, 2950, Note_on_c, 0, 64, 75
1, 2950, Note_off_c, 0, 65, 64
1, 2954, Note_on_c, 0, 75, 29
1, 2955, Note_on_c, 0, 63, 73
1, 2955, Note_off_c, 0, 64, 64
1, 2956, Note_off_c, 0, 63, 64
1, 2956, Note_on_c, 0, 64, 76
1, 2956, Note_off_c, 0, 75, 64
1, 2959, Note_off_c, 0, 83, 64
1, 2980, Note_on_c, 0, 63, 68
1, 2980, Note_off_c, 0, 64, 64
1, 2984, Note_off_c, 0, 63, 64
1, 2988, Note_on_c, 0, 64, 46
1, 2990, Note_off_c, 0, 64, 64
1, 2990, Note_on_c, 0, 65, 68
1, 2993, Note_on_c, 0, 64, 69
1, 2993, Note_off_c, 0, 65, 64
1, 2995, Note_on_c, 0, 63, 64
1, 2995, Note_off_c, 0, 64, 64
1, 2995, Note_on_c, 0, 101, 16
1, 2998, Note_off_c, 0, 101, 64
1, 3000, Note_off_c, 0, 63, 64
1, 3000, Note_on_c, 0, 64, 59
1, 3002, Note_off_c, 0, 64, 64
1, 3003, Note_on_c, 0, 64, 61
1, 3007, Note_on_c, 0, 63, 61
1, 3007, Note_off_c, 0, 64, 64
1, 3011, Note_off_c, 0, 63, 64
1, 3011, Note_on_c, 0, 64, 61
1, 3016, Note_on_c, 0, 63, 61
1, 3016, Note_off_c, 0, 64, 64
1, 3016, Note_on_c, 0, 99, 11
1, 3019, Note_off_c, 0, 63, 64
1, 3019, Note_off_c, 0, 99, 64
1, 3021, Note_on_c, 0, 71, 34
1, 3022, Note_on_c, 0, 59, 67
1, 3023, Note_on_c, 0, 70, 41
1, 3023, Note_off_c, 0, 71, 64
1, 3024, Note_on_c, 0, 58, 65
1, 3024, Note_off_c, 0, 59, 64
1, 3029, Note_off_c, 0, 58, 64
1, 3029, Note_on_c, 0, 59, 59
1, 3030, Note_off_c, 0, 70, 64
1, 3031, Note_on_c, 0, 87, 13
1, 3034, Note_on_c, 0, 78, 12
1, 3041, Note_off_c, 0, 87, 64
1, 3045, Note_off_c, 0, 78, 64
1, 3049, Note_on_c, 0, 58, 50
1, 3049, Note_off_c, 0, 59, 64
1, 3051, Note_on_c, 0, 57, 29
1, 3051, Note_off_c, 0, 58, 64
1, 3053, Note_off_c, 0, 57, 64
1, 3055, Note_on_c, 0, 61, 47
1, 3056, Note_on_c, 0, 74, 31
1, 3056, Note_on_c, 0, 81, 15
1, 3057, Note_off_c, 0, 61, 64
1, 3057, Note_on_c, 0, 62, 48
1, 3061, Note_on_c, 0, 61, 47
1, 3061, Note_off_c, 0, 62, 64
1, 3061, Note_off_c, 0, 74, 64
1, 3061, Note_on_c, 0, 80, 23
1, 3061, Note_off_c, 0, 81, 64
1, 3067, Note_off_c, 0, 61, 64
1, 3067, Note_on_c, 0, 62, 42
1, 3067, Note_off_c, 0, 80, 64
1, 3067, Note_on_c, 0, 81, 30
1, 3072, Note_on_c, 0, 61, 44
1, 3072, Note_off_c, 0, 62, 64
1, 3073, Note_on_c, 0, 80, 25
1, 3073, Note_off_c, 0, 81, 64
1, 3078, Note_off_c, 0, 61, 64
1, 3078, Note_on_c, 0, 62, 38
1, 3078, Note_on_c, 0, 74, 50
1, 3078, Note_off_c, 0, 80, 64
1, 3078, Note_on_c, 0, 81, 26
1, 3086, Note_on_c, 0, 61, 38
1, 3086, Note_off_c, 0, 62, 64
1, 3086, Note_on_c, 0, 80, 38
1, 3086, Note_off_c, 0, 81, 64
1, 3088, Note_on_c, 0, 73, 53
1, 3088, Note_off_c, 0, 74, 64
1, 3092, Note_off_c, 0, 80, 64
1, 3092, Note_on_c, 0, 81, 41
1, 3093, Note_off_c, 0, 61, 64
1, 3093, Note_on_c, 0, 62, 33
1, 3093, Note_off_c, 0, 73, 64
1, 3093, Note_on_c, 0, 74, 41
1, 3093, Note_on_c, 0, 90, 27
1, 3098, Note_on_c, 0, 61, 35
1, 3098, Note_off_c, 0, 62, 64
1, 3098, Note_on_c, 0, 73, 36
1, 3098, Note_off_c, 0, 74, 64
1, 3098, Note_on_c, 0, 80, 41
1, 3098, Note_off_c, 0, 81, 64
1, 3098, Note_on_c, 0, 89, 26
1, 3098, Note_off_c, 0, 90, 64
1, 3101, Note_off_c, 0, 61, 64
1, 3101, Note_on_c, 0, 62, 34
1, 3101, Note_off_c, 0, 80, 64
1, 3101, Note_on_c, 0, 81, 43
1, 3102, Note_off_c, 0, 73, 64
1, 3102, Note_on_c, 0, 74, 41
1, 3102, Note_off_c, 0, 89, 64
1, 3102, Note_on_c, 0, 90, 29
1, 3111, Note_off_c, 0, 90, 64
1, 3113, Note_on_c, 0, 90, 15
1, 3121, Note_off_c, 0, 90, 64
1, 3122, Note_off_c, 0, 74, 64
1, 3122, Note_off_c, 0, 81, 64
1, 3124, Note_on_c, 0, 74, 34
1, 3124, Note_on_c, 0, 81, 17
1, 3133, Note_on_c, 0, 61, 28
1, 3133, Note_off_c, 0, 62, 64
1, 3133, Note_off_c, 0, 74, 64
1, 3133, Note_off_c, 0, 81, 64
1, 3138, Note_on_c, 0, 74, 29
1, 3139, Note_off_c, 0, 61, 64
1, 3139, Note_on_c, 0, 62, 27
1, 3146, Note_on_c, 0, 61, 26
1, 3146, Note_off_c, 0, 62, 64
1, 3146, Note_off_c, 0, 74, 64
1, 3151, Note_off_c, 0, 61, 64
1, 3220, Note_on_c, 0, 79, 52
1, 3221, Note_on_c, 0, 67, 66
1, 3222, Note_on_c, 0, 66, 66
1, 3222, Note_off_c, 0, 67, 64
1, 3222, Note_off_c, 0, 79, 64
1, 3223, Note_on_c, 0, 65, 69
1, 3223, Note_off_c, 0, 66, 64
1, 3225, Note_on_c, 0, 64, 72
1, 3225, Note_off_c, 0, 65, 64
1, 3226, Note_on_c, 0, 63, 70
1, 3226, Note_off_c, 0, 64, 64
1, 3226, Note_on_c, 0, 82, 25
1, 3234, Note_on_c, 0, 62, 63
1, 3234, Note_off_c, 0, 63, 64
1, 3234, Note_on_c, 0, 81, 26
1, 3234, Note_off_c, 0, 82, 64
1, 3266, Note_on_c, 0, 61, 55
1, 3266, Note_off_c, 0, 62, 64
1, 3266, Note_on_c, 0, 73, 55
1, 3266, Note_on_c, 0, 80, 50
1, 3266, Note_off_c, 0, 81, 64
1, 3275, Note_on_c, 0, 60, 55
1, 3275, Note_off_c, 0, 61, 64
1, 3275, Note_off_c, 0, 73, 64
1, 3275, Note_on_c, 0, 79, 49
1, 3275, Note_off_c, 0, 80, 64
1, 3278, Note_on_c, 0, 57, 46
1, 3278, Note_off_c, 0, 60, 64
1, 3278, Note_off_c, 0, 79, 64
1, 3280, Note_off_c, 0, 57, 64
1, 3282, Note_on_c, 0, 54, 32
1, 3284, Note_off_c, 0, 54, 64
1, 3285, Note_on_c, 0, 69, 57
1, 3285, Note_on_c, 0, 76, 34
1, 3287, Note_off_c, 0, 69, 64
1, 3287, Note_off_c, 0, 76, 64
1, 3288, Note_on_c, 0, 59, 52
1, 3288, Note_on_c, 0, 71, 53
1, 3288, Note_on_c, 0, 78, 24
1, 3293, Note_on_c, 0, 58, 52
1, 3293, Note_off_c, 0, 59, 64
1, 3293, Note_on_c, 0, 70, 58
1, 3293, Note_off_c, 0, 71, 64
1, 3293, Note_on_c, 0, 77, 33
1, 3293, Note_off_c, 0, 78, 64
1, 3298, Note_off_c, 0, 58, 64
1, 3298, Note_on_c, 0, 59, 50
1, 3298, Note_off_c, 0, 70, 64
1, 3298, Note_on_c, 0, 71, 50
1, 3298, Note_off_c, 0, 77, 64
1, 3298, Note_on_c, 0, 78, 32
1, 3313, Note_off_c, 0, 78, 64
1, 3318, Note_off_c, 0, 59, 64
1, 3318, Note_off_c, 0, 71, 64
1, 3320, Note_on_c, 0, 62, 45
1, 3321, Note_on_c, 0, 75, 28
1, 3322, Note_off_c, 0, 62, 64
1, 3322, Note_on_c, 0, 63, 47
1, 3324, Note_on_c, 0, 74, 31
1, 3324, Note_off_c, 0, 75, 64
1, 3325, Note_off_c, 0, 63, 64
1, 3326, Note_on_c, 0, 61, 45
1, 3326, Note_off_c, 0, 74, 64
1, 3327, Note_on_c, 0, 80, 15
1, 3331, Note_off_c, 0, 61, 64
1, 3331, Note_on_c, 0, 62, 46
1, 3331, Note_off_c, 0, 80, 64
1, 3338, Note_on_c, 0, 61, 44
1, 3338, Note_off_c, 0, 62, 64
1, 3339, Note_on_c, 0, 79, 39
1, 3340, Note_on_c, 0, 60, 48
1, 3340, Note_off_c, 0, 61, 64
1, 3343, Note_off_c, 0, 60, 64
1, 3343, Note_off_c, 0, 79, 64
1, 3343, Note_on_c, 0, 80, 34
1, 3344, Note_on_c, 0, 62, 47
1, 3345, Note_off_c, 0, 80, 64
1, 3346, Note_off_c, 0, 62, 64
1, 3346, Note_on_c, 0, 63, 52
1, 3349, Note_off_c, 0, 63, 64
1, 3350, Note_on_c, 0, 61, 47
1, 3350, Note_on_c, 0, 80, 44
1, 3352, Note_off_c, 0, 61, 64
1, 3353, Note_on_c, 0, 61, 50
1, 3354, Note_on_c, 0, 74, 34
1, 3354, Note_off_c, 0, 80, 64
1, 3354, Note_on_c, 0, 81, 49
1, 3355, Note_off_c, 0, 61, 64
1, 3355, Note_on_c, 0, 62, 48
1, 3357, Note_off_c, 0, 62, 64
1, 3357, Note_off_c, 0, 74, 64
1, 3357, Note_off_c, 0, 81, 64
1, 3357, Note_on_c, 0, 82, 41
1, 3358, Note_on_c, 0, 62, 47
1, 3359, Note_off_c, 0, 82, 64
1, 3360, Note_on_c, 0, 61, 50
1, 3360, Note_off_c, 0, 62, 64
1, 3360, Note_on_c, 0, 80, 35
1, 3364, Note_off_c, 0, 61, 64
1, 3364, Note_on_c, 0, 62, 48
1, 3364, Note_off_c, 0, 80, 64
1, 3364, Note_on_c, 0, 81, 31
1, 3364, Note_on_c, 0, 86, 54
1, 3371, Note_on_c, 0, 61, 60
1, 3371, Note_off_c, 0, 62, 64
1, 3372, Note_on_c, 0, 80, 14
1, 3372, Note_off_c, 0, 81, 64
1, 3372, Note_off_c, 0, 86, 64
1, 3376, Note_off_c, 0, 80, 64
1, 3377, Note_off_c, 0, 61, 64
1, 3377, Note_on_c, 0, 62, 72
1, 3384, Note_on_c, 0, 81, 21
1, 3401, Note_off_c, 0, 62, 64
1, 3401, Note_off_c, 0, 81, 64
1, 3411, Note_on_c, 0, 66, 63
1, 3412, Note_on_c, 0, 77, 36
1, 3414, Note_on_c, 0, 65, 71
1, 3414, Note_off_c, 0, 66, 64
1, 3414, Note_on_c, 0, 93, 18
1, 3417, Note_on_c, 0, 64, 75
1, 3417, Note_off_c, 0, 65, 64
1, 3417, Note_off_c, 0, 77, 64
1, 3417, Note_off_c, 0, 93, 64
1, 3417, Note_on_c, 0, 95, 35
1, 3417, Note_on_c, 0, 98, 34
1, 3417, Note_on_c, 0, 102, 23
1, 3418, Note_on_c, 0, 100, 54
1, 3431, Note_off_c, 0, 95, 64
1, 3432, Note_off_c, 0, 98, 64
1, 3432, Note_off_c, 0, 102, 64
1, 3433, Note_on_c, 0, 63, 53
1, 3433, Note_off_c, 0, 64, 64
1, 3433, Note_off_c, 0, 100, 64
1, 3436, Note_off_c, 0, 63, 64
1, 3441, Note_on_c, 0, 74, 76
1, 3441, Note_on_c, 0, 98, 14
1, 3442, Note_on_c, 0, 62, 55
1, 3442, Note_on_c, 0, 81, 68
1, 3442, Note_on_c, 0, 86, 77
1, 3444, Note_off_c, 0, 98, 64
1, 3451, Note_on_c, 0, 61, 60
1, 3451, Note_off_c, 0, 62, 64
1, 3452, Note_off_c, 0, 81, 64
1, 3453, Note_off_c, 0, 61, 64
1, 3453, Note_on_c, 0, 62, 66
1, 3453, Note_on_c, 0, 81, 52
1, 3464, Note_off_c, 0, 62, 64
1, 3464, Note_off_c, 0, 74, 64
1, 3465, Note_off_c, 0, 81, 64
1, 3465, Note_off_c, 0, 86, 64
1, 3470, Note_on_c, 0, 63, 54
1, 3472, Note_on_c, 0, 62, 59
1, 3472, Note_off_c, 0, 63, 64
1, 3472, Note_on_c, 0, 100, 27
1, 3472, Note_on_c, 0, 102, 24
1, 3479, Note_off_c, 0, 100, 64
1, 3481, Note_off_c, 0, 102, 64
1, 3482, Note_off_c, 0, 62, 64
1, 3482, Note_on_c, 0, 63, 53
1, 3484, Note_off_c, 0, 63, 64
1, 3484, Note_on_c, 0, 64, 63
1, 3490, Note_on_c, 0, 101, 13
1, 3491, Note_on_c, 0, 63, 62
1, 3491, Note_off_c, 0, 64, 64
1, 3493, Note_off_c, 0, 63, 64
1, 3493, Note_on_c, 0, 64, 62
1, 3493, Note_off_c, 0, 101, 64
1, 3496, Note_off_c, 0, 64, 64
1, 3503, Note_on_c, 0, 57, 44
1, 3503, Note_on_c, 0, 76, 50
1, 3503, Note_on_c, 0, 81, 54
1, 3503, Note_on_c, 0, 85, 64
1, 3503, Note_on_c, 0, 88, 58
1, 3504, Note_on_c, 0, 90, 46
1, 3507, Note_off_c, 0, 90, 64
1, 3507, Note_on_c, 0, 91, 47
1, 3511, Note_off_c, 0, 57, 64
1, 3511, Note_on_c, 0, 58, 41
1, 3511, Note_off_c, 0, 76, 64
1, 3511, Note_on_c, 0, 77, 51
1, 3511, Note_off_c, 0, 81, 64
1, 3511, Note_on_c, 0, 82, 56
1, 3511, Note_off_c, 0, 88, 64
1, 3511, Note_on_c, 0, 89, 61
1, 3512, Note_off_c, 0, 85, 64
1, 3512, Note_on_c, 0, 86, 65
1, 3513, Note_off_c, 0, 91, 64
1, 3513, Note_on_c, 0, 92, 44
1, 3523, Note_off_c, 0, 89, 64
1, 3524, Note_off_c, 0, 58, 64
1, 3525, Note_on_c, 0, 58, 41
1, 3526, Note_off_c, 0, 82, 64
1, 3526, Note_off_c, 0, 86, 64
1, 3526, Note_off_c, 0, 92, 64
1, 3527, Note_off_c, 0, 58, 64
1, 3527, Note_off_c, 0, 77, 64
1, 3539, Note_on_c, 0, 63, 55
1, 3541, Note_on_c, 0, 62, 54
1, 3541, Note_off_c, 0, 63, 64
1, 3543, Note_on_c, 0, 61, 53
1, 3543, Note_off_c, 0, 62, 64
1, 3547, Note_off_c, 0, 61, 64
1, 3547, Note_on_c, 0, 62, 49
1, 3566, Note_on_c, 0, 61, 46
1, 3566, Note_off_c, 0, 62, 64
1, 3569, Note_off_c, 0, 61, 64
1, 3569, Note_on_c, 0, 62, 44
1, 3581, Note_on_c, 0, 61, 40
1, 3581, Note_off_c, 0, 62, 64
1, 3581, Note_on_c, 0, 73, 41
1, 3582, Note_on_c, 0, 80, 15
1, 3585, Note_off_c, 0, 61, 64
1, 3585, Note_on_c, 0, 62, 39
1, 3585, Note_off_c, 0, 73, 64
1, 3585, Note_on_c, 0, 74, 42
1, 3585, Note_off_c, 0, 80, 64
1, 3585, Note_on_c, 0, 81, 19
1, 3592, Note_on_c, 0, 61, 42
1, 3592, Note_off_c, 0, 62, 64
1, 3592, Note_off_c, 0, 74, 64
1, 3592, Note_on_c, 0, 80, 20
1, 3592, Note_off_c, 0, 81, 64
1, 3595, Note_off_c, 0, 61, 64
1, 3595, Note_on_c, 0, 62, 38
1, 3595, Note_on_c, 0, 74, 39
1, 3595, Note_off_c, 0, 80, 64
1, 3595, Note_on_c, 0, 81, 14
1, 3598, Note_off_c, 0, 62, 64
1, 3598, Note_off_c, 0, 74, 64
1, 3598, Note_off_c, 0, 81, 64
1, 3599, Note_on_c, 0, 62, 35
1, 3602, Note_on_c, 0, 61, 41
1, 3602, Note_off_c, 0, 62, 64
1, 3602, Note_on_c, 0, 80, 9
1, 3606, Note_off_c, 0, 61, 64
1, 3606, Note_on_c, 0, 62, 47
1, 3606, Note_off_c, 0, 80, 64
1, 3614, Note_on_c, 0, 61, 35
1, 3614, Note_off_c, 0, 62, 64
1, 3616, Note_off_c, 0, 61, 64
1, 3652, Note_on_c, 0, 53, 36
1, 3654, Note_on_c, 0, 52, 40
1, 3654, Note_off_c, 0, 53, 64
1, 3654, Note_on_c, 0, 64, 41
1, 3655, Note_on_c, 0, 70, 19
1, 3656, Note_on_c, 0, 51, 35
1, 3656, Note_off_c, 0, 52, 64
1, 3656, Note_on_c, 0, 63, 38
1, 3656, Note_off_c, 0, 64, 64
1, 3661, Note_off_c, 0, 51, 64
1, 3661, Note_on_c, 0, 52, 34
1, 3662, Note_off_c, 0, 63, 64
1, 3662, Note_on_c, 0, 64, 36
1, 3662, Note_off_c, 0, 70, 64
1, 3666, Note_on_c, 0, 51, 32
1, 3666, Note_off_c, 0, 52, 64
1, 3666, Note_on_c, 0, 63, 33
1, 3666, Note_off_c, 0, 64, 64
1, 3669, Note_on_c, 0, 70, 16
1, 3690, Note_off_c, 0, 70, 64
1, 3691, Note_off_c, 0, 51, 64
1, 3691, Note_on_c, 0, 52, 27
1, 3692, Note_off_c, 0, 63, 64
1, 3695, Note_on_c, 0, 51, 28
1, 3695, Note_off_c, 0, 52, 64
1, 3699, Note_off_c, 0, 51, 64
1, 3700, Note_on_c, 0, 53, 37
1, 3701, Note_on_c, 0, 66, 17
1, 3702, Note_off_c, 0, 53, 64
1, 3702, Note_on_c, 0, 54, 35
1, 3704, Note_off_c, 0, 66, 64
1, 3705, Note_off_c, 0, 54, 64
1, 3707, Note_on_c, 0, 49, 29
1, 3710, Note_off_c, 0, 49, 64
1, 3712, Note_on_c, 0, 52, 31
1, 3714, Note_off_c, 0, 52, 64
1, 3714, Note_on_c, 0, 53, 35
1, 3717, Note_off_c, 0, 53, 64
1, 3719, Note_on_c, 0, 50, 26
1, 3724, Note_off_c, 0, 50, 64
1, 3724, Note_on_c, 0, 51, 25
1, 3733, Note_off_c, 0, 51, 64
1, 3733, Note_on_c, 0, 52, 28
1, 3738, Note_off_c, 0, 52, 64
1, 3743, Note_on_c, 0, 66, 33
1, 3745, Note_on_c, 0, 55, 50
1, 3745, Note_off_c, 0, 66, 64
1, 3752, Note_on_c, 0, 54, 48
1, 3752, Note_off_c, 0, 55, 64
1, 3755, Note_off_c, 0, 54, 64
1, 3756, Note_on_c, 0, 56, 56
1, 3760, Note_on_c, 0, 55, 54
1, 3760, Note_off_c, 0, 56, 64
1, 3764, Note_on_c, 0, 54, 46
1, 3764, Note_off_c, 0, 55, 64
1, 3767, Note_off_c, 0, 54, 64
1, 3767, Note_on_c, 0, 55, 43
1, 3769, Note_on_c, 0, 54, 35
1, 3769, Note_off_c, 0, 55, 64
1, 3772, Note_off_c, 0, 54, 64
1, 3772, Note_on_c, 0, 55, 41
1, 3774, Note_on_c, 0, 68, 42
1, 3775, Note_off_c, 0, 55, 64
1, 3775, Note_on_c, 0, 56, 43
1, 3776, Note_on_c, 0, 76, 53
1, 3777, Note_off_c, 0, 56, 64
1, 3777, Note_on_c, 0, 57, 46
1, 3777, Note_off_c, 0, 68, 64
1, 3777, Note_on_c, 0, 85, 17
1, 3781, Note_on_c, 0, 68, 44
1, 3781, Note_on_c, 0, 75, 57
1, 3781, Note_off_c, 0, 76, 64
1, 3781, Note_on_c, 0, 80, 52
1, 3781, Note_on_c, 0, 84, 24
1, 3781, Note_off_c, 0, 85, 64
1, 3782, Note_on_c, 0, 56, 49
1, 3782, Note_off_c, 0, 57, 64
1, 3787, Note_off_c, 0, 84, 64
1, 3789, Note_off_c, 0, 80, 64
1, 3790, Note_off_c, 0, 56, 64
1, 3790, Note_on_c, 0, 57, 49
1, 3790, Note_off_c, 0, 75, 64
1, 3791, Note_off_c, 0, 68, 64
1, 3796, Note_off_c, 0, 57, 64
1, 3802, Note_on_c, 0, 58, 52
1, 3806, Note_off_c, 0, 58, 64
1, 3807, Note_on_c, 0, 56, 46
1, 3809, Note_off_c, 0, 56, 64
1, 3810, Note_on_c, 0, 56, 49
1, 3813, Note_on_c, 0, 69, 19
1, 3814, Note_off_c, 0, 56, 64
1, 3814, Note_on_c, 0, 57, 49
1, 3817, Note_on_c, 0, 56, 48
1, 3817, Note_off_c, 0, 57, 64
1, 3817, Note_off_c, 0, 69, 64
1, 3824, Note_off_c, 0, 56, 64
1, 3824, Note_on_c, 0, 57, 49
1, 3827, Note_on_c, 0, 56, 46
1, 3827, Note_off_c, 0, 57, 64
1, 3829, Note_off_c, 0, 56, 64
1, 3839, Note_on_c, 0, 63, 63
1, 3843, Note_on_c, 0, 82, 41
1, 3847, Note_on_c, 0, 81, 40
1, 3847, Note_off_c, 0, 82, 64
1, 3849, Note_off_c, 0, 81, 64
1, 3849, Note_on_c, 0, 82, 31
1, 3851, Note_on_c, 0, 62, 55
1, 3851, Note_off_c, 0, 63, 64
1, 3852, Note_on_c, 0, 81, 35
1, 3852, Note_off_c, 0, 82, 64
1, 3856, Note_on_c, 0, 61, 49
1, 3856, Note_off_c, 0, 62, 64
1, 3856, Note_on_c, 0, 80, 36
1, 3856, Note_off_c, 0, 81, 64
1, 3858, Note_on_c, 0, 60, 50
1, 3858, Note_off_c, 0, 61, 64
1, 3858, Note_on_c, 0, 79, 31
1, 3858, Note_off_c, 0, 80, 64
1, 3861, Note_off_c, 0, 60, 64
1, 3861, Note_on_c, 0, 61, 47
1, 3861, Note_off_c, 0, 79, 64
1, 3861, Note_on_c, 0, 80, 29
1, 3863, Note_off_c, 0, 61, 64
1, 3863, Note_off_c, 0, 80, 64
1, 3864, Note_on_c, 0, 63, 54
1, 3869, Note_on_c, 0, 61, 52
1, 3869, Note_off_c, 0, 63, 64
1, 3869, Note_on_c, 0, 80, 27
1, 3872, Note_on_c, 0, 86, 35
1, 3873, Note_off_c, 0, 61, 64
1, 3873, Note_on_c, 0, 62, 54
1, 3873, Note_off_c, 0, 80, 64
1, 3874, Note_on_c, 0, 75, 12
1, 3875, Note_off_c, 0, 62, 64
1, 3875, Note_on_c, 0, 63, 58
1, 3875, Note_off_c, 0, 86, 64
1, 3878, Note_on_c, 0, 62, 58
1, 3878, Note_off_c, 0, 63, 64
1, 3878, Note_off_c, 0, 75, 64
1, 3879, Note_on_c, 0, 100, 34
1, 3882, Note_on_c, 0, 102, 28
1, 3894, Note_off_c, 0, 100, 64
1, 3895, Note_on_c, 0, 60, 32
1, 3895, Note_off_c, 0, 62, 64
1, 3895, Note_off_c, 0, 102, 64
1, 3897, Note_off_c, 0, 60, 64
1, 3905, Note_on_c, 0, 66, 53
1, 3908, Note_on_c, 0, 65, 47
1, 3908, Note_off_c, 0, 66, 64
1, 3910, Note_off_c, 0, 65, 64
1, 3912, Note_on_c, 0, 60, 55
1, 3915, Note_off_c, 0, 60, 64
1, 3917, Note_on_c, 0, 63, 54
1, 3922, Note_off_c, 0, 63, 64
1, 3923, Note_on_c, 0, 61, 48
1, 3926, Note_off_c, 0, 61, 64
1, 3926, Note_on_c, 0, 62, 49
1, 3935, Note_on_c, 0, 61, 45
1, 3935, Note_off_c, 0, 62, 64
1, 3935, Note_on_c, 0, 73, 69
1, 3937, Note_on_c, 0, 94, 19
1, 3938, Note_on_c, 0, 79, 41
1, 3938, Note_on_c, 0, 84, 24
1, 3939, Note_on_c, 0, 60, 51
1, 3939, Note_off_c, 0, 61, 64
1, 3939, Note_on_c, 0, 72, 66
1, 3939, Note_off_c, 0, 73, 64
1, 3940, Note_on_c, 0, 93, 38
1, 3940, Note_off_c, 0, 94, 64
1, 3942, Note_on_c, 0, 59, 50
1, 3942, Note_off_c, 0, 60, 64
1, 3942, Note_on_c, 0, 71, 58
1, 3942, Note_off_c, 0, 72, 64
1, 3942, Note_on_c, 0, 78, 49
1, 3942, Note_off_c, 0, 79, 64
1, 3942, Note_off_c, 0, 84, 64
1, 3944, Note_on_c, 0, 92, 41
1, 3944, Note_off_c, 0, 93, 64
1, 3946, Note_on_c, 0, 86, 39
1, 3947, Note_on_c, 0, 58, 51
1, 3947, Note_off_c, 0, 59, 64
1, 3947, Note_on_c, 0, 70, 57
1, 3947, Note_off_c, 0, 71, 64
1, 3948, Note_on_c, 0, 77, 52
1, 3948, Note_off_c, 0, 78, 64
1, 3953, Note_off_c, 0, 92, 64
1, 3959, Note_on_c, 0, 57, 30
1, 3959, Note_off_c, 0, 58, 64
1, 3960, Note_off_c, 0, 77, 64
1, 3960, Note_off_c, 0, 86, 64
1, 3961, Note_off_c, 0, 57, 64
1, 3961, Note_off_c, 0, 70, 64
1, 3969, Note_on_c, 0, 58, 41
1, 3971, Note_off_c, 0, 58, 64
1, 3972, Note_on_c, 0, 60, 44
1, 3972, Note_on_c, 0, 79, 14
1, 3975, Note_off_c, 0, 79, 64
1, 3977, Note_off_c, 0, 60, 64
1, 3978, Note_on_c, 0, 57, 36
1, 3980, Note_on_c, 0, 56, 34
1, 3980, Note_off_c, 0, 57, 64
1, 3983, Note_off_c, 0, 56, 64
1, 3983, Note_on_c, 0, 57, 34
1, 3987, Note_on_c, 0, 56, 32
1, 3987, Note_off_c, 0, 57, 64
1, 3999, Note_off_c, 0, 56, 64
1, 4002, Note_on_c, 0, 51, 32
1, 4002, Note_on_c, 0, 63, 32
1, 4002, Note_on_c, 0, 70, 21
1, 4004, Note_off_c, 0, 51, 64
1, 4007, Note_on_c, 0, 52, 28
1, 4007, Note_off_c, 0, 63, 64
1, 4007, Note_off_c, 0, 70, 64
1, 4011, Note_on_c, 0, 51, 25
1, 4011, Note_off_c, 0, 52, 64
1, 4013, Note_on_c, 0, 70, 11
1, 4018, Note_off_c, 0, 51, 64
1, 4018, Note_on_c, 0, 52, 24
1, 4018, Note_off_c, 0, 70, 64
1, 4021, Note_off_c, 0, 52, 64
1, 4033, Note_on_c, 0, 60, 38
1, 4036, Note_off_c, 0, 60, 64
1, 4038, Note_on_c, 0, 55, 34
1, 4040, Note_off_c, 0, 55, 64
1, 4043, Note_on_c, 0, 58, 35
1, 4045, Note_off_c, 0, 58, 64
1, 4046, Note_on_c, 0, 58, 35
1, 4048, Note_on_c, 0, 57, 34
1, 4048, Note_off_c, 0, 58, 64
1, 4050, Note_on_c, 0, 56, 28
1, 4050, Note_off_c, 0, 57, 64
1, 4054, Note_off_c, 0, 56, 64
1, 4054, Note_on_c, 0, 57, 30
1, 4060, Note_off_c, 0, 57, 64
1, 4061, Note_on_c, 0, 57, 33
1, 4065, Note_on_c, 0, 84, 20
1, 4066, Note_on_c, 0, 56, 29
1, 4066, Note_off_c, 0, 57, 64
1, 4068, Note_off_c, 0, 56, 64
1, 4068, Note_off_c, 0, 84, 64
1, 4069, Note_on_c, 0, 73, 14
1, 4071, Note_on_c, 0, 66, 9
1, 4072, Note_on_c, 0, 54, 31
1, 4072, Note_on_c, 0, 82, 15
1, 4074, Note_off_c, 0, 54, 64
1, 4074, Note_on_c, 0, 55, 29
1, 4074, Note_off_c, 0, 66, 64
1, 4074, Note_off_c, 0, 73, 64
1, 4074, Note_on_c, 0, 74, 13
1, 4074, Note_on_c, 0, 79, 22
1, 4075, Note_off_c, 0, 82, 64
1, 4076, Note_on_c, 0, 82, 15
1, 4077, Note_on_c, 0, 54, 27
1, 4077, Note_off_c, 0, 55, 64
1, 4077, Note_off_c, 0, 74, 64
1, 4077, Note_on_c, 0, 78, 20
1, 4077, Note_off_c, 0, 79, 64
1, 4082, Note_off_c, 0, 54, 64
1, 4082, Note_on_c, 0, 55, 29
1, 4082, Note_on_c, 0, 74, 15
1, 4082, Note_off_c, 0, 78, 64
1, 4082, Note_on_c, 0, 79, 22
1, 4083, Note_off_c, 0, 82, 64
1, 4089, Note_off_c, 0, 55, 64
1, 4089, Note_off_c, 0, 74, 64
1, 4089, Note_off_c, 0, 79, 64
1, 4091, Note_on_c, 0, 53, 29
1, 4094, Note_off_c, 0, 53, 64
1, 4095, Note_on_c, 0, 55, 26
1, 4095, Note_on_c, 0, 79, 9
1, 4096, Note_on_c, 0, 74, 13
1, 4101, Note_off_c, 0, 74, 64
1, 4101, Note_off_c, 0, 79, 64
1, 4102, Note_on_c, 0, 54, 22
1, 4102, Note_off_c, 0, 55, 64
1, 4107, Note_off_c, 0, 54, 64
1, 4107, Note_on_c, 0, 55, 23
1, 4116, Note_on_c, 0, 54, 16
1, 4116, Note_off_c, 0, 55, 64
1, 4122, Note_off_c, 0, 54, 64
1, 4122, Note_on_c, 0, 55, 17
1, 4131, Note_off_c, 0, 55, 64
1, 4136, Note_on_c, 0, 55, 10
1, 4140, Note_off_c, 0, 55, 64
1, 4140, End_track
0, 0, End_of_file
