0, 0, Header, 0, 1, 10
1, 0, Start_track
1, 0, Tempo, 500000
1, 0, Program_c, 0, 0
1, 0, Note_on_c, 0, 64, 82
1, 2, Note_on_c, 0, 100, 39
1, 5, Note_on_c, 0, 61, 57
1, 6, Note_on_c, 0, 63, 76
1, 6, Note_off_c, 0, 100, 64
1, 9, Note_off_c, 0, 61, 64
1, 9, Note_on_c, 0, 87, 18
1, 10, Note_off_c, 0, 63, 64
1, 11, Note_on_c, 0, 83, 12
1, 12, Note_off_c, 0, 87, 64
1, 13, Note_on_c, 0, 87, 31
1, 14, Note_on_c, 0, 63, 84
1, 14, Note_off_c, 0, 64, 64
1, 14, Note_off_c, 0, 83, 64
1, 16, Note_on_c, 0, 59, 47
1, 17, Note_on_c, 0, 62, 46
1, 17, Note_off_c, 0, 87, 64
1, 18, Note_on_c, 0, 60, 42
1, 18, Note_off_c, 0, 63, 64
1, 18, Note_on_c, 0, 73, 39
1, 19, Note_off_c, 0, 59, 64
1, 20, Note_on_c, 0, 80, 47
1, 20, Note_on_c, 0, 89, 22
1, 21, Note_on_c, 0, 61, 43
1, 21, Note_off_c, 0, 62, 64
1, 22, Note_off_c, 0, 60, 64
1, 22, Note_on_c, 0, 74, 32
1, 23, Note_off_c, 0, 89, 64
1, 24, Note_off_c, 0, 61, 64
1, 24, Note_on_c, 0, 62, 64
1, 24, Note_off_c, 0, 73, 64
1, 24, Note_on_c, 0, 81, 49
1, 25, Note_off_c, 0, 80, 64
1, 33, Note_off_c, 0, 74, 64
1, 33, Note_off_c, 0, 81, 64
1, 34, Note_on_c, 0, 64, 40
1, 34, Note_on_c, 0, 76, 50
1, 34, Note_on_c, 0, 83, 51
1, 34, Note_on_c, 0, 88, 55
1, 35, Note_off_c, 0, 62, 64
1, 35, Note_on_c, 0, 75, 45
1, 35, Note_on_c, 0, 82, 54
1, 35, Note_on_c, 0, 87, 72
1, 35, Note_on_c, 0, 91, 51
1, 35, Note_on_c, 0, 92, 48
1, 37, Note_on_c, 0, 63, 63
1, 37, Note_off_c, 0, 64, 64
1, 38, Note_off_c, 0, 76, 64
1, 38, Note_off_c, 0, 83, 64
1, 38, Note_off_c, 0, 88, 64
1, 38, Note_off_c, 0, 92, 64
1, 39, Note_on_c, 0, 88, 47
1, 40, Note_on_c, 0, 62, 51
1, 40, Note_off_c, 0, 75, 64
1, 40, Note_off_c, 0, 82, 64
1, 40, Note_off_c, 0, 87, 64
1, 40, Note_off_c, 0, 91, 64
1, 41, Note_off_c, 0, 88, 64
1, 42, Note_on_c, 0, 64, 79
1, 43, Note_off_c, 0, 62, 64
1, 45, Note_off_c, 0, 63, 64
1, 51, Note_on_c, 0, 63, 54
1, 51, Note_off_c, 0, 64, 64
1, 53, Note_off_c, 0, 63, 64
1, 53, Note_on_c, 0, 64, 74
1, 54, Note_on_c, 0, 100, 13
1, 54, Note_on_c, 0, 102, 26
1, 60, Note_on_c, 0, 65, 30
1, 61, Note_on_c, 0, 66, 54
1, 61, Note_on_c, 0, 68, 49
1, 61, Note_off_c, 0, 100, 64
1, 61, Note_off_c, 0, 102, 64
1, 62, Note_off_c, 0, 64, 64
1, 62, Note_on_c, 0, 79, 48
1, 63, Note_off_c, 0, 65, 64
1, 63, Note_on_c, 0, 67, 59
1, 63, Note_on_c, 0, 86, 58
1, 64, Note_off_c, 0, 68, 64
1, 65, Note_off_c, 0, 66, 64
1, 69, Note_off_c, 0, 67, 64
1, 69, Note_off_c, 0, 79, 64
1, 69, Note_off_c, 0, 86, 64
1, 70, Note_on_c, 0, 60, 47
1, 72, Note_on_c, 0, 58, 45
1, 73, Note_on_c, 0, 59, 36
1, 74, Note_off_c, 0, 60, 64
1, 75, Note_off_c, 0, 58, 64
1, 76, Note_on_c, 0, 58, 34
1, 77, Note_off_c, 0, 59, 64
1, 82, Note_on_c, 0, 57, 27
1, 83, Note_off_c, 0, 58, 64
1, 83, Note_on_c, 0, 59, 38
1, 86, Note_on_c, 0, 58, 40
1, 86, Note_on_c, 0, 77, 44
1, 86, Note_on_c, 0, 78, 41
1, 86, Note_on_c, 0, 83, 48
1, 86, Note_on_c, 0, 87, 35
1, 87, Note_off_c, 0, 57, 64
1, 87, Note_on_c, 0, 82, 45
1, 87, Note_on_c, 0, 86, 44
1, 87, Note_on_c, 0, 92, 28
1, 90, Note_off_c, 0, 58, 64
1, 91, Note_on_c, 0, 58, 43
1, 91, Note_off_c, 0, 59, 64
1, 91, Note_off_c, 0, 83, 64
1, 92, Note_off_c, 0, 78, 64
1, 92, Note_off_c, 0, 87, 64
1, 95, Note_off_c, 0, 77, 64
1, 95, Note_off_c, 0, 82, 64
1, 95, Note_off_c, 0, 86, 64
1, 95, Note_off_c, 0, 92, 64
1, 96, Note_off_c, 0, 58, 64
1, 97, Note_on_c, 0, 63, 55
1, 97, Note_on_c, 0, 75, 67
1, 97, Note_on_c, 0, 82, 49
1, 98, Note_on_c, 0, 88, 36
1, 99, Note_on_c, 0, 83, 51
1, 100, Note_on_c, 0, 76, 56
1, 100, Note_off_c, 0, 88, 64
1, 101, Note_on_c, 0, 64, 73
1, 101, Note_on_c, 0, 65, 56
1, 101, Note_on_c, 0, 66, 50
1, 101, Note_off_c, 0, 75, 64
1, 101, Note_off_c, 0, 82, 64
1, 102, Note_off_c, 0, 76, 64
1, 102, Note_off_c, 0, 83, 64
1, 103, Note_off_c, 0, 63, 64
1, 104, Note_off_c, 0, 66, 64
1, 105, Note_off_c, 0, 65, 64
1, 107, Note_on_c, 0, 66, 40
1, 109, Note_off_c, 0, 66, 64
1, 115, Note_on_c, 0, 63, 49
1, 115, Note_off_c, 0, 64, 64
1, 116, Note_on_c, 0, 61, 33
1, 116, Note_on_c, 0, 73, 36
1, 116, Note_on_c, 0, 74, 35
1, 117, Note_off_c, 0, 63, 64
1, 117, Note_on_c, 0, 80, 11
1, 119, Note_on_c, 0, 62, 26
1, 121, Note_off_c, 0, 80, 64
1, 123, Note_off_c, 0, 62, 64
1, 124, Note_off_c, 0, 61, 64
1, 125, Note_on_c, 0, 61, 27
1, 125, Note_off_c, 0, 74, 64
1, 129, Note_off_c, 0, 73, 64
1, 130, Note_off_c, 0, 61, 64
1, 142, Note_on_c, 0, 65, 30
1, 142, Note_on_c, 0, 77, 66
1, 142, Note_on_c, 0, 84, 51
1, 143, Note_on_c, 0, 76, 59
1, 143, Note_on_c, 0, 82, 73
1, 144, Note_on_c, 0, 63, 66
1, 144, Note_off_c, 0, 65, 64
1, 144, Note_on_c, 0, 75, 79
1, 144, Note_off_c, 0, 77, 64
1, 146, Note_off_c, 0, 84, 64
1, 148, Note_on_c, 0, 64, 81
1, 148, Note_off_c, 0, 76, 64
1, 149, Note_off_c, 0, 75, 64
1, 151, Note_off_c, 0, 82, 64
1, 153, Note_off_c, 0, 63, 64
1, 159, Note_on_c, 0, 67, 56
1, 161, Note_off_c, 0, 64, 64
1, 162, Note_on_c, 0, 66, 56
1, 162, Note_on_c, 0, 102, 21
1, 163, Note_off_c, 0, 67, 64
1, 165, Note_off_c, 0, 66, 64
1, 165, Note_on_c, 0, 67, 50
1, 165, Note_off_c, 0, 102, 64
1, 166, Note_on_c, 0, 78, 69
1, 167, Note_on_c, 0, 66, 45
1, 167, Note_off_c, 0, 67, 64
1, 168, Note_on_c, 0, 85, 65
1, 168, Note_on_c, 0, 94, 49
1, 172, Note_off_c, 0, 66, 64
1, 172, Note_off_c, 0, 94, 64
1, 173, Note_off_c, 0, 78, 64
1, 173, Note_off_c, 0, 85, 64
1, 176, Note_on_c, 0, 64, 41
1, 177, Note_on_c, 0, 60, 54
1, 177, Note_on_c, 0, 62, 40
1, 178, Note_on_c, 0, 61, 43
1, 178, Note_on_c, 0, 63, 45
1, 178, Note_off_c, 0, 64, 64
1, 179, Note_off_c, 0, 62, 64
1, 180, Note_on_c, 0, 62, 45
1, 180, Note_off_c, 0, 63, 64
1, 181, Note_off_c, 0, 61, 64
1, 182, Note_on_c, 0, 61, 47
1, 183, Note_off_c, 0, 60, 64
1, 184, Note_off_c, 0, 62, 64
1, 184, Note_on_c, 0, 74, 50
1, 185, Note_on_c, 0, 62, 45
1, 185, Note_on_c, 0, 73, 68
1, 186, Note_off_c, 0, 61, 64
1, 186, Note_off_c, 0, 74, 64
1, 186, Note_on_c, 0, 80, 44
1, 186, Note_on_c, 0, 95, 26
1, 187, Note_on_c, 0, 61, 47
1, 187, Note_off_c, 0, 62, 64
1, 190, Note_off_c, 0, 61, 64
1, 190, Note_on_c, 0, 62, 46
1, 190, Note_off_c, 0, 73, 64
1, 190, Note_on_c, 0, 74, 61
1, 190, Note_off_c, 0, 80, 64
1, 190, Note_on_c, 0, 81, 41
1, 191, Note_off_c, 0, 95, 64
1, 193, Note_off_c, 0, 62, 64
1, 193, Note_on_c, 0, 67, 53
1, 193, Note_off_c, 0, 74, 64
1, 193, Note_on_c, 0, 79, 79
1, 193, Note_off_c, 0, 81, 64
1, 197, Note_on_c, 0, 65, 38
1, 197, Note_on_c, 0, 66, 41
1, 197, Note_on_c, 0, 78, 45
1, 198, Note_on_c, 0, 76, 36
1, 198, Note_on_c, 0, 77, 38
1, 200, Note_on_c, 0, 80, 56
1, 201, Note_off_c, 0, 65, 64
1, 201, Note_off_c, 0, 76, 64
1, 201, Note_off_c, 0, 77, 64
1, 202, Note_off_c, 0, 66, 64
1, 202, Note_off_c, 0, 80, 64
1, 202, Note_on_c, 0, 86, 63
1, 203, Note_off_c, 0, 78, 64
1, 203, Note_on_c, 0, 90, 57
1, 204, Note_on_c, 0, 66, 39
1, 204, Note_off_c, 0, 67, 64
1, 204, Note_on_c, 0, 78, 65
1, 204, Note_on_c, 0, 85, 77
1, 205, Note_off_c, 0, 79, 64
1, 205, Note_off_c, 0, 86, 64
1, 206, Note_on_c, 0, 94, 40
1, 206, Note_on_c, 0, 95, 33
1, 207, Note_on_c, 0, 67, 34
1, 207, Note_on_c, 0, 79, 66
1, 207, Note_on_c, 0, 86, 70
1, 208, Note_off_c, 0, 66, 64
1, 208, Note_off_c, 0, 78, 64
1, 208, Note_off_c, 0, 90, 64
1, 209, Note_off_c, 0, 79, 64
1, 210, Note_off_c, 0, 67, 64
1, 210, Note_off_c, 0, 85, 64
1, 210, Note_off_c, 0, 86, 64
1, 210, Note_off_c, 0, 94, 64
1, 210, Note_off_c, 0, 95, 64
1, 211, Note_on_c, 0, 66, 34
1, 212, Note_on_c, 0, 64, 54
1, 213, Note_on_c, 0, 63, 52
1, 213, Note_on_c, 0, 65, 45
1, 214, Note_off_c, 0, 66, 64
1, 215, Note_off_c, 0, 63, 64
1, 217, Note_on_c, 0, 63, 50
1, 217, Note_off_c, 0, 65, 64
1, 221, Note_off_c, 0, 63, 64
1, 222, Note_off_c, 0, 64, 64
1, 223, Note_on_c, 0, 87, 22
1, 224, Note_on_c, 0, 63, 54
1, 226, Note_off_c, 0, 87, 64
1, 227, Note_off_c, 0, 63, 64
1, 228, Note_on_c, 0, 63, 43
1, 229, Note_on_c, 0, 62, 31
1, 230, Note_on_c, 0, 60, 41
1, 232, Note_on_c, 0, 61, 37
1, 232, Note_off_c, 0, 62, 64
1, 233, Note_off_c, 0, 60, 64
1, 233, Note_on_c, 0, 62, 43
1, 234, Note_off_c, 0, 63, 64
1, 235, Note_off_c, 0, 61, 64
1, 238, Note_on_c, 0, 60, 32
1, 238, Note_off_c, 0, 62, 64
1, 240, Note_on_c, 0, 58, 40
1, 240, Note_off_c, 0, 60, 64
1, 244, Note_off_c, 0, 58, 64
1, 246, Note_on_c, 0, 63, 40
1, 247, Note_on_c, 0, 61, 40
1, 250, Note_on_c, 0, 62, 36
1, 250, Note_off_c, 0, 63, 64
1, 253, Note_off_c, 0, 62, 64
1, 254, Note_on_c, 0, 74, 37
1, 255, Note_off_c, 0, 61, 64
1, 255, Note_on_c, 0, 62, 36
1, 256, Note_on_c, 0, 61, 33
1, 256, Note_on_c, 0, 73, 35
1, 257, Note_off_c, 0, 62, 64
1, 260, Note_off_c, 0, 61, 64
1, 260, Note_on_c, 0, 62, 30
1, 266, Note_off_c, 0, 62, 64
1, 267, Note_off_c, 0, 73, 64
1, 268, Note_on_c, 0, 73, 19
1, 271, Note_off_c, 0, 73, 64
1, 272, Note_off_c, 0, 74, 64
1, 287, Note_on_c, 0, 64, 41
1, 288, Note_on_c, 0, 62, 50
1, 289, Note_on_c, 0, 61, 49
1, 289, Note_on_c, 0, 63, 41
1, 289, Note_off_c, 0, 64, 64
1, 290, Note_on_c, 0, 80, 36
1, 290, Note_on_c, 0, 81, 39
1, 291, Note_off_c, 0, 63, 64
1, 295, Note_off_c, 0, 61, 64
1, 296, Note_on_c, 0, 61, 53
1, 297, Note_off_c, 0, 62, 64
1, 297, Note_on_c, 0, 74, 41
1, 298, Note_off_c, 0, 61, 64
1, 298, Note_off_c, 0, 80, 64
1, 299, Note_on_c, 0, 61, 52
1, 299, Note_off_c, 0, 74, 64
1, 300, Note_off_c, 0, 81, 64
1, 302, Note_on_c, 0, 58, 48
1, 302, Note_on_c, 0, 60, 49
1, 302, Note_off_c, 0, 61, 64
1, 304, Note_off_c, 0, 60, 64
1, 305, Note_on_c, 0, 59, 56
1, 306, Note_off_c, 0, 58, 64
1, 311, Note_on_c, 0, 60, 24
1, 312, Note_on_c, 0, 62, 41
1, 313, Note_off_c, 0, 59, 64
1, 313, Note_on_c, 0, 61, 43
1, 314, Note_off_c, 0, 60, 64
1, 315, Note_off_c, 0, 62, 64
1, 316, Note_off_c, 0, 61, 64
1, 316, Note_on_c, 0, 62, 42
1, 317, Note_on_c, 0, 61, 37
1, 318, Note_off_c, 0, 62, 64
1, 319, Note_on_c, 0, 60, 37
1, 319, Note_on_c, 0, 62, 64
1, 320, Note_off_c, 0, 61, 64
1, 322, Note_on_c, 0, 61, 43
1, 323, Note_off_c, 0, 60, 64
1, 324, Note_off_c, 0, 61, 64
1, 325, Note_on_c, 0, 81, 30
1, 334, Note_off_c, 0, 81, 64
1, 335, Note_off_c, 0, 62, 64
1, 335, Note_on_c, 0, 86, 74
1, 335, Note_on_c, 0, 87, 35
1, 335, Note_on_c, 0, 88, 37
1, 336, Note_on_c, 0, 61, 30
1, 336, Note_on_c, 0, 62, 41
1, 336, Note_on_c, 0, 80, 39
1, 336, Note_on_c, 0, 81, 59
1, 336, Note_on_c, 0, 85, 49
1, 336, Note_on_c, 0, 89, 58
1, 336, Note_on_c, 0, 90, 45
1, 338, Note_off_c, 0, 87, 64
1, 338, Note_off_c, 0, 88, 64
1, 339, Note_off_c, 0, 61, 64
1, 340, Note_off_c, 0, 80, 64
1, 340, Note_off_c, 0, 85, 64
1, 341, Note_on_c, 0, 61, 60
1, 341, Note_on_c, 0, 80, 14
1, 341, Note_off_c, 0, 90, 64
1, 342, Note_on_c, 0, 63, 36
1, 342, Note_off_c, 0, 89, 64
1, 343, Note_off_c, 0, 62, 64
1, 343, Note_on_c, 0, 64, 49
1, 343, Note_on_c, 0, 76, 50
1, 343, Note_on_c, 0, 83, 53
1, 344, Note_on_c, 0, 62, 44
1, 344, Note_off_c, 0, 80, 64
1, 344, Note_off_c, 0, 81, 64
1, 344, Note_on_c, 0, 82, 28
1, 344, Note_on_c, 0, 87, 35
1, 345, Note_off_c, 0, 61, 64
1, 345, Note_on_c, 0, 81, 55
1, 345, Note_on_c, 0, 90, 46
1, 346, Note_on_c, 0, 89, 52
1, 347, Note_off_c, 0, 63, 64
1, 347, Note_off_c, 0, 64, 64
1, 347, Note_off_c, 0, 76, 64
1, 347, Note_off_c, 0, 82, 64
1, 347, Note_off_c, 0, 83, 64
1, 347, Note_off_c, 0, 87, 64
1, 349, Note_off_c, 0, 89, 64
1, 350, Note_off_c, 0, 81, 64
1, 350, Note_off_c, 0, 86, 64
1, 350, Note_off_c, 0, 90, 64
1, 351, Note_off_c, 0, 62, 64
1, 351, Note_on_c, 0, 64, 47
1, 352, Note_on_c, 0, 63, 37
1, 355, Note_off_c, 0, 63, 64
1, 355, Note_off_c, 0, 64, 64
1, 359, Note_on_c, 0, 58, 45
1, 359, Note_on_c, 0, 77, 45
1, 359, Note_on_c, 0, 82, 42
1, 359, Note_on_c, 0, 86, 27
1, 360, Note_on_c, 0, 92, 18
1, 363, Note_off_c, 0, 86, 64
1, 363, Note_off_c, 0, 92, 64
1, 364, Note_off_c, 0, 77, 64
1, 364, Note_off_c, 0, 82, 64
1, 366, Note_off_c, 0, 58, 64
1, 367, Note_on_c, 0, 58, 48
1, 368, Note_on_c, 0, 77, 54
1, 368, Note_on_c, 0, 86, 50
1, 373, Note_on_c, 0, 92, 11
1, 376, Note_off_c, 0, 86, 64
1, 376, Note_off_c, 0, 92, 64
1, 377, Note_off_c, 0, 58, 64
1, 377, Note_off_c, 0, 77, 64
1, 378, Note_on_c, 0, 60, 31
1, 378, Note_on_c, 0, 61, 48
1, 378, Note_on_c, 0, 62, 54
1, 380, Note_off_c, 0, 60, 64
1, 385, Note_off_c, 0, 61, 64
1, 391, Note_off_c, 0, 62, 64
1, 399, Note_on_c, 0, 78, 12
1, 400, Note_on_c, 0, 59, 55
1, 400, Note_on_c, 0, 70, 47
1, 400, Note_on_c, 0, 77, 29
1, 401, Note_on_c, 0, 58, 57
1, 402, Note_off_c, 0, 59, 64
1, 402, Note_off_c, 0, 78, 64
1, 404, Note_off_c, 0, 77, 64
1, 405, Note_on_c, 0, 60, 33
1, 405, Note_off_c, 0, 70, 64
1, 406, Note_on_c, 0, 57, 39
1, 408, Note_off_c, 0, 57, 64
1, 408, Note_off_c, 0, 60, 64
1, 408, Note_on_c, 0, 77, 17
1, 411, Note_off_c, 0, 58, 64
1, 411, Note_off_c, 0, 77, 64
1, 414, Note_on_c, 0, 60, 46
1, 416, Note_on_c, 0, 59, 52
1, 417, Note_off_c, 0, 60, 64
1, 422, Note_on_c, 0, 68, 36
1, 423, Note_on_c, 0, 56, 42
1, 423, Note_off_c, 0, 59, 64
1, 423, Note_on_c, 0, 69, 34
1, 425, Note_off_c, 0, 56, 64
1, 425, Note_on_c, 0, 57, 43
1, 426, Note_off_c, 0, 68, 64
1, 428, Note_off_c, 0, 69, 64
1, 429, Note_on_c, 0, 58, 29
1, 429, Note_on_c, 0, 59, 24
1, 429, Note_on_c, 0, 60, 30
1, 432, Note_off_c, 0, 60, 64
1, 435, Note_off_c, 0, 57, 64
1, 435, Note_off_c, 0, 59, 64
1, 436, Note_on_c, 0, 57, 34
1, 436, Note_off_c, 0, 58, 64
1, 438, Note_on_c, 0, 53, 29
1, 439, Note_off_c, 0, 57, 64
1, 440, Note_on_c, 0, 55, 24
1, 443, Note_off_c, 0, 55, 64
1, 444, Note_off_c, 0, 53, 64
1, 445, Note_on_c, 0, 54, 29
1, 448, Note_off_c, 0, 54, 64
1, 449, Note_on_c, 0, 52, 35
1, 450, Note_on_c, 0, 71, 11
1, 454, Note_off_c, 0, 52, 64
1, 454, Note_on_c, 0, 58, 46
1, 454, Note_off_c, 0, 71, 64
1, 457, Note_on_c, 0, 57, 46
1, 457, Note_off_c, 0, 58, 64
1, 458, Note_on_c, 0, 58, 33
1, 458, Note_on_c, 0, 60, 32
1, 459, Note_on_c, 0, 56, 49
1, 459, Note_off_c, 0, 57, 64
1, 459, Note_on_c, 0, 59, 42
1, 460, Note_off_c, 0, 58, 64
1, 460, Note_off_c, 0, 60, 64
1, 461, Note_off_c, 0, 59, 64
1, 463, Note_on_c, 0, 51, 30
1, 464, Note_off_c, 0, 56, 64
1, 469, Note_off_c, 0, 51, 64
1, 471, Note_on_c, 0, 57, 40
1, 471, Note_on_c, 0, 76, 34
1, 472, Note_on_c, 0, 81, 32
1, 472, Note_on_c, 0, 85, 21
1, 475, Note_on_c, 0, 56, 45
1, 475, Note_off_c, 0, 57, 64
1, 475, Note_off_c, 0, 85, 64
1, 476, Note_off_c, 0, 76, 64
1, 476, Note_off_c, 0, 81, 64
1, 479, Note_off_c, 0, 56, 64
1, 480, Note_on_c, 0, 63, 30
1, 482, Note_on_c, 0, 51, 30
1, 484, Note_off_c, 0, 63, 64
1, 485, Note_off_c, 0, 51, 64
1, 485, Note_on_c, 0, 63, 30
1, 488, Note_off_c, 0, 63, 64
1, 490, Note_on_c, 0, 53, 24
1, 493, Note_on_c, 0, 54, 22
1, 493, Note_on_c, 0, 55, 33
1, 494, Note_off_c, 0, 53, 64
1, 496, Note_off_c, 0, 54, 64
1, 510, Note_off_c, 0, 55, 64
1, 527, Note_on_c, 0, 63, 58
1, 528, Note_on_c, 0, 86, 34
1, 529, Note_on_c, 0, 62, 61
1, 529, Note_off_c, 0, 63, 64
1, 529, Note_on_c, 0, 81, 23
1, 533, Note_on_c, 0, 61, 54
1, 533, Note_off_c, 0, 62, 64
1, 534, Note_on_c, 0, 62, 33
1, 534, Note_off_c, 0, 81, 64
1, 534, Note_off_c, 0, 86, 64
1, 535, Note_on_c, 0, 60, 38
1, 535, Note_off_c, 0, 61, 64
1, 536, Note_on_c, 0, 61, 55
1, 537, Note_off_c, 0, 62, 64
1, 538, Note_on_c, 0, 62, 35
1, 539, Note_off_c, 0, 60, 64
1, 541, Note_off_c, 0, 62, 64
1, 544, Note_on_c, 0, 100, 21
1, 545, Note_off_c, 0, 61, 64
1, 545, Note_on_c, 0, 99, 14
1, 547, Note_on_c, 0, 62, 53
1, 548, Note_off_c, 0, 99, 64
1, 549, Note_off_c, 0, 62, 64
1, 549, Note_off_c, 0, 100, 64
1, 550, Note_on_c, 0, 68, 57
1, 550, Note_on_c, 0, 80, 66
1, 552, Note_on_c, 0, 67, 61
1, 552, Note_off_c, 0, 68, 64
1, 552, Note_on_c, 0, 79, 71
1, 553, Note_off_c, 0, 80, 64
1, 553, Note_on_c, 0, 86, 34
1, 554, Note_on_c, 0, 78, 58
1, 556, Note_on_c, 0, 66, 46
1, 556, Note_off_c, 0, 78, 64
1, 557, Note_off_c, 0, 79, 64
1, 557, Note_off_c, 0, 86, 64
1, 559, Note_on_c, 0, 64, 65
1, 559, Note_off_c, 0, 67, 64
1, 559, Note_on_c, 0, 99, 21
1, 560, Note_on_c, 0, 65, 51
1, 560, Note_off_c, 0, 66, 64
1, 562, Note_on_c, 0, 63, 54
1, 562, Note_off_c, 0, 65, 64
1, 562, Note_off_c, 0, 99, 64
1, 563, Note_off_c, 0, 64, 64
1, 564, Note_off_c, 0, 63, 64
1, 564, Note_on_c, 0, 64, 68
1, 564, Note_on_c, 0, 76, 82
1, 566, Note_on_c, 0, 95, 42
1, 567, Note_on_c, 0, 83, 41
1, 567, Note_on_c, 0, 92, 43
1, 569, Note_on_c, 0, 91, 48
1, 570, Note_on_c, 0, 75, 43
1, 571, Note_off_c, 0, 92, 64
1, 571, Note_off_c, 0, 95, 64
1, 572, Note_off_c, 0, 75, 64
1, 572, Note_off_c, 0, 91, 64
1, 573, Note_off_c, 0, 83, 64
1, 574, Note_off_c, 0, 64, 64
1, 574, Note_on_c, 0, 68, 45
1, 574, Note_off_c, 0, 76, 64
1, 574, Note_on_c, 0, 79, 74
1, 574, Note_on_c, 0, 80, 50
1, 575, Note_on_c, 0, 67, 34
1, 576, Note_on_c, 0, 66, 51
1, 576, Note_on_c, 0, 78, 70
1, 577, Note_off_c, 0, 67, 64
1, 577, Note_off_c, 0, 68, 64
1, 578, Note_off_c, 0, 66, 64
1, 578, Note_on_c, 0, 67, 50
1, 578, Note_off_c, 0, 78, 64
1, 578, Note_off_c, 0, 80, 64
1, 579, Note_on_c, 0, 78, 74
1, 581, Note_on_c, 0, 85, 64
1, 581, Note_on_c, 0, 86, 70
1, 582, Note_on_c, 0, 66, 36
1, 583, Note_off_c, 0, 67, 64
1, 583, Note_off_c, 0, 79, 64
1, 584, Note_off_c, 0, 66, 64
1, 584, Note_on_c, 0, 79, 70
1, 584, Note_on_c, 0, 94, 49
1, 585, Note_on_c, 0, 66, 45
1, 585, Note_off_c, 0, 79, 64
1, 586, Note_on_c, 0, 67, 50
1, 586, Note_off_c, 0, 86, 64
1, 587, Note_off_c, 0, 85, 64
1, 588, Note_off_c, 0, 78, 64
1, 588, Note_off_c, 0, 94, 64
1, 589, Note_off_c, 0, 66, 64
1, 589, Note_off_c, 0, 67, 64
1, 590, Note_on_c, 0, 79, 41
1, 590, Note_on_c, 0, 85, 47
1, 590, Note_on_c, 0, 86, 60
1, 591, Note_on_c, 0, 76, 29
1, 591, Note_on_c, 0, 77, 30
1, 591, Note_on_c, 0, 78, 53
1, 591, Note_on_c, 0, 83, 34
1, 591, Note_on_c, 0, 84, 44
1, 591, Note_on_c, 0, 87, 42
1, 591, Note_on_c, 0, 88, 34
1, 592, Note_on_c, 0, 82, 37
1, 593, Note_on_c, 0, 66, 31
1, 594, Note_on_c, 0, 67, 47
1, 594, Note_off_c, 0, 79, 64
1, 594, Note_off_c, 0, 86, 64
1, 595, Note_off_c, 0, 76, 64
1, 595, Note_off_c, 0, 77, 64
1, 595, Note_off_c, 0, 82, 64
1, 595, Note_off_c, 0, 83, 64
1, 595, Note_off_c, 0, 84, 64
1, 595, Note_on_c, 0, 86, 27
1, 595, Note_off_c, 0, 87, 64
1, 595, Note_off_c, 0, 88, 64
1, 597, Note_off_c, 0, 66, 64
1, 597, Note_off_c, 0, 78, 64
1, 598, Note_off_c, 0, 67, 64
1, 598, Note_off_c, 0, 86, 64
1, 599, Note_off_c, 0, 85, 64
1, 600, Note_on_c, 0, 64, 81
1, 601, Note_on_c, 0, 87, 27
1, 602, Note_on_c, 0, 88, 18
1, 604, Note_off_c, 0, 87, 64
1, 605, Note_off_c, 0, 64, 64
1, 605, Note_off_c, 0, 88, 64
1, 606, Note_on_c, 0, 67, 42
1, 607, Note_on_c, 0, 63, 60
1, 607, Note_on_c, 0, 64, 54
1, 609, Note_off_c, 0, 67, 64
1, 612, Note_off_c, 0, 64, 64
1, 614, Note_on_c, 0, 62, 37
1, 614, Note_on_c, 0, 74, 51
1, 614, Note_on_c, 0, 81, 37
1, 615, Note_on_c, 0, 73, 62
1, 615, Note_on_c, 0, 80, 52
1, 616, Note_on_c, 0, 61, 49
1, 616, Note_off_c, 0, 62, 64
1, 616, Note_off_c, 0, 63, 64
1, 617, Note_on_c, 0, 62, 58
1, 618, Note_off_c, 0, 61, 64
1, 619, Note_off_c, 0, 73, 64
1, 619, Note_off_c, 0, 80, 64
1, 621, Note_off_c, 0, 74, 64
1, 621, Note_off_c, 0, 81, 64
1, 622, Note_off_c, 0, 62, 64
1, 622, Note_on_c, 0, 64, 57
1, 622, Note_on_c, 0, 65, 52
1, 626, Note_off_c, 0, 65, 64
1, 630, Note_on_c, 0, 74, 46
1, 631, Note_on_c, 0, 61, 32
1, 631, Note_on_c, 0, 62, 32
1, 631, Note_off_c, 0, 64, 64
1, 631, Note_on_c, 0, 73, 38
1, 631, Note_on_c, 0, 80, 12
1, 636, Note_off_c, 0, 73, 64
1, 636, Note_off_c, 0, 80, 64
1, 637, Note_off_c, 0, 61, 64
1, 642, Note_off_c, 0, 62, 64
1, 643, Note_off_c, 0, 74, 64
1, 653, Note_on_c, 0, 61, 50
1, 655, Note_off_c, 0, 61, 64
1, 656, Note_on_c, 0, 59, 60
1, 662, Note_on_c, 0, 57, 31
1, 662, Note_off_c, 0, 59, 64
1, 664, Note_on_c, 0, 59, 52
1, 666, Note_on_c, 0, 71, 61
1, 667, Note_on_c, 0, 58, 40
1, 668, Note_off_c, 0, 57, 64
1, 670, Note_off_c, 0, 58, 64
1, 670, Note_on_c, 0, 78, 26
1, 671, Note_on_c, 0, 97, 12
1, 673, Note_on_c, 0, 58, 40
1, 674, Note_off_c, 0, 59, 64
1, 674, Note_off_c, 0, 78, 64
1, 674, Note_off_c, 0, 97, 64
1, 675, Note_off_c, 0, 71, 64
1, 676, Note_off_c, 0, 58, 64
1, 678, Note_on_c, 0, 62, 53
1, 678, Note_on_c, 0, 63, 42
1, 679, Note_on_c, 0, 61, 53
1, 680, Note_off_c, 0, 63, 64
1, 682, Note_off_c, 0, 61, 64
1, 683, Note_on_c, 0, 60, 31
1, 685, Note_off_c, 0, 62, 64
1, 685, Note_on_c, 0, 63, 68
1, 685, Note_on_c, 0, 76, 75
1, 685, Note_on_c, 0, 82, 71
1, 686, Note_off_c, 0, 60, 64
1, 686, Note_on_c, 0, 87, 49
1, 687, Note_on_c, 0, 75, 71
1, 687, Note_on_c, 0, 83, 67
1, 688, Note_off_c, 0, 83, 64
1, 689, Note_off_c, 0, 76, 64
1, 690, Note_on_c, 0, 83, 53
1, 691, Note_on_c, 0, 64, 74
1, 691, Note_off_c, 0, 87, 64
1, 692, Note_off_c, 0, 75, 64
1, 692, Note_off_c, 0, 82, 64
1, 693, Note_off_c, 0, 83, 64
1, 694, Note_off_c, 0, 63, 64
1, 700, Note_on_c, 0, 63, 61
1, 700, Note_off_c, 0, 64, 64
1, 701, Note_on_c, 0, 83, 50
1, 702, Note_on_c, 0, 82, 63
1, 702, Note_on_c, 0, 86, 40
1, 702, Note_on_c, 0, 87, 49
1, 703, Note_on_c, 0, 72, 30
1, 703, Note_on_c, 0, 79, 42
1, 703, Note_on_c, 0, 80, 34
1, 703, Note_off_c, 0, 83, 64
1, 703, Note_on_c, 0, 85, 38
1, 704, Note_on_c, 0, 73, 30
1, 704, Note_on_c, 0, 74, 31
1, 704, Note_on_c, 0, 76, 74
1, 704, Note_on_c, 0, 81, 33
1, 705, Note_on_c, 0, 64, 47
1, 705, Note_on_c, 0, 83, 66
1, 705, Note_off_c, 0, 87, 64
1, 706, Note_off_c, 0, 72, 64
1, 706, Note_off_c, 0, 73, 64
1, 706, Note_off_c, 0, 74, 64
1, 706, Note_off_c, 0, 79, 64
1, 706, Note_off_c, 0, 80, 64
1, 706, Note_off_c, 0, 81, 64
1, 706, Note_off_c, 0, 85, 64
1, 706, Note_off_c, 0, 86, 64
1, 708, Note_off_c, 0, 63, 64
1, 709, Note_off_c, 0, 82, 64
1, 712, Note_on_c, 0, 67, 36
1, 712, Note_on_c, 0, 79, 83
1, 712, Note_on_c, 0, 86, 73
1, 713, Note_off_c, 0, 64, 64
1, 713, Note_off_c, 0, 76, 64
1, 713, Note_off_c, 0, 83, 64
1, 715, Note_on_c, 0, 78, 57
1, 715, Note_on_c, 0, 85, 46
1, 716, Note_on_c, 0, 84, 34
1, 717, Note_on_c, 0, 64, 39
1, 717, Note_off_c, 0, 67, 64
1, 717, Note_on_c, 0, 76, 70
1, 717, Note_on_c, 0, 77, 51
1, 717, Note_off_c, 0, 79, 64
1, 717, Note_on_c, 0, 83, 52
1, 718, Note_off_c, 0, 78, 64
1, 718, Note_off_c, 0, 85, 64
1, 718, Note_off_c, 0, 86, 64
1, 719, Note_off_c, 0, 77, 64
1, 719, Note_off_c, 0, 84, 64
1, 721, Note_off_c, 0, 64, 64
1, 721, Note_on_c, 0, 75, 71
1, 721, Note_on_c, 0, 82, 58
1, 721, Note_off_c, 0, 83, 64
1, 722, Note_on_c, 0, 64, 45
1, 722, Note_off_c, 0, 76, 64
1, 722, Note_on_c, 0, 83, 57
1, 723, Note_on_c, 0, 65, 44
1, 723, Note_off_c, 0, 75, 64
1, 723, Note_on_c, 0, 76, 63
1, 723, Note_off_c, 0, 82, 64
1, 724, Note_off_c, 0, 64, 64
1, 724, Note_on_c, 0, 67, 63
1, 724, Note_on_c, 0, 68, 41
1, 724, Note_on_c, 0, 87, 14
1, 725, Note_off_c, 0, 76, 64
1, 725, Note_off_c, 0, 83, 64
1, 726, Note_off_c, 0, 65, 64
1, 727, Note_off_c, 0, 68, 64
1, 727, Note_on_c, 0, 86, 40
1, 727, Note_off_c, 0, 87, 64
1, 730, Note_on_c, 0, 65, 20
1, 732, Note_on_c, 0, 78, 45
1, 733, Note_off_c, 0, 67, 64
1, 733, Note_on_c, 0, 76, 44
1, 733, Note_on_c, 0, 77, 35
1, 733, Note_on_c, 0, 83, 50
1, 733, Note_on_c, 0, 84, 43
1, 733, Note_on_c, 0, 85, 36
1, 734, Note_on_c, 0, 64, 74
1, 735, Note_on_c, 0, 63, 34
1, 735, Note_on_c, 0, 75, 34
1, 735, Note_off_c, 0, 86, 64
1, 736, Note_off_c, 0, 65, 64
1, 736, Note_off_c, 0, 77, 64
1, 736, Note_off_c, 0, 78, 64
1, 736, Note_on_c, 0, 82, 33
1, 736, Note_off_c, 0, 84, 64
1, 736, Note_off_c, 0, 85, 64
1, 737, Note_off_c, 0, 63, 64
1, 738, Note_off_c, 0, 83, 64
1, 739, Note_off_c, 0, 75, 64
1, 739, Note_off_c, 0, 82, 64
1, 747, Note_off_c, 0, 64, 64
1, 747, Note_off_c, 0, 76, 64
1, 748, Note_on_c, 0, 65, 54
1, 749, Note_on_c, 0, 63, 55
1, 750, Note_on_c, 0, 64, 58
1, 751, Note_off_c, 0, 65, 64
1, 755, Note_off_c, 0, 63, 64
1, 756, Note_on_c, 0, 58, 57
1, 756, Note_on_c, 0, 62, 35
1, 756, Note_on_c, 0, 63, 39
1, 757, Note_off_c, 0, 64, 64
1, 757, Note_on_c, 0, 71, 28
1, 758, Note_off_c, 0, 62, 64
1, 758, Note_off_c, 0, 63, 64
1, 759, Note_off_c, 0, 58, 64
1, 759, Note_on_c, 0, 59, 58
1, 760, Note_on_c, 0, 87, 10
1, 763, Note_off_c, 0, 87, 64
1, 764, Note_on_c, 0, 61, 37
1, 765, Note_off_c, 0, 59, 64
1, 765, Note_on_c, 0, 62, 36
1, 765, Note_off_c, 0, 71, 64
1, 765, Note_on_c, 0, 74, 39
1, 768, Note_off_c, 0, 62, 64
1, 768, Note_on_c, 0, 81, 34
1, 769, Note_off_c, 0, 61, 64
1, 769, Note_on_c, 0, 80, 15
1, 770, Note_on_c, 0, 61, 39
1, 771, Note_on_c, 0, 62, 37
1, 772, Note_off_c, 0, 61, 64
1, 772, Note_off_c, 0, 80, 64
1, 773, Note_on_c, 0, 61, 34
1, 773, Note_off_c, 0, 62, 64
1, 773, Note_on_c, 0, 73, 47
1, 773, Note_off_c, 0, 74, 64
1, 773, Note_on_c, 0, 80, 29
1, 775, Note_off_c, 0, 61, 64
1, 775, Note_on_c, 0, 62, 33
1, 775, Note_on_c, 0, 74, 37
1, 775, Note_off_c, 0, 80, 64
1, 775, Note_on_c, 0, 90, 15
1, 776, Note_off_c, 0, 73, 64
1, 781, Note_off_c, 0, 90, 64
1, 784, Note_off_c, 0, 81, 64
1, 785, Note_off_c, 0, 62, 64
1, 786, Note_on_c, 0, 62, 23
1, 788, Note_off_c, 0, 74, 64
1, 789, Note_off_c, 0, 62, 64
1, 806, Note_on_c, 0, 76, 36
1, 806, Note_on_c, 0, 77, 37
1, 806, Note_on_c, 0, 78, 35
1, 807, Note_on_c, 0, 63, 64
1, 808, Note_off_c, 0, 77, 64
1, 808, Note_off_c, 0, 78, 64
1, 808, Note_on_c, 0, 82, 18
1, 809, Note_off_c, 0, 76, 64
1, 810, Note_on_c, 0, 62, 59
1, 810, Note_off_c, 0, 63, 64
1, 810, Note_on_c, 0, 81, 16
1, 811, Note_off_c, 0, 82, 64
1, 818, Note_on_c, 0, 61, 50
1, 818, Note_off_c, 0, 62, 64
1, 818, Note_on_c, 0, 73, 50
1, 818, Note_on_c, 0, 80, 28
1, 818, Note_off_c, 0, 81, 64
1, 820, Note_on_c, 0, 57, 22
1, 820, Note_on_c, 0, 72, 36
1, 820, Note_off_c, 0, 73, 64
1, 821, Note_off_c, 0, 61, 64
1, 822, Note_on_c, 0, 58, 30
1, 822, Note_on_c, 0, 70, 51
1, 822, Note_off_c, 0, 72, 64
1, 822, Note_off_c, 0, 80, 64
1, 823, Note_off_c, 0, 57, 64
1, 823, Note_on_c, 0, 59, 48
1, 824, Note_off_c, 0, 58, 64
1, 826, Note_on_c, 0, 78, 24
1, 827, Note_off_c, 0, 70, 64
1, 827, Note_on_c, 0, 71, 49
1, 830, Note_off_c, 0, 78, 64
1, 831, Note_off_c, 0, 59, 64
1, 831, Note_on_c, 0, 61, 38
1, 831, Note_on_c, 0, 62, 34
1, 832, Note_off_c, 0, 71, 64
1, 833, Note_off_c, 0, 62, 64
1, 833, Note_on_c, 0, 74, 14
1, 834, Note_on_c, 0, 62, 38
1, 836, Note_on_c, 0, 60, 39
1, 836, Note_off_c, 0, 61, 64
1, 836, Note_off_c, 0, 74, 64
1, 837, Note_on_c, 0, 63, 38
1, 838, Note_on_c, 0, 61, 39
1, 838, Note_off_c, 0, 62, 64
1, 838, Note_on_c, 0, 80, 27
1, 839, Note_off_c, 0, 60, 64
1, 839, Note_on_c, 0, 62, 71
1, 839, Note_on_c, 0, 81, 27
1, 840, Note_off_c, 0, 63, 64
1, 842, Note_off_c, 0, 61, 64
1, 843, Note_off_c, 0, 80, 64
1, 844, Note_off_c, 0, 81, 64
1, 848, Note_on_c, 0, 81, 20
1, 852, Note_off_c, 0, 81, 64
1, 853, Note_off_c, 0, 62, 64
1, 854, Note_on_c, 0, 64, 71
1, 854, Note_on_c, 0, 65, 50
1, 856, Note_on_c, 0, 98, 16
1, 856, Note_on_c, 0, 100, 46
1, 857, Note_off_c, 0, 65, 64
1, 859, Note_off_c, 0, 98, 64
1, 860, Note_on_c, 0, 63, 30
1, 860, Note_off_c, 0, 100, 64
1, 861, Note_on_c, 0, 62, 64
1, 861, Note_on_c, 0, 74, 65
1, 862, Note_off_c, 0, 64, 64
1, 862, Note_on_c, 0, 81, 51
1, 864, Note_off_c, 0, 63, 64
1, 868, Note_off_c, 0, 74, 64
1, 868, Note_off_c, 0, 81, 64
1, 871, Note_on_c, 0, 63, 37
1, 872, Note_off_c, 0, 62, 64
1, 872, Note_on_c, 0, 64, 56
1, 873, Note_off_c, 0, 63, 64
1, 876, Note_on_c, 0, 57, 36
1, 876, Note_on_c, 0, 81, 38
1, 876, Note_on_c, 0, 85, 46
1, 876, Note_on_c, 0, 88, 42
1, 877, Note_off_c, 0, 64, 64
1, 877, Note_on_c, 0, 77, 45
1, 877, Note_on_c, 0, 82, 52
1, 877, Note_on_c, 0, 91, 30
1, 878, Note_on_c, 0, 86, 51
1, 878, Note_on_c, 0, 89, 48
1, 879, Note_off_c, 0, 57, 64
1, 879, Note_on_c, 0, 58, 38
1, 879, Note_on_c, 0, 92, 29
1, 880, Note_off_c, 0, 81, 64
1, 880, Note_off_c, 0, 85, 64
1, 880, Note_off_c, 0, 88, 64
1, 880, Note_off_c, 0, 91, 64
1, 883, Note_off_c, 0, 86, 64
1, 883, Note_off_c, 0, 89, 64
1, 883, Note_off_c, 0, 92, 64
1, 884, Note_off_c, 0, 58, 64
1, 884, Note_off_c, 0, 77, 64
1, 884, Note_off_c, 0, 82, 64
1, 886, Note_on_c, 0, 62, 46
1, 897, Note_on_c, 0, 61, 34
1, 897, Note_off_c, 0, 62, 64
1, 898, Note_on_c, 0, 62, 31
1, 902, Note_off_c, 0, 62, 64
1, 903, Note_on_c, 0, 62, 39
1, 904, Note_off_c, 0, 61, 64
1, 906, Note_off_c, 0, 62, 64
1, 914, Note_on_c, 0, 63, 29
1, 915, Note_on_c, 0, 51, 29
1, 917, Note_off_c, 0, 51, 64
1, 918, Note_on_c, 0, 51, 29
1, 925, Note_on_c, 0, 53, 26
1, 926, Note_on_c, 0, 52, 17
1, 927, Note_off_c, 0, 51, 64
1, 927, Note_off_c, 0, 63, 64
1, 929, Note_off_c, 0, 52, 64
1, 929, Note_off_c, 0, 53, 64
1, 937, Note_on_c, 0, 55, 44
1, 937, Note_on_c, 0, 66, 26
1, 939, Note_on_c, 0, 56, 45
1, 940, Note_off_c, 0, 55, 64
1, 941, Note_off_c, 0, 56, 64
1, 942, Note_on_c, 0, 54, 43
1, 944, Note_off_c, 0, 54, 64
1, 944, Note_on_c, 0, 55, 32
1, 944, Note_off_c, 0, 66, 64
1, 945, Note_on_c, 0, 57, 41
1, 945, Note_on_c, 0, 68, 32
1, 945, Note_on_c, 0, 75, 47
1, 945, Note_on_c, 0, 76, 38
1, 945, Note_on_c, 0, 80, 37
1, 946, Note_off_c, 0, 55, 64
1, 947, Note_on_c, 0, 56, 44
1, 947, Note_off_c, 0, 57, 64
1, 947, Note_off_c, 0, 76, 64
1, 949, Note_on_c, 0, 57, 41
1, 949, Note_off_c, 0, 80, 64
1, 950, Note_on_c, 0, 55, 24
1, 950, Note_off_c, 0, 56, 64
1, 950, Note_off_c, 0, 68, 64
1, 950, Note_off_c, 0, 75, 64
1, 952, Note_on_c, 0, 56, 42
1, 952, Note_off_c, 0, 57, 64
1, 952, Note_on_c, 0, 58, 40
1, 953, Note_off_c, 0, 55, 64
1, 954, Note_off_c, 0, 58, 64
1, 955, Note_off_c, 0, 56, 64
1, 955, Note_on_c, 0, 68, 14
1, 956, Note_on_c, 0, 56, 46
1, 958, Note_off_c, 0, 56, 64
1, 958, Note_on_c, 0, 57, 36
1, 959, Note_off_c, 0, 68, 64
1, 960, Note_off_c, 0, 57, 64
1, 960, Note_on_c, 0, 63, 56
1, 963, Note_on_c, 0, 81, 30
1, 964, Note_on_c, 0, 62, 54
1, 964, Note_off_c, 0, 63, 64
1, 965, Note_on_c, 0, 80, 13
1, 966, Note_on_c, 0, 60, 40
1, 967, Note_on_c, 0, 61, 37
1, 967, Note_on_c, 0, 63, 39
1, 968, Note_off_c, 0, 60, 64
1, 969, Note_off_c, 0, 81, 64
1, 970, Note_off_c, 0, 63, 64
1, 970, Note_off_c, 0, 80, 64
1, 971, Note_off_c, 0, 61, 64
1, 972, Note_on_c, 0, 100, 13
1, 975, Note_off_c, 0, 100, 64
1, 976, Note_off_c, 0, 62, 64
1, 977, Note_on_c, 0, 64, 24
1, 977, Note_on_c, 0, 65, 37
1, 978, Note_on_c, 0, 62, 43
1, 978, Note_on_c, 0, 63, 41
1, 979, Note_on_c, 0, 60, 41
1, 980, Note_off_c, 0, 64, 64
1, 980, Note_off_c, 0, 65, 64
1, 981, Note_off_c, 0, 60, 64
1, 983, Note_off_c, 0, 63, 64
1, 984, Note_on_c, 0, 73, 44
1, 986, Note_off_c, 0, 62, 64
1, 986, Note_off_c, 0, 73, 64
1, 986, Note_on_c, 0, 78, 34
1, 988, Note_on_c, 0, 58, 50
1, 988, Note_on_c, 0, 70, 55
1, 988, Note_on_c, 0, 77, 48
1, 988, Note_off_c, 0, 78, 64
1, 988, Note_on_c, 0, 86, 28
1, 992, Note_off_c, 0, 58, 64
1, 992, Note_off_c, 0, 70, 64
1, 992, Note_off_c, 0, 77, 64
1, 992, Note_off_c, 0, 86, 64
1, 993, Note_on_c, 0, 59, 20
1, 994, Note_on_c, 0, 60, 33
1, 995, Note_on_c, 0, 57, 32
1, 996, Note_off_c, 0, 59, 64
1, 997, Note_off_c, 0, 60, 64
1, 998, Note_on_c, 0, 56, 30
1, 998, Note_off_c, 0, 57, 64
1, 1001, Note_on_c, 0, 63, 20
1, 1002, Note_off_c, 0, 56, 64
1, 1002, Note_on_c, 0, 64, 12
1, 1005, Note_off_c, 0, 64, 64
1, 1006, Note_off_c, 0, 63, 64
1, 1010, Note_on_c, 0, 57, 12
1, 1011, Note_on_c, 0, 58, 24
1, 1013, Note_off_c, 0, 57, 64
1, 1014, Note_off_c, 0, 58, 64
1, 1015, Note_on_c, 0, 57, 31
1, 1018, Note_on_c, 0, 54, 26
1, 1018, Note_off_c, 0, 57, 64
1, 1022, Note_off_c, 0, 54, 64
1, 1022, Note_on_c, 0, 55, 23
1, 1023, Note_on_c, 0, 54, 21
1, 1026, Note_off_c, 0, 54, 64
1, 1031, Note_off_c, 0, 55, 64
1, 1056, Note_on_c, 0, 52, 41
1, 1056, Note_on_c, 0, 63, 52
1, 1058, Note_on_c, 0, 51, 44
1, 1058, Note_off_c, 0, 52, 64
1, 1061, Note_on_c, 0, 52, 39
1, 1062, Note_off_c, 0, 63, 64
1, 1065, Note_off_c, 0, 52, 64
1, 1069, Note_off_c, 0, 51, 64
1, 1073, Note_on_c, 0, 62, 58
1, 1073, Note_on_c, 0, 63, 45
1, 1075, Note_off_c, 0, 63, 64
1, 1081, Note_off_c, 0, 62, 64
1, 1081, Note_on_c, 0, 71, 60
1, 1082, Note_on_c, 0, 59, 48
1, 1083, Note_on_c, 0, 78, 29
1, 1083, Note_on_c, 0, 95, 21
1, 1084, Note_on_c, 0, 92, 31
1, 1086, Note_off_c, 0, 95, 64
1, 1087, Note_on_c, 0, 60, 28
1, 1087, Note_on_c, 0, 70, 38
1, 1087, Note_on_c, 0, 74, 33
1, 1087, Note_off_c, 0, 78, 64
1, 1088, Note_on_c, 0, 62, 32
1, 1088, Note_on_c, 0, 73, 30
1, 1089, Note_off_c, 0, 70, 64
1, 1089, Note_on_c, 0, 78, 25
1, 1090, Note_off_c, 0, 60, 64
1, 1090, Note_off_c, 0, 62, 64
1, 1090, Note_off_c, 0, 74, 64
1, 1091, Note_off_c, 0, 73, 64
1, 1091, Note_off_c, 0, 92, 64
1, 1092, Note_on_c, 0, 77, 30
1, 1093, Note_on_c, 0, 60, 48
1, 1094, Note_on_c, 0, 61, 39
1, 1094, Note_on_c, 0, 62, 68
1, 1094, Note_on_c, 0, 63, 67
1, 1094, Note_off_c, 0, 77, 64
1, 1094, Note_off_c, 0, 78, 64
1, 1095, Note_off_c, 0, 59, 64
1, 1095, Note_off_c, 0, 71, 64
1, 1096, Note_off_c, 0, 61, 64
1, 1097, Note_off_c, 0, 60, 64
1, 1097, Note_on_c, 0, 86, 65
1, 1098, Note_off_c, 0, 63, 64
1, 1098, Note_on_c, 0, 81, 51
1, 1102, Note_on_c, 0, 87, 54
1, 1103, Note_on_c, 0, 90, 46
1, 1106, Note_off_c, 0, 87, 64
1, 1110, Note_on_c, 0, 61, 60
1, 1110, Note_off_c, 0, 62, 64
1, 1110, Note_off_c, 0, 86, 64
1, 1110, Note_off_c, 0, 90, 64
1, 1111, Note_off_c, 0, 81, 64
1, 1112, Note_on_c, 0, 59, 64
1, 1112, Note_off_c, 0, 61, 64
1, 1112, Note_on_c, 0, 78, 23
1, 1113, Note_on_c, 0, 87, 22
1, 1117, Note_on_c, 0, 58, 45
1, 1117, Note_off_c, 0, 59, 64
1, 1117, Note_off_c, 0, 78, 64
1, 1117, Note_off_c, 0, 87, 64
1, 1118, Note_on_c, 0, 59, 44
1, 1119, Note_off_c, 0, 58, 64
1, 1123, Note_on_c, 0, 58, 45
1, 1124, Note_off_c, 0, 59, 64
1, 1126, Note_on_c, 0, 56, 49
1, 1126, Note_on_c, 0, 57, 50
1, 1127, Note_off_c, 0, 58, 64
1, 1129, Note_off_c, 0, 57, 64
1, 1130, Note_off_c, 0, 56, 64
1, 1130, Note_on_c, 0, 57, 54
1, 1133, Note_off_c, 0, 57, 64
1, 1133, Note_on_c, 0, 59, 48
1, 1133, Note_on_c, 0, 78, 47
1, 1133, Note_on_c, 0, 83, 53
1, 1133, Note_on_c, 0, 87, 55
1, 1133, Note_on_c, 0, 90, 52
1, 1133, Note_on_c, 0, 93, 36
1, 1135, Note_on_c, 0, 82, 51
1, 1135, Note_on_c, 0, 86, 48
1, 1135, Note_on_c, 0, 92, 39
1, 1136, Note_off_c, 0, 83, 64
1, 1137, Note_off_c, 0, 90, 64
1, 1137, Note_off_c, 0, 93, 64
1, 1138, Note_off_c, 0, 86, 64
1, 1138, Note_off_c, 0, 87, 64
1, 1139, Note_on_c, 0, 60, 30
1, 1139, Note_on_c, 0, 61, 30
1, 1139, Note_on_c, 0, 62, 68
1, 1139, Note_off_c, 0, 78, 64
1, 1139, Note_off_c, 0, 82, 64
1, 1139, Note_off_c, 0, 92, 64
1, 1140, Note_off_c, 0, 59, 64
1, 1141, Note_off_c, 0, 60, 64
1, 1141, Note_off_c, 0, 61, 64
1, 1148, Note_on_c, 0, 60, 34
1, 1150, Note_on_c, 0, 61, 33
1, 1152, Note_on_c, 0, 59, 43
1, 1152, Note_off_c, 0, 61, 64
1, 1153, Note_off_c, 0, 60, 64
1, 1153, Note_off_c, 0, 62, 64
1, 1154, Note_on_c, 0, 70, 25
1, 1155, Note_on_c, 0, 56, 38
1, 1155, Note_off_c, 0, 59, 64
1, 1156, Note_on_c, 0, 75, 31
1, 1156, Note_on_c, 0, 76, 24
1, 1157, Note_off_c, 0, 70, 64
1, 1157, Note_on_c, 0, 81, 28
1, 1157, Note_on_c, 0, 84, 36
1, 1158, Note_on_c, 0, 90, 15
1, 1159, Note_off_c, 0, 76, 64
1, 1160, Note_off_c, 0, 56, 64
1, 1160, Note_on_c, 0, 57, 37
1, 1161, Note_off_c, 0, 75, 64
1, 1161, Note_off_c, 0, 84, 64
1, 1161, Note_off_c, 0, 90, 64
1, 1162, Note_off_c, 0, 57, 64
1, 1162, Note_off_c, 0, 81, 64
1, 1164, Note_on_c, 0, 59, 47
1, 1171, Note_on_c, 0, 63, 36
1, 1172, Note_off_c, 0, 59, 64
1, 1172, Note_on_c, 0, 62, 37
1, 1177, Note_off_c, 0, 63, 64
1, 1184, Note_off_c, 0, 62, 64
1, 1195, Note_on_c, 0, 52, 43
1, 1199, Note_on_c, 0, 51, 33
1, 1199, Note_off_c, 0, 52, 64
1, 1204, Note_off_c, 0, 51, 64
1, 1204, Note_on_c, 0, 52, 26
1, 1206, Note_on_c, 0, 55, 24
1, 1209, Note_off_c, 0, 55, 64
1, 1210, Note_off_c, 0, 52, 64
1, 1212, Note_on_c, 0, 64, 22
1, 1213, Note_on_c, 0, 52, 27
1, 1216, Note_off_c, 0, 64, 64
1, 1217, Note_off_c, 0, 52, 64
1, 1218, Note_on_c, 0, 79, 33
1, 1218, Note_on_c, 0, 83, 41
1, 1218, Note_on_c, 0, 86, 39
1, 1218, Note_on_c, 0, 89, 35
1, 1219, Note_on_c, 0, 55, 36
1, 1219, Note_on_c, 0, 74, 23
1, 1223, Note_off_c, 0, 55, 64
1, 1223, Note_off_c, 0, 86, 64
1, 1223, Note_off_c, 0, 89, 64
1, 1224, Note_off_c, 0, 74, 64
1, 1224, Note_off_c, 0, 79, 64
1, 1224, Note_off_c, 0, 83, 64
1, 1226, Note_on_c, 0, 58, 42
1, 1228, Note_on_c, 0, 57, 47
1, 1228, Note_off_c, 0, 58, 64
1, 1233, Note_on_c, 0, 56, 40
1, 1233, Note_off_c, 0, 57, 64
1, 1234, Note_on_c, 0, 57, 36
1, 1234, Note_on_c, 0, 70, 25
1, 1236, Note_off_c, 0, 57, 64
1, 1237, Note_on_c, 0, 57, 55
1, 1237, Note_off_c, 0, 70, 64
1, 1238, Note_off_c, 0, 56, 64
1, 1241, Note_on_c, 0, 58, 36
1, 1242, Note_off_c, 0, 57, 64
1, 1242, Note_on_c, 0, 60, 46
1, 1244, Note_off_c, 0, 58, 64
1, 1244, Note_on_c, 0, 59, 53
1, 1245, Note_off_c, 0, 60, 64
1, 1249, Note_on_c, 0, 64, 48
1, 1250, Note_off_c, 0, 59, 64
1, 1250, Note_on_c, 0, 63, 73
1, 1252, Note_off_c, 0, 64, 64
1, 1252, Note_on_c, 0, 87, 34
1, 1257, Note_off_c, 0, 87, 64
1, 1258, Note_on_c, 0, 60, 37
1, 1258, Note_on_c, 0, 62, 36
1, 1258, Note_off_c, 0, 63, 64
1, 1259, Note_on_c, 0, 59, 35
1, 1261, Note_off_c, 0, 62, 64
1, 1262, Note_on_c, 0, 58, 33
1, 1262, Note_off_c, 0, 59, 64
1, 1263, Note_on_c, 0, 59, 47
1, 1263, Note_off_c, 0, 60, 64
1, 1265, Note_off_c, 0, 58, 64
1, 1265, Note_on_c, 0, 78, 62
1, 1266, Note_on_c, 0, 87, 72
1, 1273, Note_on_c, 0, 58, 22
1, 1273, Note_off_c, 0, 59, 64
1, 1273, Note_off_c, 0, 78, 64
1, 1273, Note_off_c, 0, 87, 64
1, 1274, Note_on_c, 0, 59, 35
1, 1275, Note_on_c, 0, 57, 38
1, 1276, Note_off_c, 0, 58, 64
1, 1277, Note_off_c, 0, 59, 64
1, 1282, Note_off_c, 0, 57, 64
1, 1284, Note_on_c, 0, 52, 31
1, 1288, Note_off_c, 0, 52, 64
1, 1290, Note_on_c, 0, 51, 26
1, 1298, Note_off_c, 0, 51, 64
1, 1301, Note_on_c, 0, 53, 20
1, 1301, Note_on_c, 0, 56, 22
1, 1303, Note_on_c, 0, 55, 25
1, 1304, Note_off_c, 0, 56, 64
1, 1305, Note_off_c, 0, 53, 64
1, 1320, Note_off_c, 0, 55, 64
1, 1337, Note_on_c, 0, 63, 60
1, 1339, Note_on_c, 0, 62, 68
1, 1339, Note_off_c, 0, 63, 64
1, 1339, Note_on_c, 0, 102, 28
1, 1350, Note_off_c, 0, 102, 64
1, 1352, Note_off_c, 0, 62, 64
1, 1353, Note_on_c, 0, 65, 40
1, 1354, Note_on_c, 0, 76, 67
1, 1355, Note_on_c, 0, 64, 56
1, 1355, Note_off_c, 0, 65, 64
1, 1355, Note_on_c, 0, 83, 83
1, 1358, Note_on_c, 0, 88, 72
1, 1361, Note_on_c, 0, 92, 52
1, 1362, Note_on_c, 0, 102, 17
1, 1365, Note_on_c, 0, 84, 42
1, 1365, Note_on_c, 0, 85, 58
1, 1366, Note_on_c, 0, 66, 19
1, 1366, Note_on_c, 0, 77, 33
1, 1366, Note_on_c, 0, 78, 39
1, 1366, Note_on_c, 0, 79, 51
1, 1366, Note_on_c, 0, 86, 63
1, 1366, Note_off_c, 0, 102, 64
1, 1367, Note_off_c, 0, 92, 64
1, 1368, Note_on_c, 0, 92, 56
1, 1369, Note_off_c, 0, 66, 64
1, 1369, Note_off_c, 0, 79, 64
1, 1370, Note_off_c, 0, 77, 64
1, 1370, Note_off_c, 0, 78, 64
1, 1370, Note_off_c, 0, 84, 64
1, 1370, Note_off_c, 0, 85, 64
1, 1370, Note_off_c, 0, 86, 64
1, 1370, Note_on_c, 0, 102, 23
1, 1374, Note_on_c, 0, 65, 37
1, 1374, Note_on_c, 0, 67, 65
1, 1374, Note_off_c, 0, 102, 64
1, 1375, Note_on_c, 0, 68, 43
1, 1375, Note_off_c, 0, 88, 64
1, 1376, Note_off_c, 0, 64, 64
1, 1376, Note_off_c, 0, 76, 64
1, 1376, Note_off_c, 0, 83, 64
1, 1376, Note_off_c, 0, 92, 64
1, 1377, Note_off_c, 0, 65, 64
1, 1377, Note_off_c, 0, 68, 64
1, 1380, Note_on_c, 0, 65, 55
1, 1382, Note_off_c, 0, 67, 64
1, 1384, Note_on_c, 0, 64, 75
1, 1386, Note_off_c, 0, 65, 64
1, 1387, Note_on_c, 0, 76, 76
1, 1388, Note_on_c, 0, 83, 71
1, 1388, Note_on_c, 0, 88, 76
1, 1395, Note_off_c, 0, 83, 64
1, 1396, Note_off_c, 0, 88, 64
1, 1397, Note_on_c, 0, 65, 45
1, 1397, Note_off_c, 0, 76, 64
1, 1399, Note_off_c, 0, 65, 64
1, 1403, Note_on_c, 0, 60, 46
1, 1404, Note_on_c, 0, 61, 36
1, 1404, Note_on_c, 0, 62, 74
1, 1404, Note_off_c, 0, 64, 64
1, 1405, Note_on_c, 0, 64, 22
1, 1406, Note_off_c, 0, 61, 64
1, 1407, Note_off_c, 0, 60, 64
1, 1408, Note_off_c, 0, 64, 64
1, 1412, Note_on_c, 0, 67, 53
1, 1413, Note_off_c, 0, 62, 64
1, 1413, Note_on_c, 0, 79, 72
1, 1413, Note_on_c, 0, 98, 27
1, 1414, Note_on_c, 0, 86, 62
1, 1414, Note_on_c, 0, 94, 37
1, 1414, Note_on_c, 0, 95, 31
1, 1417, Note_on_c, 0, 66, 19
1, 1417, Note_on_c, 0, 78, 41
1, 1417, Note_on_c, 0, 85, 47
1, 1417, Note_on_c, 0, 90, 41
1, 1417, Note_off_c, 0, 94, 64
1, 1417, Note_off_c, 0, 95, 64
1, 1418, Note_on_c, 0, 65, 25
1, 1418, Note_on_c, 0, 77, 38
1, 1418, Note_on_c, 0, 84, 50
1, 1418, Note_off_c, 0, 98, 64
1, 1419, Note_off_c, 0, 67, 64
1, 1419, Note_on_c, 0, 80, 58
1, 1419, Note_on_c, 0, 87, 44
1, 1420, Note_on_c, 0, 67, 54
1, 1420, Note_off_c, 0, 90, 64
1, 1421, Note_off_c, 0, 65, 64
1, 1421, Note_off_c, 0, 66, 64
1, 1421, Note_off_c, 0, 77, 64
1, 1421, Note_off_c, 0, 78, 64
1, 1421, Note_off_c, 0, 84, 64
1, 1422, Note_off_c, 0, 80, 64
1, 1422, Note_off_c, 0, 86, 64
1, 1422, Note_off_c, 0, 87, 64
1, 1423, Note_off_c, 0, 85, 64
1, 1423, Note_on_c, 0, 86, 18
1, 1426, Note_off_c, 0, 86, 64
1, 1427, Note_off_c, 0, 67, 64
1, 1427, Note_off_c, 0, 79, 64
1, 1429, Note_on_c, 0, 64, 72
1, 1429, Note_on_c, 0, 76, 72
1, 1433, Note_on_c, 0, 83, 68
1, 1441, Note_off_c, 0, 83, 64
1, 1442, Note_on_c, 0, 62, 44
1, 1442, Note_on_c, 0, 63, 49
1, 1442, Note_off_c, 0, 76, 64
1, 1443, Note_off_c, 0, 64, 64
1, 1444, Note_on_c, 0, 61, 42
1, 1446, Note_off_c, 0, 63, 64
1, 1448, Note_off_c, 0, 61, 64
1, 1450, Note_on_c, 0, 74, 45
1, 1453, Note_on_c, 0, 81, 10
1, 1457, Note_off_c, 0, 81, 64
1, 1461, Note_off_c, 0, 74, 64
1, 1463, Note_off_c, 0, 62, 64
1, 1472, Note_on_c, 0, 65, 57
1, 1473, Note_on_c, 0, 64, 79
1, 1475, Note_off_c, 0, 65, 64
1, 1475, Note_on_c, 0, 83, 64
1, 1475, Note_on_c, 0, 92, 50
1, 1475, Note_on_c, 0, 98, 20
1, 1475, Note_on_c, 0, 102, 15
1, 1479, Note_off_c, 0, 98, 64
1, 1479, Note_off_c, 0, 102, 64
1, 1480, Note_off_c, 0, 92, 64
1, 1482, Note_off_c, 0, 83, 64
1, 1488, Note_off_c, 0, 64, 64
1, 1488, Note_on_c, 0, 65, 41
1, 1489, Note_on_c, 0, 64, 65
1, 1489, Note_on_c, 0, 66, 43
1, 1489, Note_on_c, 0, 67, 47
1, 1491, Note_off_c, 0, 66, 64
1, 1491, Note_off_c, 0, 67, 64
1, 1491, Note_on_c, 0, 100, 15
1, 1492, Note_off_c, 0, 65, 64
1, 1494, Note_off_c, 0, 100, 64
1, 1495, Note_on_c, 0, 57, 38
1, 1495, Note_on_c, 0, 59, 33
1, 1495, Note_on_c, 0, 60, 34
1, 1495, Note_on_c, 0, 61, 28
1, 1495, Note_off_c, 0, 64, 64
1, 1495, Note_on_c, 0, 70, 22
1, 1496, Note_on_c, 0, 62, 49
1, 1497, Note_off_c, 0, 57, 64
1, 1497, Note_off_c, 0, 59, 64
1, 1498, Note_off_c, 0, 60, 64
1, 1498, Note_off_c, 0, 61, 64
1, 1498, Note_off_c, 0, 70, 64
1, 1498, Note_on_c, 0, 81, 38
1, 1503, Note_off_c, 0, 62, 64
1, 1503, Note_off_c, 0, 81, 64
1, 1503, Note_on_c, 0, 87, 63
1, 1503, Note_on_c, 0, 88, 80
1, 1503, Note_on_c, 0, 91, 41
1, 1504, Note_on_c, 0, 64, 67
1, 1504, Note_on_c, 0, 83, 62
1, 1504, Note_on_c, 0, 92, 56
1, 1506, Note_off_c, 0, 87, 64
1, 1506, Note_off_c, 0, 91, 64
1, 1508, Note_on_c, 0, 63, 33
1, 1508, Note_on_c, 0, 74, 31
1, 1510, Note_off_c, 0, 83, 64
1, 1510, Note_off_c, 0, 88, 64
1, 1510, Note_off_c, 0, 92, 64
1, 1511, Note_off_c, 0, 63, 64
1, 1511, Note_off_c, 0, 74, 64
1, 1513, Note_on_c, 0, 100, 30
1, 1518, Note_off_c, 0, 100, 64
1, 1519, Note_off_c, 0, 64, 64
1, 1519, Note_on_c, 0, 67, 62
1, 1519, Note_on_c, 0, 68, 59
1, 1525, Note_off_c, 0, 68, 64
1, 1527, Note_on_c, 0, 95, 18
1, 1530, Note_off_c, 0, 95, 64
1, 1533, Note_on_c, 0, 65, 57
1, 1535, Note_on_c, 0, 66, 45
1, 1536, Note_off_c, 0, 67, 64
1, 1537, Note_on_c, 0, 64, 74
1, 1537, Note_off_c, 0, 66, 64
1, 1537, Note_on_c, 0, 101, 19
1, 1540, Note_off_c, 0, 65, 64
1, 1540, Note_on_c, 0, 76, 78
1, 1540, Note_off_c, 0, 101, 64
1, 1541, Note_on_c, 0, 83, 65
1, 1541, Note_on_c, 0, 87, 63
1, 1545, Note_off_c, 0, 87, 64
1, 1549, Note_off_c, 0, 83, 64
1, 1550, Note_off_c, 0, 76, 64
1, 1551, Note_on_c, 0, 83, 27
1, 1551, Note_on_c, 0, 85, 36
1, 1551, Note_on_c, 0, 86, 57
1, 1551, Note_on_c, 0, 87, 31
1, 1551, Note_on_c, 0, 88, 32
1, 1552, Note_on_c, 0, 63, 23
1, 1552, Note_off_c, 0, 64, 64
1, 1552, Note_on_c, 0, 81, 52
1, 1552, Note_on_c, 0, 82, 22
1, 1552, Note_on_c, 0, 90, 38
1, 1552, Note_on_c, 0, 91, 19
1, 1553, Note_on_c, 0, 74, 35
1, 1554, Note_off_c, 0, 83, 64
1, 1554, Note_off_c, 0, 88, 64
1, 1555, Note_off_c, 0, 91, 64
1, 1556, Note_on_c, 0, 62, 36
1, 1556, Note_off_c, 0, 63, 64
1, 1556, Note_off_c, 0, 82, 64
1, 1556, Note_off_c, 0, 85, 64
1, 1556, Note_off_c, 0, 87, 64
1, 1556, Note_on_c, 0, 89, 24
1, 1557, Note_on_c, 0, 73, 29
1, 1557, Note_on_c, 0, 85, 48
1, 1559, Note_on_c, 0, 92, 23
1, 1560, Note_off_c, 0, 73, 64
1, 1561, Note_on_c, 0, 59, 45
1, 1561, Note_off_c, 0, 62, 64
1, 1561, Note_on_c, 0, 70, 48
1, 1561, Note_off_c, 0, 74, 64
1, 1561, Note_on_c, 0, 77, 46
1, 1561, Note_on_c, 0, 78, 34
1, 1561, Note_off_c, 0, 81, 64
1, 1561, Note_off_c, 0, 86, 64
1, 1561, Note_off_c, 0, 89, 64
1, 1561, Note_off_c, 0, 90, 64
1, 1562, Note_off_c, 0, 85, 64
1, 1562, Note_off_c, 0, 92, 64
1, 1563, Note_off_c, 0, 78, 64
1, 1564, Note_off_c, 0, 70, 64
1, 1564, Note_off_c, 0, 77, 64
1, 1567, Note_on_c, 0, 56, 35
1, 1567, Note_off_c, 0, 59, 64
1, 1568, Note_on_c, 0, 57, 37
1, 1570, Note_off_c, 0, 56, 64
1, 1572, Note_on_c, 0, 56, 28
1, 1583, Note_off_c, 0, 57, 64
1, 1584, Note_on_c, 0, 57, 36
1, 1585, Note_off_c, 0, 56, 64
1, 1587, Note_off_c, 0, 57, 64
1, 1589, Note_on_c, 0, 56, 29
1, 1591, Note_off_c, 0, 56, 64
1, 1591, Note_on_c, 0, 57, 30
1, 1593, Note_off_c, 0, 57, 64
1, 1611, Note_on_c, 0, 68, 29
1, 1612, Note_on_c, 0, 62, 59
1, 1612, Note_on_c, 0, 63, 40
1, 1613, Note_off_c, 0, 68, 64
1, 1614, Note_off_c, 0, 63, 64
1, 1616, Note_on_c, 0, 74, 63
1, 1619, Note_on_c, 0, 60, 42
1, 1619, Note_off_c, 0, 62, 64
1, 1619, Note_on_c, 0, 73, 58
1, 1619, Note_off_c, 0, 74, 64
1, 1620, Note_on_c, 0, 59, 66
1, 1620, Note_on_c, 0, 72, 44
1, 1620, Note_on_c, 0, 78, 27
1, 1621, Note_off_c, 0, 60, 64
1, 1621, Note_off_c, 0, 73, 64
1, 1622, Note_off_c, 0, 72, 64
1, 1623, Note_off_c, 0, 78, 64
1, 1625, Note_off_c, 0, 59, 64
1, 1625, Note_on_c, 0, 75, 56
1, 1627, Note_on_c, 0, 62, 45
1, 1627, Note_on_c, 0, 74, 78
1, 1627, Note_on_c, 0, 81, 82
1, 1628, Note_off_c, 0, 75, 64
1, 1634, Note_on_c, 0, 73, 40
1, 1634, Note_on_c, 0, 80, 40
1, 1635, Note_on_c, 0, 61, 31
1, 1635, Note_on_c, 0, 75, 42
1, 1636, Note_on_c, 0, 63, 26
1, 1636, Note_on_c, 0, 72, 28
1, 1636, Note_on_c, 0, 82, 37
1, 1637, Note_on_c, 0, 60, 27
1, 1637, Note_off_c, 0, 61, 64
1, 1637, Note_on_c, 0, 79, 33
1, 1639, Note_on_c, 0, 61, 30
1, 1639, Note_off_c, 0, 72, 64
1, 1640, Note_off_c, 0, 60, 64
1, 1640, Note_off_c, 0, 79, 64
1, 1641, Note_off_c, 0, 63, 64
1, 1641, Note_off_c, 0, 75, 64
1, 1641, Note_off_c, 0, 82, 64
1, 1642, Note_off_c, 0, 61, 64
1, 1643, Note_off_c, 0, 73, 64
1, 1643, Note_off_c, 0, 80, 64
1, 1646, Note_off_c, 0, 62, 64
1, 1646, Note_on_c, 0, 70, 45
1, 1646, Note_on_c, 0, 73, 37
1, 1646, Note_off_c, 0, 74, 64
1, 1646, Note_on_c, 0, 77, 47
1, 1646, Note_on_c, 0, 78, 55
1, 1646, Note_on_c, 0, 80, 34
1, 1646, Note_on_c, 0, 83, 34
1, 1647, Note_on_c, 0, 58, 41
1, 1647, Note_on_c, 0, 71, 50
1, 1647, Note_off_c, 0, 81, 64
1, 1648, Note_off_c, 0, 73, 64
1, 1648, Note_off_c, 0, 80, 64
1, 1649, Note_off_c, 0, 58, 64
1, 1649, Note_on_c, 0, 59, 42
1, 1650, Note_off_c, 0, 70, 64
1, 1650, Note_off_c, 0, 77, 64
1, 1651, Note_on_c, 0, 60, 20
1, 1651, Note_on_c, 0, 62, 32
1, 1651, Note_on_c, 0, 73, 27
1, 1651, Note_on_c, 0, 74, 48
1, 1651, Note_on_c, 0, 81, 42
1, 1652, Note_off_c, 0, 71, 64
1, 1652, Note_off_c, 0, 83, 64
1, 1653, Note_off_c, 0, 78, 64
1, 1654, Note_on_c, 0, 54, 32
1, 1654, Note_on_c, 0, 56, 23
1, 1654, Note_off_c, 0, 59, 64
1, 1654, Note_off_c, 0, 62, 64
1, 1654, Note_on_c, 0, 78, 27
1, 1654, Note_on_c, 0, 79, 26
1, 1654, Note_on_c, 0, 82, 39
1, 1654, Note_on_c, 0, 85, 29
1, 1655, Note_off_c, 0, 60, 64
1, 1655, Note_on_c, 0, 76, 30
1, 1656, Note_on_c, 0, 57, 53
1, 1656, Note_on_c, 0, 70, 14
1, 1656, Note_off_c, 0, 73, 64
1, 1656, Note_off_c, 0, 74, 64
1, 1657, Note_off_c, 0, 54, 64
1, 1657, Note_off_c, 0, 56, 64
1, 1657, Note_off_c, 0, 78, 64
1, 1657, Note_off_c, 0, 79, 64
1, 1657, Note_off_c, 0, 82, 64
1, 1657, Note_off_c, 0, 85, 64
1, 1658, Note_off_c, 0, 76, 64
1, 1658, Note_off_c, 0, 81, 64
1, 1659, Note_off_c, 0, 70, 64
1, 1661, Note_off_c, 0, 57, 64
1, 1662, Note_on_c, 0, 57, 49
1, 1662, Note_on_c, 0, 58, 40
1, 1662, Note_on_c, 0, 76, 28
1, 1662, Note_on_c, 0, 77, 39
1, 1662, Note_on_c, 0, 81, 18
1, 1662, Note_on_c, 0, 82, 38
1, 1665, Note_off_c, 0, 58, 64
1, 1665, Note_off_c, 0, 76, 64
1, 1665, Note_off_c, 0, 77, 64
1, 1665, Note_off_c, 0, 81, 64
1, 1665, Note_off_c, 0, 82, 64
1, 1668, Note_off_c, 0, 57, 64
1, 1670, Note_on_c, 0, 63, 60
1, 1672, Note_on_c, 0, 62, 51
1, 1676, Note_off_c, 0, 62, 64
1, 1677, Note_on_c, 0, 74, 26
1, 1677, Note_on_c, 0, 81, 35
1, 1678, Note_on_c, 0, 62, 48
1, 1678, Note_off_c, 0, 63, 64
1, 1680, Note_on_c, 0, 71, 53
1, 1680, Note_off_c, 0, 74, 64
1, 1681, Note_on_c, 0, 59, 43
1, 1681, Note_off_c, 0, 62, 64
1, 1681, Note_on_c, 0, 72, 31
1, 1681, Note_on_c, 0, 78, 56
1, 1681, Note_off_c, 0, 81, 64
1, 1683, Note_on_c, 0, 58, 46
1, 1683, Note_off_c, 0, 72, 64
1, 1684, Note_off_c, 0, 59, 64
1, 1684, Note_on_c, 0, 77, 47
1, 1684, Note_on_c, 0, 82, 55
1, 1684, Note_on_c, 0, 86, 58
1, 1684, Note_on_c, 0, 92, 27
1, 1685, Note_off_c, 0, 71, 64
1, 1685, Note_on_c, 0, 83, 66
1, 1686, Note_off_c, 0, 77, 64
1, 1687, Note_off_c, 0, 58, 64
1, 1687, Note_on_c, 0, 59, 42
1, 1687, Note_on_c, 0, 87, 62
1, 1688, Note_off_c, 0, 82, 64
1, 1688, Note_off_c, 0, 86, 64
1, 1688, Note_off_c, 0, 92, 64
1, 1688, Note_on_c, 0, 93, 23
1, 1691, Note_off_c, 0, 93, 64
1, 1692, Note_off_c, 0, 83, 64
1, 1692, Note_off_c, 0, 87, 64
1, 1693, Note_on_c, 0, 63, 40
1, 1693, Note_off_c, 0, 78, 64
1, 1694, Note_off_c, 0, 59, 64
1, 1694, Note_on_c, 0, 62, 41
1, 1698, Note_on_c, 0, 61, 33
1, 1700, Note_off_c, 0, 61, 64
1, 1701, Note_off_c, 0, 63, 64
1, 1705, Note_off_c, 0, 62, 64
1, 1712, Note_on_c, 0, 53, 26
1, 1713, Note_on_c, 0, 52, 43
1, 1714, Note_on_c, 0, 63, 32
1, 1715, Note_off_c, 0, 53, 64
1, 1716, Note_off_c, 0, 63, 64
1, 1717, Note_on_c, 0, 51, 35
1, 1717, Note_off_c, 0, 52, 64
1, 1719, Note_off_c, 0, 51, 64
1, 1719, Note_on_c, 0, 52, 37
1, 1721, Note_off_c, 0, 52, 64
1, 1722, Note_on_c, 0, 52, 32
1, 1724, Note_on_c, 0, 54, 27
1, 1727, Note_off_c, 0, 54, 64
1, 1729, Note_on_c, 0, 51, 22
1, 1729, Note_off_c, 0, 52, 64
1, 1732, Note_off_c, 0, 51, 64
1, 1734, Note_on_c, 0, 54, 30
1, 1734, Note_on_c, 0, 82, 32
1, 1735, Note_on_c, 0, 67, 16
1, 1735, Note_on_c, 0, 74, 12
1, 1735, Note_on_c, 0, 78, 23
1, 1735, Note_on_c, 0, 83, 31
1, 1736, Note_off_c, 0, 54, 64
1, 1736, Note_on_c, 0, 55, 31
1, 1736, Note_on_c, 0, 73, 26
1, 1739, Note_off_c, 0, 55, 64
1, 1739, Note_off_c, 0, 67, 64
1, 1739, Note_off_c, 0, 74, 64
1, 1739, Note_off_c, 0, 78, 64
1, 1739, Note_off_c, 0, 83, 64
1, 1740, Note_off_c, 0, 73, 64
1, 1740, Note_off_c, 0, 82, 64
1, 1741, Note_on_c, 0, 58, 37
1, 1742, Note_on_c, 0, 57, 43
1, 1744, Note_off_c, 0, 58, 64
1, 1746, Note_on_c, 0, 56, 29
1, 1748, Note_off_c, 0, 56, 64
1, 1749, Note_off_c, 0, 57, 64
1, 1750, Note_on_c, 0, 57, 49
1, 1756, Note_off_c, 0, 57, 64
1, 1756, Note_on_c, 0, 88, 27
1, 1757, Note_on_c, 0, 59, 38
1, 1757, Note_on_c, 0, 78, 50
1, 1757, Note_on_c, 0, 83, 65
1, 1757, Note_on_c, 0, 87, 69
1, 1757, Note_on_c, 0, 90, 54
1, 1758, Note_on_c, 0, 86, 58
1, 1758, Note_on_c, 0, 92, 21
1, 1759, Note_off_c, 0, 88, 64
1, 1760, Note_off_c, 0, 86, 64
1, 1761, Note_on_c, 0, 86, 67
1, 1762, Note_on_c, 0, 82, 40
1, 1762, Note_off_c, 0, 92, 64
1, 1764, Note_off_c, 0, 59, 64
1, 1764, Note_on_c, 0, 62, 36
1, 1764, Note_on_c, 0, 75, 27
1, 1764, Note_on_c, 0, 76, 32
1, 1764, Note_off_c, 0, 78, 64
1, 1764, Note_on_c, 0, 81, 67
1, 1764, Note_on_c, 0, 85, 45
1, 1765, Note_on_c, 0, 74, 48
1, 1765, Note_on_c, 0, 89, 38
1, 1766, Note_on_c, 0, 63, 35
1, 1767, Note_off_c, 0, 75, 64
1, 1767, Note_off_c, 0, 76, 64
1, 1767, Note_off_c, 0, 82, 64
1, 1767, Note_off_c, 0, 83, 64
1, 1767, Note_off_c, 0, 87, 64
1, 1768, Note_off_c, 0, 63, 64
1, 1768, Note_off_c, 0, 85, 64
1, 1768, Note_off_c, 0, 89, 64
1, 1771, Note_off_c, 0, 62, 64
1, 1771, Note_off_c, 0, 74, 64
1, 1771, Note_off_c, 0, 81, 64
1, 1771, Note_off_c, 0, 86, 64
1, 1771, Note_off_c, 0, 90, 64
1, 1772, Note_on_c, 0, 63, 42
1, 1772, Note_on_c, 0, 76, 42
1, 1773, Note_on_c, 0, 62, 41
1, 1773, Note_on_c, 0, 64, 35
1, 1773, Note_on_c, 0, 74, 44
1, 1775, Note_off_c, 0, 64, 64
1, 1777, Note_off_c, 0, 76, 64
1, 1779, Note_off_c, 0, 62, 64
1, 1779, Note_on_c, 0, 81, 36
1, 1780, Note_off_c, 0, 63, 64
1, 1780, Note_on_c, 0, 88, 35
1, 1781, Note_on_c, 0, 60, 33
1, 1781, Note_on_c, 0, 78, 60
1, 1781, Note_on_c, 0, 79, 41
1, 1781, Note_off_c, 0, 81, 64
1, 1781, Note_on_c, 0, 83, 61
1, 1781, Note_on_c, 0, 87, 35
1, 1781, Note_on_c, 0, 93, 35
1, 1782, Note_on_c, 0, 59, 61
1, 1782, Note_off_c, 0, 74, 64
1, 1783, Note_off_c, 0, 60, 64
1, 1783, Note_off_c, 0, 79, 64
1, 1783, Note_off_c, 0, 88, 64
1, 1785, Note_off_c, 0, 83, 64
1, 1785, Note_off_c, 0, 87, 64
1, 1785, Note_off_c, 0, 93, 64
1, 1786, Note_off_c, 0, 78, 64
1, 1787, Note_on_c, 0, 60, 49
1, 1788, Note_off_c, 0, 59, 64
1, 1791, Note_on_c, 0, 57, 38
1, 1792, Note_off_c, 0, 60, 64
1, 1794, Note_on_c, 0, 56, 33
1, 1794, Note_off_c, 0, 57, 64
1, 1796, Note_off_c, 0, 56, 64
1, 1798, Note_on_c, 0, 52, 34
1, 1798, Note_on_c, 0, 83, 20
1, 1802, Note_off_c, 0, 52, 64
1, 1802, Note_off_c, 0, 83, 64
1, 1805, Note_on_c, 0, 54, 34
1, 1806, Note_on_c, 0, 55, 27
1, 1809, Note_off_c, 0, 55, 64
1, 1816, Note_off_c, 0, 54, 64
1, 1817, Note_on_c, 0, 55, 27
1, 1827, Note_off_c, 0, 55, 64
1, 1828, Note_on_c, 0, 55, 19
1, 1832, Note_off_c, 0, 55, 64
1, 1849, Note_on_c, 0, 62, 52
1, 1849, Note_on_c, 0, 63, 43
1, 1850, Note_on_c, 0, 74, 63
1, 1850, Note_on_c, 0, 81, 57
1, 1851, Note_off_c, 0, 63, 64
1, 1851, Note_on_c, 0, 75, 20
1, 1854, Note_off_c, 0, 75, 64
1, 1856, Note_on_c, 0, 79, 39
1, 1856, Note_on_c, 0, 80, 54
1, 1856, Note_on_c, 0, 89, 35
1, 1857, Note_off_c, 0, 62, 64
1, 1857, Note_on_c, 0, 71, 26
1, 1857, Note_on_c, 0, 78, 53
1, 1857, Note_off_c, 0, 81, 64
1, 1857, Note_on_c, 0, 87, 23
1, 1857, Note_on_c, 0, 93, 32
1, 1858, Note_on_c, 0, 59, 58
1, 1858, Note_on_c, 0, 83, 39
1, 1859, Note_off_c, 0, 74, 64
1, 1859, Note_off_c, 0, 80, 64
1, 1859, Note_off_c, 0, 89, 64
1, 1860, Note_off_c, 0, 79, 64
1, 1860, Note_off_c, 0, 83, 64
1, 1860, Note_off_c, 0, 87, 64
1, 1861, Note_off_c, 0, 78, 64
1, 1861, Note_off_c, 0, 93, 64
1, 1862, Note_off_c, 0, 71, 64
1, 1863, Note_off_c, 0, 59, 64
1, 1863, Note_on_c, 0, 63, 45
1, 1864, Note_on_c, 0, 62, 44
1, 1870, Note_off_c, 0, 63, 64
1, 1871, Note_on_c, 0, 75, 40
1, 1872, Note_on_c, 0, 63, 40
1, 1872, Note_on_c, 0, 74, 50
1, 1873, Note_off_c, 0, 62, 64
1, 1873, Note_on_c, 0, 81, 22
1, 1874, Note_on_c, 0, 62, 37
1, 1874, Note_off_c, 0, 63, 64
1, 1874, Note_on_c, 0, 82, 22
1, 1876, Note_on_c, 0, 63, 29
1, 1876, Note_on_c, 0, 73, 30
1, 1876, Note_on_c, 0, 80, 17
1, 1877, Note_off_c, 0, 82, 64
1, 1878, Note_on_c, 0, 61, 26
1, 1878, Note_off_c, 0, 81, 64
1, 1879, Note_on_c, 0, 81, 43
1, 1881, Note_off_c, 0, 61, 64
1, 1881, Note_off_c, 0, 73, 64
1, 1881, Note_off_c, 0, 80, 64
1, 1881, Note_on_c, 0, 82, 38
1, 1883, Note_off_c, 0, 63, 64
1, 1883, Note_off_c, 0, 75, 64
1, 1884, Note_off_c, 0, 82, 64
1, 1886, Note_on_c, 0, 56, 27
1, 1886, Note_on_c, 0, 58, 43
1, 1886, Note_on_c, 0, 85, 19
1, 1887, Note_off_c, 0, 62, 64
1, 1887, Note_off_c, 0, 74, 64
1, 1887, Note_on_c, 0, 77, 41
1, 1889, Note_off_c, 0, 56, 64
1, 1889, Note_on_c, 0, 60, 26
1, 1889, Note_off_c, 0, 85, 64
1, 1890, Note_on_c, 0, 61, 32
1, 1890, Note_on_c, 0, 73, 48
1, 1890, Note_off_c, 0, 77, 64
1, 1891, Note_off_c, 0, 58, 64
1, 1893, Note_off_c, 0, 60, 64
1, 1893, Note_off_c, 0, 61, 64
1, 1893, Note_on_c, 0, 63, 38
1, 1893, Note_off_c, 0, 73, 64
1, 1893, Note_off_c, 0, 81, 64
1, 1895, Note_on_c, 0, 62, 43
1, 1895, Note_off_c, 0, 63, 64
1, 1895, Note_on_c, 0, 74, 61
1, 1895, Note_on_c, 0, 81, 54
1, 1896, Note_on_c, 0, 85, 39
1, 1897, Note_on_c, 0, 80, 46
1, 1897, Note_on_c, 0, 88, 48
1, 1898, Note_off_c, 0, 62, 64
1, 1898, Note_off_c, 0, 74, 64
1, 1898, Note_on_c, 0, 84, 48
1, 1899, Note_on_c, 0, 59, 34
1, 1899, Note_on_c, 0, 78, 36
1, 1899, Note_off_c, 0, 80, 64
1, 1899, Note_off_c, 0, 81, 64
1, 1899, Note_on_c, 0, 83, 49
1, 1899, Note_off_c, 0, 85, 64
1, 1900, Note_off_c, 0, 84, 64
1, 1900, Note_off_c, 0, 88, 64
1, 1901, Note_off_c, 0, 59, 64
1, 1901, Note_on_c, 0, 60, 47
1, 1901, Note_off_c, 0, 78, 64
1, 1901, Note_off_c, 0, 83, 64
1, 1902, Note_on_c, 0, 71, 43
1, 1903, Note_on_c, 0, 59, 48
1, 1904, Note_off_c, 0, 60, 64
1, 1904, Note_on_c, 0, 63, 63
1, 1905, Note_off_c, 0, 59, 64
1, 1905, Note_off_c, 0, 71, 64
1, 1907, Note_on_c, 0, 62, 33
1, 1907, Note_off_c, 0, 63, 64
1, 1908, Note_on_c, 0, 78, 35
1, 1908, Note_on_c, 0, 79, 47
1, 1908, Note_on_c, 0, 80, 29
1, 1908, Note_on_c, 0, 83, 43
1, 1908, Note_on_c, 0, 84, 49
1, 1909, Note_on_c, 0, 59, 48
1, 1909, Note_off_c, 0, 62, 64
1, 1909, Note_on_c, 0, 72, 13
1, 1909, Note_on_c, 0, 87, 29
1, 1909, Note_on_c, 0, 88, 32
1, 1911, Note_on_c, 0, 60, 66
1, 1911, Note_off_c, 0, 80, 64
1, 1911, Note_off_c, 0, 88, 64
1, 1912, Note_off_c, 0, 59, 64
1, 1912, Note_off_c, 0, 72, 64
1, 1912, Note_off_c, 0, 78, 64
1, 1912, Note_off_c, 0, 79, 64
1, 1912, Note_off_c, 0, 83, 64
1, 1912, Note_off_c, 0, 84, 64
1, 1913, Note_off_c, 0, 87, 64
1, 1915, Note_on_c, 0, 64, 40
1, 1916, Note_on_c, 0, 65, 52
1, 1916, Note_on_c, 0, 77, 70
1, 1916, Note_on_c, 0, 88, 58
1, 1917, Note_off_c, 0, 60, 64
1, 1917, Note_off_c, 0, 64, 64
1, 1917, Note_on_c, 0, 76, 74
1, 1917, Note_on_c, 0, 83, 47
1, 1917, Note_on_c, 0, 84, 31
1, 1918, Note_on_c, 0, 66, 44
1, 1919, Note_on_c, 0, 67, 38
1, 1919, Note_off_c, 0, 77, 64
1, 1919, Note_off_c, 0, 84, 64
1, 1920, Note_on_c, 0, 64, 70
1, 1920, Note_off_c, 0, 76, 64
1, 1920, Note_off_c, 0, 83, 64
1, 1920, Note_off_c, 0, 88, 64
1, 1921, Note_off_c, 0, 66, 64
1, 1922, Note_on_c, 0, 63, 50
1, 1922, Note_off_c, 0, 65, 64
1, 1922, Note_off_c, 0, 67, 64
1, 1925, Note_off_c, 0, 63, 64
1, 1926, Note_on_c, 0, 62, 47
1, 1926, Note_on_c, 0, 63, 53
1, 1926, Note_off_c, 0, 64, 64
1, 1929, Note_off_c, 0, 62, 64
1, 1930, Note_on_c, 0, 62, 45
1, 1930, Note_off_c, 0, 63, 64
1, 1934, Note_on_c, 0, 74, 50
1, 1935, Note_on_c, 0, 75, 33
1, 1936, Note_on_c, 0, 63, 34
1, 1939, Note_on_c, 0, 73, 27
1, 1942, Note_off_c, 0, 63, 64
1, 1943, Note_off_c, 0, 73, 64
1, 1945, Note_off_c, 0, 62, 64
1, 1945, Note_on_c, 0, 63, 35
1, 1946, Note_off_c, 0, 75, 64
1, 1946, Note_on_c, 0, 81, 22
1, 1946, Note_on_c, 0, 90, 20
1, 1947, Note_on_c, 0, 62, 32
1, 1947, Note_off_c, 0, 63, 64
1, 1948, Note_on_c, 0, 59, 49
1, 1948, Note_on_c, 0, 60, 38
1, 1949, Note_off_c, 0, 62, 64
1, 1949, Note_off_c, 0, 74, 64
1, 1949, Note_off_c, 0, 81, 64
1, 1949, Note_off_c, 0, 90, 64
1, 1950, Note_off_c, 0, 60, 64
1, 1951, Note_off_c, 0, 59, 64
1, 1953, Note_on_c, 0, 57, 49
1, 1954, Note_on_c, 0, 58, 54
1, 1957, Note_off_c, 0, 58, 64
1, 1962, Note_on_c, 0, 56, 34
1, 1963, Note_off_c, 0, 57, 64
1, 1963, Note_on_c, 0, 58, 35
1, 1964, Note_off_c, 0, 56, 64
1, 1964, Note_on_c, 0, 57, 48
1, 1965, Note_off_c, 0, 58, 64
1, 1969, Note_off_c, 0, 57, 64
1, 1971, Note_on_c, 0, 59, 54
1, 1976, Note_on_c, 0, 60, 37
1, 1976, Note_on_c, 0, 62, 54
1, 1977, Note_on_c, 0, 61, 32
1, 1977, Note_on_c, 0, 63, 73
1, 1978, Note_off_c, 0, 59, 64
1, 1979, Note_off_c, 0, 60, 64
1, 1979, Note_off_c, 0, 61, 64
1, 1979, Note_off_c, 0, 62, 64
1, 1983, Note_off_c, 0, 63, 64
1, 1985, Note_on_c, 0, 64, 28
1, 1985, Note_on_c, 0, 66, 29
1, 1986, Note_on_c, 0, 62, 41
1, 1987, Note_on_c, 0, 60, 35
1, 1987, Note_on_c, 0, 63, 42
1, 1987, Note_off_c, 0, 66, 64
1, 1988, Note_off_c, 0, 64, 64
1, 1989, Note_off_c, 0, 60, 64
1, 1990, Note_off_c, 0, 63, 64
1, 1991, Note_on_c, 0, 63, 45
1, 1991, Note_on_c, 0, 74, 47
1, 1992, Note_off_c, 0, 62, 64
1, 1992, Note_on_c, 0, 84, 29
1, 1993, Note_off_c, 0, 63, 64
1, 1993, Note_on_c, 0, 71, 47
1, 1993, Note_on_c, 0, 78, 60
1, 1993, Note_on_c, 0, 83, 52
1, 1993, Note_on_c, 0, 87, 16
1, 1994, Note_on_c, 0, 59, 41
1, 1994, Note_off_c, 0, 74, 64
1, 1995, Note_off_c, 0, 84, 64
1, 1996, Note_off_c, 0, 59, 64
1, 1996, Note_off_c, 0, 71, 64
1, 1996, Note_off_c, 0, 83, 64
1, 1996, Note_off_c, 0, 87, 64
1, 1997, Note_off_c, 0, 78, 64
1, 2000, Note_on_c, 0, 60, 40
1, 2002, Note_on_c, 0, 57, 36
1, 2003, Note_off_c, 0, 60, 64
1, 2006, Note_off_c, 0, 57, 64
1, 2007, Note_on_c, 0, 80, 13
1, 2008, Note_on_c, 0, 55, 25
1, 2008, Note_on_c, 0, 84, 11
1, 2011, Note_off_c, 0, 80, 64
1, 2011, Note_off_c, 0, 84, 64
1, 2013, Note_off_c, 0, 55, 64
1, 2014, Note_on_c, 0, 58, 44
1, 2017, Note_on_c, 0, 57, 45
1, 2017, Note_off_c, 0, 58, 64
1, 2025, Note_off_c, 0, 57, 64
1, 2030, Note_on_c, 0, 59, 46
1, 2030, Note_on_c, 0, 60, 44
1, 2035, Note_off_c, 0, 59, 64
1, 2036, Note_on_c, 0, 59, 36
1, 2037, Note_off_c, 0, 60, 64
1, 2043, Note_off_c, 0, 59, 64
1, 2046, Note_on_c, 0, 52, 33
1, 2055, Note_off_c, 0, 52, 64
1, 2055, Note_on_c, 0, 55, 30
1, 2057, Note_on_c, 0, 53, 32
1, 2057, Note_on_c, 0, 56, 32
1, 2058, Note_on_c, 0, 54, 26
1, 2058, Note_off_c, 0, 55, 64
1, 2059, Note_off_c, 0, 53, 64
1, 2060, Note_off_c, 0, 56, 64
1, 2061, Note_off_c, 0, 54, 64
1, 2061, Note_on_c, 0, 55, 30
1, 2070, Note_off_c, 0, 55, 64
1, 2089, Note_on_c, 0, 62, 67
1, 2089, Note_on_c, 0, 63, 50
1, 2089, Note_on_c, 0, 102, 24
1, 2091, Note_off_c, 0, 63, 64
1, 2091, Note_on_c, 0, 74, 82
1, 2094, Note_on_c, 0, 100, 15
1, 2094, Note_off_c, 0, 102, 64
1, 2095, Note_on_c, 0, 98, 46
1, 2096, Note_on_c, 0, 81, 36
1, 2097, Note_on_c, 0, 95, 26
1, 2099, Note_on_c, 0, 96, 22
1, 2099, Note_off_c, 0, 100, 64
1, 2100, Note_on_c, 0, 60, 47
1, 2100, Note_on_c, 0, 73, 34
1, 2101, Note_off_c, 0, 95, 64
1, 2101, Note_off_c, 0, 98, 64
1, 2102, Note_on_c, 0, 61, 45
1, 2102, Note_on_c, 0, 63, 54
1, 2102, Note_off_c, 0, 73, 64
1, 2102, Note_off_c, 0, 74, 64
1, 2102, Note_off_c, 0, 81, 64
1, 2102, Note_off_c, 0, 96, 64
1, 2104, Note_off_c, 0, 60, 64
1, 2104, Note_off_c, 0, 61, 64
1, 2104, Note_on_c, 0, 64, 62
1, 2105, Note_off_c, 0, 62, 64
1, 2107, Note_off_c, 0, 63, 64
1, 2108, Note_on_c, 0, 76, 86
1, 2108, Note_on_c, 0, 100, 22
1, 2110, Note_on_c, 0, 97, 45
1, 2110, Note_on_c, 0, 99, 30
1, 2111, Note_on_c, 0, 63, 51
1, 2111, Note_off_c, 0, 64, 64
1, 2111, Note_on_c, 0, 95, 43
1, 2112, Note_on_c, 0, 83, 39
1, 2112, Note_on_c, 0, 102, 16
1, 2113, Note_off_c, 0, 63, 64
1, 2113, Note_on_c, 0, 64, 51
1, 2113, Note_on_c, 0, 92, 25
1, 2113, Note_off_c, 0, 99, 64
1, 2114, Note_on_c, 0, 98, 39
1, 2116, Note_on_c, 0, 77, 48
1, 2116, Note_on_c, 0, 78, 55
1, 2116, Note_on_c, 0, 79, 62
1, 2116, Note_off_c, 0, 100, 64
1, 2116, Note_off_c, 0, 102, 64
1, 2117, Note_on_c, 0, 63, 43
1, 2117, Note_on_c, 0, 75, 48
1, 2117, Note_on_c, 0, 82, 28
1, 2117, Note_off_c, 0, 92, 64
1, 2117, Note_off_c, 0, 98, 64
1, 2118, Note_on_c, 0, 94, 33
1, 2119, Note_off_c, 0, 64, 64
1, 2120, Note_off_c, 0, 63, 64
1, 2120, Note_on_c, 0, 64, 52
1, 2120, Note_off_c, 0, 75, 64
1, 2120, Note_off_c, 0, 77, 64
1, 2120, Note_off_c, 0, 78, 64
1, 2120, Note_off_c, 0, 79, 64
1, 2120, Note_on_c, 0, 87, 32
1, 2121, Note_off_c, 0, 82, 64
1, 2121, Note_on_c, 0, 98, 34
1, 2122, Note_off_c, 0, 87, 64
1, 2122, Note_on_c, 0, 92, 18
1, 2123, Note_off_c, 0, 94, 64
1, 2124, Note_on_c, 0, 63, 53
1, 2124, Note_on_c, 0, 66, 55
1, 2124, Note_on_c, 0, 68, 40
1, 2124, Note_off_c, 0, 97, 64
1, 2125, Note_off_c, 0, 64, 64
1, 2125, Note_on_c, 0, 67, 67
1, 2125, Note_off_c, 0, 83, 64
1, 2125, Note_off_c, 0, 92, 64
1, 2125, Note_off_c, 0, 95, 64
1, 2125, Note_off_c, 0, 98, 64
1, 2126, Note_off_c, 0, 63, 64
1, 2126, Note_off_c, 0, 76, 64
1, 2127, Note_off_c, 0, 68, 64
1, 2129, Note_off_c, 0, 66, 64
1, 2132, Note_on_c, 0, 64, 68
1, 2132, Note_off_c, 0, 67, 64
1, 2133, Note_on_c, 0, 102, 11
1, 2136, Note_off_c, 0, 102, 64
1, 2138, Note_on_c, 0, 82, 62
1, 2138, Note_on_c, 0, 91, 50
1, 2138, Note_on_c, 0, 97, 13
1, 2139, Note_on_c, 0, 63, 47
1, 2139, Note_off_c, 0, 64, 64
1, 2139, Note_on_c, 0, 75, 51
1, 2139, Note_on_c, 0, 83, 68
1, 2139, Note_on_c, 0, 88, 55
1, 2140, Note_off_c, 0, 82, 64
1, 2141, Note_off_c, 0, 63, 64
1, 2141, Note_on_c, 0, 64, 65
1, 2141, Note_on_c, 0, 82, 25
1, 2141, Note_on_c, 0, 92, 53
1, 2142, Note_off_c, 0, 91, 64
1, 2142, Note_off_c, 0, 97, 64
1, 2143, Note_on_c, 0, 63, 74
1, 2143, Note_off_c, 0, 64, 64
1, 2143, Note_off_c, 0, 75, 64
1, 2143, Note_off_c, 0, 92, 64
1, 2144, Note_off_c, 0, 63, 64
1, 2144, Note_on_c, 0, 64, 73
1, 2144, Note_off_c, 0, 83, 64
1, 2144, Note_off_c, 0, 88, 64
1, 2145, Note_off_c, 0, 82, 64
1, 2153, Note_on_c, 0, 60, 40
1, 2153, Note_on_c, 0, 61, 27
1, 2153, Note_on_c, 0, 73, 54
1, 2154, Note_on_c, 0, 62, 42
1, 2154, Note_off_c, 0, 64, 64
1, 2154, Note_on_c, 0, 74, 48
1, 2154, Note_on_c, 0, 93, 28
1, 2155, Note_on_c, 0, 80, 38
1, 2155, Note_on_c, 0, 81, 28
1, 2156, Note_off_c, 0, 60, 64
1, 2156, Note_off_c, 0, 61, 64
1, 2157, Note_off_c, 0, 74, 64
1, 2158, Note_on_c, 0, 74, 47
1, 2159, Note_off_c, 0, 73, 64
1, 2159, Note_off_c, 0, 80, 64
1, 2159, Note_off_c, 0, 81, 64
1, 2159, Note_off_c, 0, 93, 64
1, 2160, Note_off_c, 0, 62, 64
1, 2160, Note_off_c, 0, 74, 64
1, 2161, Note_on_c, 0, 65, 67
1, 2163, Note_on_c, 0, 76, 65
1, 2163, Note_on_c, 0, 100, 24
1, 2164, Note_on_c, 0, 64, 77
1, 2164, Note_off_c, 0, 65, 64
1, 2164, Note_on_c, 0, 98, 12
1, 2167, Note_on_c, 0, 83, 36
1, 2167, Note_off_c, 0, 98, 64
1, 2167, Note_off_c, 0, 100, 64
1, 2168, Note_on_c, 0, 92, 35
1, 2170, Note_on_c, 0, 91, 37
1, 2170, Note_off_c, 0, 92, 64
1, 2172, Note_off_c, 0, 91, 64
1, 2174, Note_off_c, 0, 83, 64
1, 2175, Note_off_c, 0, 76, 64
1, 2176, Note_on_c, 0, 68, 57
1, 2176, Note_on_c, 0, 98, 24
1, 2177, Note_off_c, 0, 64, 64
1, 2177, Note_on_c, 0, 79, 67
1, 2178, Note_on_c, 0, 67, 64
1, 2178, Note_on_c, 0, 78, 46
1, 2179, Note_off_c, 0, 68, 64
1, 2179, Note_on_c, 0, 80, 25
1, 2179, Note_off_c, 0, 98, 64
1, 2184, Note_off_c, 0, 78, 64
1, 2184, Note_off_c, 0, 80, 64
1, 2184, Note_on_c, 0, 95, 17
1, 2185, Note_on_c, 0, 86, 11
1, 2187, Note_on_c, 0, 66, 38
1, 2187, Note_off_c, 0, 95, 64
1, 2188, Note_on_c, 0, 65, 51
1, 2189, Note_off_c, 0, 66, 64
1, 2189, Note_off_c, 0, 86, 64
1, 2190, Note_off_c, 0, 67, 64
1, 2190, Note_off_c, 0, 79, 64
1, 2193, Note_on_c, 0, 64, 63
1, 2193, Note_off_c, 0, 65, 64
1, 2198, Note_on_c, 0, 61, 40
1, 2198, Note_on_c, 0, 63, 48
1, 2198, Note_off_c, 0, 64, 64
1, 2199, Note_on_c, 0, 62, 38
1, 2200, Note_off_c, 0, 63, 64
1, 2202, Note_off_c, 0, 62, 64
1, 2203, Note_off_c, 0, 61, 64
1, 2203, Note_on_c, 0, 62, 42
1, 2212, Note_off_c, 0, 62, 64
1, 2222, Note_on_c, 0, 59, 48
1, 2228, Note_on_c, 0, 56, 23
1, 2229, Note_on_c, 0, 58, 27
1, 2230, Note_off_c, 0, 59, 64
1, 2231, Note_off_c, 0, 56, 64
1, 2231, Note_on_c, 0, 57, 25
1, 2231, Note_on_c, 0, 59, 41
1, 2232, Note_on_c, 0, 60, 31
1, 2234, Note_off_c, 0, 57, 64
1, 2235, Note_off_c, 0, 58, 64
1, 2235, Note_off_c, 0, 60, 64
1, 2241, Note_off_c, 0, 59, 64
1, 2242, Note_on_c, 0, 74, 71
1, 2243, Note_on_c, 0, 62, 44
1, 2243, Note_on_c, 0, 81, 71
1, 2249, Note_off_c, 0, 62, 64
1, 2250, Note_on_c, 0, 66, 48
1, 2250, Note_off_c, 0, 74, 64
1, 2250, Note_off_c, 0, 81, 64
1, 2251, Note_on_c, 0, 65, 66
1, 2252, Note_off_c, 0, 66, 64
1, 2252, Note_on_c, 0, 101, 21
1, 2253, Note_on_c, 0, 103, 10
1, 2254, Note_on_c, 0, 76, 85
1, 2254, Note_on_c, 0, 100, 23
1, 2255, Note_on_c, 0, 98, 23
1, 2256, Note_on_c, 0, 64, 79
1, 2256, Note_off_c, 0, 65, 64
1, 2256, Note_on_c, 0, 95, 42
1, 2256, Note_off_c, 0, 101, 64
1, 2256, Note_off_c, 0, 103, 64
1, 2257, Note_on_c, 0, 83, 43
1, 2257, Note_on_c, 0, 92, 63
1, 2257, Note_off_c, 0, 100, 64
1, 2261, Note_off_c, 0, 95, 64
1, 2262, Note_off_c, 0, 92, 64
1, 2262, Note_off_c, 0, 98, 64
1, 2263, Note_off_c, 0, 83, 64
1, 2264, Note_off_c, 0, 76, 64
1, 2266, Note_off_c, 0, 64, 64
1, 2266, Note_on_c, 0, 70, 77
1, 2268, Note_on_c, 0, 69, 64
1, 2269, Note_off_c, 0, 70, 64
1, 2271, Note_on_c, 0, 80, 58
1, 2272, Note_on_c, 0, 68, 43
1, 2272, Note_on_c, 0, 87, 27
1, 2272, Note_on_c, 0, 91, 36
1, 2273, Note_on_c, 0, 70, 45
1, 2273, Note_on_c, 0, 71, 53
1, 2274, Note_on_c, 0, 72, 47
1, 2274, Note_off_c, 0, 91, 64
1, 2275, Note_off_c, 0, 68, 64
1, 2275, Note_off_c, 0, 69, 64
1, 2275, Note_off_c, 0, 80, 64
1, 2275, Note_off_c, 0, 87, 64
1, 2276, Note_off_c, 0, 72, 64
1, 2277, Note_on_c, 0, 81, 37
1, 2278, Note_on_c, 0, 69, 55
1, 2278, Note_off_c, 0, 70, 64
1, 2278, Note_off_c, 0, 71, 64
1, 2280, Note_off_c, 0, 69, 64
1, 2280, Note_on_c, 0, 70, 68
1, 2280, Note_off_c, 0, 81, 64
1, 2284, Note_on_c, 0, 69, 72
1, 2284, Note_off_c, 0, 70, 64
1, 2284, Note_on_c, 0, 81, 83
1, 2289, Note_on_c, 0, 80, 51
1, 2290, Note_on_c, 0, 66, 54
1, 2290, Note_off_c, 0, 69, 64
1, 2290, Note_on_c, 0, 78, 62
1, 2291, Note_off_c, 0, 80, 64
1, 2291, Note_off_c, 0, 81, 64
1, 2292, Note_on_c, 0, 85, 22
1, 2296, Note_off_c, 0, 85, 64
1, 2297, Note_on_c, 0, 68, 28
1, 2297, Note_on_c, 0, 70, 38
1, 2297, Note_off_c, 0, 78, 64
1, 2298, Note_on_c, 0, 62, 47
1, 2298, Note_on_c, 0, 64, 37
1, 2298, Note_off_c, 0, 66, 64
1, 2299, Note_on_c, 0, 63, 60
1, 2300, Note_off_c, 0, 64, 64
1, 2300, Note_off_c, 0, 68, 64
1, 2300, Note_off_c, 0, 70, 64
1, 2301, Note_off_c, 0, 62, 64
1, 2303, Note_off_c, 0, 63, 64
1, 2303, Note_on_c, 0, 64, 56
1, 2303, Note_on_c, 0, 76, 87
1, 2303, Note_on_c, 0, 97, 42
1, 2304, Note_on_c, 0, 83, 39
1, 2304, Note_on_c, 0, 92, 24
1, 2304, Note_on_c, 0, 95, 53
1, 2305, Note_on_c, 0, 98, 23
1, 2307, Note_on_c, 0, 65, 25
1, 2307, Note_on_c, 0, 78, 52
1, 2307, Note_off_c, 0, 97, 64
1, 2308, Note_off_c, 0, 64, 64
1, 2308, Note_on_c, 0, 77, 49
1, 2308, Note_off_c, 0, 92, 64
1, 2308, Note_on_c, 0, 94, 13
1, 2308, Note_off_c, 0, 98, 64
1, 2309, Note_on_c, 0, 75, 52
1, 2309, Note_off_c, 0, 83, 64
1, 2310, Note_off_c, 0, 78, 64
1, 2311, Note_off_c, 0, 65, 64
1, 2311, Note_off_c, 0, 77, 64
1, 2311, Note_off_c, 0, 94, 64
1, 2311, Note_off_c, 0, 95, 64
1, 2312, Note_off_c, 0, 75, 64
1, 2313, Note_on_c, 0, 62, 51
1, 2313, Note_off_c, 0, 76, 64
1, 2319, Note_off_c, 0, 62, 64
1, 2320, Note_on_c, 0, 62, 43
1, 2324, Note_on_c, 0, 63, 43
1, 2326, Note_off_c, 0, 62, 64
1, 2327, Note_on_c, 0, 62, 44
1, 2328, Note_off_c, 0, 63, 64
1, 2338, Note_off_c, 0, 62, 64
1, 2352, Note_on_c, 0, 74, 80
1, 2352, Note_on_c, 0, 75, 62
1, 2352, Note_on_c, 0, 94, 18
1, 2353, Note_on_c, 0, 62, 49
1, 2353, Note_on_c, 0, 81, 44
1, 2353, Note_on_c, 0, 96, 22
1, 2355, Note_off_c, 0, 75, 64
1, 2355, Note_off_c, 0, 94, 64
1, 2359, Note_off_c, 0, 96, 64
1, 2360, Note_off_c, 0, 62, 64
1, 2360, Note_off_c, 0, 81, 64
1, 2361, Note_on_c, 0, 60, 48
1, 2361, Note_on_c, 0, 72, 58
1, 2362, Note_off_c, 0, 74, 64
1, 2363, Note_on_c, 0, 59, 48
1, 2363, Note_off_c, 0, 60, 64
1, 2363, Note_on_c, 0, 71, 57
1, 2363, Note_off_c, 0, 72, 64
1, 2363, Note_on_c, 0, 78, 24
1, 2366, Note_on_c, 0, 57, 31
1, 2366, Note_on_c, 0, 58, 35
1, 2366, Note_off_c, 0, 59, 64
1, 2366, Note_off_c, 0, 78, 64
1, 2367, Note_off_c, 0, 71, 64
1, 2368, Note_off_c, 0, 57, 64
1, 2368, Note_on_c, 0, 60, 55
1, 2370, Note_off_c, 0, 58, 64
1, 2371, Note_on_c, 0, 59, 54
1, 2371, Note_off_c, 0, 60, 64
1, 2376, Note_off_c, 0, 59, 64
1, 2376, Note_on_c, 0, 63, 49
1, 2377, Note_on_c, 0, 62, 43
1, 2380, Note_off_c, 0, 62, 64
1, 2381, Note_on_c, 0, 62, 44
1, 2381, Note_off_c, 0, 63, 64
1, 2382, Note_on_c, 0, 60, 35
1, 2383, Note_on_c, 0, 63, 48
1, 2384, Note_off_c, 0, 62, 64
1, 2385, Note_off_c, 0, 60, 64
1, 2386, Note_on_c, 0, 61, 36
1, 2387, Note_on_c, 0, 62, 54
1, 2388, Note_off_c, 0, 61, 64
1, 2389, Note_off_c, 0, 63, 64
1, 2398, Note_off_c, 0, 62, 64
1, 2399, Note_on_c, 0, 63, 45
1, 2399, Note_on_c, 0, 64, 42
1, 2400, Note_on_c, 0, 62, 72
1, 2402, Note_off_c, 0, 63, 64
1, 2402, Note_off_c, 0, 64, 64
1, 2405, Note_off_c, 0, 62, 64
1, 2406, Note_on_c, 0, 65, 59
1, 2407, Note_on_c, 0, 76, 29
1, 2408, Note_on_c, 0, 64, 59
1, 2408, Note_off_c, 0, 65, 64
1, 2410, Note_on_c, 0, 60, 40
1, 2410, Note_off_c, 0, 64, 64
1, 2410, Note_off_c, 0, 76, 64
1, 2412, Note_on_c, 0, 59, 44
1, 2413, Note_off_c, 0, 60, 64
1, 2413, Note_on_c, 0, 71, 47
1, 2414, Note_on_c, 0, 78, 31
1, 2417, Note_off_c, 0, 59, 64
1, 2417, Note_off_c, 0, 71, 64
1, 2417, Note_off_c, 0, 78, 64
1, 2420, Note_on_c, 0, 59, 50
1, 2420, Note_on_c, 0, 71, 53
1, 2421, Note_on_c, 0, 78, 44
1, 2422, Note_on_c, 0, 86, 28
1, 2425, Note_off_c, 0, 86, 64
1, 2427, Note_off_c, 0, 59, 64
1, 2427, Note_off_c, 0, 71, 64
1, 2427, Note_off_c, 0, 78, 64
1, 2428, Note_on_c, 0, 77, 39
1, 2428, Note_on_c, 0, 82, 46
1, 2428, Note_on_c, 0, 86, 41
1, 2429, Note_on_c, 0, 58, 36
1, 2429, Note_on_c, 0, 78, 47
1, 2429, Note_on_c, 0, 83, 56
1, 2429, Note_on_c, 0, 92, 37
1, 2430, Note_on_c, 0, 87, 45
1, 2431, Note_off_c, 0, 58, 64
1, 2431, Note_on_c, 0, 59, 48
1, 2432, Note_off_c, 0, 77, 64
1, 2432, Note_off_c, 0, 82, 64
1, 2432, Note_off_c, 0, 86, 64
1, 2433, Note_off_c, 0, 92, 64
1, 2434, Note_off_c, 0, 83, 64
1, 2434, Note_off_c, 0, 87, 64
1, 2435, Note_off_c, 0, 78, 64
1, 2437, Note_on_c, 0, 62, 53
1, 2437, Note_on_c, 0, 63, 55
1, 2438, Note_off_c, 0, 59, 64
1, 2443, Note_off_c, 0, 63, 64
1, 2450, Note_off_c, 0, 62, 64
1, 2459, Note_on_c, 0, 53, 39
1, 2461, Note_on_c, 0, 52, 38
1, 2461, Note_off_c, 0, 53, 64
1, 2461, Note_on_c, 0, 71, 14
1, 2464, Note_off_c, 0, 71, 64
1, 2467, Note_off_c, 0, 52, 64
1, 2470, Note_on_c, 0, 52, 34
1, 2478, Note_off_c, 0, 52, 64
1, 2479, Note_on_c, 0, 56, 44
1, 2481, Note_on_c, 0, 67, 12
1, 2484, Note_off_c, 0, 56, 64
1, 2484, Note_off_c, 0, 67, 64
1, 2490, Note_on_c, 0, 57, 48
1, 2493, Note_on_c, 0, 54, 21
1, 2493, Note_on_c, 0, 56, 21
1, 2496, Note_off_c, 0, 54, 64
1, 2496, Note_off_c, 0, 56, 64
1, 2501, Note_off_c, 0, 57, 64
1, 2501, Note_on_c, 0, 63, 48
1, 2502, Note_on_c, 0, 62, 65
1, 2505, Note_off_c, 0, 63, 64
1, 2506, Note_on_c, 0, 63, 39
1, 2507, Note_on_c, 0, 75, 56
1, 2508, Note_off_c, 0, 63, 64
1, 2508, Note_on_c, 0, 81, 42
1, 2509, Note_on_c, 0, 63, 35
1, 2509, Note_on_c, 0, 82, 47
1, 2512, Note_off_c, 0, 63, 64
1, 2513, Note_off_c, 0, 75, 64
1, 2514, Note_off_c, 0, 62, 64
1, 2514, Note_on_c, 0, 63, 64
1, 2514, Note_off_c, 0, 81, 64
1, 2516, Note_off_c, 0, 82, 64
1, 2518, Note_on_c, 0, 60, 29
1, 2518, Note_off_c, 0, 63, 64
1, 2519, Note_on_c, 0, 59, 42
1, 2520, Note_off_c, 0, 60, 64
1, 2524, Note_on_c, 0, 57, 37
1, 2524, Note_off_c, 0, 59, 64
1, 2524, Note_on_c, 0, 69, 37
1, 2530, Note_off_c, 0, 57, 64
1, 2531, Note_off_c, 0, 69, 64
1, 2532, Note_on_c, 0, 55, 28
1, 2532, Note_on_c, 0, 83, 27
1, 2532, Note_on_c, 0, 86, 31
1, 2533, Note_on_c, 0, 79, 18
1, 2533, Note_on_c, 0, 85, 17
1, 2534, Note_on_c, 0, 82, 20
1, 2536, Note_off_c, 0, 83, 64
1, 2536, Note_off_c, 0, 85, 64
1, 2536, Note_off_c, 0, 86, 64
1, 2537, Note_off_c, 0, 55, 64
1, 2537, Note_off_c, 0, 79, 64
1, 2537, Note_off_c, 0, 82, 64
1, 2538, Note_on_c, 0, 53, 20
1, 2539, Note_on_c, 0, 55, 33
1, 2541, Note_off_c, 0, 53, 64
1, 2541, Note_on_c, 0, 56, 40
1, 2542, Note_off_c, 0, 55, 64
1, 2544, Note_off_c, 0, 56, 64
1, 2548, Note_on_c, 0, 58, 41
1, 2551, Note_on_c, 0, 57, 40
1, 2551, Note_off_c, 0, 58, 64
1, 2558, Note_on_c, 0, 56, 17
1, 2561, Note_off_c, 0, 57, 64
1, 2563, Note_off_c, 0, 56, 64
1, 2563, Note_on_c, 0, 57, 24
1, 2569, Note_off_c, 0, 57, 64
1, 2587, Note_on_c, 0, 60, 59
1, 2587, Note_on_c, 0, 63, 47
1, 2589, Note_on_c, 0, 59, 59
1, 2589, Note_off_c, 0, 60, 64
1, 2589, Note_off_c, 0, 63, 64
1, 2592, Note_on_c, 0, 57, 38
1, 2592, Note_on_c, 0, 58, 37
1, 2592, Note_off_c, 0, 59, 64
1, 2593, Note_on_c, 0, 59, 57
1, 2593, Note_on_c, 0, 60, 51
1, 2594, Note_off_c, 0, 58, 64
1, 2595, Note_off_c, 0, 57, 64
1, 2597, Note_off_c, 0, 60, 64
1, 2598, Note_on_c, 0, 78, 18
1, 2598, Note_on_c, 0, 87, 14
1, 2601, Note_on_c, 0, 77, 58
1, 2601, Note_on_c, 0, 86, 51
1, 2602, Note_on_c, 0, 58, 47
1, 2602, Note_off_c, 0, 78, 64
1, 2602, Note_on_c, 0, 82, 49
1, 2602, Note_off_c, 0, 87, 64
1, 2603, Note_off_c, 0, 59, 64
1, 2603, Note_off_c, 0, 77, 64
1, 2603, Note_on_c, 0, 78, 71
1, 2604, Note_off_c, 0, 58, 64
1, 2604, Note_on_c, 0, 59, 56
1, 2604, Note_off_c, 0, 82, 64
1, 2604, Note_on_c, 0, 83, 51
1, 2605, Note_off_c, 0, 86, 64
1, 2605, Note_on_c, 0, 87, 38
1, 2608, Note_on_c, 0, 79, 38
1, 2608, Note_off_c, 0, 83, 64
1, 2609, Note_off_c, 0, 59, 64
1, 2609, Note_on_c, 0, 60, 49
1, 2609, Note_on_c, 0, 61, 32
1, 2609, Note_on_c, 0, 63, 43
1, 2609, Note_off_c, 0, 78, 64
1, 2609, Note_off_c, 0, 87, 64
1, 2610, Note_on_c, 0, 62, 55
1, 2610, Note_on_c, 0, 64, 51
1, 2610, Note_off_c, 0, 79, 64
1, 2611, Note_off_c, 0, 60, 64
1, 2611, Note_off_c, 0, 61, 64
1, 2611, Note_off_c, 0, 63, 64
1, 2612, Note_on_c, 0, 63, 62
1, 2613, Note_off_c, 0, 64, 64
1, 2614, Note_off_c, 0, 62, 64
1, 2615, Note_on_c, 0, 62, 62
1, 2615, Note_off_c, 0, 63, 64
1, 2617, Note_on_c, 0, 63, 63
1, 2619, Note_on_c, 0, 81, 18
1, 2621, Note_off_c, 0, 63, 64
1, 2624, Note_on_c, 0, 59, 57
1, 2624, Note_on_c, 0, 60, 29
1, 2624, Note_off_c, 0, 81, 64
1, 2625, Note_off_c, 0, 62, 64
1, 2625, Note_on_c, 0, 78, 15
1, 2626, Note_off_c, 0, 60, 64
1, 2627, Note_on_c, 0, 60, 34
1, 2628, Note_on_c, 0, 62, 63
1, 2628, Note_on_c, 0, 63, 62
1, 2628, Note_off_c, 0, 78, 64
1, 2629, Note_off_c, 0, 59, 64
1, 2629, Note_on_c, 0, 81, 13
1, 2630, Note_off_c, 0, 60, 64
1, 2630, Note_off_c, 0, 63, 64
1, 2631, Note_on_c, 0, 79, 38
1, 2631, Note_on_c, 0, 80, 39
1, 2631, Note_on_c, 0, 88, 26
1, 2632, Note_on_c, 0, 59, 62
1, 2632, Note_on_c, 0, 78, 47
1, 2632, Note_off_c, 0, 81, 64
1, 2632, Note_on_c, 0, 83, 52
1, 2632, Note_on_c, 0, 87, 42
1, 2632, Note_on_c, 0, 93, 42
1, 2633, Note_off_c, 0, 62, 64
1, 2634, Note_off_c, 0, 79, 64
1, 2634, Note_off_c, 0, 80, 64
1, 2634, Note_off_c, 0, 88, 64
1, 2636, Note_off_c, 0, 78, 64
1, 2636, Note_off_c, 0, 83, 64
1, 2636, Note_off_c, 0, 87, 64
1, 2636, Note_off_c, 0, 93, 64
1, 2638, Note_on_c, 0, 63, 52
1, 2639, Note_off_c, 0, 59, 64
1, 2639, Note_on_c, 0, 75, 70
1, 2639, Note_on_c, 0, 99, 23
1, 2642, Note_on_c, 0, 64, 55
1, 2642, Note_off_c, 0, 99, 64
1, 2643, Note_on_c, 0, 65, 70
1, 2643, Note_off_c, 0, 75, 64
1, 2644, Note_off_c, 0, 63, 64
1, 2644, Note_off_c, 0, 64, 64
1, 2645, Note_on_c, 0, 64, 62
1, 2646, Note_on_c, 0, 83, 43
1, 2646, Note_on_c, 0, 88, 53
1, 2647, Note_off_c, 0, 65, 64
1, 2647, Note_on_c, 0, 76, 68
1, 2648, Note_off_c, 0, 83, 64
1, 2649, Note_off_c, 0, 64, 64
1, 2649, Note_on_c, 0, 75, 37
1, 2649, Note_off_c, 0, 76, 64
1, 2649, Note_on_c, 0, 81, 45
1, 2650, Note_off_c, 0, 88, 64
1, 2651, Note_off_c, 0, 75, 64
1, 2651, Note_off_c, 0, 81, 64
1, 2653, Note_on_c, 0, 58, 30
1, 2653, Note_on_c, 0, 60, 53
1, 2655, Note_off_c, 0, 58, 64
1, 2655, Note_on_c, 0, 59, 51
1, 2656, Note_off_c, 0, 60, 64
1, 2660, Note_off_c, 0, 59, 64
1, 2661, Note_on_c, 0, 63, 45
1, 2662, Note_on_c, 0, 62, 40
1, 2663, Note_off_c, 0, 63, 64
1, 2663, Note_on_c, 0, 74, 52
1, 2663, Note_on_c, 0, 81, 67
1, 2664, Note_on_c, 0, 90, 48
1, 2670, Note_off_c, 0, 90, 64
1, 2671, Note_on_c, 0, 60, 28
1, 2672, Note_off_c, 0, 62, 64
1, 2672, Note_off_c, 0, 74, 64
1, 2672, Note_off_c, 0, 81, 64
1, 2673, Note_on_c, 0, 61, 33
1, 2673, Note_on_c, 0, 62, 38
1, 2674, Note_off_c, 0, 60, 64
1, 2676, Note_off_c, 0, 61, 64
1, 2676, Note_on_c, 0, 63, 29
1, 2678, Note_off_c, 0, 63, 64
1, 2687, Note_off_c, 0, 62, 64
1, 2696, Note_on_c, 0, 71, 38
1, 2696, Note_on_c, 0, 74, 33
1, 2696, Note_on_c, 0, 77, 65
1, 2696, Note_on_c, 0, 78, 41
1, 2696, Note_on_c, 0, 79, 34
1, 2696, Note_on_c, 0, 80, 26
1, 2696, Note_on_c, 0, 82, 64
1, 2696, Note_on_c, 0, 84, 30
1, 2698, Note_on_c, 0, 58, 49
1, 2698, Note_on_c, 0, 70, 62
1, 2698, Note_off_c, 0, 71, 64
1, 2698, Note_off_c, 0, 74, 64
1, 2698, Note_off_c, 0, 78, 64
1, 2699, Note_off_c, 0, 79, 64
1, 2699, Note_off_c, 0, 80, 64
1, 2699, Note_off_c, 0, 84, 64
1, 2702, Note_on_c, 0, 60, 32
1, 2702, Note_on_c, 0, 71, 52
1, 2702, Note_on_c, 0, 72, 35
1, 2702, Note_on_c, 0, 79, 32
1, 2703, Note_on_c, 0, 59, 43
1, 2703, Note_on_c, 0, 78, 50
1, 2704, Note_off_c, 0, 58, 64
1, 2704, Note_off_c, 0, 70, 64
1, 2704, Note_off_c, 0, 77, 64
1, 2705, Note_off_c, 0, 60, 64
1, 2705, Note_off_c, 0, 72, 64
1, 2705, Note_off_c, 0, 79, 64
1, 2706, Note_off_c, 0, 82, 64
1, 2710, Note_off_c, 0, 78, 64
1, 2711, Note_off_c, 0, 59, 64
1, 2711, Note_off_c, 0, 71, 64
1, 2712, Note_on_c, 0, 55, 44
1, 2716, Note_off_c, 0, 55, 64
1, 2718, Note_on_c, 0, 58, 46
1, 2718, Note_on_c, 0, 70, 55
1, 2720, Note_on_c, 0, 57, 45
1, 2720, Note_off_c, 0, 58, 64
1, 2722, Note_off_c, 0, 70, 64
1, 2724, Note_off_c, 0, 57, 64
1, 2725, Note_on_c, 0, 56, 30
1, 2725, Note_on_c, 0, 69, 41
1, 2727, Note_off_c, 0, 56, 64
1, 2727, Note_on_c, 0, 57, 42
1, 2732, Note_off_c, 0, 57, 64
1, 2732, Note_off_c, 0, 69, 64
1, 2733, Note_on_c, 0, 59, 47
1, 2735, Note_on_c, 0, 78, 53
1, 2736, Note_on_c, 0, 87, 51
1, 2742, Note_on_c, 0, 60, 30
1, 2742, Note_off_c, 0, 87, 64
1, 2743, Note_on_c, 0, 62, 47
1, 2743, Note_off_c, 0, 78, 64
1, 2744, Note_off_c, 0, 59, 64
1, 2744, Note_off_c, 0, 60, 64
1, 2744, Note_on_c, 0, 63, 57
1, 2747, Note_on_c, 0, 61, 46
1, 2748, Note_off_c, 0, 62, 64
1, 2749, Note_on_c, 0, 62, 50
1, 2750, Note_off_c, 0, 61, 64
1, 2753, Note_off_c, 0, 62, 64
1, 2754, Note_on_c, 0, 62, 58
1, 2754, Note_off_c, 0, 63, 64
1, 2757, Note_off_c, 0, 62, 64
1, 2757, Note_on_c, 0, 71, 36
1, 2758, Note_on_c, 0, 59, 55
1, 2758, Note_on_c, 0, 78, 19
1, 2762, Note_off_c, 0, 78, 64
1, 2763, Note_off_c, 0, 59, 64
1, 2763, Note_off_c, 0, 71, 64
1, 2764, Note_on_c, 0, 58, 17
1, 2764, Note_on_c, 0, 59, 30
1, 2764, Note_on_c, 0, 78, 26
1, 2764, Note_on_c, 0, 79, 39
1, 2765, Note_on_c, 0, 57, 38
1, 2766, Note_on_c, 0, 76, 37
1, 2766, Note_on_c, 0, 81, 39
1, 2767, Note_off_c, 0, 58, 64
1, 2767, Note_off_c, 0, 59, 64
1, 2767, Note_off_c, 0, 78, 64
1, 2767, Note_off_c, 0, 79, 64
1, 2768, Note_on_c, 0, 80, 26
1, 2769, Note_on_c, 0, 56, 32
1, 2769, Note_off_c, 0, 57, 64
1, 2769, Note_on_c, 0, 68, 32
1, 2769, Note_off_c, 0, 76, 64
1, 2770, Note_on_c, 0, 53, 29
1, 2770, Note_off_c, 0, 81, 64
1, 2771, Note_off_c, 0, 68, 64
1, 2773, Note_off_c, 0, 53, 64
1, 2773, Note_on_c, 0, 55, 29
1, 2773, Note_off_c, 0, 56, 64
1, 2774, Note_off_c, 0, 80, 64
1, 2776, Note_on_c, 0, 54, 23
1, 2776, Note_off_c, 0, 55, 64
1, 2779, Note_off_c, 0, 54, 64
1, 2780, Note_on_c, 0, 52, 30
1, 2784, Note_off_c, 0, 52, 64
1, 2787, Note_on_c, 0, 55, 26
1, 2788, Note_on_c, 0, 79, 9
1, 2791, Note_off_c, 0, 79, 64
1, 2792, Note_on_c, 0, 74, 10
1, 2795, Note_off_c, 0, 74, 64
1, 2798, Note_off_c, 0, 55, 64
1, 2798, Note_on_c, 0, 56, 23
1, 2802, Note_on_c, 0, 55, 19
1, 2802, Note_off_c, 0, 56, 64
1, 2808, Note_off_c, 0, 55, 64
1, 2828, Note_on_c, 0, 87, 30
1, 2828, Note_on_c, 0, 90, 62
1, 2829, Note_on_c, 0, 62, 37
1, 2829, Note_on_c, 0, 74, 42
1, 2829, Note_on_c, 0, 81, 60
1, 2829, Note_on_c, 0, 86, 69
1, 2830, Note_on_c, 0, 82, 55
1, 2831, Note_off_c, 0, 87, 64
1, 2832, Note_on_c, 0, 87, 54
1, 2833, Note_off_c, 0, 62, 64
1, 2833, Note_on_c, 0, 63, 33
1, 2833, Note_off_c, 0, 74, 64
1, 2833, Note_on_c, 0, 75, 34
1, 2833, Note_off_c, 0, 81, 64
1, 2833, Note_off_c, 0, 86, 64
1, 2833, Note_on_c, 0, 91, 45
1, 2834, Note_on_c, 0, 86, 55
1, 2835, Note_on_c, 0, 62, 47
1, 2835, Note_off_c, 0, 63, 64
1, 2835, Note_on_c, 0, 74, 62
1, 2835, Note_off_c, 0, 75, 64
1, 2835, Note_on_c, 0, 81, 67
1, 2836, Note_off_c, 0, 82, 64
1, 2836, Note_off_c, 0, 87, 64
1, 2836, Note_off_c, 0, 91, 64
1, 2837, Note_on_c, 0, 87, 19
1, 2838, Note_on_c, 0, 82, 49
1, 2838, Note_on_c, 0, 96, 26
1, 2839, Note_off_c, 0, 90, 64
1, 2840, Note_off_c, 0, 82, 64
1, 2840, Note_off_c, 0, 87, 64
1, 2841, Note_off_c, 0, 86, 64
1, 2841, Note_off_c, 0, 96, 64
1, 2842, Note_off_c, 0, 81, 64
1, 2843, Note_off_c, 0, 62, 64
1, 2843, Note_on_c, 0, 65, 53
1, 2843, Note_off_c, 0, 74, 64
1, 2844, Note_on_c, 0, 64, 60
1, 2844, Note_on_c, 0, 101, 10
1, 2846, Note_off_c, 0, 65, 64
1, 2847, Note_on_c, 0, 65, 62
1, 2848, Note_off_c, 0, 64, 64
1, 2848, Note_on_c, 0, 76, 92
1, 2848, Note_off_c, 0, 101, 64
1, 2849, Note_on_c, 0, 64, 60
1, 2849, Note_off_c, 0, 65, 64
1, 2850, Note_on_c, 0, 95, 50
1, 2850, Note_on_c, 0, 98, 38
1, 2851, Note_on_c, 0, 102, 25
1, 2852, Note_on_c, 0, 83, 34
1, 2852, Note_on_c, 0, 92, 28
1, 2857, Note_on_c, 0, 79, 61
1, 2858, Note_on_c, 0, 65, 20
1, 2858, Note_on_c, 0, 77, 53
1, 2858, Note_on_c, 0, 78, 56
1, 2858, Note_off_c, 0, 83, 64
1, 2858, Note_off_c, 0, 92, 64
1, 2858, Note_off_c, 0, 98, 64
1, 2858, Note_off_c, 0, 102, 64
1, 2860, Note_off_c, 0, 79, 64
1, 2860, Note_on_c, 0, 83, 33
1, 2861, Note_off_c, 0, 65, 64
1, 2861, Note_off_c, 0, 78, 64
1, 2861, Note_on_c, 0, 92, 17
1, 2862, Note_off_c, 0, 77, 64
1, 2864, Note_on_c, 0, 60, 46
1, 2864, Note_on_c, 0, 61, 46
1, 2864, Note_on_c, 0, 62, 55
1, 2864, Note_off_c, 0, 64, 64
1, 2864, Note_on_c, 0, 75, 51
1, 2864, Note_off_c, 0, 83, 64
1, 2864, Note_off_c, 0, 92, 64
1, 2865, Note_off_c, 0, 95, 64
1, 2866, Note_off_c, 0, 61, 64
1, 2866, Note_on_c, 0, 63, 72
1, 2866, Note_off_c, 0, 76, 64
1, 2867, Note_off_c, 0, 60, 64
1, 2867, Note_off_c, 0, 62, 64
1, 2867, Note_on_c, 0, 81, 16
1, 2868, Note_on_c, 0, 62, 75
1, 2868, Note_off_c, 0, 63, 64
1, 2868, Note_off_c, 0, 75, 64
1, 2870, Note_off_c, 0, 81, 64
1, 2872, Note_off_c, 0, 62, 64
1, 2872, Note_on_c, 0, 65, 35
1, 2872, Note_on_c, 0, 76, 74
1, 2873, Note_on_c, 0, 64, 44
1, 2873, Note_on_c, 0, 82, 39
1, 2873, Note_on_c, 0, 87, 55
1, 2874, Note_on_c, 0, 83, 41
1, 2875, Note_off_c, 0, 65, 64
1, 2876, Note_off_c, 0, 82, 64
1, 2876, Note_off_c, 0, 87, 64
1, 2877, Note_on_c, 0, 77, 78
1, 2878, Note_on_c, 0, 84, 37
1, 2880, Note_off_c, 0, 77, 64
1, 2880, Note_off_c, 0, 84, 64
1, 2885, Note_off_c, 0, 64, 64
1, 2885, Note_off_c, 0, 76, 64
1, 2885, Note_off_c, 0, 83, 64
1, 2886, Note_on_c, 0, 88, 39
1, 2887, Note_on_c, 0, 68, 46
1, 2887, Note_on_c, 0, 91, 36
1, 2888, Note_on_c, 0, 67, 41
1, 2888, Note_on_c, 0, 79, 86
1, 2888, Note_on_c, 0, 86, 46
1, 2888, Note_off_c, 0, 88, 64
1, 2890, Note_off_c, 0, 68, 64
1, 2892, Note_off_c, 0, 91, 64
1, 2893, Note_on_c, 0, 57, 33
1, 2893, Note_on_c, 0, 60, 39
1, 2893, Note_on_c, 0, 68, 41
1, 2893, Note_off_c, 0, 86, 64
1, 2894, Note_on_c, 0, 58, 34
1, 2894, Note_off_c, 0, 67, 64
1, 2894, Note_off_c, 0, 79, 64
1, 2896, Note_off_c, 0, 57, 64
1, 2896, Note_off_c, 0, 68, 64
1, 2899, Note_off_c, 0, 58, 64
1, 2899, Note_off_c, 0, 60, 64
1, 2900, Note_on_c, 0, 66, 46
1, 2901, Note_on_c, 0, 64, 62
1, 2904, Note_off_c, 0, 66, 64
1, 2906, Note_off_c, 0, 64, 64
1, 2908, Note_on_c, 0, 65, 47
1, 2908, Note_on_c, 0, 67, 41
1, 2908, Note_on_c, 0, 78, 30
1, 2909, Note_on_c, 0, 64, 56
1, 2911, Note_off_c, 0, 67, 64
1, 2911, Note_off_c, 0, 78, 64
1, 2913, Note_off_c, 0, 65, 64
1, 2916, Note_on_c, 0, 60, 37
1, 2916, Note_on_c, 0, 62, 37
1, 2917, Note_off_c, 0, 64, 64
1, 2918, Note_off_c, 0, 60, 64
1, 2918, Note_on_c, 0, 61, 35
1, 2922, Note_off_c, 0, 61, 64
1, 2930, Note_off_c, 0, 62, 64
1, 2938, Note_on_c, 0, 68, 64
1, 2939, Note_on_c, 0, 101, 23
1, 2940, Note_on_c, 0, 98, 25
1, 2941, Note_on_c, 0, 67, 63
1, 2941, Note_off_c, 0, 68, 64
1, 2941, Note_on_c, 0, 79, 79
1, 2942, Note_on_c, 0, 86, 69
1, 2942, Note_on_c, 0, 95, 41
1, 2942, Note_off_c, 0, 101, 64
1, 2946, Note_off_c, 0, 98, 64
1, 2948, Note_on_c, 0, 78, 28
1, 2950, Note_on_c, 0, 59, 38
1, 2950, Note_on_c, 0, 61, 32
1, 2950, Note_on_c, 0, 62, 36
1, 2950, Note_on_c, 0, 64, 55
1, 2950, Note_off_c, 0, 95, 64
1, 2951, Note_on_c, 0, 63, 36
1, 2951, Note_on_c, 0, 65, 47
1, 2951, Note_off_c, 0, 67, 64
1, 2951, Note_off_c, 0, 78, 64
1, 2951, Note_off_c, 0, 86, 64
1, 2952, Note_off_c, 0, 59, 64
1, 2952, Note_off_c, 0, 79, 64
1, 2953, Note_off_c, 0, 61, 64
1, 2955, Note_off_c, 0, 62, 64
1, 2956, Note_off_c, 0, 63, 64
1, 2956, Note_off_c, 0, 65, 64
1, 2958, Note_on_c, 0, 76, 86
1, 2961, Note_on_c, 0, 83, 36
1, 2961, Note_on_c, 0, 95, 41
1, 2961, Note_on_c, 0, 97, 17
1, 2962, Note_on_c, 0, 92, 20
1, 2964, Note_off_c, 0, 97, 64
1, 2965, Note_on_c, 0, 98, 24
1, 2966, Note_on_c, 0, 77, 67
1, 2967, Note_on_c, 0, 66, 30
1, 2967, Note_on_c, 0, 78, 72
1, 2968, Note_off_c, 0, 83, 64
1, 2968, Note_off_c, 0, 92, 64
1, 2968, Note_on_c, 0, 94, 16
1, 2968, Note_off_c, 0, 98, 64
1, 2969, Note_off_c, 0, 66, 64
1, 2970, Note_off_c, 0, 78, 64
1, 2971, Note_on_c, 0, 63, 43
1, 2971, Note_off_c, 0, 77, 64
1, 2971, Note_off_c, 0, 94, 64
1, 2972, Note_on_c, 0, 62, 69
1, 2972, Note_off_c, 0, 95, 64
1, 2973, Note_off_c, 0, 64, 64
1, 2973, Note_off_c, 0, 76, 64
1, 2974, Note_off_c, 0, 63, 64
1, 2974, Note_on_c, 0, 81, 16
1, 2977, Note_off_c, 0, 81, 64
1, 2978, Note_off_c, 0, 62, 64
1, 2979, Note_on_c, 0, 68, 47
1, 2980, Note_on_c, 0, 66, 14
1, 2980, Note_on_c, 0, 96, 13
1, 2981, Note_on_c, 0, 64, 34
1, 2982, Note_off_c, 0, 68, 64
1, 2982, Note_on_c, 0, 76, 53
1, 2983, Note_off_c, 0, 66, 64
1, 2983, Note_off_c, 0, 96, 64
1, 2984, Note_off_c, 0, 64, 64
1, 2984, Note_off_c, 0, 76, 64
1, 2986, Note_on_c, 0, 65, 31
1, 2987, Note_on_c, 0, 64, 51
1, 2987, Note_on_c, 0, 76, 80
1, 2987, Note_on_c, 0, 95, 54
1, 2988, Note_on_c, 0, 83, 30
1, 2988, Note_on_c, 0, 92, 26
1, 2988, Note_on_c, 0, 98, 16
1, 2988, Note_on_c, 0, 102, 22
1, 2989, Note_off_c, 0, 65, 64
1, 2991, Note_off_c, 0, 83, 64
1, 2991, Note_off_c, 0, 98, 64
1, 2991, Note_off_c, 0, 102, 64
1, 2992, Note_on_c, 0, 60, 30
1, 2992, Note_off_c, 0, 64, 64
1, 2992, Note_off_c, 0, 92, 64
1, 2992, Note_off_c, 0, 95, 64
1, 2993, Note_on_c, 0, 61, 44
1, 2993, Note_on_c, 0, 63, 44
1, 2993, Note_off_c, 0, 76, 64
1, 2994, Note_on_c, 0, 62, 47
1, 2995, Note_off_c, 0, 60, 64
1, 2995, Note_on_c, 0, 79, 33
1, 2995, Note_on_c, 0, 80, 39
1, 2997, Note_off_c, 0, 63, 64
1, 2997, Note_on_c, 0, 81, 31
1, 2998, Note_off_c, 0, 79, 64
1, 2999, Note_on_c, 0, 64, 59
1, 2999, Note_on_c, 0, 77, 38
1, 3000, Note_off_c, 0, 61, 64
1, 3000, Note_off_c, 0, 81, 64
1, 3001, Note_off_c, 0, 62, 64
1, 3001, Note_off_c, 0, 80, 64
1, 3001, Note_on_c, 0, 83, 29
1, 3002, Note_on_c, 0, 67, 40
1, 3003, Note_on_c, 0, 68, 51
1, 3003, Note_off_c, 0, 77, 64
1, 3003, Note_off_c, 0, 83, 64
1, 3005, Note_off_c, 0, 64, 64
1, 3005, Note_off_c, 0, 67, 64
1, 3005, Note_off_c, 0, 68, 64
1, 3007, Note_on_c, 0, 67, 49
1, 3008, Note_on_c, 0, 65, 52
1, 3008, Note_on_c, 0, 78, 22
1, 3008, Note_on_c, 0, 84, 31
1, 3008, Note_on_c, 0, 85, 21
1, 3009, Note_on_c, 0, 66, 39
1, 3011, Note_off_c, 0, 84, 64
1, 3011, Note_off_c, 0, 85, 64
1, 3012, Note_on_c, 0, 64, 59
1, 3012, Note_on_c, 0, 83, 21
1, 3013, Note_off_c, 0, 66, 64
1, 3013, Note_off_c, 0, 67, 64
1, 3013, Note_off_c, 0, 78, 64
1, 3014, Note_on_c, 0, 60, 26
1, 3014, Note_on_c, 0, 63, 33
1, 3014, Note_off_c, 0, 65, 64
1, 3014, Note_on_c, 0, 70, 29
1, 3015, Note_on_c, 0, 58, 41
1, 3015, Note_on_c, 0, 59, 47
1, 3015, Note_on_c, 0, 69, 41
1, 3016, Note_off_c, 0, 63, 64
1, 3016, Note_off_c, 0, 64, 64
1, 3017, Note_off_c, 0, 60, 64
1, 3017, Note_off_c, 0, 69, 64
1, 3018, Note_off_c, 0, 58, 64
1, 3018, Note_off_c, 0, 70, 64
1, 3021, Note_off_c, 0, 59, 64
1, 3021, Note_off_c, 0, 83, 64
1, 3022, Note_on_c, 0, 64, 54
1, 3023, Note_on_c, 0, 62, 37
1, 3024, Note_on_c, 0, 63, 36
1, 3024, Note_on_c, 0, 65, 40
1, 3026, Note_off_c, 0, 62, 64
1, 3027, Note_off_c, 0, 63, 64
1, 3028, Note_off_c, 0, 65, 64
1, 3031, Note_on_c, 0, 60, 38
1, 3031, Note_on_c, 0, 62, 39
1, 3032, Note_off_c, 0, 64, 64
1, 3034, Note_off_c, 0, 60, 64
1, 3036, Note_on_c, 0, 61, 40
1, 3038, Note_off_c, 0, 61, 64
1, 3050, Note_off_c, 0, 62, 64
1, 3061, Note_on_c, 0, 88, 28
1, 3062, Note_on_c, 0, 59, 47
1, 3062, Note_on_c, 0, 71, 62
1, 3062, Note_on_c, 0, 72, 50
1, 3062, Note_on_c, 0, 78, 45
1, 3064, Note_off_c, 0, 72, 64
1, 3064, Note_off_c, 0, 88, 64
1, 3065, Note_on_c, 0, 70, 31
1, 3066, Note_on_c, 0, 57, 21
1, 3067, Note_on_c, 0, 60, 31
1, 3067, Note_off_c, 0, 78, 64
1, 3068, Note_on_c, 0, 58, 31
1, 3069, Note_off_c, 0, 57, 64
1, 3069, Note_off_c, 0, 59, 64
1, 3070, Note_on_c, 0, 59, 40
1, 3070, Note_off_c, 0, 60, 64
1, 3070, Note_on_c, 0, 78, 26
1, 3071, Note_off_c, 0, 58, 64
1, 3071, Note_off_c, 0, 70, 64
1, 3074, Note_off_c, 0, 59, 64
1, 3074, Note_off_c, 0, 78, 64
1, 3075, Note_off_c, 0, 71, 64
1, 3077, Note_on_c, 0, 62, 43
1, 3077, Note_on_c, 0, 74, 69
1, 3077, Note_on_c, 0, 81, 50
1, 3085, Note_on_c, 0, 61, 30
1, 3085, Note_on_c, 0, 73, 33
1, 3085, Note_off_c, 0, 74, 64
1, 3086, Note_on_c, 0, 74, 68
1, 3086, Note_on_c, 0, 75, 24
1, 3086, Note_off_c, 0, 81, 64
1, 3087, Note_off_c, 0, 61, 64
1, 3088, Note_on_c, 0, 61, 29
1, 3088, Note_on_c, 0, 80, 19
1, 3089, Note_off_c, 0, 75, 64
1, 3089, Note_on_c, 0, 81, 47
1, 3090, Note_off_c, 0, 73, 64
1, 3091, Note_on_c, 0, 73, 34
1, 3092, Note_off_c, 0, 61, 64
1, 3092, Note_off_c, 0, 80, 64
1, 3093, Note_off_c, 0, 73, 64
1, 3098, Note_on_c, 0, 59, 43
1, 3098, Note_off_c, 0, 62, 64
1, 3098, Note_on_c, 0, 71, 52
1, 3098, Note_on_c, 0, 72, 31
1, 3098, Note_on_c, 0, 78, 44
1, 3099, Note_off_c, 0, 74, 64
1, 3099, Note_off_c, 0, 81, 64
1, 3099, Note_on_c, 0, 87, 23
1, 3100, Note_off_c, 0, 72, 64
1, 3101, Note_on_c, 0, 62, 32
1, 3101, Note_on_c, 0, 74, 43
1, 3102, Note_off_c, 0, 71, 64
1, 3102, Note_off_c, 0, 78, 64
1, 3103, Note_off_c, 0, 59, 64
1, 3103, Note_off_c, 0, 62, 64
1, 3103, Note_off_c, 0, 87, 64
1, 3104, Note_off_c, 0, 74, 64
1, 3105, Note_on_c, 0, 63, 48
1, 3107, Note_on_c, 0, 74, 42
1, 3108, Note_on_c, 0, 60, 29
1, 3108, Note_off_c, 0, 63, 64
1, 3109, Note_off_c, 0, 74, 64
1, 3110, Note_off_c, 0, 60, 64
1, 3112, Note_on_c, 0, 59, 45
1, 3112, Note_on_c, 0, 72, 33
1, 3113, Note_on_c, 0, 78, 22
1, 3115, Note_off_c, 0, 72, 64
1, 3116, Note_off_c, 0, 78, 64
1, 3117, Note_off_c, 0, 59, 64
1, 3119, Note_on_c, 0, 59, 31
1, 3119, Note_on_c, 0, 78, 21
1, 3120, Note_on_c, 0, 58, 29
1, 3122, Note_off_c, 0, 59, 64
1, 3122, Note_off_c, 0, 78, 64
1, 3123, Note_off_c, 0, 58, 64
1, 3126, Note_on_c, 0, 57, 39
1, 3126, Note_on_c, 0, 76, 43
1, 3126, Note_on_c, 0, 81, 40
1, 3126, Note_on_c, 0, 85, 28
1, 3130, Note_off_c, 0, 76, 64
1, 3130, Note_off_c, 0, 81, 64
1, 3130, Note_off_c, 0, 85, 64
1, 3131, Note_off_c, 0, 57, 64
1, 3133, Note_on_c, 0, 59, 40
1, 3133, Note_on_c, 0, 78, 45
1, 3133, Note_on_c, 0, 83, 47
1, 3133, Note_on_c, 0, 87, 44
1, 3135, Note_on_c, 0, 86, 32
1, 3135, Note_on_c, 0, 92, 21
1, 3138, Note_off_c, 0, 86, 64
1, 3139, Note_off_c, 0, 92, 64
1, 3140, Note_off_c, 0, 87, 64
1, 3141, Note_on_c, 0, 62, 56
1, 3141, Note_off_c, 0, 78, 64
1, 3141, Note_off_c, 0, 83, 64
1, 3142, Note_off_c, 0, 59, 64
1, 3142, Note_on_c, 0, 61, 22
1, 3143, Note_on_c, 0, 63, 35
1, 3145, Note_off_c, 0, 61, 64
1, 3146, Note_off_c, 0, 63, 64
1, 3154, Note_off_c, 0, 62, 64
1, 3162, Note_on_c, 0, 52, 25
1, 3162, Note_on_c, 0, 82, 13
1, 3162, Note_on_c, 0, 83, 15
1, 3165, Note_on_c, 0, 51, 23
1, 3165, Note_off_c, 0, 52, 64
1, 3165, Note_off_c, 0, 83, 64
1, 3166, Note_off_c, 0, 82, 64
1, 3168, Note_off_c, 0, 51, 64
1, 3169, Note_on_c, 0, 51, 19
1, 3172, Note_off_c, 0, 51, 64
1, 3176, Note_on_c, 0, 64, 43
1, 3178, Note_on_c, 0, 62, 46
1, 3178, Note_on_c, 0, 63, 52
1, 3178, Note_off_c, 0, 64, 64
1, 3178, Note_on_c, 0, 73, 12
1, 3180, Note_on_c, 0, 61, 37
1, 3181, Note_on_c, 0, 60, 38
1, 3181, Note_off_c, 0, 62, 64
1, 3182, Note_off_c, 0, 63, 64
1, 3182, Note_off_c, 0, 73, 64
1, 3183, Note_off_c, 0, 60, 64
1, 3183, Note_off_c, 0, 61, 64
1, 3184, Note_on_c, 0, 63, 25
1, 3185, Note_on_c, 0, 59, 40
1, 3185, Note_on_c, 0, 60, 44
1, 3187, Note_off_c, 0, 59, 64
1, 3187, Note_off_c, 0, 63, 64
1, 3188, Note_on_c, 0, 71, 41
1, 3189, Note_on_c, 0, 59, 45
1, 3189, Note_off_c, 0, 60, 64
1, 3189, Note_on_c, 0, 78, 64
1, 3189, Note_on_c, 0, 83, 52
1, 3189, Note_on_c, 0, 92, 15
1, 3190, Note_on_c, 0, 87, 54
1, 3191, Note_on_c, 0, 82, 67
1, 3191, Note_on_c, 0, 86, 36
1, 3191, Note_on_c, 0, 89, 40
1, 3192, Note_on_c, 0, 70, 31
1, 3192, Note_off_c, 0, 71, 64
1, 3192, Note_on_c, 0, 77, 56
1, 3193, Note_on_c, 0, 71, 49
1, 3193, Note_off_c, 0, 86, 64
1, 3194, Note_off_c, 0, 70, 64
1, 3194, Note_off_c, 0, 82, 64
1, 3194, Note_off_c, 0, 89, 64
1, 3194, Note_off_c, 0, 92, 64
1, 3195, Note_off_c, 0, 77, 64
1, 3196, Note_off_c, 0, 71, 64
1, 3197, Note_off_c, 0, 59, 64
1, 3197, Note_off_c, 0, 78, 64
1, 3197, Note_off_c, 0, 83, 64
1, 3197, Note_off_c, 0, 87, 64
1, 3198, Note_on_c, 0, 61, 26
1, 3199, Note_on_c, 0, 58, 36
1, 3199, Note_on_c, 0, 60, 39
1, 3201, Note_on_c, 0, 59, 51
1, 3201, Note_off_c, 0, 61, 64
1, 3202, Note_off_c, 0, 58, 64
1, 3206, Note_off_c, 0, 60, 64
1, 3207, Note_on_c, 0, 78, 24
1, 3211, Note_on_c, 0, 57, 21
1, 3212, Note_on_c, 0, 69, 21
1, 3212, Note_on_c, 0, 70, 35
1, 3212, Note_on_c, 0, 76, 38
1, 3212, Note_off_c, 0, 78, 64
1, 3213, Note_on_c, 0, 77, 29
1, 3213, Note_on_c, 0, 78, 41
1, 3214, Note_off_c, 0, 57, 64
1, 3214, Note_on_c, 0, 58, 31
1, 3215, Note_off_c, 0, 59, 64
1, 3215, Note_off_c, 0, 69, 64
1, 3215, Note_on_c, 0, 81, 21
1, 3216, Note_on_c, 0, 57, 33
1, 3216, Note_off_c, 0, 58, 64
1, 3216, Note_on_c, 0, 69, 33
1, 3216, Note_off_c, 0, 70, 64
1, 3216, Note_off_c, 0, 77, 64
1, 3216, Note_off_c, 0, 78, 64
1, 3219, Note_on_c, 0, 54, 21
1, 3219, Note_off_c, 0, 57, 64
1, 3219, Note_off_c, 0, 69, 64
1, 3219, Note_off_c, 0, 76, 64
1, 3219, Note_off_c, 0, 81, 64
1, 3220, Note_on_c, 0, 68, 11
1, 3223, Note_off_c, 0, 54, 64
1, 3223, Note_on_c, 0, 55, 28
1, 3223, Note_off_c, 0, 68, 64
1, 3229, Note_off_c, 0, 55, 64
1, 3231, Note_on_c, 0, 52, 27
1, 3236, Note_on_c, 0, 71, 14
1, 3239, Note_off_c, 0, 71, 64
1, 3240, Note_off_c, 0, 52, 64
1, 3243, Note_on_c, 0, 52, 33
1, 3243, Note_on_c, 0, 71, 18
1, 3246, Note_on_c, 0, 80, 13
1, 3249, Note_off_c, 0, 71, 64
1, 3249, Note_off_c, 0, 80, 64
1, 3250, Note_off_c, 0, 52, 64
1, 3254, Note_on_c, 0, 55, 23
1, 3261, Note_off_c, 0, 55, 64
1, 3263, Note_on_c, 0, 55, 12
1, 3266, Note_off_c, 0, 55, 64
1, 3288, Note_on_c, 0, 76, 29
1, 3289, Note_on_c, 0, 81, 62
1, 3289, Note_on_c, 0, 90, 52
1, 3290, Note_on_c, 0, 62, 39
1, 3290, Note_on_c, 0, 74, 41
1, 3290, Note_on_c, 0, 86, 50
1, 3291, Note_off_c, 0, 76, 64
1, 3295, Note_on_c, 0, 89, 39
1, 3295, Note_on_c, 0, 92, 39
1, 3296, Note_off_c, 0, 62, 64
1, 3296, Note_off_c, 0, 74, 64
1, 3296, Note_on_c, 0, 85, 44
1, 3297, Note_on_c, 0, 79, 46
1, 3297, Note_off_c, 0, 81, 64
1, 3297, Note_off_c, 0, 86, 64
1, 3298, Note_on_c, 0, 59, 58
1, 3298, Note_off_c, 0, 85, 64
1, 3298, Note_off_c, 0, 89, 64
1, 3298, Note_off_c, 0, 90, 64
1, 3299, Note_on_c, 0, 78, 18
1, 3299, Note_off_c, 0, 79, 64
1, 3299, Note_off_c, 0, 92, 64
1, 3302, Note_off_c, 0, 78, 64
1, 3303, Note_off_c, 0, 59, 64
1, 3304, Note_on_c, 0, 64, 37
1, 3305, Note_on_c, 0, 62, 37
1, 3306, Note_on_c, 0, 63, 43
1, 3306, Note_off_c, 0, 64, 64
1, 3306, Note_on_c, 0, 81, 55
1, 3307, Note_on_c, 0, 75, 43
1, 3308, Note_off_c, 0, 62, 64
1, 3309, Note_on_c, 0, 62, 44
1, 3309, Note_on_c, 0, 82, 37
1, 3310, Note_off_c, 0, 63, 64
1, 3311, Note_off_c, 0, 62, 64
1, 3311, Note_on_c, 0, 63, 42
1, 3312, Note_on_c, 0, 74, 50
1, 3312, Note_off_c, 0, 75, 64
1, 3312, Note_off_c, 0, 82, 64
1, 3313, Note_on_c, 0, 62, 66
1, 3313, Note_off_c, 0, 63, 64
1, 3315, Note_on_c, 0, 61, 25
1, 3315, Note_on_c, 0, 80, 26
1, 3315, Note_on_c, 0, 85, 23
1, 3315, Note_on_c, 0, 88, 23
1, 3316, Note_on_c, 0, 89, 17
1, 3317, Note_on_c, 0, 63, 30
1, 3317, Note_on_c, 0, 82, 31
1, 3318, Note_off_c, 0, 61, 64
1, 3318, Note_off_c, 0, 80, 64
1, 3318, Note_off_c, 0, 85, 64
1, 3318, Note_off_c, 0, 88, 64
1, 3319, Note_on_c, 0, 90, 31
1, 3321, Note_off_c, 0, 89, 64
1, 3322, Note_off_c, 0, 63, 64
1, 3322, Note_off_c, 0, 82, 64
1, 3325, Note_off_c, 0, 90, 64
1, 3327, Note_off_c, 0, 74, 64
1, 3327, Note_off_c, 0, 81, 64
1, 3328, Note_on_c, 0, 59, 63
1, 3328, Note_off_c, 0, 62, 64
1, 3332, Note_off_c, 0, 59, 64
1, 3332, Note_on_c, 0, 60, 31
1, 3334, Note_on_c, 0, 59, 47
1, 3334, Note_off_c, 0, 60, 64
1, 3335, Note_on_c, 0, 60, 45
1, 3336, Note_off_c, 0, 59, 64
1, 3337, Note_on_c, 0, 59, 48
1, 3341, Note_off_c, 0, 60, 64
1, 3349, Note_off_c, 0, 59, 64
1, 3349, Note_on_c, 0, 62, 36
1, 3351, Note_on_c, 0, 59, 40
1, 3352, Note_off_c, 0, 62, 64
1, 3354, Note_on_c, 0, 70, 21
1, 3355, Note_on_c, 0, 58, 30
1, 3355, Note_off_c, 0, 59, 64
1, 3359, Note_off_c, 0, 58, 64
1, 3360, Note_off_c, 0, 70, 64
1, 3364, Note_on_c, 0, 62, 37
1, 3364, Note_on_c, 0, 63, 46
1, 3364, Note_on_c, 0, 68, 40
1, 3366, Note_off_c, 0, 68, 64
1, 3367, Note_off_c, 0, 62, 64
1, 3368, Note_on_c, 0, 74, 48
1, 3369, Note_on_c, 0, 81, 37
1, 3370, Note_on_c, 0, 80, 47
1, 3370, Note_on_c, 0, 86, 59
1, 3371, Note_on_c, 0, 83, 70
1, 3371, Note_on_c, 0, 84, 36
1, 3371, Note_on_c, 0, 87, 53
1, 3371, Note_on_c, 0, 88, 33
1, 3372, Note_on_c, 0, 59, 41
1, 3372, Note_off_c, 0, 63, 64
1, 3372, Note_off_c, 0, 74, 64
1, 3372, Note_on_c, 0, 78, 53
1, 3372, Note_off_c, 0, 80, 64
1, 3372, Note_off_c, 0, 81, 64
1, 3372, Note_on_c, 0, 90, 56
1, 3372, Note_on_c, 0, 92, 30
1, 3374, Note_off_c, 0, 84, 64
1, 3374, Note_off_c, 0, 86, 64
1, 3374, Note_off_c, 0, 88, 64
1, 3375, Note_off_c, 0, 92, 64
1, 3377, Note_off_c, 0, 59, 64
1, 3377, Note_off_c, 0, 78, 64
1, 3377, Note_off_c, 0, 83, 64
1, 3377, Note_off_c, 0, 87, 64
1, 3377, Note_off_c, 0, 90, 64
1, 3378, Note_on_c, 0, 60, 43
1, 3378, Note_on_c, 0, 72, 44
1, 3378, Note_on_c, 0, 79, 21
1, 3380, Note_on_c, 0, 59, 44
1, 3380, Note_off_c, 0, 60, 64
1, 3380, Note_on_c, 0, 71, 50
1, 3380, Note_off_c, 0, 72, 64
1, 3380, Note_on_c, 0, 78, 13
1, 3381, Note_off_c, 0, 79, 64
1, 3384, Note_on_c, 0, 57, 36
1, 3384, Note_off_c, 0, 59, 64
1, 3384, Note_off_c, 0, 78, 64
1, 3385, Note_on_c, 0, 70, 30
1, 3385, Note_off_c, 0, 71, 64
1, 3388, Note_off_c, 0, 70, 64
1, 3392, Note_off_c, 0, 57, 64
1, 3393, Note_on_c, 0, 61, 29
1, 3394, Note_on_c, 0, 62, 37
1, 3394, Note_on_c, 0, 63, 34
1, 3394, Note_on_c, 0, 80, 13
1, 3397, Note_off_c, 0, 61, 64
1, 3398, Note_off_c, 0, 80, 64
1, 3399, Note_off_c, 0, 63, 64
1, 3399, Note_on_c, 0, 81, 28
1, 3402, Note_off_c, 0, 81, 64
1, 3403, Note_on_c, 0, 59, 30
1, 3403, Note_off_c, 0, 62, 64
1, 3403, Note_on_c, 0, 78, 29
1, 3403, Note_on_c, 0, 83, 23
1, 3407, Note_off_c, 0, 83, 64
1, 3408, Note_off_c, 0, 78, 64
1, 3413, Note_off_c, 0, 59, 64
1, 3424, Note_on_c, 0, 60, 33
1, 3425, Note_on_c, 0, 58, 34
1, 3426, Note_on_c, 0, 57, 48
1, 3427, Note_off_c, 0, 60, 64
1, 3428, Note_off_c, 0, 58, 64
1, 3430, Note_on_c, 0, 56, 23
1, 3431, Note_on_c, 0, 58, 25
1, 3432, Note_off_c, 0, 57, 64
1, 3434, Note_off_c, 0, 56, 64
1, 3434, Note_off_c, 0, 58, 64
1, 3439, Note_on_c, 0, 55, 33
1, 3441, Note_on_c, 0, 68, 22
1, 3442, Note_off_c, 0, 55, 64
1, 3444, Note_off_c, 0, 68, 64
1, 3447, Note_on_c, 0, 57, 30
1, 3447, Note_on_c, 0, 58, 26
1, 3447, Note_on_c, 0, 68, 22
1, 3447, Note_on_c, 0, 70, 28
1, 3450, Note_off_c, 0, 57, 64
1, 3450, Note_off_c, 0, 68, 64
1, 3450, Note_on_c, 0, 76, 32
1, 3451, Note_off_c, 0, 58, 64
1, 3451, Note_on_c, 0, 77, 28
1, 3451, Note_on_c, 0, 81, 27
1, 3451, Note_on_c, 0, 82, 30
1, 3452, Note_on_c, 0, 58, 33
1, 3454, Note_on_c, 0, 57, 55
1, 3454, Note_off_c, 0, 58, 64
1, 3454, Note_off_c, 0, 70, 64
1, 3455, Note_on_c, 0, 70, 20
1, 3455, Note_off_c, 0, 77, 64
1, 3455, Note_off_c, 0, 82, 64
1, 3456, Note_off_c, 0, 76, 64
1, 3456, Note_off_c, 0, 81, 64
1, 3457, Note_off_c, 0, 57, 64
1, 3457, Note_on_c, 0, 58, 55
1, 3459, Note_off_c, 0, 70, 64
1, 3460, Note_off_c, 0, 58, 64
1, 3460, Note_on_c, 0, 60, 47
1, 3462, Note_on_c, 0, 59, 52
1, 3462, Note_off_c, 0, 60, 64
1, 3467, Note_on_c, 0, 63, 50
1, 3468, Note_off_c, 0, 59, 64
1, 3469, Note_on_c, 0, 74, 14
1, 3472, Note_off_c, 0, 74, 64
1, 3473, Note_off_c, 0, 63, 64
1, 3477, Note_on_c, 0, 63, 49
1, 3482, Note_on_c, 0, 62, 35
1, 3482, Note_off_c, 0, 63, 64
1, 3483, Note_on_c, 0, 59, 43
1, 3484, Note_off_c, 0, 62, 64
1, 3489, Note_off_c, 0, 59, 64
1, 3493, Note_on_c, 0, 85, 11
1, 3496, Note_off_c, 0, 85, 64
1, 3499, Note_on_c, 0, 51, 18
1, 3502, Note_off_c, 0, 51, 64
1, 3502, Note_on_c, 0, 52, 29
1, 3505, Note_off_c, 0, 52, 64
1, 3508, Note_on_c, 0, 55, 34
1, 3509, Note_on_c, 0, 79, 13
1, 3509, Note_on_c, 0, 83, 17
1, 3512, Note_off_c, 0, 79, 64
1, 3512, Note_off_c, 0, 83, 64
1, 3532, Note_off_c, 0, 55, 64
1, 3551, Note_on_c, 0, 68, 38
1, 3551, Note_on_c, 0, 79, 51
1, 3552, Note_on_c, 0, 67, 67
1, 3552, Note_on_c, 0, 86, 42
1, 3553, Note_off_c, 0, 68, 64
1, 3556, Note_on_c, 0, 87, 28
1, 3559, Note_off_c, 0, 87, 64
1, 3559, Note_on_c, 0, 99, 34
1, 3560, Note_off_c, 0, 86, 64
1, 3561, Note_on_c, 0, 80, 31
1, 3561, Note_on_c, 0, 98, 25
1, 3563, Note_on_c, 0, 68, 58
1, 3564, Note_off_c, 0, 67, 64
1, 3564, Note_off_c, 0, 79, 64
1, 3564, Note_off_c, 0, 98, 64
1, 3564, Note_off_c, 0, 99, 64
1, 3565, Note_off_c, 0, 68, 64
1, 3565, Note_off_c, 0, 80, 64
1, 3566, Note_on_c, 0, 67, 28
1, 3566, Note_on_c, 0, 68, 32
1, 3566, Note_on_c, 0, 69, 29
1, 3566, Note_on_c, 0, 70, 33
1, 3567, Note_on_c, 0, 63, 53
1, 3568, Note_on_c, 0, 64, 55
1, 3568, Note_off_c, 0, 69, 64
1, 3568, Note_on_c, 0, 76, 70
1, 3569, Note_off_c, 0, 63, 64
1, 3569, Note_off_c, 0, 67, 64
1, 3569, Note_off_c, 0, 68, 64
1, 3569, Note_off_c, 0, 70, 64
1, 3571, Note_on_c, 0, 83, 76
1, 3574, Note_on_c, 0, 92, 49
1, 3579, Note_on_c, 0, 66, 44
1, 3579, Note_on_c, 0, 67, 43
1, 3579, Note_off_c, 0, 83, 64
1, 3579, Note_off_c, 0, 92, 64
1, 3580, Note_on_c, 0, 65, 51
1, 3580, Note_off_c, 0, 76, 64
1, 3581, Note_on_c, 0, 63, 67
1, 3581, Note_off_c, 0, 64, 64
1, 3582, Note_off_c, 0, 63, 64
1, 3582, Note_on_c, 0, 64, 76
1, 3582, Note_off_c, 0, 65, 64
1, 3582, Note_off_c, 0, 66, 64
1, 3582, Note_off_c, 0, 67, 64
1, 3586, Note_on_c, 0, 60, 64
1, 3586, Note_on_c, 0, 61, 50
1, 3587, Note_on_c, 0, 63, 70
1, 3587, Note_off_c, 0, 64, 64
1, 3589, Note_off_c, 0, 61, 64
1, 3590, Note_off_c, 0, 60, 64
1, 3590, Note_on_c, 0, 62, 71
1, 3591, Note_off_c, 0, 63, 64
1, 3592, Note_off_c, 0, 62, 64
1, 3592, Note_on_c, 0, 63, 70
1, 3594, Note_off_c, 0, 63, 64
1, 3594, Note_on_c, 0, 67, 63
1, 3596, Note_on_c, 0, 68, 67
1, 3597, Note_off_c, 0, 67, 64
1, 3599, Note_on_c, 0, 79, 49
1, 3599, Note_on_c, 0, 86, 9
1, 3600, Note_on_c, 0, 67, 53
1, 3600, Note_off_c, 0, 68, 64
1, 3601, Note_on_c, 0, 65, 75
1, 3601, Note_on_c, 0, 78, 62
1, 3601, Note_off_c, 0, 79, 64
1, 3601, Note_on_c, 0, 84, 30
1, 3601, Note_on_c, 0, 89, 47
1, 3601, Note_on_c, 0, 93, 35
1, 3602, Note_off_c, 0, 86, 64
1, 3603, Note_off_c, 0, 67, 64
1, 3603, Note_on_c, 0, 88, 43
1, 3603, Note_off_c, 0, 93, 64
1, 3604, Note_on_c, 0, 64, 79
1, 3604, Note_off_c, 0, 65, 64
1, 3604, Note_off_c, 0, 78, 64
1, 3604, Note_off_c, 0, 84, 64
1, 3605, Note_off_c, 0, 89, 64
1, 3607, Note_off_c, 0, 88, 64
1, 3608, Note_on_c, 0, 63, 58
1, 3609, Note_off_c, 0, 64, 64
1, 3614, Note_off_c, 0, 63, 64
1, 3617, Note_on_c, 0, 64, 64
1, 3619, Note_on_c, 0, 62, 39
1, 3619, Note_on_c, 0, 63, 36
1, 3621, Note_off_c, 0, 62, 64
1, 3621, Note_on_c, 0, 76, 80
1, 3621, Note_on_c, 0, 98, 34
1, 3622, Note_on_c, 0, 77, 85
1, 3622, Note_on_c, 0, 83, 14
1, 3622, Note_on_c, 0, 92, 25
1, 3622, Note_on_c, 0, 95, 24
1, 3623, Note_off_c, 0, 63, 64
1, 3623, Note_on_c, 0, 84, 23
1, 3623, Note_on_c, 0, 96, 38
1, 3625, Note_off_c, 0, 64, 64
1, 3625, Note_on_c, 0, 66, 41
1, 3625, Note_off_c, 0, 76, 64
1, 3625, Note_off_c, 0, 83, 64
1, 3625, Note_off_c, 0, 95, 64
1, 3626, Note_on_c, 0, 64, 49
1, 3626, Note_on_c, 0, 67, 35
1, 3626, Note_on_c, 0, 68, 40
1, 3626, Note_on_c, 0, 76, 52
1, 3626, Note_off_c, 0, 84, 64
1, 3626, Note_off_c, 0, 92, 64
1, 3626, Note_off_c, 0, 98, 64
1, 3627, Note_on_c, 0, 63, 43
1, 3627, Note_off_c, 0, 77, 64
1, 3627, Note_off_c, 0, 96, 64
1, 3628, Note_off_c, 0, 66, 64
1, 3628, Note_off_c, 0, 76, 64
1, 3629, Note_on_c, 0, 57, 30
1, 3629, Note_on_c, 0, 58, 31
1, 3629, Note_on_c, 0, 60, 39
1, 3629, Note_off_c, 0, 68, 64
1, 3630, Note_off_c, 0, 63, 64
1, 3630, Note_off_c, 0, 64, 64
1, 3630, Note_off_c, 0, 67, 64
1, 3631, Note_off_c, 0, 57, 64
1, 3631, Note_on_c, 0, 59, 47
1, 3632, Note_off_c, 0, 58, 64
1, 3634, Note_off_c, 0, 60, 64
1, 3636, Note_off_c, 0, 59, 64
1, 3637, Note_on_c, 0, 63, 41
1, 3638, Note_on_c, 0, 62, 41
1, 3639, Note_on_c, 0, 81, 29
1, 3640, Note_off_c, 0, 63, 64
1, 3644, Note_on_c, 0, 60, 26
1, 3644, Note_on_c, 0, 73, 19
1, 3645, Note_on_c, 0, 63, 27
1, 3645, Note_off_c, 0, 81, 64
1, 3646, Note_on_c, 0, 61, 26
1, 3646, Note_on_c, 0, 80, 29
1, 3647, Note_off_c, 0, 60, 64
1, 3647, Note_on_c, 0, 81, 34
1, 3648, Note_off_c, 0, 63, 64
1, 3648, Note_on_c, 0, 82, 27
1, 3649, Note_off_c, 0, 61, 64
1, 3649, Note_off_c, 0, 73, 64
1, 3649, Note_off_c, 0, 80, 64
1, 3651, Note_off_c, 0, 62, 64
1, 3651, Note_on_c, 0, 63, 29
1, 3653, Note_on_c, 0, 62, 27
1, 3653, Note_off_c, 0, 63, 64
1, 3653, Note_off_c, 0, 82, 64
1, 3655, Note_off_c, 0, 81, 64
1, 3656, Note_off_c, 0, 62, 64
1, 3663, Note_on_c, 0, 61, 29
1, 3664, Note_on_c, 0, 59, 44
1, 3664, Note_on_c, 0, 60, 64
1, 3665, Note_off_c, 0, 61, 64
1, 3667, Note_off_c, 0, 59, 64
1, 3668, Note_on_c, 0, 58, 40
1, 3669, Note_on_c, 0, 57, 29
1, 3670, Note_on_c, 0, 59, 31
1, 3670, Note_off_c, 0, 60, 64
1, 3670, Note_on_c, 0, 61, 41
1, 3671, Note_off_c, 0, 57, 64
1, 3672, Note_off_c, 0, 59, 64
1, 3672, Note_off_c, 0, 61, 64
1, 3673, Note_on_c, 0, 59, 44
1, 3674, Note_off_c, 0, 58, 64
1, 3677, Note_off_c, 0, 59, 64
1, 3677, Note_on_c, 0, 67, 49
1, 3678, Note_on_c, 0, 79, 80
1, 3678, Note_on_c, 0, 86, 59
1, 3683, Note_off_c, 0, 67, 64
1, 3684, Note_off_c, 0, 79, 64
1, 3684, Note_off_c, 0, 86, 64
1, 3685, Note_on_c, 0, 67, 29
1, 3685, Note_on_c, 0, 77, 47
1, 3685, Note_on_c, 0, 78, 34
1, 3686, Note_on_c, 0, 64, 57
1, 3686, Note_on_c, 0, 65, 47
1, 3686, Note_on_c, 0, 66, 32
1, 3688, Note_off_c, 0, 66, 64
1, 3688, Note_off_c, 0, 67, 64
1, 3688, Note_off_c, 0, 78, 64
1, 3689, Note_off_c, 0, 65, 64
1, 3691, Note_off_c, 0, 77, 64
1, 3698, Note_off_c, 0, 64, 64
1, 3699, Note_on_c, 0, 67, 53
1, 3699, Note_on_c, 0, 79, 88
1, 3699, Note_on_c, 0, 86, 51
1, 3703, Note_on_c, 0, 66, 51
1, 3703, Note_off_c, 0, 86, 64
1, 3704, Note_on_c, 0, 68, 61
1, 3706, Note_off_c, 0, 66, 64
1, 3708, Note_off_c, 0, 67, 64
1, 3708, Note_off_c, 0, 79, 64
1, 3708, Note_on_c, 0, 87, 11
1, 3711, Note_on_c, 0, 65, 64
1, 3711, Note_on_c, 0, 67, 40
1, 3711, Note_off_c, 0, 87, 64
1, 3713, Note_off_c, 0, 67, 64
1, 3713, Note_off_c, 0, 68, 64
1, 3714, Note_on_c, 0, 66, 55
1, 3717, Note_off_c, 0, 66, 64
1, 3719, Note_on_c, 0, 61, 39
1, 3719, Note_on_c, 0, 63, 40
1, 3719, Note_off_c, 0, 65, 64
1, 3720, Note_on_c, 0, 62, 56
1, 3721, Note_off_c, 0, 63, 64
1, 3721, Note_on_c, 0, 81, 12
1, 3722, Note_off_c, 0, 61, 64
1, 3725, Note_off_c, 0, 81, 64
1, 3728, Note_on_c, 0, 60, 26
1, 3729, Note_on_c, 0, 57, 29
1, 3729, Note_on_c, 0, 59, 29
1, 3730, Note_off_c, 0, 62, 64
1, 3731, Note_on_c, 0, 58, 34
1, 3731, Note_off_c, 0, 59, 64
1, 3731, Note_off_c, 0, 60, 64
1, 3732, Note_off_c, 0, 57, 64
1, 3732, Note_on_c, 0, 59, 52
1, 3734, Note_on_c, 0, 78, 49
1, 3735, Note_off_c, 0, 58, 64
1, 3735, Note_on_c, 0, 83, 51
1, 3735, Note_on_c, 0, 87, 29
1, 3735, Note_on_c, 0, 93, 26
1, 3738, Note_off_c, 0, 93, 64
1, 3739, Note_off_c, 0, 83, 64
1, 3740, Note_off_c, 0, 78, 64
1, 3740, Note_off_c, 0, 87, 64
1, 3741, Note_off_c, 0, 59, 64
1, 3741, Note_on_c, 0, 67, 37
1, 3742, Note_on_c, 0, 63, 51
1, 3742, Note_on_c, 0, 64, 34
1, 3742, Note_on_c, 0, 65, 54
1, 3744, Note_off_c, 0, 64, 64
1, 3744, Note_off_c, 0, 67, 64
1, 3746, Note_off_c, 0, 63, 64
1, 3747, Note_on_c, 0, 64, 56
1, 3747, Note_off_c, 0, 65, 64
1, 3750, Note_on_c, 0, 61, 31
1, 3750, Note_on_c, 0, 73, 44
1, 3750, Note_on_c, 0, 74, 51
1, 3751, Note_on_c, 0, 62, 36
1, 3752, Note_off_c, 0, 64, 64
1, 3752, Note_on_c, 0, 81, 20
1, 3753, Note_off_c, 0, 61, 64
1, 3753, Note_off_c, 0, 73, 64
1, 3754, Note_on_c, 0, 75, 42
1, 3755, Note_off_c, 0, 62, 64
1, 3755, Note_on_c, 0, 63, 35
1, 3757, Note_on_c, 0, 62, 30
1, 3757, Note_off_c, 0, 63, 64
1, 3758, Note_off_c, 0, 81, 64
1, 3759, Note_off_c, 0, 75, 64
1, 3765, Note_off_c, 0, 62, 64
1, 3766, Note_off_c, 0, 74, 64
1, 3775, Note_on_c, 0, 64, 47
1, 3777, Note_off_c, 0, 64, 64
1, 3777, Note_on_c, 0, 74, 76
1, 3777, Note_on_c, 0, 96, 39
1, 3777, Note_on_c, 0, 98, 45
1, 3777, Note_on_c, 0, 102, 31
1, 3778, Note_on_c, 0, 62, 64
1, 3778, Note_on_c, 0, 93, 20
1, 3781, Note_off_c, 0, 93, 64
1, 3781, Note_off_c, 0, 96, 64
1, 3784, Note_off_c, 0, 98, 64
1, 3784, Note_off_c, 0, 102, 64
1, 3785, Note_on_c, 0, 65, 61
1, 3785, Note_off_c, 0, 74, 64
1, 3786, Note_off_c, 0, 62, 64
1, 3786, Note_on_c, 0, 66, 44
1, 3787, Note_on_c, 0, 84, 29
1, 3788, Note_on_c, 0, 64, 55
1, 3789, Note_off_c, 0, 66, 64
1, 3789, Note_off_c, 0, 84, 64
1, 3790, Note_on_c, 0, 62, 54
1, 3790, Note_on_c, 0, 63, 55
1, 3790, Note_off_c, 0, 64, 64
1, 3790, Note_off_c, 0, 65, 64
1, 3792, Note_off_c, 0, 63, 64
1, 3792, Note_on_c, 0, 81, 22
1, 3795, Note_off_c, 0, 81, 64
1, 3796, Note_off_c, 0, 62, 64
1, 3796, Note_on_c, 0, 63, 53
1, 3797, Note_on_c, 0, 62, 44
1, 3798, Note_on_c, 0, 64, 53
1, 3799, Note_on_c, 0, 83, 74
1, 3800, Note_on_c, 0, 84, 32
1, 3801, Note_off_c, 0, 62, 64
1, 3801, Note_off_c, 0, 63, 64
1, 3801, Note_on_c, 0, 77, 24
1, 3803, Note_on_c, 0, 82, 44
1, 3803, Note_on_c, 0, 87, 32
1, 3803, Note_on_c, 0, 88, 57
1, 3803, Note_on_c, 0, 92, 48
1, 3804, Note_off_c, 0, 77, 64
1, 3805, Note_on_c, 0, 75, 30
1, 3806, Note_off_c, 0, 82, 64
1, 3806, Note_off_c, 0, 84, 64
1, 3807, Note_on_c, 0, 60, 71
1, 3807, Note_off_c, 0, 64, 64
1, 3807, Note_off_c, 0, 83, 64
1, 3807, Note_off_c, 0, 92, 64
1, 3808, Note_off_c, 0, 75, 64
1, 3808, Note_off_c, 0, 87, 64
1, 3808, Note_off_c, 0, 88, 64
1, 3810, Note_on_c, 0, 63, 23
1, 3811, Note_on_c, 0, 71, 42
1, 3811, Note_on_c, 0, 78, 16
1, 3811, Note_on_c, 0, 79, 23
1, 3812, Note_on_c, 0, 59, 65
1, 3813, Note_off_c, 0, 60, 64
1, 3814, Note_off_c, 0, 63, 64
1, 3814, Note_off_c, 0, 78, 64
1, 3814, Note_off_c, 0, 79, 64
1, 3817, Note_off_c, 0, 71, 64
1, 3818, Note_off_c, 0, 59, 64
1, 3819, Note_on_c, 0, 64, 30
1, 3820, Note_on_c, 0, 62, 43
1, 3820, Note_on_c, 0, 63, 49
1, 3822, Note_off_c, 0, 64, 64
1, 3823, Note_off_c, 0, 62, 64
1, 3826, Note_on_c, 0, 62, 42
1, 3826, Note_off_c, 0, 63, 64
1, 3826, Note_on_c, 0, 74, 49
1, 3829, Note_on_c, 0, 81, 15
1, 3832, Note_on_c, 0, 75, 38
1, 3833, Note_on_c, 0, 63, 26
1, 3835, Note_on_c, 0, 61, 27
1, 3835, Note_off_c, 0, 62, 64
1, 3835, Note_on_c, 0, 73, 28
1, 3835, Note_off_c, 0, 81, 64
1, 3837, Note_on_c, 0, 62, 26
1, 3838, Note_off_c, 0, 61, 64
1, 3838, Note_off_c, 0, 73, 64
1, 3839, Note_off_c, 0, 63, 64
1, 3840, Note_off_c, 0, 62, 64
1, 3840, Note_on_c, 0, 63, 33
1, 3842, Note_on_c, 0, 59, 44
1, 3842, Note_on_c, 0, 60, 39
1, 3842, Note_off_c, 0, 63, 64
1, 3842, Note_off_c, 0, 75, 64
1, 3843, Note_off_c, 0, 74, 64
1, 3844, Note_off_c, 0, 60, 64
1, 3845, Note_off_c, 0, 59, 64
1, 3850, Note_on_c, 0, 64, 21
1, 3851, Note_on_c, 0, 59, 52
1, 3851, Note_on_c, 0, 60, 30
1, 3853, Note_off_c, 0, 60, 64
1, 3853, Note_off_c, 0, 64, 64
1, 3856, Note_on_c, 0, 78, 12
1, 3861, Note_off_c, 0, 78, 64
1, 3862, Note_off_c, 0, 59, 64
1, 3865, Note_on_c, 0, 64, 14
1, 3868, Note_on_c, 0, 57, 43
1, 3868, Note_off_c, 0, 64, 64
1, 3871, Note_off_c, 0, 57, 64
1, 3871, Note_on_c, 0, 58, 47
1, 3873, Note_off_c, 0, 58, 64
1, 3874, Note_on_c, 0, 58, 46
1, 3877, Note_on_c, 0, 59, 25
1, 3878, Note_on_c, 0, 60, 40
1, 3879, Note_on_c, 0, 57, 29
1, 3879, Note_off_c, 0, 58, 64
1, 3881, Note_on_c, 0, 58, 37
1, 3881, Note_off_c, 0, 59, 64
1, 3881, Note_off_c, 0, 60, 64
1, 3882, Note_off_c, 0, 57, 64
1, 3885, Note_on_c, 0, 54, 12
1, 3885, Note_on_c, 0, 55, 30
1, 3885, Note_on_c, 0, 57, 31
1, 3885, Note_off_c, 0, 58, 64
1, 3888, Note_off_c, 0, 54, 64
1, 3889, Note_off_c, 0, 55, 64
1, 3889, Note_on_c, 0, 56, 35
1, 3889, Note_off_c, 0, 57, 64
1, 3891, Note_off_c, 0, 56, 64
1, 3895, Note_on_c, 0, 64, 25
1, 3896, Note_on_c, 0, 52, 26
1, 3902, Note_off_c, 0, 64, 64
1, 3903, Note_off_c, 0, 52, 64
1, 3911, Note_on_c, 0, 59, 54
1, 3914, Note_on_c, 0, 58, 30
1, 3915, Note_on_c, 0, 57, 37
1, 3915, Note_on_c, 0, 60, 50
1, 3918, Note_off_c, 0, 57, 64
1, 3918, Note_off_c, 0, 58, 64
1, 3919, Note_off_c, 0, 60, 64
1, 3922, Note_off_c, 0, 59, 64
1, 3924, Note_on_c, 0, 59, 46
1, 3925, Note_on_c, 0, 60, 31
1, 3927, Note_off_c, 0, 60, 64
1, 3929, Note_on_c, 0, 58, 41
1, 3930, Note_on_c, 0, 53, 29
1, 3930, Note_on_c, 0, 56, 24
1, 3930, Note_on_c, 0, 57, 49
1, 3930, Note_off_c, 0, 59, 64
1, 3933, Note_off_c, 0, 53, 64
1, 3933, Note_off_c, 0, 56, 64
1, 3935, Note_off_c, 0, 58, 64
1, 3938, Note_on_c, 0, 58, 41
1, 3939, Note_off_c, 0, 57, 64
1, 3941, Note_off_c, 0, 58, 64
1, 3941, Note_on_c, 0, 59, 28
1, 3941, Note_on_c, 0, 60, 36
1, 3943, Note_on_c, 0, 57, 35
1, 3944, Note_off_c, 0, 59, 64
1, 3944, Note_off_c, 0, 60, 64
1, 3946, Note_on_c, 0, 64, 39
1, 3947, Note_off_c, 0, 57, 64
1, 3948, Note_on_c, 0, 52, 37
1, 3953, Note_off_c, 0, 52, 64
1, 3953, Note_off_c, 0, 64, 64
1, 3955, Note_on_c, 0, 56, 26
1, 3960, Note_on_c, 0, 55, 26
1, 3962, Note_off_c, 0, 56, 64
1, 3966, Note_off_c, 0, 55, 64
1, 3972, Note_on_c, 0, 55, 26
1, 3976, Note_off_c, 0, 55, 64
1, 3976, Note_on_c, 0, 56, 26
1, 3979, Note_off_c, 0, 56, 64
1, 3999, Note_on_c, 0, 62, 43
1, 4000, Note_on_c, 0, 61, 34
1, 4000, Note_on_c, 0, 63, 61
1, 4001, Note_on_c, 0, 82, 47
1, 4002, Note_off_c, 0, 61, 64
1, 4002, Note_off_c, 0, 62, 64
1, 4002, Note_on_c, 0, 74, 47
1, 4004, Note_on_c, 0, 62, 60
1, 4004, Note_off_c, 0, 63, 64
1, 4004, Note_on_c, 0, 81, 46
1, 4004, Note_off_c, 0, 82, 64
1, 4005, Note_on_c, 0, 82, 31
1, 4006, Note_on_c, 0, 60, 45
1, 4006, Note_on_c, 0, 61, 33
1, 4006, Note_on_c, 0, 71, 34
1, 4007, Note_on_c, 0, 63, 56
1, 4008, Note_off_c, 0, 62, 64
1, 4008, Note_off_c, 0, 71, 64
1, 4009, Note_off_c, 0, 60, 64
1, 4009, Note_off_c, 0, 61, 64
1, 4009, Note_off_c, 0, 81, 64
1, 4010, Note_on_c, 0, 62, 79
1, 4010, Note_off_c, 0, 82, 64
1, 4011, Note_off_c, 0, 63, 64
1, 4011, Note_on_c, 0, 75, 23
1, 4012, Note_off_c, 0, 74, 64
1, 4013, Note_on_c, 0, 63, 80
1, 4014, Note_off_c, 0, 62, 64
1, 4014, Note_on_c, 0, 64, 39
1, 4014, Note_off_c, 0, 75, 64
1, 4015, Note_on_c, 0, 65, 75
1, 4016, Note_off_c, 0, 63, 64
1, 4016, Note_on_c, 0, 99, 20
1, 4016, Note_on_c, 0, 101, 34
1, 4017, Note_off_c, 0, 64, 64
1, 4017, Note_on_c, 0, 103, 39
1, 4019, Note_off_c, 0, 99, 64
1, 4029, Note_on_c, 0, 66, 35
1, 4029, Note_on_c, 0, 67, 42
1, 4029, Note_on_c, 0, 68, 55
1, 4029, Note_off_c, 0, 101, 64
1, 4029, Note_off_c, 0, 103, 64
1, 4030, Note_on_c, 0, 64, 59
1, 4032, Note_off_c, 0, 64, 64
1, 4032, Note_off_c, 0, 66, 64
1, 4032, Note_off_c, 0, 67, 64
1, 4032, Note_off_c, 0, 68, 64
1, 4032, Note_on_c, 0, 101, 36
1, 4036, Note_on_c, 0, 66, 44
1, 4037, Note_on_c, 0, 67, 64
1, 4037, Note_on_c, 0, 68, 68
1, 4037, Note_off_c, 0, 101, 64
1, 4039, Note_off_c, 0, 65, 64
1, 4039, Note_off_c, 0, 66, 64
1, 4040, Note_off_c, 0, 67, 64
1, 4044, Note_on_c, 0, 62, 41
1, 4044, Note_off_c, 0, 68, 64
1, 4044, Note_on_c, 0, 74, 47
1, 4044, Note_on_c, 0, 81, 56
1, 4044, Note_on_c, 0, 86, 68
1, 4044, Note_on_c, 0, 90, 52
1, 4045, Note_on_c, 0, 75, 37
1, 4045, Note_on_c, 0, 87, 64
1, 4045, Note_on_c, 0, 94, 20
1, 4047, Note_off_c, 0, 75, 64
1, 4047, Note_on_c, 0, 82, 50
1, 4048, Note_off_c, 0, 87, 64
1, 4048, Note_off_c, 0, 94, 64
1, 4049, Note_on_c, 0, 61, 24
1, 4049, Note_off_c, 0, 82, 64
1, 4049, Note_on_c, 0, 84, 27
1, 4049, Note_on_c, 0, 85, 21
1, 4049, Note_on_c, 0, 88, 22
1, 4049, Note_on_c, 0, 89, 16
1, 4050, Note_off_c, 0, 74, 64
1, 4050, Note_off_c, 0, 90, 64
1, 4052, Note_off_c, 0, 61, 64
1, 4052, Note_off_c, 0, 84, 64
1, 4052, Note_off_c, 0, 85, 64
1, 4052, Note_on_c, 0, 87, 45
1, 4052, Note_off_c, 0, 88, 64
1, 4052, Note_off_c, 0, 89, 64
1, 4052, Note_on_c, 0, 90, 34
1, 4053, Note_on_c, 0, 82, 40
1, 4055, Note_off_c, 0, 82, 64
1, 4055, Note_off_c, 0, 87, 64
1, 4058, Note_off_c, 0, 62, 64
1, 4058, Note_off_c, 0, 81, 64
1, 4058, Note_off_c, 0, 86, 64
1, 4058, Note_off_c, 0, 90, 64
1, 4059, Note_on_c, 0, 75, 51
1, 4059, Note_on_c, 0, 81, 32
1, 4059, Note_on_c, 0, 86, 25
1, 4060, Note_on_c, 0, 61, 36
1, 4060, Note_on_c, 0, 74, 36
1, 4060, Note_on_c, 0, 80, 31
1, 4060, Note_on_c, 0, 82, 31
1, 4060, Note_on_c, 0, 85, 19
1, 4061, Note_on_c, 0, 63, 34
1, 4062, Note_off_c, 0, 61, 64
1, 4062, Note_on_c, 0, 62, 34
1, 4062, Note_on_c, 0, 73, 32
1, 4063, Note_off_c, 0, 85, 64
1, 4063, Note_off_c, 0, 86, 64
1, 4064, Note_off_c, 0, 80, 64
1, 4065, Note_off_c, 0, 73, 64
1, 4065, Note_off_c, 0, 75, 64
1, 4065, Note_off_c, 0, 82, 64
1, 4066, Note_off_c, 0, 63, 64
1, 4066, Note_off_c, 0, 81, 64
1, 4067, Note_off_c, 0, 62, 64
1, 4067, Note_off_c, 0, 74, 64
1, 4073, Note_on_c, 0, 68, 74
1, 4074, Note_on_c, 0, 87, 52
1, 4077, Note_on_c, 0, 67, 57
1, 4077, Note_off_c, 0, 68, 64
1, 4077, Note_on_c, 0, 86, 44
1, 4077, Note_off_c, 0, 87, 64
1, 4078, Note_on_c, 0, 68, 37
1, 4078, Note_on_c, 0, 78, 34
1, 4079, Note_on_c, 0, 69, 51
1, 4079, Note_off_c, 0, 86, 64
1, 4080, Note_off_c, 0, 68, 64
1, 4080, Note_off_c, 0, 78, 64
1, 4081, Note_on_c, 0, 68, 68
1, 4082, Note_off_c, 0, 69, 64
1, 4082, Note_on_c, 0, 99, 33
1, 4083, Note_off_c, 0, 67, 64
1, 4087, Note_on_c, 0, 67, 49
1, 4087, Note_off_c, 0, 68, 64
1, 4087, Note_off_c, 0, 99, 64
1, 4089, Note_on_c, 0, 65, 65
1, 4090, Note_on_c, 0, 66, 46
1, 4090, Note_off_c, 0, 67, 64
1, 4092, Note_off_c, 0, 66, 64
1, 4094, Note_on_c, 0, 76, 75
1, 4095, Note_on_c, 0, 64, 77
1, 4095, Note_on_c, 0, 83, 68
1, 4097, Note_off_c, 0, 65, 64
1, 4098, Note_on_c, 0, 89, 30
1, 4099, Note_on_c, 0, 77, 39
1, 4100, Note_off_c, 0, 89, 64
1, 4101, Note_off_c, 0, 77, 64
1, 4101, Note_off_c, 0, 83, 64
1, 4102, Note_off_c, 0, 76, 64
1, 4103, Note_off_c, 0, 64, 64
1, 4103, Note_on_c, 0, 65, 46
1, 4103, Note_on_c, 0, 67, 52
1, 4105, Note_on_c, 0, 66, 48
1, 4106, Note_off_c, 0, 65, 64
1, 4107, Note_on_c, 0, 65, 59
1, 4107, Note_off_c, 0, 66, 64
1, 4107, Note_off_c, 0, 67, 64
1, 4110, Note_on_c, 0, 60, 43
1, 4110, Note_on_c, 0, 62, 41
1, 4111, Note_on_c, 0, 63, 63
1, 4111, Note_off_c, 0, 65, 64
1, 4113, Note_off_c, 0, 60, 64
1, 4115, Note_off_c, 0, 62, 64
1, 4122, Note_on_c, 0, 62, 50
1, 4122, Note_off_c, 0, 63, 64
1, 4128, Note_off_c, 0, 62, 64
1, 4136, Note_on_c, 0, 68, 74
1, 4137, Note_on_c, 0, 99, 32
1, 4138, Note_on_c, 0, 102, 21
1, 4140, Note_on_c, 0, 66, 38
1, 4140, Note_on_c, 0, 67, 51
1, 4141, Note_off_c, 0, 102, 64
1, 4142, Note_on_c, 0, 80, 88
1, 4142, Note_off_c, 0, 99, 64
1, 4143, Note_off_c, 0, 66, 64
1, 4143, Note_on_c, 0, 98, 27
1, 4143, Note_on_c, 0, 99, 49
1, 4144, Note_off_c, 0, 68, 64
1, 4144, Note_on_c, 0, 87, 30
1, 4144, Note_on_c, 0, 96, 38
1, 4145, Note_off_c, 0, 67, 64
1, 4145, Note_on_c, 0, 68, 49
1, 4146, Note_off_c, 0, 98, 64
1, 4148, Note_off_c, 0, 96, 64
1, 4149, Note_off_c, 0, 68, 64
1, 4149, Note_off_c, 0, 87, 64
1, 4149, Note_off_c, 0, 99, 64
1, 4150, Note_off_c, 0, 80, 64
1, 4151, Note_on_c, 0, 65, 68
1, 4151, Note_on_c, 0, 101, 29
1, 4155, Note_off_c, 0, 101, 64
1, 4158, Note_on_c, 0, 61, 36
1, 4159, Note_on_c, 0, 62, 49
1, 4159, Note_on_c, 0, 63, 41
1, 4159, Note_off_c, 0, 65, 64
1, 4159, Note_on_c, 0, 80, 23
1, 4161, Note_on_c, 0, 64, 39
1, 4162, Note_on_c, 0, 81, 23
1, 4163, Note_off_c, 0, 64, 64
1, 4163, Note_off_c, 0, 80, 64
1, 4163, Note_on_c, 0, 82, 23
1, 4164, Note_off_c, 0, 61, 64
1, 4165, Note_off_c, 0, 63, 64
1, 4165, Note_on_c, 0, 75, 41
1, 4167, Note_off_c, 0, 62, 64
1, 4167, Note_on_c, 0, 63, 49
1, 4167, Note_off_c, 0, 81, 64
1, 4169, Note_off_c, 0, 63, 64
1, 4169, Note_off_c, 0, 82, 64
1, 4170, Note_off_c, 0, 75, 64
1, 4171, Note_on_c, 0, 65, 32
1, 4171, Note_on_c, 0, 67, 34
1, 4172, Note_on_c, 0, 66, 31
1, 4172, Note_on_c, 0, 68, 47
1, 4173, Note_on_c, 0, 64, 59
1, 4174, Note_off_c, 0, 65, 64
1, 4174, Note_off_c, 0, 66, 64
1, 4175, Note_off_c, 0, 67, 64
1, 4175, Note_off_c, 0, 68, 64
1, 4177, Note_on_c, 0, 58, 42
1, 4177, Note_on_c, 0, 60, 40
1, 4177, Note_on_c, 0, 61, 32
1, 4177, Note_on_c, 0, 62, 32
1, 4177, Note_on_c, 0, 63, 56
1, 4177, Note_on_c, 0, 71, 23
1, 4178, Note_off_c, 0, 64, 64
1, 4179, Note_off_c, 0, 58, 64
1, 4180, Note_off_c, 0, 60, 64
1, 4180, Note_off_c, 0, 61, 64
1, 4180, Note_off_c, 0, 62, 64
1, 4180, Note_off_c, 0, 71, 64
1, 4185, Note_off_c, 0, 63, 64
1, 4185, Note_on_c, 0, 77, 76
1, 4185, Note_on_c, 0, 84, 51
1, 4186, Note_on_c, 0, 65, 48
1, 4187, Note_on_c, 0, 76, 69
1, 4187, Note_on_c, 0, 88, 78
1, 4188, Note_on_c, 0, 64, 48
1, 4188, Note_off_c, 0, 65, 64
1, 4188, Note_off_c, 0, 77, 64
1, 4189, Note_on_c, 0, 63, 23
1, 4189, Note_on_c, 0, 75, 32
1, 4189, Note_on_c, 0, 77, 82
1, 4189, Note_on_c, 0, 83, 42
1, 4189, Note_off_c, 0, 84, 64
1, 4190, Note_on_c, 0, 65, 31
1, 4190, Note_on_c, 0, 84, 54
1, 4192, Note_off_c, 0, 63, 64
1, 4192, Note_off_c, 0, 75, 64
1, 4193, Note_off_c, 0, 65, 64
1, 4194, Note_off_c, 0, 76, 64
1, 4195, Note_off_c, 0, 64, 64
1, 4195, Note_off_c, 0, 83, 64
1, 4196, Note_on_c, 0, 64, 49
1, 4196, Note_on_c, 0, 76, 80
1, 4196, Note_off_c, 0, 77, 64
1, 4196, Note_on_c, 0, 83, 46
1, 4196, Note_off_c, 0, 84, 64
1, 4196, Note_on_c, 0, 92, 27
1, 4198, Note_off_c, 0, 83, 64
1, 4199, Note_off_c, 0, 64, 64
1, 4199, Note_on_c, 0, 68, 56
1, 4199, Note_off_c, 0, 76, 64
1, 4199, Note_off_c, 0, 88, 64
1, 4199, Note_off_c, 0, 92, 64
1, 4200, Note_on_c, 0, 67, 51
1, 4200, Note_on_c, 0, 79, 74
1, 4200, Note_on_c, 0, 80, 78
1, 4201, Note_on_c, 0, 86, 63
1, 4201, Note_on_c, 0, 87, 61
1, 4205, Note_off_c, 0, 68, 64
1, 4206, Note_on_c, 0, 68, 48
1, 4208, Note_off_c, 0, 86, 64
1, 4208, Note_off_c, 0, 87, 64
1, 4210, Note_off_c, 0, 68, 64
1, 4210, Note_off_c, 0, 80, 64
1, 4211, Note_off_c, 0, 79, 64
1, 4213, Note_on_c, 0, 66, 45
1, 4214, Note_on_c, 0, 65, 44
1, 4215, Note_off_c, 0, 66, 64
1, 4215, Note_off_c, 0, 67, 64
1, 4216, Note_off_c, 0, 65, 64
1, 4217, Note_on_c, 0, 60, 53
1, 4223, Note_on_c, 0, 59, 32
1, 4223, Note_off_c, 0, 60, 64
1, 4224, Note_on_c, 0, 62, 52
1, 4224, Note_on_c, 0, 63, 41
1, 4225, Note_off_c, 0, 59, 64
1, 4232, Note_off_c, 0, 63, 64
1, 4233, Note_on_c, 0, 63, 39
1, 4235, Note_off_c, 0, 63, 64
1, 4236, Note_off_c, 0, 62, 64
1, 4236, Note_on_c, 0, 63, 60
1, 4238, Note_on_c, 0, 62, 48
1, 4244, Note_off_c, 0, 62, 64
1, 4247, Note_on_c, 0, 62, 45
1, 4247, Note_off_c, 0, 63, 64
1, 4250, Note_on_c, 0, 59, 39
1, 4250, Note_on_c, 0, 60, 30
1, 4251, Note_off_c, 0, 62, 64
1, 4252, Note_off_c, 0, 60, 64
1, 4253, Note_off_c, 0, 59, 64
1, 4259, Note_on_c, 0, 64, 51
1, 4260, Note_on_c, 0, 60, 56
1, 4262, Note_off_c, 0, 64, 64
1, 4265, Note_on_c, 0, 59, 50
1, 4265, Note_off_c, 0, 60, 64
1, 4265, Note_on_c, 0, 78, 56
1, 4266, Note_on_c, 0, 87, 49
1, 4271, Note_off_c, 0, 59, 64
1, 4271, Note_off_c, 0, 78, 64
1, 4271, Note_off_c, 0, 87, 64
1, 4274, Note_on_c, 0, 63, 55
1, 4282, Note_on_c, 0, 62, 33
1, 4282, Note_off_c, 0, 63, 64
1, 4282, Note_on_c, 0, 74, 45
1, 4282, Note_on_c, 0, 81, 34
1, 4283, Note_on_c, 0, 80, 27
1, 4284, Note_on_c, 0, 73, 29
1, 4284, Note_on_c, 0, 75, 53
1, 4284, Note_on_c, 0, 82, 36
1, 4285, Note_on_c, 0, 61, 30
1, 4285, Note_off_c, 0, 62, 64
1, 4285, Note_on_c, 0, 63, 51
1, 4287, Note_on_c, 0, 62, 34
1, 4288, Note_off_c, 0, 61, 64
1, 4288, Note_off_c, 0, 73, 64
1, 4288, Note_off_c, 0, 80, 64
1, 4290, Note_off_c, 0, 62, 64
1, 4291, Note_off_c, 0, 74, 64
1, 4291, Note_off_c, 0, 81, 64
1, 4292, Note_on_c, 0, 62, 59
1, 4292, Note_off_c, 0, 63, 64
1, 4292, Note_off_c, 0, 75, 64
1, 4292, Note_on_c, 0, 81, 37
1, 4292, Note_off_c, 0, 82, 64
1, 4296, Note_off_c, 0, 62, 64
1, 4296, Note_off_c, 0, 81, 64
1, 4297, Note_on_c, 0, 60, 56
1, 4300, Note_off_c, 0, 60, 64
1, 4302, Note_on_c, 0, 59, 49
1, 4302, Note_on_c, 0, 60, 49
1, 4302, Note_on_c, 0, 61, 33
1, 4304, Note_off_c, 0, 61, 64
1, 4309, Note_off_c, 0, 60, 64
1, 4310, Note_on_c, 0, 78, 12
1, 4313, Note_off_c, 0, 78, 64
1, 4314, Note_off_c, 0, 59, 64
1, 4316, Note_on_c, 0, 60, 20
1, 4316, Note_on_c, 0, 62, 30
1, 4317, Note_on_c, 0, 59, 36
1, 4319, Note_off_c, 0, 60, 64
1, 4319, Note_off_c, 0, 62, 64
1, 4322, Note_on_c, 0, 57, 37
1, 4322, Note_off_c, 0, 59, 64
1, 4323, Note_on_c, 0, 76, 38
1, 4323, Note_on_c, 0, 81, 39
1, 4323, Note_on_c, 0, 85, 20
1, 4324, Note_on_c, 0, 90, 22
1, 4325, Note_on_c, 0, 91, 30
1, 4327, Note_off_c, 0, 90, 64
1, 4328, Note_off_c, 0, 81, 64
1, 4328, Note_off_c, 0, 85, 64
1, 4328, Note_off_c, 0, 91, 64
1, 4329, Note_off_c, 0, 57, 64
1, 4329, Note_off_c, 0, 76, 64
1, 4330, Note_on_c, 0, 78, 49
1, 4331, Note_on_c, 0, 59, 44
1, 4335, Note_on_c, 0, 57, 39
1, 4336, Note_on_c, 0, 58, 46
1, 4336, Note_off_c, 0, 59, 64
1, 4336, Note_off_c, 0, 78, 64
1, 4338, Note_off_c, 0, 57, 64
1, 4339, Note_on_c, 0, 57, 47
1, 4340, Note_off_c, 0, 58, 64
1, 4341, Note_on_c, 0, 58, 40
1, 4342, Note_off_c, 0, 57, 64
1, 4343, Note_off_c, 0, 58, 64
1, 4343, Note_on_c, 0, 62, 69
1, 4348, Note_off_c, 0, 62, 64
1, 4348, Note_on_c, 0, 63, 68
1, 4350, Note_on_c, 0, 62, 45
1, 4356, Note_off_c, 0, 62, 64
1, 4359, Note_on_c, 0, 59, 30
1, 4359, Note_on_c, 0, 60, 28
1, 4359, Note_off_c, 0, 63, 64
1, 4362, Note_off_c, 0, 59, 64
1, 4365, Note_off_c, 0, 60, 64
1, 4378, Note_on_c, 0, 63, 62
1, 4380, Note_on_c, 0, 74, 19
1, 4380, Note_on_c, 0, 81, 32
1, 4381, Note_on_c, 0, 62, 61
1, 4381, Note_off_c, 0, 63, 64
1, 4385, Note_off_c, 0, 62, 64
1, 4385, Note_off_c, 0, 74, 64
1, 4385, Note_off_c, 0, 81, 64
1, 4386, Note_on_c, 0, 59, 50
1, 4387, Note_on_c, 0, 78, 13
1, 4390, Note_off_c, 0, 78, 64
1, 4391, Note_off_c, 0, 59, 64
1, 4393, Note_on_c, 0, 55, 21
1, 4395, Note_on_c, 0, 57, 34
1, 4396, Note_off_c, 0, 55, 64
1, 4396, Note_on_c, 0, 56, 24
1, 4399, Note_off_c, 0, 56, 64
1, 4400, Note_on_c, 0, 70, 52
1, 4401, Note_off_c, 0, 57, 64
1, 4401, Note_on_c, 0, 58, 47
1, 4406, Note_on_c, 0, 60, 39
1, 4406, Note_on_c, 0, 71, 24
1, 4409, Note_off_c, 0, 60, 64
1, 4409, Note_off_c, 0, 71, 64
1, 4411, Note_on_c, 0, 57, 44
1, 4411, Note_off_c, 0, 58, 64
1, 4411, Note_on_c, 0, 65, 33
1, 4412, Note_on_c, 0, 53, 52
1, 4412, Note_on_c, 0, 56, 54
1, 4412, Note_on_c, 0, 66, 27
1, 4412, Note_off_c, 0, 70, 64
1, 4413, Note_off_c, 0, 57, 64
1, 4413, Note_on_c, 0, 67, 31
1, 4414, Note_off_c, 0, 65, 64
1, 4415, Note_off_c, 0, 53, 64
1, 4415, Note_off_c, 0, 66, 64
1, 4418, Note_off_c, 0, 67, 64
1, 4419, Note_off_c, 0, 56, 64
1, 4419, Note_on_c, 0, 60, 51
1, 4422, Note_on_c, 0, 58, 26
1, 4425, Note_off_c, 0, 58, 64
1, 4425, Note_off_c, 0, 60, 64
1, 4426, Note_on_c, 0, 60, 58
1, 4429, Note_on_c, 0, 79, 17
1, 4432, Note_on_c, 0, 71, 18
1, 4432, Note_off_c, 0, 79, 64
1, 4433, Note_on_c, 0, 58, 32
1, 4434, Note_off_c, 0, 60, 64
1, 4435, Note_off_c, 0, 71, 64
1, 4436, Note_off_c, 0, 58, 64
1, 4438, Note_on_c, 0, 57, 31
1, 4439, Note_on_c, 0, 58, 43
1, 4441, Note_off_c, 0, 57, 64
1, 4444, Note_on_c, 0, 60, 42
1, 4445, Note_off_c, 0, 58, 64
1, 4446, Note_on_c, 0, 58, 33
1, 4448, Note_off_c, 0, 60, 64
1, 4452, Note_on_c, 0, 57, 37
1, 4452, Note_off_c, 0, 58, 64
1, 4455, Note_off_c, 0, 57, 64
1, 4455, Note_on_c, 0, 64, 28
1, 4456, Note_on_c, 0, 52, 40
1, 4456, Note_on_c, 0, 71, 11
1, 4459, Note_off_c, 0, 71, 64
1, 4460, Note_off_c, 0, 52, 64
1, 4460, Note_off_c, 0, 64, 64
1, 4462, Note_on_c, 0, 60, 31
1, 4464, Note_on_c, 0, 58, 34
1, 4464, Note_off_c, 0, 60, 64
1, 4465, Note_on_c, 0, 57, 26
1, 4469, Note_off_c, 0, 57, 64
1, 4470, Note_on_c, 0, 57, 32
1, 4470, Note_off_c, 0, 58, 64
1, 4472, Note_on_c, 0, 56, 28
1, 4472, Note_off_c, 0, 57, 64
1, 4472, Note_on_c, 0, 67, 13
1, 4475, Note_off_c, 0, 56, 64
1, 4476, Note_on_c, 0, 56, 23
1, 4476, Note_off_c, 0, 67, 64
1, 4480, Note_on_c, 0, 55, 23
1, 4481, Note_off_c, 0, 56, 64
1, 4492, Note_off_c, 0, 55, 64
1, 4515, Note_on_c, 0, 73, 50
1, 4515, Note_on_c, 0, 74, 69
1, 4515, Note_on_c, 0, 80, 13
1, 4515, Note_on_c, 0, 81, 71
1, 4516, Note_on_c, 0, 62, 67
1, 4518, Note_off_c, 0, 73, 64
1, 4518, Note_off_c, 0, 80, 64
1, 4528, Note_off_c, 0, 81, 64
1, 4529, Note_off_c, 0, 62, 64
1, 4529, Note_on_c, 0, 64, 60
1, 4529, Note_off_c, 0, 74, 64
1, 4530, Note_on_c, 0, 76, 72
1, 4531, Note_on_c, 0, 83, 79
1, 4537, Note_on_c, 0, 92, 28
1, 4541, Note_on_c, 0, 84, 64
1, 4542, Note_off_c, 0, 64, 64
1, 4542, Note_on_c, 0, 67, 31
1, 4542, Note_on_c, 0, 78, 40
1, 4542, Note_on_c, 0, 79, 48
1, 4542, Note_off_c, 0, 83, 64
1, 4542, Note_on_c, 0, 85, 46
1, 4542, Note_on_c, 0, 86, 54
1, 4543, Note_off_c, 0, 76, 64
1, 4543, Note_off_c, 0, 92, 64
1, 4544, Note_on_c, 0, 64, 46
1, 4544, Note_on_c, 0, 76, 60
1, 4544, Note_off_c, 0, 78, 64
1, 4544, Note_on_c, 0, 83, 71
1, 4544, Note_off_c, 0, 84, 64
1, 4545, Note_off_c, 0, 67, 64
1, 4545, Note_off_c, 0, 79, 64
1, 4545, Note_off_c, 0, 86, 64
1, 4545, Note_on_c, 0, 92, 46
1, 4546, Note_off_c, 0, 85, 64
1, 4549, Note_on_c, 0, 63, 71
1, 4550, Note_on_c, 0, 61, 50
1, 4550, Note_off_c, 0, 64, 64
1, 4550, Note_off_c, 0, 83, 64
1, 4550, Note_off_c, 0, 92, 64
1, 4551, Note_on_c, 0, 60, 56
1, 4551, Note_off_c, 0, 76, 64
1, 4552, Note_off_c, 0, 61, 64
1, 4552, Note_on_c, 0, 62, 74
1, 4553, Note_off_c, 0, 60, 64
1, 4553, Note_off_c, 0, 63, 64
1, 4558, Note_off_c, 0, 62, 64
1, 4558, Note_on_c, 0, 65, 30
1, 4558, Note_on_c, 0, 77, 64
1, 4559, Note_on_c, 0, 64, 49
1, 4559, Note_on_c, 0, 76, 84
1, 4559, Note_on_c, 0, 83, 73
1, 4559, Note_on_c, 0, 96, 24
1, 4560, Note_on_c, 0, 84, 14
1, 4561, Note_off_c, 0, 65, 64
1, 4561, Note_on_c, 0, 75, 59
1, 4561, Note_on_c, 0, 82, 23
1, 4562, Note_off_c, 0, 96, 64
1, 4563, Note_off_c, 0, 77, 64
1, 4563, Note_off_c, 0, 84, 64
1, 4564, Note_off_c, 0, 82, 64
1, 4564, Note_on_c, 0, 98, 29
1, 4565, Note_off_c, 0, 75, 64
1, 4566, Note_on_c, 0, 92, 12
1, 4570, Note_on_c, 0, 82, 16
1, 4571, Note_off_c, 0, 92, 64
1, 4571, Note_off_c, 0, 98, 64
1, 4572, Note_on_c, 0, 77, 51
1, 4572, Note_on_c, 0, 78, 60
1, 4572, Note_on_c, 0, 79, 63
1, 4572, Note_on_c, 0, 84, 49
1, 4572, Note_on_c, 0, 85, 45
1, 4573, Note_on_c, 0, 65, 22
1, 4573, Note_off_c, 0, 82, 64
1, 4573, Note_on_c, 0, 86, 29
1, 4575, Note_off_c, 0, 79, 64
1, 4576, Note_off_c, 0, 65, 64
1, 4576, Note_off_c, 0, 78, 64
1, 4576, Note_off_c, 0, 85, 64
1, 4576, Note_off_c, 0, 86, 64
1, 4577, Note_off_c, 0, 77, 64
1, 4577, Note_off_c, 0, 84, 64
1, 4579, Note_on_c, 0, 60, 51
1, 4579, Note_on_c, 0, 61, 47
1, 4579, Note_on_c, 0, 63, 47
1, 4579, Note_off_c, 0, 64, 64
1, 4580, Note_off_c, 0, 76, 64
1, 4580, Note_off_c, 0, 83, 64
1, 4581, Note_on_c, 0, 62, 66
1, 4581, Note_off_c, 0, 63, 64
1, 4582, Note_off_c, 0, 60, 64
1, 4582, Note_off_c, 0, 61, 64
1, 4582, Note_on_c, 0, 81, 15
1, 4586, Note_off_c, 0, 81, 64
1, 4587, Note_off_c, 0, 62, 64
1, 4587, Note_on_c, 0, 68, 53
1, 4588, Note_on_c, 0, 79, 70
1, 4589, Note_on_c, 0, 67, 51
1, 4589, Note_on_c, 0, 86, 73
1, 4589, Note_on_c, 0, 95, 29
1, 4591, Note_off_c, 0, 68, 64
1, 4592, Note_off_c, 0, 95, 64
1, 4600, Note_off_c, 0, 86, 64
1, 4602, Note_on_c, 0, 64, 64
1, 4603, Note_off_c, 0, 67, 64
1, 4603, Note_off_c, 0, 79, 64
1, 4606, Note_on_c, 0, 62, 34
1, 4607, Note_on_c, 0, 75, 12
1, 4608, Note_on_c, 0, 77, 39
1, 4609, Note_off_c, 0, 62, 64
1, 4609, Note_on_c, 0, 63, 41
1, 4610, Note_on_c, 0, 65, 47
1, 4610, Note_off_c, 0, 75, 64
1, 4612, Note_off_c, 0, 63, 64
1, 4613, Note_off_c, 0, 65, 64
1, 4614, Note_off_c, 0, 77, 64
1, 4619, Note_on_c, 0, 60, 37
1, 4620, Note_off_c, 0, 64, 64
1, 4620, Note_on_c, 0, 71, 44
1, 4621, Note_on_c, 0, 59, 42
1, 4621, Note_off_c, 0, 60, 64
1, 4623, Note_on_c, 0, 78, 15
1, 4626, Note_off_c, 0, 78, 64
1, 4627, Note_off_c, 0, 59, 64
1, 4627, Note_on_c, 0, 62, 40
1, 4627, Note_off_c, 0, 71, 64
1, 4627, Note_on_c, 0, 75, 34
1, 4632, Note_off_c, 0, 75, 64
1, 4637, Note_off_c, 0, 62, 64
1, 4647, Note_on_c, 0, 60, 65
1, 4653, Note_off_c, 0, 60, 64
1, 4654, Note_on_c, 0, 57, 29
1, 4654, Note_on_c, 0, 58, 31
1, 4656, Note_off_c, 0, 58, 64
1, 4656, Note_on_c, 0, 60, 38
1, 4657, Note_on_c, 0, 58, 37
1, 4660, Note_off_c, 0, 57, 64
1, 4661, Note_on_c, 0, 59, 54
1, 4661, Note_off_c, 0, 60, 64
1, 4662, Note_off_c, 0, 58, 64
1, 4668, Note_off_c, 0, 59, 64
1, 4668, Note_on_c, 0, 63, 71
1, 4669, Note_on_c, 0, 99, 30
1, 4670, Note_on_c, 0, 74, 42
1, 4670, Note_on_c, 0, 82, 18
1, 4672, Note_off_c, 0, 99, 64
1, 4673, Note_off_c, 0, 74, 64
1, 4673, Note_off_c, 0, 82, 64
1, 4675, Note_on_c, 0, 64, 85
1, 4676, Note_off_c, 0, 63, 64
1, 4676, Note_on_c, 0, 83, 76
1, 4676, Note_on_c, 0, 88, 67
1, 4676, Note_on_c, 0, 92, 50
1, 4676, Note_on_c, 0, 102, 20
1, 4681, Note_on_c, 0, 75, 41
1, 4681, Note_on_c, 0, 82, 49
1, 4681, Note_on_c, 0, 91, 20
1, 4681, Note_off_c, 0, 102, 64
1, 4682, Note_on_c, 0, 63, 46
1, 4683, Note_off_c, 0, 92, 64
1, 4684, Note_off_c, 0, 63, 64
1, 4684, Note_off_c, 0, 75, 64
1, 4684, Note_off_c, 0, 82, 64
1, 4684, Note_off_c, 0, 91, 64
1, 4688, Note_off_c, 0, 83, 64
1, 4688, Note_off_c, 0, 88, 64
1, 4690, Note_on_c, 0, 70, 80
1, 4691, Note_off_c, 0, 64, 64
1, 4692, Note_on_c, 0, 81, 31
1, 4695, Note_on_c, 0, 68, 47
1, 4695, Note_on_c, 0, 69, 61
1, 4695, Note_off_c, 0, 70, 64
1, 4698, Note_off_c, 0, 68, 64
1, 4698, Note_on_c, 0, 70, 51
1, 4700, Note_off_c, 0, 81, 64
1, 4701, Note_off_c, 0, 70, 64
1, 4706, Note_off_c, 0, 69, 64
1, 4706, Note_on_c, 0, 70, 47
1, 4707, Note_on_c, 0, 67, 32
1, 4707, Note_on_c, 0, 68, 37
1, 4707, Note_on_c, 0, 69, 38
1, 4707, Note_on_c, 0, 71, 33
1, 4708, Note_on_c, 0, 66, 58
1, 4708, Note_on_c, 0, 99, 21
1, 4709, Note_off_c, 0, 69, 64
1, 4709, Note_off_c, 0, 71, 64
1, 4710, Note_off_c, 0, 67, 64
1, 4710, Note_off_c, 0, 68, 64
1, 4710, Note_off_c, 0, 70, 64
1, 4711, Note_off_c, 0, 99, 64
1, 4712, Note_on_c, 0, 65, 34
1, 4713, Note_on_c, 0, 63, 50
1, 4713, Note_on_c, 0, 76, 47
1, 4714, Note_on_c, 0, 64, 58
1, 4714, Note_off_c, 0, 66, 64
1, 4715, Note_off_c, 0, 65, 64
1, 4716, Note_off_c, 0, 63, 64
1, 4717, Note_on_c, 0, 83, 13
1, 4721, Note_on_c, 0, 62, 40
1, 4721, Note_on_c, 0, 63, 44
1, 4721, Note_off_c, 0, 64, 64
1, 4721, Note_off_c, 0, 76, 64
1, 4721, Note_off_c, 0, 83, 64
1, 4724, Note_on_c, 0, 74, 44
1, 4725, Note_off_c, 0, 63, 64
1, 4726, Note_on_c, 0, 81, 66
1, 4728, Note_on_c, 0, 86, 50
1, 4729, Note_off_c, 0, 62, 64
1, 4729, Note_on_c, 0, 89, 44
1, 4730, Note_on_c, 0, 62, 38
1, 4731, Note_off_c, 0, 89, 64
1, 4731, Note_on_c, 0, 90, 52
1, 4734, Note_off_c, 0, 62, 64
1, 4734, Note_off_c, 0, 86, 64
1, 4734, Note_off_c, 0, 90, 64
1, 4735, Note_off_c, 0, 74, 64
1, 4735, Note_off_c, 0, 81, 64
1, 4736, Note_on_c, 0, 65, 60
1, 4741, Note_on_c, 0, 64, 60
1, 4741, Note_off_c, 0, 65, 64
1, 4745, Note_on_c, 0, 62, 36
1, 4745, Note_on_c, 0, 74, 43
1, 4746, Note_off_c, 0, 64, 64
1, 4747, Note_on_c, 0, 81, 16
1, 4748, Note_on_c, 0, 75, 45
1, 4752, Note_off_c, 0, 81, 64
1, 4754, Note_off_c, 0, 75, 64
1, 4764, Note_off_c, 0, 62, 64
1, 4764, Note_off_c, 0, 74, 64
1, 4778, Note_on_c, 0, 57, 58
1, 4781, Note_on_c, 0, 56, 39
1, 4782, Note_on_c, 0, 54, 30
1, 4782, Note_off_c, 0, 57, 64
1, 4784, Note_off_c, 0, 54, 64
1, 4784, Note_on_c, 0, 58, 56
1, 4785, Note_off_c, 0, 56, 64
1, 4786, Note_on_c, 0, 69, 28
1, 4787, Note_on_c, 0, 57, 59
1, 4787, Note_off_c, 0, 58, 64
1, 4791, Note_on_c, 0, 56, 29
1, 4791, Note_on_c, 0, 59, 55
1, 4791, Note_off_c, 0, 69, 64
1, 4792, Note_off_c, 0, 57, 64
1, 4793, Note_off_c, 0, 56, 64
1, 4795, Note_on_c, 0, 102, 9
1, 4798, Note_off_c, 0, 102, 64
1, 4799, Note_on_c, 0, 60, 29
1, 4800, Note_off_c, 0, 59, 64
1, 4800, Note_on_c, 0, 62, 39
1, 4800, Note_on_c, 0, 64, 41
1, 4802, Note_off_c, 0, 60, 64
1, 4802, Note_on_c, 0, 63, 49
1, 4803, Note_off_c, 0, 64, 64
1, 4804, Note_off_c, 0, 62, 64
1, 4806, Note_on_c, 0, 62, 61
1, 4807, Note_off_c, 0, 63, 64
1, 4809, Note_on_c, 0, 81, 23
1, 4810, Note_on_c, 0, 63, 64
1, 4811, Note_off_c, 0, 62, 64
1, 4812, Note_on_c, 0, 62, 69
1, 4813, Note_off_c, 0, 63, 64
1, 4819, Note_off_c, 0, 81, 64
1, 4820, Note_off_c, 0, 62, 64
1, 4820, Note_on_c, 0, 81, 68
1, 4821, Note_on_c, 0, 62, 59
1, 4821, Note_on_c, 0, 74, 59
1, 4828, Note_on_c, 0, 59, 51
1, 4828, Note_on_c, 0, 60, 29
1, 4828, Note_off_c, 0, 74, 64
1, 4828, Note_off_c, 0, 81, 64
1, 4829, Note_off_c, 0, 62, 64
1, 4830, Note_off_c, 0, 60, 64
1, 4834, Note_off_c, 0, 59, 64
1, 4835, Note_on_c, 0, 60, 33
1, 4835, Note_on_c, 0, 61, 21
1, 4835, Note_on_c, 0, 63, 34
1, 4837, Note_on_c, 0, 71, 25
1, 4837, Note_on_c, 0, 78, 16
1, 4838, Note_on_c, 0, 59, 41
1, 4838, Note_off_c, 0, 61, 64
1, 4838, Note_off_c, 0, 63, 64
1, 4839, Note_off_c, 0, 60, 64
1, 4840, Note_off_c, 0, 59, 64
1, 4840, Note_off_c, 0, 71, 64
1, 4840, Note_off_c, 0, 78, 64
1, 4841, Note_on_c, 0, 56, 31
1, 4842, Note_on_c, 0, 69, 20
1, 4842, Note_on_c, 0, 76, 38
1, 4842, Note_on_c, 0, 81, 31
1, 4842, Note_on_c, 0, 85, 19
1, 4843, Note_off_c, 0, 56, 64
1, 4843, Note_on_c, 0, 57, 38
1, 4845, Note_off_c, 0, 85, 64
1, 4846, Note_off_c, 0, 57, 64
1, 4846, Note_off_c, 0, 69, 64
1, 4846, Note_off_c, 0, 76, 64
1, 4846, Note_off_c, 0, 81, 64
1, 4848, Note_on_c, 0, 83, 43
1, 4849, Note_on_c, 0, 76, 30
1, 4849, Note_on_c, 0, 82, 31
1, 4849, Note_on_c, 0, 87, 33
1, 4849, Note_on_c, 0, 88, 32
1, 4850, Note_on_c, 0, 86, 51
1, 4850, Note_on_c, 0, 90, 36
1, 4851, Note_on_c, 0, 62, 33
1, 4851, Note_on_c, 0, 74, 34
1, 4851, Note_off_c, 0, 76, 64
1, 4851, Note_on_c, 0, 81, 48
1, 4851, Note_off_c, 0, 88, 64
1, 4852, Note_off_c, 0, 83, 64
1, 4853, Note_off_c, 0, 82, 64
1, 4854, Note_off_c, 0, 87, 64
1, 4855, Note_on_c, 0, 79, 24
1, 4855, Note_on_c, 0, 84, 25
1, 4856, Note_on_c, 0, 59, 35
1, 4856, Note_off_c, 0, 62, 64
1, 4856, Note_off_c, 0, 74, 64
1, 4856, Note_on_c, 0, 78, 45
1, 4856, Note_on_c, 0, 83, 35
1, 4856, Note_off_c, 0, 86, 64
1, 4856, Note_on_c, 0, 87, 15
1, 4857, Note_off_c, 0, 81, 64
1, 4858, Note_off_c, 0, 79, 64
1, 4858, Note_off_c, 0, 84, 64
1, 4858, Note_off_c, 0, 90, 64
1, 4859, Note_off_c, 0, 59, 64
1, 4859, Note_off_c, 0, 78, 64
1, 4859, Note_off_c, 0, 83, 64
1, 4859, Note_off_c, 0, 87, 64
1, 4863, Note_on_c, 0, 69, 30
1, 4864, Note_on_c, 0, 57, 43
1, 4864, Note_on_c, 0, 67, 32
1, 4864, Note_on_c, 0, 68, 33
1, 4865, Note_on_c, 0, 70, 33
1, 4867, Note_off_c, 0, 57, 64
1, 4867, Note_on_c, 0, 58, 52
1, 4867, Note_off_c, 0, 67, 64
1, 4867, Note_off_c, 0, 68, 64
1, 4868, Note_off_c, 0, 69, 64
1, 4869, Note_on_c, 0, 59, 57
1, 4869, Note_off_c, 0, 70, 64
1, 4870, Note_off_c, 0, 58, 64
1, 4870, Note_on_c, 0, 60, 53
1, 4873, Note_off_c, 0, 60, 64
1, 4877, Note_off_c, 0, 59, 64
1, 4877, Note_on_c, 0, 63, 53
1, 4881, Note_on_c, 0, 74, 66
1, 4882, Note_on_c, 0, 62, 42
1, 4882, Note_off_c, 0, 63, 64
1, 4882, Note_on_c, 0, 81, 45
1, 4886, Note_on_c, 0, 61, 29
1, 4887, Note_on_c, 0, 75, 33
1, 4888, Note_off_c, 0, 62, 64
1, 4888, Note_on_c, 0, 63, 55
1, 4888, Note_on_c, 0, 82, 11
1, 4890, Note_off_c, 0, 61, 64
1, 4892, Note_on_c, 0, 62, 42
1, 4892, Note_off_c, 0, 82, 64
1, 4893, Note_off_c, 0, 74, 64
1, 4893, Note_off_c, 0, 81, 64
1, 4894, Note_off_c, 0, 62, 64
1, 4894, Note_off_c, 0, 75, 64
1, 4895, Note_on_c, 0, 62, 51
1, 4895, Note_off_c, 0, 63, 64
1, 4898, Note_off_c, 0, 62, 64
1, 4898, Note_on_c, 0, 63, 48
1, 4900, Note_off_c, 0, 63, 64
1, 4909, Note_on_c, 0, 61, 49
1, 4911, Note_on_c, 0, 60, 55
1, 4911, Note_off_c, 0, 61, 64
1, 4911, Note_on_c, 0, 71, 29
1, 4912, Note_on_c, 0, 59, 60
1, 4913, Note_off_c, 0, 60, 64
1, 4914, Note_on_c, 0, 57, 34
1, 4915, Note_on_c, 0, 58, 29
1, 4915, Note_on_c, 0, 61, 37
1, 4916, Note_off_c, 0, 71, 64
1, 4917, Note_off_c, 0, 57, 64
1, 4917, Note_off_c, 0, 58, 64
1, 4918, Note_off_c, 0, 61, 64
1, 4922, Note_off_c, 0, 59, 64
1, 4923, Note_on_c, 0, 55, 47
1, 4927, Note_off_c, 0, 55, 64
1, 4927, Note_on_c, 0, 56, 47
1, 4929, Note_off_c, 0, 56, 64
1, 4929, Note_on_c, 0, 58, 48
1, 4932, Note_on_c, 0, 57, 47
1, 4932, Note_off_c, 0, 58, 64
1, 4940, Note_off_c, 0, 57, 64
1, 4943, Note_on_c, 0, 59, 51
1, 4945, Note_on_c, 0, 78, 53
1, 4945, Note_on_c, 0, 87, 41
1, 4951, Note_off_c, 0, 87, 64
1, 4952, Note_on_c, 0, 60, 38
1, 4953, Note_off_c, 0, 59, 64
1, 4953, Note_on_c, 0, 62, 54
1, 4953, Note_on_c, 0, 63, 62
1, 4953, Note_off_c, 0, 78, 64
1, 4955, Note_off_c, 0, 60, 64
1, 4961, Note_off_c, 0, 62, 64
1, 4962, Note_on_c, 0, 62, 58
1, 4963, Note_off_c, 0, 63, 64
1, 4964, Note_off_c, 0, 62, 64
1, 4964, Note_on_c, 0, 63, 61
1, 4966, Note_off_c, 0, 63, 64
1, 4967, Note_on_c, 0, 60, 49
1, 4967, Note_on_c, 0, 71, 37
1, 4968, Note_on_c, 0, 59, 58
1, 4969, Note_off_c, 0, 60, 64
1, 4971, Note_off_c, 0, 71, 64
1, 4972, Note_off_c, 0, 59, 64
1, 4973, Note_on_c, 0, 62, 31
1, 4974, Note_on_c, 0, 58, 35
1, 4974, Note_on_c, 0, 60, 48
1, 4975, Note_on_c, 0, 61, 36
1, 4976, Note_off_c, 0, 62, 64
1, 4978, Note_off_c, 0, 58, 64
1, 4978, Note_on_c, 0, 59, 33
1, 4979, Note_off_c, 0, 61, 64
1, 4980, Note_off_c, 0, 59, 64
1, 4981, Note_on_c, 0, 59, 53
1, 4981, Note_off_c, 0, 60, 64
1, 4986, Note_on_c, 0, 58, 39
1, 4986, Note_on_c, 0, 60, 36
1, 4987, Note_off_c, 0, 59, 64
1, 4990, Note_off_c, 0, 60, 64
1, 4992, Note_off_c, 0, 58, 64
1, 4993, Note_on_c, 0, 83, 15
1, 4995, Note_on_c, 0, 53, 37
1, 4996, Note_on_c, 0, 64, 43
1, 4996, Note_off_c, 0, 83, 64
1, 4997, Note_on_c, 0, 52, 45
1, 4997, Note_off_c, 0, 53, 64
1, 5002, Note_on_c, 0, 71, 11
1, 5006, Note_off_c, 0, 71, 64
1, 5011, Note_off_c, 0, 52, 64
1, 5011, Note_off_c, 0, 64, 64
1, 5012, Note_on_c, 0, 56, 33
1, 5014, Note_on_c, 0, 55, 32
1, 5015, Note_off_c, 0, 56, 64
1, 5017, Note_on_c, 0, 56, 33
1, 5018, Note_off_c, 0, 55, 64
1, 5020, Note_on_c, 0, 55, 33
1, 5020, Note_off_c, 0, 56, 64
1, 5022, Note_off_c, 0, 55, 64
1, 5022, Note_on_c, 0, 56, 35
1, 5024, Note_off_c, 0, 56, 64
1, 5025, Note_on_c, 0, 56, 30
1, 5028, Note_off_c, 0, 56, 64
1, 5047, Note_on_c, 0, 63, 59
1, 5048, Note_on_c, 0, 87, 19
1, 5049, Note_on_c, 0, 82, 28
1, 5051, Note_off_c, 0, 87, 64
1, 5052, Note_on_c, 0, 60, 44
1, 5052, Note_on_c, 0, 62, 34
1, 5052, Note_off_c, 0, 63, 64
1, 5053, Note_on_c, 0, 63, 50
1, 5054, Note_on_c, 0, 81, 27
1, 5055, Note_off_c, 0, 60, 64
1, 5055, Note_off_c, 0, 62, 64
1, 5055, Note_on_c, 0, 74, 52
1, 5058, Note_on_c, 0, 62, 52
1, 5058, Note_off_c, 0, 63, 64
1, 5059, Note_off_c, 0, 82, 64
1, 5059, Note_on_c, 0, 87, 30
1, 5060, Note_off_c, 0, 74, 64
1, 5060, Note_off_c, 0, 81, 64
1, 5061, Note_off_c, 0, 62, 64
1, 5061, Note_on_c, 0, 63, 45
1, 5061, Note_on_c, 0, 65, 52
1, 5061, Note_off_c, 0, 87, 64
1, 5062, Note_on_c, 0, 64, 41
1, 5065, Note_off_c, 0, 63, 64
1, 5066, Note_off_c, 0, 64, 64
1, 5067, Note_on_c, 0, 77, 85
1, 5068, Note_off_c, 0, 65, 64
1, 5068, Note_on_c, 0, 98, 36
1, 5069, Note_on_c, 0, 65, 52
1, 5069, Note_on_c, 0, 96, 42
1, 5070, Note_on_c, 0, 84, 42
1, 5070, Note_on_c, 0, 93, 16
1, 5074, Note_off_c, 0, 65, 64
1, 5074, Note_on_c, 0, 66, 28
1, 5074, Note_on_c, 0, 67, 32
1, 5074, Note_on_c, 0, 78, 52
1, 5074, Note_on_c, 0, 79, 56
1, 5074, Note_off_c, 0, 93, 64
1, 5074, Note_off_c, 0, 96, 64
1, 5074, Note_off_c, 0, 98, 64
1, 5076, Note_on_c, 0, 65, 48
1, 5076, Note_off_c, 0, 67, 64
1, 5076, Note_off_c, 0, 79, 64
1, 5076, Note_on_c, 0, 96, 44
1, 5076, Note_on_c, 0, 98, 31
1, 5077, Note_off_c, 0, 66, 64
1, 5077, Note_off_c, 0, 78, 64
1, 5080, Note_on_c, 0, 64, 44
1, 5080, Note_off_c, 0, 65, 64
1, 5080, Note_on_c, 0, 76, 73
1, 5080, Note_off_c, 0, 77, 64
1, 5081, Note_on_c, 0, 61, 55
1, 5081, Note_off_c, 0, 84, 64
1, 5081, Note_off_c, 0, 96, 64
1, 5082, Note_on_c, 0, 63, 73
1, 5082, Note_off_c, 0, 98, 64
1, 5083, Note_off_c, 0, 64, 64
1, 5083, Note_off_c, 0, 76, 64
1, 5084, Note_off_c, 0, 61, 64
1, 5088, Note_off_c, 0, 63, 64
1, 5089, Note_on_c, 0, 68, 62
1, 5095, Note_on_c, 0, 79, 41
1, 5096, Note_on_c, 0, 67, 40
1, 5096, Note_on_c, 0, 77, 66
1, 5096, Note_on_c, 0, 86, 32
1, 5097, Note_on_c, 0, 66, 32
1, 5097, Note_off_c, 0, 68, 64
1, 5097, Note_off_c, 0, 79, 64
1, 5098, Note_on_c, 0, 64, 85
1, 5098, Note_off_c, 0, 67, 64
1, 5098, Note_off_c, 0, 86, 64
1, 5100, Note_off_c, 0, 66, 64
1, 5100, Note_off_c, 0, 77, 64
1, 5101, Note_on_c, 0, 63, 64
1, 5103, Note_off_c, 0, 64, 64
1, 5109, Note_off_c, 0, 63, 64
1, 5109, Note_on_c, 0, 64, 40
1, 5109, Note_on_c, 0, 65, 57
1, 5111, Note_off_c, 0, 64, 64
1, 5112, Note_on_c, 0, 64, 52
1, 5113, Note_on_c, 0, 77, 77
1, 5114, Note_off_c, 0, 65, 64
1, 5115, Note_on_c, 0, 65, 80
1, 5115, Note_on_c, 0, 84, 34
1, 5115, Note_on_c, 0, 92, 51
1, 5116, Note_off_c, 0, 64, 64
1, 5118, Note_off_c, 0, 84, 64
1, 5119, Note_off_c, 0, 92, 64
1, 5121, Note_on_c, 0, 64, 64
1, 5121, Note_off_c, 0, 65, 64
1, 5121, Note_off_c, 0, 77, 64
1, 5122, Note_on_c, 0, 65, 60
1, 5126, Note_off_c, 0, 64, 64
1, 5127, Note_on_c, 0, 95, 26
1, 5128, Note_on_c, 0, 92, 37
1, 5128, Note_on_c, 0, 96, 25
1, 5129, Note_on_c, 0, 64, 73
1, 5129, Note_off_c, 0, 65, 64
1, 5129, Note_on_c, 0, 77, 63
1, 5129, Note_on_c, 0, 84, 23
1, 5130, Note_off_c, 0, 95, 64
1, 5131, Note_off_c, 0, 96, 64
1, 5132, Note_off_c, 0, 77, 64
1, 5132, Note_off_c, 0, 84, 64
1, 5132, Note_off_c, 0, 92, 64
1, 5136, Note_on_c, 0, 63, 48
1, 5136, Note_on_c, 0, 65, 50
1, 5136, Note_on_c, 0, 66, 28
1, 5137, Note_off_c, 0, 64, 64
1, 5137, Note_on_c, 0, 67, 34
1, 5137, Note_on_c, 0, 68, 46
1, 5138, Note_off_c, 0, 63, 64
1, 5139, Note_off_c, 0, 66, 64
1, 5139, Note_off_c, 0, 68, 64
1, 5140, Note_off_c, 0, 67, 64
1, 5142, Note_off_c, 0, 65, 64
1, 5143, Note_on_c, 0, 60, 33
1, 5143, Note_on_c, 0, 62, 23
1, 5143, Note_on_c, 0, 63, 37
1, 5144, Note_on_c, 0, 64, 38
1, 5146, Note_off_c, 0, 60, 64
1, 5146, Note_off_c, 0, 62, 64
1, 5147, Note_on_c, 0, 62, 36
1, 5147, Note_off_c, 0, 64, 64
1, 5150, Note_off_c, 0, 62, 64
1, 5155, Note_off_c, 0, 63, 64
1, 5168, Note_on_c, 0, 67, 35
1, 5168, Note_on_c, 0, 80, 61
1, 5168, Note_on_c, 0, 86, 73
1, 5168, Note_on_c, 0, 91, 63
1, 5169, Note_on_c, 0, 79, 51
1, 5170, Note_off_c, 0, 80, 64
1, 5170, Note_on_c, 0, 90, 45
1, 5170, Note_on_c, 0, 94, 23
1, 5171, Note_on_c, 0, 78, 50
1, 5171, Note_on_c, 0, 85, 77
1, 5173, Note_on_c, 0, 68, 42
1, 5173, Note_on_c, 0, 80, 60
1, 5173, Note_on_c, 0, 87, 54
1, 5173, Note_off_c, 0, 94, 64
1, 5174, Note_off_c, 0, 90, 64
1, 5175, Note_off_c, 0, 67, 64
1, 5175, Note_off_c, 0, 78, 64
1, 5175, Note_off_c, 0, 79, 64
1, 5175, Note_off_c, 0, 85, 64
1, 5176, Note_on_c, 0, 79, 61
1, 5177, Note_on_c, 0, 67, 40
1, 5177, Note_off_c, 0, 68, 64
1, 5178, Note_off_c, 0, 87, 64
1, 5179, Note_off_c, 0, 80, 64
1, 5180, Note_off_c, 0, 67, 64
1, 5180, Note_off_c, 0, 86, 64
1, 5180, Note_off_c, 0, 91, 64
1, 5181, Note_on_c, 0, 62, 41
1, 5181, Note_on_c, 0, 74, 48
1, 5181, Note_off_c, 0, 79, 64
1, 5181, Note_on_c, 0, 81, 60
1, 5182, Note_on_c, 0, 87, 46
1, 5182, Note_on_c, 0, 90, 40
1, 5182, Note_on_c, 0, 94, 54
1, 5182, Note_on_c, 0, 96, 39
1, 5183, Note_on_c, 0, 82, 65
1, 5184, Note_off_c, 0, 82, 64
1, 5185, Note_on_c, 0, 82, 33
1, 5185, Note_off_c, 0, 87, 64
1, 5185, Note_off_c, 0, 90, 64
1, 5186, Note_off_c, 0, 94, 64
1, 5187, Note_off_c, 0, 62, 64
1, 5187, Note_off_c, 0, 81, 64
1, 5187, Note_off_c, 0, 96, 64
1, 5188, Note_on_c, 0, 65, 53
1, 5188, Note_off_c, 0, 74, 64
1, 5188, Note_on_c, 0, 77, 58
1, 5188, Note_off_c, 0, 82, 64
1, 5188, Note_on_c, 0, 84, 72
1, 5188, Note_on_c, 0, 88, 29
1, 5188, Note_on_c, 0, 92, 21
1, 5189, Note_on_c, 0, 76, 33
1, 5189, Note_on_c, 0, 93, 17
1, 5190, Note_on_c, 0, 83, 35
1, 5191, Note_off_c, 0, 88, 64
1, 5192, Note_on_c, 0, 63, 17
1, 5192, Note_off_c, 0, 92, 64
1, 5192, Note_off_c, 0, 93, 64
1, 5195, Note_off_c, 0, 63, 64
1, 5197, Note_off_c, 0, 76, 64
1, 5197, Note_off_c, 0, 83, 64
1, 5198, Note_on_c, 0, 93, 18
1, 5200, Note_on_c, 0, 76, 50
1, 5201, Note_on_c, 0, 63, 34
1, 5201, Note_on_c, 0, 64, 64
1, 5201, Note_off_c, 0, 65, 64
1, 5201, Note_on_c, 0, 83, 35
1, 5201, Note_off_c, 0, 93, 64
1, 5202, Note_on_c, 0, 65, 62
1, 5202, Note_off_c, 0, 77, 64
1, 5203, Note_off_c, 0, 64, 64
1, 5203, Note_off_c, 0, 83, 64
1, 5203, Note_on_c, 0, 87, 29
1, 5204, Note_on_c, 0, 64, 25
1, 5204, Note_off_c, 0, 65, 64
1, 5204, Note_on_c, 0, 81, 29
1, 5204, Note_on_c, 0, 82, 34
1, 5204, Note_on_c, 0, 83, 47
1, 5204, Note_on_c, 0, 86, 32
1, 5205, Note_on_c, 0, 77, 54
1, 5206, Note_on_c, 0, 65, 56
1, 5206, Note_off_c, 0, 81, 64
1, 5206, Note_off_c, 0, 82, 64
1, 5206, Note_off_c, 0, 86, 64
1, 5207, Note_off_c, 0, 63, 64
1, 5207, Note_off_c, 0, 64, 64
1, 5207, Note_off_c, 0, 87, 64
1, 5208, Note_off_c, 0, 83, 64
1, 5210, Note_off_c, 0, 76, 64
1, 5221, Note_on_c, 0, 82, 61
1, 5222, Note_on_c, 0, 63, 61
1, 5222, Note_off_c, 0, 65, 64
1, 5222, Note_off_c, 0, 77, 64
1, 5222, Note_off_c, 0, 84, 64
1, 5222, Note_on_c, 0, 87, 52
1, 5222, Note_on_c, 0, 91, 54
1, 5225, Note_on_c, 0, 90, 50
1, 5227, Note_on_c, 0, 62, 38
1, 5227, Note_off_c, 0, 90, 64
1, 5228, Note_off_c, 0, 87, 64
1, 5228, Note_off_c, 0, 91, 64
1, 5229, Note_off_c, 0, 62, 64
1, 5229, Note_off_c, 0, 82, 64
1, 5229, Note_on_c, 0, 99, 15
1, 5234, Note_on_c, 0, 64, 33
1, 5234, Note_off_c, 0, 99, 64
1, 5235, Note_on_c, 0, 65, 66
1, 5236, Note_off_c, 0, 63, 64
1, 5236, Note_off_c, 0, 64, 64
1, 5240, Note_on_c, 0, 53, 18
1, 5241, Note_off_c, 0, 65, 64
1, 5242, Note_on_c, 0, 59, 37
1, 5242, Note_on_c, 0, 78, 40
1, 5242, Note_on_c, 0, 83, 53
1, 5242, Note_on_c, 0, 87, 40
1, 5243, Note_off_c, 0, 53, 64
1, 5244, Note_on_c, 0, 79, 45
1, 5245, Note_on_c, 0, 84, 54
1, 5246, Note_off_c, 0, 59, 64
1, 5246, Note_on_c, 0, 60, 35
1, 5246, Note_off_c, 0, 78, 64
1, 5246, Note_off_c, 0, 83, 64
1, 5246, Note_off_c, 0, 87, 64
1, 5248, Note_off_c, 0, 60, 64
1, 5248, Note_off_c, 0, 79, 64
1, 5248, Note_off_c, 0, 84, 64
1, 5249, Note_on_c, 0, 64, 41
1, 5250, Note_on_c, 0, 62, 40
1, 5251, Note_on_c, 0, 63, 44
1, 5252, Note_off_c, 0, 64, 64
1, 5256, Note_off_c, 0, 62, 64
1, 5257, Note_on_c, 0, 62, 32
1, 5270, Note_off_c, 0, 62, 64
1, 5273, Note_on_c, 0, 62, 30
1, 5273, Note_off_c, 0, 63, 64
1, 5277, Note_off_c, 0, 62, 64
1, 5286, Note_on_c, 0, 58, 49
1, 5290, Note_on_c, 0, 57, 19
1, 5290, Note_off_c, 0, 58, 64
1, 5292, Note_on_c, 0, 58, 36
1, 5293, Note_off_c, 0, 57, 64
1, 5297, Note_off_c, 0, 58, 64
1, 5300, Note_on_c, 0, 75, 30
1, 5300, Note_on_c, 0, 82, 34
1, 5301, Note_on_c, 0, 81, 51
1, 5301, Note_on_c, 0, 86, 51
1, 5302, Note_on_c, 0, 62, 32
1, 5302, Note_on_c, 0, 74, 32
1, 5302, Note_off_c, 0, 82, 64
1, 5302, Note_on_c, 0, 90, 24
1, 5303, Note_off_c, 0, 75, 64
1, 5305, Note_on_c, 0, 84, 46
1, 5305, Note_on_c, 0, 85, 40
1, 5305, Note_off_c, 0, 90, 64
1, 5306, Note_off_c, 0, 62, 64
1, 5306, Note_off_c, 0, 74, 64
1, 5306, Note_off_c, 0, 81, 64
1, 5306, Note_off_c, 0, 86, 64
1, 5306, Note_on_c, 0, 87, 44
1, 5307, Note_on_c, 0, 59, 55
1, 5307, Note_on_c, 0, 78, 49
1, 5307, Note_on_c, 0, 83, 65
1, 5307, Note_off_c, 0, 84, 64
1, 5308, Note_off_c, 0, 85, 64
1, 5312, Note_on_c, 0, 60, 17
1, 5312, Note_on_c, 0, 84, 34
1, 5313, Note_on_c, 0, 61, 11
1, 5313, Note_on_c, 0, 81, 35
1, 5313, Note_on_c, 0, 85, 22
1, 5313, Note_on_c, 0, 86, 27
1, 5314, Note_on_c, 0, 79, 39
1, 5314, Note_off_c, 0, 87, 64
1, 5315, Note_off_c, 0, 60, 64
1, 5315, Note_on_c, 0, 72, 14
1, 5316, Note_off_c, 0, 61, 64
1, 5316, Note_off_c, 0, 81, 64
1, 5316, Note_off_c, 0, 85, 64
1, 5316, Note_off_c, 0, 86, 64
1, 5317, Note_off_c, 0, 78, 64
1, 5317, Note_off_c, 0, 83, 64
1, 5317, Note_off_c, 0, 84, 64
1, 5318, Note_off_c, 0, 72, 64
1, 5318, Note_off_c, 0, 79, 64
1, 5319, Note_off_c, 0, 59, 64
1, 5319, Note_on_c, 0, 60, 54
1, 5319, Note_on_c, 0, 61, 35
1, 5320, Note_on_c, 0, 62, 65
1, 5320, Note_on_c, 0, 63, 63
1, 5321, Note_on_c, 0, 81, 24
1, 5322, Note_off_c, 0, 60, 64
1, 5322, Note_off_c, 0, 61, 64
1, 5322, Note_on_c, 0, 82, 14
1, 5323, Note_off_c, 0, 63, 64
1, 5325, Note_on_c, 0, 60, 34
1, 5325, Note_off_c, 0, 81, 64
1, 5325, Note_off_c, 0, 82, 64
1, 5326, Note_off_c, 0, 62, 64
1, 5327, Note_off_c, 0, 60, 64
1, 5327, Note_on_c, 0, 82, 37
1, 5327, Note_on_c, 0, 84, 40
1, 5327, Note_on_c, 0, 85, 45
1, 5328, Note_on_c, 0, 57, 33
1, 5328, Note_on_c, 0, 68, 15
1, 5328, Note_on_c, 0, 76, 39
1, 5328, Note_on_c, 0, 81, 38
1, 5330, Note_off_c, 0, 82, 64
1, 5331, Note_off_c, 0, 68, 64
1, 5332, Note_off_c, 0, 84, 64
1, 5336, Note_off_c, 0, 81, 64
1, 5336, Note_off_c, 0, 85, 64
1, 5337, Note_off_c, 0, 57, 64
1, 5337, Note_off_c, 0, 76, 64
1, 5339, Note_on_c, 0, 60, 46
1, 5341, Note_on_c, 0, 71, 56
1, 5342, Note_on_c, 0, 59, 47
1, 5342, Note_off_c, 0, 60, 64
1, 5345, Note_off_c, 0, 59, 64
1, 5345, Note_off_c, 0, 71, 64
1, 5347, Note_on_c, 0, 63, 57
1, 5352, Note_on_c, 0, 82, 36
1, 5353, Note_on_c, 0, 86, 27
1, 5354, Note_on_c, 0, 60, 35
1, 5354, Note_off_c, 0, 63, 64
1, 5354, Note_on_c, 0, 79, 43
1, 5354, Note_off_c, 0, 82, 64
1, 5354, Note_on_c, 0, 84, 61
1, 5354, Note_on_c, 0, 88, 33
1, 5356, Note_off_c, 0, 86, 64
1, 5357, Note_off_c, 0, 60, 64
1, 5357, Note_off_c, 0, 88, 64
1, 5358, Note_off_c, 0, 79, 64
1, 5358, Note_off_c, 0, 84, 64
1, 5361, Note_on_c, 0, 59, 51
1, 5366, Note_off_c, 0, 59, 64
1, 5366, Note_on_c, 0, 60, 43
1, 5368, Note_on_c, 0, 62, 29
1, 5369, Note_on_c, 0, 63, 56
1, 5370, Note_off_c, 0, 60, 64
1, 5375, Note_off_c, 0, 62, 64
1, 5379, Note_on_c, 0, 59, 45
1, 5379, Note_on_c, 0, 60, 34
1, 5380, Note_off_c, 0, 63, 64
1, 5381, Note_off_c, 0, 60, 64
1, 5382, Note_off_c, 0, 59, 64
1, 5386, Note_on_c, 0, 58, 59
1, 5387, Note_on_c, 0, 100, 25
1, 5390, Note_off_c, 0, 100, 64
1, 5392, Note_on_c, 0, 59, 27
1, 5395, Note_off_c, 0, 58, 64
1, 5395, Note_off_c, 0, 59, 64
1, 5396, Note_on_c, 0, 58, 34
1, 5398, Note_off_c, 0, 58, 64
1, 5399, Note_on_c, 0, 55, 31
1, 5403, Note_off_c, 0, 55, 64
1, 5406, Note_on_c, 0, 59, 20
1, 5407, Note_on_c, 0, 58, 32
1, 5407, Note_on_c, 0, 85, 22
1, 5408, Note_on_c, 0, 77, 32
1, 5408, Note_on_c, 0, 81, 27
1, 5408, Note_on_c, 0, 82, 38
1, 5408, Note_on_c, 0, 86, 31
1, 5409, Note_off_c, 0, 59, 64
1, 5411, Note_on_c, 0, 69, 29
1, 5411, Note_off_c, 0, 77, 64
1, 5411, Note_off_c, 0, 82, 64
1, 5411, Note_off_c, 0, 86, 64
1, 5412, Note_on_c, 0, 57, 30
1, 5412, Note_off_c, 0, 58, 64
1, 5412, Note_off_c, 0, 85, 64
1, 5413, Note_off_c, 0, 81, 64
1, 5414, Note_off_c, 0, 57, 64
1, 5414, Note_off_c, 0, 69, 64
1, 5418, Note_on_c, 0, 60, 57
1, 5418, Note_on_c, 0, 80, 35
1, 5420, Note_off_c, 0, 80, 64
1, 5424, Note_off_c, 0, 60, 64
1, 5425, Note_on_c, 0, 55, 30
1, 5425, Note_on_c, 0, 67, 33
1, 5427, Note_on_c, 0, 56, 27
1, 5428, Note_off_c, 0, 55, 64
1, 5428, Note_off_c, 0, 67, 64
1, 5432, Note_off_c, 0, 56, 64
1, 5438, Note_on_c, 0, 61, 35
1, 5439, Note_on_c, 0, 60, 43
1, 5440, Note_off_c, 0, 61, 64
1, 5441, Note_on_c, 0, 59, 52
1, 5443, Note_off_c, 0, 60, 64
1, 5450, Note_off_c, 0, 59, 64
1, 5451, Note_on_c, 0, 58, 37
1, 5460, Note_off_c, 0, 58, 64
1, 5461, Note_on_c, 0, 56, 23
1, 5465, Note_off_c, 0, 56, 64
1, 5467, Note_on_c, 0, 56, 23
1, 5475, Note_off_c, 0, 56, 64
1, 5498, Note_on_c, 0, 66, 47
1, 5499, Note_on_c, 0, 100, 21
1, 5500, Note_on_c, 0, 65, 66
1, 5500, Note_off_c, 0, 66, 64
1, 5500, Note_on_c, 0, 101, 29
1, 5502, Note_on_c, 0, 64, 58
1, 5502, Note_off_c, 0, 65, 64
1, 5503, Note_on_c, 0, 63, 44
1, 5503, Note_off_c, 0, 100, 64
1, 5503, Note_off_c, 0, 101, 64
1, 5504, Note_on_c, 0, 65, 32
1, 5504, Note_on_c, 0, 76, 77
1, 5504, Note_on_c, 0, 77, 53
1, 5504, Note_on_c, 0, 84, 33
1, 5505, Note_on_c, 0, 83, 78
1, 5506, Note_off_c, 0, 63, 64
1, 5506, Note_off_c, 0, 65, 64
1, 5507, Note_off_c, 0, 77, 64
1, 5507, Note_off_c, 0, 84, 64
1, 5511, Note_off_c, 0, 64, 64
1, 5511, Note_off_c, 0, 76, 64
1, 5511, Note_off_c, 0, 83, 64
1, 5512, Note_on_c, 0, 77, 55
1, 5512, Note_on_c, 0, 84, 80
1, 5513, Note_on_c, 0, 65, 39
1, 5513, Note_on_c, 0, 89, 61
1, 5515, Note_on_c, 0, 92, 33
1, 5515, Note_on_c, 0, 103, 16
1, 5518, Note_on_c, 0, 83, 38
1, 5518, Note_off_c, 0, 103, 64
1, 5519, Note_on_c, 0, 75, 14
1, 5519, Note_on_c, 0, 76, 36
1, 5519, Note_on_c, 0, 82, 29
1, 5519, Note_off_c, 0, 92, 64
1, 5520, Note_off_c, 0, 89, 64
1, 5521, Note_on_c, 0, 64, 26
1, 5522, Note_off_c, 0, 75, 64
1, 5522, Note_off_c, 0, 82, 64
1, 5524, Note_off_c, 0, 64, 64
1, 5527, Note_off_c, 0, 76, 64
1, 5527, Note_off_c, 0, 83, 64
1, 5529, Note_on_c, 0, 64, 33
1, 5529, Note_off_c, 0, 65, 64
1, 5529, Note_on_c, 0, 83, 39
1, 5530, Note_on_c, 0, 76, 34
1, 5530, Note_off_c, 0, 77, 64
1, 5530, Note_off_c, 0, 84, 64
1, 5531, Note_on_c, 0, 63, 34
1, 5531, Note_off_c, 0, 64, 64
1, 5531, Note_on_c, 0, 75, 35
1, 5531, Note_on_c, 0, 82, 45
1, 5532, Note_off_c, 0, 76, 64
1, 5532, Note_off_c, 0, 83, 64
1, 5534, Note_off_c, 0, 75, 64
1, 5535, Note_off_c, 0, 63, 64
1, 5535, Note_off_c, 0, 82, 64
1, 5537, Note_on_c, 0, 62, 59
1, 5537, Note_on_c, 0, 63, 47
1, 5543, Note_on_c, 0, 81, 34
1, 5544, Note_off_c, 0, 63, 64
1, 5544, Note_on_c, 0, 86, 15
1, 5546, Note_on_c, 0, 82, 31
1, 5547, Note_off_c, 0, 81, 64
1, 5547, Note_off_c, 0, 86, 64
1, 5547, Note_on_c, 0, 87, 28
1, 5548, Note_off_c, 0, 62, 64
1, 5548, Note_on_c, 0, 63, 60
1, 5550, Note_on_c, 0, 79, 76
1, 5550, Note_off_c, 0, 82, 64
1, 5550, Note_on_c, 0, 86, 81
1, 5550, Note_off_c, 0, 87, 64
1, 5551, Note_off_c, 0, 63, 64
1, 5551, Note_on_c, 0, 67, 42
1, 5552, Note_on_c, 0, 95, 19
1, 5552, Note_on_c, 0, 101, 20
1, 5555, Note_on_c, 0, 68, 40
1, 5555, Note_on_c, 0, 80, 56
1, 5555, Note_off_c, 0, 95, 64
1, 5555, Note_off_c, 0, 101, 64
1, 5556, Note_off_c, 0, 67, 64
1, 5557, Note_off_c, 0, 68, 64
1, 5557, Note_off_c, 0, 79, 64
1, 5557, Note_off_c, 0, 80, 64
1, 5557, Note_off_c, 0, 86, 64
1, 5558, Note_on_c, 0, 64, 55
1, 5558, Note_on_c, 0, 65, 57
1, 5561, Note_off_c, 0, 64, 64
1, 5562, Note_on_c, 0, 64, 72
1, 5564, Note_off_c, 0, 65, 64
1, 5564, Note_on_c, 0, 98, 39
1, 5565, Note_on_c, 0, 83, 22
1, 5565, Note_on_c, 0, 95, 28
1, 5568, Note_off_c, 0, 83, 64
1, 5568, Note_off_c, 0, 98, 64
1, 5569, Note_off_c, 0, 95, 64
1, 5570, Note_on_c, 0, 76, 73
1, 5570, Note_on_c, 0, 83, 77
1, 5571, Note_on_c, 0, 77, 37
1, 5571, Note_on_c, 0, 92, 42
1, 5573, Note_off_c, 0, 77, 64
1, 5577, Note_on_c, 0, 98, 32
1, 5578, Note_on_c, 0, 102, 25
1, 5582, Note_off_c, 0, 92, 64
1, 5582, Note_off_c, 0, 102, 64
1, 5583, Note_on_c, 0, 63, 26
1, 5583, Note_on_c, 0, 84, 70
1, 5583, Note_off_c, 0, 98, 64
1, 5584, Note_on_c, 0, 77, 62
1, 5584, Note_on_c, 0, 78, 50
1, 5584, Note_on_c, 0, 79, 60
1, 5584, Note_on_c, 0, 85, 54
1, 5584, Note_on_c, 0, 86, 46
1, 5586, Note_off_c, 0, 63, 64
1, 5586, Note_off_c, 0, 64, 64
1, 5586, Note_off_c, 0, 76, 64
1, 5586, Note_off_c, 0, 83, 64
1, 5587, Note_on_c, 0, 65, 39
1, 5587, Note_off_c, 0, 79, 64
1, 5587, Note_off_c, 0, 86, 64
1, 5588, Note_off_c, 0, 78, 64
1, 5589, Note_on_c, 0, 64, 40
1, 5589, Note_off_c, 0, 65, 64
1, 5589, Note_on_c, 0, 76, 61
1, 5589, Note_off_c, 0, 77, 64
1, 5589, Note_off_c, 0, 85, 64
1, 5590, Note_on_c, 0, 83, 61
1, 5591, Note_on_c, 0, 60, 31
1, 5591, Note_on_c, 0, 62, 29
1, 5591, Note_on_c, 0, 63, 25
1, 5591, Note_on_c, 0, 75, 34
1, 5591, Note_on_c, 0, 81, 34
1, 5591, Note_on_c, 0, 82, 35
1, 5592, Note_on_c, 0, 74, 34
1, 5593, Note_off_c, 0, 64, 64
1, 5593, Note_off_c, 0, 76, 64
1, 5593, Note_off_c, 0, 83, 64
1, 5593, Note_off_c, 0, 84, 64
1, 5594, Note_off_c, 0, 60, 64
1, 5595, Note_off_c, 0, 63, 64
1, 5596, Note_off_c, 0, 75, 64
1, 5598, Note_off_c, 0, 81, 64
1, 5600, Note_off_c, 0, 82, 64
1, 5601, Note_off_c, 0, 74, 64
1, 5602, Note_off_c, 0, 62, 64
1, 5609, Note_on_c, 0, 68, 59
1, 5609, Note_on_c, 0, 80, 90
1, 5610, Note_on_c, 0, 87, 38
1, 5614, Note_on_c, 0, 79, 37
1, 5616, Note_off_c, 0, 79, 64
1, 5619, Note_on_c, 0, 67, 46
1, 5621, Note_on_c, 0, 65, 69
1, 5621, Note_off_c, 0, 87, 64
1, 5622, Note_off_c, 0, 67, 64
1, 5622, Note_off_c, 0, 68, 64
1, 5622, Note_off_c, 0, 80, 64
1, 5623, Note_on_c, 0, 63, 32
1, 5624, Note_on_c, 0, 64, 50
1, 5625, Note_on_c, 0, 62, 48
1, 5625, Note_off_c, 0, 63, 64
1, 5627, Note_off_c, 0, 62, 64
1, 5628, Note_off_c, 0, 64, 64
1, 5629, Note_on_c, 0, 101, 36
1, 5634, Note_off_c, 0, 101, 64
1, 5635, Note_on_c, 0, 67, 39
1, 5637, Note_off_c, 0, 67, 64
1, 5637, Note_on_c, 0, 95, 21
1, 5637, Note_on_c, 0, 96, 13
1, 5640, Note_on_c, 0, 76, 53
1, 5640, Note_on_c, 0, 92, 27
1, 5640, Note_off_c, 0, 95, 64
1, 5641, Note_off_c, 0, 65, 64
1, 5641, Note_on_c, 0, 91, 23
1, 5641, Note_off_c, 0, 96, 64
1, 5642, Note_on_c, 0, 60, 47
1, 5642, Note_on_c, 0, 61, 33
1, 5642, Note_on_c, 0, 62, 36
1, 5642, Note_on_c, 0, 63, 78
1, 5642, Note_on_c, 0, 73, 37
1, 5642, Note_on_c, 0, 81, 11
1, 5642, Note_on_c, 0, 82, 29
1, 5644, Note_off_c, 0, 62, 64
1, 5644, Note_on_c, 0, 64, 32
1, 5644, Note_off_c, 0, 76, 64
1, 5644, Note_off_c, 0, 92, 64
1, 5645, Note_off_c, 0, 60, 64
1, 5645, Note_off_c, 0, 61, 64
1, 5645, Note_off_c, 0, 73, 64
1, 5645, Note_off_c, 0, 81, 64
1, 5645, Note_off_c, 0, 91, 64
1, 5646, Note_off_c, 0, 64, 64
1, 5649, Note_on_c, 0, 67, 43
1, 5649, Note_on_c, 0, 68, 45
1, 5649, Note_on_c, 0, 80, 77
1, 5649, Note_off_c, 0, 82, 64
1, 5651, Note_off_c, 0, 63, 64
1, 5652, Note_off_c, 0, 67, 64
1, 5656, Note_off_c, 0, 68, 64
1, 5656, Note_off_c, 0, 80, 64
1, 5657, Note_on_c, 0, 65, 79
1, 5657, Note_on_c, 0, 101, 29
1, 5661, Note_on_c, 0, 63, 54
1, 5661, Note_on_c, 0, 64, 38
1, 5661, Note_off_c, 0, 65, 64
1, 5661, Note_off_c, 0, 101, 64
1, 5664, Note_off_c, 0, 64, 64
1, 5668, Note_off_c, 0, 63, 64
1, 5668, Note_on_c, 0, 65, 48
1, 5669, Note_on_c, 0, 64, 55
1, 5672, Note_off_c, 0, 65, 64
1, 5672, Note_on_c, 0, 66, 45
1, 5673, Note_on_c, 0, 65, 55
1, 5675, Note_off_c, 0, 66, 64
1, 5675, Note_on_c, 0, 83, 17
1, 5676, Note_on_c, 0, 84, 19
1, 5678, Note_off_c, 0, 64, 64
1, 5678, Note_off_c, 0, 83, 64
1, 5679, Note_on_c, 0, 64, 54
1, 5680, Note_off_c, 0, 84, 64
1, 5681, Note_off_c, 0, 65, 64
1, 5681, Note_on_c, 0, 83, 69
1, 5681, Note_on_c, 0, 98, 20
1, 5682, Note_on_c, 0, 76, 79
1, 5684, Note_off_c, 0, 98, 64
1, 5686, Note_on_c, 0, 65, 37
1, 5687, Note_on_c, 0, 68, 52
1, 5688, Note_off_c, 0, 65, 64
1, 5688, Note_off_c, 0, 83, 64
1, 5689, Note_off_c, 0, 64, 64
1, 5689, Note_off_c, 0, 76, 64
1, 5693, Note_off_c, 0, 68, 64
1, 5694, Note_on_c, 0, 63, 44
1, 5696, Note_on_c, 0, 62, 48
1, 5696, Note_off_c, 0, 63, 64
1, 5696, Note_on_c, 0, 81, 15
1, 5701, Note_off_c, 0, 62, 64
1, 5701, Note_on_c, 0, 63, 41
1, 5701, Note_off_c, 0, 81, 64
1, 5703, Note_on_c, 0, 61, 30
1, 5703, Note_on_c, 0, 62, 35
1, 5703, Note_off_c, 0, 63, 64
1, 5705, Note_off_c, 0, 61, 64
1, 5705, Note_on_c, 0, 63, 32
1, 5708, Note_off_c, 0, 63, 64
1, 5710, Note_off_c, 0, 62, 64
1, 5710, Note_on_c, 0, 63, 40
1, 5716, Note_off_c, 0, 63, 64
1, 5731, Note_on_c, 0, 63, 71
1, 5731, Note_on_c, 0, 75, 74
1, 5732, Note_on_c, 0, 82, 82
1, 5737, Note_on_c, 0, 62, 60
1, 5737, Note_off_c, 0, 63, 64
1, 5737, Note_on_c, 0, 74, 61
1, 5737, Note_off_c, 0, 75, 64
1, 5737, Note_on_c, 0, 81, 82
1, 5737, Note_off_c, 0, 82, 64
1, 5741, Note_on_c, 0, 61, 56
1, 5741, Note_off_c, 0, 62, 64
1, 5741, Note_on_c, 0, 80, 56
1, 5742, Note_off_c, 0, 74, 64
1, 5742, Note_off_c, 0, 81, 64
1, 5742, Note_on_c, 0, 84, 38
1, 5743, Note_on_c, 0, 60, 60
1, 5743, Note_off_c, 0, 61, 64
1, 5744, Note_on_c, 0, 58, 41
1, 5744, Note_on_c, 0, 59, 42
1, 5744, Note_off_c, 0, 80, 64
1, 5745, Note_off_c, 0, 84, 64
1, 5746, Note_off_c, 0, 58, 64
1, 5746, Note_off_c, 0, 59, 64
1, 5748, Note_on_c, 0, 101, 11
1, 5752, Note_off_c, 0, 101, 64
1, 5754, Note_on_c, 0, 63, 64
1, 5755, Note_off_c, 0, 60, 64
1, 5759, Note_on_c, 0, 62, 43
1, 5763, Note_off_c, 0, 62, 64
1, 5765, Note_off_c, 0, 63, 64
1, 5766, Note_on_c, 0, 63, 58
1, 5768, Note_on_c, 0, 62, 52
1, 5768, Note_off_c, 0, 63, 64
1, 5770, Note_on_c, 0, 59, 50
1, 5770, Note_off_c, 0, 62, 64
1, 5774, Note_on_c, 0, 58, 25
1, 5775, Note_on_c, 0, 60, 40
1, 5776, Note_off_c, 0, 59, 64
1, 5777, Note_off_c, 0, 58, 64
1, 5777, Note_on_c, 0, 59, 38
1, 5777, Note_off_c, 0, 60, 64
1, 5779, Note_on_c, 0, 58, 21
1, 5780, Note_off_c, 0, 59, 64
1, 5780, Note_on_c, 0, 60, 46
1, 5781, Note_on_c, 0, 59, 55
1, 5782, Note_off_c, 0, 58, 64
1, 5783, Note_off_c, 0, 60, 64
1, 5787, Note_on_c, 0, 57, 43
1, 5788, Note_on_c, 0, 76, 39
1, 5789, Note_off_c, 0, 59, 64
1, 5789, Note_on_c, 0, 82, 44
1, 5789, Note_on_c, 0, 85, 40
1, 5789, Note_on_c, 0, 89, 23
1, 5790, Note_on_c, 0, 77, 47
1, 5791, Note_off_c, 0, 57, 64
1, 5791, Note_on_c, 0, 58, 40
1, 5791, Note_off_c, 0, 76, 64
1, 5792, Note_off_c, 0, 89, 64
1, 5793, Note_off_c, 0, 77, 64
1, 5793, Note_off_c, 0, 82, 64
1, 5793, Note_off_c, 0, 85, 64
1, 5794, Note_off_c, 0, 58, 64
1, 5795, Note_on_c, 0, 61, 34
1, 5796, Note_on_c, 0, 59, 33
1, 5797, Note_on_c, 0, 60, 43
1, 5797, Note_off_c, 0, 61, 64
1, 5799, Note_off_c, 0, 59, 64
1, 5802, Note_off_c, 0, 60, 64
1, 5803, Note_on_c, 0, 58, 51
1, 5808, Note_on_c, 0, 70, 53
1, 5811, Note_on_c, 0, 57, 29
1, 5815, Note_off_c, 0, 57, 64
1, 5820, Note_off_c, 0, 70, 64
1, 5821, Note_on_c, 0, 60, 50
1, 5822, Note_on_c, 0, 59, 35
1, 5823, Note_off_c, 0, 58, 64
1, 5824, Note_off_c, 0, 59, 64
1, 5830, Note_on_c, 0, 63, 35
1, 5831, Note_on_c, 0, 62, 30
1, 5832, Note_off_c, 0, 60, 64
1, 5834, Note_off_c, 0, 62, 64
1, 5836, Note_on_c, 0, 62, 31
1, 5836, Note_off_c, 0, 63, 64
1, 5839, Note_off_c, 0, 62, 64
1, 5839, Note_on_c, 0, 63, 31
1, 5841, Note_off_c, 0, 63, 64
1, 5850, Note_on_c, 0, 60, 41
1, 5851, Note_on_c, 0, 58, 52
1, 5853, Note_off_c, 0, 60, 64
1, 5854, Note_on_c, 0, 60, 36
1, 5856, Note_off_c, 0, 58, 64
1, 5857, Note_on_c, 0, 58, 32
1, 5857, Note_off_c, 0, 60, 64
1, 5860, Note_off_c, 0, 58, 64
1, 5865, Note_on_c, 0, 56, 32
1, 5869, Note_off_c, 0, 56, 64
1, 5869, Note_on_c, 0, 58, 38
1, 5869, Note_on_c, 0, 77, 37
1, 5870, Note_on_c, 0, 57, 39
1, 5872, Note_on_c, 0, 59, 38
1, 5872, Note_off_c, 0, 77, 64
1, 5873, Note_off_c, 0, 58, 64
1, 5874, Note_off_c, 0, 59, 64
1, 5876, Note_off_c, 0, 57, 64
1, 5876, Note_on_c, 0, 58, 44
1, 5880, Note_off_c, 0, 58, 64
1, 5883, Note_on_c, 0, 63, 52
1, 5883, Note_on_c, 0, 64, 52
1, 5887, Note_off_c, 0, 64, 64
1, 5888, Note_on_c, 0, 75, 57
1, 5888, Note_on_c, 0, 82, 75
1, 5889, Note_on_c, 0, 90, 41
1, 5893, Note_off_c, 0, 90, 64
1, 5895, Note_off_c, 0, 63, 64
1, 5895, Note_off_c, 0, 75, 64
1, 5895, Note_off_c, 0, 82, 64
1, 5896, Note_on_c, 0, 63, 50
1, 5903, Note_on_c, 0, 60, 48
1, 5903, Note_off_c, 0, 63, 64
1, 5903, Note_on_c, 0, 79, 42
1, 5904, Note_on_c, 0, 71, 43
1, 5905, Note_on_c, 0, 59, 48
1, 5905, Note_off_c, 0, 60, 64
1, 5905, Note_on_c, 0, 78, 31
1, 5905, Note_off_c, 0, 79, 64
1, 5907, Note_off_c, 0, 78, 64
1, 5908, Note_off_c, 0, 59, 64
1, 5908, Note_off_c, 0, 71, 64
1, 5909, Note_on_c, 0, 58, 41
1, 5911, Note_on_c, 0, 60, 34
1, 5915, Note_off_c, 0, 60, 64
1, 5916, Note_off_c, 0, 58, 64
1, 5918, Note_on_c, 0, 52, 33
1, 5921, Note_off_c, 0, 52, 64
1, 5926, Note_on_c, 0, 55, 27
1, 5929, Note_on_c, 0, 56, 29
1, 5932, Note_off_c, 0, 56, 64
1, 5939, Note_off_c, 0, 55, 64
1, 5947, Note_on_c, 0, 55, 13
1, 5951, Note_off_c, 0, 55, 64
1, 5972, Note_on_c, 0, 64, 49
1, 5974, Note_on_c, 0, 63, 69
1, 5974, Note_off_c, 0, 64, 64
1, 5974, Note_on_c, 0, 101, 42
1, 5977, Note_off_c, 0, 63, 64
1, 5977, Note_on_c, 0, 102, 13
1, 5978, Note_on_c, 0, 63, 69
1, 5979, Note_on_c, 0, 75, 77
1, 5979, Note_on_c, 0, 99, 36
1, 5979, Note_on_c, 0, 103, 21
1, 5980, Note_on_c, 0, 82, 28
1, 5980, Note_on_c, 0, 96, 31
1, 5980, Note_off_c, 0, 102, 64
1, 5982, Note_off_c, 0, 101, 64
1, 5983, Note_on_c, 0, 64, 39
1, 5983, Note_off_c, 0, 96, 64
1, 5983, Note_off_c, 0, 103, 64
1, 5984, Note_on_c, 0, 61, 13
1, 5984, Note_off_c, 0, 82, 64
1, 5984, Note_off_c, 0, 99, 64
1, 5985, Note_off_c, 0, 75, 64
1, 5986, Note_on_c, 0, 65, 67
1, 5987, Note_off_c, 0, 61, 64
1, 5988, Note_off_c, 0, 64, 64
1, 5988, Note_on_c, 0, 101, 42
1, 5989, Note_off_c, 0, 63, 64
1, 5991, Note_on_c, 0, 103, 27
1, 5992, Note_on_c, 0, 98, 30
1, 5995, Note_off_c, 0, 101, 64
1, 5996, Note_on_c, 0, 84, 19
1, 5996, Note_off_c, 0, 98, 64
1, 5996, Note_off_c, 0, 103, 64
1, 5998, Note_on_c, 0, 66, 34
1, 5999, Note_on_c, 0, 67, 44
1, 6000, Note_on_c, 0, 76, 31
1, 6000, Note_off_c, 0, 84, 64
1, 6002, Note_off_c, 0, 66, 64
1, 6002, Note_off_c, 0, 67, 64
1, 6002, Note_off_c, 0, 76, 64
1, 6002, Note_on_c, 0, 84, 29
1, 6006, Note_on_c, 0, 67, 60
1, 6006, Note_on_c, 0, 68, 55
1, 6007, Note_off_c, 0, 65, 64
1, 6007, Note_on_c, 0, 87, 54
1, 6008, Note_off_c, 0, 84, 64
1, 6008, Note_on_c, 0, 86, 57
1, 6010, Note_off_c, 0, 68, 64
1, 6012, Note_on_c, 0, 62, 43
1, 6012, Note_on_c, 0, 63, 49
1, 6012, Note_off_c, 0, 87, 64
1, 6013, Note_off_c, 0, 67, 64
1, 6013, Note_on_c, 0, 82, 34
1, 6013, Note_off_c, 0, 86, 64
1, 6014, Note_on_c, 0, 81, 25
1, 6022, Note_off_c, 0, 81, 64
1, 6023, Note_off_c, 0, 62, 64
1, 6023, Note_on_c, 0, 86, 20
1, 6024, Note_on_c, 0, 62, 68
1, 6024, Note_off_c, 0, 63, 64
1, 6024, Note_on_c, 0, 81, 16
1, 6024, Note_off_c, 0, 82, 64
1, 6027, Note_off_c, 0, 62, 64
1, 6027, Note_on_c, 0, 63, 71
1, 6027, Note_off_c, 0, 81, 64
1, 6027, Note_on_c, 0, 82, 27
1, 6027, Note_off_c, 0, 86, 64
1, 6027, Note_on_c, 0, 87, 17
1, 6030, Note_on_c, 0, 62, 65
1, 6030, Note_off_c, 0, 63, 64
1, 6030, Note_off_c, 0, 82, 64
1, 6031, Note_off_c, 0, 87, 64
1, 6032, Note_on_c, 0, 63, 62
1, 6033, Note_off_c, 0, 62, 64
1, 6034, Note_on_c, 0, 101, 35
1, 6034, Note_on_c, 0, 103, 16
1, 6038, Note_off_c, 0, 101, 64
1, 6038, Note_off_c, 0, 103, 64
1, 6039, Note_off_c, 0, 63, 64
1, 6041, Note_on_c, 0, 65, 57
1, 6042, Note_on_c, 0, 101, 19
1, 6045, Note_off_c, 0, 101, 64
1, 6046, Note_on_c, 0, 64, 39
1, 6047, Note_off_c, 0, 65, 64
1, 6048, Note_on_c, 0, 75, 45
1, 6049, Note_off_c, 0, 64, 64
1, 6050, Note_on_c, 0, 74, 44
1, 6050, Note_off_c, 0, 75, 64
1, 6052, Note_off_c, 0, 74, 64
1, 6054, Note_on_c, 0, 60, 38
1, 6056, Note_on_c, 0, 59, 44
1, 6056, Note_on_c, 0, 71, 45
1, 6057, Note_off_c, 0, 60, 64
1, 6060, Note_off_c, 0, 59, 64
1, 6060, Note_off_c, 0, 71, 64
1, 6062, Note_on_c, 0, 63, 52
1, 6070, Note_off_c, 0, 63, 64
1, 6071, Note_on_c, 0, 63, 37
1, 6072, Note_on_c, 0, 62, 33
1, 6075, Note_off_c, 0, 62, 64
1, 6076, Note_on_c, 0, 62, 32
1, 6078, Note_off_c, 0, 62, 64
1, 6080, Note_off_c, 0, 63, 64
1, 6090, Note_on_c, 0, 69, 74
1, 6090, Note_on_c, 0, 100, 38
1, 6090, Note_on_c, 0, 103, 35
1, 6091, Note_on_c, 0, 68, 65
1, 6091, Note_on_c, 0, 102, 21
1, 6093, Note_off_c, 0, 69, 64
1, 6093, Note_off_c, 0, 100, 64
1, 6093, Note_off_c, 0, 103, 64
1, 6094, Note_on_c, 0, 67, 55
1, 6094, Note_off_c, 0, 68, 64
1, 6094, Note_on_c, 0, 79, 86
1, 6094, Note_off_c, 0, 102, 64
1, 6095, Note_on_c, 0, 98, 45
1, 6097, Note_on_c, 0, 95, 37
1, 6098, Note_on_c, 0, 86, 34
1, 6099, Note_on_c, 0, 78, 20
1, 6101, Note_off_c, 0, 86, 64
1, 6102, Note_off_c, 0, 67, 64
1, 6102, Note_off_c, 0, 78, 64
1, 6102, Note_off_c, 0, 79, 64
1, 6102, Note_off_c, 0, 95, 64
1, 6102, Note_off_c, 0, 98, 64
1, 6103, Note_on_c, 0, 67, 52
1, 6104, Note_on_c, 0, 64, 60
1, 6104, Note_on_c, 0, 65, 38
1, 6104, Note_on_c, 0, 66, 38
1, 6107, Note_off_c, 0, 65, 64
1, 6107, Note_off_c, 0, 66, 64
1, 6107, Note_off_c, 0, 67, 64
1, 6109, Note_on_c, 0, 59, 36
1, 6109, Note_on_c, 0, 61, 38
1, 6109, Note_on_c, 0, 62, 30
1, 6110, Note_on_c, 0, 63, 31
1, 6110, Note_off_c, 0, 64, 64
1, 6110, Note_on_c, 0, 75, 36
1, 6111, Note_off_c, 0, 59, 64
1, 6111, Note_on_c, 0, 74, 52
1, 6112, Note_off_c, 0, 62, 64
1, 6112, Note_on_c, 0, 81, 28
1, 6113, Note_off_c, 0, 61, 64
1, 6113, Note_on_c, 0, 62, 35
1, 6113, Note_off_c, 0, 63, 64
1, 6113, Note_off_c, 0, 75, 64
1, 6116, Note_off_c, 0, 62, 64
1, 6116, Note_off_c, 0, 74, 64
1, 6116, Note_off_c, 0, 81, 64
1, 6117, Note_on_c, 0, 65, 41
1, 6117, Note_on_c, 0, 77, 69
1, 6117, Note_on_c, 0, 83, 62
1, 6118, Note_on_c, 0, 64, 45
1, 6118, Note_on_c, 0, 88, 44
1, 6119, Note_off_c, 0, 65, 64
1, 6119, Note_on_c, 0, 76, 77
1, 6120, Note_off_c, 0, 77, 64
1, 6120, Note_on_c, 0, 87, 28
1, 6121, Note_on_c, 0, 63, 29
1, 6121, Note_on_c, 0, 75, 50
1, 6121, Note_on_c, 0, 82, 31
1, 6122, Note_off_c, 0, 88, 64
1, 6123, Note_on_c, 0, 84, 45
1, 6124, Note_off_c, 0, 63, 64
1, 6124, Note_off_c, 0, 75, 64
1, 6124, Note_on_c, 0, 77, 64
1, 6124, Note_off_c, 0, 82, 64
1, 6124, Note_off_c, 0, 87, 64
1, 6126, Note_off_c, 0, 64, 64
1, 6126, Note_on_c, 0, 65, 42
1, 6128, Note_on_c, 0, 64, 37
1, 6128, Note_off_c, 0, 65, 64
1, 6129, Note_off_c, 0, 83, 64
1, 6130, Note_off_c, 0, 64, 64
1, 6130, Note_off_c, 0, 76, 64
1, 6130, Note_off_c, 0, 77, 64
1, 6130, Note_on_c, 0, 78, 35
1, 6130, Note_off_c, 0, 84, 64
1, 6131, Note_on_c, 0, 65, 51
1, 6131, Note_on_c, 0, 66, 44
1, 6132, Note_on_c, 0, 76, 37
1, 6133, Note_on_c, 0, 64, 51
1, 6133, Note_off_c, 0, 66, 64
1, 6134, Note_off_c, 0, 78, 64
1, 6136, Note_off_c, 0, 65, 64
1, 6137, Note_off_c, 0, 64, 64
1, 6137, Note_on_c, 0, 65, 58
1, 6139, Note_off_c, 0, 76, 64
1, 6141, Note_on_c, 0, 68, 45
1, 6142, Note_on_c, 0, 66, 26
1, 6142, Note_on_c, 0, 67, 30
1, 6143, Note_on_c, 0, 64, 55
1, 6143, Note_on_c, 0, 76, 59
1, 6143, Note_on_c, 0, 83, 47
1, 6144, Note_on_c, 0, 84, 39
1, 6145, Note_off_c, 0, 65, 64
1, 6145, Note_off_c, 0, 66, 64
1, 6145, Note_off_c, 0, 67, 64
1, 6145, Note_off_c, 0, 68, 64
1, 6146, Note_off_c, 0, 64, 64
1, 6147, Note_on_c, 0, 64, 60
1, 6148, Note_off_c, 0, 84, 64
1, 6149, Note_off_c, 0, 64, 64
1, 6149, Note_on_c, 0, 65, 53
1, 6149, Note_off_c, 0, 76, 64
1, 6149, Note_off_c, 0, 83, 64
1, 6149, Note_on_c, 0, 84, 32
1, 6150, Note_on_c, 0, 67, 69
1, 6150, Note_on_c, 0, 68, 52
1, 6151, Note_off_c, 0, 84, 64
1, 6152, Note_off_c, 0, 65, 64
1, 6153, Note_off_c, 0, 68, 64
1, 6156, Note_on_c, 0, 62, 25
1, 6156, Note_on_c, 0, 63, 44
1, 6157, Note_on_c, 0, 64, 43
1, 6157, Note_off_c, 0, 67, 64
1, 6157, Note_on_c, 0, 75, 65
1, 6157, Note_on_c, 0, 76, 63
1, 6157, Note_on_c, 0, 82, 55
1, 6158, Note_on_c, 0, 83, 71
1, 6158, Note_on_c, 0, 84, 71
1, 6159, Note_off_c, 0, 62, 64
1, 6160, Note_on_c, 0, 77, 70
1, 6161, Note_off_c, 0, 63, 64
1, 6161, Note_off_c, 0, 75, 64
1, 6161, Note_off_c, 0, 82, 64
1, 6162, Note_off_c, 0, 76, 64
1, 6163, Note_on_c, 0, 76, 59
1, 6164, Note_on_c, 0, 65, 60
1, 6165, Note_off_c, 0, 64, 64
1, 6165, Note_off_c, 0, 76, 64
1, 6166, Note_on_c, 0, 64, 75
1, 6166, Note_off_c, 0, 65, 64
1, 6166, Note_off_c, 0, 77, 64
1, 6166, Note_off_c, 0, 83, 64
1, 6167, Note_off_c, 0, 84, 64
1, 6170, Note_on_c, 0, 65, 55
1, 6173, Note_on_c, 0, 66, 40
1, 6175, Note_off_c, 0, 64, 64
1, 6176, Note_on_c, 0, 64, 44
1, 6176, Note_off_c, 0, 66, 64
1, 6178, Note_on_c, 0, 60, 45
1, 6178, Note_off_c, 0, 64, 64
1, 6179, Note_off_c, 0, 65, 64
1, 6179, Note_on_c, 0, 71, 41
1, 6180, Note_on_c, 0, 59, 49
1, 6180, Note_off_c, 0, 60, 64
1, 6181, Note_on_c, 0, 79, 13
1, 6183, Note_off_c, 0, 71, 64
1, 6184, Note_off_c, 0, 59, 64
1, 6184, Note_on_c, 0, 64, 35
1, 6184, Note_off_c, 0, 79, 64
1, 6186, Note_on_c, 0, 63, 48
1, 6187, Note_off_c, 0, 64, 64
1, 6198, Note_on_c, 0, 62, 35
1, 6198, Note_off_c, 0, 63, 64
1, 6199, Note_on_c, 0, 63, 33
1, 6199, Note_on_c, 0, 81, 20
1, 6202, Note_off_c, 0, 63, 64
1, 6203, Note_off_c, 0, 62, 64
1, 6203, Note_on_c, 0, 63, 41
1, 6203, Note_on_c, 0, 82, 15
1, 6205, Note_off_c, 0, 81, 64
1, 6207, Note_on_c, 0, 62, 24
1, 6207, Note_off_c, 0, 63, 64
1, 6207, Note_off_c, 0, 82, 64
1, 6211, Note_off_c, 0, 62, 64
1, 6223, Note_on_c, 0, 61, 47
1, 6225, Note_off_c, 0, 61, 64
1, 6226, Note_on_c, 0, 59, 59
1, 6228, Note_on_c, 0, 58, 43
1, 6229, Note_off_c, 0, 59, 64
1, 6229, Note_on_c, 0, 60, 60
1, 6231, Note_off_c, 0, 58, 64
1, 6236, Note_on_c, 0, 59, 53
1, 6236, Note_off_c, 0, 60, 64
1, 6239, Note_on_c, 0, 101, 23
1, 6242, Note_off_c, 0, 59, 64
1, 6242, Note_on_c, 0, 72, 61
1, 6242, Note_off_c, 0, 101, 64
1, 6243, Note_on_c, 0, 59, 49
1, 6244, Note_on_c, 0, 71, 65
1, 6244, Note_off_c, 0, 72, 64
1, 6246, Note_off_c, 0, 59, 64
1, 6246, Note_on_c, 0, 60, 41
1, 6246, Note_off_c, 0, 71, 64
1, 6246, Note_on_c, 0, 72, 47
1, 6247, Note_on_c, 0, 62, 32
1, 6248, Note_off_c, 0, 72, 64
1, 6248, Note_on_c, 0, 74, 43
1, 6248, Note_on_c, 0, 75, 31
1, 6249, Note_off_c, 0, 60, 64
1, 6250, Note_off_c, 0, 75, 64
1, 6252, Note_on_c, 0, 61, 24
1, 6252, Note_on_c, 0, 73, 31
1, 6253, Note_on_c, 0, 75, 41
1, 6255, Note_off_c, 0, 61, 64
1, 6255, Note_off_c, 0, 73, 64
1, 6257, Note_off_c, 0, 62, 64
1, 6257, Note_on_c, 0, 63, 39
1, 6259, Note_on_c, 0, 62, 52
1, 6259, Note_off_c, 0, 63, 64
1, 6259, Note_off_c, 0, 75, 64
1, 6261, Note_off_c, 0, 74, 64
1, 6262, Note_off_c, 0, 62, 64
1, 6263, Note_on_c, 0, 60, 53
1, 6265, Note_off_c, 0, 60, 64
1, 6268, Note_on_c, 0, 59, 34
1, 6268, Note_on_c, 0, 78, 46
1, 6268, Note_on_c, 0, 83, 49
1, 6268, Note_on_c, 0, 87, 48
1, 6271, Note_on_c, 0, 58, 28
1, 6272, Note_off_c, 0, 87, 64
1, 6273, Note_off_c, 0, 59, 64
1, 6273, Note_on_c, 0, 60, 49
1, 6273, Note_off_c, 0, 78, 64
1, 6273, Note_off_c, 0, 83, 64
1, 6274, Note_off_c, 0, 58, 64
1, 6274, Note_on_c, 0, 59, 59
1, 6276, Note_off_c, 0, 60, 64
1, 6280, Note_off_c, 0, 59, 64
1, 6281, Note_on_c, 0, 57, 38
1, 6281, Note_on_c, 0, 76, 35
1, 6282, Note_on_c, 0, 81, 37
1, 6283, Note_on_c, 0, 85, 34
1, 6286, Note_off_c, 0, 76, 64
1, 6286, Note_off_c, 0, 81, 64
1, 6286, Note_off_c, 0, 85, 64
1, 6288, Note_off_c, 0, 57, 64
1, 6288, Note_on_c, 0, 58, 42
1, 6289, Note_on_c, 0, 56, 33
1, 6292, Note_on_c, 0, 57, 38
1, 6293, Note_off_c, 0, 56, 64
1, 6296, Note_off_c, 0, 57, 64
1, 6301, Note_off_c, 0, 58, 64
1, 6301, Note_on_c, 0, 60, 53
1, 6304, Note_on_c, 0, 59, 53
1, 6304, Note_off_c, 0, 60, 64
1, 6308, Note_on_c, 0, 60, 46
1, 6311, Note_off_c, 0, 60, 64
1, 6315, Note_on_c, 0, 72, 50
1, 6318, Note_off_c, 0, 59, 64
1, 6318, Note_on_c, 0, 60, 46
1, 6318, Note_off_c, 0, 72, 64
1, 6320, Note_off_c, 0, 60, 64
1, 6320, Note_on_c, 0, 61, 25
1, 6321, Note_on_c, 0, 60, 42
1, 6321, Note_on_c, 0, 62, 33
1, 6322, Note_on_c, 0, 63, 58
1, 6323, Note_off_c, 0, 60, 64
1, 6323, Note_off_c, 0, 61, 64
1, 6323, Note_off_c, 0, 62, 64
1, 6325, Note_on_c, 0, 62, 47
1, 6327, Note_off_c, 0, 63, 64
1, 6328, Note_on_c, 0, 63, 47
1, 6329, Note_off_c, 0, 62, 64
1, 6330, Note_on_c, 0, 62, 42
1, 6330, Note_off_c, 0, 63, 64
1, 6334, Note_off_c, 0, 62, 64
1, 6344, Note_on_c, 0, 63, 36
1, 6345, Note_on_c, 0, 60, 62
1, 6345, Note_on_c, 0, 62, 34
1, 6346, Note_off_c, 0, 63, 64
1, 6347, Note_off_c, 0, 62, 64
1, 6348, Note_on_c, 0, 58, 30
1, 6348, Note_on_c, 0, 69, 12
1, 6351, Note_off_c, 0, 69, 64
1, 6351, Note_on_c, 0, 71, 27
1, 6353, Note_off_c, 0, 58, 64
1, 6354, Note_off_c, 0, 71, 64
1, 6356, Note_on_c, 0, 75, 52
1, 6357, Note_off_c, 0, 60, 64
1, 6357, Note_on_c, 0, 62, 38
1, 6357, Note_on_c, 0, 82, 67
1, 6357, Note_on_c, 0, 86, 48
1, 6358, Note_on_c, 0, 90, 36
1, 6359, Note_off_c, 0, 62, 64
1, 6359, Note_on_c, 0, 63, 35
1, 6359, Note_off_c, 0, 86, 64
1, 6361, Note_off_c, 0, 63, 64
1, 6361, Note_off_c, 0, 90, 64
1, 6362, Note_off_c, 0, 75, 64
1, 6362, Note_off_c, 0, 82, 64
1, 6363, Note_on_c, 0, 60, 45
1, 6364, Note_on_c, 0, 58, 30
1, 6365, Note_on_c, 0, 71, 23
1, 6366, Note_on_c, 0, 59, 38
1, 6366, Note_off_c, 0, 60, 64
1, 6367, Note_off_c, 0, 58, 64
1, 6367, Note_on_c, 0, 60, 57
1, 6369, Note_off_c, 0, 71, 64
1, 6370, Note_off_c, 0, 59, 64
1, 6371, Note_on_c, 0, 71, 22
1, 6372, Note_on_c, 0, 59, 56
1, 6372, Note_off_c, 0, 60, 64
1, 6374, Note_off_c, 0, 59, 64
1, 6374, Note_off_c, 0, 71, 64
1, 6375, Note_on_c, 0, 63, 67
1, 6375, Note_on_c, 0, 81, 51
1, 6375, Note_on_c, 0, 82, 47
1, 6376, Note_on_c, 0, 62, 34
1, 6376, Note_on_c, 0, 74, 49
1, 6379, Note_off_c, 0, 62, 64
1, 6380, Note_off_c, 0, 74, 64
1, 6380, Note_off_c, 0, 81, 64
1, 6381, Note_off_c, 0, 82, 64
1, 6382, Note_off_c, 0, 63, 64
1, 6383, Note_on_c, 0, 63, 68
1, 6383, Note_on_c, 0, 82, 28
1, 6387, Note_off_c, 0, 82, 64
1, 6388, Note_on_c, 0, 58, 36
1, 6389, Note_off_c, 0, 63, 64
1, 6390, Note_on_c, 0, 59, 40
1, 6391, Note_off_c, 0, 58, 64
1, 6392, Note_on_c, 0, 58, 40
1, 6392, Note_off_c, 0, 59, 64
1, 6394, Note_on_c, 0, 55, 38
1, 6394, Note_off_c, 0, 58, 64
1, 6400, Note_off_c, 0, 55, 64
1, 6402, Note_on_c, 0, 52, 31
1, 6408, Note_off_c, 0, 52, 64
1, 6408, Note_on_c, 0, 53, 41
1, 6414, Note_off_c, 0, 53, 64
1, 6417, Note_on_c, 0, 55, 31
1, 6421, Note_off_c, 0, 55, 64
1, 6421, Note_on_c, 0, 56, 30
1, 6423, Note_off_c, 0, 56, 64
1, 6424, Note_on_c, 0, 56, 32
1, 6426, Note_off_c, 0, 56, 64
1, 6433, Note_on_c, 0, 56, 17
1, 6438, Note_on_c, 0, 55, 14
1, 6438, Note_off_c, 0, 56, 64
1, 6443, Note_off_c, 0, 55, 64
1, 6466, Note_on_c, 0, 65, 45
1, 6466, Note_on_c, 0, 77, 85
1, 6467, Note_on_c, 0, 84, 43
1, 6467, Note_on_c, 0, 93, 13
1, 6467, Note_on_c, 0, 103, 30
1, 6468, Note_on_c, 0, 98, 38
1, 6469, Note_on_c, 0, 76, 71
1, 6470, Note_on_c, 0, 64, 33
1, 6470, Note_off_c, 0, 93, 64
1, 6471, Note_on_c, 0, 83, 27
1, 6471, Note_off_c, 0, 98, 64
1, 6471, Note_off_c, 0, 103, 64
1, 6472, Note_off_c, 0, 64, 64
1, 6473, Note_on_c, 0, 64, 42
1, 6474, Note_off_c, 0, 65, 64
1, 6475, Note_on_c, 0, 65, 44
1, 6475, Note_on_c, 0, 98, 22
1, 6476, Note_off_c, 0, 64, 64
1, 6476, Note_off_c, 0, 77, 64
1, 6477, Note_on_c, 0, 64, 46
1, 6478, Note_off_c, 0, 65, 64
1, 6478, Note_off_c, 0, 83, 64
1, 6478, Note_off_c, 0, 84, 64
1, 6478, Note_off_c, 0, 98, 64
1, 6479, Note_off_c, 0, 64, 64
1, 6479, Note_off_c, 0, 76, 64
1, 6480, Note_on_c, 0, 68, 45
1, 6480, Note_on_c, 0, 80, 46
1, 6480, Note_on_c, 0, 87, 44
1, 6481, Note_on_c, 0, 66, 17
1, 6481, Note_on_c, 0, 76, 76
1, 6481, Note_on_c, 0, 77, 64
1, 6481, Note_on_c, 0, 79, 37
1, 6482, Note_on_c, 0, 64, 38
1, 6482, Note_on_c, 0, 65, 36
1, 6482, Note_on_c, 0, 83, 57
1, 6482, Note_on_c, 0, 84, 53
1, 6483, Note_off_c, 0, 68, 64
1, 6483, Note_off_c, 0, 80, 64
1, 6483, Note_off_c, 0, 87, 64
1, 6484, Note_off_c, 0, 66, 64
1, 6484, Note_off_c, 0, 79, 64
1, 6485, Note_off_c, 0, 64, 64
1, 6486, Note_on_c, 0, 64, 42
1, 6486, Note_off_c, 0, 65, 64
1, 6486, Note_off_c, 0, 77, 64
1, 6487, Note_on_c, 0, 77, 71
1, 6488, Note_on_c, 0, 63, 35
1, 6488, Note_on_c, 0, 75, 49
1, 6488, Note_on_c, 0, 82, 33
1, 6489, Note_on_c, 0, 65, 43
1, 6491, Note_off_c, 0, 64, 64
1, 6491, Note_off_c, 0, 75, 64
1, 6491, Note_off_c, 0, 82, 64
1, 6492, Note_off_c, 0, 63, 64
1, 6494, Note_on_c, 0, 64, 46
1, 6494, Note_off_c, 0, 65, 64
1, 6495, Note_off_c, 0, 77, 64
1, 6496, Note_off_c, 0, 64, 64
1, 6496, Note_off_c, 0, 76, 64
1, 6496, Note_on_c, 0, 77, 75
1, 6497, Note_on_c, 0, 64, 47
1, 6497, Note_on_c, 0, 76, 79
1, 6498, Note_off_c, 0, 77, 64
1, 6498, Note_off_c, 0, 84, 64
1, 6500, Note_on_c, 0, 62, 40
1, 6500, Note_off_c, 0, 64, 64
1, 6500, Note_on_c, 0, 74, 67
1, 6500, Note_on_c, 0, 75, 50
1, 6500, Note_off_c, 0, 76, 64
1, 6500, Note_on_c, 0, 81, 40
1, 6500, Note_off_c, 0, 83, 64
1, 6502, Note_off_c, 0, 75, 64
1, 6504, Note_off_c, 0, 62, 64
1, 6504, Note_off_c, 0, 74, 64
1, 6504, Note_off_c, 0, 81, 64
1, 6505, Note_on_c, 0, 64, 49
1, 6506, Note_on_c, 0, 62, 56
1, 6507, Note_on_c, 0, 61, 42
1, 6507, Note_on_c, 0, 73, 48
1, 6508, Note_on_c, 0, 81, 52
1, 6509, Note_off_c, 0, 61, 64
1, 6509, Note_off_c, 0, 64, 64
1, 6509, Note_off_c, 0, 73, 64
1, 6512, Note_on_c, 0, 87, 17
1, 6513, Note_off_c, 0, 62, 64
1, 6513, Note_on_c, 0, 63, 69
1, 6513, Note_on_c, 0, 82, 27
1, 6514, Note_off_c, 0, 81, 64
1, 6518, Note_off_c, 0, 82, 64
1, 6518, Note_off_c, 0, 87, 64
1, 6519, Note_off_c, 0, 63, 64
1, 6519, Note_on_c, 0, 68, 74
1, 6522, Note_on_c, 0, 87, 17
1, 6527, Note_on_c, 0, 66, 45
1, 6527, Note_on_c, 0, 67, 55
1, 6527, Note_off_c, 0, 68, 64
1, 6527, Note_off_c, 0, 87, 64
1, 6528, Note_on_c, 0, 68, 59
1, 6528, Note_on_c, 0, 69, 51
1, 6531, Note_off_c, 0, 69, 64
1, 6533, Note_off_c, 0, 66, 64
1, 6535, Note_off_c, 0, 67, 64
1, 6536, Note_on_c, 0, 87, 29
1, 6537, Note_on_c, 0, 79, 43
1, 6538, Note_on_c, 0, 86, 34
1, 6539, Note_on_c, 0, 66, 33
1, 6539, Note_off_c, 0, 68, 64
1, 6539, Note_off_c, 0, 87, 64
1, 6540, Note_on_c, 0, 64, 79
1, 6540, Note_on_c, 0, 77, 33
1, 6540, Note_off_c, 0, 79, 64
1, 6540, Note_off_c, 0, 86, 64
1, 6541, Note_off_c, 0, 66, 64
1, 6542, Note_off_c, 0, 77, 64
1, 6544, Note_on_c, 0, 65, 33
1, 6545, Note_on_c, 0, 77, 49
1, 6545, Note_on_c, 0, 83, 82
1, 6545, Note_on_c, 0, 84, 64
1, 6546, Note_off_c, 0, 65, 64
1, 6546, Note_on_c, 0, 82, 14
1, 6548, Note_off_c, 0, 77, 64
1, 6548, Note_off_c, 0, 84, 64
1, 6549, Note_off_c, 0, 82, 64
1, 6552, Note_off_c, 0, 83, 64
1, 6553, Note_off_c, 0, 64, 64
1, 6559, Note_on_c, 0, 65, 75
1, 6559, Note_on_c, 0, 101, 55
1, 6561, Note_on_c, 0, 103, 22
1, 6564, Note_off_c, 0, 103, 64
1, 6565, Note_on_c, 0, 68, 70
1, 6565, Note_on_c, 0, 69, 65
1, 6566, Note_off_c, 0, 65, 64
1, 6567, Note_off_c, 0, 69, 64
1, 6567, Note_on_c, 0, 99, 19
1, 6567, Note_on_c, 0, 102, 23
1, 6569, Note_off_c, 0, 101, 64
1, 6570, Note_off_c, 0, 68, 64
1, 6570, Note_off_c, 0, 99, 64
1, 6570, Note_off_c, 0, 102, 64
1, 6572, Note_on_c, 0, 67, 46
1, 6573, Note_on_c, 0, 65, 58
1, 6573, Note_on_c, 0, 66, 32
1, 6575, Note_on_c, 0, 84, 19
1, 6576, Note_off_c, 0, 66, 64
1, 6576, Note_off_c, 0, 67, 64
1, 6577, Note_on_c, 0, 64, 56
1, 6577, Note_off_c, 0, 65, 64
1, 6578, Note_off_c, 0, 84, 64
1, 6579, Note_on_c, 0, 60, 34
1, 6579, Note_on_c, 0, 61, 24
1, 6580, Note_on_c, 0, 62, 37
1, 6580, Note_on_c, 0, 63, 41
1, 6581, Note_off_c, 0, 64, 64
1, 6582, Note_off_c, 0, 60, 64
1, 6582, Note_off_c, 0, 61, 64
1, 6582, Note_on_c, 0, 64, 32
1, 6584, Note_off_c, 0, 64, 64
1, 6587, Note_off_c, 0, 62, 64
1, 6591, Note_on_c, 0, 62, 30
1, 6591, Note_off_c, 0, 63, 64
1, 6594, Note_off_c, 0, 62, 64
1, 6602, Note_on_c, 0, 66, 31
1, 6603, Note_on_c, 0, 77, 75
1, 6603, Note_on_c, 0, 84, 40
1, 6604, Note_on_c, 0, 64, 47
1, 6604, Note_on_c, 0, 83, 76
1, 6604, Note_on_c, 0, 88, 25
1, 6605, Note_off_c, 0, 66, 64
1, 6605, Note_on_c, 0, 76, 84
1, 6605, Note_off_c, 0, 77, 64
1, 6606, Note_off_c, 0, 84, 64
1, 6607, Note_on_c, 0, 74, 35
1, 6607, Note_on_c, 0, 75, 42
1, 6607, Note_on_c, 0, 81, 45
1, 6607, Note_on_c, 0, 82, 44
1, 6608, Note_on_c, 0, 84, 60
1, 6608, Note_off_c, 0, 88, 64
1, 6609, Note_on_c, 0, 77, 64
1, 6610, Note_off_c, 0, 74, 64
1, 6610, Note_off_c, 0, 75, 64
1, 6610, Note_off_c, 0, 81, 64
1, 6610, Note_off_c, 0, 82, 64
1, 6611, Note_off_c, 0, 77, 64
1, 6611, Note_off_c, 0, 84, 64
1, 6615, Note_off_c, 0, 64, 64
1, 6615, Note_on_c, 0, 71, 26
1, 6615, Note_off_c, 0, 76, 64
1, 6615, Note_off_c, 0, 83, 64
1, 6616, Note_on_c, 0, 60, 37
1, 6616, Note_on_c, 0, 62, 33
1, 6617, Note_on_c, 0, 63, 61
1, 6617, Note_on_c, 0, 82, 27
1, 6618, Note_off_c, 0, 60, 64
1, 6618, Note_off_c, 0, 62, 64
1, 6618, Note_off_c, 0, 71, 64
1, 6621, Note_off_c, 0, 82, 64
1, 6622, Note_off_c, 0, 63, 64
1, 6622, Note_on_c, 0, 68, 42
1, 6623, Note_on_c, 0, 67, 67
1, 6624, Note_off_c, 0, 68, 64
1, 6624, Note_on_c, 0, 80, 76
1, 6625, Note_off_c, 0, 67, 64
1, 6625, Note_on_c, 0, 68, 67
1, 6625, Note_on_c, 0, 99, 51
1, 6625, Note_on_c, 0, 101, 23
1, 6627, Note_on_c, 0, 95, 42
1, 6627, Note_on_c, 0, 98, 35
1, 6628, Note_on_c, 0, 86, 82
1, 6628, Note_on_c, 0, 91, 57
1, 6629, Note_on_c, 0, 67, 47
1, 6629, Note_on_c, 0, 79, 82
1, 6629, Note_off_c, 0, 80, 64
1, 6630, Note_off_c, 0, 68, 64
1, 6630, Note_off_c, 0, 99, 64
1, 6630, Note_off_c, 0, 101, 64
1, 6632, Note_on_c, 0, 92, 42
1, 6633, Note_off_c, 0, 95, 64
1, 6633, Note_off_c, 0, 98, 64
1, 6634, Note_on_c, 0, 68, 43
1, 6634, Note_on_c, 0, 80, 56
1, 6634, Note_on_c, 0, 81, 29
1, 6634, Note_on_c, 0, 87, 62
1, 6635, Note_off_c, 0, 91, 64
1, 6636, Note_on_c, 0, 78, 36
1, 6637, Note_off_c, 0, 81, 64
1, 6638, Note_on_c, 0, 65, 40
1, 6638, Note_off_c, 0, 67, 64
1, 6638, Note_off_c, 0, 68, 64
1, 6638, Note_on_c, 0, 77, 56
1, 6638, Note_off_c, 0, 78, 64
1, 6638, Note_on_c, 0, 84, 84
1, 6638, Note_off_c, 0, 92, 64
1, 6639, Note_off_c, 0, 79, 64
1, 6639, Note_off_c, 0, 80, 64
1, 6639, Note_off_c, 0, 86, 64
1, 6639, Note_off_c, 0, 87, 64
1, 6640, Note_on_c, 0, 92, 36
1, 6641, Note_on_c, 0, 64, 44
1, 6641, Note_off_c, 0, 65, 64
1, 6641, Note_on_c, 0, 76, 59
1, 6641, Note_on_c, 0, 88, 59
1, 6642, Note_on_c, 0, 83, 86
1, 6643, Note_off_c, 0, 77, 64
1, 6643, Note_on_c, 0, 98, 14
1, 6644, Note_off_c, 0, 76, 64
1, 6644, Note_on_c, 0, 77, 58
1, 6644, Note_off_c, 0, 83, 64
1, 6644, Note_on_c, 0, 93, 30
1, 6645, Note_off_c, 0, 64, 64
1, 6645, Note_on_c, 0, 65, 44
1, 6645, Note_on_c, 0, 83, 52
1, 6646, Note_on_c, 0, 76, 58
1, 6647, Note_on_c, 0, 64, 37
1, 6647, Note_off_c, 0, 65, 64
1, 6647, Note_on_c, 0, 66, 34
1, 6647, Note_on_c, 0, 67, 46
1, 6647, Note_off_c, 0, 88, 64
1, 6647, Note_off_c, 0, 92, 64
1, 6647, Note_off_c, 0, 93, 64
1, 6647, Note_off_c, 0, 98, 64
1, 6648, Note_on_c, 0, 65, 59
1, 6648, Note_off_c, 0, 83, 64
1, 6648, Note_off_c, 0, 84, 64
1, 6649, Note_off_c, 0, 64, 64
1, 6649, Note_off_c, 0, 76, 64
1, 6649, Note_on_c, 0, 101, 21
1, 6650, Note_off_c, 0, 67, 64
1, 6651, Note_off_c, 0, 66, 64
1, 6652, Note_on_c, 0, 64, 57
1, 6652, Note_off_c, 0, 65, 64
1, 6653, Note_on_c, 0, 59, 37
1, 6653, Note_on_c, 0, 61, 36
1, 6653, Note_on_c, 0, 62, 33
1, 6653, Note_off_c, 0, 77, 64
1, 6653, Note_off_c, 0, 101, 64
1, 6654, Note_on_c, 0, 63, 54
1, 6655, Note_off_c, 0, 59, 64
1, 6655, Note_off_c, 0, 64, 64
1, 6656, Note_off_c, 0, 61, 64
1, 6656, Note_off_c, 0, 62, 64
1, 6660, Note_on_c, 0, 62, 33
1, 6660, Note_on_c, 0, 74, 37
1, 6661, Note_off_c, 0, 63, 64
1, 6662, Note_on_c, 0, 60, 47
1, 6662, Note_on_c, 0, 82, 28
1, 6662, Note_on_c, 0, 84, 23
1, 6663, Note_off_c, 0, 62, 64
1, 6663, Note_off_c, 0, 74, 64
1, 6663, Note_on_c, 0, 77, 21
1, 6663, Note_on_c, 0, 78, 20
1, 6663, Note_on_c, 0, 79, 12
1, 6663, Note_on_c, 0, 83, 25
1, 6666, Note_off_c, 0, 79, 64
1, 6666, Note_off_c, 0, 84, 64
1, 6667, Note_off_c, 0, 82, 64
1, 6667, Note_off_c, 0, 83, 64
1, 6668, Note_off_c, 0, 77, 64
1, 6668, Note_off_c, 0, 78, 64
1, 6669, Note_on_c, 0, 59, 58
1, 6669, Note_off_c, 0, 60, 64
1, 6672, Note_off_c, 0, 59, 64
1, 6674, Note_on_c, 0, 63, 45
1, 6674, Note_on_c, 0, 64, 44
1, 6675, Note_on_c, 0, 61, 38
1, 6677, Note_on_c, 0, 62, 43
1, 6678, Note_off_c, 0, 61, 64
1, 6679, Note_off_c, 0, 62, 64
1, 6679, Note_off_c, 0, 64, 64
1, 6681, Note_on_c, 0, 60, 44
1, 6681, Note_on_c, 0, 72, 55
1, 6682, Note_off_c, 0, 63, 64
1, 6684, Note_on_c, 0, 71, 53
1, 6684, Note_off_c, 0, 72, 64
1, 6685, Note_off_c, 0, 60, 64
1, 6687, Note_on_c, 0, 64, 40
1, 6687, Note_off_c, 0, 71, 64
1, 6689, Note_on_c, 0, 63, 44
1, 6689, Note_off_c, 0, 64, 64
1, 6692, Note_on_c, 0, 81, 16
1, 6693, Note_on_c, 0, 62, 43
1, 6693, Note_off_c, 0, 63, 64
1, 6697, Note_off_c, 0, 81, 64
1, 6700, Note_on_c, 0, 63, 35
1, 6701, Note_off_c, 0, 62, 64
1, 6702, Note_on_c, 0, 62, 33
1, 6703, Note_off_c, 0, 63, 64
1, 6706, Note_off_c, 0, 62, 64
1, 6706, Note_on_c, 0, 63, 36
1, 6710, Note_off_c, 0, 63, 64
1, 6721, Note_on_c, 0, 60, 64
1, 6722, Note_on_c, 0, 79, 26
1, 6723, Note_on_c, 0, 61, 15
1, 6724, Note_on_c, 0, 71, 33
1, 6725, Note_on_c, 0, 59, 64
1, 6725, Note_off_c, 0, 79, 64
1, 6726, Note_off_c, 0, 60, 64
1, 6727, Note_off_c, 0, 61, 64
1, 6728, Note_off_c, 0, 59, 64
1, 6728, Note_off_c, 0, 71, 64
1, 6729, Note_on_c, 0, 60, 50
1, 6730, Note_on_c, 0, 59, 55
1, 6731, Note_off_c, 0, 60, 64
1, 6732, Note_off_c, 0, 59, 64
1, 6732, Note_on_c, 0, 60, 56
1, 6732, Note_on_c, 0, 72, 71
1, 6735, Note_off_c, 0, 60, 64
1, 6735, Note_on_c, 0, 98, 32
1, 6736, Note_on_c, 0, 60, 59
1, 6736, Note_on_c, 0, 79, 43
1, 6740, Note_on_c, 0, 61, 34
1, 6740, Note_on_c, 0, 63, 61
1, 6740, Note_off_c, 0, 72, 64
1, 6740, Note_off_c, 0, 98, 64
1, 6741, Note_off_c, 0, 79, 64
1, 6742, Note_off_c, 0, 61, 64
1, 6742, Note_on_c, 0, 62, 59
1, 6743, Note_off_c, 0, 60, 64
1, 6744, Note_off_c, 0, 62, 64
1, 6746, Note_off_c, 0, 63, 64
1, 6747, Note_on_c, 0, 61, 41
1, 6747, Note_on_c, 0, 63, 54
1, 6747, Note_on_c, 0, 64, 50
1, 6748, Note_on_c, 0, 62, 49
1, 6749, Note_off_c, 0, 61, 64
1, 6750, Note_off_c, 0, 62, 64
1, 6750, Note_off_c, 0, 64, 64
1, 6751, Note_on_c, 0, 62, 57
1, 6752, Note_off_c, 0, 63, 64
1, 6753, Note_off_c, 0, 62, 64
1, 6753, Note_on_c, 0, 63, 60
1, 6757, Note_on_c, 0, 62, 55
1, 6757, Note_off_c, 0, 63, 64
1, 6759, Note_on_c, 0, 59, 53
1, 6759, Note_off_c, 0, 62, 64
1, 6760, Note_on_c, 0, 72, 29
1, 6761, Note_on_c, 0, 60, 60
1, 6762, Note_off_c, 0, 59, 64
1, 6762, Note_off_c, 0, 72, 64
1, 6763, Note_on_c, 0, 59, 60
1, 6763, Note_off_c, 0, 60, 64
1, 6765, Note_on_c, 0, 70, 26
1, 6766, Note_on_c, 0, 57, 18
1, 6767, Note_on_c, 0, 54, 25
1, 6768, Note_off_c, 0, 59, 64
1, 6768, Note_off_c, 0, 70, 64
1, 6769, Note_on_c, 0, 59, 34
1, 6769, Note_on_c, 0, 61, 30
1, 6770, Note_off_c, 0, 54, 64
1, 6770, Note_off_c, 0, 57, 64
1, 6770, Note_on_c, 0, 60, 49
1, 6771, Note_on_c, 0, 58, 40
1, 6771, Note_off_c, 0, 59, 64
1, 6771, Note_on_c, 0, 71, 29
1, 6772, Note_off_c, 0, 61, 64
1, 6773, Note_off_c, 0, 58, 64
1, 6774, Note_on_c, 0, 59, 55
1, 6774, Note_off_c, 0, 60, 64
1, 6777, Note_on_c, 0, 62, 40
1, 6777, Note_on_c, 0, 81, 66
1, 6777, Note_on_c, 0, 86, 63
1, 6778, Note_off_c, 0, 59, 64
1, 6778, Note_off_c, 0, 71, 64
1, 6778, Note_on_c, 0, 74, 65
1, 6779, Note_on_c, 0, 82, 67
1, 6779, Note_on_c, 0, 87, 58
1, 6780, Note_off_c, 0, 81, 64
1, 6781, Note_off_c, 0, 86, 64
1, 6782, Note_off_c, 0, 82, 64
1, 6783, Note_off_c, 0, 62, 64
1, 6783, Note_off_c, 0, 74, 64
1, 6783, Note_off_c, 0, 87, 64
1, 6784, Note_on_c, 0, 63, 37
1, 6785, Note_on_c, 0, 58, 39
1, 6785, Note_on_c, 0, 60, 45
1, 6787, Note_off_c, 0, 63, 64
1, 6788, Note_off_c, 0, 58, 64
1, 6788, Note_on_c, 0, 59, 43
1, 6789, Note_off_c, 0, 60, 64
1, 6790, Note_off_c, 0, 59, 64
1, 6796, Note_on_c, 0, 66, 47
1, 6797, Note_on_c, 0, 65, 55
1, 6797, Note_on_c, 0, 77, 59
1, 6797, Note_on_c, 0, 84, 85
1, 6797, Note_on_c, 0, 85, 32
1, 6798, Note_off_c, 0, 66, 64
1, 6800, Note_off_c, 0, 85, 64
1, 6802, Note_on_c, 0, 79, 44
1, 6802, Note_on_c, 0, 80, 47
1, 6802, Note_on_c, 0, 86, 47
1, 6802, Note_on_c, 0, 87, 51
1, 6803, Note_on_c, 0, 78, 40
1, 6803, Note_on_c, 0, 85, 44
1, 6804, Note_off_c, 0, 65, 64
1, 6804, Note_off_c, 0, 77, 64
1, 6805, Note_on_c, 0, 65, 57
1, 6805, Note_on_c, 0, 77, 67
1, 6805, Note_off_c, 0, 78, 64
1, 6805, Note_off_c, 0, 80, 64
1, 6805, Note_off_c, 0, 85, 64
1, 6806, Note_off_c, 0, 79, 64
1, 6806, Note_off_c, 0, 86, 64
1, 6806, Note_off_c, 0, 87, 64
1, 6806, Note_on_c, 0, 93, 28
1, 6809, Note_off_c, 0, 93, 64
1, 6810, Note_on_c, 0, 63, 54
1, 6810, Note_off_c, 0, 77, 64
1, 6810, Note_off_c, 0, 84, 64
1, 6811, Note_on_c, 0, 62, 42
1, 6811, Note_off_c, 0, 65, 64
1, 6814, Note_off_c, 0, 62, 64
1, 6819, Note_on_c, 0, 62, 39
1, 6821, Note_off_c, 0, 63, 64
1, 6821, Note_on_c, 0, 64, 43
1, 6822, Note_on_c, 0, 63, 40
1, 6824, Note_off_c, 0, 62, 64
1, 6825, Note_off_c, 0, 63, 64
1, 6826, Note_on_c, 0, 63, 51
1, 6826, Note_off_c, 0, 64, 64
1, 6830, Note_on_c, 0, 62, 37
1, 6830, Note_off_c, 0, 63, 64
1, 6831, Note_on_c, 0, 59, 34
1, 6831, Note_on_c, 0, 60, 51
1, 6832, Note_off_c, 0, 62, 64
1, 6834, Note_off_c, 0, 59, 64
1, 6836, Note_off_c, 0, 60, 64
1, 6838, Note_on_c, 0, 63, 38
1, 6838, Note_on_c, 0, 72, 32
1, 6838, Note_on_c, 0, 74, 29
1, 6838, Note_on_c, 0, 83, 43
1, 6838, Note_on_c, 0, 84, 43
1, 6839, Note_on_c, 0, 59, 42
1, 6839, Note_on_c, 0, 60, 45
1, 6839, Note_on_c, 0, 62, 32
1, 6839, Note_on_c, 0, 70, 41
1, 6839, Note_on_c, 0, 77, 44
1, 6839, Note_on_c, 0, 78, 40
1, 6839, Note_on_c, 0, 79, 23
1, 6840, Note_on_c, 0, 82, 42
1, 6841, Note_off_c, 0, 62, 64
1, 6841, Note_off_c, 0, 63, 64
1, 6841, Note_off_c, 0, 74, 64
1, 6841, Note_off_c, 0, 83, 64
1, 6841, Note_off_c, 0, 84, 64
1, 6842, Note_off_c, 0, 59, 64
1, 6842, Note_off_c, 0, 82, 64
1, 6843, Note_on_c, 0, 59, 39
1, 6843, Note_off_c, 0, 79, 64
1, 6844, Note_off_c, 0, 70, 64
1, 6845, Note_off_c, 0, 77, 64
1, 6846, Note_on_c, 0, 79, 39
1, 6847, Note_off_c, 0, 59, 64
1, 6848, Note_on_c, 0, 59, 44
1, 6848, Note_off_c, 0, 72, 64
1, 6849, Note_off_c, 0, 60, 64
1, 6849, Note_off_c, 0, 79, 64
1, 6851, Note_off_c, 0, 59, 64
1, 6851, Note_on_c, 0, 83, 39
1, 6851, Note_on_c, 0, 86, 34
1, 6851, Note_on_c, 0, 87, 39
1, 6852, Note_on_c, 0, 59, 31
1, 6852, Note_on_c, 0, 77, 27
1, 6852, Note_on_c, 0, 82, 20
1, 6853, Note_on_c, 0, 85, 30
1, 6854, Note_on_c, 0, 57, 30
1, 6854, Note_off_c, 0, 59, 64
1, 6854, Note_on_c, 0, 76, 26
1, 6854, Note_off_c, 0, 78, 64
1, 6854, Note_off_c, 0, 83, 64
1, 6854, Note_off_c, 0, 87, 64
1, 6855, Note_off_c, 0, 77, 64
1, 6855, Note_off_c, 0, 82, 64
1, 6855, Note_off_c, 0, 86, 64
1, 6856, Note_off_c, 0, 85, 64
1, 6857, Note_on_c, 0, 54, 16
1, 6857, Note_off_c, 0, 57, 64
1, 6857, Note_off_c, 0, 76, 64
1, 6858, Note_on_c, 0, 56, 28
1, 6860, Note_off_c, 0, 54, 64
1, 6863, Note_off_c, 0, 56, 64
1, 6864, Note_on_c, 0, 60, 33
1, 6864, Note_on_c, 0, 79, 38
1, 6864, Note_on_c, 0, 84, 43
1, 6864, Note_on_c, 0, 88, 27
1, 6865, Note_on_c, 0, 71, 18
1, 6865, Note_on_c, 0, 78, 36
1, 6865, Note_on_c, 0, 83, 54
1, 6865, Note_on_c, 0, 87, 38
1, 6866, Note_on_c, 0, 59, 33
1, 6867, Note_off_c, 0, 60, 64
1, 6868, Note_off_c, 0, 59, 64
1, 6868, Note_on_c, 0, 60, 40
1, 6868, Note_off_c, 0, 71, 64
1, 6868, Note_off_c, 0, 78, 64
1, 6868, Note_off_c, 0, 83, 64
1, 6868, Note_off_c, 0, 87, 64
1, 6869, Note_off_c, 0, 79, 64
1, 6869, Note_off_c, 0, 84, 64
1, 6869, Note_off_c, 0, 88, 64
1, 6870, Note_on_c, 0, 79, 31
1, 6870, Note_on_c, 0, 83, 46
1, 6871, Note_on_c, 0, 71, 46
1, 6871, Note_on_c, 0, 78, 43
1, 6871, Note_on_c, 0, 84, 36
1, 6873, Note_off_c, 0, 78, 64
1, 6874, Note_off_c, 0, 60, 64
1, 6874, Note_off_c, 0, 71, 64
1, 6874, Note_off_c, 0, 79, 64
1, 6874, Note_off_c, 0, 83, 64
1, 6874, Note_off_c, 0, 84, 64
1, 6877, Note_on_c, 0, 60, 40
1, 6881, Note_on_c, 0, 57, 37
1, 6881, Note_off_c, 0, 60, 64
1, 6882, Note_on_c, 0, 55, 38
1, 6883, Note_off_c, 0, 57, 64
1, 6883, Note_on_c, 0, 74, 13
1, 6886, Note_off_c, 0, 74, 64
1, 6891, Note_on_c, 0, 52, 25
1, 6892, Note_on_c, 0, 53, 32
1, 6892, Note_off_c, 0, 55, 64
1, 6892, Note_on_c, 0, 63, 30
1, 6894, Note_on_c, 0, 64, 37
1, 6895, Note_off_c, 0, 52, 64
1, 6896, Note_on_c, 0, 52, 42
1, 6896, Note_off_c, 0, 53, 64
1, 6897, Note_off_c, 0, 63, 64
1, 6899, Note_off_c, 0, 52, 64
1, 6899, Note_off_c, 0, 64, 64
1, 6899, Note_on_c, 0, 65, 38
1, 6900, Note_on_c, 0, 52, 41
1, 6901, Note_off_c, 0, 65, 64
1, 6902, Note_off_c, 0, 52, 64
1, 6904, Note_on_c, 0, 56, 31
1, 6905, Note_on_c, 0, 67, 21
1, 6908, Note_off_c, 0, 56, 64
1, 6909, Note_on_c, 0, 56, 29
1, 6909, Note_off_c, 0, 67, 64
1, 6920, Note_off_c, 0, 56, 64
1, 6921, Note_on_c, 0, 56, 17
1, 6926, Note_off_c, 0, 56, 64
1, 6948, Note_on_c, 0, 66, 47
1, 6949, Note_on_c, 0, 99, 29
1, 6950, Note_on_c, 0, 65, 73
1, 6950, Note_off_c, 0, 66, 64
1, 6951, Note_on_c, 0, 101, 24
1, 6952, Note_on_c, 0, 77, 80
1, 6955, Note_on_c, 0, 84, 71
1, 6955, Note_off_c, 0, 101, 64
1, 6956, Note_off_c, 0, 99, 64
1, 6956, Note_on_c, 0, 103, 15
1, 6959, Note_off_c, 0, 103, 64
1, 6960, Note_on_c, 0, 64, 57
1, 6961, Note_off_c, 0, 84, 64
1, 6962, Note_off_c, 0, 77, 64
1, 6963, Note_on_c, 0, 63, 61
1, 6963, Note_off_c, 0, 64, 64
1, 6963, Note_off_c, 0, 65, 64
1, 6963, Note_on_c, 0, 102, 15
1, 6964, Note_on_c, 0, 62, 37
1, 6964, Note_on_c, 0, 64, 61
1, 6964, Note_on_c, 0, 65, 70
1, 6965, Note_on_c, 0, 101, 50
1, 6966, Note_off_c, 0, 62, 64
1, 6966, Note_off_c, 0, 63, 64
1, 6968, Note_off_c, 0, 64, 64
1, 6968, Note_on_c, 0, 103, 23
1, 6969, Note_off_c, 0, 102, 64
1, 6972, Note_on_c, 0, 66, 37
1, 6972, Note_on_c, 0, 67, 43
1, 6973, Note_on_c, 0, 64, 54
1, 6973, Note_on_c, 0, 68, 57
1, 6973, Note_off_c, 0, 103, 64
1, 6975, Note_off_c, 0, 64, 64
1, 6975, Note_off_c, 0, 66, 64
1, 6975, Note_off_c, 0, 67, 64
1, 6975, Note_on_c, 0, 103, 17
1, 6976, Note_off_c, 0, 68, 64
1, 6976, Note_on_c, 0, 99, 37
1, 6980, Note_on_c, 0, 68, 64
1, 6980, Note_on_c, 0, 69, 43
1, 6980, Note_off_c, 0, 103, 64
1, 6981, Note_off_c, 0, 99, 64
1, 6981, Note_off_c, 0, 101, 64
1, 6982, Note_off_c, 0, 65, 64
1, 6984, Note_off_c, 0, 69, 64
1, 6987, Note_on_c, 0, 63, 49
1, 6987, Note_off_c, 0, 68, 64
1, 6989, Note_on_c, 0, 62, 47
1, 6989, Note_off_c, 0, 63, 64
1, 6989, Note_on_c, 0, 74, 55
1, 6989, Note_on_c, 0, 81, 52
1, 6989, Note_on_c, 0, 85, 34
1, 6990, Note_on_c, 0, 75, 29
1, 6991, Note_on_c, 0, 73, 36
1, 6992, Note_on_c, 0, 63, 73
1, 6992, Note_off_c, 0, 75, 64
1, 6992, Note_off_c, 0, 85, 64
1, 6993, Note_off_c, 0, 73, 64
1, 6994, Note_off_c, 0, 62, 64
1, 6996, Note_off_c, 0, 81, 64
1, 6997, Note_off_c, 0, 74, 64
1, 7000, Note_on_c, 0, 65, 69
1, 7002, Note_off_c, 0, 63, 64
1, 7006, Note_on_c, 0, 61, 36
1, 7006, Note_on_c, 0, 62, 35
1, 7006, Note_on_c, 0, 63, 61
1, 7006, Note_off_c, 0, 65, 64
1, 7007, Note_on_c, 0, 60, 41
1, 7007, Note_on_c, 0, 101, 19
1, 7008, Note_off_c, 0, 61, 64
1, 7009, Note_off_c, 0, 60, 64
1, 7009, Note_off_c, 0, 62, 64
1, 7012, Note_off_c, 0, 101, 64
1, 7013, Note_off_c, 0, 63, 64
1, 7014, Note_on_c, 0, 65, 46
1, 7014, Note_on_c, 0, 67, 39
1, 7015, Note_on_c, 0, 66, 38
1, 7016, Note_on_c, 0, 64, 54
1, 7016, Note_off_c, 0, 65, 64
1, 7017, Note_off_c, 0, 67, 64
1, 7019, Note_off_c, 0, 66, 64
1, 7019, Note_on_c, 0, 77, 35
1, 7020, Note_off_c, 0, 64, 64
1, 7021, Note_on_c, 0, 64, 40
1, 7021, Note_off_c, 0, 77, 64
1, 7024, Note_on_c, 0, 60, 49
1, 7024, Note_on_c, 0, 61, 44
1, 7024, Note_off_c, 0, 64, 64
1, 7026, Note_off_c, 0, 61, 64
1, 7028, Note_on_c, 0, 59, 57
1, 7028, Note_off_c, 0, 60, 64
1, 7028, Note_on_c, 0, 71, 65
1, 7029, Note_on_c, 0, 99, 20
1, 7032, Note_off_c, 0, 99, 64
1, 7033, Note_on_c, 0, 58, 29
1, 7033, Note_on_c, 0, 60, 39
1, 7035, Note_off_c, 0, 60, 64
1, 7036, Note_off_c, 0, 58, 64
1, 7038, Note_off_c, 0, 71, 64
1, 7040, Note_off_c, 0, 59, 64
1, 7040, Note_on_c, 0, 60, 47
1, 7042, Note_on_c, 0, 63, 46
1, 7043, Note_on_c, 0, 62, 36
1, 7044, Note_off_c, 0, 60, 64
1, 7047, Note_off_c, 0, 62, 64
1, 7056, Note_off_c, 0, 63, 64
1, 7065, Note_on_c, 0, 59, 50
1, 7065, Note_on_c, 0, 60, 44
1, 7067, Note_on_c, 0, 58, 22
1, 7067, Note_off_c, 0, 60, 64
1, 7070, Note_off_c, 0, 58, 64
1, 7070, Note_on_c, 0, 60, 41
1, 7072, Note_off_c, 0, 60, 64
1, 7073, Note_off_c, 0, 59, 64
1, 7073, Note_on_c, 0, 60, 56
1, 7076, Note_off_c, 0, 60, 64
1, 7076, Note_on_c, 0, 67, 47
1, 7076, Note_on_c, 0, 79, 82
1, 7076, Note_on_c, 0, 86, 65
1, 7080, Note_on_c, 0, 68, 34
1, 7080, Note_on_c, 0, 80, 68
1, 7080, Note_on_c, 0, 87, 72
1, 7081, Note_off_c, 0, 67, 64
1, 7081, Note_off_c, 0, 79, 64
1, 7081, Note_off_c, 0, 86, 64
1, 7082, Note_off_c, 0, 68, 64
1, 7082, Note_off_c, 0, 80, 64
1, 7082, Note_off_c, 0, 87, 64
1, 7083, Note_on_c, 0, 66, 37
1, 7084, Note_on_c, 0, 65, 62
1, 7084, Note_on_c, 0, 76, 43
1, 7084, Note_on_c, 0, 77, 66
1, 7085, Note_on_c, 0, 64, 49
1, 7086, Note_off_c, 0, 66, 64
1, 7090, Note_off_c, 0, 64, 64
1, 7090, Note_off_c, 0, 76, 64
1, 7092, Note_on_c, 0, 84, 24
1, 7094, Note_on_c, 0, 63, 26
1, 7096, Note_on_c, 0, 64, 51
1, 7096, Note_off_c, 0, 84, 64
1, 7097, Note_on_c, 0, 62, 37
1, 7097, Note_off_c, 0, 63, 64
1, 7098, Note_off_c, 0, 65, 64
1, 7098, Note_off_c, 0, 77, 64
1, 7100, Note_off_c, 0, 62, 64
1, 7100, Note_on_c, 0, 76, 83
1, 7103, Note_on_c, 0, 83, 52
1, 7103, Note_on_c, 0, 92, 19
1, 7105, Note_off_c, 0, 83, 64
1, 7105, Note_on_c, 0, 84, 72
1, 7107, Note_off_c, 0, 64, 64
1, 7107, Note_on_c, 0, 65, 44
1, 7107, Note_on_c, 0, 77, 52
1, 7107, Note_on_c, 0, 79, 67
1, 7107, Note_on_c, 0, 85, 58
1, 7107, Note_on_c, 0, 86, 61
1, 7107, Note_off_c, 0, 92, 64
1, 7108, Note_on_c, 0, 78, 57
1, 7109, Note_off_c, 0, 76, 64
1, 7110, Note_on_c, 0, 76, 80
1, 7110, Note_off_c, 0, 77, 64
1, 7110, Note_off_c, 0, 78, 64
1, 7110, Note_on_c, 0, 83, 77
1, 7111, Note_on_c, 0, 64, 46
1, 7111, Note_off_c, 0, 65, 64
1, 7111, Note_off_c, 0, 79, 64
1, 7111, Note_off_c, 0, 85, 64
1, 7111, Note_off_c, 0, 86, 64
1, 7112, Note_off_c, 0, 84, 64
1, 7113, Note_on_c, 0, 82, 35
1, 7114, Note_on_c, 0, 59, 43
1, 7114, Note_on_c, 0, 61, 44
1, 7114, Note_on_c, 0, 63, 64
1, 7115, Note_on_c, 0, 62, 38
1, 7115, Note_off_c, 0, 64, 64
1, 7116, Note_off_c, 0, 76, 64
1, 7116, Note_off_c, 0, 82, 64
1, 7116, Note_off_c, 0, 83, 64
1, 7117, Note_off_c, 0, 59, 64
1, 7117, Note_off_c, 0, 61, 64
1, 7118, Note_off_c, 0, 62, 64
1, 7119, Note_on_c, 0, 82, 22
1, 7121, Note_off_c, 0, 63, 64
1, 7122, Note_on_c, 0, 63, 43
1, 7122, Note_on_c, 0, 79, 70
1, 7122, Note_on_c, 0, 86, 81
1, 7123, Note_on_c, 0, 67, 31
1, 7124, Note_off_c, 0, 63, 64
1, 7124, Note_off_c, 0, 82, 64
1, 7125, Note_on_c, 0, 85, 59
1, 7126, Note_on_c, 0, 66, 22
1, 7126, Note_on_c, 0, 78, 45
1, 7127, Note_on_c, 0, 68, 35
1, 7127, Note_on_c, 0, 80, 54
1, 7129, Note_off_c, 0, 66, 64
1, 7129, Note_off_c, 0, 67, 64
1, 7129, Note_off_c, 0, 78, 64
1, 7129, Note_off_c, 0, 85, 64
1, 7129, Note_off_c, 0, 86, 64
1, 7132, Note_off_c, 0, 80, 64
1, 7133, Note_off_c, 0, 68, 64
1, 7133, Note_off_c, 0, 79, 64
1, 7135, Note_on_c, 0, 64, 35
1, 7135, Note_on_c, 0, 76, 46
1, 7135, Note_on_c, 0, 88, 54
1, 7135, Note_on_c, 0, 92, 35
1, 7136, Note_on_c, 0, 84, 84
1, 7136, Note_on_c, 0, 103, 22
1, 7137, Note_off_c, 0, 64, 64
1, 7137, Note_on_c, 0, 65, 40
1, 7137, Note_on_c, 0, 77, 54
1, 7137, Note_on_c, 0, 89, 60
1, 7139, Note_off_c, 0, 76, 64
1, 7139, Note_off_c, 0, 88, 64
1, 7140, Note_on_c, 0, 76, 39
1, 7140, Note_on_c, 0, 88, 55
1, 7141, Note_on_c, 0, 79, 73
1, 7141, Note_on_c, 0, 80, 46
1, 7141, Note_on_c, 0, 85, 28
1, 7141, Note_on_c, 0, 86, 71
1, 7141, Note_on_c, 0, 87, 73
1, 7141, Note_off_c, 0, 103, 64
1, 7142, Note_on_c, 0, 67, 43
1, 7142, Note_on_c, 0, 68, 31
1, 7142, Note_off_c, 0, 76, 64
1, 7142, Note_off_c, 0, 89, 64
1, 7143, Note_off_c, 0, 65, 64
1, 7143, Note_off_c, 0, 77, 64
1, 7143, Note_off_c, 0, 88, 64
1, 7144, Note_off_c, 0, 84, 64
1, 7144, Note_off_c, 0, 85, 64
1, 7144, Note_off_c, 0, 92, 64
1, 7145, Note_off_c, 0, 68, 64
1, 7145, Note_off_c, 0, 80, 64
1, 7145, Note_on_c, 0, 92, 54
1, 7146, Note_off_c, 0, 67, 64
1, 7146, Note_on_c, 0, 68, 41
1, 7146, Note_off_c, 0, 79, 64
1, 7146, Note_on_c, 0, 80, 71
1, 7147, Note_off_c, 0, 87, 64
1, 7148, Note_off_c, 0, 68, 64
1, 7148, Note_off_c, 0, 80, 64
1, 7148, Note_off_c, 0, 86, 64
1, 7148, Note_off_c, 0, 92, 64
1, 7149, Note_on_c, 0, 63, 47
1, 7151, Note_on_c, 0, 81, 15
1, 7152, Note_on_c, 0, 62, 46
1, 7152, Note_off_c, 0, 63, 64
1, 7155, Note_off_c, 0, 81, 64
1, 7157, Note_on_c, 0, 61, 28
1, 7159, Note_on_c, 0, 63, 31
1, 7162, Note_off_c, 0, 61, 64
1, 7162, Note_off_c, 0, 62, 64
1, 7163, Note_on_c, 0, 62, 37
1, 7164, Note_off_c, 0, 63, 64
1, 7172, Note_off_c, 0, 62, 64
1, 7186, Note_on_c, 0, 63, 64
1, 7186, Note_on_c, 0, 82, 38
1, 7188, Note_on_c, 0, 73, 56
1, 7188, Note_on_c, 0, 86, 34
1, 7189, Note_on_c, 0, 61, 37
1, 7189, Note_on_c, 0, 70, 31
1, 7189, Note_on_c, 0, 71, 59
1, 7189, Note_on_c, 0, 79, 22
1, 7189, Note_off_c, 0, 82, 64
1, 7189, Note_on_c, 0, 84, 22
1, 7190, Note_on_c, 0, 59, 44
1, 7190, Note_off_c, 0, 63, 64
1, 7190, Note_off_c, 0, 73, 64
1, 7190, Note_on_c, 0, 83, 79
1, 7191, Note_off_c, 0, 61, 64
1, 7191, Note_off_c, 0, 70, 64
1, 7191, Note_on_c, 0, 78, 53
1, 7191, Note_on_c, 0, 87, 55
1, 7192, Note_off_c, 0, 79, 64
1, 7192, Note_off_c, 0, 84, 64
1, 7192, Note_on_c, 0, 92, 26
1, 7194, Note_off_c, 0, 86, 64
1, 7195, Note_on_c, 0, 86, 55
1, 7196, Note_off_c, 0, 87, 64
1, 7197, Note_on_c, 0, 79, 49
1, 7197, Note_on_c, 0, 84, 41
1, 7197, Note_off_c, 0, 86, 64
1, 7198, Note_off_c, 0, 92, 64
1, 7199, Note_off_c, 0, 79, 64
1, 7199, Note_off_c, 0, 83, 64
1, 7199, Note_off_c, 0, 84, 64
1, 7200, Note_on_c, 0, 63, 47
1, 7200, Note_off_c, 0, 78, 64
1, 7201, Note_off_c, 0, 59, 64
1, 7201, Note_on_c, 0, 62, 38
1, 7201, Note_off_c, 0, 71, 64
1, 7205, Note_on_c, 0, 61, 32
1, 7205, Note_off_c, 0, 62, 64
1, 7206, Note_on_c, 0, 62, 46
1, 7207, Note_off_c, 0, 63, 64
1, 7208, Note_off_c, 0, 61, 64
1, 7212, Note_on_c, 0, 63, 45
1, 7213, Note_off_c, 0, 62, 64
1, 7214, Note_off_c, 0, 63, 64
1, 7215, Note_on_c, 0, 60, 45
1, 7216, Note_on_c, 0, 71, 24
1, 7217, Note_on_c, 0, 59, 45
1, 7218, Note_off_c, 0, 60, 64
1, 7219, Note_off_c, 0, 59, 64
1, 7219, Note_off_c, 0, 71, 64
1, 7220, Note_on_c, 0, 79, 30
1, 7220, Note_on_c, 0, 83, 43
1, 7221, Note_on_c, 0, 59, 51
1, 7221, Note_on_c, 0, 78, 37
1, 7221, Note_on_c, 0, 84, 37
1, 7221, Note_on_c, 0, 86, 38
1, 7221, Note_on_c, 0, 87, 35
1, 7223, Note_off_c, 0, 79, 64
1, 7223, Note_off_c, 0, 84, 64
1, 7224, Note_off_c, 0, 86, 64
1, 7225, Note_off_c, 0, 83, 64
1, 7225, Note_off_c, 0, 87, 64
1, 7230, Note_off_c, 0, 78, 64
1, 7233, Note_off_c, 0, 59, 64
1, 7233, Note_on_c, 0, 60, 29
1, 7234, Note_on_c, 0, 59, 36
1, 7234, Note_on_c, 0, 62, 32
1, 7237, Note_off_c, 0, 60, 64
1, 7237, Note_off_c, 0, 62, 64
1, 7238, Note_on_c, 0, 56, 28
1, 7239, Note_on_c, 0, 58, 31
1, 7239, Note_off_c, 0, 59, 64
1, 7239, Note_on_c, 0, 69, 14
1, 7239, Note_on_c, 0, 85, 29
1, 7241, Note_off_c, 0, 56, 64
1, 7242, Note_off_c, 0, 58, 64
1, 7242, Note_off_c, 0, 69, 64
1, 7243, Note_off_c, 0, 85, 64
1, 7247, Note_on_c, 0, 63, 60
1, 7248, Note_on_c, 0, 62, 53
1, 7250, Note_off_c, 0, 62, 64
1, 7254, Note_off_c, 0, 63, 64
1, 7254, Note_on_c, 0, 71, 42
1, 7255, Note_on_c, 0, 59, 44
1, 7255, Note_on_c, 0, 78, 17
1, 7258, Note_off_c, 0, 78, 64
1, 7259, Note_off_c, 0, 59, 64
1, 7259, Note_off_c, 0, 71, 64
1, 7260, Note_on_c, 0, 81, 30
1, 7261, Note_on_c, 0, 83, 28
1, 7262, Note_on_c, 0, 59, 39
1, 7262, Note_on_c, 0, 71, 40
1, 7262, Note_on_c, 0, 78, 50
1, 7263, Note_off_c, 0, 81, 64
1, 7265, Note_off_c, 0, 83, 64
1, 7266, Note_off_c, 0, 71, 64
1, 7266, Note_off_c, 0, 78, 64
1, 7267, Note_on_c, 0, 57, 50
1, 7268, Note_off_c, 0, 59, 64
1, 7268, Note_on_c, 0, 70, 21
1, 7272, Note_off_c, 0, 57, 64
1, 7272, Note_off_c, 0, 70, 64
1, 7274, Note_on_c, 0, 58, 40
1, 7274, Note_on_c, 0, 70, 44
1, 7275, Note_on_c, 0, 81, 35
1, 7275, Note_on_c, 0, 85, 41
1, 7276, Note_on_c, 0, 57, 43
1, 7276, Note_off_c, 0, 58, 64
1, 7277, Note_off_c, 0, 70, 64
1, 7277, Note_on_c, 0, 77, 44
1, 7279, Note_off_c, 0, 57, 64
1, 7279, Note_on_c, 0, 58, 45
1, 7279, Note_off_c, 0, 77, 64
1, 7280, Note_off_c, 0, 81, 64
1, 7280, Note_off_c, 0, 85, 64
1, 7282, Note_on_c, 0, 59, 39
1, 7285, Note_off_c, 0, 58, 64
1, 7285, Note_on_c, 0, 60, 45
1, 7287, Note_off_c, 0, 59, 64
1, 7288, Note_on_c, 0, 59, 42
1, 7289, Note_off_c, 0, 60, 64
1, 7291, Note_off_c, 0, 59, 64
1, 7300, Note_on_c, 0, 61, 61
1, 7300, Note_on_c, 0, 62, 37
1, 7300, Note_on_c, 0, 63, 30
1, 7302, Note_off_c, 0, 62, 64
1, 7302, Note_off_c, 0, 63, 64
1, 7302, Note_on_c, 0, 72, 51
1, 7303, Note_off_c, 0, 61, 64
1, 7304, Note_on_c, 0, 59, 53
1, 7304, Note_on_c, 0, 78, 55
1, 7304, Note_on_c, 0, 83, 58
1, 7305, Note_off_c, 0, 72, 64
1, 7305, Note_on_c, 0, 87, 55
1, 7311, Note_off_c, 0, 59, 64
1, 7311, Note_off_c, 0, 78, 64
1, 7311, Note_off_c, 0, 83, 64
1, 7311, Note_off_c, 0, 87, 64
1, 7314, Note_on_c, 0, 69, 30
1, 7314, Note_on_c, 0, 70, 39
1, 7315, Note_on_c, 0, 68, 15
1, 7316, Note_on_c, 0, 58, 37
1, 7317, Note_on_c, 0, 56, 25
1, 7320, Note_off_c, 0, 56, 64
1, 7320, Note_off_c, 0, 68, 64
1, 7320, Note_on_c, 0, 76, 31
1, 7320, Note_on_c, 0, 77, 49
1, 7320, Note_on_c, 0, 85, 38
1, 7321, Note_on_c, 0, 57, 42
1, 7321, Note_on_c, 0, 81, 38
1, 7321, Note_on_c, 0, 86, 42
1, 7322, Note_off_c, 0, 58, 64
1, 7323, Note_off_c, 0, 57, 64
1, 7323, Note_off_c, 0, 69, 64
1, 7323, Note_off_c, 0, 76, 64
1, 7323, Note_on_c, 0, 88, 39
1, 7324, Note_on_c, 0, 57, 45
1, 7324, Note_off_c, 0, 70, 64
1, 7324, Note_on_c, 0, 76, 50
1, 7324, Note_off_c, 0, 77, 64
1, 7324, Note_off_c, 0, 86, 64
1, 7326, Note_off_c, 0, 57, 64
1, 7326, Note_on_c, 0, 58, 37
1, 7326, Note_on_c, 0, 60, 47
1, 7326, Note_off_c, 0, 76, 64
1, 7326, Note_off_c, 0, 81, 64
1, 7326, Note_off_c, 0, 85, 64
1, 7326, Note_off_c, 0, 88, 64
1, 7327, Note_on_c, 0, 59, 31
1, 7329, Note_on_c, 0, 57, 48
1, 7329, Note_off_c, 0, 59, 64
1, 7330, Note_off_c, 0, 58, 64
1, 7330, Note_off_c, 0, 60, 64
1, 7331, Note_off_c, 0, 57, 64
1, 7332, Note_on_c, 0, 52, 28
1, 7332, Note_on_c, 0, 54, 23
1, 7332, Note_on_c, 0, 57, 41
1, 7333, Note_on_c, 0, 56, 30
1, 7335, Note_off_c, 0, 52, 64
1, 7335, Note_off_c, 0, 54, 64
1, 7335, Note_on_c, 0, 67, 12
1, 7336, Note_on_c, 0, 55, 39
1, 7336, Note_off_c, 0, 57, 64
1, 7337, Note_off_c, 0, 56, 64
1, 7337, Note_on_c, 0, 68, 32
1, 7338, Note_off_c, 0, 55, 64
1, 7338, Note_on_c, 0, 56, 41
1, 7338, Note_off_c, 0, 67, 64
1, 7343, Note_off_c, 0, 56, 64
1, 7343, Note_off_c, 0, 68, 64
1, 7345, Note_on_c, 0, 52, 19
1, 7349, Note_off_c, 0, 52, 64
1, 7354, Note_on_c, 0, 58, 62
1, 7359, Note_on_c, 0, 63, 47
1, 7360, Note_off_c, 0, 58, 64
1, 7360, Note_on_c, 0, 60, 41
1, 7360, Note_on_c, 0, 62, 35
1, 7360, Note_on_c, 0, 64, 46
1, 7361, Note_on_c, 0, 71, 37
1, 7362, Note_on_c, 0, 59, 53
1, 7362, Note_off_c, 0, 62, 64
1, 7363, Note_off_c, 0, 60, 64
1, 7363, Note_off_c, 0, 63, 64
1, 7363, Note_off_c, 0, 64, 64
1, 7367, Note_on_c, 0, 58, 34
1, 7367, Note_off_c, 0, 59, 64
1, 7367, Note_off_c, 0, 71, 64
1, 7367, Note_on_c, 0, 77, 35
1, 7367, Note_on_c, 0, 82, 36
1, 7367, Note_on_c, 0, 86, 35
1, 7369, Note_on_c, 0, 57, 49
1, 7369, Note_off_c, 0, 58, 64
1, 7369, Note_on_c, 0, 76, 22
1, 7369, Note_on_c, 0, 81, 18
1, 7369, Note_on_c, 0, 85, 27
1, 7370, Note_off_c, 0, 86, 64
1, 7372, Note_off_c, 0, 82, 64
1, 7372, Note_off_c, 0, 85, 64
1, 7373, Note_off_c, 0, 76, 64
1, 7373, Note_off_c, 0, 77, 64
1, 7373, Note_off_c, 0, 81, 64
1, 7376, Note_off_c, 0, 57, 64
1, 7376, Note_on_c, 0, 58, 51
1, 7379, Note_off_c, 0, 58, 64
1, 7380, Note_on_c, 0, 60, 20
1, 7381, Note_on_c, 0, 61, 33
1, 7382, Note_on_c, 0, 58, 35
1, 7383, Note_off_c, 0, 61, 64
1, 7384, Note_off_c, 0, 60, 64
1, 7384, Note_on_c, 0, 69, 30
1, 7385, Note_on_c, 0, 57, 39
1, 7385, Note_off_c, 0, 58, 64
1, 7389, Note_off_c, 0, 57, 64
1, 7389, Note_off_c, 0, 69, 64
1, 7390, Note_on_c, 0, 64, 30
1, 7392, Note_off_c, 0, 64, 64
1, 7395, Note_on_c, 0, 52, 30
1, 7395, Note_on_c, 0, 85, 24
1, 7396, Note_on_c, 0, 83, 21
1, 7396, Note_on_c, 0, 86, 27
1, 7396, Note_on_c, 0, 88, 18
1, 7401, Note_off_c, 0, 83, 64
1, 7401, Note_off_c, 0, 86, 64
1, 7402, Note_off_c, 0, 85, 64
1, 7402, Note_off_c, 0, 88, 64
1, 7403, Note_off_c, 0, 52, 64
1, 7403, Note_on_c, 0, 53, 26
1, 7405, Note_on_c, 0, 56, 21
1, 7406, Note_off_c, 0, 53, 64
1, 7410, Note_off_c, 0, 56, 64
1, 7413, Note_on_c, 0, 55, 29
1, 7418, Note_off_c, 0, 55, 64
1, 7420, Note_on_c, 0, 55, 14
1, 7424, Note_off_c, 0, 55, 64
1, 7442, Note_on_c, 0, 53, 43
1, 7445, Note_on_c, 0, 52, 32
1, 7445, Note_off_c, 0, 53, 64
1, 7448, Note_off_c, 0, 52, 64
1, 7455, Note_on_c, 0, 64, 54
1, 7457, Note_on_c, 0, 63, 70
1, 7457, Note_off_c, 0, 64, 64
1, 7457, Note_on_c, 0, 101, 37
1, 7460, Note_on_c, 0, 103, 9
1, 7463, Note_on_c, 0, 60, 61
1, 7464, Note_off_c, 0, 63, 64
1, 7467, Note_on_c, 0, 61, 41
1, 7467, Note_off_c, 0, 103, 64
1, 7468, Note_on_c, 0, 63, 39
1, 7468, Note_off_c, 0, 101, 64
1, 7470, Note_off_c, 0, 60, 64
1, 7471, Note_on_c, 0, 60, 54
1, 7471, Note_off_c, 0, 63, 64
1, 7472, Note_off_c, 0, 61, 64
1, 7475, Note_on_c, 0, 62, 44
1, 7475, Note_on_c, 0, 63, 74
1, 7477, Note_off_c, 0, 60, 64
1, 7477, Note_off_c, 0, 62, 64
1, 7478, Note_on_c, 0, 82, 17
1, 7478, Note_on_c, 0, 87, 24
1, 7481, Note_off_c, 0, 82, 64
1, 7481, Note_off_c, 0, 87, 64
1, 7484, Note_on_c, 0, 74, 30
1, 7485, Note_on_c, 0, 62, 47
1, 7486, Note_off_c, 0, 63, 64
1, 7490, Note_on_c, 0, 72, 51
1, 7490, Note_off_c, 0, 74, 64
1, 7490, Note_on_c, 0, 79, 39
1, 7491, Note_on_c, 0, 60, 52
1, 7491, Note_off_c, 0, 62, 64
1, 7493, Note_on_c, 0, 71, 54
1, 7493, Note_off_c, 0, 72, 64
1, 7493, Note_on_c, 0, 78, 58
1, 7494, Note_on_c, 0, 59, 45
1, 7494, Note_off_c, 0, 60, 64
1, 7494, Note_off_c, 0, 79, 64
1, 7495, Note_on_c, 0, 57, 29
1, 7495, Note_on_c, 0, 83, 59
1, 7497, Note_off_c, 0, 57, 64
1, 7497, Note_on_c, 0, 87, 22
1, 7500, Note_off_c, 0, 87, 64
1, 7502, Note_on_c, 0, 53, 31
1, 7502, Note_on_c, 0, 57, 43
1, 7502, Note_on_c, 0, 58, 40
1, 7502, Note_off_c, 0, 59, 64
1, 7502, Note_off_c, 0, 78, 64
1, 7502, Note_off_c, 0, 83, 64
1, 7503, Note_off_c, 0, 71, 64
1, 7505, Note_off_c, 0, 53, 64
1, 7506, Note_off_c, 0, 58, 64
1, 7509, Note_off_c, 0, 57, 64
1, 7510, Note_on_c, 0, 63, 51
1, 7511, Note_on_c, 0, 64, 45
1, 7513, Note_off_c, 0, 64, 64
1, 7516, Note_on_c, 0, 81, 46
1, 7516, Note_on_c, 0, 86, 38
1, 7517, Note_on_c, 0, 62, 31
1, 7517, Note_on_c, 0, 74, 37
1, 7518, Note_on_c, 0, 60, 43
1, 7518, Note_off_c, 0, 63, 64
1, 7518, Note_on_c, 0, 79, 54
1, 7518, Note_on_c, 0, 84, 74
1, 7518, Note_on_c, 0, 85, 47
1, 7518, Note_off_c, 0, 86, 64
1, 7518, Note_on_c, 0, 87, 68
1, 7518, Note_on_c, 0, 88, 38
1, 7519, Note_off_c, 0, 62, 64
1, 7519, Note_off_c, 0, 74, 64
1, 7519, Note_off_c, 0, 81, 64
1, 7520, Note_on_c, 0, 78, 64
1, 7520, Note_off_c, 0, 79, 64
1, 7520, Note_off_c, 0, 85, 64
1, 7521, Note_on_c, 0, 59, 43
1, 7521, Note_off_c, 0, 60, 64
1, 7521, Note_on_c, 0, 71, 43
1, 7522, Note_off_c, 0, 84, 64
1, 7522, Note_off_c, 0, 88, 64
1, 7523, Note_off_c, 0, 59, 64
1, 7523, Note_on_c, 0, 60, 51
1, 7523, Note_off_c, 0, 87, 64
1, 7524, Note_off_c, 0, 71, 64
1, 7524, Note_off_c, 0, 78, 64
1, 7529, Note_on_c, 0, 56, 23
1, 7529, Note_on_c, 0, 57, 46
1, 7529, Note_off_c, 0, 60, 64
1, 7532, Note_off_c, 0, 56, 64
1, 7532, Note_on_c, 0, 70, 19
1, 7534, Note_off_c, 0, 57, 64
1, 7535, Note_off_c, 0, 70, 64
1, 7538, Note_on_c, 0, 59, 42
1, 7541, Note_on_c, 0, 72, 18
1, 7542, Note_off_c, 0, 59, 64
1, 7542, Note_on_c, 0, 60, 42
1, 7544, Note_off_c, 0, 72, 64
1, 7545, Note_on_c, 0, 59, 30
1, 7545, Note_off_c, 0, 60, 64
1, 7548, Note_on_c, 0, 58, 21
1, 7549, Note_off_c, 0, 59, 64
1, 7551, Note_off_c, 0, 58, 64
1, 7562, Note_on_c, 0, 52, 38
1, 7564, Note_on_c, 0, 70, 17
1, 7564, Note_on_c, 0, 71, 30
1, 7564, Note_on_c, 0, 79, 12
1, 7565, Note_on_c, 0, 63, 14
1, 7566, Note_off_c, 0, 71, 64
1, 7567, Note_off_c, 0, 52, 64
1, 7567, Note_on_c, 0, 53, 34
1, 7567, Note_on_c, 0, 65, 38
1, 7567, Note_off_c, 0, 70, 64
1, 7567, Note_off_c, 0, 79, 64
1, 7569, Note_off_c, 0, 65, 64
1, 7570, Note_on_c, 0, 52, 30
1, 7570, Note_off_c, 0, 53, 64
1, 7570, Note_off_c, 0, 63, 64
1, 7572, Note_on_c, 0, 63, 25
1, 7575, Note_off_c, 0, 52, 64
1, 7575, Note_off_c, 0, 63, 64
1, 7577, Note_on_c, 0, 70, 45
1, 7578, Note_on_c, 0, 59, 32
1, 7578, Note_on_c, 0, 60, 53
1, 7578, Note_on_c, 0, 71, 67
1, 7578, Note_on_c, 0, 72, 62
1, 7580, Note_on_c, 0, 98, 26
1, 7581, Note_off_c, 0, 59, 64
1, 7581, Note_off_c, 0, 70, 64
1, 7581, Note_off_c, 0, 72, 64
1, 7581, Note_on_c, 0, 79, 30
1, 7581, Note_on_c, 0, 97, 24
1, 7582, Note_off_c, 0, 71, 64
1, 7582, Note_on_c, 0, 72, 75
1, 7584, Note_off_c, 0, 60, 64
1, 7584, Note_on_c, 0, 71, 74
1, 7584, Note_on_c, 0, 78, 30
1, 7585, Note_on_c, 0, 60, 52
1, 7585, Note_off_c, 0, 71, 64
1, 7586, Note_off_c, 0, 78, 64
1, 7586, Note_off_c, 0, 97, 64
1, 7587, Note_off_c, 0, 98, 64
1, 7588, Note_on_c, 0, 62, 35
1, 7588, Note_on_c, 0, 63, 33
1, 7588, Note_off_c, 0, 72, 64
1, 7588, Note_on_c, 0, 74, 40
1, 7588, Note_on_c, 0, 75, 68
1, 7588, Note_on_c, 0, 76, 30
1, 7588, Note_off_c, 0, 79, 64
1, 7589, Note_off_c, 0, 60, 64
1, 7593, Note_off_c, 0, 76, 64
1, 7594, Note_off_c, 0, 74, 64
1, 7595, Note_off_c, 0, 63, 64
1, 7596, Note_on_c, 0, 63, 40
1, 7596, Note_on_c, 0, 82, 25
1, 7597, Note_off_c, 0, 62, 64
1, 7599, Note_on_c, 0, 81, 14
1, 7600, Note_off_c, 0, 63, 64
1, 7600, Note_off_c, 0, 75, 64
1, 7600, Note_off_c, 0, 82, 64
1, 7602, Note_on_c, 0, 60, 50
1, 7602, Note_on_c, 0, 72, 64
1, 7602, Note_off_c, 0, 81, 64
1, 7604, Note_off_c, 0, 72, 64
1, 7605, Note_off_c, 0, 60, 64
1, 7607, Note_on_c, 0, 58, 32
1, 7607, Note_on_c, 0, 70, 39
1, 7607, Note_on_c, 0, 71, 24
1, 7607, Note_on_c, 0, 72, 40
1, 7607, Note_on_c, 0, 77, 19
1, 7608, Note_on_c, 0, 60, 65
1, 7608, Note_on_c, 0, 78, 26
1, 7609, Note_on_c, 0, 59, 46
1, 7609, Note_on_c, 0, 79, 20
1, 7610, Note_off_c, 0, 58, 64
1, 7610, Note_off_c, 0, 70, 64
1, 7610, Note_off_c, 0, 77, 64
1, 7612, Note_off_c, 0, 71, 64
1, 7612, Note_off_c, 0, 78, 64
1, 7612, Note_off_c, 0, 79, 64
1, 7613, Note_off_c, 0, 59, 64
1, 7615, Note_on_c, 0, 71, 46
1, 7616, Note_on_c, 0, 59, 63
1, 7617, Note_off_c, 0, 60, 64
1, 7617, Note_off_c, 0, 72, 64
1, 7619, Note_on_c, 0, 58, 41
1, 7619, Note_on_c, 0, 70, 51
1, 7620, Note_off_c, 0, 71, 64
1, 7620, Note_on_c, 0, 72, 43
1, 7621, Note_off_c, 0, 59, 64
1, 7621, Note_on_c, 0, 60, 36
1, 7621, Note_on_c, 0, 71, 35
1, 7623, Note_off_c, 0, 60, 64
1, 7623, Note_off_c, 0, 71, 64
1, 7623, Note_off_c, 0, 72, 64
1, 7625, Note_on_c, 0, 55, 37
1, 7625, Note_off_c, 0, 58, 64
1, 7626, Note_off_c, 0, 70, 64
1, 7629, Note_on_c, 0, 68, 40
1, 7631, Note_off_c, 0, 55, 64
1, 7631, Note_off_c, 0, 68, 64
1, 7633, Note_on_c, 0, 75, 31
1, 7634, Note_on_c, 0, 56, 25
1, 7634, Note_on_c, 0, 68, 34
1, 7634, Note_on_c, 0, 74, 34
1, 7635, Note_on_c, 0, 67, 25
1, 7636, Note_on_c, 0, 55, 41
1, 7637, Note_off_c, 0, 56, 64
1, 7638, Note_off_c, 0, 75, 64
1, 7639, Note_off_c, 0, 55, 64
1, 7639, Note_on_c, 0, 56, 46
1, 7639, Note_off_c, 0, 67, 64
1, 7639, Note_off_c, 0, 74, 64
1, 7644, Note_on_c, 0, 57, 29
1, 7644, Note_on_c, 0, 58, 22
1, 7644, Note_off_c, 0, 68, 64
1, 7645, Note_on_c, 0, 59, 31
1, 7645, Note_on_c, 0, 60, 35
1, 7646, Note_off_c, 0, 56, 64
1, 7648, Note_off_c, 0, 58, 64
1, 7648, Note_off_c, 0, 60, 64
1, 7649, Note_off_c, 0, 57, 64
1, 7649, Note_on_c, 0, 58, 39
1, 7651, Note_off_c, 0, 59, 64
1, 7653, Note_on_c, 0, 57, 39
1, 7653, Note_off_c, 0, 58, 64
1, 7655, Note_off_c, 0, 57, 64
1, 7657, Note_on_c, 0, 53, 43
1, 7661, Note_on_c, 0, 52, 33
1, 7661, Note_off_c, 0, 53, 64
1, 7664, Note_on_c, 0, 63, 9
1, 7665, Note_on_c, 0, 64, 34
1, 7667, Note_off_c, 0, 52, 64
1, 7669, Note_on_c, 0, 52, 34
1, 7669, Note_off_c, 0, 63, 64
1, 7674, Note_off_c, 0, 52, 64
1, 7674, Note_off_c, 0, 64, 64
1, 7676, Note_on_c, 0, 55, 36
1, 7677, Note_on_c, 0, 79, 20
1, 7679, Note_on_c, 0, 74, 11
1, 7681, Note_off_c, 0, 79, 64
1, 7682, Note_off_c, 0, 74, 64
1, 7685, Note_off_c, 0, 55, 64
1, 7685, Note_on_c, 0, 56, 36
1, 7687, Note_off_c, 0, 56, 64
1, 7688, Note_on_c, 0, 56, 31
1, 7690, Note_off_c, 0, 56, 64
1, 7691, Note_on_c, 0, 56, 29
1, 7693, Note_off_c, 0, 56, 64
1, 7696, Note_on_c, 0, 55, 25
1, 7699, Note_off_c, 0, 55, 64
1, 7716, Note_on_c, 0, 66, 54
1, 7717, Note_on_c, 0, 79, 87
1, 7718, Note_on_c, 0, 67, 54
1, 7718, Note_on_c, 0, 86, 42
1, 7719, Note_off_c, 0, 66, 64
1, 7720, Note_on_c, 0, 68, 36
1, 7720, Note_on_c, 0, 80, 79
1, 7721, Note_off_c, 0, 67, 64
1, 7723, Note_on_c, 0, 67, 41
1, 7723, Note_off_c, 0, 68, 64
1, 7725, Note_off_c, 0, 80, 64
1, 7726, Note_on_c, 0, 66, 47
1, 7726, Note_off_c, 0, 67, 64
1, 7726, Note_on_c, 0, 78, 73
1, 7726, Note_on_c, 0, 85, 65
1, 7727, Note_off_c, 0, 79, 64
1, 7727, Note_off_c, 0, 86, 64
1, 7729, Note_on_c, 0, 64, 29
1, 7729, Note_on_c, 0, 65, 62
1, 7729, Note_off_c, 0, 78, 64
1, 7730, Note_off_c, 0, 66, 64
1, 7730, Note_on_c, 0, 78, 42
1, 7730, Note_off_c, 0, 85, 64
1, 7731, Note_on_c, 0, 63, 36
1, 7731, Note_on_c, 0, 66, 38
1, 7732, Note_on_c, 0, 62, 40
1, 7733, Note_off_c, 0, 64, 64
1, 7733, Note_off_c, 0, 66, 64
1, 7733, Note_off_c, 0, 78, 64
1, 7734, Note_off_c, 0, 62, 64
1, 7734, Note_on_c, 0, 64, 52
1, 7735, Note_off_c, 0, 63, 64
1, 7737, Note_off_c, 0, 64, 64
1, 7739, Note_on_c, 0, 84, 47
1, 7741, Note_on_c, 0, 66, 47
1, 7744, Note_off_c, 0, 66, 64
1, 7749, Note_on_c, 0, 61, 62
1, 7749, Note_on_c, 0, 75, 31
1, 7749, Note_on_c, 0, 76, 39
1, 7749, Note_off_c, 0, 84, 64
1, 7750, Note_on_c, 0, 63, 78
1, 7750, Note_off_c, 0, 65, 64
1, 7751, Note_off_c, 0, 75, 64
1, 7751, Note_off_c, 0, 76, 64
1, 7752, Note_off_c, 0, 61, 64
1, 7756, Note_on_c, 0, 69, 59
1, 7757, Note_off_c, 0, 63, 64
1, 7757, Note_on_c, 0, 67, 54
1, 7757, Note_on_c, 0, 68, 61
1, 7760, Note_off_c, 0, 69, 64
1, 7761, Note_off_c, 0, 67, 64
1, 7769, Note_on_c, 0, 79, 42
1, 7769, Note_on_c, 0, 86, 45
1, 7769, Note_on_c, 0, 91, 47
1, 7770, Note_off_c, 0, 68, 64
1, 7770, Note_on_c, 0, 77, 63
1, 7770, Note_on_c, 0, 84, 82
1, 7770, Note_on_c, 0, 85, 54
1, 7770, Note_on_c, 0, 90, 33
1, 7771, Note_on_c, 0, 65, 45
1, 7771, Note_off_c, 0, 86, 64
1, 7772, Note_off_c, 0, 79, 64
1, 7772, Note_off_c, 0, 91, 64
1, 7772, Note_on_c, 0, 93, 38
1, 7773, Note_off_c, 0, 85, 64
1, 7773, Note_off_c, 0, 90, 64
1, 7774, Note_on_c, 0, 92, 46
1, 7776, Note_on_c, 0, 88, 66
1, 7777, Note_off_c, 0, 93, 64
1, 7777, Note_on_c, 0, 103, 11
1, 7778, Note_on_c, 0, 89, 63
1, 7779, Note_off_c, 0, 88, 64
1, 7779, Note_on_c, 0, 93, 39
1, 7780, Note_off_c, 0, 92, 64
1, 7780, Note_off_c, 0, 103, 64
1, 7781, Note_on_c, 0, 85, 27
1, 7781, Note_on_c, 0, 86, 23
1, 7781, Note_off_c, 0, 93, 64
1, 7782, Note_on_c, 0, 79, 18
1, 7782, Note_off_c, 0, 89, 64
1, 7785, Note_off_c, 0, 79, 64
1, 7785, Note_off_c, 0, 85, 64
1, 7785, Note_off_c, 0, 86, 64
1, 7787, Note_on_c, 0, 83, 45
1, 7787, Note_on_c, 0, 88, 17
1, 7787, Note_on_c, 0, 92, 26
1, 7788, Note_on_c, 0, 82, 63
1, 7788, Note_on_c, 0, 85, 40
1, 7788, Note_on_c, 0, 86, 50
1, 7788, Note_on_c, 0, 87, 69
1, 7789, Note_on_c, 0, 59, 38
1, 7789, Note_on_c, 0, 60, 27
1, 7789, Note_on_c, 0, 61, 20
1, 7789, Note_on_c, 0, 62, 40
1, 7789, Note_off_c, 0, 65, 64
1, 7789, Note_on_c, 0, 75, 49
1, 7789, Note_on_c, 0, 78, 37
1, 7789, Note_on_c, 0, 79, 28
1, 7789, Note_on_c, 0, 80, 27
1, 7789, Note_on_c, 0, 81, 38
1, 7789, Note_on_c, 0, 90, 55
1, 7789, Note_on_c, 0, 91, 46
1, 7790, Note_off_c, 0, 77, 64
1, 7792, Note_off_c, 0, 59, 64
1, 7792, Note_off_c, 0, 60, 64
1, 7792, Note_off_c, 0, 61, 64
1, 7792, Note_off_c, 0, 78, 64
1, 7792, Note_off_c, 0, 79, 64
1, 7792, Note_off_c, 0, 80, 64
1, 7792, Note_off_c, 0, 83, 64
1, 7792, Note_off_c, 0, 84, 64
1, 7792, Note_off_c, 0, 88, 64
1, 7792, Note_off_c, 0, 92, 64
1, 7793, Note_off_c, 0, 62, 64
1, 7793, Note_on_c, 0, 63, 37
1, 7793, Note_off_c, 0, 81, 64
1, 7793, Note_off_c, 0, 85, 64
1, 7793, Note_off_c, 0, 86, 64
1, 7794, Note_off_c, 0, 90, 64
1, 7796, Note_off_c, 0, 63, 64
1, 7796, Note_on_c, 0, 66, 65
1, 7796, Note_off_c, 0, 82, 64
1, 7796, Note_off_c, 0, 87, 64
1, 7796, Note_off_c, 0, 91, 64
1, 7797, Note_off_c, 0, 75, 64
1, 7797, Note_on_c, 0, 102, 27
1, 7799, Note_on_c, 0, 65, 62
1, 7799, Note_off_c, 0, 66, 64
1, 7800, Note_off_c, 0, 102, 64
1, 7802, Note_on_c, 0, 66, 29
1, 7802, Note_on_c, 0, 67, 44
1, 7802, Note_on_c, 0, 68, 60
1, 7803, Note_off_c, 0, 65, 64
1, 7804, Note_off_c, 0, 66, 64
1, 7804, Note_off_c, 0, 67, 64
1, 7809, Note_on_c, 0, 79, 28
1, 7809, Note_on_c, 0, 85, 46
1, 7809, Note_on_c, 0, 86, 50
1, 7809, Note_on_c, 0, 87, 75
1, 7809, Note_on_c, 0, 91, 41
1, 7809, Note_on_c, 0, 92, 49
1, 7812, Note_off_c, 0, 79, 64
1, 7812, Note_off_c, 0, 85, 64
1, 7812, Note_off_c, 0, 86, 64
1, 7812, Note_off_c, 0, 91, 64
1, 7815, Note_off_c, 0, 92, 64
1, 7816, Note_off_c, 0, 87, 64
1, 7818, Note_on_c, 0, 67, 36
1, 7820, Note_off_c, 0, 67, 64
1, 7821, Note_on_c, 0, 65, 54
1, 7821, Note_off_c, 0, 68, 64
1, 7822, Note_on_c, 0, 67, 53
1, 7823, Note_on_c, 0, 66, 42
1, 7825, Note_off_c, 0, 66, 64
1, 7826, Note_off_c, 0, 67, 64
1, 7829, Note_on_c, 0, 62, 30
1, 7829, Note_on_c, 0, 74, 35
1, 7830, Note_on_c, 0, 63, 30
1, 7830, Note_off_c, 0, 65, 64
1, 7830, Note_on_c, 0, 75, 33
1, 7833, Note_off_c, 0, 62, 64
1, 7836, Note_off_c, 0, 63, 64
1, 7836, Note_off_c, 0, 75, 64
1, 7837, Note_off_c, 0, 74, 64
1, 7848, Note_on_c, 0, 60, 58
1, 7849, Note_on_c, 0, 71, 14
1, 7853, Note_on_c, 0, 59, 32
1, 7854, Note_on_c, 0, 61, 32
1, 7856, Note_off_c, 0, 61, 64
1, 7856, Note_off_c, 0, 71, 64
1, 7859, Note_off_c, 0, 60, 64
1, 7860, Note_off_c, 0, 59, 64
1, 7860, Note_on_c, 0, 65, 66
1, 7862, Note_on_c, 0, 84, 17
1, 7867, Note_on_c, 0, 67, 62
1, 7867, Note_on_c, 0, 68, 64
1, 7867, Note_off_c, 0, 84, 64
1, 7869, Note_off_c, 0, 65, 64
1, 7871, Note_off_c, 0, 68, 64
1, 7874, Note_off_c, 0, 67, 64
1, 7874, Note_on_c, 0, 69, 65
1, 7875, Note_on_c, 0, 68, 68
1, 7876, Note_on_c, 0, 87, 67
1, 7878, Note_off_c, 0, 69, 64
1, 7878, Note_on_c, 0, 79, 40
1, 7879, Note_on_c, 0, 86, 19
1, 7880, Note_off_c, 0, 79, 64
1, 7882, Note_off_c, 0, 86, 64
1, 7886, Note_on_c, 0, 66, 52
1, 7886, Note_on_c, 0, 85, 29
1, 7886, Note_on_c, 0, 86, 31
1, 7887, Note_on_c, 0, 67, 51
1, 7890, Note_on_c, 0, 77, 43
1, 7890, Note_on_c, 0, 84, 58
1, 7890, Note_off_c, 0, 85, 64
1, 7890, Note_off_c, 0, 86, 64
1, 7890, Note_off_c, 0, 87, 64
1, 7891, Note_on_c, 0, 65, 59
1, 7891, Note_off_c, 0, 66, 64
1, 7891, Note_off_c, 0, 67, 64
1, 7891, Note_off_c, 0, 68, 64
1, 7893, Note_on_c, 0, 58, 46
1, 7893, Note_on_c, 0, 60, 40
1, 7893, Note_on_c, 0, 61, 32
1, 7893, Note_on_c, 0, 71, 29
1, 7894, Note_on_c, 0, 62, 32
1, 7894, Note_on_c, 0, 63, 55
1, 7894, Note_off_c, 0, 65, 64
1, 7894, Note_off_c, 0, 77, 64
1, 7896, Note_off_c, 0, 58, 64
1, 7896, Note_off_c, 0, 61, 64
1, 7896, Note_off_c, 0, 62, 64
1, 7896, Note_off_c, 0, 71, 64
1, 7896, Note_off_c, 0, 84, 64
1, 7897, Note_off_c, 0, 60, 64
1, 7901, Note_on_c, 0, 75, 79
1, 7902, Note_on_c, 0, 82, 55
1, 7902, Note_on_c, 0, 90, 29
1, 7903, Note_on_c, 0, 81, 29
1, 7904, Note_off_c, 0, 90, 64
1, 7905, Note_off_c, 0, 81, 64
1, 7906, Note_on_c, 0, 65, 76
1, 7907, Note_on_c, 0, 66, 42
1, 7907, Note_off_c, 0, 82, 64
1, 7908, Note_off_c, 0, 63, 64
1, 7908, Note_off_c, 0, 75, 64
1, 7910, Note_off_c, 0, 66, 64
1, 7914, Note_on_c, 0, 66, 45
1, 7919, Note_off_c, 0, 66, 64
1, 7921, Note_on_c, 0, 60, 45
1, 7921, Note_on_c, 0, 72, 48
1, 7921, Note_on_c, 0, 73, 35
1, 7921, Note_on_c, 0, 79, 29
1, 7921, Note_on_c, 0, 93, 23
1, 7922, Note_off_c, 0, 65, 64
1, 7923, Note_off_c, 0, 73, 64
1, 7924, Note_off_c, 0, 93, 64
1, 7925, Note_off_c, 0, 72, 64
1, 7925, Note_off_c, 0, 79, 64
1, 7926, Note_off_c, 0, 60, 64
1, 7927, Note_on_c, 0, 66, 41
1, 7928, Note_on_c, 0, 64, 52
1, 7929, Note_on_c, 0, 65, 52
1, 7929, Note_off_c, 0, 66, 64
1, 7932, Note_off_c, 0, 64, 64
1, 7935, Note_on_c, 0, 64, 22
1, 7936, Note_on_c, 0, 74, 47
1, 7937, Note_on_c, 0, 62, 32
1, 7937, Note_on_c, 0, 63, 36
1, 7937, Note_on_c, 0, 75, 50
1, 7937, Note_on_c, 0, 81, 18
1, 7938, Note_off_c, 0, 64, 64
1, 7938, Note_off_c, 0, 65, 64
1, 7941, Note_on_c, 0, 82, 12
1, 7944, Note_off_c, 0, 81, 64
1, 7945, Note_off_c, 0, 74, 64
1, 7946, Note_off_c, 0, 62, 64
1, 7946, Note_on_c, 0, 74, 41
1, 7948, Note_off_c, 0, 82, 64
1, 7950, Note_off_c, 0, 74, 64
1, 7957, Note_on_c, 0, 62, 27
1, 7957, Note_off_c, 0, 63, 64
1, 7957, Note_off_c, 0, 75, 64
1, 7961, Note_off_c, 0, 62, 64
1, 7971, Note_on_c, 0, 73, 34
1, 7971, Note_on_c, 0, 84, 51
1, 7972, Note_on_c, 0, 60, 41
1, 7972, Note_on_c, 0, 79, 44
1, 7973, Note_on_c, 0, 71, 61
1, 7973, Note_on_c, 0, 78, 55
1, 7973, Note_on_c, 0, 83, 70
1, 7974, Note_off_c, 0, 60, 64
1, 7974, Note_off_c, 0, 73, 64
1, 7975, Note_on_c, 0, 60, 55
1, 7975, Note_off_c, 0, 84, 64
1, 7977, Note_on_c, 0, 61, 30
1, 7977, Note_on_c, 0, 63, 69
1, 7977, Note_off_c, 0, 71, 64
1, 7977, Note_off_c, 0, 78, 64
1, 7977, Note_off_c, 0, 83, 64
1, 7978, Note_on_c, 0, 64, 57
1, 7978, Note_off_c, 0, 79, 64
1, 7979, Note_off_c, 0, 60, 64
1, 7979, Note_off_c, 0, 61, 64
1, 7981, Note_off_c, 0, 64, 64
1, 7984, Note_on_c, 0, 57, 47
1, 7984, Note_off_c, 0, 63, 64
1, 7987, Note_off_c, 0, 57, 64
1, 7987, Note_on_c, 0, 58, 47
1, 7990, Note_off_c, 0, 58, 64
1, 7992, Note_on_c, 0, 59, 37
1, 7992, Note_on_c, 0, 61, 30
1, 7993, Note_on_c, 0, 60, 56
1, 7994, Note_off_c, 0, 61, 64
1, 7997, Note_on_c, 0, 71, 42
1, 8000, Note_off_c, 0, 59, 64
1, 8002, Note_on_c, 0, 59, 60
1, 8002, Note_off_c, 0, 60, 64
1, 8004, Note_on_c, 0, 60, 37
1, 8004, Note_on_c, 0, 79, 43
1, 8005, Note_on_c, 0, 58, 19
1, 8005, Note_off_c, 0, 59, 64
1, 8005, Note_on_c, 0, 78, 21
1, 8005, Note_on_c, 0, 84, 35
1, 8007, Note_off_c, 0, 60, 64
1, 8007, Note_off_c, 0, 71, 64
1, 8007, Note_off_c, 0, 79, 64
1, 8008, Note_off_c, 0, 78, 64
1, 8009, Note_on_c, 0, 59, 35
1, 8009, Note_on_c, 0, 83, 53
1, 8010, Note_off_c, 0, 58, 64
1, 8010, Note_on_c, 0, 78, 48
1, 8011, Note_off_c, 0, 84, 64
1, 8011, Note_on_c, 0, 87, 38
1, 8016, Note_on_c, 0, 84, 15
1, 8017, Note_off_c, 0, 59, 64
1, 8017, Note_off_c, 0, 78, 64
1, 8017, Note_off_c, 0, 87, 64
1, 8018, Note_on_c, 0, 78, 31
1, 8019, Note_on_c, 0, 59, 34
1, 8019, Note_on_c, 0, 79, 25
1, 8022, Note_off_c, 0, 79, 64
1, 8022, Note_off_c, 0, 84, 64
1, 8023, Note_on_c, 0, 57, 22
1, 8023, Note_off_c, 0, 83, 64
1, 8024, Note_off_c, 0, 78, 64
1, 8025, Note_on_c, 0, 61, 35
1, 8026, Note_off_c, 0, 57, 64
1, 8026, Note_on_c, 0, 58, 42
1, 8027, Note_off_c, 0, 61, 64
1, 8028, Note_on_c, 0, 57, 36
1, 8028, Note_off_c, 0, 59, 64
1, 8029, Note_off_c, 0, 58, 64
1, 8031, Note_on_c, 0, 55, 30
1, 8031, Note_off_c, 0, 57, 64
1, 8031, Note_on_c, 0, 66, 25
1, 8034, Note_on_c, 0, 52, 23
1, 8034, Note_on_c, 0, 53, 36
1, 8034, Note_off_c, 0, 55, 64
1, 8034, Note_on_c, 0, 63, 19
1, 8034, Note_off_c, 0, 66, 64
1, 8036, Note_on_c, 0, 56, 50
1, 8037, Note_off_c, 0, 63, 64
1, 8038, Note_off_c, 0, 52, 64
1, 8038, Note_on_c, 0, 67, 24
1, 8040, Note_off_c, 0, 53, 64
1, 8043, Note_off_c, 0, 67, 64
1, 8044, Note_on_c, 0, 69, 47
1, 8044, Note_on_c, 0, 70, 29
1, 8044, Note_on_c, 0, 76, 35
1, 8044, Note_on_c, 0, 77, 24
1, 8044, Note_on_c, 0, 85, 37
1, 8045, Note_off_c, 0, 56, 64
1, 8045, Note_on_c, 0, 57, 40
1, 8047, Note_off_c, 0, 70, 64
1, 8047, Note_off_c, 0, 77, 64
1, 8050, Note_off_c, 0, 57, 64
1, 8050, Note_on_c, 0, 58, 49
1, 8050, Note_off_c, 0, 76, 64
1, 8050, Note_off_c, 0, 85, 64
1, 8051, Note_off_c, 0, 69, 64
1, 8054, Note_on_c, 0, 57, 47
1, 8054, Note_off_c, 0, 58, 64
1, 8057, Note_off_c, 0, 57, 64
1, 8057, Note_on_c, 0, 58, 39
1, 8059, Note_on_c, 0, 60, 45
1, 8060, Note_off_c, 0, 58, 64
1, 8060, Note_on_c, 0, 59, 37
1, 8062, Note_off_c, 0, 59, 64
1, 8064, Note_on_c, 0, 59, 39
1, 8064, Note_off_c, 0, 60, 64
1, 8068, Note_off_c, 0, 59, 64
1, 8077, Note_on_c, 0, 60, 39
1, 8078, Note_on_c, 0, 59, 60
1, 8079, Note_off_c, 0, 60, 64
1, 8079, Note_on_c, 0, 71, 61
1, 8081, Note_on_c, 0, 78, 62
1, 8081, Note_on_c, 0, 83, 61
1, 8081, Note_on_c, 0, 87, 35
1, 8086, Note_off_c, 0, 83, 64
1, 8086, Note_off_c, 0, 87, 64
1, 8087, Note_off_c, 0, 59, 64
1, 8087, Note_on_c, 0, 60, 47
1, 8087, Note_off_c, 0, 78, 64
1, 8088, Note_off_c, 0, 71, 64
1, 8089, Note_on_c, 0, 57, 21
1, 8089, Note_off_c, 0, 60, 64
1, 8090, Note_on_c, 0, 75, 21
1, 8090, Note_on_c, 0, 76, 36
1, 8091, Note_on_c, 0, 79, 14
1, 8092, Note_off_c, 0, 57, 64
1, 8093, Note_off_c, 0, 75, 64
1, 8093, Note_off_c, 0, 76, 64
1, 8094, Note_on_c, 0, 57, 45
1, 8094, Note_off_c, 0, 79, 64
1, 8096, Note_on_c, 0, 70, 30
1, 8097, Note_on_c, 0, 58, 52
1, 8097, Note_on_c, 0, 77, 18
1, 8098, Note_off_c, 0, 57, 64
1, 8101, Note_on_c, 0, 60, 30
1, 8101, Note_off_c, 0, 77, 64
1, 8102, Note_on_c, 0, 62, 35
1, 8102, Note_off_c, 0, 70, 64
1, 8105, Note_off_c, 0, 60, 64
1, 8105, Note_off_c, 0, 62, 64
1, 8108, Note_on_c, 0, 55, 36
1, 8109, Note_off_c, 0, 58, 64
1, 8110, Note_on_c, 0, 68, 20
1, 8112, Note_off_c, 0, 55, 64
1, 8112, Note_on_c, 0, 56, 36
1, 8114, Note_off_c, 0, 56, 64
1, 8114, Note_off_c, 0, 68, 64
1, 8116, Note_on_c, 0, 64, 12
1, 8116, Note_on_c, 0, 65, 26
1, 8116, Note_on_c, 0, 71, 17
1, 8116, Note_on_c, 0, 72, 30
1, 8117, Note_on_c, 0, 53, 30
1, 8117, Note_on_c, 0, 70, 15
1, 8118, Note_on_c, 0, 51, 14
1, 8119, Note_off_c, 0, 53, 64
1, 8119, Note_off_c, 0, 64, 64
1, 8119, Note_off_c, 0, 71, 64
1, 8119, Note_off_c, 0, 72, 64
1, 8120, Note_off_c, 0, 65, 64
1, 8120, Note_off_c, 0, 70, 64
1, 8122, Note_off_c, 0, 51, 64
1, 8122, Note_on_c, 0, 52, 18
1, 8126, Note_off_c, 0, 52, 64
1, 8127, Note_on_c, 0, 60, 45
1, 8128, Note_on_c, 0, 59, 51
1, 8130, Note_off_c, 0, 60, 64
1, 8133, Note_off_c, 0, 59, 64
1, 8137, Note_on_c, 0, 59, 41
1, 8138, Note_on_c, 0, 58, 49
1, 8140, Note_off_c, 0, 59, 64
1, 8142, Note_on_c, 0, 60, 55
1, 8144, Note_off_c, 0, 58, 64
1, 8147, Note_off_c, 0, 60, 64
1, 8148, Note_on_c, 0, 60, 40
1, 8149, Note_on_c, 0, 58, 41
1, 8151, Note_off_c, 0, 60, 64
1, 8153, Note_off_c, 0, 58, 64
1, 8153, Note_on_c, 0, 69, 32
1, 8155, Note_on_c, 0, 63, 17
1, 8155, Note_on_c, 0, 64, 33
1, 8155, Note_off_c, 0, 69, 64
1, 8157, Note_on_c, 0, 52, 31
1, 8158, Note_off_c, 0, 63, 64
1, 8159, Note_off_c, 0, 52, 64
1, 8159, Note_off_c, 0, 64, 64
1, 8163, Note_on_c, 0, 59, 28
1, 8164, Note_on_c, 0, 57, 29
1, 8166, Note_off_c, 0, 57, 64
1, 8166, Note_on_c, 0, 58, 33
1, 8166, Note_off_c, 0, 59, 64
1, 8170, Note_on_c, 0, 55, 18
1, 8170, Note_off_c, 0, 58, 64
1, 8171, Note_on_c, 0, 56, 26
1, 8173, Note_off_c, 0, 55, 64
1, 8173, Note_on_c, 0, 67, 14
1, 8176, Note_off_c, 0, 56, 64
1, 8178, Note_off_c, 0, 67, 64
1, 8181, Note_on_c, 0, 56, 19
1, 8185, Note_off_c, 0, 56, 64
1, 8214, Note_on_c, 0, 68, 31
1, 8214, Note_on_c, 0, 80, 62
1, 8214, Note_on_c, 0, 87, 28
1, 8215, Note_on_c, 0, 67, 45
1, 8216, Note_on_c, 0, 79, 90
1, 8216, Note_on_c, 0, 86, 51
1, 8217, Note_off_c, 0, 68, 64
1, 8217, Note_off_c, 0, 80, 64
1, 8217, Note_off_c, 0, 87, 64
1, 8221, Note_on_c, 0, 66, 45
1, 8221, Note_off_c, 0, 67, 64
1, 8221, Note_on_c, 0, 78, 69
1, 8221, Note_on_c, 0, 85, 75
1, 8221, Note_off_c, 0, 86, 64
1, 8223, Note_on_c, 0, 77, 71
1, 8223, Note_off_c, 0, 79, 64
1, 8224, Note_on_c, 0, 65, 51
1, 8224, Note_off_c, 0, 66, 64
1, 8224, Note_on_c, 0, 84, 54
1, 8225, Note_off_c, 0, 78, 64
1, 8225, Note_off_c, 0, 85, 64
1, 8226, Note_off_c, 0, 84, 64
1, 8227, Note_off_c, 0, 65, 64
1, 8227, Note_on_c, 0, 66, 46
1, 8227, Note_off_c, 0, 77, 64
1, 8228, Note_on_c, 0, 64, 44
1, 8229, Note_on_c, 0, 65, 58
1, 8229, Note_on_c, 0, 100, 10
1, 8230, Note_on_c, 0, 63, 41
1, 8232, Note_off_c, 0, 63, 64
1, 8232, Note_off_c, 0, 64, 64
1, 8232, Note_on_c, 0, 99, 30
1, 8233, Note_off_c, 0, 66, 64
1, 8233, Note_off_c, 0, 100, 64
1, 8234, Note_on_c, 0, 64, 55
1, 8234, Note_on_c, 0, 76, 84
1, 8234, Note_on_c, 0, 98, 25
1, 8235, Note_off_c, 0, 65, 64
1, 8235, Note_on_c, 0, 83, 66
1, 8235, Note_on_c, 0, 92, 35
1, 8235, Note_off_c, 0, 99, 64
1, 8235, Note_on_c, 0, 102, 13
1, 8237, Note_off_c, 0, 98, 64
1, 8238, Note_off_c, 0, 92, 64
1, 8240, Note_on_c, 0, 77, 76
1, 8240, Note_on_c, 0, 79, 56
1, 8240, Note_on_c, 0, 84, 71
1, 8240, Note_on_c, 0, 85, 42
1, 8240, Note_on_c, 0, 86, 48
1, 8240, Note_off_c, 0, 102, 64
1, 8241, Note_off_c, 0, 64, 64
1, 8241, Note_on_c, 0, 65, 46
1, 8241, Note_on_c, 0, 66, 22
1, 8241, Note_on_c, 0, 67, 29
1, 8241, Note_on_c, 0, 78, 49
1, 8242, Note_off_c, 0, 76, 64
1, 8242, Note_off_c, 0, 83, 64
1, 8243, Note_off_c, 0, 67, 64
1, 8244, Note_off_c, 0, 66, 64
1, 8244, Note_off_c, 0, 78, 64
1, 8244, Note_off_c, 0, 79, 64
1, 8244, Note_off_c, 0, 85, 64
1, 8244, Note_off_c, 0, 86, 64
1, 8245, Note_on_c, 0, 87, 33
1, 8246, Note_on_c, 0, 64, 56
1, 8246, Note_off_c, 0, 65, 64
1, 8246, Note_on_c, 0, 76, 60
1, 8246, Note_off_c, 0, 77, 64
1, 8246, Note_on_c, 0, 83, 53
1, 8246, Note_off_c, 0, 84, 64
1, 8246, Note_on_c, 0, 86, 15
1, 8247, Note_on_c, 0, 60, 42
1, 8247, Note_on_c, 0, 61, 36
1, 8247, Note_on_c, 0, 62, 47
1, 8247, Note_on_c, 0, 82, 19
1, 8248, Note_off_c, 0, 76, 64
1, 8249, Note_on_c, 0, 63, 72
1, 8249, Note_off_c, 0, 64, 64
1, 8249, Note_off_c, 0, 83, 64
1, 8249, Note_off_c, 0, 86, 64
1, 8250, Note_off_c, 0, 60, 64
1, 8250, Note_off_c, 0, 61, 64
1, 8250, Note_off_c, 0, 62, 64
1, 8250, Note_off_c, 0, 87, 64
1, 8252, Note_off_c, 0, 82, 64
1, 8255, Note_off_c, 0, 63, 64
1, 8255, Note_on_c, 0, 68, 69
1, 8255, Note_on_c, 0, 69, 61
1, 8257, Note_on_c, 0, 87, 22
1, 8258, Note_off_c, 0, 69, 64
1, 8261, Note_on_c, 0, 79, 31
1, 8261, Note_on_c, 0, 86, 15
1, 8261, Note_off_c, 0, 87, 64
1, 8262, Note_on_c, 0, 67, 54
1, 8262, Note_off_c, 0, 68, 64
1, 8264, Note_on_c, 0, 66, 38
1, 8264, Note_off_c, 0, 67, 64
1, 8265, Note_on_c, 0, 77, 24
1, 8265, Note_off_c, 0, 79, 64
1, 8265, Note_off_c, 0, 86, 64
1, 8266, Note_off_c, 0, 66, 64
1, 8268, Note_on_c, 0, 63, 45
1, 8268, Note_on_c, 0, 65, 45
1, 8269, Note_on_c, 0, 62, 29
1, 8269, Note_on_c, 0, 64, 56
1, 8270, Note_on_c, 0, 60, 42
1, 8270, Note_off_c, 0, 65, 64
1, 8270, Note_off_c, 0, 77, 64
1, 8273, Note_off_c, 0, 60, 64
1, 8273, Note_off_c, 0, 62, 64
1, 8273, Note_off_c, 0, 63, 64
1, 8273, Note_on_c, 0, 65, 46
1, 8274, Note_on_c, 0, 77, 87
1, 8275, Note_on_c, 0, 98, 35
1, 8276, Note_off_c, 0, 65, 64
1, 8276, Note_on_c, 0, 84, 44
1, 8277, Note_off_c, 0, 64, 64
1, 8277, Note_on_c, 0, 65, 49
1, 8280, Note_on_c, 0, 79, 63
1, 8281, Note_on_c, 0, 66, 24
1, 8281, Note_on_c, 0, 67, 34
1, 8281, Note_on_c, 0, 78, 52
1, 8281, Note_on_c, 0, 80, 67
1, 8281, Note_on_c, 0, 85, 16
1, 8281, Note_on_c, 0, 99, 9
1, 8283, Note_on_c, 0, 76, 61
1, 8284, Note_off_c, 0, 66, 64
1, 8284, Note_off_c, 0, 67, 64
1, 8284, Note_off_c, 0, 78, 64
1, 8284, Note_off_c, 0, 80, 64
1, 8284, Note_off_c, 0, 85, 64
1, 8285, Note_on_c, 0, 64, 21
1, 8285, Note_off_c, 0, 79, 64
1, 8285, Note_off_c, 0, 98, 64
1, 8286, Note_on_c, 0, 62, 50
1, 8286, Note_off_c, 0, 65, 64
1, 8286, Note_on_c, 0, 74, 50
1, 8286, Note_on_c, 0, 75, 45
1, 8286, Note_off_c, 0, 99, 64
1, 8287, Note_off_c, 0, 84, 64
1, 8288, Note_off_c, 0, 62, 64
1, 8288, Note_on_c, 0, 63, 74
1, 8288, Note_off_c, 0, 64, 64
1, 8288, Note_off_c, 0, 76, 64
1, 8288, Note_off_c, 0, 77, 64
1, 8289, Note_off_c, 0, 74, 64
1, 8291, Note_off_c, 0, 75, 64
1, 8294, Note_on_c, 0, 60, 39
1, 8294, Note_off_c, 0, 63, 64
1, 8295, Note_on_c, 0, 58, 33
1, 8300, Note_off_c, 0, 58, 64
1, 8300, Note_on_c, 0, 59, 33
1, 8302, Note_off_c, 0, 60, 64
1, 8305, Note_off_c, 0, 59, 64
1, 8307, Note_on_c, 0, 77, 74
1, 8308, Note_on_c, 0, 64, 44
1, 8308, Note_on_c, 0, 76, 75
1, 8308, Note_on_c, 0, 83, 29
1, 8308, Note_on_c, 0, 84, 29
1, 8308, Note_on_c, 0, 98, 18
1, 8311, Note_off_c, 0, 77, 64
1, 8312, Note_on_c, 0, 56, 31
1, 8312, Note_on_c, 0, 58, 29
1, 8312, Note_on_c, 0, 59, 41
1, 8312, Note_on_c, 0, 60, 42
1, 8312, Note_off_c, 0, 64, 64
1, 8312, Note_on_c, 0, 74, 29
1, 8312, Note_on_c, 0, 75, 40
1, 8312, Note_off_c, 0, 84, 64
1, 8312, Note_off_c, 0, 98, 64
1, 8313, Note_on_c, 0, 71, 50
1, 8313, Note_on_c, 0, 72, 42
1, 8313, Note_off_c, 0, 76, 64
1, 8313, Note_off_c, 0, 83, 64
1, 8314, Note_off_c, 0, 56, 64
1, 8314, Note_off_c, 0, 58, 64
1, 8314, Note_off_c, 0, 74, 64
1, 8314, Note_off_c, 0, 75, 64
1, 8315, Note_off_c, 0, 60, 64
1, 8317, Note_off_c, 0, 72, 64
1, 8319, Note_off_c, 0, 59, 64
1, 8319, Note_off_c, 0, 71, 64
1, 8320, Note_on_c, 0, 64, 39
1, 8321, Note_on_c, 0, 62, 39
1, 8322, Note_on_c, 0, 63, 59
1, 8323, Note_off_c, 0, 64, 64
1, 8327, Note_off_c, 0, 62, 64
1, 8328, Note_on_c, 0, 82, 21
1, 8335, Note_off_c, 0, 82, 64
1, 8336, Note_on_c, 0, 62, 32
1, 8336, Note_off_c, 0, 63, 64
1, 8338, Note_off_c, 0, 62, 64
1, 8349, Note_on_c, 0, 57, 48
1, 8353, Note_on_c, 0, 58, 21
1, 8353, Note_on_c, 0, 70, 26
1, 8353, Note_on_c, 0, 71, 26
1, 8354, Note_on_c, 0, 68, 21
1, 8356, Note_off_c, 0, 58, 64
1, 8356, Note_off_c, 0, 71, 64
1, 8357, Note_off_c, 0, 68, 64
1, 8358, Note_off_c, 0, 70, 64
1, 8359, Note_off_c, 0, 57, 64
1, 8360, Note_on_c, 0, 65, 40
1, 8361, Note_on_c, 0, 62, 56
1, 8361, Note_on_c, 0, 64, 37
1, 8361, Note_on_c, 0, 81, 39
1, 8362, Note_off_c, 0, 65, 64
1, 8362, Note_on_c, 0, 75, 32
1, 8362, Note_on_c, 0, 82, 36
1, 8363, Note_off_c, 0, 64, 64
1, 8364, Note_off_c, 0, 81, 64
1, 8365, Note_off_c, 0, 75, 64
1, 8365, Note_off_c, 0, 82, 64
1, 8367, Note_on_c, 0, 55, 36
1, 8367, Note_on_c, 0, 79, 33
1, 8368, Note_off_c, 0, 62, 64
1, 8370, Note_on_c, 0, 53, 13
1, 8370, Note_off_c, 0, 55, 64
1, 8370, Note_off_c, 0, 79, 64
1, 8373, Note_off_c, 0, 53, 64
1, 8373, Note_on_c, 0, 55, 38
1, 8373, Note_on_c, 0, 74, 29
1, 8377, Note_off_c, 0, 74, 64
1, 8378, Note_off_c, 0, 55, 64
1, 8380, Note_on_c, 0, 57, 50
1, 8380, Note_on_c, 0, 58, 40
1, 8384, Note_off_c, 0, 58, 64
1, 8386, Note_on_c, 0, 70, 28
1, 8388, Note_off_c, 0, 57, 64
1, 8388, Note_on_c, 0, 58, 55
1, 8390, Note_off_c, 0, 58, 64
1, 8390, Note_off_c, 0, 70, 64
1, 8392, Note_on_c, 0, 59, 52
1, 8394, Note_on_c, 0, 60, 55
1, 8395, Note_on_c, 0, 58, 42
1, 8396, Note_on_c, 0, 69, 12
1, 8397, Note_on_c, 0, 57, 51
1, 8397, Note_off_c, 0, 58, 64
1, 8397, Note_off_c, 0, 59, 64
1, 8398, Note_on_c, 0, 58, 48
1, 8398, Note_off_c, 0, 60, 64
1, 8399, Note_on_c, 0, 54, 34
1, 8399, Note_on_c, 0, 56, 43
1, 8399, Note_off_c, 0, 57, 64
1, 8399, Note_off_c, 0, 69, 64
1, 8400, Note_off_c, 0, 58, 64
1, 8401, Note_off_c, 0, 54, 64
1, 8405, Note_on_c, 0, 55, 39
1, 8405, Note_off_c, 0, 56, 64
1, 8408, Note_off_c, 0, 55, 64
1, 8409, Note_on_c, 0, 53, 35
1, 8410, Note_on_c, 0, 64, 48
1, 8411, Note_off_c, 0, 53, 64
1, 8413, Note_on_c, 0, 52, 46
1, 8416, Note_off_c, 0, 52, 64
1, 8416, Note_on_c, 0, 53, 42
1, 8418, Note_off_c, 0, 53, 64
1, 8418, Note_off_c, 0, 64, 64
1, 8420, Note_on_c, 0, 52, 33
1, 8420, Note_on_c, 0, 64, 47
1, 8420, Note_on_c, 0, 65, 40
1, 8422, Note_off_c, 0, 52, 64
1, 8422, Note_on_c, 0, 53, 38
1, 8423, Note_off_c, 0, 65, 64
1, 8424, Note_on_c, 0, 52, 41
1, 8424, Note_off_c, 0, 53, 64
1, 8430, Note_off_c, 0, 52, 64
1, 8430, Note_on_c, 0, 53, 33
1, 8430, Note_off_c, 0, 64, 64
1, 8432, Note_on_c, 0, 56, 26
1, 8433, Note_off_c, 0, 53, 64
1, 8434, Note_on_c, 0, 57, 31
1, 8435, Note_on_c, 0, 55, 27
1, 8435, Note_off_c, 0, 56, 64
1, 8437, Note_off_c, 0, 57, 64
1, 8438, Note_off_c, 0, 55, 64
1, 8438, Note_on_c, 0, 56, 29
1, 8439, Note_on_c, 0, 55, 28
1, 8440, Note_off_c, 0, 56, 64
1, 8441, Note_on_c, 0, 56, 26
1, 8443, Note_off_c, 0, 55, 64
1, 8445, Note_on_c, 0, 55, 21
1, 8446, Note_off_c, 0, 56, 64
1, 8449, Note_off_c, 0, 55, 64
1, 8465, Note_on_c, 0, 63, 36
1, 8466, Note_on_c, 0, 61, 56
1, 8466, Note_on_c, 0, 72, 31
1, 8466, Note_on_c, 0, 100, 24
1, 8467, Note_on_c, 0, 60, 67
1, 8467, Note_off_c, 0, 63, 64
1, 8468, Note_off_c, 0, 61, 64
1, 8469, Note_on_c, 0, 59, 52
1, 8469, Note_off_c, 0, 60, 64
1, 8469, Note_off_c, 0, 72, 64
1, 8469, Note_off_c, 0, 100, 64
1, 8470, Note_on_c, 0, 58, 48
1, 8470, Note_on_c, 0, 60, 61
1, 8472, Note_off_c, 0, 58, 64
1, 8474, Note_off_c, 0, 59, 64
1, 8476, Note_off_c, 0, 60, 64
1, 8477, Note_on_c, 0, 60, 53
1, 8484, Note_on_c, 0, 78, 51
1, 8485, Note_on_c, 0, 59, 47
1, 8485, Note_off_c, 0, 60, 64
1, 8485, Note_on_c, 0, 71, 50
1, 8485, Note_on_c, 0, 87, 45
1, 8489, Note_on_c, 0, 86, 29
1, 8490, Note_on_c, 0, 60, 20
1, 8490, Note_on_c, 0, 75, 45
1, 8490, Note_on_c, 0, 82, 35
1, 8491, Note_on_c, 0, 73, 18
1, 8491, Note_on_c, 0, 74, 29
1, 8491, Note_on_c, 0, 84, 27
1, 8491, Note_on_c, 0, 85, 30
1, 8492, Note_on_c, 0, 72, 33
1, 8493, Note_off_c, 0, 82, 64
1, 8494, Note_off_c, 0, 60, 64
1, 8494, Note_off_c, 0, 72, 64
1, 8494, Note_off_c, 0, 73, 64
1, 8494, Note_off_c, 0, 74, 64
1, 8494, Note_off_c, 0, 75, 64
1, 8494, Note_off_c, 0, 84, 64
1, 8494, Note_off_c, 0, 85, 64
1, 8494, Note_off_c, 0, 86, 64
1, 8496, Note_off_c, 0, 87, 64
1, 8497, Note_on_c, 0, 63, 74
1, 8497, Note_off_c, 0, 78, 64
1, 8498, Note_off_c, 0, 59, 64
1, 8498, Note_on_c, 0, 64, 63
1, 8498, Note_off_c, 0, 71, 64
1, 8500, Note_off_c, 0, 64, 64
1, 8504, Note_on_c, 0, 62, 29
1, 8505, Note_on_c, 0, 60, 45
1, 8506, Note_on_c, 0, 59, 41
1, 8506, Note_off_c, 0, 62, 64
1, 8507, Note_off_c, 0, 63, 64
1, 8510, Note_off_c, 0, 59, 64
1, 8510, Note_off_c, 0, 60, 64
1, 8511, Note_on_c, 0, 60, 42
1, 8512, Note_on_c, 0, 59, 38
1, 8513, Note_off_c, 0, 60, 64
1, 8516, Note_off_c, 0, 59, 64
1, 8518, Note_on_c, 0, 60, 38
1, 8518, Note_on_c, 0, 61, 27
1, 8518, Note_on_c, 0, 63, 38
1, 8521, Note_on_c, 0, 59, 41
1, 8521, Note_off_c, 0, 61, 64
1, 8521, Note_off_c, 0, 63, 64
1, 8523, Note_on_c, 0, 57, 30
1, 8523, Note_on_c, 0, 58, 40
1, 8523, Note_on_c, 0, 68, 24
1, 8523, Note_on_c, 0, 70, 46
1, 8524, Note_off_c, 0, 59, 64
1, 8524, Note_off_c, 0, 60, 64
1, 8524, Note_on_c, 0, 71, 42
1, 8526, Note_off_c, 0, 57, 64
1, 8526, Note_off_c, 0, 68, 64
1, 8527, Note_off_c, 0, 71, 64
1, 8529, Note_off_c, 0, 58, 64
1, 8530, Note_off_c, 0, 70, 64
1, 8532, Note_on_c, 0, 59, 52
1, 8532, Note_on_c, 0, 78, 27
1, 8533, Note_on_c, 0, 72, 42
1, 8533, Note_on_c, 0, 79, 25
1, 8535, Note_off_c, 0, 59, 64
1, 8535, Note_on_c, 0, 60, 50
1, 8535, Note_off_c, 0, 78, 64
1, 8537, Note_on_c, 0, 63, 45
1, 8538, Note_off_c, 0, 72, 64
1, 8538, Note_off_c, 0, 79, 64
1, 8539, Note_off_c, 0, 60, 64
1, 8539, Note_on_c, 0, 82, 32
1, 8543, Note_on_c, 0, 61, 42
1, 8543, Note_off_c, 0, 82, 64
1, 8544, Note_off_c, 0, 63, 64
1, 8546, Note_on_c, 0, 60, 51
1, 8546, Note_off_c, 0, 61, 64
1, 8548, Note_off_c, 0, 60, 64
1, 8549, Note_on_c, 0, 56, 29
1, 8549, Note_on_c, 0, 58, 49
1, 8551, Note_off_c, 0, 56, 64
1, 8556, Note_off_c, 0, 58, 64
1, 8556, Note_on_c, 0, 75, 44
1, 8557, Note_on_c, 0, 63, 34
1, 8557, Note_on_c, 0, 82, 49
1, 8559, Note_on_c, 0, 90, 16
1, 8560, Note_on_c, 0, 86, 22
1, 8561, Note_on_c, 0, 62, 30
1, 8561, Note_off_c, 0, 63, 64
1, 8561, Note_on_c, 0, 74, 41
1, 8561, Note_off_c, 0, 75, 64
1, 8561, Note_on_c, 0, 81, 49
1, 8561, Note_off_c, 0, 82, 64
1, 8562, Note_on_c, 0, 82, 39
1, 8562, Note_off_c, 0, 90, 64
1, 8563, Note_off_c, 0, 81, 64
1, 8564, Note_off_c, 0, 62, 64
1, 8564, Note_off_c, 0, 74, 64
1, 8565, Note_on_c, 0, 60, 32
1, 8565, Note_on_c, 0, 79, 29
1, 8565, Note_on_c, 0, 84, 22
1, 8565, Note_off_c, 0, 86, 64
1, 8566, Note_off_c, 0, 82, 64
1, 8571, Note_off_c, 0, 84, 64
1, 8572, Note_off_c, 0, 79, 64
1, 8573, Note_off_c, 0, 60, 64
1, 8586, Note_on_c, 0, 57, 42
1, 8588, Note_on_c, 0, 70, 28
1, 8589, Note_off_c, 0, 57, 64
1, 8590, Note_on_c, 0, 57, 12
1, 8591, Note_on_c, 0, 59, 34
1, 8591, Note_off_c, 0, 70, 64
1, 8592, Note_on_c, 0, 58, 42
1, 8593, Note_off_c, 0, 57, 64
1, 8594, Note_off_c, 0, 59, 64
1, 8597, Note_off_c, 0, 58, 64
1, 8598, Note_on_c, 0, 56, 45
1, 8598, Note_on_c, 0, 68, 52
1, 8601, Note_on_c, 0, 67, 30
1, 8603, Note_off_c, 0, 56, 64
1, 8603, Note_off_c, 0, 67, 64
1, 8604, Note_off_c, 0, 68, 64
1, 8605, Note_on_c, 0, 60, 49
1, 8606, Note_on_c, 0, 79, 19
1, 8607, Note_on_c, 0, 71, 32
1, 8609, Note_off_c, 0, 79, 64
1, 8610, Note_on_c, 0, 59, 34
1, 8610, Note_off_c, 0, 60, 64
1, 8610, Note_on_c, 0, 70, 32
1, 8612, Note_off_c, 0, 59, 64
1, 8612, Note_on_c, 0, 60, 41
1, 8612, Note_off_c, 0, 70, 64
1, 8612, Note_on_c, 0, 78, 31
1, 8613, Note_on_c, 0, 59, 43
1, 8614, Note_off_c, 0, 60, 64
1, 8616, Note_on_c, 0, 58, 28
1, 8617, Note_off_c, 0, 59, 64
1, 8617, Note_off_c, 0, 78, 64
1, 8618, Note_on_c, 0, 59, 38
1, 8619, Note_off_c, 0, 58, 64
1, 8619, Note_on_c, 0, 68, 30
1, 8619, Note_on_c, 0, 69, 32
1, 8620, Note_off_c, 0, 59, 64
1, 8620, Note_off_c, 0, 71, 64
1, 8622, Note_on_c, 0, 57, 36
1, 8622, Note_off_c, 0, 68, 64
1, 8625, Note_off_c, 0, 57, 64
1, 8625, Note_on_c, 0, 58, 45
1, 8625, Note_off_c, 0, 69, 64
1, 8630, Note_on_c, 0, 59, 20
1, 8630, Note_on_c, 0, 60, 31
1, 8633, Note_off_c, 0, 59, 64
1, 8633, Note_off_c, 0, 60, 64
1, 8636, Note_on_c, 0, 55, 41
1, 8637, Note_off_c, 0, 58, 64
1, 8638, Note_on_c, 0, 57, 40
1, 8640, Note_on_c, 0, 56, 41
1, 8640, Note_off_c, 0, 57, 64
1, 8641, Note_off_c, 0, 55, 64
1, 8642, Note_off_c, 0, 56, 64
1, 8646, Note_on_c, 0, 53, 13
1, 8648, Note_on_c, 0, 56, 38
1, 8649, Note_off_c, 0, 53, 64
1, 8656, Note_off_c, 0, 56, 64
1, 8657, Note_on_c, 0, 60, 41
1, 8659, Note_on_c, 0, 57, 34
1, 8660, Note_off_c, 0, 60, 64
1, 8662, Note_off_c, 0, 57, 64
1, 8664, Note_on_c, 0, 53, 32
1, 8665, Note_on_c, 0, 64, 22
1, 8666, Note_on_c, 0, 52, 32
1, 8666, Note_off_c, 0, 53, 64
1, 8668, Note_off_c, 0, 52, 64
1, 8668, Note_off_c, 0, 64, 64
1, 8671, Note_on_c, 0, 56, 28
1, 8672, Note_on_c, 0, 55, 25
1, 8676, Note_off_c, 0, 56, 64
1, 8677, Note_on_c, 0, 56, 31
1, 8678, Note_off_c, 0, 55, 64
1, 8678, Note_on_c, 0, 67, 21
1, 8681, Note_off_c, 0, 67, 64
1, 8694, Note_off_c, 0, 56, 64
1, 8718, Note_on_c, 0, 63, 59
1, 8718, Note_on_c, 0, 82, 48
1, 8721, Note_on_c, 0, 62, 51
1, 8721, Note_off_c, 0, 63, 64
1, 8721, Note_on_c, 0, 73, 26
1, 8721, Note_on_c, 0, 81, 35
1, 8721, Note_off_c, 0, 82, 64
1, 8722, Note_on_c, 0, 61, 43
1, 8722, Note_on_c, 0, 63, 60
1, 8722, Note_on_c, 0, 72, 32
1, 8723, Note_on_c, 0, 82, 53
1, 8724, Note_off_c, 0, 61, 64
1, 8724, Note_off_c, 0, 72, 64
1, 8724, Note_off_c, 0, 73, 64
1, 8726, Note_off_c, 0, 62, 64
1, 8727, Note_off_c, 0, 81, 64
1, 8730, Note_off_c, 0, 82, 64
1, 8731, Note_on_c, 0, 62, 30
1, 8731, Note_off_c, 0, 63, 64
1, 8731, Note_on_c, 0, 76, 18
1, 8732, Note_on_c, 0, 61, 43
1, 8732, Note_on_c, 0, 63, 47
1, 8732, Note_on_c, 0, 74, 45
1, 8732, Note_on_c, 0, 80, 30
1, 8732, Note_on_c, 0, 81, 43
1, 8733, Note_off_c, 0, 62, 64
1, 8734, Note_off_c, 0, 76, 64
1, 8735, Note_off_c, 0, 61, 64
1, 8735, Note_on_c, 0, 62, 69
1, 8735, Note_off_c, 0, 80, 64
1, 8736, Note_off_c, 0, 63, 64
1, 8739, Note_off_c, 0, 74, 64
1, 8739, Note_on_c, 0, 75, 40
1, 8740, Note_on_c, 0, 82, 30
1, 8741, Note_off_c, 0, 75, 64
1, 8741, Note_off_c, 0, 81, 64
1, 8742, Note_off_c, 0, 82, 64
1, 8743, Note_off_c, 0, 62, 64
1, 8744, Note_on_c, 0, 65, 62
1, 8744, Note_on_c, 0, 77, 62
1, 8745, Note_on_c, 0, 84, 44
1, 8748, Note_on_c, 0, 76, 53
1, 8748, Note_off_c, 0, 77, 64
1, 8748, Note_on_c, 0, 83, 46
1, 8748, Note_off_c, 0, 84, 64
1, 8749, Note_on_c, 0, 63, 41
1, 8749, Note_on_c, 0, 64, 73
1, 8749, Note_off_c, 0, 65, 64
1, 8749, Note_on_c, 0, 74, 43
1, 8749, Note_on_c, 0, 81, 29
1, 8750, Note_on_c, 0, 65, 50
1, 8750, Note_on_c, 0, 66, 38
1, 8751, Note_off_c, 0, 74, 64
1, 8751, Note_off_c, 0, 81, 64
1, 8751, Note_off_c, 0, 83, 64
1, 8752, Note_off_c, 0, 63, 64
1, 8752, Note_off_c, 0, 65, 64
1, 8752, Note_off_c, 0, 76, 64
1, 8753, Note_off_c, 0, 64, 64
1, 8753, Note_on_c, 0, 65, 83
1, 8753, Note_off_c, 0, 66, 64
1, 8755, Note_on_c, 0, 63, 29
1, 8755, Note_on_c, 0, 76, 37
1, 8756, Note_on_c, 0, 64, 73
1, 8756, Note_off_c, 0, 65, 64
1, 8757, Note_off_c, 0, 63, 64
1, 8757, Note_off_c, 0, 76, 64
1, 8757, Note_on_c, 0, 80, 71
1, 8758, Note_off_c, 0, 64, 64
1, 8758, Note_on_c, 0, 68, 43
1, 8758, Note_on_c, 0, 87, 83
1, 8762, Note_on_c, 0, 91, 53
1, 8763, Note_on_c, 0, 67, 55
1, 8763, Note_off_c, 0, 68, 64
1, 8763, Note_on_c, 0, 79, 66
1, 8763, Note_off_c, 0, 80, 64
1, 8763, Note_on_c, 0, 86, 72
1, 8764, Note_off_c, 0, 87, 64
1, 8766, Note_on_c, 0, 68, 41
1, 8766, Note_off_c, 0, 91, 64
1, 8767, Note_off_c, 0, 79, 64
1, 8767, Note_off_c, 0, 86, 64
1, 8774, Note_off_c, 0, 68, 64
1, 8779, Note_on_c, 0, 64, 75
1, 8779, Note_off_c, 0, 67, 64
1, 8780, Note_off_c, 0, 64, 64
1, 8780, Note_on_c, 0, 65, 78
1, 8783, Note_on_c, 0, 64, 33
1, 8783, Note_off_c, 0, 65, 64
1, 8784, Note_on_c, 0, 66, 39
1, 8785, Note_off_c, 0, 64, 64
1, 8785, Note_on_c, 0, 65, 64
1, 8785, Note_on_c, 0, 102, 11
1, 8787, Note_on_c, 0, 64, 61
1, 8787, Note_off_c, 0, 66, 64
1, 8789, Note_on_c, 0, 101, 26
1, 8789, Note_off_c, 0, 102, 64
1, 8790, Note_off_c, 0, 65, 64
1, 8791, Note_off_c, 0, 64, 64
1, 8791, Note_on_c, 0, 65, 68
1, 8794, Note_on_c, 0, 64, 64
1, 8794, Note_off_c, 0, 65, 64
1, 8794, Note_off_c, 0, 101, 64
1, 8796, Note_on_c, 0, 80, 68
1, 8797, Note_off_c, 0, 64, 64
1, 8797, Note_on_c, 0, 68, 43
1, 8797, Note_on_c, 0, 79, 92
1, 8798, Note_on_c, 0, 67, 41
1, 8798, Note_on_c, 0, 86, 43
1, 8798, Note_on_c, 0, 95, 31
1, 8798, Note_on_c, 0, 98, 49
1, 8800, Note_off_c, 0, 68, 64
1, 8800, Note_off_c, 0, 80, 64
1, 8807, Note_off_c, 0, 86, 64
1, 8808, Note_off_c, 0, 95, 64
1, 8808, Note_off_c, 0, 98, 64
1, 8809, Note_off_c, 0, 67, 64
1, 8809, Note_off_c, 0, 79, 64
1, 8810, Note_on_c, 0, 67, 27
1, 8810, Note_on_c, 0, 68, 47
1, 8811, Note_on_c, 0, 64, 57
1, 8811, Note_on_c, 0, 65, 42
1, 8813, Note_off_c, 0, 67, 64
1, 8813, Note_off_c, 0, 68, 64
1, 8814, Note_off_c, 0, 65, 64
1, 8817, Note_on_c, 0, 60, 30
1, 8817, Note_on_c, 0, 62, 37
1, 8818, Note_on_c, 0, 61, 35
1, 8818, Note_off_c, 0, 64, 64
1, 8819, Note_off_c, 0, 60, 64
1, 8820, Note_off_c, 0, 61, 64
1, 8825, Note_off_c, 0, 62, 64
1, 8835, Note_on_c, 0, 74, 33
1, 8835, Note_on_c, 0, 75, 30
1, 8835, Note_on_c, 0, 76, 35
1, 8835, Note_on_c, 0, 77, 34
1, 8835, Note_on_c, 0, 80, 42
1, 8835, Note_on_c, 0, 81, 40
1, 8835, Note_on_c, 0, 82, 41
1, 8836, Note_on_c, 0, 60, 30
1, 8836, Note_on_c, 0, 71, 53
1, 8836, Note_on_c, 0, 78, 67
1, 8836, Note_on_c, 0, 79, 50
1, 8836, Note_on_c, 0, 84, 30
1, 8837, Note_on_c, 0, 59, 45
1, 8837, Note_off_c, 0, 74, 64
1, 8837, Note_off_c, 0, 77, 64
1, 8838, Note_off_c, 0, 60, 64
1, 8838, Note_off_c, 0, 75, 64
1, 8838, Note_off_c, 0, 76, 64
1, 8838, Note_off_c, 0, 80, 64
1, 8838, Note_off_c, 0, 81, 64
1, 8839, Note_on_c, 0, 58, 38
1, 8839, Note_off_c, 0, 79, 64
1, 8839, Note_off_c, 0, 82, 64
1, 8839, Note_off_c, 0, 84, 64
1, 8841, Note_on_c, 0, 60, 36
1, 8841, Note_off_c, 0, 71, 64
1, 8841, Note_off_c, 0, 78, 64
1, 8842, Note_off_c, 0, 59, 64
1, 8843, Note_off_c, 0, 58, 64
1, 8843, Note_on_c, 0, 59, 46
1, 8845, Note_off_c, 0, 60, 64
1, 8848, Note_on_c, 0, 65, 50
1, 8848, Note_on_c, 0, 77, 82
1, 8849, Note_on_c, 0, 76, 33
1, 8849, Note_on_c, 0, 84, 77
1, 8850, Note_off_c, 0, 59, 64
1, 8851, Note_off_c, 0, 76, 64
1, 8854, Note_on_c, 0, 79, 42
1, 8854, Note_on_c, 0, 88, 24
1, 8855, Note_on_c, 0, 68, 38
1, 8855, Note_on_c, 0, 69, 32
1, 8855, Note_on_c, 0, 80, 86
1, 8855, Note_on_c, 0, 81, 73
1, 8855, Note_on_c, 0, 86, 29
1, 8855, Note_on_c, 0, 87, 70
1, 8856, Note_off_c, 0, 65, 64
1, 8857, Note_off_c, 0, 77, 64
1, 8857, Note_off_c, 0, 79, 64
1, 8857, Note_off_c, 0, 84, 64
1, 8857, Note_off_c, 0, 86, 64
1, 8858, Note_off_c, 0, 69, 64
1, 8858, Note_on_c, 0, 79, 43
1, 8858, Note_off_c, 0, 81, 64
1, 8858, Note_on_c, 0, 86, 42
1, 8858, Note_off_c, 0, 88, 64
1, 8860, Note_off_c, 0, 79, 64
1, 8860, Note_off_c, 0, 86, 64
1, 8861, Note_off_c, 0, 68, 64
1, 8862, Note_on_c, 0, 69, 34
1, 8862, Note_on_c, 0, 81, 71
1, 8862, Note_on_c, 0, 88, 33
1, 8863, Note_on_c, 0, 68, 22
1, 8863, Note_on_c, 0, 79, 76
1, 8863, Note_on_c, 0, 86, 69
1, 8864, Note_on_c, 0, 67, 32
1, 8865, Note_off_c, 0, 69, 64
1, 8865, Note_off_c, 0, 88, 64
1, 8868, Note_off_c, 0, 68, 64
1, 8868, Note_off_c, 0, 81, 64
1, 8869, Note_off_c, 0, 67, 64
1, 8869, Note_on_c, 0, 68, 40
1, 8870, Note_off_c, 0, 80, 64
1, 8871, Note_on_c, 0, 67, 43
1, 8871, Note_off_c, 0, 68, 64
1, 8874, Note_on_c, 0, 68, 58
1, 8874, Note_off_c, 0, 86, 64
1, 8874, Note_off_c, 0, 87, 64
1, 8875, Note_off_c, 0, 79, 64
1, 8876, Note_on_c, 0, 65, 56
1, 8876, Note_on_c, 0, 66, 29
1, 8877, Note_off_c, 0, 67, 64
1, 8878, Note_on_c, 0, 64, 50
1, 8878, Note_off_c, 0, 66, 64
1, 8878, Note_off_c, 0, 68, 64
1, 8880, Note_on_c, 0, 59, 28
1, 8880, Note_off_c, 0, 65, 64
1, 8881, Note_on_c, 0, 61, 23
1, 8881, Note_on_c, 0, 62, 36
1, 8882, Note_off_c, 0, 64, 64
1, 8882, Note_on_c, 0, 74, 49
1, 8882, Note_on_c, 0, 75, 43
1, 8882, Note_on_c, 0, 81, 56
1, 8882, Note_on_c, 0, 82, 48
1, 8883, Note_off_c, 0, 59, 64
1, 8884, Note_off_c, 0, 61, 64
1, 8885, Note_off_c, 0, 62, 64
1, 8885, Note_off_c, 0, 75, 64
1, 8886, Note_off_c, 0, 74, 64
1, 8886, Note_off_c, 0, 81, 64
1, 8886, Note_off_c, 0, 82, 64
1, 8889, Note_on_c, 0, 65, 56
1, 8889, Note_on_c, 0, 66, 44
1, 8891, Note_off_c, 0, 66, 64
1, 8893, Note_on_c, 0, 75, 36
1, 8894, Note_on_c, 0, 62, 36
1, 8894, Note_on_c, 0, 74, 46
1, 8894, Note_on_c, 0, 81, 62
1, 8894, Note_on_c, 0, 86, 48
1, 8895, Note_off_c, 0, 65, 64
1, 8895, Note_on_c, 0, 90, 31
1, 8896, Note_off_c, 0, 75, 64
1, 8898, Note_on_c, 0, 59, 32
1, 8898, Note_off_c, 0, 62, 64
1, 8898, Note_on_c, 0, 71, 34
1, 8898, Note_off_c, 0, 74, 64
1, 8898, Note_on_c, 0, 78, 42
1, 8898, Note_on_c, 0, 79, 34
1, 8898, Note_off_c, 0, 81, 64
1, 8898, Note_off_c, 0, 86, 64
1, 8898, Note_off_c, 0, 90, 64
1, 8900, Note_off_c, 0, 59, 64
1, 8900, Note_off_c, 0, 71, 64
1, 8900, Note_off_c, 0, 78, 64
1, 8900, Note_off_c, 0, 79, 64
1, 8901, Note_on_c, 0, 60, 51
1, 8907, Note_off_c, 0, 60, 64
1, 8909, Note_on_c, 0, 63, 59
1, 8910, Note_on_c, 0, 62, 49
1, 8912, Note_off_c, 0, 62, 64
1, 8918, Note_on_c, 0, 74, 47
1, 8919, Note_on_c, 0, 82, 17
1, 8921, Note_on_c, 0, 62, 40
1, 8921, Note_on_c, 0, 81, 15
1, 8925, Note_off_c, 0, 82, 64
1, 8926, Note_off_c, 0, 81, 64
1, 8928, Note_off_c, 0, 62, 64
1, 8928, Note_off_c, 0, 74, 64
1, 8929, Note_on_c, 0, 82, 13
1, 8932, Note_off_c, 0, 82, 64
1, 8933, Note_on_c, 0, 62, 44
1, 8933, Note_off_c, 0, 63, 64
1, 8935, Note_off_c, 0, 62, 64
1, 8935, Note_on_c, 0, 63, 29
1, 8937, Note_off_c, 0, 63, 64
1, 8947, Note_on_c, 0, 58, 53
1, 8949, Note_on_c, 0, 57, 52
1, 8949, Note_off_c, 0, 58, 64
1, 8953, Note_on_c, 0, 58, 29
1, 8956, Note_off_c, 0, 58, 64
1, 8957, Note_off_c, 0, 57, 64
1, 8961, Note_on_c, 0, 63, 38
1, 8961, Note_on_c, 0, 75, 46
1, 8961, Note_on_c, 0, 82, 64
1, 8962, Note_on_c, 0, 90, 44
1, 8963, Note_on_c, 0, 86, 55
1, 8965, Note_on_c, 0, 62, 39
1, 8965, Note_off_c, 0, 63, 64
1, 8965, Note_on_c, 0, 74, 48
1, 8965, Note_off_c, 0, 75, 64
1, 8966, Note_on_c, 0, 81, 62
1, 8967, Note_off_c, 0, 82, 64
1, 8968, Note_off_c, 0, 62, 64
1, 8968, Note_off_c, 0, 90, 64
1, 8969, Note_on_c, 0, 59, 61
1, 8969, Note_off_c, 0, 74, 64
1, 8969, Note_off_c, 0, 81, 64
1, 8969, Note_off_c, 0, 86, 64
1, 8974, Note_on_c, 0, 61, 32
1, 8974, Note_on_c, 0, 63, 54
1, 8975, Note_on_c, 0, 62, 38
1, 8977, Note_off_c, 0, 61, 64
1, 8978, Note_off_c, 0, 62, 64
1, 8978, Note_off_c, 0, 63, 64
1, 8980, Note_on_c, 0, 61, 33
1, 8981, Note_off_c, 0, 59, 64
1, 8981, Note_on_c, 0, 60, 48
1, 8981, Note_on_c, 0, 63, 73
1, 8982, Note_off_c, 0, 61, 64
1, 8983, Note_off_c, 0, 60, 64
1, 8988, Note_on_c, 0, 82, 48
1, 8988, Note_on_c, 0, 87, 38
1, 8989, Note_on_c, 0, 74, 45
1, 8989, Note_on_c, 0, 81, 65
1, 8989, Note_on_c, 0, 86, 69
1, 8989, Note_on_c, 0, 90, 38
1, 8990, Note_on_c, 0, 62, 53
1, 8990, Note_off_c, 0, 63, 64
1, 8991, Note_off_c, 0, 82, 64
1, 8991, Note_off_c, 0, 87, 64
1, 8995, Note_off_c, 0, 62, 64
1, 8995, Note_off_c, 0, 74, 64
1, 8995, Note_off_c, 0, 86, 64
1, 8995, Note_off_c, 0, 90, 64
1, 8996, Note_on_c, 0, 59, 60
1, 8996, Note_off_c, 0, 81, 64
1, 8997, Note_on_c, 0, 78, 19
1, 9000, Note_on_c, 0, 58, 39
1, 9000, Note_off_c, 0, 78, 64
1, 9001, Note_on_c, 0, 78, 55
1, 9001, Note_on_c, 0, 83, 54
1, 9003, Note_off_c, 0, 58, 64
1, 9004, Note_on_c, 0, 82, 49
1, 9006, Note_off_c, 0, 59, 64
1, 9006, Note_on_c, 0, 81, 36
1, 9006, Note_off_c, 0, 82, 64
1, 9007, Note_on_c, 0, 53, 36
1, 9007, Note_on_c, 0, 56, 18
1, 9007, Note_on_c, 0, 57, 42
1, 9007, Note_on_c, 0, 76, 44
1, 9007, Note_on_c, 0, 82, 30
1, 9008, Note_on_c, 0, 69, 48
1, 9008, Note_off_c, 0, 78, 64
1, 9010, Note_off_c, 0, 53, 64
1, 9010, Note_off_c, 0, 56, 64
1, 9010, Note_off_c, 0, 82, 64
1, 9010, Note_off_c, 0, 83, 64
1, 9010, Note_on_c, 0, 85, 22
1, 9014, Note_on_c, 0, 59, 50
1, 9014, Note_off_c, 0, 69, 64
1, 9014, Note_on_c, 0, 71, 51
1, 9014, Note_off_c, 0, 76, 64
1, 9014, Note_off_c, 0, 81, 64
1, 9014, Note_off_c, 0, 85, 64
1, 9015, Note_off_c, 0, 57, 64
1, 9016, Note_on_c, 0, 78, 29
1, 9019, Note_off_c, 0, 78, 64
1, 9020, Note_on_c, 0, 60, 26
1, 9020, Note_on_c, 0, 62, 65
1, 9021, Note_off_c, 0, 59, 64
1, 9021, Note_off_c, 0, 71, 64
1, 9023, Note_off_c, 0, 60, 64
1, 9023, Note_off_c, 0, 62, 64
1, 9023, Note_on_c, 0, 63, 67
1, 9027, Note_on_c, 0, 60, 40
1, 9028, Note_off_c, 0, 63, 64
1, 9028, Note_on_c, 0, 71, 51
1, 9028, Note_on_c, 0, 72, 41
1, 9028, Note_on_c, 0, 78, 33
1, 9028, Note_on_c, 0, 79, 26
1, 9028, Note_on_c, 0, 84, 41
1, 9030, Note_on_c, 0, 59, 40
1, 9030, Note_off_c, 0, 60, 64
1, 9030, Note_off_c, 0, 72, 64
1, 9031, Note_off_c, 0, 79, 64
1, 9031, Note_off_c, 0, 84, 64
1, 9033, Note_off_c, 0, 59, 64
1, 9033, Note_on_c, 0, 69, 36
1, 9033, Note_on_c, 0, 70, 34
1, 9033, Note_off_c, 0, 71, 64
1, 9034, Note_on_c, 0, 57, 35
1, 9034, Note_off_c, 0, 78, 64
1, 9035, Note_off_c, 0, 70, 64
1, 9037, Note_on_c, 0, 70, 39
1, 9039, Note_off_c, 0, 57, 64
1, 9039, Note_off_c, 0, 69, 64
1, 9040, Note_off_c, 0, 70, 64
1, 9041, Note_on_c, 0, 63, 46
1, 9043, Note_on_c, 0, 74, 24
1, 9043, Note_on_c, 0, 81, 28
1, 9044, Note_on_c, 0, 62, 44
1, 9044, Note_off_c, 0, 63, 64
1, 9046, Note_on_c, 0, 61, 30
1, 9046, Note_off_c, 0, 81, 64
1, 9047, Note_on_c, 0, 64, 28
1, 9047, Note_off_c, 0, 74, 64
1, 9048, Note_on_c, 0, 63, 41
1, 9049, Note_off_c, 0, 61, 64
1, 9049, Note_off_c, 0, 62, 64
1, 9050, Note_off_c, 0, 64, 64
1, 9055, Note_off_c, 0, 63, 64
1, 9067, Note_on_c, 0, 52, 29
1, 9067, Note_on_c, 0, 71, 26
1, 9071, Note_off_c, 0, 52, 64
1, 9071, Note_off_c, 0, 71, 64
1, 9072, Note_on_c, 0, 72, 12
1, 9073, Note_on_c, 0, 71, 13
1, 9077, Note_off_c, 0, 72, 64
1, 9078, Note_off_c, 0, 71, 64
1, 9080, Note_on_c, 0, 65, 39
1, 9081, Note_on_c, 0, 62, 41
1, 9081, Note_on_c, 0, 63, 35
1, 9081, Note_on_c, 0, 74, 60
1, 9082, Note_off_c, 0, 65, 64
1, 9083, Note_on_c, 0, 61, 39
1, 9083, Note_off_c, 0, 63, 64
1, 9084, Note_off_c, 0, 62, 64
1, 9085, Note_off_c, 0, 61, 64
1, 9085, Note_on_c, 0, 62, 42
1, 9085, Note_on_c, 0, 81, 52
1, 9086, Note_on_c, 0, 82, 73
1, 9087, Note_on_c, 0, 75, 60
1, 9087, Note_off_c, 0, 81, 64
1, 9087, Note_on_c, 0, 91, 38
1, 9088, Note_off_c, 0, 62, 64
1, 9088, Note_on_c, 0, 63, 69
1, 9088, Note_off_c, 0, 74, 64
1, 9091, Note_off_c, 0, 82, 64
1, 9091, Note_off_c, 0, 91, 64
1, 9092, Note_off_c, 0, 63, 64
1, 9092, Note_on_c, 0, 64, 49
1, 9092, Note_off_c, 0, 75, 64
1, 9094, Note_on_c, 0, 71, 64
1, 9095, Note_on_c, 0, 59, 51
1, 9095, Note_off_c, 0, 64, 64
1, 9095, Note_on_c, 0, 78, 15
1, 9098, Note_off_c, 0, 78, 64
1, 9098, Note_on_c, 0, 79, 21
1, 9098, Note_on_c, 0, 97, 20
1, 9098, Note_on_c, 0, 98, 25
1, 9099, Note_off_c, 0, 71, 64
1, 9099, Note_on_c, 0, 78, 31
1, 9100, Note_on_c, 0, 71, 69
1, 9101, Note_off_c, 0, 79, 64
1, 9101, Note_off_c, 0, 98, 64
1, 9104, Note_off_c, 0, 97, 64
1, 9105, Note_off_c, 0, 78, 64
1, 9107, Note_off_c, 0, 59, 64
1, 9107, Note_on_c, 0, 60, 30
1, 9107, Note_on_c, 0, 61, 34
1, 9107, Note_off_c, 0, 71, 64
1, 9109, Note_on_c, 0, 57, 32
1, 9110, Note_on_c, 0, 58, 32
1, 9110, Note_off_c, 0, 60, 64
1, 9110, Note_off_c, 0, 61, 64
1, 9112, Note_on_c, 0, 55, 33
1, 9112, Note_off_c, 0, 57, 64
1, 9113, Note_off_c, 0, 58, 64
1, 9115, Note_on_c, 0, 68, 43
1, 9116, Note_off_c, 0, 55, 64
1, 9116, Note_on_c, 0, 56, 39
1, 9122, Note_on_c, 0, 75, 50
1, 9122, Note_on_c, 0, 83, 38
1, 9124, Note_off_c, 0, 56, 64
1, 9125, Note_on_c, 0, 56, 43
1, 9125, Note_off_c, 0, 83, 64
1, 9125, Note_on_c, 0, 84, 34
1, 9126, Note_on_c, 0, 83, 33
1, 9127, Note_off_c, 0, 84, 64
1, 9128, Note_on_c, 0, 84, 19
1, 9129, Note_off_c, 0, 83, 64
1, 9131, Note_off_c, 0, 84, 64
1, 9132, Note_off_c, 0, 68, 64
1, 9132, Note_off_c, 0, 75, 64
1, 9133, Note_off_c, 0, 56, 64
1, 9134, Note_on_c, 0, 56, 17
1, 9134, Note_on_c, 0, 58, 42
1, 9137, Note_off_c, 0, 56, 64
1, 9143, Note_on_c, 0, 57, 41
1, 9143, Note_off_c, 0, 58, 64
1, 9146, Note_off_c, 0, 57, 64
1, 9150, Note_on_c, 0, 84, 11
1, 9151, Note_on_c, 0, 52, 32
1, 9154, Note_off_c, 0, 84, 64
1, 9157, Note_off_c, 0, 52, 64
1, 9158, Note_on_c, 0, 52, 25
1, 9161, Note_off_c, 0, 52, 64
1, 9161, Note_on_c, 0, 53, 35
1, 9163, Note_on_c, 0, 64, 34
1, 9164, Note_off_c, 0, 53, 64
1, 9165, Note_on_c, 0, 53, 40
1, 9168, Note_off_c, 0, 53, 64
1, 9169, Note_on_c, 0, 53, 35
1, 9170, Note_off_c, 0, 64, 64
1, 9171, Note_off_c, 0, 53, 64
1, 9172, Note_on_c, 0, 53, 33
1, 9175, Note_off_c, 0, 53, 64
1, 9178, Note_on_c, 0, 56, 25
1, 9181, Note_on_c, 0, 55, 29
1, 9181, Note_off_c, 0, 56, 64
1, 9185, Note_off_c, 0, 55, 64
1, 9185, Note_on_c, 0, 56, 30
1, 9193, Note_on_c, 0, 55, 19
1, 9193, Note_off_c, 0, 56, 64
1, 9196, Note_off_c, 0, 55, 64
1, 9213, Note_on_c, 0, 68, 50
1, 9214, Note_on_c, 0, 77, 45
1, 9215, Note_on_c, 0, 65, 61
1, 9215, Note_on_c, 0, 84, 54
1, 9216, Note_off_c, 0, 68, 64
1, 9217, Note_on_c, 0, 64, 67
1, 9217, Note_off_c, 0, 65, 64
1, 9217, Note_on_c, 0, 75, 36
1, 9217, Note_off_c, 0, 77, 64
1, 9217, Note_on_c, 0, 82, 30
1, 9217, Note_on_c, 0, 83, 40
1, 9217, Note_off_c, 0, 84, 64
1, 9218, Note_on_c, 0, 63, 53
1, 9218, Note_on_c, 0, 65, 78
1, 9218, Note_on_c, 0, 84, 31
1, 9220, Note_off_c, 0, 63, 64
1, 9220, Note_off_c, 0, 75, 64
1, 9220, Note_off_c, 0, 82, 64
1, 9223, Note_off_c, 0, 83, 64
1, 9224, Note_off_c, 0, 64, 64
1, 9224, Note_off_c, 0, 84, 64
1, 9227, Note_on_c, 0, 68, 43
1, 9227, Note_on_c, 0, 80, 70
1, 9228, Note_off_c, 0, 65, 64
1, 9228, Note_on_c, 0, 87, 83
1, 9228, Note_on_c, 0, 91, 47
1, 9228, Note_on_c, 0, 101, 14
1, 9230, Note_off_c, 0, 91, 64
1, 9231, Note_on_c, 0, 86, 65
1, 9231, Note_off_c, 0, 101, 64
1, 9232, Note_on_c, 0, 91, 42
1, 9233, Note_off_c, 0, 68, 64
1, 9233, Note_on_c, 0, 79, 46
1, 9233, Note_off_c, 0, 80, 64
1, 9233, Note_off_c, 0, 87, 64
1, 9233, Note_on_c, 0, 90, 34
1, 9234, Note_on_c, 0, 65, 78
1, 9234, Note_on_c, 0, 85, 58
1, 9235, Note_off_c, 0, 79, 64
1, 9235, Note_on_c, 0, 84, 67
1, 9235, Note_off_c, 0, 91, 64
1, 9235, Note_on_c, 0, 93, 19
1, 9236, Note_off_c, 0, 85, 64
1, 9236, Note_off_c, 0, 86, 64
1, 9236, Note_off_c, 0, 90, 64
1, 9238, Note_off_c, 0, 93, 64
1, 9239, Note_on_c, 0, 66, 55
1, 9239, Note_on_c, 0, 67, 42
1, 9239, Note_off_c, 0, 84, 64
1, 9241, Note_on_c, 0, 76, 26
1, 9242, Note_on_c, 0, 64, 77
1, 9242, Note_off_c, 0, 66, 64
1, 9242, Note_off_c, 0, 67, 64
1, 9243, Note_off_c, 0, 64, 64
1, 9244, Note_off_c, 0, 76, 64
1, 9245, Note_on_c, 0, 64, 69
1, 9245, Note_off_c, 0, 65, 64
1, 9246, Note_on_c, 0, 61, 49
1, 9246, Note_on_c, 0, 62, 46
1, 9246, Note_on_c, 0, 63, 70
1, 9248, Note_off_c, 0, 61, 64
1, 9248, Note_off_c, 0, 62, 64
1, 9248, Note_off_c, 0, 64, 64
1, 9249, Note_on_c, 0, 82, 27
1, 9249, Note_on_c, 0, 87, 30
1, 9252, Note_off_c, 0, 82, 64
1, 9252, Note_off_c, 0, 87, 64
1, 9253, Note_on_c, 0, 70, 54
1, 9254, Note_off_c, 0, 63, 64
1, 9254, Note_on_c, 0, 68, 63
1, 9254, Note_on_c, 0, 80, 85
1, 9255, Note_on_c, 0, 79, 83
1, 9256, Note_off_c, 0, 70, 64
1, 9257, Note_on_c, 0, 87, 79
1, 9259, Note_off_c, 0, 79, 64
1, 9262, Note_on_c, 0, 96, 24
1, 9263, Note_on_c, 0, 79, 49
1, 9265, Note_off_c, 0, 79, 64
1, 9266, Note_off_c, 0, 68, 64
1, 9266, Note_on_c, 0, 69, 54
1, 9266, Note_off_c, 0, 80, 64
1, 9266, Note_off_c, 0, 96, 64
1, 9267, Note_on_c, 0, 68, 58
1, 9267, Note_off_c, 0, 87, 64
1, 9269, Note_off_c, 0, 69, 64
1, 9273, Note_on_c, 0, 79, 34
1, 9274, Note_on_c, 0, 65, 41
1, 9274, Note_on_c, 0, 77, 60
1, 9274, Note_on_c, 0, 78, 37
1, 9274, Note_on_c, 0, 84, 80
1, 9274, Note_on_c, 0, 92, 23
1, 9275, Note_off_c, 0, 68, 64
1, 9275, Note_off_c, 0, 79, 64
1, 9275, Note_on_c, 0, 93, 23
1, 9276, Note_off_c, 0, 78, 64
1, 9277, Note_off_c, 0, 92, 64
1, 9278, Note_on_c, 0, 85, 24
1, 9279, Note_on_c, 0, 66, 14
1, 9279, Note_on_c, 0, 78, 19
1, 9279, Note_on_c, 0, 79, 23
1, 9279, Note_on_c, 0, 80, 33
1, 9279, Note_on_c, 0, 86, 23
1, 9279, Note_off_c, 0, 93, 64
1, 9282, Note_off_c, 0, 66, 64
1, 9282, Note_off_c, 0, 78, 64
1, 9282, Note_off_c, 0, 79, 64
1, 9282, Note_off_c, 0, 80, 64
1, 9282, Note_off_c, 0, 85, 64
1, 9282, Note_off_c, 0, 86, 64
1, 9285, Note_on_c, 0, 61, 34
1, 9285, Note_on_c, 0, 64, 45
1, 9286, Note_on_c, 0, 63, 49
1, 9286, Note_off_c, 0, 65, 64
1, 9286, Note_off_c, 0, 77, 64
1, 9286, Note_off_c, 0, 84, 64
1, 9288, Note_off_c, 0, 61, 64
1, 9288, Note_off_c, 0, 64, 64
1, 9292, Note_off_c, 0, 63, 64
1, 9293, Note_on_c, 0, 67, 39
1, 9294, Note_on_c, 0, 65, 67
1, 9295, Note_on_c, 0, 101, 14
1, 9296, Note_off_c, 0, 67, 64
1, 9298, Note_off_c, 0, 101, 64
1, 9299, Note_on_c, 0, 63, 44
1, 9300, Note_off_c, 0, 65, 64
1, 9302, Note_on_c, 0, 59, 45
1, 9303, Note_off_c, 0, 63, 64
1, 9303, Note_on_c, 0, 72, 30
1, 9305, Note_off_c, 0, 72, 64
1, 9306, Note_on_c, 0, 58, 40
1, 9306, Note_off_c, 0, 59, 64
1, 9306, Note_on_c, 0, 78, 51
1, 9306, Note_on_c, 0, 83, 40
1, 9307, Note_on_c, 0, 86, 37
1, 9309, Note_off_c, 0, 58, 64
1, 9309, Note_on_c, 0, 59, 36
1, 9310, Note_on_c, 0, 79, 48
1, 9310, Note_off_c, 0, 86, 64
1, 9311, Note_off_c, 0, 59, 64
1, 9311, Note_off_c, 0, 78, 64
1, 9311, Note_off_c, 0, 83, 64
1, 9312, Note_off_c, 0, 79, 64
1, 9313, Note_on_c, 0, 63, 53
1, 9319, Note_on_c, 0, 81, 41
1, 9319, Note_on_c, 0, 82, 21
1, 9320, Note_on_c, 0, 62, 32
1, 9320, Note_off_c, 0, 63, 64
1, 9320, Note_on_c, 0, 74, 37
1, 9323, Note_off_c, 0, 74, 64
1, 9326, Note_off_c, 0, 82, 64
1, 9328, Note_off_c, 0, 62, 64
1, 9328, Note_off_c, 0, 81, 64
1, 9338, Note_on_c, 0, 75, 53
1, 9338, Note_on_c, 0, 81, 48
1, 9338, Note_on_c, 0, 82, 59
1, 9339, Note_on_c, 0, 60, 44
1, 9339, Note_on_c, 0, 63, 31
1, 9339, Note_on_c, 0, 73, 27
1, 9339, Note_on_c, 0, 74, 34
1, 9339, Note_on_c, 0, 79, 56
1, 9339, Note_on_c, 0, 80, 46
1, 9339, Note_on_c, 0, 84, 22
1, 9340, Note_on_c, 0, 61, 26
1, 9341, Note_on_c, 0, 62, 52
1, 9341, Note_off_c, 0, 63, 64
1, 9342, Note_off_c, 0, 74, 64
1, 9342, Note_off_c, 0, 75, 64
1, 9342, Note_off_c, 0, 81, 64
1, 9342, Note_off_c, 0, 82, 64
1, 9342, Note_off_c, 0, 84, 64
1, 9343, Note_off_c, 0, 60, 64
1, 9343, Note_off_c, 0, 73, 64
1, 9343, Note_on_c, 0, 75, 18
1, 9343, Note_off_c, 0, 79, 64
1, 9343, Note_off_c, 0, 80, 64
1, 9343, Note_on_c, 0, 82, 35
1, 9344, Note_off_c, 0, 61, 64
1, 9344, Note_off_c, 0, 62, 64
1, 9344, Note_on_c, 0, 63, 66
1, 9351, Note_on_c, 0, 62, 37
1, 9351, Note_on_c, 0, 74, 45
1, 9351, Note_on_c, 0, 79, 23
1, 9351, Note_on_c, 0, 80, 30
1, 9351, Note_on_c, 0, 81, 62
1, 9351, Note_on_c, 0, 85, 22
1, 9352, Note_off_c, 0, 63, 64
1, 9352, Note_off_c, 0, 75, 64
1, 9352, Note_on_c, 0, 78, 46
1, 9353, Note_on_c, 0, 60, 21
1, 9353, Note_on_c, 0, 71, 33
1, 9353, Note_off_c, 0, 82, 64
1, 9354, Note_on_c, 0, 59, 44
1, 9354, Note_off_c, 0, 85, 64
1, 9355, Note_off_c, 0, 62, 64
1, 9355, Note_off_c, 0, 74, 64
1, 9355, Note_off_c, 0, 79, 64
1, 9355, Note_off_c, 0, 80, 64
1, 9355, Note_off_c, 0, 81, 64
1, 9356, Note_off_c, 0, 60, 64
1, 9357, Note_on_c, 0, 54, 28
1, 9357, Note_on_c, 0, 56, 29
1, 9357, Note_off_c, 0, 59, 64
1, 9357, Note_off_c, 0, 71, 64
1, 9358, Note_off_c, 0, 78, 64
1, 9359, Note_on_c, 0, 58, 49
1, 9360, Note_off_c, 0, 54, 64
1, 9360, Note_off_c, 0, 56, 64
1, 9361, Note_on_c, 0, 57, 51
1, 9362, Note_off_c, 0, 58, 64
1, 9365, Note_off_c, 0, 57, 64
1, 9365, Note_on_c, 0, 65, 45
1, 9366, Note_on_c, 0, 63, 55
1, 9367, Note_on_c, 0, 62, 46
1, 9367, Note_on_c, 0, 81, 17
1, 9368, Note_off_c, 0, 65, 64
1, 9368, Note_on_c, 0, 82, 20
1, 9370, Note_off_c, 0, 62, 64
1, 9371, Note_off_c, 0, 81, 64
1, 9373, Note_on_c, 0, 74, 23
1, 9373, Note_on_c, 0, 81, 25
1, 9373, Note_off_c, 0, 82, 64
1, 9374, Note_on_c, 0, 62, 50
1, 9374, Note_off_c, 0, 63, 64
1, 9376, Note_off_c, 0, 74, 64
1, 9376, Note_off_c, 0, 81, 64
1, 9377, Note_off_c, 0, 62, 64
1, 9378, Note_on_c, 0, 64, 51
1, 9381, Note_on_c, 0, 63, 47
1, 9384, Note_on_c, 0, 62, 34
1, 9384, Note_off_c, 0, 64, 64
1, 9386, Note_on_c, 0, 60, 50
1, 9386, Note_off_c, 0, 62, 64
1, 9386, Note_off_c, 0, 63, 64
1, 9386, Note_on_c, 0, 72, 54
1, 9389, Note_on_c, 0, 59, 45
1, 9389, Note_off_c, 0, 60, 64
1, 9389, Note_on_c, 0, 71, 48
1, 9389, Note_off_c, 0, 72, 64
1, 9391, Note_off_c, 0, 59, 64
1, 9391, Note_on_c, 0, 70, 44
1, 9391, Note_off_c, 0, 71, 64
1, 9393, Note_on_c, 0, 57, 40
1, 9393, Note_on_c, 0, 58, 32
1, 9393, Note_on_c, 0, 69, 46
1, 9393, Note_on_c, 0, 77, 21
1, 9393, Note_on_c, 0, 78, 29
1, 9394, Note_on_c, 0, 76, 36
1, 9395, Note_off_c, 0, 58, 64
1, 9395, Note_off_c, 0, 78, 64
1, 9396, Note_off_c, 0, 77, 64
1, 9398, Note_off_c, 0, 70, 64
1, 9398, Note_off_c, 0, 76, 64
1, 9398, Note_on_c, 0, 77, 56
1, 9398, Note_on_c, 0, 82, 55
1, 9398, Note_on_c, 0, 85, 45
1, 9400, Note_off_c, 0, 57, 64
1, 9400, Note_off_c, 0, 69, 64
1, 9401, Note_on_c, 0, 57, 40
1, 9401, Note_on_c, 0, 76, 51
1, 9401, Note_off_c, 0, 77, 64
1, 9401, Note_on_c, 0, 81, 49
1, 9402, Note_on_c, 0, 77, 46
1, 9402, Note_on_c, 0, 86, 35
1, 9403, Note_off_c, 0, 57, 64
1, 9403, Note_on_c, 0, 58, 38
1, 9403, Note_off_c, 0, 76, 64
1, 9403, Note_off_c, 0, 85, 64
1, 9405, Note_off_c, 0, 81, 64
1, 9406, Note_off_c, 0, 86, 64
1, 9407, Note_on_c, 0, 57, 36
1, 9407, Note_off_c, 0, 58, 64
1, 9407, Note_off_c, 0, 82, 64
1, 9410, Note_off_c, 0, 77, 64
1, 9411, Note_off_c, 0, 57, 64
1, 9411, Note_on_c, 0, 58, 44
1, 9417, Note_off_c, 0, 58, 64
1, 9419, Note_on_c, 0, 53, 31
1, 9420, Note_on_c, 0, 72, 17
1, 9421, Note_on_c, 0, 52, 30
1, 9421, Note_off_c, 0, 53, 64
1, 9423, Note_off_c, 0, 52, 64
1, 9423, Note_off_c, 0, 72, 64
1, 9428, Note_on_c, 0, 53, 24
1, 9431, Note_off_c, 0, 53, 64
1, 9433, Note_on_c, 0, 57, 32
1, 9434, Note_on_c, 0, 55, 26
1, 9438, Note_off_c, 0, 57, 64
1, 9439, Note_off_c, 0, 55, 64
1, 9439, Note_on_c, 0, 56, 29
1, 9441, Note_on_c, 0, 55, 25
1, 9441, Note_off_c, 0, 56, 64
1, 9445, Note_off_c, 0, 55, 64
1, 9446, Note_on_c, 0, 55, 29
1, 9448, Note_off_c, 0, 55, 64
1, 9449, Note_on_c, 0, 55, 24
1, 9457, Note_off_c, 0, 55, 64
1, 9476, Note_on_c, 0, 69, 57
1, 9477, Note_on_c, 0, 68, 82
1, 9478, Note_on_c, 0, 99, 29
1, 9479, Note_off_c, 0, 69, 64
1, 9479, Note_on_c, 0, 96, 10
1, 9482, Note_off_c, 0, 96, 64
1, 9483, Note_on_c, 0, 65, 58
1, 9483, Note_off_c, 0, 99, 64
1, 9484, Note_off_c, 0, 68, 64
1, 9487, Note_on_c, 0, 60, 35
1, 9487, Note_on_c, 0, 64, 46
1, 9487, Note_off_c, 0, 65, 64
1, 9488, Note_on_c, 0, 58, 37
1, 9488, Note_on_c, 0, 61, 37
1, 9488, Note_on_c, 0, 62, 33
1, 9488, Note_on_c, 0, 63, 44
1, 9489, Note_off_c, 0, 64, 64
1, 9490, Note_on_c, 0, 71, 26
1, 9490, Note_on_c, 0, 74, 40
1, 9492, Note_off_c, 0, 63, 64
1, 9493, Note_off_c, 0, 58, 64
1, 9493, Note_off_c, 0, 71, 64
1, 9493, Note_on_c, 0, 80, 21
1, 9494, Note_off_c, 0, 60, 64
1, 9495, Note_on_c, 0, 63, 51
1, 9496, Note_off_c, 0, 61, 64
1, 9496, Note_off_c, 0, 62, 64
1, 9496, Note_off_c, 0, 80, 64
1, 9498, Note_on_c, 0, 62, 51
1, 9498, Note_off_c, 0, 63, 64
1, 9498, Note_on_c, 0, 82, 45
1, 9500, Note_off_c, 0, 82, 64
1, 9501, Note_off_c, 0, 62, 64
1, 9501, Note_off_c, 0, 74, 64
1, 9502, Note_on_c, 0, 84, 75
1, 9503, Note_on_c, 0, 65, 43
1, 9503, Note_on_c, 0, 77, 57
1, 9503, Note_on_c, 0, 93, 31
1, 9507, Note_on_c, 0, 76, 62
1, 9507, Note_off_c, 0, 77, 64
1, 9507, Note_on_c, 0, 83, 78
1, 9507, Note_off_c, 0, 84, 64
1, 9507, Note_on_c, 0, 92, 31
1, 9507, Note_off_c, 0, 93, 64
1, 9508, Note_off_c, 0, 65, 64
1, 9508, Note_on_c, 0, 77, 71
1, 9509, Note_on_c, 0, 65, 86
1, 9509, Note_off_c, 0, 76, 64
1, 9509, Note_on_c, 0, 93, 45
1, 9509, Note_on_c, 0, 98, 22
1, 9510, Note_on_c, 0, 84, 64
1, 9511, Note_off_c, 0, 83, 64
1, 9511, Note_off_c, 0, 92, 64
1, 9512, Note_off_c, 0, 93, 64
1, 9512, Note_off_c, 0, 98, 64
1, 9513, Note_off_c, 0, 84, 64
1, 9515, Note_off_c, 0, 77, 64
1, 9516, Note_on_c, 0, 69, 41
1, 9516, Note_on_c, 0, 81, 41
1, 9516, Note_on_c, 0, 88, 19
1, 9517, Note_on_c, 0, 68, 48
1, 9517, Note_on_c, 0, 80, 89
1, 9517, Note_on_c, 0, 87, 65
1, 9519, Note_off_c, 0, 65, 64
1, 9519, Note_off_c, 0, 69, 64
1, 9519, Note_off_c, 0, 81, 64
1, 9519, Note_off_c, 0, 88, 64
1, 9519, Note_on_c, 0, 91, 40
1, 9521, Note_on_c, 0, 67, 43
1, 9521, Note_off_c, 0, 68, 64
1, 9521, Note_on_c, 0, 79, 68
1, 9521, Note_on_c, 0, 86, 46
1, 9522, Note_off_c, 0, 80, 64
1, 9522, Note_on_c, 0, 84, 59
1, 9522, Note_on_c, 0, 85, 38
1, 9522, Note_off_c, 0, 87, 64
1, 9522, Note_on_c, 0, 89, 71
1, 9523, Note_on_c, 0, 65, 48
1, 9523, Note_off_c, 0, 67, 64
1, 9523, Note_on_c, 0, 77, 82
1, 9523, Note_off_c, 0, 91, 64
1, 9524, Note_off_c, 0, 79, 64
1, 9524, Note_off_c, 0, 85, 64
1, 9524, Note_off_c, 0, 86, 64
1, 9527, Note_on_c, 0, 79, 45
1, 9527, Note_on_c, 0, 80, 44
1, 9528, Note_on_c, 0, 78, 45
1, 9528, Note_on_c, 0, 85, 27
1, 9528, Note_on_c, 0, 86, 22
1, 9529, Note_on_c, 0, 83, 49
1, 9529, Note_on_c, 0, 88, 54
1, 9530, Note_on_c, 0, 64, 46
1, 9530, Note_on_c, 0, 76, 78
1, 9530, Note_off_c, 0, 78, 64
1, 9531, Note_off_c, 0, 65, 64
1, 9531, Note_off_c, 0, 77, 64
1, 9531, Note_off_c, 0, 79, 64
1, 9531, Note_off_c, 0, 80, 64
1, 9531, Note_off_c, 0, 85, 64
1, 9531, Note_off_c, 0, 86, 64
1, 9533, Note_on_c, 0, 81, 53
1, 9533, Note_on_c, 0, 82, 35
1, 9533, Note_on_c, 0, 87, 28
1, 9533, Note_off_c, 0, 89, 64
1, 9534, Note_on_c, 0, 59, 41
1, 9534, Note_on_c, 0, 60, 37
1, 9534, Note_on_c, 0, 61, 24
1, 9534, Note_on_c, 0, 62, 45
1, 9534, Note_off_c, 0, 64, 64
1, 9534, Note_on_c, 0, 73, 29
1, 9534, Note_on_c, 0, 74, 60
1, 9534, Note_on_c, 0, 79, 21
1, 9534, Note_on_c, 0, 80, 18
1, 9535, Note_off_c, 0, 76, 64
1, 9536, Note_off_c, 0, 59, 64
1, 9536, Note_off_c, 0, 73, 64
1, 9536, Note_off_c, 0, 82, 64
1, 9536, Note_off_c, 0, 87, 64
1, 9537, Note_off_c, 0, 60, 64
1, 9537, Note_off_c, 0, 61, 64
1, 9537, Note_on_c, 0, 75, 65
1, 9537, Note_off_c, 0, 79, 64
1, 9537, Note_off_c, 0, 80, 64
1, 9537, Note_off_c, 0, 83, 64
1, 9537, Note_off_c, 0, 84, 64
1, 9537, Note_off_c, 0, 88, 64
1, 9538, Note_on_c, 0, 82, 49
1, 9539, Note_off_c, 0, 62, 64
1, 9539, Note_on_c, 0, 63, 38
1, 9541, Note_off_c, 0, 63, 64
1, 9541, Note_on_c, 0, 66, 58
1, 9541, Note_off_c, 0, 75, 64
1, 9541, Note_off_c, 0, 81, 64
1, 9541, Note_off_c, 0, 82, 64
1, 9542, Note_off_c, 0, 74, 64
1, 9544, Note_on_c, 0, 77, 29
1, 9546, Note_on_c, 0, 65, 48
1, 9546, Note_off_c, 0, 66, 64
1, 9547, Note_on_c, 0, 68, 55
1, 9547, Note_off_c, 0, 77, 64
1, 9548, Note_off_c, 0, 65, 64
1, 9554, Note_on_c, 0, 67, 48
1, 9554, Note_off_c, 0, 68, 64
1, 9555, Note_on_c, 0, 65, 79
1, 9555, Note_on_c, 0, 66, 43
1, 9555, Note_on_c, 0, 86, 30
1, 9556, Note_on_c, 0, 63, 51
1, 9557, Note_on_c, 0, 76, 44
1, 9557, Note_on_c, 0, 83, 26
1, 9557, Note_on_c, 0, 85, 27
1, 9558, Note_off_c, 0, 67, 64
1, 9558, Note_on_c, 0, 84, 13
1, 9558, Note_off_c, 0, 86, 64
1, 9559, Note_off_c, 0, 63, 64
1, 9559, Note_off_c, 0, 66, 64
1, 9560, Note_off_c, 0, 85, 64
1, 9561, Note_off_c, 0, 83, 64
1, 9562, Note_off_c, 0, 76, 64
1, 9563, Note_off_c, 0, 84, 64
1, 9566, Note_on_c, 0, 64, 63
1, 9566, Note_off_c, 0, 65, 64
1, 9567, Note_on_c, 0, 66, 47
1, 9568, Note_on_c, 0, 65, 43
1, 9570, Note_off_c, 0, 66, 64
1, 9571, Note_off_c, 0, 65, 64
1, 9574, Note_on_c, 0, 60, 33
1, 9574, Note_on_c, 0, 62, 21
1, 9574, Note_on_c, 0, 73, 19
1, 9575, Note_on_c, 0, 63, 41
1, 9575, Note_on_c, 0, 74, 48
1, 9575, Note_on_c, 0, 75, 44
1, 9576, Note_off_c, 0, 64, 64
1, 9577, Note_off_c, 0, 60, 64
1, 9577, Note_off_c, 0, 62, 64
1, 9577, Note_off_c, 0, 73, 64
1, 9579, Note_off_c, 0, 74, 64
1, 9580, Note_on_c, 0, 74, 44
1, 9580, Note_off_c, 0, 75, 64
1, 9581, Note_on_c, 0, 62, 31
1, 9581, Note_off_c, 0, 63, 64
1, 9584, Note_off_c, 0, 62, 64
1, 9584, Note_off_c, 0, 74, 64
1, 9593, Note_on_c, 0, 78, 71
1, 9594, Note_on_c, 0, 77, 81
1, 9594, Note_on_c, 0, 84, 77
1, 9594, Note_on_c, 0, 85, 42
1, 9595, Note_on_c, 0, 65, 34
1, 9597, Note_off_c, 0, 78, 64
1, 9597, Note_off_c, 0, 85, 64
1, 9598, Note_on_c, 0, 63, 23
1, 9598, Note_on_c, 0, 64, 42
1, 9598, Note_on_c, 0, 74, 37
1, 9598, Note_on_c, 0, 75, 39
1, 9598, Note_on_c, 0, 76, 71
1, 9598, Note_off_c, 0, 77, 64
1, 9598, Note_on_c, 0, 81, 49
1, 9598, Note_on_c, 0, 82, 48
1, 9598, Note_on_c, 0, 83, 70
1, 9599, Note_on_c, 0, 77, 75
1, 9600, Note_off_c, 0, 74, 64
1, 9600, Note_off_c, 0, 81, 64
1, 9601, Note_off_c, 0, 63, 64
1, 9601, Note_off_c, 0, 75, 64
1, 9601, Note_off_c, 0, 82, 64
1, 9602, Note_off_c, 0, 65, 64
1, 9603, Note_on_c, 0, 65, 40
1, 9604, Note_off_c, 0, 64, 64
1, 9604, Note_off_c, 0, 77, 64
1, 9604, Note_off_c, 0, 83, 64
1, 9605, Note_on_c, 0, 64, 29
1, 9605, Note_off_c, 0, 65, 64
1, 9605, Note_on_c, 0, 85, 21
1, 9606, Note_off_c, 0, 76, 64
1, 9606, Note_on_c, 0, 87, 82
1, 9607, Note_off_c, 0, 64, 64
1, 9607, Note_on_c, 0, 67, 28
1, 9607, Note_on_c, 0, 79, 47
1, 9607, Note_off_c, 0, 84, 64
1, 9607, Note_on_c, 0, 86, 74
1, 9608, Note_on_c, 0, 68, 37
1, 9608, Note_on_c, 0, 80, 62
1, 9608, Note_off_c, 0, 85, 64
1, 9610, Note_off_c, 0, 67, 64
1, 9610, Note_off_c, 0, 79, 64
1, 9611, Note_on_c, 0, 85, 55
1, 9611, Note_off_c, 0, 86, 64
1, 9612, Note_on_c, 0, 67, 38
1, 9612, Note_off_c, 0, 68, 64
1, 9612, Note_on_c, 0, 78, 34
1, 9612, Note_on_c, 0, 79, 60
1, 9612, Note_on_c, 0, 84, 53
1, 9612, Note_on_c, 0, 86, 64
1, 9613, Note_on_c, 0, 68, 24
1, 9613, Note_on_c, 0, 81, 36
1, 9615, Note_off_c, 0, 78, 64
1, 9615, Note_off_c, 0, 84, 64
1, 9615, Note_off_c, 0, 85, 64
1, 9616, Note_off_c, 0, 68, 64
1, 9616, Note_off_c, 0, 81, 64
1, 9617, Note_off_c, 0, 67, 64
1, 9618, Note_on_c, 0, 67, 40
1, 9618, Note_off_c, 0, 87, 64
1, 9619, Note_off_c, 0, 80, 64
1, 9620, Note_off_c, 0, 67, 64
1, 9620, Note_on_c, 0, 78, 53
1, 9620, Note_off_c, 0, 86, 64
1, 9621, Note_on_c, 0, 77, 39
1, 9621, Note_off_c, 0, 79, 64
1, 9621, Note_on_c, 0, 85, 53
1, 9622, Note_on_c, 0, 76, 60
1, 9622, Note_on_c, 0, 83, 68
1, 9622, Note_on_c, 0, 84, 48
1, 9623, Note_on_c, 0, 64, 40
1, 9624, Note_off_c, 0, 78, 64
1, 9624, Note_off_c, 0, 85, 64
1, 9626, Note_on_c, 0, 65, 36
1, 9626, Note_off_c, 0, 83, 64
1, 9627, Note_on_c, 0, 83, 24
1, 9628, Note_off_c, 0, 65, 64
1, 9629, Note_off_c, 0, 76, 64
1, 9630, Note_off_c, 0, 77, 64
1, 9630, Note_off_c, 0, 84, 64
1, 9631, Note_off_c, 0, 83, 64
1, 9632, Note_off_c, 0, 64, 64
1, 9633, Note_on_c, 0, 77, 61
1, 9633, Note_on_c, 0, 84, 69
1, 9634, Note_on_c, 0, 65, 42
1, 9635, Note_on_c, 0, 88, 44
1, 9635, Note_on_c, 0, 92, 38
1, 9636, Note_on_c, 0, 64, 43
1, 9636, Note_off_c, 0, 65, 64
1, 9636, Note_on_c, 0, 76, 65
1, 9636, Note_on_c, 0, 83, 80
1, 9637, Note_off_c, 0, 77, 64
1, 9637, Note_off_c, 0, 84, 64
1, 9638, Note_on_c, 0, 87, 46
1, 9639, Note_on_c, 0, 62, 39
1, 9639, Note_off_c, 0, 64, 64
1, 9639, Note_on_c, 0, 75, 50
1, 9639, Note_on_c, 0, 84, 28
1, 9639, Note_on_c, 0, 85, 29
1, 9639, Note_on_c, 0, 86, 69
1, 9639, Note_off_c, 0, 92, 64
1, 9640, Note_on_c, 0, 74, 41
1, 9640, Note_off_c, 0, 76, 64
1, 9640, Note_on_c, 0, 81, 70
1, 9640, Note_on_c, 0, 82, 70
1, 9640, Note_off_c, 0, 88, 64
1, 9641, Note_off_c, 0, 83, 64
1, 9641, Note_on_c, 0, 90, 40
1, 9642, Note_off_c, 0, 84, 64
1, 9642, Note_off_c, 0, 85, 64
1, 9643, Note_off_c, 0, 74, 64
1, 9644, Note_off_c, 0, 62, 64
1, 9644, Note_on_c, 0, 63, 46
1, 9645, Note_on_c, 0, 74, 49
1, 9645, Note_off_c, 0, 82, 64
1, 9646, Note_on_c, 0, 62, 53
1, 9646, Note_off_c, 0, 63, 64
1, 9646, Note_off_c, 0, 75, 64
1, 9646, Note_off_c, 0, 87, 64
1, 9647, Note_on_c, 0, 75, 26
1, 9648, Note_on_c, 0, 82, 39
1, 9649, Note_on_c, 0, 96, 11
1, 9650, Note_off_c, 0, 75, 64
1, 9650, Note_off_c, 0, 82, 64
1, 9650, Note_on_c, 0, 94, 27
1, 9651, Note_off_c, 0, 81, 64
1, 9651, Note_off_c, 0, 86, 64
1, 9651, Note_on_c, 0, 87, 57
1, 9652, Note_on_c, 0, 81, 40
1, 9652, Note_off_c, 0, 96, 64
1, 9653, Note_off_c, 0, 62, 64
1, 9653, Note_on_c, 0, 64, 54
1, 9653, Note_on_c, 0, 65, 56
1, 9653, Note_off_c, 0, 74, 64
1, 9653, Note_off_c, 0, 87, 64
1, 9653, Note_off_c, 0, 90, 64
1, 9653, Note_off_c, 0, 94, 64
1, 9654, Note_on_c, 0, 63, 77
1, 9654, Note_off_c, 0, 81, 64
1, 9656, Note_off_c, 0, 64, 64
1, 9656, Note_off_c, 0, 65, 64
1, 9659, Note_on_c, 0, 82, 17
1, 9661, Note_on_c, 0, 60, 59
1, 9661, Note_off_c, 0, 63, 64
1, 9662, Note_off_c, 0, 82, 64
1, 9667, Note_off_c, 0, 60, 64
1, 9668, Note_on_c, 0, 63, 62
1, 9677, Note_on_c, 0, 74, 44
1, 9679, Note_on_c, 0, 82, 16
1, 9680, Note_on_c, 0, 62, 32
1, 9680, Note_on_c, 0, 81, 15
1, 9685, Note_off_c, 0, 62, 64
1, 9685, Note_off_c, 0, 81, 64
1, 9686, Note_off_c, 0, 74, 64
1, 9686, Note_off_c, 0, 82, 64
1, 9687, Note_on_c, 0, 82, 17
1, 9693, Note_off_c, 0, 82, 64
1, 9699, Note_on_c, 0, 62, 35
1, 9699, Note_off_c, 0, 63, 64
1, 9700, Note_on_c, 0, 59, 33
1, 9701, Note_off_c, 0, 62, 64
1, 9703, Note_off_c, 0, 59, 64
1, 9710, Note_on_c, 0, 63, 30
1, 9711, Note_on_c, 0, 59, 58
1, 9712, Note_off_c, 0, 63, 64
1, 9714, Note_on_c, 0, 58, 38
1, 9716, Note_on_c, 0, 60, 51
1, 9717, Note_off_c, 0, 58, 64
1, 9720, Note_off_c, 0, 59, 64
1, 9724, Note_on_c, 0, 79, 49
1, 9725, Note_on_c, 0, 78, 59
1, 9725, Note_on_c, 0, 83, 65
1, 9725, Note_on_c, 0, 93, 23
1, 9726, Note_on_c, 0, 59, 44
1, 9726, Note_off_c, 0, 60, 64
1, 9726, Note_on_c, 0, 87, 40
1, 9728, Note_off_c, 0, 79, 64
1, 9729, Note_off_c, 0, 93, 64
1, 9730, Note_on_c, 0, 70, 33
1, 9731, Note_on_c, 0, 57, 23
1, 9731, Note_on_c, 0, 69, 23
1, 9731, Note_off_c, 0, 78, 64
1, 9731, Note_off_c, 0, 83, 64
1, 9731, Note_off_c, 0, 87, 64
1, 9732, Note_on_c, 0, 56, 26
1, 9732, Note_on_c, 0, 68, 26
1, 9733, Note_on_c, 0, 58, 51
1, 9733, Note_off_c, 0, 59, 64
1, 9734, Note_off_c, 0, 57, 64
1, 9736, Note_off_c, 0, 56, 64
1, 9737, Note_off_c, 0, 69, 64
1, 9738, Note_off_c, 0, 68, 64
1, 9740, Note_on_c, 0, 57, 50
1, 9740, Note_off_c, 0, 58, 64
1, 9740, Note_off_c, 0, 70, 64
1, 9743, Note_off_c, 0, 57, 64
1, 9744, Note_on_c, 0, 63, 62
1, 9745, Note_on_c, 0, 64, 45
1, 9746, Note_on_c, 0, 82, 44
1, 9747, Note_off_c, 0, 64, 64
1, 9753, Note_on_c, 0, 62, 52
1, 9753, Note_off_c, 0, 63, 64
1, 9754, Note_off_c, 0, 82, 64
1, 9755, Note_on_c, 0, 64, 40
1, 9756, Note_on_c, 0, 61, 32
1, 9756, Note_on_c, 0, 63, 40
1, 9757, Note_off_c, 0, 62, 64
1, 9758, Note_off_c, 0, 64, 64
1, 9759, Note_on_c, 0, 62, 45
1, 9760, Note_off_c, 0, 61, 64
1, 9761, Note_off_c, 0, 63, 64
1, 9765, Note_on_c, 0, 59, 62
1, 9767, Note_off_c, 0, 62, 64
1, 9770, Note_off_c, 0, 59, 64
1, 9770, Note_on_c, 0, 64, 34
1, 9771, Note_on_c, 0, 60, 46
1, 9772, Note_on_c, 0, 58, 40
1, 9773, Note_off_c, 0, 64, 64
1, 9773, Note_on_c, 0, 71, 17
1, 9774, Note_off_c, 0, 58, 64
1, 9774, Note_on_c, 0, 59, 57
1, 9775, Note_off_c, 0, 60, 64
1, 9777, Note_off_c, 0, 59, 64
1, 9777, Note_on_c, 0, 60, 56
1, 9777, Note_off_c, 0, 71, 64
1, 9778, Note_on_c, 0, 63, 48
1, 9779, Note_on_c, 0, 62, 39
1, 9780, Note_off_c, 0, 60, 64
1, 9782, Note_off_c, 0, 62, 64
1, 9783, Note_on_c, 0, 60, 41
1, 9783, Note_off_c, 0, 63, 64
1, 9783, Note_on_c, 0, 79, 48
1, 9783, Note_on_c, 0, 84, 64
1, 9783, Note_on_c, 0, 88, 40
1, 9786, Note_on_c, 0, 78, 39
1, 9786, Note_on_c, 0, 83, 58
1, 9786, Note_on_c, 0, 87, 50
1, 9786, Note_off_c, 0, 88, 64
1, 9787, Note_off_c, 0, 60, 64
1, 9787, Note_off_c, 0, 79, 64
1, 9787, Note_on_c, 0, 82, 24
1, 9788, Note_on_c, 0, 58, 14
1, 9788, Note_off_c, 0, 84, 64
1, 9788, Note_on_c, 0, 85, 24
1, 9788, Note_on_c, 0, 88, 33
1, 9789, Note_on_c, 0, 84, 66
1, 9790, Note_on_c, 0, 72, 28
1, 9790, Note_on_c, 0, 79, 54
1, 9790, Note_off_c, 0, 82, 64
1, 9791, Note_off_c, 0, 58, 64
1, 9791, Note_on_c, 0, 60, 41
1, 9791, Note_off_c, 0, 78, 64
1, 9791, Note_off_c, 0, 83, 64
1, 9791, Note_off_c, 0, 85, 64
1, 9791, Note_off_c, 0, 87, 64
1, 9792, Note_on_c, 0, 87, 41
1, 9792, Note_off_c, 0, 88, 64
1, 9794, Note_off_c, 0, 87, 64
1, 9795, Note_off_c, 0, 60, 64
1, 9795, Note_off_c, 0, 72, 64
1, 9795, Note_off_c, 0, 79, 64
1, 9796, Note_off_c, 0, 84, 64
1, 9797, Note_on_c, 0, 63, 52
1, 9798, Note_on_c, 0, 87, 13
1, 9801, Note_off_c, 0, 87, 64
1, 9802, Note_off_c, 0, 63, 64
1, 9804, Note_on_c, 0, 56, 32
1, 9805, Note_on_c, 0, 55, 22
1, 9810, Note_off_c, 0, 56, 64
1, 9811, Note_off_c, 0, 55, 64
1, 9821, Note_on_c, 0, 53, 51
1, 9822, Note_on_c, 0, 66, 42
1, 9824, Note_off_c, 0, 66, 64
1, 9825, Note_on_c, 0, 64, 34
1, 9826, Note_on_c, 0, 52, 44
1, 9826, Note_off_c, 0, 53, 64
1, 9830, Note_off_c, 0, 52, 64
1, 9830, Note_off_c, 0, 64, 64
1, 9831, Note_on_c, 0, 53, 32
1, 9834, Note_on_c, 0, 52, 38
1, 9835, Note_off_c, 0, 53, 64
1, 9838, Note_off_c, 0, 52, 64
1, 9838, Note_on_c, 0, 65, 29
1, 9840, Note_on_c, 0, 57, 43
1, 9840, Note_off_c, 0, 65, 64
1, 9842, Note_on_c, 0, 56, 55
1, 9842, Note_off_c, 0, 57, 64
1, 9847, Note_off_c, 0, 56, 64
1, 9847, Note_on_c, 0, 60, 34
1, 9848, Note_on_c, 0, 57, 37
1, 9849, Note_on_c, 0, 58, 31
1, 9849, Note_on_c, 0, 70, 37
1, 9850, Note_off_c, 0, 60, 64
1, 9852, Note_off_c, 0, 58, 64
1, 9853, Note_off_c, 0, 57, 64
1, 9853, Note_on_c, 0, 58, 29
1, 9853, Note_off_c, 0, 70, 64
1, 9854, Note_on_c, 0, 57, 42
1, 9856, Note_off_c, 0, 58, 64
1, 9859, Note_off_c, 0, 57, 64
1, 9859, Note_on_c, 0, 58, 39
1, 9861, Note_on_c, 0, 63, 36
1, 9862, Note_off_c, 0, 58, 64
1, 9862, Note_on_c, 0, 75, 43
1, 9862, Note_on_c, 0, 82, 52
1, 9862, Note_on_c, 0, 87, 43
1, 9866, Note_off_c, 0, 63, 64
1, 9866, Note_off_c, 0, 75, 64
1, 9866, Note_on_c, 0, 85, 26
1, 9866, Note_off_c, 0, 87, 64
1, 9867, Note_on_c, 0, 63, 76
1, 9867, Note_on_c, 0, 81, 28
1, 9868, Note_on_c, 0, 62, 25
1, 9870, Note_off_c, 0, 85, 64
1, 9871, Note_off_c, 0, 62, 64
1, 9871, Note_off_c, 0, 81, 64
1, 9874, Note_off_c, 0, 82, 64
1, 9882, Note_on_c, 0, 60, 63
1, 9883, Note_off_c, 0, 63, 64
1, 9887, Note_off_c, 0, 60, 64
1, 9888, Note_on_c, 0, 53, 37
1, 9890, Note_on_c, 0, 52, 35
1, 9890, Note_off_c, 0, 53, 64
1, 9893, Note_off_c, 0, 52, 64
1, 9894, Note_on_c, 0, 51, 32
1, 9895, Note_on_c, 0, 53, 46
1, 9897, Note_off_c, 0, 51, 64
1, 9897, Note_on_c, 0, 52, 37
1, 9899, Note_off_c, 0, 52, 64
1, 9900, Note_on_c, 0, 52, 43
1, 9900, Note_off_c, 0, 53, 64
1, 9904, Note_off_c, 0, 52, 64
1, 9904, Note_on_c, 0, 53, 39
1, 9906, Note_on_c, 0, 52, 39
1, 9906, Note_off_c, 0, 53, 64
1, 9910, Note_off_c, 0, 52, 64
1, 9910, Note_on_c, 0, 53, 37
1, 9912, Note_on_c, 0, 56, 30
1, 9913, Note_off_c, 0, 53, 64
1, 9914, Note_on_c, 0, 55, 26
1, 9918, Note_off_c, 0, 55, 64
1, 9919, Note_on_c, 0, 55, 32
1, 9919, Note_off_c, 0, 56, 64
1, 9924, Note_off_c, 0, 55, 64
1, 9924, Note_on_c, 0, 56, 29
1, 9926, Note_off_c, 0, 56, 64
1, 9942, Note_on_c, 0, 53, 45
1, 9943, Note_on_c, 0, 73, 28
1, 9944, Note_on_c, 0, 64, 29
1, 9944, Note_on_c, 0, 71, 31
1, 9944, Note_on_c, 0, 76, 41
1, 9944, Note_on_c, 0, 80, 35
1, 9945, Note_on_c, 0, 52, 41
1, 9945, Note_off_c, 0, 53, 64
1, 9946, Note_off_c, 0, 73, 64
1, 9947, Note_off_c, 0, 64, 64
1, 9947, Note_off_c, 0, 71, 64
1, 9948, Note_off_c, 0, 76, 64
1, 9948, Note_off_c, 0, 80, 64
1, 9949, Note_off_c, 0, 52, 64
1, 9958, Note_on_c, 0, 59, 52
1, 9959, Note_on_c, 0, 60, 56
1, 9961, Note_off_c, 0, 59, 64
1, 9962, Note_on_c, 0, 59, 55
1, 9962, Note_off_c, 0, 60, 64
1, 9963, Note_on_c, 0, 72, 34
1, 9964, Note_off_c, 0, 59, 64
1, 9964, Note_on_c, 0, 60, 51
1, 9965, Note_off_c, 0, 72, 64
1, 9966, Note_on_c, 0, 62, 33
1, 9968, Note_on_c, 0, 59, 44
1, 9969, Note_off_c, 0, 62, 64
1, 9972, Note_off_c, 0, 60, 64
1, 9973, Note_off_c, 0, 59, 64
1, 9973, Note_on_c, 0, 60, 44
1, 9975, Note_on_c, 0, 63, 57
1, 9975, Note_on_c, 0, 64, 48
1, 9977, Note_off_c, 0, 60, 64
1, 9977, Note_on_c, 0, 87, 30
1, 9978, Note_off_c, 0, 64, 64
1, 9980, Note_off_c, 0, 87, 64
1, 9981, Note_off_c, 0, 63, 64
1, 9983, Note_on_c, 0, 64, 50
1, 9984, Note_on_c, 0, 63, 70
1, 9984, Note_on_c, 0, 101, 19
1, 9985, Note_off_c, 0, 64, 64
1, 9988, Note_off_c, 0, 101, 64
1, 9990, Note_off_c, 0, 63, 64
1, 9991, Note_on_c, 0, 60, 62
1, 9995, Note_off_c, 0, 60, 64
1, 9996, Note_on_c, 0, 85, 20
1, 9997, Note_on_c, 0, 60, 46
1, 9997, Note_on_c, 0, 72, 59
1, 9997, Note_on_c, 0, 79, 29
1, 9998, Note_on_c, 0, 71, 60
1, 9999, Note_on_c, 0, 78, 30
1, 9999, Note_off_c, 0, 85, 64
1, 10000, Note_on_c, 0, 59, 42
1, 10001, Note_on_c, 0, 58, 34
1, 10001, Note_off_c, 0, 60, 64
1, 10001, Note_on_c, 0, 70, 36
1, 10001, Note_off_c, 0, 72, 64
1, 10001, Note_off_c, 0, 79, 64
1, 10002, Note_on_c, 0, 56, 23
1, 10002, Note_on_c, 0, 69, 47
1, 10002, Note_off_c, 0, 78, 64
1, 10002, Note_on_c, 0, 85, 23
1, 10003, Note_off_c, 0, 59, 64
1, 10004, Note_on_c, 0, 57, 38
1, 10005, Note_off_c, 0, 56, 64
1, 10005, Note_off_c, 0, 58, 64
1, 10005, Note_on_c, 0, 76, 16
1, 10006, Note_off_c, 0, 71, 64
1, 10007, Note_off_c, 0, 69, 64
1, 10007, Note_off_c, 0, 85, 64
1, 10008, Note_off_c, 0, 57, 64
1, 10008, Note_off_c, 0, 70, 64
1, 10008, Note_off_c, 0, 76, 64
1, 10009, Note_on_c, 0, 60, 48
1, 10009, Note_on_c, 0, 79, 47
1, 10009, Note_on_c, 0, 84, 67
1, 10009, Note_on_c, 0, 88, 52
1, 10010, Note_on_c, 0, 93, 21
1, 10011, Note_on_c, 0, 87, 36
1, 10014, Note_on_c, 0, 62, 39
1, 10014, Note_on_c, 0, 64, 60
1, 10014, Note_off_c, 0, 87, 64
1, 10014, Note_off_c, 0, 88, 64
1, 10014, Note_off_c, 0, 93, 64
1, 10015, Note_off_c, 0, 79, 64
1, 10015, Note_off_c, 0, 84, 64
1, 10016, Note_off_c, 0, 60, 64
1, 10016, Note_off_c, 0, 62, 64
1, 10016, Note_on_c, 0, 63, 72
1, 10018, Note_off_c, 0, 64, 64
1, 10020, Note_on_c, 0, 64, 51
1, 10022, Note_off_c, 0, 63, 64
1, 10024, Note_on_c, 0, 63, 52
1, 10024, Note_off_c, 0, 64, 64
1, 10028, Note_off_c, 0, 63, 64
1, 10029, Note_on_c, 0, 64, 37
1, 10031, Note_on_c, 0, 58, 30
1, 10032, Note_off_c, 0, 64, 64
1, 10033, Note_off_c, 0, 58, 64
1, 10033, Note_on_c, 0, 59, 31
1, 10033, Note_on_c, 0, 60, 33
1, 10036, Note_off_c, 0, 59, 64
1, 10040, Note_off_c, 0, 60, 64
1, 10055, Note_on_c, 0, 53, 42
1, 10058, Note_on_c, 0, 50, 20
1, 10059, Note_off_c, 0, 53, 64
1, 10060, Note_on_c, 0, 52, 30
1, 10061, Note_off_c, 0, 50, 64
1, 10064, Note_off_c, 0, 52, 64
1, 10069, Note_on_c, 0, 62, 40
1, 10069, Note_on_c, 0, 63, 52
1, 10069, Note_on_c, 0, 64, 36
1, 10071, Note_off_c, 0, 64, 64
1, 10072, Note_off_c, 0, 62, 64
1, 10076, Note_on_c, 0, 62, 34
1, 10076, Note_off_c, 0, 63, 64
1, 10076, Note_on_c, 0, 64, 37
1, 10078, Note_on_c, 0, 63, 51
1, 10080, Note_off_c, 0, 62, 64
1, 10080, Note_off_c, 0, 64, 64
1, 10081, Note_on_c, 0, 62, 33
1, 10082, Note_on_c, 0, 82, 44
1, 10083, Note_off_c, 0, 62, 64
1, 10089, Note_on_c, 0, 59, 56
1, 10089, Note_on_c, 0, 61, 35
1, 10089, Note_off_c, 0, 63, 64
1, 10089, Note_on_c, 0, 72, 49
1, 10089, Note_on_c, 0, 73, 57
1, 10089, Note_off_c, 0, 82, 64
1, 10090, Note_on_c, 0, 60, 65
1, 10091, Note_off_c, 0, 59, 64
1, 10091, Note_off_c, 0, 61, 64
1, 10091, Note_off_c, 0, 73, 64
1, 10093, Note_off_c, 0, 60, 64
1, 10093, Note_off_c, 0, 72, 64
1, 10094, Note_on_c, 0, 70, 47
1, 10095, Note_on_c, 0, 77, 42
1, 10096, Note_on_c, 0, 86, 24
1, 10097, Note_on_c, 0, 58, 48
1, 10099, Note_off_c, 0, 86, 64
1, 10101, Note_on_c, 0, 59, 28
1, 10101, Note_on_c, 0, 60, 36
1, 10101, Note_off_c, 0, 70, 64
1, 10101, Note_off_c, 0, 77, 64
1, 10104, Note_off_c, 0, 59, 64
1, 10104, Note_off_c, 0, 60, 64
1, 10106, Note_off_c, 0, 58, 64
1, 10107, Note_on_c, 0, 68, 29
1, 10107, Note_on_c, 0, 74, 34
1, 10108, Note_on_c, 0, 56, 33
1, 10108, Note_on_c, 0, 84, 25
1, 10109, Note_on_c, 0, 67, 18
1, 10109, Note_on_c, 0, 75, 34
1, 10110, Note_off_c, 0, 56, 64
1, 10111, Note_off_c, 0, 68, 64
1, 10111, Note_off_c, 0, 74, 64
1, 10111, Note_off_c, 0, 75, 64
1, 10111, Note_off_c, 0, 84, 64
1, 10112, Note_off_c, 0, 67, 64
1, 10113, Note_on_c, 0, 60, 27
1, 10114, Note_on_c, 0, 57, 48
1, 10115, Note_on_c, 0, 53, 27
1, 10116, Note_off_c, 0, 60, 64
1, 10118, Note_off_c, 0, 53, 64
1, 10120, Note_on_c, 0, 70, 27
1, 10121, Note_off_c, 0, 57, 64
1, 10121, Note_on_c, 0, 58, 48
1, 10123, Note_on_c, 0, 61, 44
1, 10123, Note_off_c, 0, 70, 64
1, 10124, Note_off_c, 0, 58, 64
1, 10125, Note_off_c, 0, 61, 64
1, 10126, Note_on_c, 0, 82, 29
1, 10127, Note_on_c, 0, 59, 23
1, 10127, Note_on_c, 0, 78, 26
1, 10127, Note_on_c, 0, 83, 19
1, 10127, Note_on_c, 0, 87, 15
1, 10128, Note_off_c, 0, 82, 64
1, 10130, Note_off_c, 0, 59, 64
1, 10130, Note_off_c, 0, 78, 64
1, 10130, Note_off_c, 0, 83, 64
1, 10130, Note_on_c, 0, 86, 29
1, 10130, Note_off_c, 0, 87, 64
1, 10132, Note_on_c, 0, 85, 22
1, 10132, Note_off_c, 0, 86, 64
1, 10133, Note_on_c, 0, 84, 30
1, 10135, Note_on_c, 0, 53, 38
1, 10135, Note_off_c, 0, 85, 64
1, 10138, Note_off_c, 0, 84, 64
1, 10141, Note_on_c, 0, 64, 36
1, 10142, Note_off_c, 0, 53, 64
1, 10142, Note_on_c, 0, 65, 34
1, 10143, Note_on_c, 0, 53, 41
1, 10144, Note_off_c, 0, 64, 64
1, 10144, Note_on_c, 0, 72, 23
1, 10147, Note_off_c, 0, 72, 64
1, 10150, Note_off_c, 0, 53, 64
1, 10150, Note_off_c, 0, 65, 64
1, 10151, Note_on_c, 0, 56, 32
1, 10156, Note_off_c, 0, 56, 64
1, 10157, Note_on_c, 0, 56, 30
1, 10162, Note_off_c, 0, 56, 64
1, 10183, Note_on_c, 0, 79, 71
1, 10184, Note_on_c, 0, 67, 39
1, 10184, Note_on_c, 0, 86, 75
1, 10184, Note_on_c, 0, 95, 19
1, 10184, Note_on_c, 0, 101, 23
1, 10186, Note_on_c, 0, 84, 38
1, 10186, Note_on_c, 0, 85, 40
1, 10187, Note_on_c, 0, 66, 18
1, 10187, Note_on_c, 0, 77, 35
1, 10187, Note_on_c, 0, 78, 32
1, 10187, Note_off_c, 0, 95, 64
1, 10187, Note_off_c, 0, 101, 64
1, 10188, Note_on_c, 0, 64, 30
1, 10188, Note_off_c, 0, 67, 64
1, 10188, Note_off_c, 0, 79, 64
1, 10189, Note_on_c, 0, 67, 54
1, 10189, Note_off_c, 0, 77, 64
1, 10189, Note_off_c, 0, 78, 64
1, 10189, Note_off_c, 0, 85, 64
1, 10189, Note_off_c, 0, 86, 64
1, 10190, Note_off_c, 0, 64, 64
1, 10190, Note_off_c, 0, 66, 64
1, 10190, Note_on_c, 0, 68, 60
1, 10190, Note_on_c, 0, 79, 68
1, 10190, Note_off_c, 0, 84, 64
1, 10191, Note_on_c, 0, 80, 78
1, 10194, Note_off_c, 0, 67, 64
1, 10195, Note_on_c, 0, 67, 50
1, 10196, Note_on_c, 0, 66, 53
1, 10196, Note_off_c, 0, 68, 64
1, 10197, Note_on_c, 0, 68, 33
1, 10197, Note_on_c, 0, 86, 64
1, 10197, Note_on_c, 0, 87, 41
1, 10198, Note_on_c, 0, 65, 42
1, 10198, Note_off_c, 0, 67, 64
1, 10198, Note_on_c, 0, 77, 57
1, 10198, Note_on_c, 0, 84, 42
1, 10198, Note_on_c, 0, 85, 40
1, 10199, Note_off_c, 0, 66, 64
1, 10199, Note_off_c, 0, 68, 64
1, 10199, Note_on_c, 0, 83, 66
1, 10199, Note_on_c, 0, 88, 33
1, 10200, Note_on_c, 0, 64, 53
1, 10200, Note_off_c, 0, 65, 64
1, 10200, Note_on_c, 0, 76, 70
1, 10200, Note_off_c, 0, 77, 64
1, 10201, Note_off_c, 0, 79, 64
1, 10201, Note_off_c, 0, 80, 64
1, 10201, Note_on_c, 0, 81, 53
1, 10201, Note_off_c, 0, 84, 64
1, 10202, Note_on_c, 0, 62, 46
1, 10202, Note_on_c, 0, 74, 66
1, 10202, Note_on_c, 0, 75, 39
1, 10202, Note_on_c, 0, 82, 36
1, 10202, Note_off_c, 0, 83, 64
1, 10202, Note_off_c, 0, 88, 64
1, 10203, Note_off_c, 0, 64, 64
1, 10203, Note_off_c, 0, 76, 64
1, 10204, Note_off_c, 0, 75, 64
1, 10204, Note_off_c, 0, 82, 64
1, 10204, Note_off_c, 0, 85, 64
1, 10204, Note_off_c, 0, 87, 64
1, 10208, Note_off_c, 0, 86, 64
1, 10209, Note_off_c, 0, 62, 64
1, 10209, Note_off_c, 0, 74, 64
1, 10209, Note_off_c, 0, 81, 64
1, 10210, Note_on_c, 0, 68, 69
1, 10210, Note_on_c, 0, 87, 52
1, 10213, Note_on_c, 0, 79, 54
1, 10213, Note_on_c, 0, 86, 38
1, 10214, Note_on_c, 0, 67, 55
1, 10214, Note_on_c, 0, 78, 36
1, 10215, Note_on_c, 0, 85, 29
1, 10216, Note_on_c, 0, 69, 58
1, 10217, Note_off_c, 0, 68, 64
1, 10217, Note_off_c, 0, 78, 64
1, 10217, Note_off_c, 0, 85, 64
1, 10218, Note_on_c, 0, 68, 61
1, 10219, Note_off_c, 0, 69, 64
1, 10220, Note_off_c, 0, 67, 64
1, 10221, Note_on_c, 0, 67, 36
1, 10221, Note_off_c, 0, 79, 64
1, 10222, Note_off_c, 0, 86, 64
1, 10223, Note_on_c, 0, 69, 55
1, 10223, Note_off_c, 0, 87, 64
1, 10224, Note_off_c, 0, 68, 64
1, 10225, Note_off_c, 0, 67, 64
1, 10225, Note_off_c, 0, 69, 64
1, 10228, Note_on_c, 0, 65, 57
1, 10228, Note_on_c, 0, 99, 25
1, 10230, Note_on_c, 0, 98, 49
1, 10231, Note_on_c, 0, 76, 89
1, 10231, Note_on_c, 0, 95, 34
1, 10231, Note_on_c, 0, 100, 12
1, 10232, Note_on_c, 0, 64, 54
1, 10232, Note_off_c, 0, 65, 64
1, 10232, Note_on_c, 0, 92, 16
1, 10232, Note_on_c, 0, 96, 58
1, 10232, Note_off_c, 0, 99, 64
1, 10233, Note_on_c, 0, 77, 94
1, 10233, Note_on_c, 0, 84, 36
1, 10234, Note_off_c, 0, 76, 64
1, 10234, Note_off_c, 0, 95, 64
1, 10234, Note_off_c, 0, 100, 64
1, 10235, Note_off_c, 0, 64, 64
1, 10235, Note_on_c, 0, 65, 44
1, 10235, Note_off_c, 0, 92, 64
1, 10237, Note_on_c, 0, 66, 17
1, 10237, Note_on_c, 0, 67, 28
1, 10237, Note_on_c, 0, 78, 62
1, 10237, Note_on_c, 0, 79, 67
1, 10238, Note_on_c, 0, 76, 80
1, 10238, Note_on_c, 0, 95, 24
1, 10239, Note_on_c, 0, 64, 44
1, 10239, Note_on_c, 0, 83, 28
1, 10240, Note_off_c, 0, 65, 64
1, 10240, Note_off_c, 0, 66, 64
1, 10240, Note_off_c, 0, 67, 64
1, 10241, Note_off_c, 0, 77, 64
1, 10241, Note_off_c, 0, 78, 64
1, 10241, Note_off_c, 0, 79, 64
1, 10241, Note_off_c, 0, 84, 64
1, 10242, Note_on_c, 0, 62, 59
1, 10242, Note_off_c, 0, 83, 64
1, 10242, Note_off_c, 0, 96, 64
1, 10243, Note_on_c, 0, 63, 69
1, 10243, Note_off_c, 0, 95, 64
1, 10243, Note_off_c, 0, 98, 64
1, 10244, Note_off_c, 0, 64, 64
1, 10244, Note_off_c, 0, 76, 64
1, 10245, Note_off_c, 0, 62, 64
1, 10250, Note_on_c, 0, 62, 32
1, 10250, Note_on_c, 0, 73, 43
1, 10251, Note_on_c, 0, 59, 37
1, 10251, Note_on_c, 0, 60, 41
1, 10251, Note_on_c, 0, 70, 30
1, 10251, Note_on_c, 0, 77, 41
1, 10251, Note_on_c, 0, 78, 26
1, 10251, Note_on_c, 0, 86, 28
1, 10252, Note_off_c, 0, 62, 64
1, 10252, Note_off_c, 0, 63, 64
1, 10252, Note_on_c, 0, 79, 20
1, 10254, Note_off_c, 0, 73, 64
1, 10254, Note_off_c, 0, 86, 64
1, 10255, Note_off_c, 0, 59, 64
1, 10255, Note_off_c, 0, 77, 64
1, 10255, Note_off_c, 0, 78, 64
1, 10255, Note_off_c, 0, 79, 64
1, 10256, Note_on_c, 0, 59, 51
1, 10256, Note_off_c, 0, 60, 64
1, 10256, Note_off_c, 0, 70, 64
1, 10261, Note_off_c, 0, 59, 64
1, 10262, Note_on_c, 0, 67, 43
1, 10263, Note_on_c, 0, 65, 66
1, 10264, Note_off_c, 0, 67, 64
1, 10264, Note_on_c, 0, 101, 15
1, 10266, Note_on_c, 0, 64, 53
1, 10267, Note_on_c, 0, 54, 31
1, 10267, Note_on_c, 0, 60, 29
1, 10267, Note_off_c, 0, 65, 64
1, 10267, Note_off_c, 0, 101, 64
1, 10268, Note_on_c, 0, 58, 38
1, 10268, Note_on_c, 0, 68, 26
1, 10268, Note_on_c, 0, 69, 29
1, 10269, Note_off_c, 0, 64, 64
1, 10269, Note_on_c, 0, 71, 38
1, 10270, Note_off_c, 0, 54, 64
1, 10270, Note_on_c, 0, 59, 51
1, 10270, Note_off_c, 0, 60, 64
1, 10270, Note_off_c, 0, 69, 64
1, 10271, Note_off_c, 0, 58, 64
1, 10271, Note_off_c, 0, 68, 64
1, 10275, Note_off_c, 0, 71, 64
1, 10276, Note_off_c, 0, 59, 64
1, 10276, Note_on_c, 0, 62, 47
1, 10276, Note_on_c, 0, 63, 52
1, 10278, Note_off_c, 0, 63, 64
1, 10285, Note_off_c, 0, 62, 64
1, 10285, Note_on_c, 0, 63, 45
1, 10288, Note_off_c, 0, 63, 64
1, 10300, Note_on_c, 0, 99, 32
1, 10301, Note_on_c, 0, 68, 67
1, 10302, Note_on_c, 0, 87, 29
1, 10304, Note_on_c, 0, 79, 63
1, 10304, Note_on_c, 0, 86, 33
1, 10304, Note_off_c, 0, 99, 64
1, 10306, Note_off_c, 0, 68, 64
1, 10306, Note_off_c, 0, 87, 64
1, 10307, Note_off_c, 0, 79, 64
1, 10307, Note_off_c, 0, 86, 64
1, 10312, Note_on_c, 0, 68, 37
1, 10312, Note_on_c, 0, 77, 56
1, 10313, Note_on_c, 0, 76, 86
1, 10313, Note_on_c, 0, 83, 32
1, 10314, Note_on_c, 0, 64, 45
1, 10315, Note_off_c, 0, 68, 64
1, 10316, Note_off_c, 0, 77, 64
1, 10317, Note_on_c, 0, 62, 37
1, 10317, Note_on_c, 0, 63, 29
1, 10317, Note_off_c, 0, 64, 64
1, 10317, Note_on_c, 0, 72, 25
1, 10317, Note_on_c, 0, 82, 25
1, 10317, Note_off_c, 0, 83, 64
1, 10317, Note_on_c, 0, 86, 44
1, 10317, Note_on_c, 0, 87, 44
1, 10318, Note_on_c, 0, 60, 34
1, 10318, Note_on_c, 0, 73, 33
1, 10318, Note_on_c, 0, 74, 65
1, 10318, Note_on_c, 0, 75, 57
1, 10318, Note_on_c, 0, 81, 36
1, 10320, Note_off_c, 0, 60, 64
1, 10320, Note_off_c, 0, 63, 64
1, 10320, Note_off_c, 0, 72, 64
1, 10320, Note_off_c, 0, 76, 64
1, 10321, Note_off_c, 0, 73, 64
1, 10322, Note_off_c, 0, 75, 64
1, 10322, Note_off_c, 0, 82, 64
1, 10322, Note_off_c, 0, 87, 64
1, 10324, Note_off_c, 0, 81, 64
1, 10324, Note_off_c, 0, 86, 64
1, 10325, Note_off_c, 0, 62, 64
1, 10325, Note_off_c, 0, 74, 64
1, 10327, Note_on_c, 0, 68, 62
1, 10327, Note_on_c, 0, 99, 18
1, 10330, Note_on_c, 0, 80, 82
1, 10331, Note_off_c, 0, 99, 64
1, 10333, Note_on_c, 0, 67, 48
1, 10333, Note_on_c, 0, 79, 87
1, 10333, Note_on_c, 0, 86, 63
1, 10334, Note_off_c, 0, 68, 64
1, 10335, Note_on_c, 0, 87, 75
1, 10336, Note_off_c, 0, 67, 64
1, 10336, Note_on_c, 0, 68, 44
1, 10337, Note_off_c, 0, 86, 64
1, 10338, Note_off_c, 0, 79, 64
1, 10339, Note_on_c, 0, 66, 45
1, 10339, Note_off_c, 0, 68, 64
1, 10339, Note_off_c, 0, 80, 64
1, 10339, Note_off_c, 0, 87, 64
1, 10340, Note_on_c, 0, 64, 58
1, 10344, Note_off_c, 0, 64, 64
1, 10344, Note_on_c, 0, 65, 55
1, 10344, Note_on_c, 0, 77, 73
1, 10344, Note_on_c, 0, 98, 47
1, 10344, Note_on_c, 0, 99, 31
1, 10345, Note_off_c, 0, 66, 64
1, 10346, Note_on_c, 0, 83, 44
1, 10346, Note_off_c, 0, 99, 64
1, 10347, Note_on_c, 0, 64, 50
1, 10347, Note_off_c, 0, 65, 64
1, 10347, Note_on_c, 0, 76, 92
1, 10347, Note_off_c, 0, 77, 64
1, 10349, Note_off_c, 0, 83, 64
1, 10349, Note_on_c, 0, 84, 47
1, 10349, Note_on_c, 0, 89, 21
1, 10350, Note_off_c, 0, 64, 64
1, 10350, Note_on_c, 0, 65, 46
1, 10350, Note_off_c, 0, 76, 64
1, 10350, Note_on_c, 0, 77, 88
1, 10351, Note_on_c, 0, 99, 24
1, 10352, Note_on_c, 0, 66, 25
1, 10352, Note_on_c, 0, 79, 70
1, 10352, Note_off_c, 0, 98, 64
1, 10353, Note_on_c, 0, 67, 32
1, 10353, Note_on_c, 0, 78, 62
1, 10353, Note_off_c, 0, 89, 64
1, 10353, Note_on_c, 0, 95, 26
1, 10354, Note_on_c, 0, 64, 46
1, 10354, Note_on_c, 0, 76, 75
1, 10354, Note_on_c, 0, 83, 38
1, 10354, Note_on_c, 0, 98, 26
1, 10354, Note_off_c, 0, 99, 64
1, 10355, Note_off_c, 0, 66, 64
1, 10355, Note_off_c, 0, 67, 64
1, 10356, Note_on_c, 0, 63, 78
1, 10356, Note_off_c, 0, 65, 64
1, 10356, Note_off_c, 0, 77, 64
1, 10356, Note_off_c, 0, 78, 64
1, 10356, Note_off_c, 0, 79, 64
1, 10356, Note_off_c, 0, 84, 64
1, 10357, Note_on_c, 0, 62, 48
1, 10357, Note_off_c, 0, 83, 64
1, 10358, Note_off_c, 0, 95, 64
1, 10358, Note_off_c, 0, 98, 64
1, 10359, Note_off_c, 0, 64, 64
1, 10359, Note_off_c, 0, 76, 64
1, 10360, Note_off_c, 0, 62, 64
1, 10364, Note_on_c, 0, 60, 29
1, 10364, Note_on_c, 0, 61, 31
1, 10365, Note_on_c, 0, 64, 43
1, 10365, Note_on_c, 0, 65, 52
1, 10365, Note_on_c, 0, 77, 86
1, 10365, Note_on_c, 0, 99, 39
1, 10366, Note_off_c, 0, 60, 64
1, 10366, Note_off_c, 0, 61, 64
1, 10366, Note_on_c, 0, 98, 52
1, 10366, Note_on_c, 0, 101, 15
1, 10367, Note_off_c, 0, 63, 64
1, 10367, Note_off_c, 0, 64, 64
1, 10367, Note_on_c, 0, 84, 39
1, 10367, Note_on_c, 0, 96, 39
1, 10369, Note_on_c, 0, 76, 32
1, 10370, Note_on_c, 0, 64, 57
1, 10371, Note_off_c, 0, 65, 64
1, 10371, Note_off_c, 0, 84, 64
1, 10371, Note_off_c, 0, 99, 64
1, 10371, Note_off_c, 0, 101, 64
1, 10372, Note_on_c, 0, 68, 67
1, 10372, Note_on_c, 0, 69, 39
1, 10372, Note_off_c, 0, 96, 64
1, 10372, Note_off_c, 0, 98, 64
1, 10373, Note_off_c, 0, 76, 64
1, 10373, Note_off_c, 0, 77, 64
1, 10374, Note_off_c, 0, 64, 64
1, 10375, Note_off_c, 0, 69, 64
1, 10378, Note_on_c, 0, 80, 79
1, 10378, Note_on_c, 0, 87, 66
1, 10380, Note_on_c, 0, 79, 61
1, 10380, Note_on_c, 0, 86, 25
1, 10380, Note_on_c, 0, 96, 31
1, 10382, Note_on_c, 0, 67, 51
1, 10383, Note_off_c, 0, 86, 64
1, 10383, Note_off_c, 0, 87, 64
1, 10383, Note_off_c, 0, 96, 64
1, 10384, Note_on_c, 0, 65, 56
1, 10384, Note_off_c, 0, 79, 64
1, 10385, Note_off_c, 0, 80, 64
1, 10386, Note_on_c, 0, 66, 41
1, 10386, Note_off_c, 0, 68, 64
1, 10389, Note_off_c, 0, 67, 64
1, 10390, Note_off_c, 0, 66, 64
1, 10392, Note_on_c, 0, 64, 34
1, 10393, Note_on_c, 0, 62, 39
1, 10393, Note_on_c, 0, 63, 50
1, 10393, Note_off_c, 0, 65, 64
1, 10394, Note_on_c, 0, 60, 30
1, 10395, Note_off_c, 0, 64, 64
1, 10396, Note_off_c, 0, 60, 64
1, 10396, Note_on_c, 0, 64, 46
1, 10398, Note_off_c, 0, 62, 64
1, 10398, Note_off_c, 0, 64, 64
1, 10410, Note_on_c, 0, 62, 31
1, 10410, Note_off_c, 0, 63, 64
1, 10413, Note_on_c, 0, 60, 27
1, 10413, Note_off_c, 0, 62, 64
1, 10416, Note_off_c, 0, 60, 64
1, 10424, Note_on_c, 0, 72, 52
1, 10424, Note_on_c, 0, 73, 36
1, 10424, Note_on_c, 0, 79, 23
1, 10425, Note_on_c, 0, 60, 51
1, 10425, Note_on_c, 0, 98, 15
1, 10427, Note_on_c, 0, 71, 49
1, 10427, Note_off_c, 0, 73, 64
1, 10428, Note_on_c, 0, 59, 44
1, 10428, Note_off_c, 0, 98, 64
1, 10429, Note_off_c, 0, 60, 64
1, 10430, Note_off_c, 0, 59, 64
1, 10430, Note_on_c, 0, 60, 41
1, 10430, Note_off_c, 0, 71, 64
1, 10430, Note_off_c, 0, 79, 64
1, 10431, Note_on_c, 0, 71, 34
1, 10433, Note_off_c, 0, 72, 64
1, 10434, Note_off_c, 0, 60, 64
1, 10435, Note_off_c, 0, 71, 64
1, 10437, Note_on_c, 0, 64, 20
1, 10437, Note_on_c, 0, 74, 68
1, 10437, Note_on_c, 0, 75, 73
1, 10437, Note_on_c, 0, 76, 30
1, 10438, Note_on_c, 0, 62, 44
1, 10438, Note_on_c, 0, 81, 33
1, 10439, Note_on_c, 0, 96, 40
1, 10440, Note_off_c, 0, 62, 64
1, 10440, Note_on_c, 0, 63, 41
1, 10440, Note_off_c, 0, 64, 64
1, 10440, Note_off_c, 0, 76, 64
1, 10440, Note_on_c, 0, 82, 29
1, 10441, Note_off_c, 0, 74, 64
1, 10442, Note_on_c, 0, 62, 43
1, 10442, Note_off_c, 0, 63, 64
1, 10442, Note_on_c, 0, 74, 76
1, 10442, Note_on_c, 0, 98, 22
1, 10443, Note_off_c, 0, 75, 64
1, 10443, Note_off_c, 0, 82, 64
1, 10444, Note_on_c, 0, 60, 50
1, 10444, Note_on_c, 0, 97, 43
1, 10445, Note_off_c, 0, 62, 64
1, 10445, Note_on_c, 0, 71, 79
1, 10445, Note_off_c, 0, 74, 64
1, 10445, Note_on_c, 0, 78, 42
1, 10445, Note_off_c, 0, 81, 64
1, 10446, Note_on_c, 0, 59, 56
1, 10446, Note_off_c, 0, 60, 64
1, 10446, Note_off_c, 0, 96, 64
1, 10446, Note_off_c, 0, 98, 64
1, 10449, Note_off_c, 0, 59, 64
1, 10449, Note_on_c, 0, 60, 50
1, 10449, Note_off_c, 0, 78, 64
1, 10449, Note_on_c, 0, 79, 31
1, 10450, Note_on_c, 0, 62, 30
1, 10450, Note_off_c, 0, 71, 64
1, 10450, Note_on_c, 0, 73, 33
1, 10450, Note_on_c, 0, 74, 36
1, 10450, Note_on_c, 0, 75, 37
1, 10450, Note_off_c, 0, 97, 64
1, 10451, Note_off_c, 0, 79, 64
1, 10453, Note_off_c, 0, 62, 64
1, 10453, Note_on_c, 0, 71, 39
1, 10453, Note_off_c, 0, 74, 64
1, 10453, Note_off_c, 0, 75, 64
1, 10453, Note_on_c, 0, 79, 22
1, 10454, Note_off_c, 0, 73, 64
1, 10455, Note_off_c, 0, 71, 64
1, 10457, Note_on_c, 0, 63, 38
1, 10457, Note_on_c, 0, 74, 34
1, 10457, Note_on_c, 0, 75, 60
1, 10457, Note_on_c, 0, 76, 41
1, 10457, Note_off_c, 0, 79, 64
1, 10459, Note_off_c, 0, 60, 64
1, 10459, Note_off_c, 0, 74, 64
1, 10460, Note_off_c, 0, 76, 64
1, 10462, Note_off_c, 0, 63, 64
1, 10462, Note_off_c, 0, 75, 64
1, 10464, Note_on_c, 0, 63, 55
1, 10468, Note_on_c, 0, 62, 49
1, 10468, Note_off_c, 0, 63, 64
1, 10470, Note_on_c, 0, 60, 53
1, 10470, Note_on_c, 0, 79, 28
1, 10471, Note_off_c, 0, 62, 64
1, 10474, Note_off_c, 0, 79, 64
1, 10475, Note_off_c, 0, 60, 64
1, 10477, Note_on_c, 0, 57, 31
1, 10477, Note_on_c, 0, 58, 42
1, 10479, Note_off_c, 0, 57, 64
1, 10482, Note_off_c, 0, 58, 64
1, 10482, Note_on_c, 0, 64, 49
1, 10484, Note_on_c, 0, 63, 56
1, 10484, Note_off_c, 0, 64, 64
1, 10487, Note_on_c, 0, 74, 59
1, 10488, Note_on_c, 0, 62, 36
1, 10488, Note_off_c, 0, 63, 64
1, 10488, Note_on_c, 0, 81, 29
1, 10489, Note_on_c, 0, 79, 30
1, 10489, Note_on_c, 0, 85, 39
1, 10490, Note_on_c, 0, 59, 59
1, 10490, Note_off_c, 0, 62, 64
1, 10490, Note_on_c, 0, 72, 33
1, 10490, Note_off_c, 0, 74, 64
1, 10490, Note_on_c, 0, 78, 31
1, 10490, Note_off_c, 0, 81, 64
1, 10490, Note_on_c, 0, 84, 40
1, 10491, Note_off_c, 0, 85, 64
1, 10492, Note_off_c, 0, 72, 64
1, 10492, Note_off_c, 0, 79, 64
1, 10492, Note_off_c, 0, 84, 64
1, 10493, Note_off_c, 0, 78, 64
1, 10494, Note_off_c, 0, 59, 64
1, 10496, Note_on_c, 0, 59, 33
1, 10497, Note_on_c, 0, 69, 32
1, 10497, Note_on_c, 0, 70, 58
1, 10498, Note_on_c, 0, 58, 50
1, 10498, Note_off_c, 0, 59, 64
1, 10498, Note_on_c, 0, 77, 21
1, 10499, Note_off_c, 0, 69, 64
1, 10501, Note_on_c, 0, 59, 59
1, 10501, Note_on_c, 0, 60, 56
1, 10501, Note_off_c, 0, 77, 64
1, 10503, Note_off_c, 0, 70, 64
1, 10504, Note_off_c, 0, 58, 64
1, 10504, Note_off_c, 0, 60, 64
1, 10508, Note_off_c, 0, 59, 64
1, 10509, Note_on_c, 0, 64, 38
1, 10510, Note_on_c, 0, 63, 57
1, 10512, Note_off_c, 0, 64, 64
1, 10518, Note_on_c, 0, 62, 50
1, 10518, Note_off_c, 0, 63, 64
1, 10519, Note_on_c, 0, 63, 54
1, 10525, Note_off_c, 0, 63, 64
1, 10526, Note_off_c, 0, 62, 64
1, 10535, Note_on_c, 0, 72, 55
1, 10536, Note_on_c, 0, 60, 51
1, 10538, Note_on_c, 0, 59, 58
1, 10538, Note_off_c, 0, 60, 64
1, 10538, Note_off_c, 0, 72, 64
1, 10538, Note_on_c, 0, 78, 37
1, 10541, Note_on_c, 0, 60, 36
1, 10541, Note_on_c, 0, 79, 26
1, 10543, Note_off_c, 0, 60, 64
1, 10544, Note_off_c, 0, 78, 64
1, 10544, Note_off_c, 0, 79, 64
1, 10547, Note_on_c, 0, 58, 40
1, 10547, Note_off_c, 0, 59, 64
1, 10548, Note_on_c, 0, 70, 49
1, 10549, Note_on_c, 0, 86, 13
1, 10550, Note_on_c, 0, 69, 43
1, 10550, Note_on_c, 0, 85, 21
1, 10551, Note_on_c, 0, 57, 42
1, 10551, Note_off_c, 0, 58, 64
1, 10552, Note_on_c, 0, 56, 22
1, 10552, Note_on_c, 0, 68, 23
1, 10552, Note_off_c, 0, 86, 64
1, 10553, Note_on_c, 0, 53, 36
1, 10553, Note_on_c, 0, 55, 39
1, 10553, Note_off_c, 0, 85, 64
1, 10554, Note_off_c, 0, 57, 64
1, 10554, Note_off_c, 0, 70, 64
1, 10555, Note_off_c, 0, 56, 64
1, 10555, Note_on_c, 0, 57, 34
1, 10556, Note_off_c, 0, 53, 64
1, 10557, Note_off_c, 0, 57, 64
1, 10557, Note_off_c, 0, 68, 64
1, 10557, Note_off_c, 0, 69, 64
1, 10560, Note_off_c, 0, 55, 64
1, 10561, Note_on_c, 0, 58, 46
1, 10562, Note_on_c, 0, 69, 55
1, 10562, Note_on_c, 0, 70, 61
1, 10563, Note_on_c, 0, 57, 51
1, 10563, Note_off_c, 0, 58, 64
1, 10563, Note_on_c, 0, 76, 59
1, 10564, Note_on_c, 0, 77, 40
1, 10564, Note_on_c, 0, 85, 51
1, 10566, Note_off_c, 0, 70, 64
1, 10566, Note_off_c, 0, 77, 64
1, 10567, Note_on_c, 0, 59, 59
1, 10567, Note_off_c, 0, 85, 64
1, 10568, Note_on_c, 0, 60, 57
1, 10568, Note_off_c, 0, 76, 64
1, 10569, Note_off_c, 0, 57, 64
1, 10569, Note_off_c, 0, 69, 64
1, 10570, Note_off_c, 0, 60, 64
1, 10574, Note_on_c, 0, 57, 30
1, 10574, Note_on_c, 0, 58, 40
1, 10574, Note_on_c, 0, 60, 29
1, 10574, Note_on_c, 0, 61, 34
1, 10575, Note_off_c, 0, 59, 64
1, 10575, Note_on_c, 0, 80, 21
1, 10576, Note_off_c, 0, 57, 64
1, 10576, Note_on_c, 0, 70, 47
1, 10577, Note_off_c, 0, 61, 64
1, 10578, Note_off_c, 0, 60, 64
1, 10578, Note_off_c, 0, 80, 64
1, 10579, Note_on_c, 0, 56, 53
1, 10579, Note_off_c, 0, 58, 64
1, 10580, Note_on_c, 0, 53, 41
1, 10580, Note_on_c, 0, 55, 33
1, 10580, Note_off_c, 0, 70, 64
1, 10583, Note_off_c, 0, 53, 64
1, 10583, Note_off_c, 0, 55, 64
1, 10586, Note_off_c, 0, 56, 64
1, 10588, Note_on_c, 0, 58, 21
1, 10588, Note_on_c, 0, 77, 36
1, 10589, Note_on_c, 0, 76, 24
1, 10589, Note_on_c, 0, 84, 20
1, 10589, Note_on_c, 0, 85, 20
1, 10590, Note_on_c, 0, 82, 23
1, 10591, Note_on_c, 0, 57, 32
1, 10591, Note_off_c, 0, 58, 64
1, 10591, Note_on_c, 0, 70, 24
1, 10591, Note_on_c, 0, 81, 17
1, 10592, Note_on_c, 0, 69, 42
1, 10592, Note_off_c, 0, 84, 64
1, 10594, Note_off_c, 0, 57, 64
1, 10594, Note_on_c, 0, 58, 44
1, 10594, Note_off_c, 0, 70, 64
1, 10594, Note_off_c, 0, 76, 64
1, 10594, Note_off_c, 0, 81, 64
1, 10594, Note_off_c, 0, 85, 64
1, 10595, Note_off_c, 0, 82, 64
1, 10596, Note_off_c, 0, 69, 64
1, 10596, Note_off_c, 0, 77, 64
1, 10600, Note_off_c, 0, 58, 64
1, 10600, Note_on_c, 0, 61, 36
1, 10601, Note_on_c, 0, 59, 35
1, 10601, Note_on_c, 0, 72, 33
1, 10602, Note_on_c, 0, 60, 38
1, 10602, Note_off_c, 0, 61, 64
1, 10602, Note_on_c, 0, 78, 38
1, 10602, Note_on_c, 0, 79, 35
1, 10605, Note_off_c, 0, 60, 64
1, 10605, Note_off_c, 0, 72, 64
1, 10606, Note_off_c, 0, 59, 64
1, 10606, Note_on_c, 0, 60, 63
1, 10606, Note_off_c, 0, 79, 64
1, 10607, Note_off_c, 0, 78, 64
1, 10610, Note_on_c, 0, 59, 58
1, 10610, Note_off_c, 0, 60, 64
1, 10614, Note_off_c, 0, 59, 64
1, 10615, Note_on_c, 0, 60, 38
1, 10616, Note_on_c, 0, 58, 43
1, 10619, Note_off_c, 0, 60, 64
1, 10622, Note_on_c, 0, 57, 29
1, 10622, Note_off_c, 0, 58, 64
1, 10623, Note_on_c, 0, 56, 26
1, 10624, Note_off_c, 0, 57, 64
1, 10629, Note_on_c, 0, 55, 25
1, 10630, Note_off_c, 0, 56, 64
1, 10633, Note_off_c, 0, 55, 64
1, 10634, Note_on_c, 0, 55, 19
1, 10641, Note_off_c, 0, 55, 64
1, 10653, Note_on_c, 0, 64, 33
1, 10653, Note_on_c, 0, 70, 31
1, 10653, Note_on_c, 0, 71, 23
1, 10655, Note_on_c, 0, 52, 35
1, 10655, Note_off_c, 0, 70, 64
1, 10657, Note_on_c, 0, 53, 16
1, 10657, Note_off_c, 0, 64, 64
1, 10657, Note_off_c, 0, 71, 64
1, 10661, Note_off_c, 0, 52, 64
1, 10662, Note_off_c, 0, 53, 64
1, 10668, Note_on_c, 0, 63, 61
1, 10668, Note_on_c, 0, 101, 39
1, 10673, Note_on_c, 0, 73, 62
1, 10674, Note_off_c, 0, 101, 64
1, 10675, Note_on_c, 0, 60, 50
1, 10675, Note_off_c, 0, 63, 64
1, 10675, Note_on_c, 0, 84, 31
1, 10675, Note_on_c, 0, 87, 49
1, 10676, Note_on_c, 0, 71, 72
1, 10676, Note_off_c, 0, 73, 64
1, 10676, Note_on_c, 0, 78, 55
1, 10677, Note_on_c, 0, 59, 52
1, 10677, Note_off_c, 0, 60, 64
1, 10677, Note_off_c, 0, 84, 64
1, 10680, Note_on_c, 0, 62, 25
1, 10680, Note_on_c, 0, 72, 24
1, 10680, Note_on_c, 0, 73, 35
1, 10680, Note_on_c, 0, 74, 40
1, 10680, Note_on_c, 0, 75, 43
1, 10680, Note_on_c, 0, 85, 39
1, 10681, Note_on_c, 0, 63, 32
1, 10683, Note_off_c, 0, 62, 64
1, 10683, Note_off_c, 0, 63, 64
1, 10684, Note_off_c, 0, 72, 64
1, 10684, Note_off_c, 0, 73, 64
1, 10684, Note_off_c, 0, 74, 64
1, 10684, Note_off_c, 0, 75, 64
1, 10684, Note_off_c, 0, 85, 64
1, 10686, Note_off_c, 0, 87, 64
1, 10687, Note_on_c, 0, 63, 74
1, 10688, Note_on_c, 0, 60, 30
1, 10689, Note_off_c, 0, 59, 64
1, 10689, Note_on_c, 0, 62, 64
1, 10689, Note_off_c, 0, 71, 64
1, 10689, Note_off_c, 0, 78, 64
1, 10690, Note_off_c, 0, 60, 64
1, 10691, Note_off_c, 0, 62, 64
1, 10695, Note_off_c, 0, 63, 64
1, 10695, Note_on_c, 0, 66, 33
1, 10696, Note_on_c, 0, 62, 42
1, 10696, Note_on_c, 0, 63, 38
1, 10697, Note_on_c, 0, 64, 47
1, 10698, Note_off_c, 0, 63, 64
1, 10698, Note_off_c, 0, 66, 64
1, 10699, Note_off_c, 0, 62, 64
1, 10699, Note_on_c, 0, 63, 46
1, 10701, Note_off_c, 0, 64, 64
1, 10703, Note_on_c, 0, 62, 34
1, 10703, Note_off_c, 0, 63, 64
1, 10704, Note_on_c, 0, 60, 44
1, 10705, Note_off_c, 0, 62, 64
1, 10707, Note_off_c, 0, 60, 64
1, 10709, Note_on_c, 0, 84, 50
1, 10709, Note_on_c, 0, 88, 52
1, 10710, Note_on_c, 0, 59, 34
1, 10710, Note_on_c, 0, 78, 45
1, 10710, Note_on_c, 0, 83, 60
1, 10710, Note_on_c, 0, 87, 69
1, 10712, Note_off_c, 0, 84, 64
1, 10712, Note_off_c, 0, 88, 64
1, 10715, Note_on_c, 0, 82, 33
1, 10715, Note_on_c, 0, 85, 40
1, 10715, Note_on_c, 0, 86, 39
1, 10716, Note_off_c, 0, 59, 64
1, 10716, Note_off_c, 0, 78, 64
1, 10716, Note_on_c, 0, 84, 32
1, 10717, Note_on_c, 0, 57, 34
1, 10717, Note_on_c, 0, 76, 23
1, 10717, Note_on_c, 0, 81, 21
1, 10718, Note_off_c, 0, 83, 64
1, 10718, Note_off_c, 0, 87, 64
1, 10719, Note_on_c, 0, 77, 29
1, 10719, Note_off_c, 0, 84, 64
1, 10721, Note_off_c, 0, 77, 64
1, 10721, Note_off_c, 0, 85, 64
1, 10722, Note_off_c, 0, 57, 64
1, 10722, Note_off_c, 0, 76, 64
1, 10722, Note_off_c, 0, 81, 64
1, 10722, Note_off_c, 0, 82, 64
1, 10722, Note_off_c, 0, 86, 64
1, 10724, Note_on_c, 0, 59, 47
1, 10724, Note_on_c, 0, 61, 32
1, 10726, Note_on_c, 0, 60, 53
1, 10726, Note_off_c, 0, 61, 64
1, 10727, Note_off_c, 0, 59, 64
1, 10730, Note_on_c, 0, 63, 52
1, 10732, Note_off_c, 0, 60, 64
1, 10736, Note_off_c, 0, 63, 64
1, 10738, Note_on_c, 0, 63, 40
1, 10739, Note_on_c, 0, 60, 50
1, 10740, Note_on_c, 0, 84, 21
1, 10741, Note_off_c, 0, 63, 64
1, 10741, Note_on_c, 0, 71, 36
1, 10743, Note_off_c, 0, 84, 64
1, 10744, Note_on_c, 0, 59, 35
1, 10744, Note_off_c, 0, 60, 64
1, 10744, Note_on_c, 0, 70, 34
1, 10745, Note_on_c, 0, 57, 37
1, 10745, Note_on_c, 0, 69, 51
1, 10747, Note_off_c, 0, 59, 64
1, 10749, Note_off_c, 0, 70, 64
1, 10749, Note_off_c, 0, 71, 64
1, 10752, Note_off_c, 0, 57, 64
1, 10752, Note_off_c, 0, 69, 64
1, 10753, Note_on_c, 0, 76, 46
1, 10754, Note_on_c, 0, 75, 46
1, 10754, Note_on_c, 0, 86, 53
1, 10755, Note_on_c, 0, 62, 35
1, 10755, Note_on_c, 0, 74, 65
1, 10755, Note_off_c, 0, 76, 64
1, 10755, Note_on_c, 0, 81, 39
1, 10757, Note_off_c, 0, 75, 64
1, 10760, Note_on_c, 0, 61, 28
1, 10760, Note_off_c, 0, 62, 64
1, 10760, Note_on_c, 0, 73, 39
1, 10761, Note_on_c, 0, 63, 29
1, 10761, Note_off_c, 0, 81, 64
1, 10762, Note_on_c, 0, 75, 43
1, 10764, Note_off_c, 0, 61, 64
1, 10764, Note_off_c, 0, 73, 64
1, 10765, Note_on_c, 0, 82, 19
1, 10765, Note_off_c, 0, 86, 64
1, 10766, Note_off_c, 0, 74, 64
1, 10768, Note_on_c, 0, 62, 22
1, 10768, Note_off_c, 0, 63, 64
1, 10768, Note_on_c, 0, 74, 30
1, 10769, Note_off_c, 0, 82, 64
1, 10770, Note_off_c, 0, 75, 64
1, 10771, Note_off_c, 0, 62, 64
1, 10771, Note_off_c, 0, 74, 64
1, 10781, Note_on_c, 0, 74, 31
1, 10781, Note_on_c, 0, 81, 33
1, 10782, Note_on_c, 0, 79, 40
1, 10782, Note_on_c, 0, 84, 55
1, 10782, Note_on_c, 0, 87, 47
1, 10782, Note_on_c, 0, 88, 17
1, 10783, Note_on_c, 0, 60, 52
1, 10783, Note_on_c, 0, 71, 31
1, 10783, Note_on_c, 0, 78, 49
1, 10783, Note_on_c, 0, 83, 68
1, 10784, Note_on_c, 0, 59, 42
1, 10784, Note_off_c, 0, 74, 64
1, 10784, Note_off_c, 0, 81, 64
1, 10785, Note_off_c, 0, 84, 64
1, 10786, Note_on_c, 0, 58, 33
1, 10786, Note_off_c, 0, 59, 64
1, 10786, Note_off_c, 0, 71, 64
1, 10786, Note_off_c, 0, 83, 64
1, 10787, Note_on_c, 0, 59, 37
1, 10787, Note_off_c, 0, 78, 64
1, 10787, Note_off_c, 0, 79, 64
1, 10787, Note_off_c, 0, 87, 64
1, 10787, Note_off_c, 0, 88, 64
1, 10789, Note_off_c, 0, 58, 64
1, 10791, Note_off_c, 0, 59, 64
1, 10791, Note_on_c, 0, 71, 22
1, 10793, Note_off_c, 0, 60, 64
1, 10794, Note_off_c, 0, 71, 64
1, 10797, Note_on_c, 0, 65, 48
1, 10798, Note_on_c, 0, 63, 58
1, 10799, Note_on_c, 0, 64, 53
1, 10799, Note_off_c, 0, 65, 64
1, 10802, Note_on_c, 0, 62, 47
1, 10802, Note_off_c, 0, 63, 64
1, 10803, Note_on_c, 0, 63, 57
1, 10803, Note_off_c, 0, 64, 64
1, 10805, Note_off_c, 0, 62, 64
1, 10808, Note_on_c, 0, 82, 16
1, 10811, Note_off_c, 0, 82, 64
1, 10812, Note_off_c, 0, 63, 64
1, 10813, Note_on_c, 0, 60, 28
1, 10814, Note_on_c, 0, 58, 30
1, 10814, Note_on_c, 0, 69, 25
1, 10815, Note_on_c, 0, 57, 38
1, 10816, Note_off_c, 0, 60, 64
1, 10817, Note_off_c, 0, 69, 64
1, 10818, Note_off_c, 0, 57, 64
1, 10819, Note_off_c, 0, 58, 64
1, 10822, Note_on_c, 0, 58, 29
1, 10823, Note_on_c, 0, 57, 33
1, 10825, Note_off_c, 0, 58, 64
1, 10826, Note_off_c, 0, 57, 64
1, 10826, Note_on_c, 0, 58, 41
1, 10826, Note_on_c, 0, 70, 44
1, 10828, Note_on_c, 0, 57, 41
1, 10829, Note_on_c, 0, 60, 42
1, 10829, Note_off_c, 0, 70, 64
1, 10830, Note_off_c, 0, 58, 64
1, 10830, Note_on_c, 0, 59, 37
1, 10830, Note_on_c, 0, 80, 37
1, 10830, Note_on_c, 0, 85, 33
1, 10831, Note_off_c, 0, 57, 64
1, 10831, Note_on_c, 0, 78, 26
1, 10831, Note_on_c, 0, 79, 36
1, 10831, Note_on_c, 0, 84, 33
1, 10831, Note_on_c, 0, 88, 22
1, 10832, Note_on_c, 0, 83, 38
1, 10832, Note_on_c, 0, 87, 34
1, 10833, Note_off_c, 0, 60, 64
1, 10833, Note_off_c, 0, 80, 64
1, 10833, Note_off_c, 0, 85, 64
1, 10834, Note_off_c, 0, 59, 64
1, 10834, Note_on_c, 0, 60, 41
1, 10834, Note_off_c, 0, 78, 64
1, 10836, Note_off_c, 0, 60, 64
1, 10836, Note_off_c, 0, 84, 64
1, 10836, Note_off_c, 0, 88, 64
1, 10837, Note_off_c, 0, 79, 64
1, 10837, Note_off_c, 0, 83, 64
1, 10837, Note_off_c, 0, 87, 64
1, 10850, Note_on_c, 0, 57, 40
1, 10851, Note_on_c, 0, 70, 20
1, 10852, Note_off_c, 0, 57, 64
1, 10852, Note_on_c, 0, 58, 44
1, 10856, Note_on_c, 0, 57, 44
1, 10856, Note_off_c, 0, 58, 64
1, 10856, Note_off_c, 0, 70, 64
1, 10863, Note_off_c, 0, 57, 64
1, 10866, Note_on_c, 0, 76, 34
1, 10866, Note_on_c, 0, 82, 74
1, 10867, Note_on_c, 0, 63, 40
1, 10867, Note_on_c, 0, 75, 54
1, 10867, Note_on_c, 0, 87, 68
1, 10867, Note_on_c, 0, 91, 40
1, 10869, Note_off_c, 0, 76, 64
1, 10874, Note_on_c, 0, 74, 45
1, 10874, Note_off_c, 0, 75, 64
1, 10874, Note_on_c, 0, 81, 66
1, 10874, Note_off_c, 0, 82, 64
1, 10874, Note_on_c, 0, 86, 66
1, 10874, Note_off_c, 0, 87, 64
1, 10874, Note_on_c, 0, 90, 35
1, 10874, Note_off_c, 0, 91, 64
1, 10875, Note_on_c, 0, 62, 36
1, 10875, Note_off_c, 0, 63, 64
1, 10877, Note_off_c, 0, 90, 64
1, 10880, Note_on_c, 0, 76, 23
1, 10880, Note_on_c, 0, 85, 25
1, 10881, Note_on_c, 0, 63, 34
1, 10881, Note_on_c, 0, 75, 36
1, 10881, Note_on_c, 0, 82, 42
1, 10883, Note_off_c, 0, 85, 64
1, 10884, Note_off_c, 0, 76, 64
1, 10885, Note_off_c, 0, 62, 64
1, 10891, Note_off_c, 0, 74, 64
1, 10891, Note_off_c, 0, 81, 64
1, 10891, Note_off_c, 0, 86, 64
1, 10893, Note_on_c, 0, 74, 23
1, 10894, Note_off_c, 0, 63, 64
1, 10894, Note_off_c, 0, 75, 64
1, 10894, Note_on_c, 0, 81, 34
1, 10894, Note_off_c, 0, 82, 64
1, 10895, Note_on_c, 0, 84, 31
1, 10895, Note_on_c, 0, 85, 36
1, 10896, Note_on_c, 0, 72, 27
1, 10896, Note_off_c, 0, 74, 64
1, 10896, Note_on_c, 0, 79, 47
1, 10896, Note_off_c, 0, 81, 64
1, 10896, Note_on_c, 0, 87, 24
1, 10897, Note_on_c, 0, 59, 60
1, 10897, Note_off_c, 0, 85, 64
1, 10898, Note_off_c, 0, 79, 64
1, 10898, Note_off_c, 0, 84, 64
1, 10900, Note_off_c, 0, 59, 64
1, 10900, Note_on_c, 0, 60, 66
1, 10900, Note_off_c, 0, 87, 64
1, 10904, Note_off_c, 0, 72, 64
1, 10905, Note_on_c, 0, 57, 37
1, 10905, Note_on_c, 0, 59, 31
1, 10906, Note_on_c, 0, 61, 38
1, 10907, Note_off_c, 0, 57, 64
1, 10907, Note_on_c, 0, 58, 42
1, 10909, Note_off_c, 0, 59, 64
1, 10909, Note_off_c, 0, 60, 64
1, 10909, Note_off_c, 0, 61, 64
1, 10911, Note_on_c, 0, 57, 40
1, 10911, Note_off_c, 0, 58, 64
1, 10913, Note_on_c, 0, 52, 31
1, 10913, Note_off_c, 0, 57, 64
1, 10915, Note_on_c, 0, 54, 36
1, 10917, Note_off_c, 0, 52, 64
1, 10917, Note_on_c, 0, 65, 33
1, 10918, Note_on_c, 0, 53, 46
1, 10918, Note_off_c, 0, 54, 64
1, 10920, Note_off_c, 0, 65, 64
1, 10922, Note_off_c, 0, 53, 64
1, 10926, Note_on_c, 0, 58, 42
1, 10926, Note_on_c, 0, 59, 23
1, 10926, Note_on_c, 0, 60, 38
1, 10927, Note_on_c, 0, 56, 31
1, 10929, Note_off_c, 0, 56, 64
1, 10930, Note_off_c, 0, 59, 64
1, 10930, Note_off_c, 0, 60, 64
1, 10937, Note_on_c, 0, 53, 27
1, 10938, Note_off_c, 0, 58, 64
1, 10939, Note_on_c, 0, 55, 30
1, 10939, Note_on_c, 0, 56, 27
1, 10940, Note_off_c, 0, 53, 64
1, 10942, Note_off_c, 0, 56, 64
1, 10948, Note_off_c, 0, 55, 64
1, 10949, Note_on_c, 0, 55, 24
1, 10965, Note_off_c, 0, 55, 64
1, 10965, End_track
0, 0, End_of_file
