0, 0, Header, 0, 1, 10
1, 0, Start_track
1, 0, Tempo, 500000
1, 0, Program_c, 0, 0
1, 0, Note_on_c, 0, 64, 70
1, 1, Note_on_c, 0, 100, 44
1, 1, Note_off_c, 0, 64, 64
1, 3, Note_on_c, 0, 95, 9
1, 3, Note_off_c, 0, 100, 64
1, 6, Note_on_c, 0, 102, 9
1, 6, Note_off_c, 0, 95, 64
1, 9, Note_on_c, 0, 63, 56
1, 9, Note_off_c, 0, 102, 64
1, 10, Note_on_c, 0, 61, 66
1, 10, Note_off_c, 0, 63, 64
1, 13, Note_on_c, 0, 64, 72
1, 13, Note_off_c, 0, 61, 64
1, 14, Note_on_c, 0, 63, 83
1, 14, Note_off_c, 0, 64, 64
1, 15, Note_on_c, 0, 87, 23
1, 15, Note_off_c, 0, 63, 64
1, 18, Note_on_c, 0, 64, 84
1, 18, Note_off_c, 0, 87, 64
1, 24, Note_on_c, 0, 63, 83
1, 24, Note_off_c, 0, 64, 64
1, 25, Note_on_c, 0, 82, 14
1, 25, Note_off_c, 0, 63, 64
1, 24, Note_on_c, 0, 63, 83
1, 24, Note_off_c, 0, 82, 64
1, 31, Note_on_c, 0, 61, 57
1, 31, Note_off_c, 0, 63, 64
1, 34, Note_on_c, 0, 62, 53
1, 34, Note_off_c, 0, 61, 64
1, 37, Note_on_c, 0, 73, 46
1, 37, Note_off_c, 0, 62, 64
1, 38, Note_on_c, 0, 89, 35
1, 38, Note_off_c, 0, 73, 64
1, 39, Note_on_c, 0, 61, 42
1, 39, Note_off_c, 0, 89, 64
1, 45, Note_on_c, 0, 62, 65
1, 45, Note_off_c, 0, 61, 64
1, 67, Note_on_c, 0, 102, 36
1, 67, Note_off_c, 0, 62, 64
1, 68, Note_on_c, 0, 92, 61
1, 68, Note_off_c, 0, 102, 64
1, 71, Note_on_c, 0, 63, 54
1, 71, Note_off_c, 0, 92, 64
1, 75, Note_on_c, 0, 88, 61
1, 75, Note_off_c, 0, 63, 64
1, 77, Note_on_c, 0, 81, 28
1, 77, Note_off_c, 0, 88, 64
1, 78, Note_on_c, 0, 62, 59
1, 78, Note_off_c, 0, 81, 64
1, 81, Note_on_c, 0, 64, 67
1, 81, Note_off_c, 0, 62, 64
1, 82, Note_on_c, 0, 63, 70
1, 82, Note_off_c, 0, 64, 64
1, 86, Note_on_c, 0, 64, 77
1, 86, Note_off_c, 0, 63, 64
1, 90, Note_on_c, 0, 63, 79
1, 90, Note_off_c, 0, 64, 64
1, 91, Note_on_c, 0, 64, 80
1, 91, Note_off_c, 0, 63, 64
1, 94, Note_on_c, 0, 83, 18
1, 94, Note_off_c, 0, 64, 64
1, 91, Note_on_c, 0, 64, 80
1, 91, Note_off_c, 0, 83, 64
1, 100, Note_on_c, 0, 63, 42
1, 100, Note_off_c, 0, 64, 64
1, 104, Note_on_c, 0, 64, 75
1, 104, Note_off_c, 0, 63, 64
1, 105, Note_on_c, 0, 100, 23
1, 105, Note_off_c, 0, 64, 64
1, 104, Note_on_c, 0, 64, 75
1, 104, Note_off_c, 0, 100, 64
1, 120, Note_on_c, 0, 65, 39
1, 120, Note_off_c, 0, 64, 64
1, 121, Note_on_c, 0, 79, 54
1, 121, Note_off_c, 0, 65, 64
1, 123, Note_on_c, 0, 66, 61
1, 123, Note_off_c, 0, 79, 64
1, 124, Note_on_c, 0, 86, 67
1, 124, Note_off_c, 0, 66, 64
1, 125, Note_on_c, 0, 67, 64
1, 125, Note_off_c, 0, 86, 64
1, 132, Note_on_c, 0, 85, 21
1, 132, Note_off_c, 0, 67, 64
1, 133, Note_on_c, 0, 66, 44
1, 133, Note_off_c, 0, 85, 64
1, 139, Note_on_c, 0, 60, 58
1, 139, Note_off_c, 0, 66, 64
1, 143, Note_on_c, 0, 58, 52
1, 143, Note_off_c, 0, 60, 64
1, 146, Note_on_c, 0, 59, 44
1, 146, Note_off_c, 0, 58, 64
1, 149, Note_on_c, 0, 58, 38
1, 149, Note_off_c, 0, 59, 64
1, 161, Note_on_c, 0, 57, 24
1, 161, Note_off_c, 0, 58, 64
1, 165, Note_on_c, 0, 78, 15
1, 165, Note_off_c, 0, 57, 64
1, 167, Note_on_c, 0, 57, 38
1, 167, Note_off_c, 0, 78, 64
1, 168, Note_on_c, 0, 92, 13
1, 168, Note_off_c, 0, 57, 64
1, 169, Note_on_c, 0, 83, 48
1, 169, Note_off_c, 0, 92, 64
1, 170, Note_on_c, 0, 59, 38
1, 170, Note_off_c, 0, 83, 64
1, 173, Note_on_c, 0, 58, 46
1, 173, Note_off_c, 0, 59, 64
1, 175, Note_on_c, 0, 83, 58
1, 175, Note_off_c, 0, 58, 64
1, 176, Note_on_c, 0, 59, 45
1, 176, Note_off_c, 0, 83, 64
1, 178, Note_on_c, 0, 92, 39
1, 178, Note_off_c, 0, 59, 64
1, 179, Note_on_c, 0, 58, 45
1, 179, Note_off_c, 0, 92, 64
1, 182, Note_on_c, 0, 90, 32
1, 182, Note_off_c, 0, 58, 64
1, 179, Note_on_c, 0, 58, 45
1, 179, Note_off_c, 0, 90, 64
1, 193, Note_on_c, 0, 75, 78
1, 193, Note_off_c, 0, 58, 64
1, 194, Note_on_c, 0, 63, 54
1, 194, Note_off_c, 0, 75, 64
1, 197, Note_on_c, 0, 64, 62
1, 197, Note_off_c, 0, 63, 64
1, 199, Note_on_c, 0, 63, 63
1, 199, Note_off_c, 0, 64, 64
1, 201, Note_on_c, 0, 65, 65
1, 201, Note_off_c, 0, 63, 64
1, 204, Note_on_c, 0, 64, 82
1, 204, Note_off_c, 0, 65, 64
1, 212, Note_on_c, 0, 66, 52
1, 212, Note_off_c, 0, 64, 64
1, 215, Note_on_c, 0, 64, 67
1, 215, Note_off_c, 0, 66, 64
1, 227, Note_on_c, 0, 75, 37
1, 227, Note_off_c, 0, 64, 64
1, 228, Note_on_c, 0, 63, 50
1, 228, Note_off_c, 0, 75, 64
1, 230, Note_on_c, 0, 61, 42
1, 230, Note_off_c, 0, 63, 64
1, 233, Note_on_c, 0, 75, 52
1, 233, Note_off_c, 0, 61, 64
1, 235, Note_on_c, 0, 80, 23
1, 235, Note_off_c, 0, 75, 64
1, 236, Note_on_c, 0, 61, 43
1, 236, Note_off_c, 0, 80, 64
1, 238, Note_on_c, 0, 62, 33
1, 238, Note_off_c, 0, 61, 64
1, 241, Note_on_c, 0, 61, 36
1, 241, Note_off_c, 0, 62, 64
1, 244, Note_on_c, 0, 62, 32
1, 244, Note_off_c, 0, 61, 64
1, 247, Note_on_c, 0, 61, 30
1, 247, Note_off_c, 0, 62, 64
1, 283, Note_on_c, 0, 65, 39
1, 283, Note_off_c, 0, 61, 64
1, 285, Note_on_c, 0, 64, 50
1, 285, Note_off_c, 0, 65, 64
1, 286, Note_on_c, 0, 76, 76
1, 286, Note_off_c, 0, 64, 64
1, 287, Note_on_c, 0, 75, 82
1, 287, Note_off_c, 0, 76, 64
1, 288, Note_on_c, 0, 63, 68
1, 288, Note_off_c, 0, 75, 64
1, 296, Note_on_c, 0, 64, 75
1, 296, Note_off_c, 0, 63, 64
1, 298, Note_on_c, 0, 63, 73
1, 298, Note_off_c, 0, 64, 64
1, 299, Note_on_c, 0, 81, 29
1, 299, Note_off_c, 0, 63, 64
1, 301, Note_on_c, 0, 64, 83
1, 301, Note_off_c, 0, 81, 64
1, 305, Note_on_c, 0, 83, 12
1, 305, Note_off_c, 0, 64, 64
1, 301, Note_on_c, 0, 64, 83
1, 301, Note_off_c, 0, 83, 64
1, 316, Note_on_c, 0, 67, 64
1, 316, Note_off_c, 0, 64, 64
1, 317, Note_on_c, 0, 101, 25
1, 317, Note_off_c, 0, 67, 64
1, 319, Note_on_c, 0, 103, 22
1, 319, Note_off_c, 0, 101, 64
1, 321, Note_on_c, 0, 66, 60
1, 321, Note_off_c, 0, 103, 64
1, 326, Note_on_c, 0, 66, 52
1, 326, Note_off_c, 0, 66, 64
1, 328, Note_on_c, 0, 67, 52
1, 328, Note_off_c, 0, 66, 64
1, 332, Note_on_c, 0, 66, 48
1, 332, Note_off_c, 0, 67, 64
1, 333, Note_on_c, 0, 97, 27
1, 333, Note_off_c, 0, 66, 64
1, 334, Note_on_c, 0, 85, 72
1, 334, Note_off_c, 0, 97, 64
1, 353, Note_on_c, 0, 63, 53
1, 353, Note_off_c, 0, 85, 64
1, 354, Note_on_c, 0, 60, 64
1, 354, Note_off_c, 0, 63, 64
1, 357, Note_on_c, 0, 63, 57
1, 357, Note_off_c, 0, 60, 64
1, 362, Note_on_c, 0, 62, 51
1, 362, Note_off_c, 0, 63, 64
1, 365, Note_on_c, 0, 61, 49
1, 365, Note_off_c, 0, 62, 64
1, 367, Note_on_c, 0, 62, 48
1, 367, Note_off_c, 0, 61, 64
1, 369, Note_on_c, 0, 95, 32
1, 369, Note_off_c, 0, 62, 64
1, 370, Note_on_c, 0, 80, 37
1, 370, Note_off_c, 0, 95, 64
1, 371, Note_on_c, 0, 61, 46
1, 371, Note_off_c, 0, 80, 64
1, 374, Note_on_c, 0, 74, 69
1, 374, Note_off_c, 0, 61, 64
1, 375, Note_on_c, 0, 92, 35
1, 375, Note_off_c, 0, 74, 64
1, 376, Note_on_c, 0, 73, 65
1, 376, Note_off_c, 0, 92, 64
1, 377, Note_on_c, 0, 89, 27
1, 377, Note_off_c, 0, 73, 64
1, 378, Note_on_c, 0, 62, 46
1, 378, Note_off_c, 0, 89, 64
1, 379, Note_on_c, 0, 74, 61
1, 379, Note_off_c, 0, 62, 64
1, 385, Note_on_c, 0, 67, 57
1, 385, Note_off_c, 0, 74, 64
1, 389, Note_on_c, 0, 78, 78
1, 389, Note_off_c, 0, 67, 64
1, 390, Note_on_c, 0, 67, 53
1, 390, Note_off_c, 0, 78, 64
1, 394, Note_on_c, 0, 65, 49
1, 394, Note_off_c, 0, 67, 64
1, 395, Note_on_c, 0, 77, 50
1, 395, Note_off_c, 0, 65, 64
1, 397, Note_on_c, 0, 67, 52
1, 397, Note_off_c, 0, 77, 64
1, 398, Note_on_c, 0, 80, 68
1, 398, Note_off_c, 0, 67, 64
1, 400, Note_on_c, 0, 66, 49
1, 400, Note_off_c, 0, 80, 64
1, 402, Note_on_c, 0, 67, 47
1, 402, Note_off_c, 0, 66, 64
1, 405, Note_on_c, 0, 66, 42
1, 405, Note_off_c, 0, 67, 64
1, 406, Note_on_c, 0, 85, 83
1, 406, Note_off_c, 0, 66, 64
1, 408, Note_on_c, 0, 94, 22
1, 408, Note_off_c, 0, 85, 64
1, 411, Note_on_c, 0, 67, 38
1, 411, Note_off_c, 0, 94, 64
1, 412, Note_on_c, 0, 94, 52
1, 412, Note_off_c, 0, 67, 64
1, 421, Note_on_c, 0, 66, 47
1, 421, Note_off_c, 0, 94, 64
1, 423, Note_on_c, 0, 100, 11
1, 423, Note_off_c, 0, 66, 64
1, 424, Note_on_c, 0, 63, 63
1, 424, Note_off_c, 0, 100, 64
1, 427, Note_on_c, 0, 65, 53
1, 427, Note_off_c, 0, 63, 64
1, 429, Note_on_c, 0, 64, 59
1, 429, Note_off_c, 0, 65, 64
1, 435, Note_on_c, 0, 63, 58
1, 435, Note_off_c, 0, 64, 64
1, 437, Note_on_c, 0, 64, 54
1, 437, Note_off_c, 0, 63, 64
1, 441, Note_on_c, 0, 63, 53
1, 441, Note_off_c, 0, 64, 64
1, 442, Note_on_c, 0, 76, 25
1, 442, Note_off_c, 0, 63, 64
1, 443, Note_on_c, 0, 64, 54
1, 443, Note_off_c, 0, 76, 64
1, 445, Note_on_c, 0, 63, 53
1, 445, Note_off_c, 0, 64, 64
1, 455, Note_on_c, 0, 64, 54
1, 455, Note_off_c, 0, 63, 64
1, 457, Note_on_c, 0, 63, 46
1, 457, Note_off_c, 0, 64, 64
1, 458, Note_on_c, 0, 60, 51
1, 458, Note_off_c, 0, 63, 64
1, 460, Note_on_c, 0, 63, 48
1, 460, Note_off_c, 0, 60, 64
1, 461, Note_on_c, 0, 62, 43
1, 461, Note_off_c, 0, 63, 64
1, 463, Note_on_c, 0, 61, 47
1, 463, Note_off_c, 0, 62, 64
1, 465, Note_on_c, 0, 62, 45
1, 465, Note_off_c, 0, 61, 64
1, 470, Note_on_c, 0, 62, 45
1, 470, Note_off_c, 0, 62, 64
1, 472, Note_on_c, 0, 95, 15
1, 472, Note_off_c, 0, 62, 64
1, 473, Note_on_c, 0, 61, 42
1, 473, Note_off_c, 0, 95, 64
1, 476, Note_on_c, 0, 59, 42
1, 476, Note_off_c, 0, 61, 64
1, 478, Note_on_c, 0, 58, 42
1, 478, Note_off_c, 0, 59, 64
1, 478, Note_on_c, 0, 70, 42
1, 478, Note_off_c, 0, 58, 64
1, 483, Note_on_c, 0, 58, 37
1, 483, Note_off_c, 0, 70, 64
1, 490, Note_on_c, 0, 63, 50
1, 490, Note_off_c, 0, 58, 64
1, 493, Note_on_c, 0, 61, 46
1, 493, Note_off_c, 0, 63, 64
1, 496, Note_on_c, 0, 63, 48
1, 496, Note_off_c, 0, 61, 64
1, 498, Note_on_c, 0, 61, 45
1, 498, Note_off_c, 0, 63, 64
1, 501, Note_on_c, 0, 62, 42
1, 501, Note_off_c, 0, 61, 64
1, 504, Note_on_c, 0, 61, 43
1, 504, Note_off_c, 0, 62, 64
1, 507, Note_on_c, 0, 62, 39
1, 507, Note_off_c, 0, 61, 64
1, 510, Note_on_c, 0, 61, 37
1, 510, Note_off_c, 0, 62, 64
1, 513, Note_on_c, 0, 62, 34
1, 513, Note_off_c, 0, 61, 64
1, 516, Note_on_c, 0, 61, 36
1, 516, Note_off_c, 0, 62, 64
1, 517, Note_on_c, 0, 73, 41
1, 517, Note_off_c, 0, 61, 64
1, 519, Note_on_c, 0, 62, 32
1, 519, Note_off_c, 0, 73, 64
1, 522, Note_on_c, 0, 61, 35
1, 522, Note_off_c, 0, 62, 64
1, 524, Note_on_c, 0, 62, 34
1, 524, Note_off_c, 0, 61, 64
1, 525, Note_on_c, 0, 74, 39
1, 525, Note_off_c, 0, 62, 64
1, 528, Note_on_c, 0, 61, 31
1, 528, Note_off_c, 0, 74, 64
1, 530, Note_on_c, 0, 62, 31
1, 530, Note_off_c, 0, 61, 64
1, 531, Note_on_c, 0, 74, 31
1, 531, Note_off_c, 0, 62, 64
1, 534, Note_on_c, 0, 61, 30
1, 534, Note_off_c, 0, 74, 64
1, 537, Note_on_c, 0, 62, 26
1, 537, Note_off_c, 0, 61, 64
1, 574, Note_on_c, 0, 64, 57
1, 574, Note_off_c, 0, 62, 64
1, 576, Note_on_c, 0, 61, 58
1, 576, Note_off_c, 0, 64, 64
1, 579, Note_on_c, 0, 81, 39
1, 579, Note_off_c, 0, 61, 64
1, 580, Note_on_c, 0, 62, 53
1, 580, Note_off_c, 0, 81, 64
1, 582, Note_on_c, 0, 61, 55
1, 582, Note_off_c, 0, 62, 64
1, 583, Note_on_c, 0, 80, 32
1, 583, Note_off_c, 0, 61, 64
1, 585, Note_on_c, 0, 62, 53
1, 585, Note_off_c, 0, 80, 64
1, 588, Note_on_c, 0, 80, 43
1, 588, Note_off_c, 0, 62, 64
1, 589, Note_on_c, 0, 61, 54
1, 589, Note_off_c, 0, 80, 64
1, 592, Note_on_c, 0, 62, 54
1, 592, Note_off_c, 0, 61, 64
1, 596, Note_on_c, 0, 61, 56
1, 596, Note_off_c, 0, 62, 64
1, 601, Note_on_c, 0, 60, 55
1, 601, Note_off_c, 0, 61, 64
1, 604, Note_on_c, 0, 69, 42
1, 604, Note_off_c, 0, 60, 64
1, 605, Note_on_c, 0, 58, 56
1, 605, Note_off_c, 0, 69, 64
1, 607, Note_on_c, 0, 59, 59
1, 607, Note_off_c, 0, 58, 64
1, 610, Note_on_c, 0, 70, 30
1, 610, Note_off_c, 0, 59, 64
1, 611, Note_on_c, 0, 58, 58
1, 611, Note_off_c, 0, 70, 64
1, 613, Note_on_c, 0, 102, 13
1, 613, Note_off_c, 0, 58, 64
1, 617, Note_on_c, 0, 59, 52
1, 617, Note_off_c, 0, 102, 64
1, 623, Note_on_c, 0, 62, 47
1, 623, Note_off_c, 0, 59, 64
1, 626, Note_on_c, 0, 61, 49
1, 626, Note_off_c, 0, 62, 64
1, 628, Note_on_c, 0, 62, 48
1, 628, Note_off_c, 0, 61, 64
1, 632, Note_on_c, 0, 61, 47
1, 632, Note_off_c, 0, 62, 64
1, 635, Note_on_c, 0, 62, 48
1, 635, Note_off_c, 0, 61, 64
1, 641, Note_on_c, 0, 62, 45
1, 641, Note_off_c, 0, 62, 64
1, 643, Note_on_c, 0, 61, 52
1, 643, Note_off_c, 0, 62, 64
1, 646, Note_on_c, 0, 62, 66
1, 646, Note_off_c, 0, 61, 64
1, 647, Note_on_c, 0, 81, 28
1, 647, Note_off_c, 0, 62, 64
1, 668, Note_on_c, 0, 64, 35
1, 668, Note_off_c, 0, 81, 64
1, 669, Note_on_c, 0, 87, 48
1, 669, Note_off_c, 0, 64, 64
1, 671, Note_on_c, 0, 61, 36
1, 671, Note_off_c, 0, 87, 64
1, 672, Note_on_c, 0, 81, 63
1, 672, Note_off_c, 0, 61, 64
1, 673, Note_on_c, 0, 74, 40
1, 673, Note_off_c, 0, 81, 64
1, 674, Note_on_c, 0, 62, 45
1, 674, Note_off_c, 0, 74, 64
1, 677, Note_on_c, 0, 89, 63
1, 677, Note_off_c, 0, 62, 64
1, 678, Note_on_c, 0, 95, 10
1, 678, Note_off_c, 0, 89, 64
1, 680, Note_on_c, 0, 90, 57
1, 680, Note_off_c, 0, 95, 64
1, 682, Note_on_c, 0, 61, 67
1, 682, Note_off_c, 0, 90, 64
1, 685, Note_on_c, 0, 64, 57
1, 685, Note_off_c, 0, 61, 64
1, 688, Note_on_c, 0, 90, 43
1, 688, Note_off_c, 0, 64, 64
1, 689, Note_on_c, 0, 81, 58
1, 689, Note_off_c, 0, 90, 64
1, 690, Note_on_c, 0, 62, 47
1, 690, Note_off_c, 0, 81, 64
1, 693, Note_on_c, 0, 90, 58
1, 693, Note_off_c, 0, 62, 64
1, 701, Note_on_c, 0, 64, 55
1, 701, Note_off_c, 0, 90, 64
1, 704, Note_on_c, 0, 75, 50
1, 704, Note_off_c, 0, 64, 64
1, 705, Note_on_c, 0, 63, 44
1, 705, Note_off_c, 0, 75, 64
1, 716, Note_on_c, 0, 58, 46
1, 716, Note_off_c, 0, 63, 64
1, 717, Note_on_c, 0, 82, 49
1, 717, Note_off_c, 0, 58, 64
1, 716, Note_on_c, 0, 58, 46
1, 716, Note_off_c, 0, 82, 64
1, 733, Note_on_c, 0, 58, 46
1, 733, Note_off_c, 0, 58, 64
1, 734, Note_on_c, 0, 77, 57
1, 734, Note_off_c, 0, 58, 64
1, 743, Note_on_c, 0, 92, 21
1, 743, Note_off_c, 0, 77, 64
1, 748, Note_on_c, 0, 58, 53
1, 748, Note_off_c, 0, 92, 64
1, 752, Note_on_c, 0, 59, 50
1, 752, Note_off_c, 0, 58, 64
1, 754, Note_on_c, 0, 62, 58
1, 754, Note_off_c, 0, 59, 64
1, 757, Note_on_c, 0, 61, 56
1, 757, Note_off_c, 0, 62, 64
1, 759, Note_on_c, 0, 62, 60
1, 759, Note_off_c, 0, 61, 64
1, 763, Note_on_c, 0, 61, 56
1, 763, Note_off_c, 0, 62, 64
1, 765, Note_on_c, 0, 62, 58
1, 765, Note_off_c, 0, 61, 64
1, 777, Note_on_c, 0, 61, 38
1, 777, Note_off_c, 0, 62, 64
1, 794, Note_on_c, 0, 61, 52
1, 794, Note_off_c, 0, 61, 64
1, 797, Note_on_c, 0, 59, 62
1, 797, Note_off_c, 0, 61, 64
1, 799, Note_on_c, 0, 58, 61
1, 799, Note_off_c, 0, 59, 64
1, 809, Note_on_c, 0, 60, 42
1, 809, Note_off_c, 0, 58, 64
1, 811, Note_on_c, 0, 69, 37
1, 811, Note_off_c, 0, 60, 64
1, 812, Note_on_c, 0, 57, 47
1, 812, Note_off_c, 0, 69, 64
1, 814, Note_on_c, 0, 58, 54
1, 814, Note_off_c, 0, 57, 64
1, 819, Note_on_c, 0, 59, 53
1, 819, Note_off_c, 0, 58, 64
1, 821, Note_on_c, 0, 70, 32
1, 821, Note_off_c, 0, 59, 64
1, 827, Note_on_c, 0, 60, 57
1, 827, Note_off_c, 0, 70, 64
1, 830, Note_on_c, 0, 59, 55
1, 830, Note_off_c, 0, 60, 64
1, 843, Note_on_c, 0, 68, 43
1, 843, Note_off_c, 0, 59, 64
1, 844, Note_on_c, 0, 56, 46
1, 844, Note_off_c, 0, 68, 64
1, 847, Note_on_c, 0, 57, 45
1, 847, Note_off_c, 0, 56, 64
1, 857, Note_on_c, 0, 60, 39
1, 857, Note_off_c, 0, 57, 64
1, 860, Note_on_c, 0, 58, 27
1, 860, Note_off_c, 0, 60, 64
1, 865, Note_on_c, 0, 68, 18
1, 865, Note_off_c, 0, 58, 64
1, 866, Note_on_c, 0, 56, 34
1, 866, Note_off_c, 0, 68, 64
1, 870, Note_on_c, 0, 57, 36
1, 870, Note_off_c, 0, 56, 64
1, 877, Note_on_c, 0, 53, 34
1, 877, Note_off_c, 0, 57, 64
1, 878, Note_on_c, 0, 55, 31
1, 878, Note_off_c, 0, 53, 64
1, 881, Note_on_c, 0, 53, 35
1, 881, Note_off_c, 0, 55, 64
1, 884, Note_on_c, 0, 55, 30
1, 884, Note_off_c, 0, 53, 64
1, 886, Note_on_c, 0, 54, 29
1, 886, Note_off_c, 0, 55, 64
1, 889, Note_on_c, 0, 54, 37
1, 889, Note_off_c, 0, 54, 64
1, 894, Note_on_c, 0, 53, 43
1, 894, Note_off_c, 0, 54, 64
1, 896, Note_on_c, 0, 64, 25
1, 896, Note_off_c, 0, 53, 64
1, 897, Note_on_c, 0, 52, 38
1, 897, Note_off_c, 0, 64, 64
1, 898, Note_on_c, 0, 79, 13
1, 898, Note_off_c, 0, 52, 64
1, 897, Note_on_c, 0, 52, 38
1, 897, Note_off_c, 0, 79, 64
1, 907, Note_on_c, 0, 58, 54
1, 907, Note_off_c, 0, 52, 64
1, 911, Note_on_c, 0, 57, 49
1, 911, Note_off_c, 0, 58, 64
1, 914, Note_on_c, 0, 58, 46
1, 914, Note_off_c, 0, 57, 64
1, 919, Note_on_c, 0, 56, 53
1, 919, Note_off_c, 0, 58, 64
1, 922, Note_on_c, 0, 56, 46
1, 922, Note_off_c, 0, 56, 64
1, 925, Note_on_c, 0, 51, 33
1, 925, Note_off_c, 0, 56, 64
1, 926, Note_on_c, 0, 70, 14
1, 926, Note_off_c, 0, 51, 64
1, 935, Note_on_c, 0, 51, 30
1, 935, Note_off_c, 0, 70, 64
1, 940, Note_on_c, 0, 70, 38
1, 940, Note_off_c, 0, 51, 64
1, 941, Note_on_c, 0, 57, 41
1, 941, Note_off_c, 0, 70, 64
1, 943, Note_on_c, 0, 84, 35
1, 943, Note_off_c, 0, 57, 64
1, 945, Note_on_c, 0, 57, 41
1, 945, Note_off_c, 0, 84, 64
1, 948, Note_on_c, 0, 56, 50
1, 948, Note_off_c, 0, 57, 64
1, 951, Note_on_c, 0, 57, 53
1, 951, Note_off_c, 0, 56, 64
1, 958, Note_on_c, 0, 63, 34
1, 958, Note_off_c, 0, 57, 64
1, 960, Note_on_c, 0, 52, 34
1, 960, Note_off_c, 0, 63, 64
1, 962, Note_on_c, 0, 51, 31
1, 962, Note_off_c, 0, 52, 64
1, 966, Note_on_c, 0, 52, 32
1, 966, Note_off_c, 0, 51, 64
1, 969, Note_on_c, 0, 51, 25
1, 969, Note_off_c, 0, 52, 64
1, 972, Note_on_c, 0, 52, 31
1, 972, Note_off_c, 0, 51, 64
1, 979, Note_on_c, 0, 56, 30
1, 979, Note_off_c, 0, 52, 64
1, 981, Note_on_c, 0, 53, 31
1, 981, Note_off_c, 0, 56, 64
1, 987, Note_on_c, 0, 54, 29
1, 987, Note_off_c, 0, 53, 64
1, 990, Note_on_c, 0, 55, 31
1, 990, Note_off_c, 0, 54, 64
1, 993, Note_on_c, 0, 54, 30
1, 993, Note_off_c, 0, 55, 64
1, 995, Note_on_c, 0, 55, 33
1, 995, Note_off_c, 0, 54, 64
1, 1005, Note_on_c, 0, 55, 26
1, 1005, Note_off_c, 0, 55, 64
1, 1013, Note_on_c, 0, 55, 22
1, 1013, Note_off_c, 0, 55, 64
1, 1051, Note_on_c, 0, 64, 64
1, 1051, Note_off_c, 0, 55, 64
1, 1054, Note_on_c, 0, 63, 68
1, 1054, Note_off_c, 0, 64, 64
1, 1055, Note_on_c, 0, 74, 37
1, 1055, Note_off_c, 0, 63, 64
1, 1056, Note_on_c, 0, 62, 66
1, 1056, Note_off_c, 0, 74, 64
1, 1063, Note_on_c, 0, 85, 35
1, 1063, Note_off_c, 0, 62, 64
1, 1064, Note_on_c, 0, 61, 55
1, 1064, Note_off_c, 0, 85, 64
1, 1063, Note_on_c, 0, 85, 35
1, 1063, Note_off_c, 0, 61, 64
1, 1068, Note_on_c, 0, 62, 45
1, 1068, Note_off_c, 0, 85, 64
1, 1071, Note_on_c, 0, 61, 40
1, 1071, Note_off_c, 0, 62, 64
1, 1072, Note_on_c, 0, 60, 45
1, 1072, Note_off_c, 0, 61, 64
1, 1074, Note_on_c, 0, 62, 41
1, 1074, Note_off_c, 0, 60, 64
1, 1076, Note_on_c, 0, 73, 21
1, 1076, Note_off_c, 0, 62, 64
1, 1077, Note_on_c, 0, 61, 46
1, 1077, Note_off_c, 0, 73, 64
1, 1080, Note_on_c, 0, 62, 48
1, 1080, Note_off_c, 0, 61, 64
1, 1082, Note_on_c, 0, 61, 53
1, 1082, Note_off_c, 0, 62, 64
1, 1085, Note_on_c, 0, 100, 28
1, 1085, Note_off_c, 0, 61, 64
1, 1086, Note_on_c, 0, 62, 55
1, 1086, Note_off_c, 0, 100, 64
1, 1089, Note_on_c, 0, 61, 57
1, 1089, Note_off_c, 0, 62, 64
1, 1091, Note_on_c, 0, 100, 29
1, 1091, Note_off_c, 0, 61, 64
1, 1091, Note_on_c, 0, 62, 58
1, 1091, Note_off_c, 0, 100, 64
1, 1099, Note_on_c, 0, 68, 69
1, 1099, Note_off_c, 0, 62, 64
1, 1102, Note_on_c, 0, 67, 68
1, 1102, Note_off_c, 0, 68, 64
1, 1106, Note_on_c, 0, 78, 64
1, 1106, Note_off_c, 0, 67, 64
1, 1107, Note_on_c, 0, 86, 48
1, 1107, Note_off_c, 0, 78, 64
1, 1108, Note_on_c, 0, 67, 55
1, 1108, Note_off_c, 0, 86, 64
1, 1116, Note_on_c, 0, 66, 62
1, 1116, Note_off_c, 0, 67, 64
1, 1116, Note_on_c, 0, 99, 35
1, 1116, Note_off_c, 0, 66, 64
1, 1119, Note_on_c, 0, 64, 75
1, 1119, Note_off_c, 0, 99, 64
1, 1127, Note_on_c, 0, 76, 87
1, 1127, Note_off_c, 0, 64, 64
1, 1128, Note_on_c, 0, 95, 52
1, 1128, Note_off_c, 0, 76, 64
1, 1129, Note_on_c, 0, 97, 17
1, 1129, Note_off_c, 0, 95, 64
1, 1130, Note_on_c, 0, 92, 59
1, 1130, Note_off_c, 0, 97, 64
1, 1131, Note_on_c, 0, 83, 48
1, 1131, Note_off_c, 0, 92, 64
1, 1136, Note_on_c, 0, 91, 60
1, 1136, Note_off_c, 0, 83, 64
1, 1131, Note_on_c, 0, 83, 48
1, 1131, Note_off_c, 0, 91, 64
1, 1127, Note_on_c, 0, 76, 87
1, 1127, Note_off_c, 0, 83, 64
1, 1147, Note_on_c, 0, 68, 58
1, 1147, Note_off_c, 0, 76, 64
1, 1148, Note_on_c, 0, 79, 65
1, 1148, Note_off_c, 0, 68, 64
1, 1150, Note_on_c, 0, 66, 59
1, 1150, Note_off_c, 0, 79, 64
1, 1153, Note_on_c, 0, 67, 53
1, 1153, Note_off_c, 0, 66, 64
1, 1155, Note_on_c, 0, 66, 52
1, 1155, Note_off_c, 0, 67, 64
1, 1158, Note_on_c, 0, 67, 52
1, 1158, Note_off_c, 0, 66, 64
1, 1160, Note_on_c, 0, 86, 37
1, 1160, Note_off_c, 0, 67, 64
1, 1161, Note_on_c, 0, 85, 75
1, 1161, Note_off_c, 0, 86, 64
1, 1162, Note_on_c, 0, 90, 42
1, 1162, Note_off_c, 0, 85, 64
1, 1163, Note_on_c, 0, 66, 42
1, 1163, Note_off_c, 0, 90, 64
1, 1164, Note_on_c, 0, 91, 65
1, 1164, Note_off_c, 0, 66, 64
1, 1165, Note_on_c, 0, 67, 39
1, 1165, Note_off_c, 0, 91, 64
1, 1166, Note_on_c, 0, 100, 15
1, 1166, Note_off_c, 0, 67, 64
1, 1167, Note_on_c, 0, 94, 61
1, 1167, Note_off_c, 0, 100, 64
1, 1168, Note_on_c, 0, 66, 52
1, 1168, Note_off_c, 0, 94, 64
1, 1169, Note_on_c, 0, 85, 51
1, 1169, Note_off_c, 0, 66, 64
1, 1171, Note_on_c, 0, 67, 59
1, 1171, Note_off_c, 0, 85, 64
1, 1179, Note_on_c, 0, 79, 55
1, 1179, Note_off_c, 0, 67, 64
1, 1180, Note_on_c, 0, 78, 42
1, 1180, Note_off_c, 0, 79, 64
1, 1181, Note_on_c, 0, 88, 44
1, 1181, Note_off_c, 0, 78, 64
1, 1182, Note_on_c, 0, 77, 40
1, 1182, Note_off_c, 0, 88, 64
1, 1183, Note_on_c, 0, 63, 36
1, 1183, Note_off_c, 0, 77, 64
1, 1184, Note_on_c, 0, 90, 39
1, 1184, Note_off_c, 0, 63, 64
1, 1185, Note_on_c, 0, 66, 46
1, 1185, Note_off_c, 0, 90, 64
1, 1189, Note_on_c, 0, 79, 16
1, 1189, Note_off_c, 0, 66, 64
1, 1190, Note_on_c, 0, 67, 52
1, 1190, Note_off_c, 0, 79, 64
1, 1193, Note_on_c, 0, 66, 56
1, 1193, Note_off_c, 0, 67, 64
1, 1195, Note_on_c, 0, 65, 63
1, 1195, Note_off_c, 0, 66, 64
1, 1197, Note_on_c, 0, 83, 16
1, 1197, Note_off_c, 0, 65, 64
1, 1198, Note_on_c, 0, 64, 78
1, 1198, Note_off_c, 0, 83, 64
1, 1202, Note_on_c, 0, 63, 82
1, 1202, Note_off_c, 0, 64, 64
1, 1204, Note_on_c, 0, 64, 83
1, 1204, Note_off_c, 0, 63, 64
1, 1207, Note_on_c, 0, 63, 60
1, 1207, Note_off_c, 0, 64, 64
1, 1211, Note_on_c, 0, 67, 53
1, 1211, Note_off_c, 0, 63, 64
1, 1214, Note_on_c, 0, 63, 59
1, 1214, Note_off_c, 0, 67, 64
1, 1217, Note_on_c, 0, 64, 60
1, 1217, Note_off_c, 0, 63, 64
1, 1221, Note_on_c, 0, 63, 59
1, 1221, Note_off_c, 0, 64, 64
1, 1224, Note_on_c, 0, 64, 59
1, 1224, Note_off_c, 0, 63, 64
1, 1226, Note_on_c, 0, 81, 40
1, 1226, Note_off_c, 0, 64, 64
1, 1227, Note_on_c, 0, 62, 39
1, 1227, Note_off_c, 0, 81, 64
1, 1228, Note_on_c, 0, 80, 59
1, 1228, Note_off_c, 0, 62, 64
1, 1229, Note_on_c, 0, 61, 49
1, 1229, Note_off_c, 0, 80, 64
1, 1232, Note_on_c, 0, 86, 29
1, 1232, Note_off_c, 0, 61, 64
1, 1233, Note_on_c, 0, 62, 62
1, 1233, Note_off_c, 0, 86, 64
1, 1238, Note_on_c, 0, 61, 41
1, 1238, Note_off_c, 0, 62, 64
1, 1242, Note_on_c, 0, 65, 53
1, 1242, Note_off_c, 0, 61, 64
1, 1245, Note_on_c, 0, 64, 59
1, 1245, Note_off_c, 0, 65, 64
1, 1248, Note_on_c, 0, 65, 57
1, 1248, Note_off_c, 0, 64, 64
1, 1250, Note_on_c, 0, 64, 58
1, 1250, Note_off_c, 0, 65, 64
1, 1260, Note_on_c, 0, 61, 39
1, 1260, Note_off_c, 0, 64, 64
1, 1262, Note_on_c, 0, 74, 56
1, 1262, Note_off_c, 0, 61, 64
1, 1263, Note_on_c, 0, 62, 35
1, 1263, Note_off_c, 0, 74, 64
1, 1265, Note_on_c, 0, 61, 40
1, 1265, Note_off_c, 0, 62, 64
1, 1266, Note_on_c, 0, 73, 47
1, 1266, Note_off_c, 0, 61, 64
1, 1268, Note_on_c, 0, 62, 36
1, 1268, Note_off_c, 0, 73, 64
1, 1272, Note_on_c, 0, 81, 13
1, 1272, Note_off_c, 0, 62, 64
1, 1268, Note_on_c, 0, 62, 36
1, 1268, Note_off_c, 0, 81, 64
1, 1277, Note_on_c, 0, 61, 30
1, 1277, Note_off_c, 0, 62, 64
1, 1279, Note_on_c, 0, 62, 31
1, 1279, Note_off_c, 0, 61, 64
1, 1279, Note_on_c, 0, 74, 45
1, 1279, Note_off_c, 0, 62, 64
1, 1305, Note_on_c, 0, 61, 65
1, 1305, Note_off_c, 0, 74, 64
1, 1308, Note_on_c, 0, 60, 67
1, 1308, Note_off_c, 0, 61, 64
1, 1309, Note_on_c, 0, 71, 18
1, 1309, Note_off_c, 0, 60, 64
1, 1310, Note_on_c, 0, 59, 63
1, 1310, Note_off_c, 0, 71, 64
1, 1321, Note_on_c, 0, 58, 39
1, 1321, Note_off_c, 0, 59, 64
1, 1323, Note_on_c, 0, 57, 37
1, 1323, Note_off_c, 0, 58, 64
1, 1326, Note_on_c, 0, 59, 35
1, 1326, Note_off_c, 0, 57, 64
1, 1328, Note_on_c, 0, 57, 39
1, 1328, Note_off_c, 0, 59, 64
1, 1331, Note_on_c, 0, 59, 40
1, 1331, Note_off_c, 0, 57, 64
1, 1334, Note_on_c, 0, 58, 47
1, 1334, Note_off_c, 0, 59, 64
1, 1336, Note_on_c, 0, 59, 53
1, 1336, Note_off_c, 0, 58, 64
1, 1339, Note_on_c, 0, 97, 20
1, 1339, Note_off_c, 0, 59, 64
1, 1340, Note_on_c, 0, 98, 20
1, 1340, Note_off_c, 0, 97, 64
1, 1339, Note_on_c, 0, 97, 20
1, 1339, Note_off_c, 0, 98, 64
1, 1345, Note_on_c, 0, 70, 56
1, 1345, Note_off_c, 0, 97, 64
1, 1346, Note_on_c, 0, 58, 44
1, 1346, Note_off_c, 0, 70, 64
1, 1353, Note_on_c, 0, 64, 54
1, 1353, Note_off_c, 0, 58, 64
1, 1356, Note_on_c, 0, 61, 60
1, 1356, Note_off_c, 0, 64, 64
1, 1358, Note_on_c, 0, 62, 60
1, 1358, Note_off_c, 0, 61, 64
1, 1365, Note_on_c, 0, 60, 42
1, 1365, Note_off_c, 0, 62, 64
1, 1368, Note_on_c, 0, 75, 71
1, 1368, Note_off_c, 0, 60, 64
1, 1369, Note_on_c, 0, 64, 44
1, 1369, Note_off_c, 0, 75, 64
1, 1371, Note_on_c, 0, 63, 47
1, 1371, Note_off_c, 0, 64, 64
1, 1373, Note_on_c, 0, 75, 72
1, 1373, Note_off_c, 0, 63, 64
1, 1374, Note_on_c, 0, 82, 72
1, 1374, Note_off_c, 0, 75, 64
1, 1377, Note_on_c, 0, 64, 43
1, 1377, Note_off_c, 0, 82, 64
1, 1379, Note_on_c, 0, 63, 58
1, 1379, Note_off_c, 0, 64, 64
1, 1381, Note_on_c, 0, 64, 73
1, 1381, Note_off_c, 0, 63, 64
1, 1384, Note_on_c, 0, 63, 74
1, 1384, Note_off_c, 0, 64, 64
1, 1386, Note_on_c, 0, 76, 68
1, 1386, Note_off_c, 0, 63, 64
1, 1387, Note_on_c, 0, 64, 76
1, 1387, Note_off_c, 0, 76, 64
1, 1391, Note_on_c, 0, 83, 10
1, 1391, Note_off_c, 0, 64, 64
1, 1387, Note_on_c, 0, 64, 76
1, 1387, Note_off_c, 0, 83, 64
1, 1398, Note_on_c, 0, 63, 66
1, 1398, Note_off_c, 0, 64, 64
1, 1400, Note_on_c, 0, 83, 72
1, 1400, Note_off_c, 0, 63, 64
1, 1401, Note_on_c, 0, 87, 60
1, 1401, Note_off_c, 0, 83, 64
1, 1403, Note_on_c, 0, 63, 43
1, 1403, Note_off_c, 0, 87, 64
1, 1405, Note_on_c, 0, 73, 38
1, 1405, Note_off_c, 0, 63, 64
1, 1406, Note_on_c, 0, 60, 39
1, 1406, Note_off_c, 0, 73, 64
1, 1407, Note_on_c, 0, 82, 64
1, 1407, Note_off_c, 0, 60, 64
1, 1408, Note_on_c, 0, 64, 40
1, 1408, Note_off_c, 0, 82, 64
1, 1410, Note_on_c, 0, 87, 49
1, 1410, Note_off_c, 0, 64, 64
1, 1411, Note_on_c, 0, 63, 47
1, 1411, Note_off_c, 0, 87, 64
1, 1413, Note_on_c, 0, 76, 81
1, 1413, Note_off_c, 0, 63, 64
1, 1414, Note_on_c, 0, 64, 49
1, 1414, Note_off_c, 0, 76, 64
1, 1418, Note_on_c, 0, 75, 73
1, 1418, Note_off_c, 0, 64, 64
1, 1414, Note_on_c, 0, 64, 49
1, 1414, Note_off_c, 0, 75, 64
1, 1422, Note_on_c, 0, 79, 84
1, 1422, Note_off_c, 0, 64, 64
1, 1423, Note_on_c, 0, 67, 40
1, 1423, Note_off_c, 0, 79, 64
1, 1422, Note_on_c, 0, 79, 84
1, 1422, Note_off_c, 0, 67, 64
1, 1431, Note_on_c, 0, 77, 67
1, 1431, Note_off_c, 0, 79, 64
1, 1432, Note_on_c, 0, 64, 42
1, 1432, Note_off_c, 0, 77, 64
1, 1433, Note_on_c, 0, 76, 74
1, 1433, Note_off_c, 0, 64, 64
1, 1439, Note_on_c, 0, 75, 72
1, 1439, Note_off_c, 0, 76, 64
1, 1440, Note_on_c, 0, 63, 43
1, 1440, Note_off_c, 0, 75, 64
1, 1442, Note_on_c, 0, 64, 48
1, 1442, Note_off_c, 0, 63, 64
1, 1445, Note_on_c, 0, 65, 55
1, 1445, Note_off_c, 0, 64, 64
1, 1447, Note_on_c, 0, 80, 39
1, 1447, Note_off_c, 0, 65, 64
1, 1448, Note_on_c, 0, 67, 70
1, 1448, Note_off_c, 0, 80, 64
1, 1450, Note_on_c, 0, 86, 34
1, 1450, Note_off_c, 0, 67, 64
1, 1462, Note_on_c, 0, 79, 72
1, 1462, Note_off_c, 0, 86, 64
1, 1463, Note_on_c, 0, 66, 35
1, 1463, Note_off_c, 0, 79, 64
1, 1464, Note_on_c, 0, 78, 58
1, 1464, Note_off_c, 0, 66, 64
1, 1465, Note_on_c, 0, 84, 57
1, 1465, Note_off_c, 0, 78, 64
1, 1466, Note_on_c, 0, 64, 39
1, 1466, Note_off_c, 0, 84, 64
1, 1467, Note_on_c, 0, 83, 61
1, 1467, Note_off_c, 0, 64, 64
1, 1470, Note_on_c, 0, 82, 46
1, 1470, Note_off_c, 0, 83, 64
1, 1471, Note_on_c, 0, 63, 53
1, 1471, Note_off_c, 0, 82, 64
1, 1473, Note_on_c, 0, 64, 74
1, 1473, Note_off_c, 0, 63, 64
1, 1477, Note_on_c, 0, 83, 14
1, 1477, Note_off_c, 0, 64, 64
1, 1473, Note_on_c, 0, 64, 74
1, 1473, Note_off_c, 0, 83, 64
1, 1495, Note_on_c, 0, 65, 64
1, 1495, Note_off_c, 0, 64, 64
1, 1497, Note_on_c, 0, 64, 60
1, 1497, Note_off_c, 0, 65, 64
1, 1498, Note_on_c, 0, 63, 59
1, 1498, Note_off_c, 0, 64, 64
1, 1500, Note_on_c, 0, 64, 58
1, 1500, Note_off_c, 0, 63, 64
1, 1504, Note_on_c, 0, 63, 60
1, 1504, Note_off_c, 0, 64, 64
1, 1506, Note_on_c, 0, 64, 60
1, 1506, Note_off_c, 0, 63, 64
1, 1508, Note_on_c, 0, 63, 57
1, 1508, Note_off_c, 0, 64, 64
1, 1510, Note_on_c, 0, 62, 43
1, 1510, Note_off_c, 0, 63, 64
1, 1512, Note_on_c, 0, 58, 64
1, 1512, Note_off_c, 0, 62, 64
1, 1515, Note_on_c, 0, 59, 59
1, 1515, Note_off_c, 0, 58, 64
1, 1516, Note_on_c, 0, 87, 13
1, 1516, Note_off_c, 0, 59, 64
1, 1518, Note_on_c, 0, 78, 10
1, 1518, Note_off_c, 0, 87, 64
1, 1515, Note_on_c, 0, 59, 59
1, 1515, Note_off_c, 0, 78, 64
1, 1528, Note_on_c, 0, 62, 45
1, 1528, Note_off_c, 0, 59, 64
1, 1531, Note_on_c, 0, 61, 43
1, 1531, Note_off_c, 0, 62, 64
1, 1533, Note_on_c, 0, 81, 25
1, 1533, Note_off_c, 0, 61, 64
1, 1534, Note_on_c, 0, 62, 43
1, 1534, Note_off_c, 0, 81, 64
1, 1536, Note_on_c, 0, 80, 24
1, 1536, Note_off_c, 0, 62, 64
1, 1537, Note_on_c, 0, 61, 43
1, 1537, Note_off_c, 0, 80, 64
1, 1539, Note_on_c, 0, 62, 39
1, 1539, Note_off_c, 0, 61, 64
1, 1543, Note_on_c, 0, 61, 37
1, 1543, Note_off_c, 0, 62, 64
1, 1544, Note_on_c, 0, 73, 52
1, 1544, Note_off_c, 0, 61, 64
1, 1546, Note_on_c, 0, 81, 39
1, 1546, Note_off_c, 0, 73, 64
1, 1547, Note_on_c, 0, 62, 33
1, 1547, Note_off_c, 0, 81, 64
1, 1549, Note_on_c, 0, 80, 40
1, 1549, Note_off_c, 0, 62, 64
1, 1551, Note_on_c, 0, 62, 35
1, 1551, Note_off_c, 0, 80, 64
1, 1557, Note_on_c, 0, 90, 13
1, 1557, Note_off_c, 0, 62, 64
1, 1551, Note_on_c, 0, 62, 35
1, 1551, Note_off_c, 0, 90, 64
1, 1567, Note_on_c, 0, 61, 27
1, 1567, Note_off_c, 0, 62, 64
1, 1570, Note_on_c, 0, 62, 28
1, 1570, Note_off_c, 0, 61, 64
1, 1573, Note_on_c, 0, 61, 24
1, 1573, Note_off_c, 0, 62, 64
1, 1613, Note_on_c, 0, 63, 67
1, 1613, Note_off_c, 0, 61, 64
1, 1617, Note_on_c, 0, 62, 63
1, 1617, Note_off_c, 0, 63, 64
1, 1633, Note_on_c, 0, 61, 54
1, 1633, Note_off_c, 0, 62, 64
1, 1634, Note_on_c, 0, 73, 54
1, 1634, Note_off_c, 0, 61, 64
1, 1638, Note_on_c, 0, 60, 49
1, 1638, Note_off_c, 0, 73, 64
1, 1643, Note_on_c, 0, 70, 44
1, 1643, Note_off_c, 0, 60, 64
1, 1644, Note_on_c, 0, 59, 51
1, 1644, Note_off_c, 0, 70, 64
1, 1646, Note_on_c, 0, 77, 33
1, 1646, Note_off_c, 0, 59, 64
1, 1647, Note_on_c, 0, 58, 51
1, 1647, Note_off_c, 0, 77, 64
1, 1650, Note_on_c, 0, 59, 47
1, 1650, Note_off_c, 0, 58, 64
1, 1660, Note_on_c, 0, 75, 25
1, 1660, Note_off_c, 0, 59, 64
1, 1661, Note_on_c, 0, 63, 44
1, 1661, Note_off_c, 0, 75, 64
1, 1663, Note_on_c, 0, 61, 44
1, 1663, Note_off_c, 0, 63, 64
1, 1666, Note_on_c, 0, 62, 45
1, 1666, Note_off_c, 0, 61, 64
1, 1670, Note_on_c, 0, 60, 45
1, 1670, Note_off_c, 0, 62, 64
1, 1672, Note_on_c, 0, 62, 36
1, 1672, Note_off_c, 0, 60, 64
1, 1673, Note_on_c, 0, 63, 47
1, 1673, Note_off_c, 0, 62, 64
1, 1675, Note_on_c, 0, 61, 47
1, 1675, Note_off_c, 0, 63, 64
1, 1677, Note_on_c, 0, 62, 46
1, 1677, Note_off_c, 0, 61, 64
1, 1679, Note_on_c, 0, 80, 31
1, 1679, Note_off_c, 0, 62, 64
1, 1680, Note_on_c, 0, 61, 49
1, 1680, Note_off_c, 0, 80, 64
1, 1682, Note_on_c, 0, 81, 25
1, 1682, Note_off_c, 0, 61, 64
1, 1683, Note_on_c, 0, 62, 49
1, 1683, Note_off_c, 0, 81, 64
1, 1686, Note_on_c, 0, 61, 58
1, 1686, Note_off_c, 0, 62, 64
1, 1689, Note_on_c, 0, 62, 72
1, 1689, Note_off_c, 0, 61, 64
1, 1692, Note_on_c, 0, 81, 22
1, 1692, Note_off_c, 0, 62, 64
1, 1701, Note_on_c, 0, 61, 40
1, 1701, Note_off_c, 0, 81, 64
1, 1705, Note_on_c, 0, 65, 63
1, 1705, Note_off_c, 0, 61, 64
1, 1708, Note_on_c, 0, 64, 74
1, 1708, Note_off_c, 0, 65, 64
1, 1709, Note_on_c, 0, 102, 21
1, 1709, Note_off_c, 0, 64, 64
1, 1709, Note_on_c, 0, 100, 52
1, 1709, Note_off_c, 0, 102, 64
1, 1717, Note_on_c, 0, 63, 42
1, 1717, Note_off_c, 0, 100, 64
1, 1720, Note_on_c, 0, 62, 66
1, 1720, Note_off_c, 0, 63, 64
1, 1721, Note_on_c, 0, 81, 64
1, 1721, Note_off_c, 0, 62, 64
1, 1726, Note_on_c, 0, 80, 57
1, 1726, Note_off_c, 0, 81, 64
1, 1721, Note_on_c, 0, 81, 64
1, 1721, Note_off_c, 0, 80, 64
1, 1736, Note_on_c, 0, 100, 19
1, 1736, Note_off_c, 0, 81, 64
1, 1737, Note_on_c, 0, 102, 18
1, 1737, Note_off_c, 0, 100, 64
1, 1742, Note_on_c, 0, 64, 61
1, 1742, Note_off_c, 0, 102, 64
1, 1751, Note_on_c, 0, 57, 41
1, 1751, Note_off_c, 0, 64, 64
1, 1752, Note_on_c, 0, 91, 40
1, 1752, Note_off_c, 0, 57, 64
1, 1755, Note_on_c, 0, 89, 57
1, 1755, Note_off_c, 0, 91, 64
1, 1756, Note_on_c, 0, 58, 40
1, 1756, Note_off_c, 0, 89, 64
1, 1757, Note_on_c, 0, 92, 39
1, 1757, Note_off_c, 0, 58, 64
1, 1756, Note_on_c, 0, 58, 40
1, 1756, Note_off_c, 0, 92, 64
1, 1770, Note_on_c, 0, 62, 48
1, 1770, Note_off_c, 0, 58, 64
1, 1772, Note_on_c, 0, 61, 52
1, 1772, Note_off_c, 0, 62, 64
1, 1774, Note_on_c, 0, 62, 49
1, 1774, Note_off_c, 0, 61, 64
1, 1791, Note_on_c, 0, 61, 38
1, 1791, Note_off_c, 0, 62, 64
1, 1793, Note_on_c, 0, 62, 37
1, 1793, Note_off_c, 0, 61, 64
1, 1796, Note_on_c, 0, 61, 39
1, 1796, Note_off_c, 0, 62, 64
1, 1798, Note_on_c, 0, 62, 35
1, 1798, Note_off_c, 0, 61, 64
1, 1801, Note_on_c, 0, 61, 39
1, 1801, Note_off_c, 0, 62, 64
1, 1803, Note_on_c, 0, 62, 44
1, 1803, Note_off_c, 0, 61, 64
1, 1826, Note_on_c, 0, 64, 32
1, 1826, Note_off_c, 0, 62, 64
1, 1827, Note_on_c, 0, 52, 35
1, 1827, Note_off_c, 0, 64, 64
1, 1828, Note_on_c, 0, 63, 37
1, 1828, Note_off_c, 0, 52, 64
1, 1829, Note_on_c, 0, 51, 29
1, 1829, Note_off_c, 0, 63, 64
1, 1831, Note_on_c, 0, 52, 35
1, 1831, Note_off_c, 0, 51, 64
1, 1834, Note_on_c, 0, 51, 30
1, 1834, Note_off_c, 0, 52, 64
1, 1846, Note_on_c, 0, 52, 29
1, 1846, Note_off_c, 0, 51, 64
1, 1848, Note_on_c, 0, 63, 22
1, 1848, Note_off_c, 0, 52, 64
1, 1851, Note_on_c, 0, 54, 36
1, 1851, Note_off_c, 0, 63, 64
1, 1856, Note_on_c, 0, 52, 32
1, 1856, Note_off_c, 0, 54, 64
1, 1860, Note_on_c, 0, 50, 25
1, 1860, Note_off_c, 0, 52, 64
1, 1863, Note_on_c, 0, 51, 26
1, 1863, Note_off_c, 0, 50, 64
1, 1867, Note_on_c, 0, 52, 30
1, 1867, Note_off_c, 0, 51, 64
1, 1872, Note_on_c, 0, 55, 49
1, 1872, Note_off_c, 0, 52, 64
1, 1876, Note_on_c, 0, 54, 46
1, 1876, Note_off_c, 0, 55, 64
1, 1879, Note_on_c, 0, 56, 57
1, 1879, Note_off_c, 0, 54, 64
1, 1882, Note_on_c, 0, 54, 44
1, 1882, Note_off_c, 0, 56, 64
1, 1886, Note_on_c, 0, 55, 39
1, 1886, Note_off_c, 0, 54, 64
1, 1887, Note_on_c, 0, 80, 48
1, 1887, Note_off_c, 0, 55, 64
1, 1888, Note_on_c, 0, 69, 43
1, 1888, Note_off_c, 0, 80, 64
1, 1889, Note_on_c, 0, 57, 45
1, 1889, Note_off_c, 0, 69, 64
1, 1891, Note_on_c, 0, 56, 47
1, 1891, Note_off_c, 0, 57, 64
1, 1895, Note_on_c, 0, 57, 48
1, 1895, Note_off_c, 0, 56, 64
1, 1898, Note_on_c, 0, 55, 37
1, 1898, Note_off_c, 0, 57, 64
1, 1901, Note_on_c, 0, 58, 49
1, 1901, Note_off_c, 0, 55, 64
1, 1904, Note_on_c, 0, 56, 47
1, 1904, Note_off_c, 0, 58, 64
1, 1907, Note_on_c, 0, 57, 49
1, 1907, Note_off_c, 0, 56, 64
1, 1909, Note_on_c, 0, 56, 46
1, 1909, Note_off_c, 0, 57, 64
1, 1912, Note_on_c, 0, 57, 49
1, 1912, Note_off_c, 0, 56, 64
1, 1919, Note_on_c, 0, 63, 63
1, 1919, Note_off_c, 0, 57, 64
1, 1922, Note_on_c, 0, 82, 38
1, 1922, Note_off_c, 0, 63, 64
1, 1926, Note_on_c, 0, 62, 52
1, 1926, Note_off_c, 0, 82, 64
1, 1928, Note_on_c, 0, 61, 48
1, 1928, Note_off_c, 0, 62, 64
1, 1928, Note_on_c, 0, 80, 25
1, 1928, Note_off_c, 0, 61, 64
1, 1932, Note_on_c, 0, 63, 50
1, 1932, Note_off_c, 0, 80, 64
1, 1934, Note_on_c, 0, 61, 48
1, 1934, Note_off_c, 0, 63, 64
1, 1939, Note_on_c, 0, 62, 58
1, 1939, Note_off_c, 0, 61, 64
1, 1940, Note_on_c, 0, 100, 24
1, 1940, Note_off_c, 0, 62, 64
1, 1940, Note_on_c, 0, 102, 24
1, 1940, Note_off_c, 0, 100, 64
1, 1952, Note_on_c, 0, 65, 47
1, 1952, Note_off_c, 0, 102, 64
1, 1954, Note_on_c, 0, 64, 33
1, 1954, Note_off_c, 0, 65, 64
1, 1956, Note_on_c, 0, 60, 50
1, 1956, Note_off_c, 0, 64, 64
1, 1958, Note_on_c, 0, 63, 52
1, 1958, Note_off_c, 0, 60, 64
1, 1963, Note_on_c, 0, 62, 47
1, 1963, Note_off_c, 0, 63, 64
1, 1968, Note_on_c, 0, 61, 44
1, 1968, Note_off_c, 0, 62, 64
1, 1969, Note_on_c, 0, 79, 32
1, 1969, Note_off_c, 0, 61, 64
1, 1971, Note_on_c, 0, 59, 48
1, 1971, Note_off_c, 0, 79, 64
1, 1972, Note_on_c, 0, 92, 33
1, 1972, Note_off_c, 0, 59, 64
1, 1973, Note_on_c, 0, 86, 36
1, 1973, Note_off_c, 0, 92, 64
1, 1974, Note_on_c, 0, 58, 51
1, 1974, Note_off_c, 0, 86, 64
1, 1975, Note_on_c, 0, 77, 51
1, 1975, Note_off_c, 0, 58, 64
1, 1986, Note_on_c, 0, 60, 43
1, 1986, Note_off_c, 0, 77, 64
1, 1989, Note_on_c, 0, 57, 34
1, 1989, Note_off_c, 0, 60, 64
1, 1992, Note_on_c, 0, 57, 34
1, 1992, Note_off_c, 0, 57, 64
1, 1994, Note_on_c, 0, 56, 31
1, 1994, Note_off_c, 0, 57, 64
1, 2001, Note_on_c, 0, 63, 29
1, 2001, Note_off_c, 0, 56, 64
1, 2006, Note_on_c, 0, 51, 23
1, 2006, Note_off_c, 0, 63, 64
1, 2016, Note_on_c, 0, 60, 31
1, 2016, Note_off_c, 0, 51, 64
1, 2022, Note_on_c, 0, 58, 33
1, 2022, Note_off_c, 0, 60, 64
1, 2025, Note_on_c, 0, 56, 28
1, 2025, Note_off_c, 0, 58, 64
1, 2028, Note_on_c, 0, 57, 32
1, 2028, Note_off_c, 0, 56, 64
1, 2035, Note_on_c, 0, 54, 30
1, 2035, Note_off_c, 0, 57, 64
1, 2037, Note_on_c, 0, 82, 11
1, 2037, Note_off_c, 0, 54, 64
1, 2041, Note_on_c, 0, 55, 27
1, 2041, Note_off_c, 0, 82, 64
1, 2045, Note_on_c, 0, 54, 27
1, 2045, Note_off_c, 0, 55, 64
1, 2048, Note_on_c, 0, 55, 23
1, 2048, Note_off_c, 0, 54, 64
1, 2051, Note_on_c, 0, 54, 23
1, 2051, Note_off_c, 0, 55, 64
1, 2054, Note_on_c, 0, 55, 22
1, 2054, Note_off_c, 0, 54, 64
1, 2061, Note_on_c, 0, 55, 17
1, 2061, Note_off_c, 0, 55, 64
1, 2065, Note_off_c, 0, 55, 64
1, 2065, End_track
0, 0, End_of_file
