0, 0, Header, 0, 1, 10
1, 0, Start_track
1, 0, Tempo, 500000
1, 0, Program_c, 0, 0
1, 0, Note_on_c, 0, 64, 83
1, 2, Note_on_c, 0, 63, 71
1, 2, Note_off_c, 0, 64, 64
1, 3, Note_on_c, 0, 61, 43
1, 3, Note_off_c, 0, 63, 64
1, 2, Note_on_c, 0, 63, 71
1, 2, Note_off_c, 0, 61, 64
1, 0, Note_on_c, 0, 64, 83
1, 0, Note_off_c, 0, 63, 64
1, 8, Note_on_c, 0, 61, 32
1, 8, Note_off_c, 0, 64, 64
1, 9, Note_on_c, 0, 60, 37
1, 9, Note_off_c, 0, 61, 64
1, 8, Note_on_c, 0, 61, 32
1, 8, Note_off_c, 0, 60, 64
1, 8, Note_on_c, 0, 62, 60
1, 8, Note_off_c, 0, 61, 64
1, 18, Note_on_c, 0, 63, 57
1, 18, Note_off_c, 0, 62, 64
1, 20, Note_on_c, 0, 62, 43
1, 20, Note_off_c, 0, 63, 64
1, 18, Note_on_c, 0, 63, 57
1, 18, Note_off_c, 0, 62, 64
1, 29, Note_on_c, 0, 65, 20
1, 29, Note_off_c, 0, 63, 64
1, 31, Note_on_c, 0, 66, 43
1, 31, Note_off_c, 0, 65, 64
1, 35, Note_on_c, 0, 60, 33
1, 35, Note_off_c, 0, 66, 64
1, 49, Note_on_c, 0, 63, 54
1, 49, Note_off_c, 0, 60, 64
1, 50, Note_on_c, 0, 64, 61
1, 50, Note_off_c, 0, 63, 64
1, 51, Note_on_c, 0, 66, 34
1, 51, Note_off_c, 0, 64, 64
1, 50, Note_on_c, 0, 64, 61
1, 50, Note_off_c, 0, 66, 64
1, 58, Note_on_c, 0, 61, 25
1, 58, Note_off_c, 0, 64, 64
1, 59, Note_on_c, 0, 62, 24
1, 59, Note_off_c, 0, 61, 64
1, 58, Note_on_c, 0, 61, 25
1, 58, Note_off_c, 0, 62, 64
1, 72, Note_on_c, 0, 63, 58
1, 72, Note_off_c, 0, 61, 64
1, 73, Note_on_c, 0, 64, 76
1, 73, Note_off_c, 0, 63, 64
1, 80, Note_on_c, 0, 66, 52
1, 80, Note_off_c, 0, 64, 64
1, 80, Note_on_c, 0, 67, 48
1, 80, Note_off_c, 0, 66, 64
1, 84, Note_on_c, 0, 66, 39
1, 84, Note_off_c, 0, 67, 64
1, 88, Note_on_c, 0, 64, 26
1, 88, Note_off_c, 0, 66, 64
1, 89, Note_on_c, 0, 60, 43
1, 89, Note_off_c, 0, 64, 64
1, 89, Note_on_c, 0, 61, 35
1, 89, Note_off_c, 0, 60, 64
1, 89, Note_on_c, 0, 62, 45
1, 89, Note_off_c, 0, 61, 64
1, 97, Note_on_c, 0, 67, 45
1, 97, Note_off_c, 0, 62, 64
1, 99, Note_on_c, 0, 65, 25
1, 99, Note_off_c, 0, 67, 64
1, 99, Note_on_c, 0, 66, 31
1, 99, Note_off_c, 0, 65, 64
1, 97, Note_on_c, 0, 67, 45
1, 97, Note_off_c, 0, 66, 64
1, 106, Note_on_c, 0, 63, 48
1, 106, Note_off_c, 0, 67, 64
1, 106, Note_on_c, 0, 64, 52
1, 106, Note_off_c, 0, 63, 64
1, 112, Note_on_c, 0, 63, 44
1, 112, Note_off_c, 0, 64, 64
1, 114, Note_on_c, 0, 64, 28
1, 114, Note_off_c, 0, 63, 64
1, 115, Note_on_c, 0, 60, 28
1, 115, Note_off_c, 0, 64, 64
1, 115, Note_on_c, 0, 62, 40
1, 115, Note_off_c, 0, 60, 64
1, 123, Note_on_c, 0, 63, 30
1, 123, Note_off_c, 0, 62, 64
1, 124, Note_on_c, 0, 61, 34
1, 124, Note_off_c, 0, 63, 64
1, 145, Note_on_c, 0, 61, 51
1, 145, Note_off_c, 0, 61, 64
1, 146, Note_on_c, 0, 60, 35
1, 146, Note_off_c, 0, 61, 64
1, 145, Note_on_c, 0, 61, 51
1, 145, Note_off_c, 0, 60, 64
1, 151, Note_on_c, 0, 60, 38
1, 151, Note_off_c, 0, 61, 64
1, 156, Note_on_c, 0, 61, 34
1, 156, Note_off_c, 0, 60, 64
1, 160, Note_on_c, 0, 60, 30
1, 160, Note_off_c, 0, 61, 64
1, 156, Note_on_c, 0, 61, 34
1, 156, Note_off_c, 0, 60, 64
1, 156, Note_on_c, 0, 62, 64
1, 156, Note_off_c, 0, 61, 64
1, 168, Note_on_c, 0, 61, 48
1, 168, Note_off_c, 0, 62, 64
1, 171, Note_on_c, 0, 63, 27
1, 171, Note_off_c, 0, 61, 64
1, 172, Note_on_c, 0, 64, 35
1, 172, Note_off_c, 0, 63, 64
1, 156, Note_on_c, 0, 62, 64
1, 156, Note_off_c, 0, 64, 64
1, 176, Note_on_c, 0, 63, 28
1, 176, Note_off_c, 0, 62, 64
1, 189, Note_on_c, 0, 60, 25
1, 189, Note_off_c, 0, 63, 64
1, 190, Note_on_c, 0, 63, 38
1, 190, Note_off_c, 0, 60, 64
1, 189, Note_on_c, 0, 61, 43
1, 189, Note_off_c, 0, 63, 64
1, 189, Note_on_c, 0, 62, 51
1, 189, Note_off_c, 0, 61, 64
1, 199, Note_on_c, 0, 60, 35
1, 199, Note_off_c, 0, 62, 64
1, 207, Note_on_c, 0, 60, 34
1, 207, Note_off_c, 0, 60, 64
1, 215, Note_on_c, 0, 60, 19
1, 215, Note_off_c, 0, 60, 64
1, 225, Note_on_c, 0, 64, 18
1, 225, Note_off_c, 0, 60, 64
1, 233, Note_on_c, 0, 63, 22
1, 233, Note_off_c, 0, 64, 64
1, 241, Note_on_c, 0, 63, 29
1, 241, Note_off_c, 0, 63, 64
1, 241, Note_on_c, 0, 64, 20
1, 241, Note_off_c, 0, 63, 64
1, 263, Note_on_c, 0, 63, 38
1, 263, Note_off_c, 0, 64, 64
1, 264, Note_on_c, 0, 62, 54
1, 264, Note_off_c, 0, 63, 64
1, 267, Note_on_c, 0, 61, 56
1, 267, Note_off_c, 0, 62, 64
1, 268, Note_on_c, 0, 60, 34
1, 268, Note_off_c, 0, 61, 64
1, 267, Note_on_c, 0, 61, 56
1, 267, Note_off_c, 0, 60, 64
1, 264, Note_on_c, 0, 62, 54
1, 264, Note_off_c, 0, 61, 64
1, 276, Note_on_c, 0, 67, 50
1, 276, Note_off_c, 0, 62, 64
1, 279, Note_on_c, 0, 65, 36
1, 279, Note_off_c, 0, 67, 64
1, 280, Note_on_c, 0, 64, 62
1, 280, Note_off_c, 0, 65, 64
1, 281, Note_on_c, 0, 63, 51
1, 281, Note_off_c, 0, 64, 64
1, 288, Note_on_c, 0, 66, 47
1, 288, Note_off_c, 0, 63, 64
1, 297, Note_on_c, 0, 65, 29
1, 297, Note_off_c, 0, 66, 64
1, 298, Note_on_c, 0, 67, 37
1, 298, Note_off_c, 0, 65, 64
1, 300, Note_on_c, 0, 64, 73
1, 300, Note_off_c, 0, 67, 64
1, 302, Note_on_c, 0, 63, 53
1, 302, Note_off_c, 0, 64, 64
1, 303, Note_on_c, 0, 67, 27
1, 303, Note_off_c, 0, 63, 64
1, 304, Note_on_c, 0, 65, 31
1, 304, Note_off_c, 0, 67, 64
1, 302, Note_on_c, 0, 63, 53
1, 302, Note_off_c, 0, 65, 64
1, 308, Note_on_c, 0, 62, 49
1, 308, Note_off_c, 0, 63, 64
1, 311, Note_on_c, 0, 64, 52
1, 311, Note_off_c, 0, 62, 64
1, 313, Note_on_c, 0, 63, 27
1, 313, Note_off_c, 0, 64, 64
1, 316, Note_on_c, 0, 61, 28
1, 316, Note_off_c, 0, 63, 64
1, 327, Note_on_c, 0, 60, 43
1, 327, Note_off_c, 0, 61, 64
1, 339, Note_on_c, 0, 62, 50
1, 339, Note_off_c, 0, 60, 64
1, 340, Note_on_c, 0, 61, 42
1, 340, Note_off_c, 0, 62, 64
1, 339, Note_on_c, 0, 62, 50
1, 339, Note_off_c, 0, 61, 64
1, 339, Note_on_c, 0, 63, 56
1, 339, Note_off_c, 0, 62, 64
1, 346, Note_on_c, 0, 64, 72
1, 346, Note_off_c, 0, 63, 64
1, 351, Note_on_c, 0, 62, 23
1, 351, Note_off_c, 0, 64, 64
1, 346, Note_on_c, 0, 64, 72
1, 346, Note_off_c, 0, 62, 64
1, 357, Note_on_c, 0, 67, 27
1, 357, Note_off_c, 0, 64, 64
1, 359, Note_on_c, 0, 64, 41
1, 359, Note_off_c, 0, 67, 64
1, 362, Note_on_c, 0, 66, 40
1, 362, Note_off_c, 0, 64, 64
1, 367, Note_on_c, 0, 64, 72
1, 367, Note_off_c, 0, 66, 64
1, 368, Note_on_c, 0, 63, 41
1, 368, Note_off_c, 0, 64, 64
1, 367, Note_on_c, 0, 64, 72
1, 367, Note_off_c, 0, 63, 64
1, 374, Note_on_c, 0, 63, 52
1, 374, Note_off_c, 0, 64, 64
1, 378, Note_on_c, 0, 60, 24
1, 378, Note_off_c, 0, 63, 64
1, 383, Note_on_c, 0, 60, 14
1, 383, Note_off_c, 0, 60, 64
1, 383, Note_on_c, 0, 61, 36
1, 383, Note_off_c, 0, 60, 64
1, 383, Note_on_c, 0, 62, 37
1, 383, Note_off_c, 0, 61, 64
1, 388, Note_on_c, 0, 61, 30
1, 388, Note_off_c, 0, 62, 64
1, 383, Note_on_c, 0, 62, 37
1, 383, Note_off_c, 0, 61, 64
1, 403, Note_on_c, 0, 63, 47
1, 403, Note_off_c, 0, 62, 64
1, 404, Note_on_c, 0, 64, 32
1, 404, Note_off_c, 0, 63, 64
1, 405, Note_on_c, 0, 62, 59
1, 405, Note_off_c, 0, 64, 64
1, 416, Note_on_c, 0, 61, 35
1, 416, Note_off_c, 0, 62, 64
1, 418, Note_on_c, 0, 60, 29
1, 418, Note_off_c, 0, 61, 64
1, 416, Note_on_c, 0, 61, 35
1, 416, Note_off_c, 0, 60, 64
1, 416, Note_on_c, 0, 62, 66
1, 416, Note_off_c, 0, 61, 64
1, 427, Note_on_c, 0, 64, 69
1, 427, Note_off_c, 0, 62, 64
1, 429, Note_on_c, 0, 63, 39
1, 429, Note_off_c, 0, 64, 64
1, 430, Note_on_c, 0, 62, 55
1, 430, Note_off_c, 0, 63, 64
1, 436, Note_on_c, 0, 64, 45
1, 436, Note_off_c, 0, 62, 64
1, 443, Note_on_c, 0, 62, 42
1, 443, Note_off_c, 0, 64, 64
1, 444, Note_on_c, 0, 61, 32
1, 444, Note_off_c, 0, 62, 64
1, 443, Note_on_c, 0, 62, 42
1, 443, Note_off_c, 0, 61, 64
1, 449, Note_on_c, 0, 61, 28
1, 449, Note_off_c, 0, 62, 64
1, 443, Note_on_c, 0, 62, 42
1, 443, Note_off_c, 0, 61, 64
1, 458, Note_on_c, 0, 63, 23
1, 458, Note_off_c, 0, 62, 64
1, 469, Note_on_c, 0, 66, 17
1, 469, Note_off_c, 0, 63, 64
1, 480, Note_on_c, 0, 63, 46
1, 480, Note_off_c, 0, 66, 64
1, 482, Note_on_c, 0, 62, 50
1, 482, Note_off_c, 0, 63, 64
1, 484, Note_on_c, 0, 61, 31
1, 484, Note_off_c, 0, 62, 64
1, 482, Note_on_c, 0, 62, 50
1, 482, Note_off_c, 0, 61, 64
1, 489, Note_on_c, 0, 60, 27
1, 489, Note_off_c, 0, 62, 64
1, 491, Note_on_c, 0, 61, 30
1, 491, Note_off_c, 0, 60, 64
1, 494, Note_off_c, 0, 61, 64
1, 494, End_track
0, 0, End_of_file
