0, 0, Header, 0, 1, 10
1, 0, Start_track
1, 0, Tempo, 500000
1, 0, Program_c, 0, 0
1, 0, Note_on_c, 0, 64, 82
1, 5, Note_on_c, 0, 61, 57
1, 6, Note_on_c, 0, 63, 76
1, 9, Note_off_c, 0, 61, 64
1, 10, Note_off_c, 0, 63, 64
1, 14, Note_on_c, 0, 63, 84
1, 14, Note_off_c, 0, 64, 64
1, 16, Note_on_c, 0, 59, 47
1, 17, Note_on_c, 0, 62, 45
1, 18, Note_on_c, 0, 60, 41
1, 18, Note_off_c, 0, 63, 64
1, 19, Note_off_c, 0, 59, 64
1, 21, Note_on_c, 0, 61, 43
1, 21, Note_off_c, 0, 62, 64
1, 22, Note_off_c, 0, 60, 64
1, 24, Note_off_c, 0, 61, 64
1, 24, Note_on_c, 0, 62, 64
1, 34, Note_on_c, 0, 64, 40
1, 35, Note_off_c, 0, 62, 64
1, 37, Note_on_c, 0, 63, 63
1, 38, Note_off_c, 0, 64, 64
1, 40, Note_on_c, 0, 62, 51
1, 42, Note_on_c, 0, 64, 79
1, 43, Note_off_c, 0, 62, 64
1, 45, Note_off_c, 0, 63, 64
1, 51, Note_on_c, 0, 63, 53
1, 51, Note_off_c, 0, 64, 64
1, 53, Note_off_c, 0, 63, 64
1, 53, Note_on_c, 0, 64, 74
1, 60, Note_on_c, 0, 65, 30
1, 61, Note_on_c, 0, 66, 54
1, 62, Note_off_c, 0, 64, 64
1, 63, Note_off_c, 0, 65, 64
1, 63, Note_on_c, 0, 67, 60
1, 65, Note_off_c, 0, 66, 64
1, 68, Note_off_c, 0, 67, 64
1, 70, Note_on_c, 0, 60, 46
1, 72, Note_on_c, 0, 58, 45
1, 73, Note_on_c, 0, 59, 36
1, 74, Note_off_c, 0, 60, 64
1, 75, Note_off_c, 0, 58, 64
1, 76, Note_on_c, 0, 58, 34
1, 77, Note_off_c, 0, 59, 64
1, 82, Note_on_c, 0, 57, 27
1, 83, Note_off_c, 0, 58, 64
1, 83, Note_on_c, 0, 59, 39
1, 86, Note_on_c, 0, 58, 40
1, 87, Note_off_c, 0, 57, 64
1, 90, Note_off_c, 0, 58, 64
1, 91, Note_on_c, 0, 58, 43
1, 91, Note_off_c, 0, 59, 64
1, 96, Note_off_c, 0, 58, 64
1, 97, Note_on_c, 0, 63, 55
1, 100, Note_on_c, 0, 65, 56
1, 101, Note_on_c, 0, 64, 72
1, 101, Note_on_c, 0, 66, 50
1, 103, Note_off_c, 0, 63, 64
1, 104, Note_off_c, 0, 66, 64
1, 105, Note_off_c, 0, 65, 64
1, 107, Note_on_c, 0, 66, 40
1, 109, Note_off_c, 0, 66, 64
1, 115, Note_on_c, 0, 63, 48
1, 115, Note_off_c, 0, 64, 64
1, 116, Note_on_c, 0, 61, 33
1, 117, Note_off_c, 0, 63, 64
1, 119, Note_on_c, 0, 62, 26
1, 123, Note_off_c, 0, 62, 64
1, 124, Note_off_c, 0, 61, 64
1, 125, Note_on_c, 0, 61, 27
1, 130, Note_off_c, 0, 61, 64
1, 142, Note_on_c, 0, 65, 30
1, 144, Note_on_c, 0, 63, 65
1, 144, Note_off_c, 0, 65, 64
1, 149, Note_on_c, 0, 64, 81
1, 153, Note_off_c, 0, 63, 64
1, 159, Note_on_c, 0, 67, 55
1, 161, Note_off_c, 0, 64, 64
1, 162, Note_on_c, 0, 66, 56
1, 162, Note_off_c, 0, 67, 64
1, 165, Note_off_c, 0, 66, 64
1, 165, Note_on_c, 0, 67, 50
1, 167, Note_on_c, 0, 66, 45
1, 167, Note_off_c, 0, 67, 64
1, 172, Note_off_c, 0, 66, 64
1, 176, Note_on_c, 0, 64, 42
1, 177, Note_on_c, 0, 60, 54
1, 177, Note_on_c, 0, 62, 40
1, 178, Note_on_c, 0, 61, 43
1, 178, Note_on_c, 0, 63, 45
1, 178, Note_off_c, 0, 64, 64
1, 179, Note_off_c, 0, 62, 64
1, 180, Note_on_c, 0, 62, 45
1, 180, Note_off_c, 0, 63, 64
1, 181, Note_off_c, 0, 61, 64
1, 182, Note_on_c, 0, 61, 47
1, 183, Note_off_c, 0, 60, 64
1, 184, Note_off_c, 0, 62, 64
1, 185, Note_on_c, 0, 62, 45
1, 186, Note_off_c, 0, 61, 64
1, 187, Note_on_c, 0, 61, 47
1, 187, Note_off_c, 0, 62, 64
1, 190, Note_off_c, 0, 61, 64
1, 190, Note_on_c, 0, 62, 46
1, 193, Note_off_c, 0, 62, 64
1, 193, Note_on_c, 0, 67, 54
1, 197, Note_on_c, 0, 65, 38
1, 197, Note_on_c, 0, 66, 41
1, 199, Note_off_c, 0, 67, 64
1, 201, Note_off_c, 0, 65, 64
1, 201, Note_on_c, 0, 67, 40
1, 203, Note_off_c, 0, 66, 64
1, 204, Note_on_c, 0, 66, 39
1, 204, Note_off_c, 0, 67, 64
1, 207, Note_on_c, 0, 67, 34
1, 208, Note_off_c, 0, 66, 64
1, 210, Note_off_c, 0, 67, 64
1, 211, Note_on_c, 0, 66, 34
1, 212, Note_on_c, 0, 64, 54
1, 213, Note_on_c, 0, 63, 53
1, 213, Note_on_c, 0, 65, 44
1, 214, Note_off_c, 0, 66, 64
1, 215, Note_off_c, 0, 63, 64
1, 217, Note_on_c, 0, 63, 50
1, 217, Note_off_c, 0, 65, 64
1, 222, Note_off_c, 0, 63, 64
1, 224, Note_on_c, 0, 63, 54
1, 224, Note_off_c, 0, 64, 64
1, 227, Note_off_c, 0, 63, 64
1, 228, Note_on_c, 0, 63, 43
1, 229, Note_on_c, 0, 62, 31
1, 230, Note_on_c, 0, 60, 42
1, 232, Note_off_c, 0, 60, 64
1, 232, Note_on_c, 0, 61, 37
1, 232, Note_off_c, 0, 62, 64
1, 233, Note_on_c, 0, 62, 43
1, 234, Note_off_c, 0, 63, 64
1, 235, Note_off_c, 0, 61, 64
1, 238, Note_on_c, 0, 60, 31
1, 238, Note_off_c, 0, 62, 64
1, 240, Note_on_c, 0, 58, 40
1, 240, Note_off_c, 0, 60, 64
1, 244, Note_off_c, 0, 58, 64
1, 246, Note_on_c, 0, 63, 40
1, 247, Note_on_c, 0, 61, 40
1, 247, Note_on_c, 0, 62, 31
1, 249, Note_off_c, 0, 62, 64
1, 250, Note_on_c, 0, 62, 36
1, 251, Note_off_c, 0, 63, 64
1, 253, Note_off_c, 0, 62, 64
1, 255, Note_off_c, 0, 61, 64
1, 255, Note_on_c, 0, 62, 36
1, 256, Note_on_c, 0, 61, 33
1, 257, Note_off_c, 0, 62, 64
1, 260, Note_off_c, 0, 61, 64
1, 260, Note_on_c, 0, 62, 30
1, 266, Note_off_c, 0, 62, 64
1, 287, Note_on_c, 0, 64, 41
1, 288, Note_on_c, 0, 62, 50
1, 289, Note_on_c, 0, 61, 48
1, 289, Note_on_c, 0, 63, 40
1, 289, Note_off_c, 0, 64, 64
1, 291, Note_off_c, 0, 63, 64
1, 295, Note_off_c, 0, 61, 64
1, 296, Note_on_c, 0, 61, 53
1, 296, Note_off_c, 0, 62, 64
1, 298, Note_off_c, 0, 61, 64
1, 299, Note_on_c, 0, 61, 52
1, 302, Note_on_c, 0, 58, 47
1, 302, Note_on_c, 0, 60, 48
1, 302, Note_off_c, 0, 61, 64
1, 304, Note_off_c, 0, 60, 64
1, 305, Note_on_c, 0, 59, 56
1, 306, Note_off_c, 0, 58, 64
1, 311, Note_on_c, 0, 60, 24
1, 312, Note_on_c, 0, 62, 41
1, 313, Note_off_c, 0, 59, 64
1, 313, Note_on_c, 0, 61, 43
1, 314, Note_off_c, 0, 60, 64
1, 315, Note_off_c, 0, 62, 64
1, 316, Note_off_c, 0, 61, 64
1, 316, Note_on_c, 0, 62, 41
1, 317, Note_on_c, 0, 61, 38
1, 318, Note_off_c, 0, 62, 64
1, 319, Note_on_c, 0, 60, 38
1, 319, Note_on_c, 0, 62, 38
1, 320, Note_off_c, 0, 61, 64
1, 322, Note_on_c, 0, 61, 43
1, 323, Note_off_c, 0, 60, 64
1, 323, Note_off_c, 0, 62, 64
1, 324, Note_off_c, 0, 61, 64
1, 324, Note_on_c, 0, 62, 64
1, 335, Note_off_c, 0, 62, 64
1, 336, Note_on_c, 0, 61, 30
1, 336, Note_on_c, 0, 62, 42
1, 339, Note_off_c, 0, 61, 64
1, 341, Note_on_c, 0, 61, 59
1, 342, Note_on_c, 0, 63, 36
1, 343, Note_off_c, 0, 62, 64
1, 343, Note_on_c, 0, 64, 49
1, 344, Note_on_c, 0, 62, 44
1, 345, Note_off_c, 0, 61, 64
1, 347, Note_off_c, 0, 63, 64
1, 347, Note_off_c, 0, 64, 64
1, 351, Note_off_c, 0, 62, 64
1, 351, Note_on_c, 0, 64, 47
1, 352, Note_on_c, 0, 63, 37
1, 354, Note_off_c, 0, 64, 64
1, 355, Note_off_c, 0, 63, 64
1, 359, Note_on_c, 0, 58, 45
1, 366, Note_off_c, 0, 58, 64
1, 367, Note_on_c, 0, 58, 48
1, 377, Note_off_c, 0, 58, 64
1, 378, Note_on_c, 0, 60, 30
1, 378, Note_on_c, 0, 61, 48
1, 378, Note_on_c, 0, 62, 54
1, 380, Note_off_c, 0, 60, 64
1, 385, Note_off_c, 0, 61, 64
1, 391, Note_off_c, 0, 62, 64
1, 401, Note_on_c, 0, 58, 57
1, 405, Note_on_c, 0, 60, 33
1, 406, Note_on_c, 0, 57, 39
1, 408, Note_off_c, 0, 57, 64
1, 408, Note_off_c, 0, 60, 64
1, 411, Note_off_c, 0, 58, 64
1, 414, Note_on_c, 0, 60, 46
1, 416, Note_on_c, 0, 59, 52
1, 417, Note_off_c, 0, 60, 64
1, 423, Note_on_c, 0, 56, 43
1, 423, Note_off_c, 0, 59, 64
1, 425, Note_off_c, 0, 56, 64
1, 425, Note_on_c, 0, 57, 43
1, 429, Note_on_c, 0, 58, 30
1, 429, Note_on_c, 0, 59, 24
1, 429, Note_on_c, 0, 60, 30
1, 432, Note_off_c, 0, 60, 64
1, 435, Note_off_c, 0, 57, 64
1, 435, Note_off_c, 0, 59, 64
1, 436, Note_on_c, 0, 57, 33
1, 436, Note_off_c, 0, 58, 64
1, 438, Note_on_c, 0, 53, 29
1, 439, Note_off_c, 0, 57, 64
1, 440, Note_on_c, 0, 55, 24
1, 443, Note_off_c, 0, 55, 64
1, 444, Note_off_c, 0, 53, 64
1, 445, Note_on_c, 0, 54, 29
1, 448, Note_off_c, 0, 54, 64
1, 449, Note_on_c, 0, 52, 35
1, 454, Note_off_c, 0, 52, 64
1, 454, Note_on_c, 0, 58, 45
1, 457, Note_on_c, 0, 57, 46
1, 457, Note_off_c, 0, 58, 64
1, 458, Note_on_c, 0, 58, 33
1, 458, Note_on_c, 0, 60, 33
1, 459, Note_on_c, 0, 56, 49
1, 459, Note_off_c, 0, 57, 64
1, 459, Note_on_c, 0, 59, 42
1, 460, Note_off_c, 0, 58, 64
1, 460, Note_off_c, 0, 60, 64
1, 461, Note_off_c, 0, 59, 64
1, 464, Note_off_c, 0, 56, 64
1, 464, Note_on_c, 0, 63, 29
1, 467, Note_on_c, 0, 51, 29
1, 469, Note_off_c, 0, 51, 64
1, 470, Note_off_c, 0, 63, 64
1, 471, Note_on_c, 0, 57, 40
1, 475, Note_on_c, 0, 56, 46
1, 475, Note_off_c, 0, 57, 64
1, 479, Note_off_c, 0, 56, 64
1, 480, Note_on_c, 0, 63, 30
1, 482, Note_on_c, 0, 51, 30
1, 484, Note_off_c, 0, 63, 64
1, 485, Note_off_c, 0, 51, 64
1, 485, Note_on_c, 0, 63, 30
1, 488, Note_off_c, 0, 63, 64
1, 490, Note_on_c, 0, 53, 24
1, 493, Note_on_c, 0, 54, 22
1, 493, Note_on_c, 0, 55, 33
1, 494, Note_off_c, 0, 53, 64
1, 496, Note_off_c, 0, 54, 64
1, 510, Note_off_c, 0, 55, 64
1, 527, Note_on_c, 0, 63, 58
1, 529, Note_on_c, 0, 62, 61
1, 529, Note_off_c, 0, 63, 64
1, 533, Note_on_c, 0, 61, 53
1, 533, Note_off_c, 0, 62, 64
1, 534, Note_on_c, 0, 62, 33
1, 535, Note_on_c, 0, 60, 38
1, 535, Note_off_c, 0, 61, 64
1, 536, Note_on_c, 0, 61, 55
1, 537, Note_off_c, 0, 62, 64
1, 538, Note_on_c, 0, 62, 35
1, 539, Note_off_c, 0, 60, 64
1, 541, Note_off_c, 0, 62, 64
1, 545, Note_off_c, 0, 61, 64
1, 546, Note_on_c, 0, 61, 58
1, 547, Note_on_c, 0, 62, 53
1, 548, Note_off_c, 0, 61, 64
1, 549, Note_off_c, 0, 62, 64
1, 551, Note_on_c, 0, 67, 61
1, 556, Note_on_c, 0, 66, 47
1, 559, Note_on_c, 0, 64, 65
1, 559, Note_off_c, 0, 67, 64
1, 560, Note_on_c, 0, 65, 50
1, 560, Note_off_c, 0, 66, 64
1, 562, Note_on_c, 0, 63, 55
1, 562, Note_off_c, 0, 65, 64
1, 563, Note_off_c, 0, 64, 64
1, 564, Note_off_c, 0, 63, 64
1, 564, Note_on_c, 0, 64, 68
1, 574, Note_off_c, 0, 64, 64
1, 576, Note_on_c, 0, 66, 52
1, 578, Note_off_c, 0, 66, 64
1, 580, Note_on_c, 0, 67, 42
1, 582, Note_on_c, 0, 66, 36
1, 582, Note_off_c, 0, 67, 64
1, 584, Note_off_c, 0, 66, 64
1, 585, Note_on_c, 0, 66, 45
1, 586, Note_on_c, 0, 67, 50
1, 589, Note_off_c, 0, 66, 64
1, 589, Note_off_c, 0, 67, 64
1, 593, Note_on_c, 0, 66, 31
1, 594, Note_on_c, 0, 67, 47
1, 597, Note_off_c, 0, 66, 64
1, 598, Note_off_c, 0, 67, 64
1, 600, Note_on_c, 0, 64, 81
1, 605, Note_off_c, 0, 64, 64
1, 606, Note_on_c, 0, 67, 39
1, 607, Note_on_c, 0, 63, 60
1, 607, Note_on_c, 0, 64, 54
1, 607, Note_on_c, 0, 65, 37
1, 609, Note_off_c, 0, 67, 64
1, 610, Note_off_c, 0, 65, 64
1, 612, Note_off_c, 0, 64, 64
1, 614, Note_on_c, 0, 62, 37
1, 616, Note_on_c, 0, 61, 49
1, 616, Note_off_c, 0, 62, 64
1, 616, Note_off_c, 0, 63, 64
1, 617, Note_on_c, 0, 62, 58
1, 618, Note_off_c, 0, 61, 64
1, 622, Note_off_c, 0, 62, 64
1, 622, Note_on_c, 0, 64, 57
1, 622, Note_on_c, 0, 65, 52
1, 626, Note_off_c, 0, 65, 64
1, 631, Note_on_c, 0, 61, 32
1, 631, Note_on_c, 0, 62, 32
1, 631, Note_off_c, 0, 64, 64
1, 636, Note_off_c, 0, 61, 64
1, 642, Note_off_c, 0, 62, 64
1, 653, Note_on_c, 0, 61, 50
1, 655, Note_off_c, 0, 61, 64
1, 656, Note_on_c, 0, 59, 60
1, 662, Note_on_c, 0, 57, 31
1, 662, Note_off_c, 0, 59, 64
1, 664, Note_on_c, 0, 59, 52
1, 667, Note_on_c, 0, 58, 41
1, 668, Note_off_c, 0, 57, 64
1, 670, Note_off_c, 0, 58, 64
1, 673, Note_on_c, 0, 58, 40
1, 674, Note_off_c, 0, 59, 64
1, 676, Note_off_c, 0, 58, 64
1, 678, Note_on_c, 0, 62, 53
1, 678, Note_on_c, 0, 63, 42
1, 679, Note_on_c, 0, 61, 53
1, 680, Note_off_c, 0, 63, 64
1, 681, Note_off_c, 0, 61, 64
1, 683, Note_on_c, 0, 60, 31
1, 685, Note_off_c, 0, 62, 64
1, 685, Note_on_c, 0, 63, 68
1, 686, Note_off_c, 0, 60, 64
1, 691, Note_on_c, 0, 64, 74
1, 694, Note_off_c, 0, 63, 64
1, 700, Note_on_c, 0, 63, 61
1, 700, Note_off_c, 0, 64, 64
1, 703, Note_on_c, 0, 61, 29
1, 705, Note_off_c, 0, 61, 64
1, 705, Note_on_c, 0, 64, 47
1, 708, Note_off_c, 0, 63, 64
1, 712, Note_on_c, 0, 67, 36
1, 713, Note_off_c, 0, 64, 64
1, 717, Note_on_c, 0, 64, 39
1, 717, Note_off_c, 0, 67, 64
1, 721, Note_off_c, 0, 64, 64
1, 722, Note_on_c, 0, 64, 45
1, 723, Note_on_c, 0, 65, 44
1, 724, Note_off_c, 0, 64, 64
1, 724, Note_on_c, 0, 67, 63
1, 726, Note_off_c, 0, 65, 64
1, 730, Note_on_c, 0, 65, 20
1, 733, Note_off_c, 0, 67, 64
1, 734, Note_on_c, 0, 64, 74
1, 735, Note_on_c, 0, 63, 35
1, 736, Note_off_c, 0, 65, 64
1, 737, Note_off_c, 0, 63, 64
1, 747, Note_off_c, 0, 64, 64
1, 748, Note_on_c, 0, 65, 54
1, 749, Note_on_c, 0, 63, 55
1, 750, Note_on_c, 0, 64, 58
1, 751, Note_off_c, 0, 65, 64
1, 755, Note_off_c, 0, 63, 64
1, 756, Note_on_c, 0, 58, 58
1, 756, Note_on_c, 0, 62, 35
1, 756, Note_on_c, 0, 63, 38
1, 757, Note_off_c, 0, 64, 64
1, 758, Note_off_c, 0, 62, 64
1, 758, Note_off_c, 0, 63, 64
1, 759, Note_off_c, 0, 58, 64
1, 759, Note_on_c, 0, 59, 58
1, 764, Note_on_c, 0, 61, 38
1, 765, Note_off_c, 0, 59, 64
1, 765, Note_on_c, 0, 62, 37
1, 768, Note_off_c, 0, 62, 64
1, 769, Note_off_c, 0, 61, 64
1, 771, Note_on_c, 0, 62, 37
1, 773, Note_on_c, 0, 61, 34
1, 773, Note_off_c, 0, 62, 64
1, 775, Note_off_c, 0, 61, 64
1, 775, Note_on_c, 0, 62, 33
1, 785, Note_off_c, 0, 62, 64
1, 786, Note_on_c, 0, 62, 23
1, 789, Note_off_c, 0, 62, 64
1, 805, Note_on_c, 0, 66, 36
1, 807, Note_on_c, 0, 63, 64
1, 807, Note_off_c, 0, 66, 64
1, 810, Note_on_c, 0, 62, 59
1, 811, Note_off_c, 0, 63, 64
1, 818, Note_on_c, 0, 61, 50
1, 818, Note_off_c, 0, 62, 64
1, 820, Note_on_c, 0, 57, 22
1, 821, Note_off_c, 0, 61, 64
1, 822, Note_on_c, 0, 58, 30
1, 823, Note_off_c, 0, 57, 64
1, 823, Note_on_c, 0, 59, 44
1, 824, Note_off_c, 0, 58, 64
1, 825, Note_off_c, 0, 59, 64
1, 826, Note_on_c, 0, 59, 48
1, 831, Note_off_c, 0, 59, 64
1, 831, Note_on_c, 0, 61, 38
1, 831, Note_on_c, 0, 62, 34
1, 833, Note_off_c, 0, 62, 64
1, 834, Note_on_c, 0, 62, 38
1, 836, Note_on_c, 0, 60, 39
1, 836, Note_off_c, 0, 61, 64
1, 837, Note_on_c, 0, 63, 38
1, 838, Note_on_c, 0, 61, 39
1, 838, Note_off_c, 0, 62, 64
1, 839, Note_off_c, 0, 60, 64
1, 839, Note_on_c, 0, 62, 71
1, 840, Note_off_c, 0, 63, 64
1, 842, Note_off_c, 0, 61, 64
1, 853, Note_off_c, 0, 62, 64
1, 854, Note_on_c, 0, 64, 72
1, 860, Note_on_c, 0, 63, 30
1, 861, Note_on_c, 0, 62, 64
1, 862, Note_off_c, 0, 64, 64
1, 864, Note_off_c, 0, 63, 64
1, 871, Note_on_c, 0, 63, 37
1, 872, Note_off_c, 0, 62, 64
1, 872, Note_on_c, 0, 64, 56
1, 873, Note_off_c, 0, 63, 64
1, 876, Note_on_c, 0, 57, 36
1, 877, Note_off_c, 0, 64, 64
1, 879, Note_off_c, 0, 57, 64
1, 879, Note_on_c, 0, 58, 38
1, 884, Note_off_c, 0, 58, 64
1, 886, Note_on_c, 0, 62, 46
1, 897, Note_on_c, 0, 61, 33
1, 897, Note_off_c, 0, 62, 64
1, 898, Note_on_c, 0, 62, 30
1, 902, Note_off_c, 0, 62, 64
1, 903, Note_on_c, 0, 62, 39
1, 904, Note_off_c, 0, 61, 64
1, 906, Note_off_c, 0, 62, 64
1, 914, Note_on_c, 0, 63, 29
1, 918, Note_on_c, 0, 51, 24
1, 922, Note_off_c, 0, 51, 64
1, 923, Note_on_c, 0, 51, 26
1, 925, Note_on_c, 0, 53, 25
1, 926, Note_off_c, 0, 51, 64
1, 926, Note_on_c, 0, 52, 17
1, 927, Note_off_c, 0, 63, 64
1, 929, Note_off_c, 0, 52, 64
1, 929, Note_off_c, 0, 53, 64
1, 937, Note_on_c, 0, 55, 44
1, 937, Note_on_c, 0, 66, 26
1, 939, Note_on_c, 0, 56, 45
1, 940, Note_off_c, 0, 55, 64
1, 941, Note_off_c, 0, 56, 64
1, 942, Note_on_c, 0, 54, 43
1, 944, Note_off_c, 0, 54, 64
1, 944, Note_on_c, 0, 55, 31
1, 944, Note_off_c, 0, 66, 64
1, 945, Note_on_c, 0, 57, 40
1, 946, Note_off_c, 0, 55, 64
1, 947, Note_on_c, 0, 56, 44
1, 947, Note_off_c, 0, 57, 64
1, 949, Note_on_c, 0, 57, 41
1, 950, Note_off_c, 0, 56, 64
1, 952, Note_on_c, 0, 56, 42
1, 952, Note_off_c, 0, 57, 64
1, 952, Note_on_c, 0, 58, 39
1, 954, Note_off_c, 0, 58, 64
1, 955, Note_off_c, 0, 56, 64
1, 956, Note_on_c, 0, 56, 46
1, 958, Note_off_c, 0, 56, 64
1, 958, Note_on_c, 0, 57, 35
1, 960, Note_off_c, 0, 57, 64
1, 960, Note_on_c, 0, 63, 56
1, 964, Note_on_c, 0, 62, 55
1, 964, Note_off_c, 0, 63, 64
1, 966, Note_on_c, 0, 60, 40
1, 967, Note_on_c, 0, 61, 36
1, 967, Note_on_c, 0, 63, 39
1, 968, Note_off_c, 0, 60, 64
1, 969, Note_off_c, 0, 63, 64
1, 970, Note_off_c, 0, 61, 64
1, 976, Note_off_c, 0, 62, 64
1, 977, Note_on_c, 0, 64, 24
1, 977, Note_on_c, 0, 65, 36
1, 978, Note_on_c, 0, 62, 43
1, 978, Note_on_c, 0, 63, 41
1, 979, Note_on_c, 0, 60, 41
1, 980, Note_off_c, 0, 64, 64
1, 980, Note_off_c, 0, 65, 64
1, 981, Note_off_c, 0, 60, 64
1, 983, Note_off_c, 0, 63, 64
1, 986, Note_off_c, 0, 62, 64
1, 988, Note_on_c, 0, 58, 50
1, 992, Note_off_c, 0, 58, 64
1, 993, Note_on_c, 0, 59, 20
1, 994, Note_on_c, 0, 60, 34
1, 995, Note_on_c, 0, 57, 32
1, 996, Note_off_c, 0, 59, 64
1, 997, Note_off_c, 0, 60, 64
1, 998, Note_on_c, 0, 56, 31
1, 998, Note_off_c, 0, 57, 64
1, 1001, Note_on_c, 0, 63, 19
1, 1002, Note_off_c, 0, 56, 64
1, 1002, Note_on_c, 0, 64, 12
1, 1005, Note_off_c, 0, 64, 64
1, 1006, Note_off_c, 0, 63, 64
1, 1010, Note_on_c, 0, 57, 12
1, 1011, Note_on_c, 0, 58, 25
1, 1013, Note_off_c, 0, 57, 64
1, 1014, Note_off_c, 0, 58, 64
1, 1015, Note_on_c, 0, 57, 31
1, 1018, Note_on_c, 0, 54, 26
1, 1018, Note_off_c, 0, 57, 64
1, 1022, Note_off_c, 0, 54, 64
1, 1022, Note_on_c, 0, 55, 23
1, 1023, Note_on_c, 0, 54, 21
1, 1026, Note_off_c, 0, 54, 64
1, 1031, Note_off_c, 0, 55, 64
1, 1031, End_track
0, 0, End_of_file
