0, 0, Header, 0, 1, 10
1, 0, Start_track
1, 0, Tempo, 500000
1, 0, Program_c, 0, 0
1, 0, Note_on_c, 0, 64, 52
1, 4, Note_on_c, 0, 61, 35
1, 4, Note_off_c, 0, 64, 64
1, 4, Note_on_c, 0, 63, 67
1, 4, Note_off_c, 0, 61, 64
1, 9, Note_on_c, 0, 64, 72
1, 9, Note_off_c, 0, 63, 64
1, 11, Note_on_c, 0, 63, 72
1, 11, Note_off_c, 0, 64, 64
1, 13, Note_on_c, 0, 62, 23
1, 13, Note_off_c, 0, 63, 64
1, 14, Note_on_c, 0, 60, 22
1, 14, Note_off_c, 0, 62, 64
1, 19, Note_on_c, 0, 62, 48
1, 19, Note_off_c, 0, 60, 64
1, 30, Note_on_c, 0, 63, 44
1, 30, Note_off_c, 0, 62, 64
1, 32, Note_on_c, 0, 62, 28
1, 32, Note_off_c, 0, 63, 64
1, 34, Note_on_c, 0, 64, 66
1, 34, Note_off_c, 0, 62, 64
1, 42, Note_on_c, 0, 63, 28
1, 42, Note_off_c, 0, 64, 64
1, 34, Note_on_c, 0, 64, 66
1, 34, Note_off_c, 0, 63, 64
1, 50, Note_on_c, 0, 66, 32
1, 50, Note_off_c, 0, 64, 64
1, 51, Note_on_c, 0, 67, 40
1, 51, Note_off_c, 0, 66, 64
1, 58, Note_on_c, 0, 60, 22
1, 58, Note_off_c, 0, 67, 64
1, 59, Note_on_c, 0, 58, 18
1, 59, Note_off_c, 0, 60, 64
1, 74, Note_on_c, 0, 58, 20
1, 74, Note_off_c, 0, 58, 64
1, 80, Note_on_c, 0, 63, 36
1, 80, Note_off_c, 0, 58, 64
1, 81, Note_on_c, 0, 64, 56
1, 81, Note_off_c, 0, 63, 64
1, 83, Note_on_c, 0, 65, 35
1, 83, Note_off_c, 0, 64, 64
1, 81, Note_on_c, 0, 64, 56
1, 81, Note_off_c, 0, 65, 64
1, 88, Note_on_c, 0, 64, 40
1, 88, Note_off_c, 0, 64, 64
1, 118, Note_on_c, 0, 63, 46
1, 118, Note_off_c, 0, 64, 64
1, 122, Note_on_c, 0, 64, 68
1, 122, Note_off_c, 0, 63, 64
1, 132, Note_on_c, 0, 66, 38
1, 132, Note_off_c, 0, 64, 64
1, 135, Note_on_c, 0, 67, 31
1, 135, Note_off_c, 0, 66, 64
1, 137, Note_on_c, 0, 66, 23
1, 137, Note_off_c, 0, 67, 64
1, 145, Note_on_c, 0, 60, 32
1, 145, Note_off_c, 0, 66, 64
1, 148, Note_on_c, 0, 62, 26
1, 148, Note_off_c, 0, 60, 64
1, 153, Note_on_c, 0, 61, 26
1, 153, Note_off_c, 0, 62, 64
1, 159, Note_on_c, 0, 67, 34
1, 159, Note_off_c, 0, 61, 64
1, 174, Note_on_c, 0, 63, 29
1, 174, Note_off_c, 0, 67, 64
1, 176, Note_on_c, 0, 64, 34
1, 176, Note_off_c, 0, 63, 64
1, 177, Note_on_c, 0, 63, 30
1, 177, Note_off_c, 0, 64, 64
1, 176, Note_on_c, 0, 64, 34
1, 176, Note_off_c, 0, 63, 64
1, 183, Note_on_c, 0, 63, 33
1, 183, Note_off_c, 0, 64, 64
1, 187, Note_on_c, 0, 63, 16
1, 187, Note_off_c, 0, 63, 64
1, 191, Note_on_c, 0, 62, 24
1, 191, Note_off_c, 0, 63, 64
1, 204, Note_on_c, 0, 61, 12
1, 204, Note_off_c, 0, 62, 64
1, 237, Note_on_c, 0, 61, 27
1, 237, Note_off_c, 0, 61, 64
1, 237, Note_on_c, 0, 62, 29
1, 237, Note_off_c, 0, 61, 64
1, 242, Note_on_c, 0, 61, 34
1, 242, Note_off_c, 0, 62, 64
1, 248, Note_on_c, 0, 58, 37
1, 248, Note_off_c, 0, 61, 64
1, 249, Note_on_c, 0, 59, 34
1, 249, Note_off_c, 0, 58, 64
1, 248, Note_on_c, 0, 58, 37
1, 248, Note_off_c, 0, 59, 64
1, 252, Note_on_c, 0, 59, 36
1, 252, Note_off_c, 0, 58, 64
1, 256, Note_on_c, 0, 62, 47
1, 256, Note_off_c, 0, 59, 64
1, 257, Note_on_c, 0, 61, 20
1, 257, Note_off_c, 0, 62, 64
1, 256, Note_on_c, 0, 62, 47
1, 256, Note_off_c, 0, 61, 64
1, 263, Note_on_c, 0, 61, 18
1, 263, Note_off_c, 0, 62, 64
1, 256, Note_on_c, 0, 62, 47
1, 256, Note_off_c, 0, 61, 64
1, 280, Note_on_c, 0, 61, 36
1, 280, Note_off_c, 0, 62, 64
1, 295, Note_on_c, 0, 58, 21
1, 295, Note_off_c, 0, 61, 64
1, 301, Note_on_c, 0, 58, 26
1, 301, Note_off_c, 0, 58, 64
1, 309, Note_on_c, 0, 62, 36
1, 309, Note_off_c, 0, 58, 64
1, 310, Note_on_c, 0, 61, 25
1, 310, Note_off_c, 0, 62, 64
1, 309, Note_on_c, 0, 62, 36
1, 309, Note_off_c, 0, 61, 64
1, 328, Note_on_c, 0, 58, 39
1, 328, Note_off_c, 0, 62, 64
1, 334, Note_on_c, 0, 58, 34
1, 334, Note_off_c, 0, 58, 64
1, 341, Note_on_c, 0, 59, 31
1, 341, Note_off_c, 0, 58, 64
1, 347, Note_on_c, 0, 57, 22
1, 347, Note_off_c, 0, 59, 64
1, 373, Note_on_c, 0, 57, 23
1, 373, Note_off_c, 0, 57, 64
1, 433, Note_on_c, 0, 62, 44
1, 433, Note_off_c, 0, 57, 64
1, 438, Note_on_c, 0, 60, 16
1, 438, Note_off_c, 0, 62, 64
1, 433, Note_on_c, 0, 62, 44
1, 433, Note_off_c, 0, 60, 64
1, 444, Note_on_c, 0, 61, 32
1, 444, Note_off_c, 0, 62, 64
1, 446, Note_on_c, 0, 62, 39
1, 446, Note_off_c, 0, 61, 64
1, 452, Note_on_c, 0, 67, 38
1, 452, Note_off_c, 0, 62, 64
1, 458, Note_on_c, 0, 64, 51
1, 458, Note_off_c, 0, 67, 64
1, 471, Note_on_c, 0, 66, 33
1, 471, Note_off_c, 0, 64, 64
1, 487, Note_on_c, 0, 67, 26
1, 487, Note_off_c, 0, 66, 64
1, 491, Note_on_c, 0, 64, 67
1, 491, Note_off_c, 0, 67, 64
1, 498, Note_on_c, 0, 63, 42
1, 498, Note_off_c, 0, 64, 64
1, 506, Note_on_c, 0, 62, 39
1, 506, Note_off_c, 0, 63, 64
1, 510, Note_on_c, 0, 64, 39
1, 510, Note_off_c, 0, 62, 64
1, 537, Note_on_c, 0, 59, 41
1, 537, Note_off_c, 0, 64, 64
1, 547, Note_on_c, 0, 59, 32
1, 547, Note_off_c, 0, 59, 64
1, 556, Note_on_c, 0, 62, 33
1, 556, Note_off_c, 0, 59, 64
1, 562, Note_on_c, 0, 63, 39
1, 562, Note_off_c, 0, 62, 64
1, 565, Note_on_c, 0, 64, 61
1, 565, Note_off_c, 0, 63, 64
1, 574, Note_on_c, 0, 63, 33
1, 574, Note_off_c, 0, 64, 64
1, 580, Note_on_c, 0, 64, 24
1, 580, Note_off_c, 0, 63, 64
1, 588, Note_on_c, 0, 64, 25
1, 588, Note_off_c, 0, 64, 64
1, 593, Note_on_c, 0, 67, 44
1, 593, Note_off_c, 0, 64, 64
1, 603, Note_on_c, 0, 64, 59
1, 603, Note_off_c, 0, 67, 64
1, 613, Note_on_c, 0, 64, 40
1, 613, Note_off_c, 0, 64, 64
1, 614, Note_on_c, 0, 63, 29
1, 614, Note_off_c, 0, 64, 64
1, 613, Note_on_c, 0, 64, 40
1, 613, Note_off_c, 0, 63, 64
1, 619, Note_on_c, 0, 58, 38
1, 619, Note_off_c, 0, 64, 64
1, 622, Note_on_c, 0, 59, 40
1, 622, Note_off_c, 0, 58, 64
1, 630, Note_on_c, 0, 62, 16
1, 630, Note_off_c, 0, 59, 64
1, 635, Note_on_c, 0, 62, 10
1, 635, Note_off_c, 0, 62, 64
1, 661, Note_on_c, 0, 63, 47
1, 661, Note_off_c, 0, 62, 64
1, 663, Note_on_c, 0, 62, 46
1, 663, Note_off_c, 0, 63, 64
1, 670, Note_on_c, 0, 61, 29
1, 670, Note_off_c, 0, 62, 64
1, 677, Note_on_c, 0, 59, 28
1, 677, Note_off_c, 0, 61, 64
1, 687, Note_on_c, 0, 62, 23
1, 687, Note_off_c, 0, 59, 64
1, 691, Note_on_c, 0, 61, 33
1, 691, Note_off_c, 0, 62, 64
1, 692, Note_on_c, 0, 62, 57
1, 692, Note_off_c, 0, 61, 64
1, 699, Note_on_c, 0, 65, 27
1, 699, Note_off_c, 0, 62, 64
1, 700, Note_on_c, 0, 64, 58
1, 700, Note_off_c, 0, 65, 64
1, 705, Note_on_c, 0, 62, 47
1, 705, Note_off_c, 0, 64, 64
1, 714, Note_on_c, 0, 64, 34
1, 714, Note_off_c, 0, 62, 64
1, 727, Note_on_c, 0, 62, 26
1, 727, Note_off_c, 0, 64, 64
1, 769, Note_on_c, 0, 56, 24
1, 769, Note_off_c, 0, 62, 64
1, 777, Note_on_c, 0, 57, 18
1, 777, Note_off_c, 0, 56, 64
1, 781, Note_on_c, 0, 56, 26
1, 781, Note_off_c, 0, 57, 64
1, 787, Note_on_c, 0, 63, 34
1, 787, Note_off_c, 0, 56, 64
1, 792, Note_on_c, 0, 63, 20
1, 792, Note_off_c, 0, 63, 64
1, 794, Note_on_c, 0, 62, 36
1, 794, Note_off_c, 0, 63, 64
1, 804, Note_on_c, 0, 62, 19
1, 804, Note_off_c, 0, 62, 64
1, 809, Note_on_c, 0, 58, 27
1, 809, Note_off_c, 0, 62, 64
1, 812, Note_off_c, 0, 58, 64
1, 812, End_track
0, 0, End_of_file
